<?xml version="1.0" encoding="UTF-8"?>
<svg xmlns="http://www.w3.org/2000/svg" width="595.276pt" height="841.890pt" viewBox="0.000 0.000 595.276 841.890">
  <style>
        .line, .dot, .feint-line, .margin-line { stroke-linecap: round; }
        .stroke-linecap-butt { stroke-linecap: butt; }
        .rectangle { fill: #ffffff; }


        .line        { stroke-width: 0.24px; opacity: 1; }
        .feint-line  { stroke-width: 0.169705627484771px; opacity: 1; }
        .dot         { stroke-width: 0.96px; opacity: 1; }
        .margin-line { stroke-width: 0.24px; opacity: 1; }
        .line        { stroke: #000000; }
        .feint-line  { stroke: #000000; }
        .dot         { stroke: #000000; }
        .margin-line { stroke: #000000; }
  </style>
  <defs/>
  <g id="grid">
    <line x1="8.504" x2="8.504" y1="12.756" y2="829.134" class="dot" stroke-dasharray="0.010 16.998" stroke-dashoffset="0.005"/>
    <line x1="25.512" x2="25.512" y1="12.756" y2="829.134" class="dot" stroke-dasharray="0.010 16.998" stroke-dashoffset="0.005"/>
    <line x1="42.520" x2="42.520" y1="12.756" y2="829.134" class="dot" stroke-dasharray="0.010 16.998" stroke-dashoffset="0.005"/>
    <line x1="59.528" x2="59.528" y1="12.756" y2="829.134" class="dot" stroke-dasharray="0.010 16.998" stroke-dashoffset="0.005"/>
    <line x1="76.536" x2="76.536" y1="12.756" y2="829.134" class="dot" stroke-dasharray="0.010 16.998" stroke-dashoffset="0.005"/>
    <line x1="93.544" x2="93.544" y1="12.756" y2="829.134" class="dot" stroke-dasharray="0.010 16.998" stroke-dashoffset="0.005"/>
    <line x1="110.551" x2="110.551" y1="12.756" y2="829.134" class="dot" stroke-dasharray="0.010 16.998" stroke-dashoffset="0.005"/>
    <line x1="127.559" x2="127.559" y1="12.756" y2="829.134" class="dot" stroke-dasharray="0.010 16.998" stroke-dashoffset="0.005"/>
    <line x1="144.567" x2="144.567" y1="12.756" y2="829.134" class="dot" stroke-dasharray="0.010 16.998" stroke-dashoffset="0.005"/>
    <line x1="161.575" x2="161.575" y1="12.756" y2="829.134" class="dot" stroke-dasharray="0.010 16.998" stroke-dashoffset="0.005"/>
    <line x1="178.583" x2="178.583" y1="12.756" y2="829.134" class="dot" stroke-dasharray="0.010 16.998" stroke-dashoffset="0.005"/>
    <line x1="195.591" x2="195.591" y1="12.756" y2="829.134" class="dot" stroke-dasharray="0.010 16.998" stroke-dashoffset="0.005"/>
    <line x1="212.599" x2="212.599" y1="12.756" y2="829.134" class="dot" stroke-dasharray="0.010 16.998" stroke-dashoffset="0.005"/>
    <line x1="229.607" x2="229.607" y1="12.756" y2="829.134" class="dot" stroke-dasharray="0.010 16.998" stroke-dashoffset="0.005"/>
    <line x1="246.614" x2="246.614" y1="12.756" y2="829.134" class="dot" stroke-dasharray="0.010 16.998" stroke-dashoffset="0.005"/>
    <line x1="263.622" x2="263.622" y1="12.756" y2="829.134" class="dot" stroke-dasharray="0.010 16.998" stroke-dashoffset="0.005"/>
    <line x1="280.630" x2="280.630" y1="12.756" y2="829.134" class="dot" stroke-dasharray="0.010 16.998" stroke-dashoffset="0.005"/>
    <line x1="297.638" x2="297.638" y1="12.756" y2="829.134" class="dot" stroke-dasharray="0.010 16.998" stroke-dashoffset="0.005"/>
    <line x1="314.646" x2="314.646" y1="12.756" y2="829.134" class="dot" stroke-dasharray="0.010 16.998" stroke-dashoffset="0.005"/>
    <line x1="331.654" x2="331.654" y1="12.756" y2="829.134" class="dot" stroke-dasharray="0.010 16.998" stroke-dashoffset="0.005"/>
    <line x1="348.662" x2="348.662" y1="12.756" y2="829.134" class="dot" stroke-dasharray="0.010 16.998" stroke-dashoffset="0.005"/>
    <line x1="365.669" x2="365.669" y1="12.756" y2="829.134" class="dot" stroke-dasharray="0.010 16.998" stroke-dashoffset="0.005"/>
    <line x1="382.677" x2="382.677" y1="12.756" y2="829.134" class="dot" stroke-dasharray="0.010 16.998" stroke-dashoffset="0.005"/>
    <line x1="399.685" x2="399.685" y1="12.756" y2="829.134" class="dot" stroke-dasharray="0.010 16.998" stroke-dashoffset="0.005"/>
    <line x1="416.693" x2="416.693" y1="12.756" y2="829.134" class="dot" stroke-dasharray="0.010 16.998" stroke-dashoffset="0.005"/>
    <line x1="433.701" x2="433.701" y1="12.756" y2="829.134" class="dot" stroke-dasharray="0.010 16.998" stroke-dashoffset="0.005"/>
    <line x1="450.709" x2="450.709" y1="12.756" y2="829.134" class="dot" stroke-dasharray="0.010 16.998" stroke-dashoffset="0.005"/>
    <line x1="467.717" x2="467.717" y1="12.756" y2="829.134" class="dot" stroke-dasharray="0.010 16.998" stroke-dashoffset="0.005"/>
    <line x1="484.725" x2="484.725" y1="12.756" y2="829.134" class="dot" stroke-dasharray="0.010 16.998" stroke-dashoffset="0.005"/>
    <line x1="501.732" x2="501.732" y1="12.756" y2="829.134" class="dot" stroke-dasharray="0.010 16.998" stroke-dashoffset="0.005"/>
    <line x1="518.740" x2="518.740" y1="12.756" y2="829.134" class="dot" stroke-dasharray="0.010 16.998" stroke-dashoffset="0.005"/>
    <line x1="535.748" x2="535.748" y1="12.756" y2="829.134" class="dot" stroke-dasharray="0.010 16.998" stroke-dashoffset="0.005"/>
    <line x1="552.756" x2="552.756" y1="12.756" y2="829.134" class="dot" stroke-dasharray="0.010 16.998" stroke-dashoffset="0.005"/>
    <line x1="569.764" x2="569.764" y1="12.756" y2="829.134" class="dot" stroke-dasharray="0.010 16.998" stroke-dashoffset="0.005"/>
    <line x1="586.772" x2="586.772" y1="12.756" y2="829.134" class="dot" stroke-dasharray="0.010 16.998" stroke-dashoffset="0.005"/>
  </g>
  <rect x="203.138" y="815.89" width="189" height="12" fill="#ffffff" stroke="none" stroke-width="0px"/>
  <text x="297.638" y="823.89" text-anchor="middle" fill="#808080" stroke="none" stroke-width="0" style="font-family: &quot;Courier&quot;, &quot;Courier New&quot;, monospace; font-size: 6pt;">https://github.com/dse/printable-paper</text>
</svg>
