<?xml version="1.0" encoding="UTF-8"?>
<svg xmlns="http://www.w3.org/2000/svg" width="396.000pt" height="612.000pt" viewBox="0.000 0.000 396.000 612.000">
  <style>
        .line, .dot, .major-line, .feint-line, .margin-line { stroke-linecap: round; }
        .stroke-linecap-butt   { stroke-linecap: butt; }
        .stroke-linecap-round  { stroke-linecap: round; }
        .stroke-linecap-square { stroke-linecap: square; }
        .rectangle { fill: #ffffff; }


        .line        { stroke-width: 0.96px; opacity:  1; }
        .major-line  { stroke-width: 1.35764501987817px; opacity: 1; }
        .feint-line  { stroke-width: 0.678822509939086px; opacity:  1; }
        .dot         { stroke-width: 1.35764501987817px; opacity:  1; }
        .margin-line { stroke-width: 0.96px; opacity:  1; }
        .line        { stroke: #b3b3ff; }
        .major-line  { stroke: #b3b3ff; }
        .feint-line  { stroke: #b3b3ff; }
        .dot         { stroke: #b3b3ff; }
        .margin-line { stroke: #ff9e9e; }
  </style>
  <defs/>
  <g id="grid">
    <line x1="0.000" x2="396.000" y1="72.000" y2="72.000" class="line horizontal"/>
    <line x1="0.000" x2="396.000" y1="94.500" y2="94.500" class="line horizontal"/>
    <line x1="0.000" x2="396.000" y1="117.000" y2="117.000" class="line horizontal"/>
    <line x1="0.000" x2="396.000" y1="139.500" y2="139.500" class="line horizontal"/>
    <line x1="0.000" x2="396.000" y1="162.000" y2="162.000" class="line horizontal"/>
    <line x1="0.000" x2="396.000" y1="184.500" y2="184.500" class="line horizontal"/>
    <line x1="0.000" x2="396.000" y1="207.000" y2="207.000" class="line horizontal"/>
    <line x1="0.000" x2="396.000" y1="229.500" y2="229.500" class="line horizontal"/>
    <line x1="0.000" x2="396.000" y1="252.000" y2="252.000" class="line horizontal"/>
    <line x1="0.000" x2="396.000" y1="274.500" y2="274.500" class="line horizontal"/>
    <line x1="0.000" x2="396.000" y1="297.000" y2="297.000" class="line horizontal"/>
    <line x1="0.000" x2="396.000" y1="319.500" y2="319.500" class="line horizontal"/>
    <line x1="0.000" x2="396.000" y1="342.000" y2="342.000" class="line horizontal"/>
    <line x1="0.000" x2="396.000" y1="364.500" y2="364.500" class="line horizontal"/>
    <line x1="0.000" x2="396.000" y1="387.000" y2="387.000" class="line horizontal"/>
    <line x1="0.000" x2="396.000" y1="409.500" y2="409.500" class="line horizontal"/>
    <line x1="0.000" x2="396.000" y1="432.000" y2="432.000" class="line horizontal"/>
    <line x1="0.000" x2="396.000" y1="454.500" y2="454.500" class="line horizontal"/>
    <line x1="0.000" x2="396.000" y1="477.000" y2="477.000" class="line horizontal"/>
    <line x1="0.000" x2="396.000" y1="499.500" y2="499.500" class="line horizontal"/>
    <line x1="0.000" x2="396.000" y1="522.000" y2="522.000" class="line horizontal"/>
    <line x1="0.000" x2="396.000" y1="544.500" y2="544.500" class="line horizontal"/>
    <line x1="54.000" x2="54.000" y1="4.500" y2="612.000" class="dot vertical" stroke-dasharray="0.010 5.615" stroke-dashoffset="0.005"/>
    <line x1="76.500" x2="76.500" y1="4.500" y2="612.000" class="dot vertical" stroke-dasharray="0.010 5.615" stroke-dashoffset="0.005"/>
    <line x1="99.000" x2="99.000" y1="4.500" y2="612.000" class="dot vertical" stroke-dasharray="0.010 5.615" stroke-dashoffset="0.005"/>
    <line x1="121.500" x2="121.500" y1="4.500" y2="612.000" class="dot vertical" stroke-dasharray="0.010 5.615" stroke-dashoffset="0.005"/>
    <line x1="144.000" x2="144.000" y1="4.500" y2="612.000" class="dot vertical" stroke-dasharray="0.010 5.615" stroke-dashoffset="0.005"/>
    <line x1="166.500" x2="166.500" y1="4.500" y2="612.000" class="dot vertical" stroke-dasharray="0.010 5.615" stroke-dashoffset="0.005"/>
    <line x1="189.000" x2="189.000" y1="4.500" y2="612.000" class="dot vertical" stroke-dasharray="0.010 5.615" stroke-dashoffset="0.005"/>
    <line x1="211.500" x2="211.500" y1="4.500" y2="612.000" class="dot vertical" stroke-dasharray="0.010 5.615" stroke-dashoffset="0.005"/>
    <line x1="234.000" x2="234.000" y1="4.500" y2="612.000" class="dot vertical" stroke-dasharray="0.010 5.615" stroke-dashoffset="0.005"/>
    <line x1="256.500" x2="256.500" y1="4.500" y2="612.000" class="dot vertical" stroke-dasharray="0.010 5.615" stroke-dashoffset="0.005"/>
    <line x1="279.000" x2="279.000" y1="4.500" y2="612.000" class="dot vertical" stroke-dasharray="0.010 5.615" stroke-dashoffset="0.005"/>
    <line x1="301.500" x2="301.500" y1="4.500" y2="612.000" class="dot vertical" stroke-dasharray="0.010 5.615" stroke-dashoffset="0.005"/>
    <line x1="324.000" x2="324.000" y1="4.500" y2="612.000" class="dot vertical" stroke-dasharray="0.010 5.615" stroke-dashoffset="0.005"/>
    <line x1="346.500" x2="346.500" y1="4.500" y2="612.000" class="dot vertical" stroke-dasharray="0.010 5.615" stroke-dashoffset="0.005"/>
    <line x1="369.000" x2="369.000" y1="4.500" y2="612.000" class="dot vertical" stroke-dasharray="0.010 5.615" stroke-dashoffset="0.005"/>
    <line x1="391.500" x2="391.500" y1="4.500" y2="612.000" class="dot vertical" stroke-dasharray="0.010 5.615" stroke-dashoffset="0.005"/>
  </g>
  <g id="margin-line">
    <line x1="54.000" x2="54.000" y1="0.000" y2="612.000" class="margin-line vertical"/>
  </g>
  <rect x="103.5" y="586" width="189" height="12" fill="#ffffff" stroke="none" stroke-width="0px"/>
  <text x="198" y="594" text-anchor="middle" fill="#b3b3ff" stroke="none" stroke-width="0" style="font-family: &quot;Courier&quot;, &quot;Courier New&quot;, monospace; font-size: 6pt;">https://github.com/dse/printable-paper</text>
</svg>
