<?xml version="1.0" encoding="UTF-8"?>
<svg xmlns="http://www.w3.org/2000/svg" version="1.1" width="528.000px" height="816.000px" viewBox="0.000 0.000 528.000 816.000">
  <style>text {
    text-anchor: middle;
    font-family: 'Times New Roman', 'Times Roman', serif;
    font-size: 8px;
    fill: #cccccc;
}
circle {
    fill: #cccccc;
}
</style>
  <g id="document">
    <circle cx="37.228" cy="79.538" r="1.000"/>
    <circle cx="37.228" cy="98.436" r="1.000"/>
    <circle cx="37.228" cy="117.334" r="1.000"/>
    <circle cx="37.228" cy="136.231" r="1.000"/>
    <circle cx="37.228" cy="155.129" r="1.000"/>
    <circle cx="37.228" cy="174.027" r="1.000"/>
    <circle cx="37.228" cy="192.924" r="1.000"/>
    <circle cx="37.228" cy="211.822" r="1.000"/>
    <circle cx="37.228" cy="230.720" r="1.000"/>
    <circle cx="37.228" cy="249.617" r="1.000"/>
    <circle cx="37.228" cy="268.515" r="1.000"/>
    <circle cx="37.228" cy="287.412" r="1.000"/>
    <circle cx="37.228" cy="306.310" r="1.000"/>
    <circle cx="37.228" cy="325.208" r="1.000"/>
    <circle cx="37.228" cy="344.105" r="1.000"/>
    <circle cx="37.228" cy="363.003" r="1.000"/>
    <circle cx="37.228" cy="381.901" r="1.000"/>
    <circle cx="37.228" cy="400.798" r="1.000"/>
    <circle cx="37.228" cy="419.696" r="1.000"/>
    <circle cx="37.228" cy="438.594" r="1.000"/>
    <circle cx="37.228" cy="457.491" r="1.000"/>
    <circle cx="37.228" cy="476.389" r="1.000"/>
    <circle cx="37.228" cy="495.286" r="1.000"/>
    <circle cx="37.228" cy="514.184" r="1.000"/>
    <circle cx="37.228" cy="533.082" r="1.000"/>
    <circle cx="37.228" cy="551.979" r="1.000"/>
    <circle cx="37.228" cy="570.877" r="1.000"/>
    <circle cx="37.228" cy="589.775" r="1.000"/>
    <circle cx="37.228" cy="608.672" r="1.000"/>
    <circle cx="37.228" cy="627.570" r="1.000"/>
    <circle cx="37.228" cy="646.468" r="1.000"/>
    <circle cx="37.228" cy="665.365" r="1.000"/>
    <circle cx="37.228" cy="684.263" r="1.000"/>
    <circle cx="37.228" cy="703.161" r="1.000"/>
    <circle cx="37.228" cy="722.058" r="1.000"/>
    <circle cx="37.228" cy="740.956" r="1.000"/>
    <circle cx="37.228" cy="759.853" r="1.000"/>
    <circle cx="56.126" cy="79.538" r="1.000"/>
    <circle cx="56.126" cy="98.436" r="1.000"/>
    <circle cx="56.126" cy="117.334" r="1.000"/>
    <circle cx="56.126" cy="136.231" r="1.000"/>
    <circle cx="56.126" cy="155.129" r="1.000"/>
    <circle cx="56.126" cy="174.027" r="1.000"/>
    <circle cx="56.126" cy="192.924" r="1.000"/>
    <circle cx="56.126" cy="211.822" r="1.000"/>
    <circle cx="56.126" cy="230.720" r="1.000"/>
    <circle cx="56.126" cy="249.617" r="1.000"/>
    <circle cx="56.126" cy="268.515" r="1.000"/>
    <circle cx="56.126" cy="287.412" r="1.000"/>
    <circle cx="56.126" cy="306.310" r="1.000"/>
    <circle cx="56.126" cy="325.208" r="1.000"/>
    <circle cx="56.126" cy="344.105" r="1.000"/>
    <circle cx="56.126" cy="363.003" r="1.000"/>
    <circle cx="56.126" cy="381.901" r="1.000"/>
    <circle cx="56.126" cy="400.798" r="1.000"/>
    <circle cx="56.126" cy="419.696" r="1.000"/>
    <circle cx="56.126" cy="438.594" r="1.000"/>
    <circle cx="56.126" cy="457.491" r="1.000"/>
    <circle cx="56.126" cy="476.389" r="1.000"/>
    <circle cx="56.126" cy="495.286" r="1.000"/>
    <circle cx="56.126" cy="514.184" r="1.000"/>
    <circle cx="56.126" cy="533.082" r="1.000"/>
    <circle cx="56.126" cy="551.979" r="1.000"/>
    <circle cx="56.126" cy="570.877" r="1.000"/>
    <circle cx="56.126" cy="589.775" r="1.000"/>
    <circle cx="56.126" cy="608.672" r="1.000"/>
    <circle cx="56.126" cy="627.570" r="1.000"/>
    <circle cx="56.126" cy="646.468" r="1.000"/>
    <circle cx="56.126" cy="665.365" r="1.000"/>
    <circle cx="56.126" cy="684.263" r="1.000"/>
    <circle cx="56.126" cy="703.161" r="1.000"/>
    <circle cx="56.126" cy="722.058" r="1.000"/>
    <circle cx="56.126" cy="740.956" r="1.000"/>
    <circle cx="56.126" cy="759.853" r="1.000"/>
    <circle cx="75.024" cy="79.538" r="1.000"/>
    <circle cx="75.024" cy="98.436" r="1.000"/>
    <circle cx="75.024" cy="117.334" r="1.000"/>
    <circle cx="75.024" cy="136.231" r="1.000"/>
    <circle cx="75.024" cy="155.129" r="1.000"/>
    <circle cx="75.024" cy="174.027" r="1.000"/>
    <circle cx="75.024" cy="192.924" r="1.000"/>
    <circle cx="75.024" cy="211.822" r="1.000"/>
    <circle cx="75.024" cy="230.720" r="1.000"/>
    <circle cx="75.024" cy="249.617" r="1.000"/>
    <circle cx="75.024" cy="268.515" r="1.000"/>
    <circle cx="75.024" cy="287.412" r="1.000"/>
    <circle cx="75.024" cy="306.310" r="1.000"/>
    <circle cx="75.024" cy="325.208" r="1.000"/>
    <circle cx="75.024" cy="344.105" r="1.000"/>
    <circle cx="75.024" cy="363.003" r="1.000"/>
    <circle cx="75.024" cy="381.901" r="1.000"/>
    <circle cx="75.024" cy="400.798" r="1.000"/>
    <circle cx="75.024" cy="419.696" r="1.000"/>
    <circle cx="75.024" cy="438.594" r="1.000"/>
    <circle cx="75.024" cy="457.491" r="1.000"/>
    <circle cx="75.024" cy="476.389" r="1.000"/>
    <circle cx="75.024" cy="495.286" r="1.000"/>
    <circle cx="75.024" cy="514.184" r="1.000"/>
    <circle cx="75.024" cy="533.082" r="1.000"/>
    <circle cx="75.024" cy="551.979" r="1.000"/>
    <circle cx="75.024" cy="570.877" r="1.000"/>
    <circle cx="75.024" cy="589.775" r="1.000"/>
    <circle cx="75.024" cy="608.672" r="1.000"/>
    <circle cx="75.024" cy="627.570" r="1.000"/>
    <circle cx="75.024" cy="646.468" r="1.000"/>
    <circle cx="75.024" cy="665.365" r="1.000"/>
    <circle cx="75.024" cy="684.263" r="1.000"/>
    <circle cx="75.024" cy="703.161" r="1.000"/>
    <circle cx="75.024" cy="722.058" r="1.000"/>
    <circle cx="75.024" cy="740.956" r="1.000"/>
    <circle cx="75.024" cy="759.853" r="1.000"/>
    <circle cx="93.921" cy="79.538" r="1.000"/>
    <circle cx="93.921" cy="98.436" r="1.000"/>
    <circle cx="93.921" cy="117.334" r="1.000"/>
    <circle cx="93.921" cy="136.231" r="1.000"/>
    <circle cx="93.921" cy="155.129" r="1.000"/>
    <circle cx="93.921" cy="174.027" r="1.000"/>
    <circle cx="93.921" cy="192.924" r="1.000"/>
    <circle cx="93.921" cy="211.822" r="1.000"/>
    <circle cx="93.921" cy="230.720" r="1.000"/>
    <circle cx="93.921" cy="249.617" r="1.000"/>
    <circle cx="93.921" cy="268.515" r="1.000"/>
    <circle cx="93.921" cy="287.412" r="1.000"/>
    <circle cx="93.921" cy="306.310" r="1.000"/>
    <circle cx="93.921" cy="325.208" r="1.000"/>
    <circle cx="93.921" cy="344.105" r="1.000"/>
    <circle cx="93.921" cy="363.003" r="1.000"/>
    <circle cx="93.921" cy="381.901" r="1.000"/>
    <circle cx="93.921" cy="400.798" r="1.000"/>
    <circle cx="93.921" cy="419.696" r="1.000"/>
    <circle cx="93.921" cy="438.594" r="1.000"/>
    <circle cx="93.921" cy="457.491" r="1.000"/>
    <circle cx="93.921" cy="476.389" r="1.000"/>
    <circle cx="93.921" cy="495.286" r="1.000"/>
    <circle cx="93.921" cy="514.184" r="1.000"/>
    <circle cx="93.921" cy="533.082" r="1.000"/>
    <circle cx="93.921" cy="551.979" r="1.000"/>
    <circle cx="93.921" cy="570.877" r="1.000"/>
    <circle cx="93.921" cy="589.775" r="1.000"/>
    <circle cx="93.921" cy="608.672" r="1.000"/>
    <circle cx="93.921" cy="627.570" r="1.000"/>
    <circle cx="93.921" cy="646.468" r="1.000"/>
    <circle cx="93.921" cy="665.365" r="1.000"/>
    <circle cx="93.921" cy="684.263" r="1.000"/>
    <circle cx="93.921" cy="703.161" r="1.000"/>
    <circle cx="93.921" cy="722.058" r="1.000"/>
    <circle cx="93.921" cy="740.956" r="1.000"/>
    <circle cx="93.921" cy="759.853" r="1.000"/>
    <circle cx="112.819" cy="79.538" r="1.000"/>
    <circle cx="112.819" cy="98.436" r="1.000"/>
    <circle cx="112.819" cy="117.334" r="1.000"/>
    <circle cx="112.819" cy="136.231" r="1.000"/>
    <circle cx="112.819" cy="155.129" r="1.000"/>
    <circle cx="112.819" cy="174.027" r="1.000"/>
    <circle cx="112.819" cy="192.924" r="1.000"/>
    <circle cx="112.819" cy="211.822" r="1.000"/>
    <circle cx="112.819" cy="230.720" r="1.000"/>
    <circle cx="112.819" cy="249.617" r="1.000"/>
    <circle cx="112.819" cy="268.515" r="1.000"/>
    <circle cx="112.819" cy="287.412" r="1.000"/>
    <circle cx="112.819" cy="306.310" r="1.000"/>
    <circle cx="112.819" cy="325.208" r="1.000"/>
    <circle cx="112.819" cy="344.105" r="1.000"/>
    <circle cx="112.819" cy="363.003" r="1.000"/>
    <circle cx="112.819" cy="381.901" r="1.000"/>
    <circle cx="112.819" cy="400.798" r="1.000"/>
    <circle cx="112.819" cy="419.696" r="1.000"/>
    <circle cx="112.819" cy="438.594" r="1.000"/>
    <circle cx="112.819" cy="457.491" r="1.000"/>
    <circle cx="112.819" cy="476.389" r="1.000"/>
    <circle cx="112.819" cy="495.286" r="1.000"/>
    <circle cx="112.819" cy="514.184" r="1.000"/>
    <circle cx="112.819" cy="533.082" r="1.000"/>
    <circle cx="112.819" cy="551.979" r="1.000"/>
    <circle cx="112.819" cy="570.877" r="1.000"/>
    <circle cx="112.819" cy="589.775" r="1.000"/>
    <circle cx="112.819" cy="608.672" r="1.000"/>
    <circle cx="112.819" cy="627.570" r="1.000"/>
    <circle cx="112.819" cy="646.468" r="1.000"/>
    <circle cx="112.819" cy="665.365" r="1.000"/>
    <circle cx="112.819" cy="684.263" r="1.000"/>
    <circle cx="112.819" cy="703.161" r="1.000"/>
    <circle cx="112.819" cy="722.058" r="1.000"/>
    <circle cx="112.819" cy="740.956" r="1.000"/>
    <circle cx="112.819" cy="759.853" r="1.000"/>
    <circle cx="131.717" cy="79.538" r="1.000"/>
    <circle cx="131.717" cy="98.436" r="1.000"/>
    <circle cx="131.717" cy="117.334" r="1.000"/>
    <circle cx="131.717" cy="136.231" r="1.000"/>
    <circle cx="131.717" cy="155.129" r="1.000"/>
    <circle cx="131.717" cy="174.027" r="1.000"/>
    <circle cx="131.717" cy="192.924" r="1.000"/>
    <circle cx="131.717" cy="211.822" r="1.000"/>
    <circle cx="131.717" cy="230.720" r="1.000"/>
    <circle cx="131.717" cy="249.617" r="1.000"/>
    <circle cx="131.717" cy="268.515" r="1.000"/>
    <circle cx="131.717" cy="287.412" r="1.000"/>
    <circle cx="131.717" cy="306.310" r="1.000"/>
    <circle cx="131.717" cy="325.208" r="1.000"/>
    <circle cx="131.717" cy="344.105" r="1.000"/>
    <circle cx="131.717" cy="363.003" r="1.000"/>
    <circle cx="131.717" cy="381.901" r="1.000"/>
    <circle cx="131.717" cy="400.798" r="1.000"/>
    <circle cx="131.717" cy="419.696" r="1.000"/>
    <circle cx="131.717" cy="438.594" r="1.000"/>
    <circle cx="131.717" cy="457.491" r="1.000"/>
    <circle cx="131.717" cy="476.389" r="1.000"/>
    <circle cx="131.717" cy="495.286" r="1.000"/>
    <circle cx="131.717" cy="514.184" r="1.000"/>
    <circle cx="131.717" cy="533.082" r="1.000"/>
    <circle cx="131.717" cy="551.979" r="1.000"/>
    <circle cx="131.717" cy="570.877" r="1.000"/>
    <circle cx="131.717" cy="589.775" r="1.000"/>
    <circle cx="131.717" cy="608.672" r="1.000"/>
    <circle cx="131.717" cy="627.570" r="1.000"/>
    <circle cx="131.717" cy="646.468" r="1.000"/>
    <circle cx="131.717" cy="665.365" r="1.000"/>
    <circle cx="131.717" cy="684.263" r="1.000"/>
    <circle cx="131.717" cy="703.161" r="1.000"/>
    <circle cx="131.717" cy="722.058" r="1.000"/>
    <circle cx="131.717" cy="740.956" r="1.000"/>
    <circle cx="131.717" cy="759.853" r="1.000"/>
    <circle cx="150.614" cy="79.538" r="1.000"/>
    <circle cx="150.614" cy="98.436" r="1.000"/>
    <circle cx="150.614" cy="117.334" r="1.000"/>
    <circle cx="150.614" cy="136.231" r="1.000"/>
    <circle cx="150.614" cy="155.129" r="1.000"/>
    <circle cx="150.614" cy="174.027" r="1.000"/>
    <circle cx="150.614" cy="192.924" r="1.000"/>
    <circle cx="150.614" cy="211.822" r="1.000"/>
    <circle cx="150.614" cy="230.720" r="1.000"/>
    <circle cx="150.614" cy="249.617" r="1.000"/>
    <circle cx="150.614" cy="268.515" r="1.000"/>
    <circle cx="150.614" cy="287.412" r="1.000"/>
    <circle cx="150.614" cy="306.310" r="1.000"/>
    <circle cx="150.614" cy="325.208" r="1.000"/>
    <circle cx="150.614" cy="344.105" r="1.000"/>
    <circle cx="150.614" cy="363.003" r="1.000"/>
    <circle cx="150.614" cy="381.901" r="1.000"/>
    <circle cx="150.614" cy="400.798" r="1.000"/>
    <circle cx="150.614" cy="419.696" r="1.000"/>
    <circle cx="150.614" cy="438.594" r="1.000"/>
    <circle cx="150.614" cy="457.491" r="1.000"/>
    <circle cx="150.614" cy="476.389" r="1.000"/>
    <circle cx="150.614" cy="495.286" r="1.000"/>
    <circle cx="150.614" cy="514.184" r="1.000"/>
    <circle cx="150.614" cy="533.082" r="1.000"/>
    <circle cx="150.614" cy="551.979" r="1.000"/>
    <circle cx="150.614" cy="570.877" r="1.000"/>
    <circle cx="150.614" cy="589.775" r="1.000"/>
    <circle cx="150.614" cy="608.672" r="1.000"/>
    <circle cx="150.614" cy="627.570" r="1.000"/>
    <circle cx="150.614" cy="646.468" r="1.000"/>
    <circle cx="150.614" cy="665.365" r="1.000"/>
    <circle cx="150.614" cy="684.263" r="1.000"/>
    <circle cx="150.614" cy="703.161" r="1.000"/>
    <circle cx="150.614" cy="722.058" r="1.000"/>
    <circle cx="150.614" cy="740.956" r="1.000"/>
    <circle cx="150.614" cy="759.853" r="1.000"/>
    <circle cx="169.512" cy="79.538" r="1.000"/>
    <circle cx="169.512" cy="98.436" r="1.000"/>
    <circle cx="169.512" cy="117.334" r="1.000"/>
    <circle cx="169.512" cy="136.231" r="1.000"/>
    <circle cx="169.512" cy="155.129" r="1.000"/>
    <circle cx="169.512" cy="174.027" r="1.000"/>
    <circle cx="169.512" cy="192.924" r="1.000"/>
    <circle cx="169.512" cy="211.822" r="1.000"/>
    <circle cx="169.512" cy="230.720" r="1.000"/>
    <circle cx="169.512" cy="249.617" r="1.000"/>
    <circle cx="169.512" cy="268.515" r="1.000"/>
    <circle cx="169.512" cy="287.412" r="1.000"/>
    <circle cx="169.512" cy="306.310" r="1.000"/>
    <circle cx="169.512" cy="325.208" r="1.000"/>
    <circle cx="169.512" cy="344.105" r="1.000"/>
    <circle cx="169.512" cy="363.003" r="1.000"/>
    <circle cx="169.512" cy="381.901" r="1.000"/>
    <circle cx="169.512" cy="400.798" r="1.000"/>
    <circle cx="169.512" cy="419.696" r="1.000"/>
    <circle cx="169.512" cy="438.594" r="1.000"/>
    <circle cx="169.512" cy="457.491" r="1.000"/>
    <circle cx="169.512" cy="476.389" r="1.000"/>
    <circle cx="169.512" cy="495.286" r="1.000"/>
    <circle cx="169.512" cy="514.184" r="1.000"/>
    <circle cx="169.512" cy="533.082" r="1.000"/>
    <circle cx="169.512" cy="551.979" r="1.000"/>
    <circle cx="169.512" cy="570.877" r="1.000"/>
    <circle cx="169.512" cy="589.775" r="1.000"/>
    <circle cx="169.512" cy="608.672" r="1.000"/>
    <circle cx="169.512" cy="627.570" r="1.000"/>
    <circle cx="169.512" cy="646.468" r="1.000"/>
    <circle cx="169.512" cy="665.365" r="1.000"/>
    <circle cx="169.512" cy="684.263" r="1.000"/>
    <circle cx="169.512" cy="703.161" r="1.000"/>
    <circle cx="169.512" cy="722.058" r="1.000"/>
    <circle cx="169.512" cy="740.956" r="1.000"/>
    <circle cx="169.512" cy="759.853" r="1.000"/>
    <circle cx="188.409" cy="79.538" r="1.000"/>
    <circle cx="188.409" cy="98.436" r="1.000"/>
    <circle cx="188.409" cy="117.334" r="1.000"/>
    <circle cx="188.409" cy="136.231" r="1.000"/>
    <circle cx="188.409" cy="155.129" r="1.000"/>
    <circle cx="188.409" cy="174.027" r="1.000"/>
    <circle cx="188.409" cy="192.924" r="1.000"/>
    <circle cx="188.409" cy="211.822" r="1.000"/>
    <circle cx="188.409" cy="230.720" r="1.000"/>
    <circle cx="188.409" cy="249.617" r="1.000"/>
    <circle cx="188.409" cy="268.515" r="1.000"/>
    <circle cx="188.409" cy="287.412" r="1.000"/>
    <circle cx="188.409" cy="306.310" r="1.000"/>
    <circle cx="188.409" cy="325.208" r="1.000"/>
    <circle cx="188.409" cy="344.105" r="1.000"/>
    <circle cx="188.409" cy="363.003" r="1.000"/>
    <circle cx="188.409" cy="381.901" r="1.000"/>
    <circle cx="188.409" cy="400.798" r="1.000"/>
    <circle cx="188.409" cy="419.696" r="1.000"/>
    <circle cx="188.409" cy="438.594" r="1.000"/>
    <circle cx="188.409" cy="457.491" r="1.000"/>
    <circle cx="188.409" cy="476.389" r="1.000"/>
    <circle cx="188.409" cy="495.286" r="1.000"/>
    <circle cx="188.409" cy="514.184" r="1.000"/>
    <circle cx="188.409" cy="533.082" r="1.000"/>
    <circle cx="188.409" cy="551.979" r="1.000"/>
    <circle cx="188.409" cy="570.877" r="1.000"/>
    <circle cx="188.409" cy="589.775" r="1.000"/>
    <circle cx="188.409" cy="608.672" r="1.000"/>
    <circle cx="188.409" cy="627.570" r="1.000"/>
    <circle cx="188.409" cy="646.468" r="1.000"/>
    <circle cx="188.409" cy="665.365" r="1.000"/>
    <circle cx="188.409" cy="684.263" r="1.000"/>
    <circle cx="188.409" cy="703.161" r="1.000"/>
    <circle cx="188.409" cy="722.058" r="1.000"/>
    <circle cx="188.409" cy="740.956" r="1.000"/>
    <circle cx="188.409" cy="759.853" r="1.000"/>
    <circle cx="207.307" cy="79.538" r="1.000"/>
    <circle cx="207.307" cy="98.436" r="1.000"/>
    <circle cx="207.307" cy="117.334" r="1.000"/>
    <circle cx="207.307" cy="136.231" r="1.000"/>
    <circle cx="207.307" cy="155.129" r="1.000"/>
    <circle cx="207.307" cy="174.027" r="1.000"/>
    <circle cx="207.307" cy="192.924" r="1.000"/>
    <circle cx="207.307" cy="211.822" r="1.000"/>
    <circle cx="207.307" cy="230.720" r="1.000"/>
    <circle cx="207.307" cy="249.617" r="1.000"/>
    <circle cx="207.307" cy="268.515" r="1.000"/>
    <circle cx="207.307" cy="287.412" r="1.000"/>
    <circle cx="207.307" cy="306.310" r="1.000"/>
    <circle cx="207.307" cy="325.208" r="1.000"/>
    <circle cx="207.307" cy="344.105" r="1.000"/>
    <circle cx="207.307" cy="363.003" r="1.000"/>
    <circle cx="207.307" cy="381.901" r="1.000"/>
    <circle cx="207.307" cy="400.798" r="1.000"/>
    <circle cx="207.307" cy="419.696" r="1.000"/>
    <circle cx="207.307" cy="438.594" r="1.000"/>
    <circle cx="207.307" cy="457.491" r="1.000"/>
    <circle cx="207.307" cy="476.389" r="1.000"/>
    <circle cx="207.307" cy="495.286" r="1.000"/>
    <circle cx="207.307" cy="514.184" r="1.000"/>
    <circle cx="207.307" cy="533.082" r="1.000"/>
    <circle cx="207.307" cy="551.979" r="1.000"/>
    <circle cx="207.307" cy="570.877" r="1.000"/>
    <circle cx="207.307" cy="589.775" r="1.000"/>
    <circle cx="207.307" cy="608.672" r="1.000"/>
    <circle cx="207.307" cy="627.570" r="1.000"/>
    <circle cx="207.307" cy="646.468" r="1.000"/>
    <circle cx="207.307" cy="665.365" r="1.000"/>
    <circle cx="207.307" cy="684.263" r="1.000"/>
    <circle cx="207.307" cy="703.161" r="1.000"/>
    <circle cx="207.307" cy="722.058" r="1.000"/>
    <circle cx="207.307" cy="740.956" r="1.000"/>
    <circle cx="207.307" cy="759.853" r="1.000"/>
    <circle cx="226.205" cy="79.538" r="1.000"/>
    <circle cx="226.205" cy="98.436" r="1.000"/>
    <circle cx="226.205" cy="117.334" r="1.000"/>
    <circle cx="226.205" cy="136.231" r="1.000"/>
    <circle cx="226.205" cy="155.129" r="1.000"/>
    <circle cx="226.205" cy="174.027" r="1.000"/>
    <circle cx="226.205" cy="192.924" r="1.000"/>
    <circle cx="226.205" cy="211.822" r="1.000"/>
    <circle cx="226.205" cy="230.720" r="1.000"/>
    <circle cx="226.205" cy="249.617" r="1.000"/>
    <circle cx="226.205" cy="268.515" r="1.000"/>
    <circle cx="226.205" cy="287.412" r="1.000"/>
    <circle cx="226.205" cy="306.310" r="1.000"/>
    <circle cx="226.205" cy="325.208" r="1.000"/>
    <circle cx="226.205" cy="344.105" r="1.000"/>
    <circle cx="226.205" cy="363.003" r="1.000"/>
    <circle cx="226.205" cy="381.901" r="1.000"/>
    <circle cx="226.205" cy="400.798" r="1.000"/>
    <circle cx="226.205" cy="419.696" r="1.000"/>
    <circle cx="226.205" cy="438.594" r="1.000"/>
    <circle cx="226.205" cy="457.491" r="1.000"/>
    <circle cx="226.205" cy="476.389" r="1.000"/>
    <circle cx="226.205" cy="495.286" r="1.000"/>
    <circle cx="226.205" cy="514.184" r="1.000"/>
    <circle cx="226.205" cy="533.082" r="1.000"/>
    <circle cx="226.205" cy="551.979" r="1.000"/>
    <circle cx="226.205" cy="570.877" r="1.000"/>
    <circle cx="226.205" cy="589.775" r="1.000"/>
    <circle cx="226.205" cy="608.672" r="1.000"/>
    <circle cx="226.205" cy="627.570" r="1.000"/>
    <circle cx="226.205" cy="646.468" r="1.000"/>
    <circle cx="226.205" cy="665.365" r="1.000"/>
    <circle cx="226.205" cy="684.263" r="1.000"/>
    <circle cx="226.205" cy="703.161" r="1.000"/>
    <circle cx="226.205" cy="722.058" r="1.000"/>
    <circle cx="226.205" cy="740.956" r="1.000"/>
    <circle cx="226.205" cy="759.853" r="1.000"/>
    <circle cx="245.102" cy="79.538" r="1.000"/>
    <circle cx="245.102" cy="98.436" r="1.000"/>
    <circle cx="245.102" cy="117.334" r="1.000"/>
    <circle cx="245.102" cy="136.231" r="1.000"/>
    <circle cx="245.102" cy="155.129" r="1.000"/>
    <circle cx="245.102" cy="174.027" r="1.000"/>
    <circle cx="245.102" cy="192.924" r="1.000"/>
    <circle cx="245.102" cy="211.822" r="1.000"/>
    <circle cx="245.102" cy="230.720" r="1.000"/>
    <circle cx="245.102" cy="249.617" r="1.000"/>
    <circle cx="245.102" cy="268.515" r="1.000"/>
    <circle cx="245.102" cy="287.412" r="1.000"/>
    <circle cx="245.102" cy="306.310" r="1.000"/>
    <circle cx="245.102" cy="325.208" r="1.000"/>
    <circle cx="245.102" cy="344.105" r="1.000"/>
    <circle cx="245.102" cy="363.003" r="1.000"/>
    <circle cx="245.102" cy="381.901" r="1.000"/>
    <circle cx="245.102" cy="400.798" r="1.000"/>
    <circle cx="245.102" cy="419.696" r="1.000"/>
    <circle cx="245.102" cy="438.594" r="1.000"/>
    <circle cx="245.102" cy="457.491" r="1.000"/>
    <circle cx="245.102" cy="476.389" r="1.000"/>
    <circle cx="245.102" cy="495.286" r="1.000"/>
    <circle cx="245.102" cy="514.184" r="1.000"/>
    <circle cx="245.102" cy="533.082" r="1.000"/>
    <circle cx="245.102" cy="551.979" r="1.000"/>
    <circle cx="245.102" cy="570.877" r="1.000"/>
    <circle cx="245.102" cy="589.775" r="1.000"/>
    <circle cx="245.102" cy="608.672" r="1.000"/>
    <circle cx="245.102" cy="627.570" r="1.000"/>
    <circle cx="245.102" cy="646.468" r="1.000"/>
    <circle cx="245.102" cy="665.365" r="1.000"/>
    <circle cx="245.102" cy="684.263" r="1.000"/>
    <circle cx="245.102" cy="703.161" r="1.000"/>
    <circle cx="245.102" cy="722.058" r="1.000"/>
    <circle cx="245.102" cy="740.956" r="1.000"/>
    <circle cx="245.102" cy="759.853" r="1.000"/>
    <circle cx="264.000" cy="79.538" r="1.000"/>
    <circle cx="264.000" cy="98.436" r="1.000"/>
    <circle cx="264.000" cy="117.334" r="1.000"/>
    <circle cx="264.000" cy="136.231" r="1.000"/>
    <circle cx="264.000" cy="155.129" r="1.000"/>
    <circle cx="264.000" cy="174.027" r="1.000"/>
    <circle cx="264.000" cy="192.924" r="1.000"/>
    <circle cx="264.000" cy="211.822" r="1.000"/>
    <circle cx="264.000" cy="230.720" r="1.000"/>
    <circle cx="264.000" cy="249.617" r="1.000"/>
    <circle cx="264.000" cy="268.515" r="1.000"/>
    <circle cx="264.000" cy="287.412" r="1.000"/>
    <circle cx="264.000" cy="306.310" r="1.000"/>
    <circle cx="264.000" cy="325.208" r="1.000"/>
    <circle cx="264.000" cy="344.105" r="1.000"/>
    <circle cx="264.000" cy="363.003" r="1.000"/>
    <circle cx="264.000" cy="381.901" r="1.000"/>
    <circle cx="264.000" cy="400.798" r="1.000"/>
    <circle cx="264.000" cy="419.696" r="1.000"/>
    <circle cx="264.000" cy="438.594" r="1.000"/>
    <circle cx="264.000" cy="457.491" r="1.000"/>
    <circle cx="264.000" cy="476.389" r="1.000"/>
    <circle cx="264.000" cy="495.286" r="1.000"/>
    <circle cx="264.000" cy="514.184" r="1.000"/>
    <circle cx="264.000" cy="533.082" r="1.000"/>
    <circle cx="264.000" cy="551.979" r="1.000"/>
    <circle cx="264.000" cy="570.877" r="1.000"/>
    <circle cx="264.000" cy="589.775" r="1.000"/>
    <circle cx="264.000" cy="608.672" r="1.000"/>
    <circle cx="264.000" cy="627.570" r="1.000"/>
    <circle cx="264.000" cy="646.468" r="1.000"/>
    <circle cx="264.000" cy="665.365" r="1.000"/>
    <circle cx="264.000" cy="684.263" r="1.000"/>
    <circle cx="264.000" cy="703.161" r="1.000"/>
    <circle cx="264.000" cy="722.058" r="1.000"/>
    <circle cx="264.000" cy="740.956" r="1.000"/>
    <circle cx="264.000" cy="759.853" r="1.000"/>
    <circle cx="282.898" cy="79.538" r="1.000"/>
    <circle cx="282.898" cy="98.436" r="1.000"/>
    <circle cx="282.898" cy="117.334" r="1.000"/>
    <circle cx="282.898" cy="136.231" r="1.000"/>
    <circle cx="282.898" cy="155.129" r="1.000"/>
    <circle cx="282.898" cy="174.027" r="1.000"/>
    <circle cx="282.898" cy="192.924" r="1.000"/>
    <circle cx="282.898" cy="211.822" r="1.000"/>
    <circle cx="282.898" cy="230.720" r="1.000"/>
    <circle cx="282.898" cy="249.617" r="1.000"/>
    <circle cx="282.898" cy="268.515" r="1.000"/>
    <circle cx="282.898" cy="287.412" r="1.000"/>
    <circle cx="282.898" cy="306.310" r="1.000"/>
    <circle cx="282.898" cy="325.208" r="1.000"/>
    <circle cx="282.898" cy="344.105" r="1.000"/>
    <circle cx="282.898" cy="363.003" r="1.000"/>
    <circle cx="282.898" cy="381.901" r="1.000"/>
    <circle cx="282.898" cy="400.798" r="1.000"/>
    <circle cx="282.898" cy="419.696" r="1.000"/>
    <circle cx="282.898" cy="438.594" r="1.000"/>
    <circle cx="282.898" cy="457.491" r="1.000"/>
    <circle cx="282.898" cy="476.389" r="1.000"/>
    <circle cx="282.898" cy="495.286" r="1.000"/>
    <circle cx="282.898" cy="514.184" r="1.000"/>
    <circle cx="282.898" cy="533.082" r="1.000"/>
    <circle cx="282.898" cy="551.979" r="1.000"/>
    <circle cx="282.898" cy="570.877" r="1.000"/>
    <circle cx="282.898" cy="589.775" r="1.000"/>
    <circle cx="282.898" cy="608.672" r="1.000"/>
    <circle cx="282.898" cy="627.570" r="1.000"/>
    <circle cx="282.898" cy="646.468" r="1.000"/>
    <circle cx="282.898" cy="665.365" r="1.000"/>
    <circle cx="282.898" cy="684.263" r="1.000"/>
    <circle cx="282.898" cy="703.161" r="1.000"/>
    <circle cx="282.898" cy="722.058" r="1.000"/>
    <circle cx="282.898" cy="740.956" r="1.000"/>
    <circle cx="282.898" cy="759.853" r="1.000"/>
    <circle cx="301.795" cy="79.538" r="1.000"/>
    <circle cx="301.795" cy="98.436" r="1.000"/>
    <circle cx="301.795" cy="117.334" r="1.000"/>
    <circle cx="301.795" cy="136.231" r="1.000"/>
    <circle cx="301.795" cy="155.129" r="1.000"/>
    <circle cx="301.795" cy="174.027" r="1.000"/>
    <circle cx="301.795" cy="192.924" r="1.000"/>
    <circle cx="301.795" cy="211.822" r="1.000"/>
    <circle cx="301.795" cy="230.720" r="1.000"/>
    <circle cx="301.795" cy="249.617" r="1.000"/>
    <circle cx="301.795" cy="268.515" r="1.000"/>
    <circle cx="301.795" cy="287.412" r="1.000"/>
    <circle cx="301.795" cy="306.310" r="1.000"/>
    <circle cx="301.795" cy="325.208" r="1.000"/>
    <circle cx="301.795" cy="344.105" r="1.000"/>
    <circle cx="301.795" cy="363.003" r="1.000"/>
    <circle cx="301.795" cy="381.901" r="1.000"/>
    <circle cx="301.795" cy="400.798" r="1.000"/>
    <circle cx="301.795" cy="419.696" r="1.000"/>
    <circle cx="301.795" cy="438.594" r="1.000"/>
    <circle cx="301.795" cy="457.491" r="1.000"/>
    <circle cx="301.795" cy="476.389" r="1.000"/>
    <circle cx="301.795" cy="495.286" r="1.000"/>
    <circle cx="301.795" cy="514.184" r="1.000"/>
    <circle cx="301.795" cy="533.082" r="1.000"/>
    <circle cx="301.795" cy="551.979" r="1.000"/>
    <circle cx="301.795" cy="570.877" r="1.000"/>
    <circle cx="301.795" cy="589.775" r="1.000"/>
    <circle cx="301.795" cy="608.672" r="1.000"/>
    <circle cx="301.795" cy="627.570" r="1.000"/>
    <circle cx="301.795" cy="646.468" r="1.000"/>
    <circle cx="301.795" cy="665.365" r="1.000"/>
    <circle cx="301.795" cy="684.263" r="1.000"/>
    <circle cx="301.795" cy="703.161" r="1.000"/>
    <circle cx="301.795" cy="722.058" r="1.000"/>
    <circle cx="301.795" cy="740.956" r="1.000"/>
    <circle cx="301.795" cy="759.853" r="1.000"/>
    <circle cx="320.693" cy="79.538" r="1.000"/>
    <circle cx="320.693" cy="98.436" r="1.000"/>
    <circle cx="320.693" cy="117.334" r="1.000"/>
    <circle cx="320.693" cy="136.231" r="1.000"/>
    <circle cx="320.693" cy="155.129" r="1.000"/>
    <circle cx="320.693" cy="174.027" r="1.000"/>
    <circle cx="320.693" cy="192.924" r="1.000"/>
    <circle cx="320.693" cy="211.822" r="1.000"/>
    <circle cx="320.693" cy="230.720" r="1.000"/>
    <circle cx="320.693" cy="249.617" r="1.000"/>
    <circle cx="320.693" cy="268.515" r="1.000"/>
    <circle cx="320.693" cy="287.412" r="1.000"/>
    <circle cx="320.693" cy="306.310" r="1.000"/>
    <circle cx="320.693" cy="325.208" r="1.000"/>
    <circle cx="320.693" cy="344.105" r="1.000"/>
    <circle cx="320.693" cy="363.003" r="1.000"/>
    <circle cx="320.693" cy="381.901" r="1.000"/>
    <circle cx="320.693" cy="400.798" r="1.000"/>
    <circle cx="320.693" cy="419.696" r="1.000"/>
    <circle cx="320.693" cy="438.594" r="1.000"/>
    <circle cx="320.693" cy="457.491" r="1.000"/>
    <circle cx="320.693" cy="476.389" r="1.000"/>
    <circle cx="320.693" cy="495.286" r="1.000"/>
    <circle cx="320.693" cy="514.184" r="1.000"/>
    <circle cx="320.693" cy="533.082" r="1.000"/>
    <circle cx="320.693" cy="551.979" r="1.000"/>
    <circle cx="320.693" cy="570.877" r="1.000"/>
    <circle cx="320.693" cy="589.775" r="1.000"/>
    <circle cx="320.693" cy="608.672" r="1.000"/>
    <circle cx="320.693" cy="627.570" r="1.000"/>
    <circle cx="320.693" cy="646.468" r="1.000"/>
    <circle cx="320.693" cy="665.365" r="1.000"/>
    <circle cx="320.693" cy="684.263" r="1.000"/>
    <circle cx="320.693" cy="703.161" r="1.000"/>
    <circle cx="320.693" cy="722.058" r="1.000"/>
    <circle cx="320.693" cy="740.956" r="1.000"/>
    <circle cx="320.693" cy="759.853" r="1.000"/>
    <circle cx="339.591" cy="79.538" r="1.000"/>
    <circle cx="339.591" cy="98.436" r="1.000"/>
    <circle cx="339.591" cy="117.334" r="1.000"/>
    <circle cx="339.591" cy="136.231" r="1.000"/>
    <circle cx="339.591" cy="155.129" r="1.000"/>
    <circle cx="339.591" cy="174.027" r="1.000"/>
    <circle cx="339.591" cy="192.924" r="1.000"/>
    <circle cx="339.591" cy="211.822" r="1.000"/>
    <circle cx="339.591" cy="230.720" r="1.000"/>
    <circle cx="339.591" cy="249.617" r="1.000"/>
    <circle cx="339.591" cy="268.515" r="1.000"/>
    <circle cx="339.591" cy="287.412" r="1.000"/>
    <circle cx="339.591" cy="306.310" r="1.000"/>
    <circle cx="339.591" cy="325.208" r="1.000"/>
    <circle cx="339.591" cy="344.105" r="1.000"/>
    <circle cx="339.591" cy="363.003" r="1.000"/>
    <circle cx="339.591" cy="381.901" r="1.000"/>
    <circle cx="339.591" cy="400.798" r="1.000"/>
    <circle cx="339.591" cy="419.696" r="1.000"/>
    <circle cx="339.591" cy="438.594" r="1.000"/>
    <circle cx="339.591" cy="457.491" r="1.000"/>
    <circle cx="339.591" cy="476.389" r="1.000"/>
    <circle cx="339.591" cy="495.286" r="1.000"/>
    <circle cx="339.591" cy="514.184" r="1.000"/>
    <circle cx="339.591" cy="533.082" r="1.000"/>
    <circle cx="339.591" cy="551.979" r="1.000"/>
    <circle cx="339.591" cy="570.877" r="1.000"/>
    <circle cx="339.591" cy="589.775" r="1.000"/>
    <circle cx="339.591" cy="608.672" r="1.000"/>
    <circle cx="339.591" cy="627.570" r="1.000"/>
    <circle cx="339.591" cy="646.468" r="1.000"/>
    <circle cx="339.591" cy="665.365" r="1.000"/>
    <circle cx="339.591" cy="684.263" r="1.000"/>
    <circle cx="339.591" cy="703.161" r="1.000"/>
    <circle cx="339.591" cy="722.058" r="1.000"/>
    <circle cx="339.591" cy="740.956" r="1.000"/>
    <circle cx="339.591" cy="759.853" r="1.000"/>
    <circle cx="358.488" cy="79.538" r="1.000"/>
    <circle cx="358.488" cy="98.436" r="1.000"/>
    <circle cx="358.488" cy="117.334" r="1.000"/>
    <circle cx="358.488" cy="136.231" r="1.000"/>
    <circle cx="358.488" cy="155.129" r="1.000"/>
    <circle cx="358.488" cy="174.027" r="1.000"/>
    <circle cx="358.488" cy="192.924" r="1.000"/>
    <circle cx="358.488" cy="211.822" r="1.000"/>
    <circle cx="358.488" cy="230.720" r="1.000"/>
    <circle cx="358.488" cy="249.617" r="1.000"/>
    <circle cx="358.488" cy="268.515" r="1.000"/>
    <circle cx="358.488" cy="287.412" r="1.000"/>
    <circle cx="358.488" cy="306.310" r="1.000"/>
    <circle cx="358.488" cy="325.208" r="1.000"/>
    <circle cx="358.488" cy="344.105" r="1.000"/>
    <circle cx="358.488" cy="363.003" r="1.000"/>
    <circle cx="358.488" cy="381.901" r="1.000"/>
    <circle cx="358.488" cy="400.798" r="1.000"/>
    <circle cx="358.488" cy="419.696" r="1.000"/>
    <circle cx="358.488" cy="438.594" r="1.000"/>
    <circle cx="358.488" cy="457.491" r="1.000"/>
    <circle cx="358.488" cy="476.389" r="1.000"/>
    <circle cx="358.488" cy="495.286" r="1.000"/>
    <circle cx="358.488" cy="514.184" r="1.000"/>
    <circle cx="358.488" cy="533.082" r="1.000"/>
    <circle cx="358.488" cy="551.979" r="1.000"/>
    <circle cx="358.488" cy="570.877" r="1.000"/>
    <circle cx="358.488" cy="589.775" r="1.000"/>
    <circle cx="358.488" cy="608.672" r="1.000"/>
    <circle cx="358.488" cy="627.570" r="1.000"/>
    <circle cx="358.488" cy="646.468" r="1.000"/>
    <circle cx="358.488" cy="665.365" r="1.000"/>
    <circle cx="358.488" cy="684.263" r="1.000"/>
    <circle cx="358.488" cy="703.161" r="1.000"/>
    <circle cx="358.488" cy="722.058" r="1.000"/>
    <circle cx="358.488" cy="740.956" r="1.000"/>
    <circle cx="358.488" cy="759.853" r="1.000"/>
    <circle cx="377.386" cy="79.538" r="1.000"/>
    <circle cx="377.386" cy="98.436" r="1.000"/>
    <circle cx="377.386" cy="117.334" r="1.000"/>
    <circle cx="377.386" cy="136.231" r="1.000"/>
    <circle cx="377.386" cy="155.129" r="1.000"/>
    <circle cx="377.386" cy="174.027" r="1.000"/>
    <circle cx="377.386" cy="192.924" r="1.000"/>
    <circle cx="377.386" cy="211.822" r="1.000"/>
    <circle cx="377.386" cy="230.720" r="1.000"/>
    <circle cx="377.386" cy="249.617" r="1.000"/>
    <circle cx="377.386" cy="268.515" r="1.000"/>
    <circle cx="377.386" cy="287.412" r="1.000"/>
    <circle cx="377.386" cy="306.310" r="1.000"/>
    <circle cx="377.386" cy="325.208" r="1.000"/>
    <circle cx="377.386" cy="344.105" r="1.000"/>
    <circle cx="377.386" cy="363.003" r="1.000"/>
    <circle cx="377.386" cy="381.901" r="1.000"/>
    <circle cx="377.386" cy="400.798" r="1.000"/>
    <circle cx="377.386" cy="419.696" r="1.000"/>
    <circle cx="377.386" cy="438.594" r="1.000"/>
    <circle cx="377.386" cy="457.491" r="1.000"/>
    <circle cx="377.386" cy="476.389" r="1.000"/>
    <circle cx="377.386" cy="495.286" r="1.000"/>
    <circle cx="377.386" cy="514.184" r="1.000"/>
    <circle cx="377.386" cy="533.082" r="1.000"/>
    <circle cx="377.386" cy="551.979" r="1.000"/>
    <circle cx="377.386" cy="570.877" r="1.000"/>
    <circle cx="377.386" cy="589.775" r="1.000"/>
    <circle cx="377.386" cy="608.672" r="1.000"/>
    <circle cx="377.386" cy="627.570" r="1.000"/>
    <circle cx="377.386" cy="646.468" r="1.000"/>
    <circle cx="377.386" cy="665.365" r="1.000"/>
    <circle cx="377.386" cy="684.263" r="1.000"/>
    <circle cx="377.386" cy="703.161" r="1.000"/>
    <circle cx="377.386" cy="722.058" r="1.000"/>
    <circle cx="377.386" cy="740.956" r="1.000"/>
    <circle cx="377.386" cy="759.853" r="1.000"/>
    <circle cx="396.283" cy="79.538" r="1.000"/>
    <circle cx="396.283" cy="98.436" r="1.000"/>
    <circle cx="396.283" cy="117.334" r="1.000"/>
    <circle cx="396.283" cy="136.231" r="1.000"/>
    <circle cx="396.283" cy="155.129" r="1.000"/>
    <circle cx="396.283" cy="174.027" r="1.000"/>
    <circle cx="396.283" cy="192.924" r="1.000"/>
    <circle cx="396.283" cy="211.822" r="1.000"/>
    <circle cx="396.283" cy="230.720" r="1.000"/>
    <circle cx="396.283" cy="249.617" r="1.000"/>
    <circle cx="396.283" cy="268.515" r="1.000"/>
    <circle cx="396.283" cy="287.412" r="1.000"/>
    <circle cx="396.283" cy="306.310" r="1.000"/>
    <circle cx="396.283" cy="325.208" r="1.000"/>
    <circle cx="396.283" cy="344.105" r="1.000"/>
    <circle cx="396.283" cy="363.003" r="1.000"/>
    <circle cx="396.283" cy="381.901" r="1.000"/>
    <circle cx="396.283" cy="400.798" r="1.000"/>
    <circle cx="396.283" cy="419.696" r="1.000"/>
    <circle cx="396.283" cy="438.594" r="1.000"/>
    <circle cx="396.283" cy="457.491" r="1.000"/>
    <circle cx="396.283" cy="476.389" r="1.000"/>
    <circle cx="396.283" cy="495.286" r="1.000"/>
    <circle cx="396.283" cy="514.184" r="1.000"/>
    <circle cx="396.283" cy="533.082" r="1.000"/>
    <circle cx="396.283" cy="551.979" r="1.000"/>
    <circle cx="396.283" cy="570.877" r="1.000"/>
    <circle cx="396.283" cy="589.775" r="1.000"/>
    <circle cx="396.283" cy="608.672" r="1.000"/>
    <circle cx="396.283" cy="627.570" r="1.000"/>
    <circle cx="396.283" cy="646.468" r="1.000"/>
    <circle cx="396.283" cy="665.365" r="1.000"/>
    <circle cx="396.283" cy="684.263" r="1.000"/>
    <circle cx="396.283" cy="703.161" r="1.000"/>
    <circle cx="396.283" cy="722.058" r="1.000"/>
    <circle cx="396.283" cy="740.956" r="1.000"/>
    <circle cx="396.283" cy="759.853" r="1.000"/>
    <circle cx="415.181" cy="79.538" r="1.000"/>
    <circle cx="415.181" cy="98.436" r="1.000"/>
    <circle cx="415.181" cy="117.334" r="1.000"/>
    <circle cx="415.181" cy="136.231" r="1.000"/>
    <circle cx="415.181" cy="155.129" r="1.000"/>
    <circle cx="415.181" cy="174.027" r="1.000"/>
    <circle cx="415.181" cy="192.924" r="1.000"/>
    <circle cx="415.181" cy="211.822" r="1.000"/>
    <circle cx="415.181" cy="230.720" r="1.000"/>
    <circle cx="415.181" cy="249.617" r="1.000"/>
    <circle cx="415.181" cy="268.515" r="1.000"/>
    <circle cx="415.181" cy="287.412" r="1.000"/>
    <circle cx="415.181" cy="306.310" r="1.000"/>
    <circle cx="415.181" cy="325.208" r="1.000"/>
    <circle cx="415.181" cy="344.105" r="1.000"/>
    <circle cx="415.181" cy="363.003" r="1.000"/>
    <circle cx="415.181" cy="381.901" r="1.000"/>
    <circle cx="415.181" cy="400.798" r="1.000"/>
    <circle cx="415.181" cy="419.696" r="1.000"/>
    <circle cx="415.181" cy="438.594" r="1.000"/>
    <circle cx="415.181" cy="457.491" r="1.000"/>
    <circle cx="415.181" cy="476.389" r="1.000"/>
    <circle cx="415.181" cy="495.286" r="1.000"/>
    <circle cx="415.181" cy="514.184" r="1.000"/>
    <circle cx="415.181" cy="533.082" r="1.000"/>
    <circle cx="415.181" cy="551.979" r="1.000"/>
    <circle cx="415.181" cy="570.877" r="1.000"/>
    <circle cx="415.181" cy="589.775" r="1.000"/>
    <circle cx="415.181" cy="608.672" r="1.000"/>
    <circle cx="415.181" cy="627.570" r="1.000"/>
    <circle cx="415.181" cy="646.468" r="1.000"/>
    <circle cx="415.181" cy="665.365" r="1.000"/>
    <circle cx="415.181" cy="684.263" r="1.000"/>
    <circle cx="415.181" cy="703.161" r="1.000"/>
    <circle cx="415.181" cy="722.058" r="1.000"/>
    <circle cx="415.181" cy="740.956" r="1.000"/>
    <circle cx="415.181" cy="759.853" r="1.000"/>
    <circle cx="434.079" cy="79.538" r="1.000"/>
    <circle cx="434.079" cy="98.436" r="1.000"/>
    <circle cx="434.079" cy="117.334" r="1.000"/>
    <circle cx="434.079" cy="136.231" r="1.000"/>
    <circle cx="434.079" cy="155.129" r="1.000"/>
    <circle cx="434.079" cy="174.027" r="1.000"/>
    <circle cx="434.079" cy="192.924" r="1.000"/>
    <circle cx="434.079" cy="211.822" r="1.000"/>
    <circle cx="434.079" cy="230.720" r="1.000"/>
    <circle cx="434.079" cy="249.617" r="1.000"/>
    <circle cx="434.079" cy="268.515" r="1.000"/>
    <circle cx="434.079" cy="287.412" r="1.000"/>
    <circle cx="434.079" cy="306.310" r="1.000"/>
    <circle cx="434.079" cy="325.208" r="1.000"/>
    <circle cx="434.079" cy="344.105" r="1.000"/>
    <circle cx="434.079" cy="363.003" r="1.000"/>
    <circle cx="434.079" cy="381.901" r="1.000"/>
    <circle cx="434.079" cy="400.798" r="1.000"/>
    <circle cx="434.079" cy="419.696" r="1.000"/>
    <circle cx="434.079" cy="438.594" r="1.000"/>
    <circle cx="434.079" cy="457.491" r="1.000"/>
    <circle cx="434.079" cy="476.389" r="1.000"/>
    <circle cx="434.079" cy="495.286" r="1.000"/>
    <circle cx="434.079" cy="514.184" r="1.000"/>
    <circle cx="434.079" cy="533.082" r="1.000"/>
    <circle cx="434.079" cy="551.979" r="1.000"/>
    <circle cx="434.079" cy="570.877" r="1.000"/>
    <circle cx="434.079" cy="589.775" r="1.000"/>
    <circle cx="434.079" cy="608.672" r="1.000"/>
    <circle cx="434.079" cy="627.570" r="1.000"/>
    <circle cx="434.079" cy="646.468" r="1.000"/>
    <circle cx="434.079" cy="665.365" r="1.000"/>
    <circle cx="434.079" cy="684.263" r="1.000"/>
    <circle cx="434.079" cy="703.161" r="1.000"/>
    <circle cx="434.079" cy="722.058" r="1.000"/>
    <circle cx="434.079" cy="740.956" r="1.000"/>
    <circle cx="434.079" cy="759.853" r="1.000"/>
    <circle cx="452.976" cy="79.538" r="1.000"/>
    <circle cx="452.976" cy="98.436" r="1.000"/>
    <circle cx="452.976" cy="117.334" r="1.000"/>
    <circle cx="452.976" cy="136.231" r="1.000"/>
    <circle cx="452.976" cy="155.129" r="1.000"/>
    <circle cx="452.976" cy="174.027" r="1.000"/>
    <circle cx="452.976" cy="192.924" r="1.000"/>
    <circle cx="452.976" cy="211.822" r="1.000"/>
    <circle cx="452.976" cy="230.720" r="1.000"/>
    <circle cx="452.976" cy="249.617" r="1.000"/>
    <circle cx="452.976" cy="268.515" r="1.000"/>
    <circle cx="452.976" cy="287.412" r="1.000"/>
    <circle cx="452.976" cy="306.310" r="1.000"/>
    <circle cx="452.976" cy="325.208" r="1.000"/>
    <circle cx="452.976" cy="344.105" r="1.000"/>
    <circle cx="452.976" cy="363.003" r="1.000"/>
    <circle cx="452.976" cy="381.901" r="1.000"/>
    <circle cx="452.976" cy="400.798" r="1.000"/>
    <circle cx="452.976" cy="419.696" r="1.000"/>
    <circle cx="452.976" cy="438.594" r="1.000"/>
    <circle cx="452.976" cy="457.491" r="1.000"/>
    <circle cx="452.976" cy="476.389" r="1.000"/>
    <circle cx="452.976" cy="495.286" r="1.000"/>
    <circle cx="452.976" cy="514.184" r="1.000"/>
    <circle cx="452.976" cy="533.082" r="1.000"/>
    <circle cx="452.976" cy="551.979" r="1.000"/>
    <circle cx="452.976" cy="570.877" r="1.000"/>
    <circle cx="452.976" cy="589.775" r="1.000"/>
    <circle cx="452.976" cy="608.672" r="1.000"/>
    <circle cx="452.976" cy="627.570" r="1.000"/>
    <circle cx="452.976" cy="646.468" r="1.000"/>
    <circle cx="452.976" cy="665.365" r="1.000"/>
    <circle cx="452.976" cy="684.263" r="1.000"/>
    <circle cx="452.976" cy="703.161" r="1.000"/>
    <circle cx="452.976" cy="722.058" r="1.000"/>
    <circle cx="452.976" cy="740.956" r="1.000"/>
    <circle cx="452.976" cy="759.853" r="1.000"/>
    <circle cx="471.874" cy="79.538" r="1.000"/>
    <circle cx="471.874" cy="98.436" r="1.000"/>
    <circle cx="471.874" cy="117.334" r="1.000"/>
    <circle cx="471.874" cy="136.231" r="1.000"/>
    <circle cx="471.874" cy="155.129" r="1.000"/>
    <circle cx="471.874" cy="174.027" r="1.000"/>
    <circle cx="471.874" cy="192.924" r="1.000"/>
    <circle cx="471.874" cy="211.822" r="1.000"/>
    <circle cx="471.874" cy="230.720" r="1.000"/>
    <circle cx="471.874" cy="249.617" r="1.000"/>
    <circle cx="471.874" cy="268.515" r="1.000"/>
    <circle cx="471.874" cy="287.412" r="1.000"/>
    <circle cx="471.874" cy="306.310" r="1.000"/>
    <circle cx="471.874" cy="325.208" r="1.000"/>
    <circle cx="471.874" cy="344.105" r="1.000"/>
    <circle cx="471.874" cy="363.003" r="1.000"/>
    <circle cx="471.874" cy="381.901" r="1.000"/>
    <circle cx="471.874" cy="400.798" r="1.000"/>
    <circle cx="471.874" cy="419.696" r="1.000"/>
    <circle cx="471.874" cy="438.594" r="1.000"/>
    <circle cx="471.874" cy="457.491" r="1.000"/>
    <circle cx="471.874" cy="476.389" r="1.000"/>
    <circle cx="471.874" cy="495.286" r="1.000"/>
    <circle cx="471.874" cy="514.184" r="1.000"/>
    <circle cx="471.874" cy="533.082" r="1.000"/>
    <circle cx="471.874" cy="551.979" r="1.000"/>
    <circle cx="471.874" cy="570.877" r="1.000"/>
    <circle cx="471.874" cy="589.775" r="1.000"/>
    <circle cx="471.874" cy="608.672" r="1.000"/>
    <circle cx="471.874" cy="627.570" r="1.000"/>
    <circle cx="471.874" cy="646.468" r="1.000"/>
    <circle cx="471.874" cy="665.365" r="1.000"/>
    <circle cx="471.874" cy="684.263" r="1.000"/>
    <circle cx="471.874" cy="703.161" r="1.000"/>
    <circle cx="471.874" cy="722.058" r="1.000"/>
    <circle cx="471.874" cy="740.956" r="1.000"/>
    <circle cx="471.874" cy="759.853" r="1.000"/>
    <circle cx="490.772" cy="79.538" r="1.000"/>
    <circle cx="490.772" cy="98.436" r="1.000"/>
    <circle cx="490.772" cy="117.334" r="1.000"/>
    <circle cx="490.772" cy="136.231" r="1.000"/>
    <circle cx="490.772" cy="155.129" r="1.000"/>
    <circle cx="490.772" cy="174.027" r="1.000"/>
    <circle cx="490.772" cy="192.924" r="1.000"/>
    <circle cx="490.772" cy="211.822" r="1.000"/>
    <circle cx="490.772" cy="230.720" r="1.000"/>
    <circle cx="490.772" cy="249.617" r="1.000"/>
    <circle cx="490.772" cy="268.515" r="1.000"/>
    <circle cx="490.772" cy="287.412" r="1.000"/>
    <circle cx="490.772" cy="306.310" r="1.000"/>
    <circle cx="490.772" cy="325.208" r="1.000"/>
    <circle cx="490.772" cy="344.105" r="1.000"/>
    <circle cx="490.772" cy="363.003" r="1.000"/>
    <circle cx="490.772" cy="381.901" r="1.000"/>
    <circle cx="490.772" cy="400.798" r="1.000"/>
    <circle cx="490.772" cy="419.696" r="1.000"/>
    <circle cx="490.772" cy="438.594" r="1.000"/>
    <circle cx="490.772" cy="457.491" r="1.000"/>
    <circle cx="490.772" cy="476.389" r="1.000"/>
    <circle cx="490.772" cy="495.286" r="1.000"/>
    <circle cx="490.772" cy="514.184" r="1.000"/>
    <circle cx="490.772" cy="533.082" r="1.000"/>
    <circle cx="490.772" cy="551.979" r="1.000"/>
    <circle cx="490.772" cy="570.877" r="1.000"/>
    <circle cx="490.772" cy="589.775" r="1.000"/>
    <circle cx="490.772" cy="608.672" r="1.000"/>
    <circle cx="490.772" cy="627.570" r="1.000"/>
    <circle cx="490.772" cy="646.468" r="1.000"/>
    <circle cx="490.772" cy="665.365" r="1.000"/>
    <circle cx="490.772" cy="684.263" r="1.000"/>
    <circle cx="490.772" cy="703.161" r="1.000"/>
    <circle cx="490.772" cy="722.058" r="1.000"/>
    <circle cx="490.772" cy="740.956" r="1.000"/>
    <circle cx="490.772" cy="759.853" r="1.000"/>
    <text x="37.228" y="72.490">0</text>
    <text x="37.228" y="771.702">0</text>
    <text x="112.819" y="72.490">4</text>
    <text x="112.819" y="771.702">4</text>
    <text x="188.409" y="72.490">8</text>
    <text x="188.409" y="771.702">8</text>
    <text x="264.000" y="72.490">12</text>
    <text x="264.000" y="771.702">12</text>
    <text x="339.591" y="72.490">16</text>
    <text x="339.591" y="771.702">16</text>
    <text x="415.181" y="72.490">20</text>
    <text x="415.181" y="771.702">20</text>
    <text x="490.772" y="72.490">24</text>
    <text x="490.772" y="771.702">24</text>
    <text style="text-anchor: middle" x="25.890" y="81.938">0</text>
    <text style="text-anchor: middle" x="502.110" y="81.938">0</text>
    <text style="text-anchor: middle" x="25.890" y="195.324">6</text>
    <text style="text-anchor: middle" x="502.110" y="195.324">6</text>
    <text style="text-anchor: middle" x="25.890" y="308.710">12</text>
    <text style="text-anchor: middle" x="502.110" y="308.710">12</text>
    <text style="text-anchor: middle" x="25.890" y="422.096">18</text>
    <text style="text-anchor: middle" x="502.110" y="422.096">18</text>
    <text style="text-anchor: middle" x="25.890" y="535.482">24</text>
    <text style="text-anchor: middle" x="502.110" y="535.482">24</text>
    <text style="text-anchor: middle" x="25.890" y="648.868">30</text>
    <text style="text-anchor: middle" x="502.110" y="648.868">30</text>
    <text style="text-anchor: middle" x="25.890" y="762.253">36</text>
    <text style="text-anchor: middle" x="502.110" y="762.253">36</text>
    <circle cx="37.228" cy="22.846" r="1.000"/>
    <circle cx="37.228" cy="41.743" r="1.000"/>
    <circle cx="37.228" cy="60.641" r="1.000"/>
    <circle cx="56.126" cy="22.846" r="1.000"/>
    <circle cx="56.126" cy="41.743" r="1.000"/>
    <circle cx="56.126" cy="60.641" r="1.000"/>
    <circle cx="75.024" cy="22.846" r="1.000"/>
    <circle cx="75.024" cy="41.743" r="1.000"/>
    <circle cx="75.024" cy="60.641" r="1.000"/>
    <circle cx="93.921" cy="22.846" r="1.000"/>
    <circle cx="93.921" cy="41.743" r="1.000"/>
    <circle cx="93.921" cy="60.641" r="1.000"/>
    <circle cx="112.819" cy="22.846" r="1.000"/>
    <circle cx="112.819" cy="41.743" r="1.000"/>
    <circle cx="112.819" cy="60.641" r="1.000"/>
    <circle cx="131.717" cy="22.846" r="1.000"/>
    <circle cx="131.717" cy="41.743" r="1.000"/>
    <circle cx="131.717" cy="60.641" r="1.000"/>
    <circle cx="150.614" cy="22.846" r="1.000"/>
    <circle cx="150.614" cy="41.743" r="1.000"/>
    <circle cx="150.614" cy="60.641" r="1.000"/>
    <circle cx="169.512" cy="22.846" r="1.000"/>
    <circle cx="169.512" cy="41.743" r="1.000"/>
    <circle cx="169.512" cy="60.641" r="1.000"/>
    <circle cx="188.409" cy="22.846" r="1.000"/>
    <circle cx="188.409" cy="41.743" r="1.000"/>
    <circle cx="188.409" cy="60.641" r="1.000"/>
    <circle cx="207.307" cy="22.846" r="1.000"/>
    <circle cx="207.307" cy="41.743" r="1.000"/>
    <circle cx="207.307" cy="60.641" r="1.000"/>
    <circle cx="226.205" cy="22.846" r="1.000"/>
    <circle cx="226.205" cy="41.743" r="1.000"/>
    <circle cx="226.205" cy="60.641" r="1.000"/>
    <circle cx="245.102" cy="22.846" r="1.000"/>
    <circle cx="245.102" cy="41.743" r="1.000"/>
    <circle cx="245.102" cy="60.641" r="1.000"/>
    <circle cx="264.000" cy="22.846" r="1.000"/>
    <circle cx="264.000" cy="41.743" r="1.000"/>
    <circle cx="264.000" cy="60.641" r="1.000"/>
    <circle cx="282.898" cy="22.846" r="1.000"/>
    <circle cx="282.898" cy="41.743" r="1.000"/>
    <circle cx="282.898" cy="60.641" r="1.000"/>
    <circle cx="301.795" cy="22.846" r="1.000"/>
    <circle cx="301.795" cy="41.743" r="1.000"/>
    <circle cx="301.795" cy="60.641" r="1.000"/>
    <circle cx="320.693" cy="22.846" r="1.000"/>
    <circle cx="320.693" cy="41.743" r="1.000"/>
    <circle cx="320.693" cy="60.641" r="1.000"/>
    <circle cx="339.591" cy="22.846" r="1.000"/>
    <circle cx="339.591" cy="41.743" r="1.000"/>
    <circle cx="339.591" cy="60.641" r="1.000"/>
    <circle cx="358.488" cy="22.846" r="1.000"/>
    <circle cx="358.488" cy="41.743" r="1.000"/>
    <circle cx="358.488" cy="60.641" r="1.000"/>
    <circle cx="377.386" cy="22.846" r="1.000"/>
    <circle cx="377.386" cy="41.743" r="1.000"/>
    <circle cx="377.386" cy="60.641" r="1.000"/>
    <circle cx="396.283" cy="22.846" r="1.000"/>
    <circle cx="396.283" cy="41.743" r="1.000"/>
    <circle cx="396.283" cy="60.641" r="1.000"/>
    <circle cx="415.181" cy="22.846" r="1.000"/>
    <circle cx="415.181" cy="41.743" r="1.000"/>
    <circle cx="415.181" cy="60.641" r="1.000"/>
    <circle cx="434.079" cy="22.846" r="1.000"/>
    <circle cx="434.079" cy="41.743" r="1.000"/>
    <circle cx="434.079" cy="60.641" r="1.000"/>
    <circle cx="452.976" cy="22.846" r="1.000"/>
    <circle cx="452.976" cy="41.743" r="1.000"/>
    <circle cx="452.976" cy="60.641" r="1.000"/>
    <circle cx="471.874" cy="22.846" r="1.000"/>
    <circle cx="471.874" cy="41.743" r="1.000"/>
    <circle cx="471.874" cy="60.641" r="1.000"/>
    <circle cx="490.772" cy="22.846" r="1.000"/>
    <circle cx="490.772" cy="41.743" r="1.000"/>
    <circle cx="490.772" cy="60.641" r="1.000"/>
  </g>
</svg>
