<?xml version="1.0" encoding="UTF-8"?>
<svg xmlns="http://www.w3.org/2000/svg" version="1.1" width="528.000px" height="816.000px" viewBox="0.000 0.000 528.000 816.000">
  <style>.dot {
    stroke-linecap: round;
    stroke-linejoin: round;
    stroke: #cccccc;
    fill: none;
    stroke-width: calc(1in/600 * 10);
    opacity: 1;
}
.dot--bold {
    stroke-width: calc(1in/600 * 20);
}
text {
    transform: translateY(0.35em);
    text-anchor: middle;
}
text.legend {
    font-size: 50%;
    fill: #cccccc;
}
rect {
    fill: none;
    stroke: black;
}
</style>
  <g id="document">
    <line class="dot" x1="33.600" x2="33.600" y1="81.600" y2="81.600"/>
    <line class="dot" x1="33.600" x2="33.600" y1="100.800" y2="100.800"/>
    <line class="dot" x1="33.600" x2="33.600" y1="120.000" y2="120.000"/>
    <line class="dot" x1="33.600" x2="33.600" y1="139.200" y2="139.200"/>
    <line class="dot" x1="33.600" x2="33.600" y1="158.400" y2="158.400"/>
    <line class="dot" x1="33.600" x2="33.600" y1="177.600" y2="177.600"/>
    <line class="dot" x1="33.600" x2="33.600" y1="196.800" y2="196.800"/>
    <line class="dot" x1="33.600" x2="33.600" y1="216.000" y2="216.000"/>
    <line class="dot" x1="33.600" x2="33.600" y1="235.200" y2="235.200"/>
    <line class="dot" x1="33.600" x2="33.600" y1="254.400" y2="254.400"/>
    <line class="dot" x1="33.600" x2="33.600" y1="273.600" y2="273.600"/>
    <line class="dot" x1="33.600" x2="33.600" y1="292.800" y2="292.800"/>
    <line class="dot" x1="33.600" x2="33.600" y1="312.000" y2="312.000"/>
    <line class="dot" x1="33.600" x2="33.600" y1="331.200" y2="331.200"/>
    <line class="dot" x1="33.600" x2="33.600" y1="350.400" y2="350.400"/>
    <line class="dot" x1="33.600" x2="33.600" y1="369.600" y2="369.600"/>
    <line class="dot" x1="33.600" x2="33.600" y1="388.800" y2="388.800"/>
    <line class="dot" x1="33.600" x2="33.600" y1="408.000" y2="408.000"/>
    <line class="dot" x1="33.600" x2="33.600" y1="427.200" y2="427.200"/>
    <line class="dot" x1="33.600" x2="33.600" y1="446.400" y2="446.400"/>
    <line class="dot" x1="33.600" x2="33.600" y1="465.600" y2="465.600"/>
    <line class="dot" x1="33.600" x2="33.600" y1="484.800" y2="484.800"/>
    <line class="dot" x1="33.600" x2="33.600" y1="504.000" y2="504.000"/>
    <line class="dot" x1="33.600" x2="33.600" y1="523.200" y2="523.200"/>
    <line class="dot" x1="33.600" x2="33.600" y1="542.400" y2="542.400"/>
    <line class="dot" x1="33.600" x2="33.600" y1="561.600" y2="561.600"/>
    <line class="dot" x1="33.600" x2="33.600" y1="580.800" y2="580.800"/>
    <line class="dot" x1="33.600" x2="33.600" y1="600.000" y2="600.000"/>
    <line class="dot" x1="33.600" x2="33.600" y1="619.200" y2="619.200"/>
    <line class="dot" x1="33.600" x2="33.600" y1="638.400" y2="638.400"/>
    <line class="dot" x1="33.600" x2="33.600" y1="657.600" y2="657.600"/>
    <line class="dot" x1="33.600" x2="33.600" y1="676.800" y2="676.800"/>
    <line class="dot" x1="33.600" x2="33.600" y1="696.000" y2="696.000"/>
    <line class="dot" x1="33.600" x2="33.600" y1="715.200" y2="715.200"/>
    <line class="dot" x1="33.600" x2="33.600" y1="734.400" y2="734.400"/>
    <line class="dot" x1="33.600" x2="33.600" y1="753.600" y2="753.600"/>
    <line class="dot" x1="33.600" x2="33.600" y1="772.800" y2="772.800"/>
    <line class="dot" x1="52.800" x2="52.800" y1="81.600" y2="81.600"/>
    <line class="dot" x1="52.800" x2="52.800" y1="100.800" y2="100.800"/>
    <line class="dot" x1="52.800" x2="52.800" y1="120.000" y2="120.000"/>
    <line class="dot" x1="52.800" x2="52.800" y1="139.200" y2="139.200"/>
    <line class="dot" x1="52.800" x2="52.800" y1="158.400" y2="158.400"/>
    <line class="dot" x1="52.800" x2="52.800" y1="177.600" y2="177.600"/>
    <line class="dot" x1="52.800" x2="52.800" y1="196.800" y2="196.800"/>
    <line class="dot" x1="52.800" x2="52.800" y1="216.000" y2="216.000"/>
    <line class="dot" x1="52.800" x2="52.800" y1="235.200" y2="235.200"/>
    <line class="dot" x1="52.800" x2="52.800" y1="254.400" y2="254.400"/>
    <line class="dot" x1="52.800" x2="52.800" y1="273.600" y2="273.600"/>
    <line class="dot" x1="52.800" x2="52.800" y1="292.800" y2="292.800"/>
    <line class="dot" x1="52.800" x2="52.800" y1="312.000" y2="312.000"/>
    <line class="dot" x1="52.800" x2="52.800" y1="331.200" y2="331.200"/>
    <line class="dot" x1="52.800" x2="52.800" y1="350.400" y2="350.400"/>
    <line class="dot" x1="52.800" x2="52.800" y1="369.600" y2="369.600"/>
    <line class="dot" x1="52.800" x2="52.800" y1="388.800" y2="388.800"/>
    <line class="dot" x1="52.800" x2="52.800" y1="408.000" y2="408.000"/>
    <line class="dot" x1="52.800" x2="52.800" y1="427.200" y2="427.200"/>
    <line class="dot" x1="52.800" x2="52.800" y1="446.400" y2="446.400"/>
    <line class="dot" x1="52.800" x2="52.800" y1="465.600" y2="465.600"/>
    <line class="dot" x1="52.800" x2="52.800" y1="484.800" y2="484.800"/>
    <line class="dot" x1="52.800" x2="52.800" y1="504.000" y2="504.000"/>
    <line class="dot" x1="52.800" x2="52.800" y1="523.200" y2="523.200"/>
    <line class="dot" x1="52.800" x2="52.800" y1="542.400" y2="542.400"/>
    <line class="dot" x1="52.800" x2="52.800" y1="561.600" y2="561.600"/>
    <line class="dot" x1="52.800" x2="52.800" y1="580.800" y2="580.800"/>
    <line class="dot" x1="52.800" x2="52.800" y1="600.000" y2="600.000"/>
    <line class="dot" x1="52.800" x2="52.800" y1="619.200" y2="619.200"/>
    <line class="dot" x1="52.800" x2="52.800" y1="638.400" y2="638.400"/>
    <line class="dot" x1="52.800" x2="52.800" y1="657.600" y2="657.600"/>
    <line class="dot" x1="52.800" x2="52.800" y1="676.800" y2="676.800"/>
    <line class="dot" x1="52.800" x2="52.800" y1="696.000" y2="696.000"/>
    <line class="dot" x1="52.800" x2="52.800" y1="715.200" y2="715.200"/>
    <line class="dot" x1="52.800" x2="52.800" y1="734.400" y2="734.400"/>
    <line class="dot" x1="52.800" x2="52.800" y1="753.600" y2="753.600"/>
    <line class="dot" x1="52.800" x2="52.800" y1="772.800" y2="772.800"/>
    <line class="dot" x1="72.000" x2="72.000" y1="81.600" y2="81.600"/>
    <line class="dot" x1="72.000" x2="72.000" y1="100.800" y2="100.800"/>
    <line class="dot" x1="72.000" x2="72.000" y1="120.000" y2="120.000"/>
    <line class="dot" x1="72.000" x2="72.000" y1="139.200" y2="139.200"/>
    <line class="dot" x1="72.000" x2="72.000" y1="158.400" y2="158.400"/>
    <line class="dot" x1="72.000" x2="72.000" y1="177.600" y2="177.600"/>
    <line class="dot" x1="72.000" x2="72.000" y1="196.800" y2="196.800"/>
    <line class="dot" x1="72.000" x2="72.000" y1="216.000" y2="216.000"/>
    <line class="dot" x1="72.000" x2="72.000" y1="235.200" y2="235.200"/>
    <line class="dot" x1="72.000" x2="72.000" y1="254.400" y2="254.400"/>
    <line class="dot" x1="72.000" x2="72.000" y1="273.600" y2="273.600"/>
    <line class="dot" x1="72.000" x2="72.000" y1="292.800" y2="292.800"/>
    <line class="dot" x1="72.000" x2="72.000" y1="312.000" y2="312.000"/>
    <line class="dot" x1="72.000" x2="72.000" y1="331.200" y2="331.200"/>
    <line class="dot" x1="72.000" x2="72.000" y1="350.400" y2="350.400"/>
    <line class="dot" x1="72.000" x2="72.000" y1="369.600" y2="369.600"/>
    <line class="dot" x1="72.000" x2="72.000" y1="388.800" y2="388.800"/>
    <line class="dot" x1="72.000" x2="72.000" y1="408.000" y2="408.000"/>
    <line class="dot" x1="72.000" x2="72.000" y1="427.200" y2="427.200"/>
    <line class="dot" x1="72.000" x2="72.000" y1="446.400" y2="446.400"/>
    <line class="dot" x1="72.000" x2="72.000" y1="465.600" y2="465.600"/>
    <line class="dot" x1="72.000" x2="72.000" y1="484.800" y2="484.800"/>
    <line class="dot" x1="72.000" x2="72.000" y1="504.000" y2="504.000"/>
    <line class="dot" x1="72.000" x2="72.000" y1="523.200" y2="523.200"/>
    <line class="dot" x1="72.000" x2="72.000" y1="542.400" y2="542.400"/>
    <line class="dot" x1="72.000" x2="72.000" y1="561.600" y2="561.600"/>
    <line class="dot" x1="72.000" x2="72.000" y1="580.800" y2="580.800"/>
    <line class="dot" x1="72.000" x2="72.000" y1="600.000" y2="600.000"/>
    <line class="dot" x1="72.000" x2="72.000" y1="619.200" y2="619.200"/>
    <line class="dot" x1="72.000" x2="72.000" y1="638.400" y2="638.400"/>
    <line class="dot" x1="72.000" x2="72.000" y1="657.600" y2="657.600"/>
    <line class="dot" x1="72.000" x2="72.000" y1="676.800" y2="676.800"/>
    <line class="dot" x1="72.000" x2="72.000" y1="696.000" y2="696.000"/>
    <line class="dot" x1="72.000" x2="72.000" y1="715.200" y2="715.200"/>
    <line class="dot" x1="72.000" x2="72.000" y1="734.400" y2="734.400"/>
    <line class="dot" x1="72.000" x2="72.000" y1="753.600" y2="753.600"/>
    <line class="dot" x1="72.000" x2="72.000" y1="772.800" y2="772.800"/>
    <line class="dot" x1="91.200" x2="91.200" y1="81.600" y2="81.600"/>
    <line class="dot" x1="91.200" x2="91.200" y1="100.800" y2="100.800"/>
    <line class="dot" x1="91.200" x2="91.200" y1="120.000" y2="120.000"/>
    <line class="dot" x1="91.200" x2="91.200" y1="139.200" y2="139.200"/>
    <line class="dot" x1="91.200" x2="91.200" y1="158.400" y2="158.400"/>
    <line class="dot" x1="91.200" x2="91.200" y1="177.600" y2="177.600"/>
    <line class="dot" x1="91.200" x2="91.200" y1="196.800" y2="196.800"/>
    <line class="dot" x1="91.200" x2="91.200" y1="216.000" y2="216.000"/>
    <line class="dot" x1="91.200" x2="91.200" y1="235.200" y2="235.200"/>
    <line class="dot" x1="91.200" x2="91.200" y1="254.400" y2="254.400"/>
    <line class="dot" x1="91.200" x2="91.200" y1="273.600" y2="273.600"/>
    <line class="dot" x1="91.200" x2="91.200" y1="292.800" y2="292.800"/>
    <line class="dot" x1="91.200" x2="91.200" y1="312.000" y2="312.000"/>
    <line class="dot" x1="91.200" x2="91.200" y1="331.200" y2="331.200"/>
    <line class="dot" x1="91.200" x2="91.200" y1="350.400" y2="350.400"/>
    <line class="dot" x1="91.200" x2="91.200" y1="369.600" y2="369.600"/>
    <line class="dot" x1="91.200" x2="91.200" y1="388.800" y2="388.800"/>
    <line class="dot" x1="91.200" x2="91.200" y1="408.000" y2="408.000"/>
    <line class="dot" x1="91.200" x2="91.200" y1="427.200" y2="427.200"/>
    <line class="dot" x1="91.200" x2="91.200" y1="446.400" y2="446.400"/>
    <line class="dot" x1="91.200" x2="91.200" y1="465.600" y2="465.600"/>
    <line class="dot" x1="91.200" x2="91.200" y1="484.800" y2="484.800"/>
    <line class="dot" x1="91.200" x2="91.200" y1="504.000" y2="504.000"/>
    <line class="dot" x1="91.200" x2="91.200" y1="523.200" y2="523.200"/>
    <line class="dot" x1="91.200" x2="91.200" y1="542.400" y2="542.400"/>
    <line class="dot" x1="91.200" x2="91.200" y1="561.600" y2="561.600"/>
    <line class="dot" x1="91.200" x2="91.200" y1="580.800" y2="580.800"/>
    <line class="dot" x1="91.200" x2="91.200" y1="600.000" y2="600.000"/>
    <line class="dot" x1="91.200" x2="91.200" y1="619.200" y2="619.200"/>
    <line class="dot" x1="91.200" x2="91.200" y1="638.400" y2="638.400"/>
    <line class="dot" x1="91.200" x2="91.200" y1="657.600" y2="657.600"/>
    <line class="dot" x1="91.200" x2="91.200" y1="676.800" y2="676.800"/>
    <line class="dot" x1="91.200" x2="91.200" y1="696.000" y2="696.000"/>
    <line class="dot" x1="91.200" x2="91.200" y1="715.200" y2="715.200"/>
    <line class="dot" x1="91.200" x2="91.200" y1="734.400" y2="734.400"/>
    <line class="dot" x1="91.200" x2="91.200" y1="753.600" y2="753.600"/>
    <line class="dot" x1="91.200" x2="91.200" y1="772.800" y2="772.800"/>
    <line class="dot" x1="110.400" x2="110.400" y1="81.600" y2="81.600"/>
    <line class="dot" x1="110.400" x2="110.400" y1="100.800" y2="100.800"/>
    <line class="dot" x1="110.400" x2="110.400" y1="120.000" y2="120.000"/>
    <line class="dot" x1="110.400" x2="110.400" y1="139.200" y2="139.200"/>
    <line class="dot" x1="110.400" x2="110.400" y1="158.400" y2="158.400"/>
    <line class="dot" x1="110.400" x2="110.400" y1="177.600" y2="177.600"/>
    <line class="dot" x1="110.400" x2="110.400" y1="196.800" y2="196.800"/>
    <line class="dot" x1="110.400" x2="110.400" y1="216.000" y2="216.000"/>
    <line class="dot" x1="110.400" x2="110.400" y1="235.200" y2="235.200"/>
    <line class="dot" x1="110.400" x2="110.400" y1="254.400" y2="254.400"/>
    <line class="dot" x1="110.400" x2="110.400" y1="273.600" y2="273.600"/>
    <line class="dot" x1="110.400" x2="110.400" y1="292.800" y2="292.800"/>
    <line class="dot" x1="110.400" x2="110.400" y1="312.000" y2="312.000"/>
    <line class="dot" x1="110.400" x2="110.400" y1="331.200" y2="331.200"/>
    <line class="dot" x1="110.400" x2="110.400" y1="350.400" y2="350.400"/>
    <line class="dot" x1="110.400" x2="110.400" y1="369.600" y2="369.600"/>
    <line class="dot" x1="110.400" x2="110.400" y1="388.800" y2="388.800"/>
    <line class="dot" x1="110.400" x2="110.400" y1="408.000" y2="408.000"/>
    <line class="dot" x1="110.400" x2="110.400" y1="427.200" y2="427.200"/>
    <line class="dot" x1="110.400" x2="110.400" y1="446.400" y2="446.400"/>
    <line class="dot" x1="110.400" x2="110.400" y1="465.600" y2="465.600"/>
    <line class="dot" x1="110.400" x2="110.400" y1="484.800" y2="484.800"/>
    <line class="dot" x1="110.400" x2="110.400" y1="504.000" y2="504.000"/>
    <line class="dot" x1="110.400" x2="110.400" y1="523.200" y2="523.200"/>
    <line class="dot" x1="110.400" x2="110.400" y1="542.400" y2="542.400"/>
    <line class="dot" x1="110.400" x2="110.400" y1="561.600" y2="561.600"/>
    <line class="dot" x1="110.400" x2="110.400" y1="580.800" y2="580.800"/>
    <line class="dot" x1="110.400" x2="110.400" y1="600.000" y2="600.000"/>
    <line class="dot" x1="110.400" x2="110.400" y1="619.200" y2="619.200"/>
    <line class="dot" x1="110.400" x2="110.400" y1="638.400" y2="638.400"/>
    <line class="dot" x1="110.400" x2="110.400" y1="657.600" y2="657.600"/>
    <line class="dot" x1="110.400" x2="110.400" y1="676.800" y2="676.800"/>
    <line class="dot" x1="110.400" x2="110.400" y1="696.000" y2="696.000"/>
    <line class="dot" x1="110.400" x2="110.400" y1="715.200" y2="715.200"/>
    <line class="dot" x1="110.400" x2="110.400" y1="734.400" y2="734.400"/>
    <line class="dot" x1="110.400" x2="110.400" y1="753.600" y2="753.600"/>
    <line class="dot" x1="110.400" x2="110.400" y1="772.800" y2="772.800"/>
    <line class="dot" x1="129.600" x2="129.600" y1="81.600" y2="81.600"/>
    <line class="dot" x1="129.600" x2="129.600" y1="100.800" y2="100.800"/>
    <line class="dot" x1="129.600" x2="129.600" y1="120.000" y2="120.000"/>
    <line class="dot" x1="129.600" x2="129.600" y1="139.200" y2="139.200"/>
    <line class="dot" x1="129.600" x2="129.600" y1="158.400" y2="158.400"/>
    <line class="dot" x1="129.600" x2="129.600" y1="177.600" y2="177.600"/>
    <line class="dot" x1="129.600" x2="129.600" y1="196.800" y2="196.800"/>
    <line class="dot" x1="129.600" x2="129.600" y1="216.000" y2="216.000"/>
    <line class="dot" x1="129.600" x2="129.600" y1="235.200" y2="235.200"/>
    <line class="dot" x1="129.600" x2="129.600" y1="254.400" y2="254.400"/>
    <line class="dot" x1="129.600" x2="129.600" y1="273.600" y2="273.600"/>
    <line class="dot" x1="129.600" x2="129.600" y1="292.800" y2="292.800"/>
    <line class="dot" x1="129.600" x2="129.600" y1="312.000" y2="312.000"/>
    <line class="dot" x1="129.600" x2="129.600" y1="331.200" y2="331.200"/>
    <line class="dot" x1="129.600" x2="129.600" y1="350.400" y2="350.400"/>
    <line class="dot" x1="129.600" x2="129.600" y1="369.600" y2="369.600"/>
    <line class="dot" x1="129.600" x2="129.600" y1="388.800" y2="388.800"/>
    <line class="dot" x1="129.600" x2="129.600" y1="408.000" y2="408.000"/>
    <line class="dot" x1="129.600" x2="129.600" y1="427.200" y2="427.200"/>
    <line class="dot" x1="129.600" x2="129.600" y1="446.400" y2="446.400"/>
    <line class="dot" x1="129.600" x2="129.600" y1="465.600" y2="465.600"/>
    <line class="dot" x1="129.600" x2="129.600" y1="484.800" y2="484.800"/>
    <line class="dot" x1="129.600" x2="129.600" y1="504.000" y2="504.000"/>
    <line class="dot" x1="129.600" x2="129.600" y1="523.200" y2="523.200"/>
    <line class="dot" x1="129.600" x2="129.600" y1="542.400" y2="542.400"/>
    <line class="dot" x1="129.600" x2="129.600" y1="561.600" y2="561.600"/>
    <line class="dot" x1="129.600" x2="129.600" y1="580.800" y2="580.800"/>
    <line class="dot" x1="129.600" x2="129.600" y1="600.000" y2="600.000"/>
    <line class="dot" x1="129.600" x2="129.600" y1="619.200" y2="619.200"/>
    <line class="dot" x1="129.600" x2="129.600" y1="638.400" y2="638.400"/>
    <line class="dot" x1="129.600" x2="129.600" y1="657.600" y2="657.600"/>
    <line class="dot" x1="129.600" x2="129.600" y1="676.800" y2="676.800"/>
    <line class="dot" x1="129.600" x2="129.600" y1="696.000" y2="696.000"/>
    <line class="dot" x1="129.600" x2="129.600" y1="715.200" y2="715.200"/>
    <line class="dot" x1="129.600" x2="129.600" y1="734.400" y2="734.400"/>
    <line class="dot" x1="129.600" x2="129.600" y1="753.600" y2="753.600"/>
    <line class="dot" x1="129.600" x2="129.600" y1="772.800" y2="772.800"/>
    <line class="dot" x1="148.800" x2="148.800" y1="81.600" y2="81.600"/>
    <line class="dot" x1="148.800" x2="148.800" y1="100.800" y2="100.800"/>
    <line class="dot" x1="148.800" x2="148.800" y1="120.000" y2="120.000"/>
    <line class="dot" x1="148.800" x2="148.800" y1="139.200" y2="139.200"/>
    <line class="dot" x1="148.800" x2="148.800" y1="158.400" y2="158.400"/>
    <line class="dot" x1="148.800" x2="148.800" y1="177.600" y2="177.600"/>
    <line class="dot" x1="148.800" x2="148.800" y1="196.800" y2="196.800"/>
    <line class="dot" x1="148.800" x2="148.800" y1="216.000" y2="216.000"/>
    <line class="dot" x1="148.800" x2="148.800" y1="235.200" y2="235.200"/>
    <line class="dot" x1="148.800" x2="148.800" y1="254.400" y2="254.400"/>
    <line class="dot" x1="148.800" x2="148.800" y1="273.600" y2="273.600"/>
    <line class="dot" x1="148.800" x2="148.800" y1="292.800" y2="292.800"/>
    <line class="dot" x1="148.800" x2="148.800" y1="312.000" y2="312.000"/>
    <line class="dot" x1="148.800" x2="148.800" y1="331.200" y2="331.200"/>
    <line class="dot" x1="148.800" x2="148.800" y1="350.400" y2="350.400"/>
    <line class="dot" x1="148.800" x2="148.800" y1="369.600" y2="369.600"/>
    <line class="dot" x1="148.800" x2="148.800" y1="388.800" y2="388.800"/>
    <line class="dot" x1="148.800" x2="148.800" y1="408.000" y2="408.000"/>
    <line class="dot" x1="148.800" x2="148.800" y1="427.200" y2="427.200"/>
    <line class="dot" x1="148.800" x2="148.800" y1="446.400" y2="446.400"/>
    <line class="dot" x1="148.800" x2="148.800" y1="465.600" y2="465.600"/>
    <line class="dot" x1="148.800" x2="148.800" y1="484.800" y2="484.800"/>
    <line class="dot" x1="148.800" x2="148.800" y1="504.000" y2="504.000"/>
    <line class="dot" x1="148.800" x2="148.800" y1="523.200" y2="523.200"/>
    <line class="dot" x1="148.800" x2="148.800" y1="542.400" y2="542.400"/>
    <line class="dot" x1="148.800" x2="148.800" y1="561.600" y2="561.600"/>
    <line class="dot" x1="148.800" x2="148.800" y1="580.800" y2="580.800"/>
    <line class="dot" x1="148.800" x2="148.800" y1="600.000" y2="600.000"/>
    <line class="dot" x1="148.800" x2="148.800" y1="619.200" y2="619.200"/>
    <line class="dot" x1="148.800" x2="148.800" y1="638.400" y2="638.400"/>
    <line class="dot" x1="148.800" x2="148.800" y1="657.600" y2="657.600"/>
    <line class="dot" x1="148.800" x2="148.800" y1="676.800" y2="676.800"/>
    <line class="dot" x1="148.800" x2="148.800" y1="696.000" y2="696.000"/>
    <line class="dot" x1="148.800" x2="148.800" y1="715.200" y2="715.200"/>
    <line class="dot" x1="148.800" x2="148.800" y1="734.400" y2="734.400"/>
    <line class="dot" x1="148.800" x2="148.800" y1="753.600" y2="753.600"/>
    <line class="dot" x1="148.800" x2="148.800" y1="772.800" y2="772.800"/>
    <line class="dot" x1="168.000" x2="168.000" y1="81.600" y2="81.600"/>
    <line class="dot" x1="168.000" x2="168.000" y1="100.800" y2="100.800"/>
    <line class="dot" x1="168.000" x2="168.000" y1="120.000" y2="120.000"/>
    <line class="dot" x1="168.000" x2="168.000" y1="139.200" y2="139.200"/>
    <line class="dot" x1="168.000" x2="168.000" y1="158.400" y2="158.400"/>
    <line class="dot" x1="168.000" x2="168.000" y1="177.600" y2="177.600"/>
    <line class="dot" x1="168.000" x2="168.000" y1="196.800" y2="196.800"/>
    <line class="dot" x1="168.000" x2="168.000" y1="216.000" y2="216.000"/>
    <line class="dot" x1="168.000" x2="168.000" y1="235.200" y2="235.200"/>
    <line class="dot" x1="168.000" x2="168.000" y1="254.400" y2="254.400"/>
    <line class="dot" x1="168.000" x2="168.000" y1="273.600" y2="273.600"/>
    <line class="dot" x1="168.000" x2="168.000" y1="292.800" y2="292.800"/>
    <line class="dot" x1="168.000" x2="168.000" y1="312.000" y2="312.000"/>
    <line class="dot" x1="168.000" x2="168.000" y1="331.200" y2="331.200"/>
    <line class="dot" x1="168.000" x2="168.000" y1="350.400" y2="350.400"/>
    <line class="dot" x1="168.000" x2="168.000" y1="369.600" y2="369.600"/>
    <line class="dot" x1="168.000" x2="168.000" y1="388.800" y2="388.800"/>
    <line class="dot" x1="168.000" x2="168.000" y1="408.000" y2="408.000"/>
    <line class="dot" x1="168.000" x2="168.000" y1="427.200" y2="427.200"/>
    <line class="dot" x1="168.000" x2="168.000" y1="446.400" y2="446.400"/>
    <line class="dot" x1="168.000" x2="168.000" y1="465.600" y2="465.600"/>
    <line class="dot" x1="168.000" x2="168.000" y1="484.800" y2="484.800"/>
    <line class="dot" x1="168.000" x2="168.000" y1="504.000" y2="504.000"/>
    <line class="dot" x1="168.000" x2="168.000" y1="523.200" y2="523.200"/>
    <line class="dot" x1="168.000" x2="168.000" y1="542.400" y2="542.400"/>
    <line class="dot" x1="168.000" x2="168.000" y1="561.600" y2="561.600"/>
    <line class="dot" x1="168.000" x2="168.000" y1="580.800" y2="580.800"/>
    <line class="dot" x1="168.000" x2="168.000" y1="600.000" y2="600.000"/>
    <line class="dot" x1="168.000" x2="168.000" y1="619.200" y2="619.200"/>
    <line class="dot" x1="168.000" x2="168.000" y1="638.400" y2="638.400"/>
    <line class="dot" x1="168.000" x2="168.000" y1="657.600" y2="657.600"/>
    <line class="dot" x1="168.000" x2="168.000" y1="676.800" y2="676.800"/>
    <line class="dot" x1="168.000" x2="168.000" y1="696.000" y2="696.000"/>
    <line class="dot" x1="168.000" x2="168.000" y1="715.200" y2="715.200"/>
    <line class="dot" x1="168.000" x2="168.000" y1="734.400" y2="734.400"/>
    <line class="dot" x1="168.000" x2="168.000" y1="753.600" y2="753.600"/>
    <line class="dot" x1="168.000" x2="168.000" y1="772.800" y2="772.800"/>
    <line class="dot" x1="187.200" x2="187.200" y1="81.600" y2="81.600"/>
    <line class="dot" x1="187.200" x2="187.200" y1="100.800" y2="100.800"/>
    <line class="dot" x1="187.200" x2="187.200" y1="120.000" y2="120.000"/>
    <line class="dot" x1="187.200" x2="187.200" y1="139.200" y2="139.200"/>
    <line class="dot" x1="187.200" x2="187.200" y1="158.400" y2="158.400"/>
    <line class="dot" x1="187.200" x2="187.200" y1="177.600" y2="177.600"/>
    <line class="dot" x1="187.200" x2="187.200" y1="196.800" y2="196.800"/>
    <line class="dot" x1="187.200" x2="187.200" y1="216.000" y2="216.000"/>
    <line class="dot" x1="187.200" x2="187.200" y1="235.200" y2="235.200"/>
    <line class="dot" x1="187.200" x2="187.200" y1="254.400" y2="254.400"/>
    <line class="dot" x1="187.200" x2="187.200" y1="273.600" y2="273.600"/>
    <line class="dot" x1="187.200" x2="187.200" y1="292.800" y2="292.800"/>
    <line class="dot" x1="187.200" x2="187.200" y1="312.000" y2="312.000"/>
    <line class="dot" x1="187.200" x2="187.200" y1="331.200" y2="331.200"/>
    <line class="dot" x1="187.200" x2="187.200" y1="350.400" y2="350.400"/>
    <line class="dot" x1="187.200" x2="187.200" y1="369.600" y2="369.600"/>
    <line class="dot" x1="187.200" x2="187.200" y1="388.800" y2="388.800"/>
    <line class="dot" x1="187.200" x2="187.200" y1="408.000" y2="408.000"/>
    <line class="dot" x1="187.200" x2="187.200" y1="427.200" y2="427.200"/>
    <line class="dot" x1="187.200" x2="187.200" y1="446.400" y2="446.400"/>
    <line class="dot" x1="187.200" x2="187.200" y1="465.600" y2="465.600"/>
    <line class="dot" x1="187.200" x2="187.200" y1="484.800" y2="484.800"/>
    <line class="dot" x1="187.200" x2="187.200" y1="504.000" y2="504.000"/>
    <line class="dot" x1="187.200" x2="187.200" y1="523.200" y2="523.200"/>
    <line class="dot" x1="187.200" x2="187.200" y1="542.400" y2="542.400"/>
    <line class="dot" x1="187.200" x2="187.200" y1="561.600" y2="561.600"/>
    <line class="dot" x1="187.200" x2="187.200" y1="580.800" y2="580.800"/>
    <line class="dot" x1="187.200" x2="187.200" y1="600.000" y2="600.000"/>
    <line class="dot" x1="187.200" x2="187.200" y1="619.200" y2="619.200"/>
    <line class="dot" x1="187.200" x2="187.200" y1="638.400" y2="638.400"/>
    <line class="dot" x1="187.200" x2="187.200" y1="657.600" y2="657.600"/>
    <line class="dot" x1="187.200" x2="187.200" y1="676.800" y2="676.800"/>
    <line class="dot" x1="187.200" x2="187.200" y1="696.000" y2="696.000"/>
    <line class="dot" x1="187.200" x2="187.200" y1="715.200" y2="715.200"/>
    <line class="dot" x1="187.200" x2="187.200" y1="734.400" y2="734.400"/>
    <line class="dot" x1="187.200" x2="187.200" y1="753.600" y2="753.600"/>
    <line class="dot" x1="187.200" x2="187.200" y1="772.800" y2="772.800"/>
    <line class="dot" x1="206.400" x2="206.400" y1="81.600" y2="81.600"/>
    <line class="dot" x1="206.400" x2="206.400" y1="100.800" y2="100.800"/>
    <line class="dot" x1="206.400" x2="206.400" y1="120.000" y2="120.000"/>
    <line class="dot" x1="206.400" x2="206.400" y1="139.200" y2="139.200"/>
    <line class="dot" x1="206.400" x2="206.400" y1="158.400" y2="158.400"/>
    <line class="dot" x1="206.400" x2="206.400" y1="177.600" y2="177.600"/>
    <line class="dot" x1="206.400" x2="206.400" y1="196.800" y2="196.800"/>
    <line class="dot" x1="206.400" x2="206.400" y1="216.000" y2="216.000"/>
    <line class="dot" x1="206.400" x2="206.400" y1="235.200" y2="235.200"/>
    <line class="dot" x1="206.400" x2="206.400" y1="254.400" y2="254.400"/>
    <line class="dot" x1="206.400" x2="206.400" y1="273.600" y2="273.600"/>
    <line class="dot" x1="206.400" x2="206.400" y1="292.800" y2="292.800"/>
    <line class="dot" x1="206.400" x2="206.400" y1="312.000" y2="312.000"/>
    <line class="dot" x1="206.400" x2="206.400" y1="331.200" y2="331.200"/>
    <line class="dot" x1="206.400" x2="206.400" y1="350.400" y2="350.400"/>
    <line class="dot" x1="206.400" x2="206.400" y1="369.600" y2="369.600"/>
    <line class="dot" x1="206.400" x2="206.400" y1="388.800" y2="388.800"/>
    <line class="dot" x1="206.400" x2="206.400" y1="408.000" y2="408.000"/>
    <line class="dot" x1="206.400" x2="206.400" y1="427.200" y2="427.200"/>
    <line class="dot" x1="206.400" x2="206.400" y1="446.400" y2="446.400"/>
    <line class="dot" x1="206.400" x2="206.400" y1="465.600" y2="465.600"/>
    <line class="dot" x1="206.400" x2="206.400" y1="484.800" y2="484.800"/>
    <line class="dot" x1="206.400" x2="206.400" y1="504.000" y2="504.000"/>
    <line class="dot" x1="206.400" x2="206.400" y1="523.200" y2="523.200"/>
    <line class="dot" x1="206.400" x2="206.400" y1="542.400" y2="542.400"/>
    <line class="dot" x1="206.400" x2="206.400" y1="561.600" y2="561.600"/>
    <line class="dot" x1="206.400" x2="206.400" y1="580.800" y2="580.800"/>
    <line class="dot" x1="206.400" x2="206.400" y1="600.000" y2="600.000"/>
    <line class="dot" x1="206.400" x2="206.400" y1="619.200" y2="619.200"/>
    <line class="dot" x1="206.400" x2="206.400" y1="638.400" y2="638.400"/>
    <line class="dot" x1="206.400" x2="206.400" y1="657.600" y2="657.600"/>
    <line class="dot" x1="206.400" x2="206.400" y1="676.800" y2="676.800"/>
    <line class="dot" x1="206.400" x2="206.400" y1="696.000" y2="696.000"/>
    <line class="dot" x1="206.400" x2="206.400" y1="715.200" y2="715.200"/>
    <line class="dot" x1="206.400" x2="206.400" y1="734.400" y2="734.400"/>
    <line class="dot" x1="206.400" x2="206.400" y1="753.600" y2="753.600"/>
    <line class="dot" x1="206.400" x2="206.400" y1="772.800" y2="772.800"/>
    <line class="dot" x1="225.600" x2="225.600" y1="81.600" y2="81.600"/>
    <line class="dot" x1="225.600" x2="225.600" y1="100.800" y2="100.800"/>
    <line class="dot" x1="225.600" x2="225.600" y1="120.000" y2="120.000"/>
    <line class="dot" x1="225.600" x2="225.600" y1="139.200" y2="139.200"/>
    <line class="dot" x1="225.600" x2="225.600" y1="158.400" y2="158.400"/>
    <line class="dot" x1="225.600" x2="225.600" y1="177.600" y2="177.600"/>
    <line class="dot" x1="225.600" x2="225.600" y1="196.800" y2="196.800"/>
    <line class="dot" x1="225.600" x2="225.600" y1="216.000" y2="216.000"/>
    <line class="dot" x1="225.600" x2="225.600" y1="235.200" y2="235.200"/>
    <line class="dot" x1="225.600" x2="225.600" y1="254.400" y2="254.400"/>
    <line class="dot" x1="225.600" x2="225.600" y1="273.600" y2="273.600"/>
    <line class="dot" x1="225.600" x2="225.600" y1="292.800" y2="292.800"/>
    <line class="dot" x1="225.600" x2="225.600" y1="312.000" y2="312.000"/>
    <line class="dot" x1="225.600" x2="225.600" y1="331.200" y2="331.200"/>
    <line class="dot" x1="225.600" x2="225.600" y1="350.400" y2="350.400"/>
    <line class="dot" x1="225.600" x2="225.600" y1="369.600" y2="369.600"/>
    <line class="dot" x1="225.600" x2="225.600" y1="388.800" y2="388.800"/>
    <line class="dot" x1="225.600" x2="225.600" y1="408.000" y2="408.000"/>
    <line class="dot" x1="225.600" x2="225.600" y1="427.200" y2="427.200"/>
    <line class="dot" x1="225.600" x2="225.600" y1="446.400" y2="446.400"/>
    <line class="dot" x1="225.600" x2="225.600" y1="465.600" y2="465.600"/>
    <line class="dot" x1="225.600" x2="225.600" y1="484.800" y2="484.800"/>
    <line class="dot" x1="225.600" x2="225.600" y1="504.000" y2="504.000"/>
    <line class="dot" x1="225.600" x2="225.600" y1="523.200" y2="523.200"/>
    <line class="dot" x1="225.600" x2="225.600" y1="542.400" y2="542.400"/>
    <line class="dot" x1="225.600" x2="225.600" y1="561.600" y2="561.600"/>
    <line class="dot" x1="225.600" x2="225.600" y1="580.800" y2="580.800"/>
    <line class="dot" x1="225.600" x2="225.600" y1="600.000" y2="600.000"/>
    <line class="dot" x1="225.600" x2="225.600" y1="619.200" y2="619.200"/>
    <line class="dot" x1="225.600" x2="225.600" y1="638.400" y2="638.400"/>
    <line class="dot" x1="225.600" x2="225.600" y1="657.600" y2="657.600"/>
    <line class="dot" x1="225.600" x2="225.600" y1="676.800" y2="676.800"/>
    <line class="dot" x1="225.600" x2="225.600" y1="696.000" y2="696.000"/>
    <line class="dot" x1="225.600" x2="225.600" y1="715.200" y2="715.200"/>
    <line class="dot" x1="225.600" x2="225.600" y1="734.400" y2="734.400"/>
    <line class="dot" x1="225.600" x2="225.600" y1="753.600" y2="753.600"/>
    <line class="dot" x1="225.600" x2="225.600" y1="772.800" y2="772.800"/>
    <line class="dot" x1="244.800" x2="244.800" y1="81.600" y2="81.600"/>
    <line class="dot" x1="244.800" x2="244.800" y1="100.800" y2="100.800"/>
    <line class="dot" x1="244.800" x2="244.800" y1="120.000" y2="120.000"/>
    <line class="dot" x1="244.800" x2="244.800" y1="139.200" y2="139.200"/>
    <line class="dot" x1="244.800" x2="244.800" y1="158.400" y2="158.400"/>
    <line class="dot" x1="244.800" x2="244.800" y1="177.600" y2="177.600"/>
    <line class="dot" x1="244.800" x2="244.800" y1="196.800" y2="196.800"/>
    <line class="dot" x1="244.800" x2="244.800" y1="216.000" y2="216.000"/>
    <line class="dot" x1="244.800" x2="244.800" y1="235.200" y2="235.200"/>
    <line class="dot" x1="244.800" x2="244.800" y1="254.400" y2="254.400"/>
    <line class="dot" x1="244.800" x2="244.800" y1="273.600" y2="273.600"/>
    <line class="dot" x1="244.800" x2="244.800" y1="292.800" y2="292.800"/>
    <line class="dot" x1="244.800" x2="244.800" y1="312.000" y2="312.000"/>
    <line class="dot" x1="244.800" x2="244.800" y1="331.200" y2="331.200"/>
    <line class="dot" x1="244.800" x2="244.800" y1="350.400" y2="350.400"/>
    <line class="dot" x1="244.800" x2="244.800" y1="369.600" y2="369.600"/>
    <line class="dot" x1="244.800" x2="244.800" y1="388.800" y2="388.800"/>
    <line class="dot" x1="244.800" x2="244.800" y1="408.000" y2="408.000"/>
    <line class="dot" x1="244.800" x2="244.800" y1="427.200" y2="427.200"/>
    <line class="dot" x1="244.800" x2="244.800" y1="446.400" y2="446.400"/>
    <line class="dot" x1="244.800" x2="244.800" y1="465.600" y2="465.600"/>
    <line class="dot" x1="244.800" x2="244.800" y1="484.800" y2="484.800"/>
    <line class="dot" x1="244.800" x2="244.800" y1="504.000" y2="504.000"/>
    <line class="dot" x1="244.800" x2="244.800" y1="523.200" y2="523.200"/>
    <line class="dot" x1="244.800" x2="244.800" y1="542.400" y2="542.400"/>
    <line class="dot" x1="244.800" x2="244.800" y1="561.600" y2="561.600"/>
    <line class="dot" x1="244.800" x2="244.800" y1="580.800" y2="580.800"/>
    <line class="dot" x1="244.800" x2="244.800" y1="600.000" y2="600.000"/>
    <line class="dot" x1="244.800" x2="244.800" y1="619.200" y2="619.200"/>
    <line class="dot" x1="244.800" x2="244.800" y1="638.400" y2="638.400"/>
    <line class="dot" x1="244.800" x2="244.800" y1="657.600" y2="657.600"/>
    <line class="dot" x1="244.800" x2="244.800" y1="676.800" y2="676.800"/>
    <line class="dot" x1="244.800" x2="244.800" y1="696.000" y2="696.000"/>
    <line class="dot" x1="244.800" x2="244.800" y1="715.200" y2="715.200"/>
    <line class="dot" x1="244.800" x2="244.800" y1="734.400" y2="734.400"/>
    <line class="dot" x1="244.800" x2="244.800" y1="753.600" y2="753.600"/>
    <line class="dot" x1="244.800" x2="244.800" y1="772.800" y2="772.800"/>
    <line class="dot" x1="264.000" x2="264.000" y1="81.600" y2="81.600"/>
    <line class="dot" x1="264.000" x2="264.000" y1="100.800" y2="100.800"/>
    <line class="dot" x1="264.000" x2="264.000" y1="120.000" y2="120.000"/>
    <line class="dot" x1="264.000" x2="264.000" y1="139.200" y2="139.200"/>
    <line class="dot" x1="264.000" x2="264.000" y1="158.400" y2="158.400"/>
    <line class="dot" x1="264.000" x2="264.000" y1="177.600" y2="177.600"/>
    <line class="dot" x1="264.000" x2="264.000" y1="196.800" y2="196.800"/>
    <line class="dot" x1="264.000" x2="264.000" y1="216.000" y2="216.000"/>
    <line class="dot" x1="264.000" x2="264.000" y1="235.200" y2="235.200"/>
    <line class="dot" x1="264.000" x2="264.000" y1="254.400" y2="254.400"/>
    <line class="dot" x1="264.000" x2="264.000" y1="273.600" y2="273.600"/>
    <line class="dot" x1="264.000" x2="264.000" y1="292.800" y2="292.800"/>
    <line class="dot" x1="264.000" x2="264.000" y1="312.000" y2="312.000"/>
    <line class="dot" x1="264.000" x2="264.000" y1="331.200" y2="331.200"/>
    <line class="dot" x1="264.000" x2="264.000" y1="350.400" y2="350.400"/>
    <line class="dot" x1="264.000" x2="264.000" y1="369.600" y2="369.600"/>
    <line class="dot" x1="264.000" x2="264.000" y1="388.800" y2="388.800"/>
    <line class="dot" x1="264.000" x2="264.000" y1="408.000" y2="408.000"/>
    <line class="dot" x1="264.000" x2="264.000" y1="427.200" y2="427.200"/>
    <line class="dot" x1="264.000" x2="264.000" y1="446.400" y2="446.400"/>
    <line class="dot" x1="264.000" x2="264.000" y1="465.600" y2="465.600"/>
    <line class="dot" x1="264.000" x2="264.000" y1="484.800" y2="484.800"/>
    <line class="dot" x1="264.000" x2="264.000" y1="504.000" y2="504.000"/>
    <line class="dot" x1="264.000" x2="264.000" y1="523.200" y2="523.200"/>
    <line class="dot" x1="264.000" x2="264.000" y1="542.400" y2="542.400"/>
    <line class="dot" x1="264.000" x2="264.000" y1="561.600" y2="561.600"/>
    <line class="dot" x1="264.000" x2="264.000" y1="580.800" y2="580.800"/>
    <line class="dot" x1="264.000" x2="264.000" y1="600.000" y2="600.000"/>
    <line class="dot" x1="264.000" x2="264.000" y1="619.200" y2="619.200"/>
    <line class="dot" x1="264.000" x2="264.000" y1="638.400" y2="638.400"/>
    <line class="dot" x1="264.000" x2="264.000" y1="657.600" y2="657.600"/>
    <line class="dot" x1="264.000" x2="264.000" y1="676.800" y2="676.800"/>
    <line class="dot" x1="264.000" x2="264.000" y1="696.000" y2="696.000"/>
    <line class="dot" x1="264.000" x2="264.000" y1="715.200" y2="715.200"/>
    <line class="dot" x1="264.000" x2="264.000" y1="734.400" y2="734.400"/>
    <line class="dot" x1="264.000" x2="264.000" y1="753.600" y2="753.600"/>
    <line class="dot" x1="264.000" x2="264.000" y1="772.800" y2="772.800"/>
    <line class="dot" x1="283.200" x2="283.200" y1="81.600" y2="81.600"/>
    <line class="dot" x1="283.200" x2="283.200" y1="100.800" y2="100.800"/>
    <line class="dot" x1="283.200" x2="283.200" y1="120.000" y2="120.000"/>
    <line class="dot" x1="283.200" x2="283.200" y1="139.200" y2="139.200"/>
    <line class="dot" x1="283.200" x2="283.200" y1="158.400" y2="158.400"/>
    <line class="dot" x1="283.200" x2="283.200" y1="177.600" y2="177.600"/>
    <line class="dot" x1="283.200" x2="283.200" y1="196.800" y2="196.800"/>
    <line class="dot" x1="283.200" x2="283.200" y1="216.000" y2="216.000"/>
    <line class="dot" x1="283.200" x2="283.200" y1="235.200" y2="235.200"/>
    <line class="dot" x1="283.200" x2="283.200" y1="254.400" y2="254.400"/>
    <line class="dot" x1="283.200" x2="283.200" y1="273.600" y2="273.600"/>
    <line class="dot" x1="283.200" x2="283.200" y1="292.800" y2="292.800"/>
    <line class="dot" x1="283.200" x2="283.200" y1="312.000" y2="312.000"/>
    <line class="dot" x1="283.200" x2="283.200" y1="331.200" y2="331.200"/>
    <line class="dot" x1="283.200" x2="283.200" y1="350.400" y2="350.400"/>
    <line class="dot" x1="283.200" x2="283.200" y1="369.600" y2="369.600"/>
    <line class="dot" x1="283.200" x2="283.200" y1="388.800" y2="388.800"/>
    <line class="dot" x1="283.200" x2="283.200" y1="408.000" y2="408.000"/>
    <line class="dot" x1="283.200" x2="283.200" y1="427.200" y2="427.200"/>
    <line class="dot" x1="283.200" x2="283.200" y1="446.400" y2="446.400"/>
    <line class="dot" x1="283.200" x2="283.200" y1="465.600" y2="465.600"/>
    <line class="dot" x1="283.200" x2="283.200" y1="484.800" y2="484.800"/>
    <line class="dot" x1="283.200" x2="283.200" y1="504.000" y2="504.000"/>
    <line class="dot" x1="283.200" x2="283.200" y1="523.200" y2="523.200"/>
    <line class="dot" x1="283.200" x2="283.200" y1="542.400" y2="542.400"/>
    <line class="dot" x1="283.200" x2="283.200" y1="561.600" y2="561.600"/>
    <line class="dot" x1="283.200" x2="283.200" y1="580.800" y2="580.800"/>
    <line class="dot" x1="283.200" x2="283.200" y1="600.000" y2="600.000"/>
    <line class="dot" x1="283.200" x2="283.200" y1="619.200" y2="619.200"/>
    <line class="dot" x1="283.200" x2="283.200" y1="638.400" y2="638.400"/>
    <line class="dot" x1="283.200" x2="283.200" y1="657.600" y2="657.600"/>
    <line class="dot" x1="283.200" x2="283.200" y1="676.800" y2="676.800"/>
    <line class="dot" x1="283.200" x2="283.200" y1="696.000" y2="696.000"/>
    <line class="dot" x1="283.200" x2="283.200" y1="715.200" y2="715.200"/>
    <line class="dot" x1="283.200" x2="283.200" y1="734.400" y2="734.400"/>
    <line class="dot" x1="283.200" x2="283.200" y1="753.600" y2="753.600"/>
    <line class="dot" x1="283.200" x2="283.200" y1="772.800" y2="772.800"/>
    <line class="dot" x1="302.400" x2="302.400" y1="81.600" y2="81.600"/>
    <line class="dot" x1="302.400" x2="302.400" y1="100.800" y2="100.800"/>
    <line class="dot" x1="302.400" x2="302.400" y1="120.000" y2="120.000"/>
    <line class="dot" x1="302.400" x2="302.400" y1="139.200" y2="139.200"/>
    <line class="dot" x1="302.400" x2="302.400" y1="158.400" y2="158.400"/>
    <line class="dot" x1="302.400" x2="302.400" y1="177.600" y2="177.600"/>
    <line class="dot" x1="302.400" x2="302.400" y1="196.800" y2="196.800"/>
    <line class="dot" x1="302.400" x2="302.400" y1="216.000" y2="216.000"/>
    <line class="dot" x1="302.400" x2="302.400" y1="235.200" y2="235.200"/>
    <line class="dot" x1="302.400" x2="302.400" y1="254.400" y2="254.400"/>
    <line class="dot" x1="302.400" x2="302.400" y1="273.600" y2="273.600"/>
    <line class="dot" x1="302.400" x2="302.400" y1="292.800" y2="292.800"/>
    <line class="dot" x1="302.400" x2="302.400" y1="312.000" y2="312.000"/>
    <line class="dot" x1="302.400" x2="302.400" y1="331.200" y2="331.200"/>
    <line class="dot" x1="302.400" x2="302.400" y1="350.400" y2="350.400"/>
    <line class="dot" x1="302.400" x2="302.400" y1="369.600" y2="369.600"/>
    <line class="dot" x1="302.400" x2="302.400" y1="388.800" y2="388.800"/>
    <line class="dot" x1="302.400" x2="302.400" y1="408.000" y2="408.000"/>
    <line class="dot" x1="302.400" x2="302.400" y1="427.200" y2="427.200"/>
    <line class="dot" x1="302.400" x2="302.400" y1="446.400" y2="446.400"/>
    <line class="dot" x1="302.400" x2="302.400" y1="465.600" y2="465.600"/>
    <line class="dot" x1="302.400" x2="302.400" y1="484.800" y2="484.800"/>
    <line class="dot" x1="302.400" x2="302.400" y1="504.000" y2="504.000"/>
    <line class="dot" x1="302.400" x2="302.400" y1="523.200" y2="523.200"/>
    <line class="dot" x1="302.400" x2="302.400" y1="542.400" y2="542.400"/>
    <line class="dot" x1="302.400" x2="302.400" y1="561.600" y2="561.600"/>
    <line class="dot" x1="302.400" x2="302.400" y1="580.800" y2="580.800"/>
    <line class="dot" x1="302.400" x2="302.400" y1="600.000" y2="600.000"/>
    <line class="dot" x1="302.400" x2="302.400" y1="619.200" y2="619.200"/>
    <line class="dot" x1="302.400" x2="302.400" y1="638.400" y2="638.400"/>
    <line class="dot" x1="302.400" x2="302.400" y1="657.600" y2="657.600"/>
    <line class="dot" x1="302.400" x2="302.400" y1="676.800" y2="676.800"/>
    <line class="dot" x1="302.400" x2="302.400" y1="696.000" y2="696.000"/>
    <line class="dot" x1="302.400" x2="302.400" y1="715.200" y2="715.200"/>
    <line class="dot" x1="302.400" x2="302.400" y1="734.400" y2="734.400"/>
    <line class="dot" x1="302.400" x2="302.400" y1="753.600" y2="753.600"/>
    <line class="dot" x1="302.400" x2="302.400" y1="772.800" y2="772.800"/>
    <line class="dot" x1="321.600" x2="321.600" y1="81.600" y2="81.600"/>
    <line class="dot" x1="321.600" x2="321.600" y1="100.800" y2="100.800"/>
    <line class="dot" x1="321.600" x2="321.600" y1="120.000" y2="120.000"/>
    <line class="dot" x1="321.600" x2="321.600" y1="139.200" y2="139.200"/>
    <line class="dot" x1="321.600" x2="321.600" y1="158.400" y2="158.400"/>
    <line class="dot" x1="321.600" x2="321.600" y1="177.600" y2="177.600"/>
    <line class="dot" x1="321.600" x2="321.600" y1="196.800" y2="196.800"/>
    <line class="dot" x1="321.600" x2="321.600" y1="216.000" y2="216.000"/>
    <line class="dot" x1="321.600" x2="321.600" y1="235.200" y2="235.200"/>
    <line class="dot" x1="321.600" x2="321.600" y1="254.400" y2="254.400"/>
    <line class="dot" x1="321.600" x2="321.600" y1="273.600" y2="273.600"/>
    <line class="dot" x1="321.600" x2="321.600" y1="292.800" y2="292.800"/>
    <line class="dot" x1="321.600" x2="321.600" y1="312.000" y2="312.000"/>
    <line class="dot" x1="321.600" x2="321.600" y1="331.200" y2="331.200"/>
    <line class="dot" x1="321.600" x2="321.600" y1="350.400" y2="350.400"/>
    <line class="dot" x1="321.600" x2="321.600" y1="369.600" y2="369.600"/>
    <line class="dot" x1="321.600" x2="321.600" y1="388.800" y2="388.800"/>
    <line class="dot" x1="321.600" x2="321.600" y1="408.000" y2="408.000"/>
    <line class="dot" x1="321.600" x2="321.600" y1="427.200" y2="427.200"/>
    <line class="dot" x1="321.600" x2="321.600" y1="446.400" y2="446.400"/>
    <line class="dot" x1="321.600" x2="321.600" y1="465.600" y2="465.600"/>
    <line class="dot" x1="321.600" x2="321.600" y1="484.800" y2="484.800"/>
    <line class="dot" x1="321.600" x2="321.600" y1="504.000" y2="504.000"/>
    <line class="dot" x1="321.600" x2="321.600" y1="523.200" y2="523.200"/>
    <line class="dot" x1="321.600" x2="321.600" y1="542.400" y2="542.400"/>
    <line class="dot" x1="321.600" x2="321.600" y1="561.600" y2="561.600"/>
    <line class="dot" x1="321.600" x2="321.600" y1="580.800" y2="580.800"/>
    <line class="dot" x1="321.600" x2="321.600" y1="600.000" y2="600.000"/>
    <line class="dot" x1="321.600" x2="321.600" y1="619.200" y2="619.200"/>
    <line class="dot" x1="321.600" x2="321.600" y1="638.400" y2="638.400"/>
    <line class="dot" x1="321.600" x2="321.600" y1="657.600" y2="657.600"/>
    <line class="dot" x1="321.600" x2="321.600" y1="676.800" y2="676.800"/>
    <line class="dot" x1="321.600" x2="321.600" y1="696.000" y2="696.000"/>
    <line class="dot" x1="321.600" x2="321.600" y1="715.200" y2="715.200"/>
    <line class="dot" x1="321.600" x2="321.600" y1="734.400" y2="734.400"/>
    <line class="dot" x1="321.600" x2="321.600" y1="753.600" y2="753.600"/>
    <line class="dot" x1="321.600" x2="321.600" y1="772.800" y2="772.800"/>
    <line class="dot" x1="340.800" x2="340.800" y1="81.600" y2="81.600"/>
    <line class="dot" x1="340.800" x2="340.800" y1="100.800" y2="100.800"/>
    <line class="dot" x1="340.800" x2="340.800" y1="120.000" y2="120.000"/>
    <line class="dot" x1="340.800" x2="340.800" y1="139.200" y2="139.200"/>
    <line class="dot" x1="340.800" x2="340.800" y1="158.400" y2="158.400"/>
    <line class="dot" x1="340.800" x2="340.800" y1="177.600" y2="177.600"/>
    <line class="dot" x1="340.800" x2="340.800" y1="196.800" y2="196.800"/>
    <line class="dot" x1="340.800" x2="340.800" y1="216.000" y2="216.000"/>
    <line class="dot" x1="340.800" x2="340.800" y1="235.200" y2="235.200"/>
    <line class="dot" x1="340.800" x2="340.800" y1="254.400" y2="254.400"/>
    <line class="dot" x1="340.800" x2="340.800" y1="273.600" y2="273.600"/>
    <line class="dot" x1="340.800" x2="340.800" y1="292.800" y2="292.800"/>
    <line class="dot" x1="340.800" x2="340.800" y1="312.000" y2="312.000"/>
    <line class="dot" x1="340.800" x2="340.800" y1="331.200" y2="331.200"/>
    <line class="dot" x1="340.800" x2="340.800" y1="350.400" y2="350.400"/>
    <line class="dot" x1="340.800" x2="340.800" y1="369.600" y2="369.600"/>
    <line class="dot" x1="340.800" x2="340.800" y1="388.800" y2="388.800"/>
    <line class="dot" x1="340.800" x2="340.800" y1="408.000" y2="408.000"/>
    <line class="dot" x1="340.800" x2="340.800" y1="427.200" y2="427.200"/>
    <line class="dot" x1="340.800" x2="340.800" y1="446.400" y2="446.400"/>
    <line class="dot" x1="340.800" x2="340.800" y1="465.600" y2="465.600"/>
    <line class="dot" x1="340.800" x2="340.800" y1="484.800" y2="484.800"/>
    <line class="dot" x1="340.800" x2="340.800" y1="504.000" y2="504.000"/>
    <line class="dot" x1="340.800" x2="340.800" y1="523.200" y2="523.200"/>
    <line class="dot" x1="340.800" x2="340.800" y1="542.400" y2="542.400"/>
    <line class="dot" x1="340.800" x2="340.800" y1="561.600" y2="561.600"/>
    <line class="dot" x1="340.800" x2="340.800" y1="580.800" y2="580.800"/>
    <line class="dot" x1="340.800" x2="340.800" y1="600.000" y2="600.000"/>
    <line class="dot" x1="340.800" x2="340.800" y1="619.200" y2="619.200"/>
    <line class="dot" x1="340.800" x2="340.800" y1="638.400" y2="638.400"/>
    <line class="dot" x1="340.800" x2="340.800" y1="657.600" y2="657.600"/>
    <line class="dot" x1="340.800" x2="340.800" y1="676.800" y2="676.800"/>
    <line class="dot" x1="340.800" x2="340.800" y1="696.000" y2="696.000"/>
    <line class="dot" x1="340.800" x2="340.800" y1="715.200" y2="715.200"/>
    <line class="dot" x1="340.800" x2="340.800" y1="734.400" y2="734.400"/>
    <line class="dot" x1="340.800" x2="340.800" y1="753.600" y2="753.600"/>
    <line class="dot" x1="340.800" x2="340.800" y1="772.800" y2="772.800"/>
    <line class="dot" x1="360.000" x2="360.000" y1="81.600" y2="81.600"/>
    <line class="dot" x1="360.000" x2="360.000" y1="100.800" y2="100.800"/>
    <line class="dot" x1="360.000" x2="360.000" y1="120.000" y2="120.000"/>
    <line class="dot" x1="360.000" x2="360.000" y1="139.200" y2="139.200"/>
    <line class="dot" x1="360.000" x2="360.000" y1="158.400" y2="158.400"/>
    <line class="dot" x1="360.000" x2="360.000" y1="177.600" y2="177.600"/>
    <line class="dot" x1="360.000" x2="360.000" y1="196.800" y2="196.800"/>
    <line class="dot" x1="360.000" x2="360.000" y1="216.000" y2="216.000"/>
    <line class="dot" x1="360.000" x2="360.000" y1="235.200" y2="235.200"/>
    <line class="dot" x1="360.000" x2="360.000" y1="254.400" y2="254.400"/>
    <line class="dot" x1="360.000" x2="360.000" y1="273.600" y2="273.600"/>
    <line class="dot" x1="360.000" x2="360.000" y1="292.800" y2="292.800"/>
    <line class="dot" x1="360.000" x2="360.000" y1="312.000" y2="312.000"/>
    <line class="dot" x1="360.000" x2="360.000" y1="331.200" y2="331.200"/>
    <line class="dot" x1="360.000" x2="360.000" y1="350.400" y2="350.400"/>
    <line class="dot" x1="360.000" x2="360.000" y1="369.600" y2="369.600"/>
    <line class="dot" x1="360.000" x2="360.000" y1="388.800" y2="388.800"/>
    <line class="dot" x1="360.000" x2="360.000" y1="408.000" y2="408.000"/>
    <line class="dot" x1="360.000" x2="360.000" y1="427.200" y2="427.200"/>
    <line class="dot" x1="360.000" x2="360.000" y1="446.400" y2="446.400"/>
    <line class="dot" x1="360.000" x2="360.000" y1="465.600" y2="465.600"/>
    <line class="dot" x1="360.000" x2="360.000" y1="484.800" y2="484.800"/>
    <line class="dot" x1="360.000" x2="360.000" y1="504.000" y2="504.000"/>
    <line class="dot" x1="360.000" x2="360.000" y1="523.200" y2="523.200"/>
    <line class="dot" x1="360.000" x2="360.000" y1="542.400" y2="542.400"/>
    <line class="dot" x1="360.000" x2="360.000" y1="561.600" y2="561.600"/>
    <line class="dot" x1="360.000" x2="360.000" y1="580.800" y2="580.800"/>
    <line class="dot" x1="360.000" x2="360.000" y1="600.000" y2="600.000"/>
    <line class="dot" x1="360.000" x2="360.000" y1="619.200" y2="619.200"/>
    <line class="dot" x1="360.000" x2="360.000" y1="638.400" y2="638.400"/>
    <line class="dot" x1="360.000" x2="360.000" y1="657.600" y2="657.600"/>
    <line class="dot" x1="360.000" x2="360.000" y1="676.800" y2="676.800"/>
    <line class="dot" x1="360.000" x2="360.000" y1="696.000" y2="696.000"/>
    <line class="dot" x1="360.000" x2="360.000" y1="715.200" y2="715.200"/>
    <line class="dot" x1="360.000" x2="360.000" y1="734.400" y2="734.400"/>
    <line class="dot" x1="360.000" x2="360.000" y1="753.600" y2="753.600"/>
    <line class="dot" x1="360.000" x2="360.000" y1="772.800" y2="772.800"/>
    <line class="dot" x1="379.200" x2="379.200" y1="81.600" y2="81.600"/>
    <line class="dot" x1="379.200" x2="379.200" y1="100.800" y2="100.800"/>
    <line class="dot" x1="379.200" x2="379.200" y1="120.000" y2="120.000"/>
    <line class="dot" x1="379.200" x2="379.200" y1="139.200" y2="139.200"/>
    <line class="dot" x1="379.200" x2="379.200" y1="158.400" y2="158.400"/>
    <line class="dot" x1="379.200" x2="379.200" y1="177.600" y2="177.600"/>
    <line class="dot" x1="379.200" x2="379.200" y1="196.800" y2="196.800"/>
    <line class="dot" x1="379.200" x2="379.200" y1="216.000" y2="216.000"/>
    <line class="dot" x1="379.200" x2="379.200" y1="235.200" y2="235.200"/>
    <line class="dot" x1="379.200" x2="379.200" y1="254.400" y2="254.400"/>
    <line class="dot" x1="379.200" x2="379.200" y1="273.600" y2="273.600"/>
    <line class="dot" x1="379.200" x2="379.200" y1="292.800" y2="292.800"/>
    <line class="dot" x1="379.200" x2="379.200" y1="312.000" y2="312.000"/>
    <line class="dot" x1="379.200" x2="379.200" y1="331.200" y2="331.200"/>
    <line class="dot" x1="379.200" x2="379.200" y1="350.400" y2="350.400"/>
    <line class="dot" x1="379.200" x2="379.200" y1="369.600" y2="369.600"/>
    <line class="dot" x1="379.200" x2="379.200" y1="388.800" y2="388.800"/>
    <line class="dot" x1="379.200" x2="379.200" y1="408.000" y2="408.000"/>
    <line class="dot" x1="379.200" x2="379.200" y1="427.200" y2="427.200"/>
    <line class="dot" x1="379.200" x2="379.200" y1="446.400" y2="446.400"/>
    <line class="dot" x1="379.200" x2="379.200" y1="465.600" y2="465.600"/>
    <line class="dot" x1="379.200" x2="379.200" y1="484.800" y2="484.800"/>
    <line class="dot" x1="379.200" x2="379.200" y1="504.000" y2="504.000"/>
    <line class="dot" x1="379.200" x2="379.200" y1="523.200" y2="523.200"/>
    <line class="dot" x1="379.200" x2="379.200" y1="542.400" y2="542.400"/>
    <line class="dot" x1="379.200" x2="379.200" y1="561.600" y2="561.600"/>
    <line class="dot" x1="379.200" x2="379.200" y1="580.800" y2="580.800"/>
    <line class="dot" x1="379.200" x2="379.200" y1="600.000" y2="600.000"/>
    <line class="dot" x1="379.200" x2="379.200" y1="619.200" y2="619.200"/>
    <line class="dot" x1="379.200" x2="379.200" y1="638.400" y2="638.400"/>
    <line class="dot" x1="379.200" x2="379.200" y1="657.600" y2="657.600"/>
    <line class="dot" x1="379.200" x2="379.200" y1="676.800" y2="676.800"/>
    <line class="dot" x1="379.200" x2="379.200" y1="696.000" y2="696.000"/>
    <line class="dot" x1="379.200" x2="379.200" y1="715.200" y2="715.200"/>
    <line class="dot" x1="379.200" x2="379.200" y1="734.400" y2="734.400"/>
    <line class="dot" x1="379.200" x2="379.200" y1="753.600" y2="753.600"/>
    <line class="dot" x1="379.200" x2="379.200" y1="772.800" y2="772.800"/>
    <line class="dot" x1="398.400" x2="398.400" y1="81.600" y2="81.600"/>
    <line class="dot" x1="398.400" x2="398.400" y1="100.800" y2="100.800"/>
    <line class="dot" x1="398.400" x2="398.400" y1="120.000" y2="120.000"/>
    <line class="dot" x1="398.400" x2="398.400" y1="139.200" y2="139.200"/>
    <line class="dot" x1="398.400" x2="398.400" y1="158.400" y2="158.400"/>
    <line class="dot" x1="398.400" x2="398.400" y1="177.600" y2="177.600"/>
    <line class="dot" x1="398.400" x2="398.400" y1="196.800" y2="196.800"/>
    <line class="dot" x1="398.400" x2="398.400" y1="216.000" y2="216.000"/>
    <line class="dot" x1="398.400" x2="398.400" y1="235.200" y2="235.200"/>
    <line class="dot" x1="398.400" x2="398.400" y1="254.400" y2="254.400"/>
    <line class="dot" x1="398.400" x2="398.400" y1="273.600" y2="273.600"/>
    <line class="dot" x1="398.400" x2="398.400" y1="292.800" y2="292.800"/>
    <line class="dot" x1="398.400" x2="398.400" y1="312.000" y2="312.000"/>
    <line class="dot" x1="398.400" x2="398.400" y1="331.200" y2="331.200"/>
    <line class="dot" x1="398.400" x2="398.400" y1="350.400" y2="350.400"/>
    <line class="dot" x1="398.400" x2="398.400" y1="369.600" y2="369.600"/>
    <line class="dot" x1="398.400" x2="398.400" y1="388.800" y2="388.800"/>
    <line class="dot" x1="398.400" x2="398.400" y1="408.000" y2="408.000"/>
    <line class="dot" x1="398.400" x2="398.400" y1="427.200" y2="427.200"/>
    <line class="dot" x1="398.400" x2="398.400" y1="446.400" y2="446.400"/>
    <line class="dot" x1="398.400" x2="398.400" y1="465.600" y2="465.600"/>
    <line class="dot" x1="398.400" x2="398.400" y1="484.800" y2="484.800"/>
    <line class="dot" x1="398.400" x2="398.400" y1="504.000" y2="504.000"/>
    <line class="dot" x1="398.400" x2="398.400" y1="523.200" y2="523.200"/>
    <line class="dot" x1="398.400" x2="398.400" y1="542.400" y2="542.400"/>
    <line class="dot" x1="398.400" x2="398.400" y1="561.600" y2="561.600"/>
    <line class="dot" x1="398.400" x2="398.400" y1="580.800" y2="580.800"/>
    <line class="dot" x1="398.400" x2="398.400" y1="600.000" y2="600.000"/>
    <line class="dot" x1="398.400" x2="398.400" y1="619.200" y2="619.200"/>
    <line class="dot" x1="398.400" x2="398.400" y1="638.400" y2="638.400"/>
    <line class="dot" x1="398.400" x2="398.400" y1="657.600" y2="657.600"/>
    <line class="dot" x1="398.400" x2="398.400" y1="676.800" y2="676.800"/>
    <line class="dot" x1="398.400" x2="398.400" y1="696.000" y2="696.000"/>
    <line class="dot" x1="398.400" x2="398.400" y1="715.200" y2="715.200"/>
    <line class="dot" x1="398.400" x2="398.400" y1="734.400" y2="734.400"/>
    <line class="dot" x1="398.400" x2="398.400" y1="753.600" y2="753.600"/>
    <line class="dot" x1="398.400" x2="398.400" y1="772.800" y2="772.800"/>
    <line class="dot" x1="417.600" x2="417.600" y1="81.600" y2="81.600"/>
    <line class="dot" x1="417.600" x2="417.600" y1="100.800" y2="100.800"/>
    <line class="dot" x1="417.600" x2="417.600" y1="120.000" y2="120.000"/>
    <line class="dot" x1="417.600" x2="417.600" y1="139.200" y2="139.200"/>
    <line class="dot" x1="417.600" x2="417.600" y1="158.400" y2="158.400"/>
    <line class="dot" x1="417.600" x2="417.600" y1="177.600" y2="177.600"/>
    <line class="dot" x1="417.600" x2="417.600" y1="196.800" y2="196.800"/>
    <line class="dot" x1="417.600" x2="417.600" y1="216.000" y2="216.000"/>
    <line class="dot" x1="417.600" x2="417.600" y1="235.200" y2="235.200"/>
    <line class="dot" x1="417.600" x2="417.600" y1="254.400" y2="254.400"/>
    <line class="dot" x1="417.600" x2="417.600" y1="273.600" y2="273.600"/>
    <line class="dot" x1="417.600" x2="417.600" y1="292.800" y2="292.800"/>
    <line class="dot" x1="417.600" x2="417.600" y1="312.000" y2="312.000"/>
    <line class="dot" x1="417.600" x2="417.600" y1="331.200" y2="331.200"/>
    <line class="dot" x1="417.600" x2="417.600" y1="350.400" y2="350.400"/>
    <line class="dot" x1="417.600" x2="417.600" y1="369.600" y2="369.600"/>
    <line class="dot" x1="417.600" x2="417.600" y1="388.800" y2="388.800"/>
    <line class="dot" x1="417.600" x2="417.600" y1="408.000" y2="408.000"/>
    <line class="dot" x1="417.600" x2="417.600" y1="427.200" y2="427.200"/>
    <line class="dot" x1="417.600" x2="417.600" y1="446.400" y2="446.400"/>
    <line class="dot" x1="417.600" x2="417.600" y1="465.600" y2="465.600"/>
    <line class="dot" x1="417.600" x2="417.600" y1="484.800" y2="484.800"/>
    <line class="dot" x1="417.600" x2="417.600" y1="504.000" y2="504.000"/>
    <line class="dot" x1="417.600" x2="417.600" y1="523.200" y2="523.200"/>
    <line class="dot" x1="417.600" x2="417.600" y1="542.400" y2="542.400"/>
    <line class="dot" x1="417.600" x2="417.600" y1="561.600" y2="561.600"/>
    <line class="dot" x1="417.600" x2="417.600" y1="580.800" y2="580.800"/>
    <line class="dot" x1="417.600" x2="417.600" y1="600.000" y2="600.000"/>
    <line class="dot" x1="417.600" x2="417.600" y1="619.200" y2="619.200"/>
    <line class="dot" x1="417.600" x2="417.600" y1="638.400" y2="638.400"/>
    <line class="dot" x1="417.600" x2="417.600" y1="657.600" y2="657.600"/>
    <line class="dot" x1="417.600" x2="417.600" y1="676.800" y2="676.800"/>
    <line class="dot" x1="417.600" x2="417.600" y1="696.000" y2="696.000"/>
    <line class="dot" x1="417.600" x2="417.600" y1="715.200" y2="715.200"/>
    <line class="dot" x1="417.600" x2="417.600" y1="734.400" y2="734.400"/>
    <line class="dot" x1="417.600" x2="417.600" y1="753.600" y2="753.600"/>
    <line class="dot" x1="417.600" x2="417.600" y1="772.800" y2="772.800"/>
    <line class="dot" x1="436.800" x2="436.800" y1="81.600" y2="81.600"/>
    <line class="dot" x1="436.800" x2="436.800" y1="100.800" y2="100.800"/>
    <line class="dot" x1="436.800" x2="436.800" y1="120.000" y2="120.000"/>
    <line class="dot" x1="436.800" x2="436.800" y1="139.200" y2="139.200"/>
    <line class="dot" x1="436.800" x2="436.800" y1="158.400" y2="158.400"/>
    <line class="dot" x1="436.800" x2="436.800" y1="177.600" y2="177.600"/>
    <line class="dot" x1="436.800" x2="436.800" y1="196.800" y2="196.800"/>
    <line class="dot" x1="436.800" x2="436.800" y1="216.000" y2="216.000"/>
    <line class="dot" x1="436.800" x2="436.800" y1="235.200" y2="235.200"/>
    <line class="dot" x1="436.800" x2="436.800" y1="254.400" y2="254.400"/>
    <line class="dot" x1="436.800" x2="436.800" y1="273.600" y2="273.600"/>
    <line class="dot" x1="436.800" x2="436.800" y1="292.800" y2="292.800"/>
    <line class="dot" x1="436.800" x2="436.800" y1="312.000" y2="312.000"/>
    <line class="dot" x1="436.800" x2="436.800" y1="331.200" y2="331.200"/>
    <line class="dot" x1="436.800" x2="436.800" y1="350.400" y2="350.400"/>
    <line class="dot" x1="436.800" x2="436.800" y1="369.600" y2="369.600"/>
    <line class="dot" x1="436.800" x2="436.800" y1="388.800" y2="388.800"/>
    <line class="dot" x1="436.800" x2="436.800" y1="408.000" y2="408.000"/>
    <line class="dot" x1="436.800" x2="436.800" y1="427.200" y2="427.200"/>
    <line class="dot" x1="436.800" x2="436.800" y1="446.400" y2="446.400"/>
    <line class="dot" x1="436.800" x2="436.800" y1="465.600" y2="465.600"/>
    <line class="dot" x1="436.800" x2="436.800" y1="484.800" y2="484.800"/>
    <line class="dot" x1="436.800" x2="436.800" y1="504.000" y2="504.000"/>
    <line class="dot" x1="436.800" x2="436.800" y1="523.200" y2="523.200"/>
    <line class="dot" x1="436.800" x2="436.800" y1="542.400" y2="542.400"/>
    <line class="dot" x1="436.800" x2="436.800" y1="561.600" y2="561.600"/>
    <line class="dot" x1="436.800" x2="436.800" y1="580.800" y2="580.800"/>
    <line class="dot" x1="436.800" x2="436.800" y1="600.000" y2="600.000"/>
    <line class="dot" x1="436.800" x2="436.800" y1="619.200" y2="619.200"/>
    <line class="dot" x1="436.800" x2="436.800" y1="638.400" y2="638.400"/>
    <line class="dot" x1="436.800" x2="436.800" y1="657.600" y2="657.600"/>
    <line class="dot" x1="436.800" x2="436.800" y1="676.800" y2="676.800"/>
    <line class="dot" x1="436.800" x2="436.800" y1="696.000" y2="696.000"/>
    <line class="dot" x1="436.800" x2="436.800" y1="715.200" y2="715.200"/>
    <line class="dot" x1="436.800" x2="436.800" y1="734.400" y2="734.400"/>
    <line class="dot" x1="436.800" x2="436.800" y1="753.600" y2="753.600"/>
    <line class="dot" x1="436.800" x2="436.800" y1="772.800" y2="772.800"/>
    <line class="dot" x1="456.000" x2="456.000" y1="81.600" y2="81.600"/>
    <line class="dot" x1="456.000" x2="456.000" y1="100.800" y2="100.800"/>
    <line class="dot" x1="456.000" x2="456.000" y1="120.000" y2="120.000"/>
    <line class="dot" x1="456.000" x2="456.000" y1="139.200" y2="139.200"/>
    <line class="dot" x1="456.000" x2="456.000" y1="158.400" y2="158.400"/>
    <line class="dot" x1="456.000" x2="456.000" y1="177.600" y2="177.600"/>
    <line class="dot" x1="456.000" x2="456.000" y1="196.800" y2="196.800"/>
    <line class="dot" x1="456.000" x2="456.000" y1="216.000" y2="216.000"/>
    <line class="dot" x1="456.000" x2="456.000" y1="235.200" y2="235.200"/>
    <line class="dot" x1="456.000" x2="456.000" y1="254.400" y2="254.400"/>
    <line class="dot" x1="456.000" x2="456.000" y1="273.600" y2="273.600"/>
    <line class="dot" x1="456.000" x2="456.000" y1="292.800" y2="292.800"/>
    <line class="dot" x1="456.000" x2="456.000" y1="312.000" y2="312.000"/>
    <line class="dot" x1="456.000" x2="456.000" y1="331.200" y2="331.200"/>
    <line class="dot" x1="456.000" x2="456.000" y1="350.400" y2="350.400"/>
    <line class="dot" x1="456.000" x2="456.000" y1="369.600" y2="369.600"/>
    <line class="dot" x1="456.000" x2="456.000" y1="388.800" y2="388.800"/>
    <line class="dot" x1="456.000" x2="456.000" y1="408.000" y2="408.000"/>
    <line class="dot" x1="456.000" x2="456.000" y1="427.200" y2="427.200"/>
    <line class="dot" x1="456.000" x2="456.000" y1="446.400" y2="446.400"/>
    <line class="dot" x1="456.000" x2="456.000" y1="465.600" y2="465.600"/>
    <line class="dot" x1="456.000" x2="456.000" y1="484.800" y2="484.800"/>
    <line class="dot" x1="456.000" x2="456.000" y1="504.000" y2="504.000"/>
    <line class="dot" x1="456.000" x2="456.000" y1="523.200" y2="523.200"/>
    <line class="dot" x1="456.000" x2="456.000" y1="542.400" y2="542.400"/>
    <line class="dot" x1="456.000" x2="456.000" y1="561.600" y2="561.600"/>
    <line class="dot" x1="456.000" x2="456.000" y1="580.800" y2="580.800"/>
    <line class="dot" x1="456.000" x2="456.000" y1="600.000" y2="600.000"/>
    <line class="dot" x1="456.000" x2="456.000" y1="619.200" y2="619.200"/>
    <line class="dot" x1="456.000" x2="456.000" y1="638.400" y2="638.400"/>
    <line class="dot" x1="456.000" x2="456.000" y1="657.600" y2="657.600"/>
    <line class="dot" x1="456.000" x2="456.000" y1="676.800" y2="676.800"/>
    <line class="dot" x1="456.000" x2="456.000" y1="696.000" y2="696.000"/>
    <line class="dot" x1="456.000" x2="456.000" y1="715.200" y2="715.200"/>
    <line class="dot" x1="456.000" x2="456.000" y1="734.400" y2="734.400"/>
    <line class="dot" x1="456.000" x2="456.000" y1="753.600" y2="753.600"/>
    <line class="dot" x1="456.000" x2="456.000" y1="772.800" y2="772.800"/>
    <line class="dot" x1="475.200" x2="475.200" y1="81.600" y2="81.600"/>
    <line class="dot" x1="475.200" x2="475.200" y1="100.800" y2="100.800"/>
    <line class="dot" x1="475.200" x2="475.200" y1="120.000" y2="120.000"/>
    <line class="dot" x1="475.200" x2="475.200" y1="139.200" y2="139.200"/>
    <line class="dot" x1="475.200" x2="475.200" y1="158.400" y2="158.400"/>
    <line class="dot" x1="475.200" x2="475.200" y1="177.600" y2="177.600"/>
    <line class="dot" x1="475.200" x2="475.200" y1="196.800" y2="196.800"/>
    <line class="dot" x1="475.200" x2="475.200" y1="216.000" y2="216.000"/>
    <line class="dot" x1="475.200" x2="475.200" y1="235.200" y2="235.200"/>
    <line class="dot" x1="475.200" x2="475.200" y1="254.400" y2="254.400"/>
    <line class="dot" x1="475.200" x2="475.200" y1="273.600" y2="273.600"/>
    <line class="dot" x1="475.200" x2="475.200" y1="292.800" y2="292.800"/>
    <line class="dot" x1="475.200" x2="475.200" y1="312.000" y2="312.000"/>
    <line class="dot" x1="475.200" x2="475.200" y1="331.200" y2="331.200"/>
    <line class="dot" x1="475.200" x2="475.200" y1="350.400" y2="350.400"/>
    <line class="dot" x1="475.200" x2="475.200" y1="369.600" y2="369.600"/>
    <line class="dot" x1="475.200" x2="475.200" y1="388.800" y2="388.800"/>
    <line class="dot" x1="475.200" x2="475.200" y1="408.000" y2="408.000"/>
    <line class="dot" x1="475.200" x2="475.200" y1="427.200" y2="427.200"/>
    <line class="dot" x1="475.200" x2="475.200" y1="446.400" y2="446.400"/>
    <line class="dot" x1="475.200" x2="475.200" y1="465.600" y2="465.600"/>
    <line class="dot" x1="475.200" x2="475.200" y1="484.800" y2="484.800"/>
    <line class="dot" x1="475.200" x2="475.200" y1="504.000" y2="504.000"/>
    <line class="dot" x1="475.200" x2="475.200" y1="523.200" y2="523.200"/>
    <line class="dot" x1="475.200" x2="475.200" y1="542.400" y2="542.400"/>
    <line class="dot" x1="475.200" x2="475.200" y1="561.600" y2="561.600"/>
    <line class="dot" x1="475.200" x2="475.200" y1="580.800" y2="580.800"/>
    <line class="dot" x1="475.200" x2="475.200" y1="600.000" y2="600.000"/>
    <line class="dot" x1="475.200" x2="475.200" y1="619.200" y2="619.200"/>
    <line class="dot" x1="475.200" x2="475.200" y1="638.400" y2="638.400"/>
    <line class="dot" x1="475.200" x2="475.200" y1="657.600" y2="657.600"/>
    <line class="dot" x1="475.200" x2="475.200" y1="676.800" y2="676.800"/>
    <line class="dot" x1="475.200" x2="475.200" y1="696.000" y2="696.000"/>
    <line class="dot" x1="475.200" x2="475.200" y1="715.200" y2="715.200"/>
    <line class="dot" x1="475.200" x2="475.200" y1="734.400" y2="734.400"/>
    <line class="dot" x1="475.200" x2="475.200" y1="753.600" y2="753.600"/>
    <line class="dot" x1="475.200" x2="475.200" y1="772.800" y2="772.800"/>
    <line class="dot" x1="494.400" x2="494.400" y1="81.600" y2="81.600"/>
    <line class="dot" x1="494.400" x2="494.400" y1="100.800" y2="100.800"/>
    <line class="dot" x1="494.400" x2="494.400" y1="120.000" y2="120.000"/>
    <line class="dot" x1="494.400" x2="494.400" y1="139.200" y2="139.200"/>
    <line class="dot" x1="494.400" x2="494.400" y1="158.400" y2="158.400"/>
    <line class="dot" x1="494.400" x2="494.400" y1="177.600" y2="177.600"/>
    <line class="dot" x1="494.400" x2="494.400" y1="196.800" y2="196.800"/>
    <line class="dot" x1="494.400" x2="494.400" y1="216.000" y2="216.000"/>
    <line class="dot" x1="494.400" x2="494.400" y1="235.200" y2="235.200"/>
    <line class="dot" x1="494.400" x2="494.400" y1="254.400" y2="254.400"/>
    <line class="dot" x1="494.400" x2="494.400" y1="273.600" y2="273.600"/>
    <line class="dot" x1="494.400" x2="494.400" y1="292.800" y2="292.800"/>
    <line class="dot" x1="494.400" x2="494.400" y1="312.000" y2="312.000"/>
    <line class="dot" x1="494.400" x2="494.400" y1="331.200" y2="331.200"/>
    <line class="dot" x1="494.400" x2="494.400" y1="350.400" y2="350.400"/>
    <line class="dot" x1="494.400" x2="494.400" y1="369.600" y2="369.600"/>
    <line class="dot" x1="494.400" x2="494.400" y1="388.800" y2="388.800"/>
    <line class="dot" x1="494.400" x2="494.400" y1="408.000" y2="408.000"/>
    <line class="dot" x1="494.400" x2="494.400" y1="427.200" y2="427.200"/>
    <line class="dot" x1="494.400" x2="494.400" y1="446.400" y2="446.400"/>
    <line class="dot" x1="494.400" x2="494.400" y1="465.600" y2="465.600"/>
    <line class="dot" x1="494.400" x2="494.400" y1="484.800" y2="484.800"/>
    <line class="dot" x1="494.400" x2="494.400" y1="504.000" y2="504.000"/>
    <line class="dot" x1="494.400" x2="494.400" y1="523.200" y2="523.200"/>
    <line class="dot" x1="494.400" x2="494.400" y1="542.400" y2="542.400"/>
    <line class="dot" x1="494.400" x2="494.400" y1="561.600" y2="561.600"/>
    <line class="dot" x1="494.400" x2="494.400" y1="580.800" y2="580.800"/>
    <line class="dot" x1="494.400" x2="494.400" y1="600.000" y2="600.000"/>
    <line class="dot" x1="494.400" x2="494.400" y1="619.200" y2="619.200"/>
    <line class="dot" x1="494.400" x2="494.400" y1="638.400" y2="638.400"/>
    <line class="dot" x1="494.400" x2="494.400" y1="657.600" y2="657.600"/>
    <line class="dot" x1="494.400" x2="494.400" y1="676.800" y2="676.800"/>
    <line class="dot" x1="494.400" x2="494.400" y1="696.000" y2="696.000"/>
    <line class="dot" x1="494.400" x2="494.400" y1="715.200" y2="715.200"/>
    <line class="dot" x1="494.400" x2="494.400" y1="734.400" y2="734.400"/>
    <line class="dot" x1="494.400" x2="494.400" y1="753.600" y2="753.600"/>
    <line class="dot" x1="494.400" x2="494.400" y1="772.800" y2="772.800"/>
    <text class="legend" x="33.600" y="62.400">0</text>
    <text class="legend" x="33.600" y="792.000">0</text>
    <text class="legend" x="52.800" y="62.400">1</text>
    <text class="legend" x="52.800" y="792.000">1</text>
    <text class="legend" x="72.000" y="62.400">2</text>
    <text class="legend" x="72.000" y="792.000">2</text>
    <text class="legend" x="91.200" y="62.400">3</text>
    <text class="legend" x="91.200" y="792.000">3</text>
    <text class="legend" x="110.400" y="62.400">4</text>
    <text class="legend" x="110.400" y="792.000">4</text>
    <text class="legend" x="129.600" y="62.400">5</text>
    <text class="legend" x="129.600" y="792.000">5</text>
    <text class="legend" x="148.800" y="62.400">6</text>
    <text class="legend" x="148.800" y="792.000">6</text>
    <text class="legend" x="168.000" y="62.400">7</text>
    <text class="legend" x="168.000" y="792.000">7</text>
    <text class="legend" x="187.200" y="62.400">8</text>
    <text class="legend" x="187.200" y="792.000">8</text>
    <text class="legend" x="206.400" y="62.400">9</text>
    <text class="legend" x="206.400" y="792.000">9</text>
    <text class="legend" x="225.600" y="62.400">10</text>
    <text class="legend" x="225.600" y="792.000">10</text>
    <text class="legend" x="244.800" y="62.400">11</text>
    <text class="legend" x="244.800" y="792.000">11</text>
    <text class="legend" x="264.000" y="62.400">12</text>
    <text class="legend" x="264.000" y="792.000">12</text>
    <text class="legend" x="283.200" y="62.400">13</text>
    <text class="legend" x="283.200" y="792.000">13</text>
    <text class="legend" x="302.400" y="62.400">14</text>
    <text class="legend" x="302.400" y="792.000">14</text>
    <text class="legend" x="321.600" y="62.400">15</text>
    <text class="legend" x="321.600" y="792.000">15</text>
    <text class="legend" x="340.800" y="62.400">16</text>
    <text class="legend" x="340.800" y="792.000">16</text>
    <text class="legend" x="360.000" y="62.400">17</text>
    <text class="legend" x="360.000" y="792.000">17</text>
    <text class="legend" x="379.200" y="62.400">18</text>
    <text class="legend" x="379.200" y="792.000">18</text>
    <text class="legend" x="398.400" y="62.400">19</text>
    <text class="legend" x="398.400" y="792.000">19</text>
    <text class="legend" x="417.600" y="62.400">20</text>
    <text class="legend" x="417.600" y="792.000">20</text>
    <text class="legend" x="436.800" y="62.400">21</text>
    <text class="legend" x="436.800" y="792.000">21</text>
    <text class="legend" x="456.000" y="62.400">22</text>
    <text class="legend" x="456.000" y="792.000">22</text>
    <text class="legend" x="475.200" y="62.400">23</text>
    <text class="legend" x="475.200" y="792.000">23</text>
    <text class="legend" x="494.400" y="62.400">24</text>
    <text class="legend" x="494.400" y="792.000">24</text>
    <text class="legend" x="14.400" y="81.600">0</text>
    <text class="legend" x="513.600" y="81.600">0</text>
    <text class="legend" x="14.400" y="100.800">1</text>
    <text class="legend" x="513.600" y="100.800">1</text>
    <text class="legend" x="14.400" y="120.000">2</text>
    <text class="legend" x="513.600" y="120.000">2</text>
    <text class="legend" x="14.400" y="139.200">3</text>
    <text class="legend" x="513.600" y="139.200">3</text>
    <text class="legend" x="14.400" y="158.400">4</text>
    <text class="legend" x="513.600" y="158.400">4</text>
    <text class="legend" x="14.400" y="177.600">5</text>
    <text class="legend" x="513.600" y="177.600">5</text>
    <text class="legend" x="14.400" y="196.800">6</text>
    <text class="legend" x="513.600" y="196.800">6</text>
    <text class="legend" x="14.400" y="216.000">7</text>
    <text class="legend" x="513.600" y="216.000">7</text>
    <text class="legend" x="14.400" y="235.200">8</text>
    <text class="legend" x="513.600" y="235.200">8</text>
    <text class="legend" x="14.400" y="254.400">9</text>
    <text class="legend" x="513.600" y="254.400">9</text>
    <text class="legend" x="14.400" y="273.600">10</text>
    <text class="legend" x="513.600" y="273.600">10</text>
    <text class="legend" x="14.400" y="292.800">11</text>
    <text class="legend" x="513.600" y="292.800">11</text>
    <text class="legend" x="14.400" y="312.000">12</text>
    <text class="legend" x="513.600" y="312.000">12</text>
    <text class="legend" x="14.400" y="331.200">13</text>
    <text class="legend" x="513.600" y="331.200">13</text>
    <text class="legend" x="14.400" y="350.400">14</text>
    <text class="legend" x="513.600" y="350.400">14</text>
    <text class="legend" x="14.400" y="369.600">15</text>
    <text class="legend" x="513.600" y="369.600">15</text>
    <text class="legend" x="14.400" y="388.800">16</text>
    <text class="legend" x="513.600" y="388.800">16</text>
    <text class="legend" x="14.400" y="408.000">17</text>
    <text class="legend" x="513.600" y="408.000">17</text>
    <text class="legend" x="14.400" y="427.200">18</text>
    <text class="legend" x="513.600" y="427.200">18</text>
    <text class="legend" x="14.400" y="446.400">19</text>
    <text class="legend" x="513.600" y="446.400">19</text>
    <text class="legend" x="14.400" y="465.600">20</text>
    <text class="legend" x="513.600" y="465.600">20</text>
    <text class="legend" x="14.400" y="484.800">21</text>
    <text class="legend" x="513.600" y="484.800">21</text>
    <text class="legend" x="14.400" y="504.000">22</text>
    <text class="legend" x="513.600" y="504.000">22</text>
    <text class="legend" x="14.400" y="523.200">23</text>
    <text class="legend" x="513.600" y="523.200">23</text>
    <text class="legend" x="14.400" y="542.400">24</text>
    <text class="legend" x="513.600" y="542.400">24</text>
    <text class="legend" x="14.400" y="561.600">25</text>
    <text class="legend" x="513.600" y="561.600">25</text>
    <text class="legend" x="14.400" y="580.800">26</text>
    <text class="legend" x="513.600" y="580.800">26</text>
    <text class="legend" x="14.400" y="600.000">27</text>
    <text class="legend" x="513.600" y="600.000">27</text>
    <text class="legend" x="14.400" y="619.200">28</text>
    <text class="legend" x="513.600" y="619.200">28</text>
    <text class="legend" x="14.400" y="638.400">29</text>
    <text class="legend" x="513.600" y="638.400">29</text>
    <text class="legend" x="14.400" y="657.600">30</text>
    <text class="legend" x="513.600" y="657.600">30</text>
    <text class="legend" x="14.400" y="676.800">31</text>
    <text class="legend" x="513.600" y="676.800">31</text>
    <text class="legend" x="14.400" y="696.000">32</text>
    <text class="legend" x="513.600" y="696.000">32</text>
    <text class="legend" x="14.400" y="715.200">33</text>
    <text class="legend" x="513.600" y="715.200">33</text>
    <text class="legend" x="14.400" y="734.400">34</text>
    <text class="legend" x="513.600" y="734.400">34</text>
    <text class="legend" x="14.400" y="753.600">35</text>
    <text class="legend" x="513.600" y="753.600">35</text>
    <text class="legend" x="14.400" y="772.800">36</text>
    <text class="legend" x="513.600" y="772.800">36</text>
    <line class="dot" x1="33.600" x2="33.600" y1="76.800" y2="76.800"/>
    <line class="dot" x1="33.600" x2="33.600" y1="777.600" y2="777.600"/>
    <line class="dot" x1="91.200" x2="91.200" y1="76.800" y2="76.800"/>
    <line class="dot" x1="91.200" x2="91.200" y1="777.600" y2="777.600"/>
    <line class="dot" x1="148.800" x2="148.800" y1="76.800" y2="76.800"/>
    <line class="dot" x1="148.800" x2="148.800" y1="777.600" y2="777.600"/>
    <line class="dot" x1="206.400" x2="206.400" y1="76.800" y2="76.800"/>
    <line class="dot" x1="206.400" x2="206.400" y1="777.600" y2="777.600"/>
    <line class="dot dot--bold" x1="264.000" x2="264.000" y1="76.800" y2="76.800"/>
    <line class="dot dot--bold" x1="264.000" x2="264.000" y1="777.600" y2="777.600"/>
    <line class="dot" x1="321.600" x2="321.600" y1="76.800" y2="76.800"/>
    <line class="dot" x1="321.600" x2="321.600" y1="777.600" y2="777.600"/>
    <line class="dot" x1="379.200" x2="379.200" y1="76.800" y2="76.800"/>
    <line class="dot" x1="379.200" x2="379.200" y1="777.600" y2="777.600"/>
    <line class="dot" x1="436.800" x2="436.800" y1="76.800" y2="76.800"/>
    <line class="dot" x1="436.800" x2="436.800" y1="777.600" y2="777.600"/>
    <line class="dot" x1="494.400" x2="494.400" y1="76.800" y2="76.800"/>
    <line class="dot" x1="494.400" x2="494.400" y1="777.600" y2="777.600"/>
    <line class="dot" x1="28.800" x2="28.800" y1="81.600" y2="81.600"/>
    <line class="dot" x1="499.200" x2="499.200" y1="81.600" y2="81.600"/>
    <line class="dot" x1="28.800" x2="28.800" y1="139.200" y2="139.200"/>
    <line class="dot" x1="499.200" x2="499.200" y1="139.200" y2="139.200"/>
    <line class="dot" x1="28.800" x2="28.800" y1="196.800" y2="196.800"/>
    <line class="dot" x1="499.200" x2="499.200" y1="196.800" y2="196.800"/>
    <line class="dot" x1="28.800" x2="28.800" y1="254.400" y2="254.400"/>
    <line class="dot" x1="499.200" x2="499.200" y1="254.400" y2="254.400"/>
    <line class="dot" x1="28.800" x2="28.800" y1="312.000" y2="312.000"/>
    <line class="dot" x1="499.200" x2="499.200" y1="312.000" y2="312.000"/>
    <line class="dot" x1="28.800" x2="28.800" y1="369.600" y2="369.600"/>
    <line class="dot" x1="499.200" x2="499.200" y1="369.600" y2="369.600"/>
    <line class="dot dot--bold" x1="28.800" x2="28.800" y1="427.200" y2="427.200"/>
    <line class="dot dot--bold" x1="499.200" x2="499.200" y1="427.200" y2="427.200"/>
    <line class="dot" x1="28.800" x2="28.800" y1="484.800" y2="484.800"/>
    <line class="dot" x1="499.200" x2="499.200" y1="484.800" y2="484.800"/>
    <line class="dot" x1="28.800" x2="28.800" y1="542.400" y2="542.400"/>
    <line class="dot" x1="499.200" x2="499.200" y1="542.400" y2="542.400"/>
    <line class="dot" x1="28.800" x2="28.800" y1="600.000" y2="600.000"/>
    <line class="dot" x1="499.200" x2="499.200" y1="600.000" y2="600.000"/>
    <line class="dot" x1="28.800" x2="28.800" y1="657.600" y2="657.600"/>
    <line class="dot" x1="499.200" x2="499.200" y1="657.600" y2="657.600"/>
    <line class="dot" x1="28.800" x2="28.800" y1="715.200" y2="715.200"/>
    <line class="dot" x1="499.200" x2="499.200" y1="715.200" y2="715.200"/>
    <line class="dot" x1="28.800" x2="28.800" y1="772.800" y2="772.800"/>
    <line class="dot" x1="499.200" x2="499.200" y1="772.800" y2="772.800"/>
    <line class="dot" x1="14.400" x2="14.400" y1="24.000" y2="24.000"/>
    <line class="dot" x1="14.400" x2="14.400" y1="43.200" y2="43.200"/>
    <line class="dot" x1="33.600" x2="33.600" y1="24.000" y2="24.000"/>
    <line class="dot" x1="33.600" x2="33.600" y1="43.200" y2="43.200"/>
    <line class="dot" x1="52.800" x2="52.800" y1="24.000" y2="24.000"/>
    <line class="dot" x1="52.800" x2="52.800" y1="43.200" y2="43.200"/>
    <line class="dot" x1="72.000" x2="72.000" y1="24.000" y2="24.000"/>
    <line class="dot" x1="72.000" x2="72.000" y1="43.200" y2="43.200"/>
    <line class="dot" x1="91.200" x2="91.200" y1="24.000" y2="24.000"/>
    <line class="dot" x1="91.200" x2="91.200" y1="43.200" y2="43.200"/>
    <line class="dot" x1="110.400" x2="110.400" y1="24.000" y2="24.000"/>
    <line class="dot" x1="110.400" x2="110.400" y1="43.200" y2="43.200"/>
    <line class="dot" x1="129.600" x2="129.600" y1="24.000" y2="24.000"/>
    <line class="dot" x1="129.600" x2="129.600" y1="43.200" y2="43.200"/>
    <line class="dot" x1="148.800" x2="148.800" y1="24.000" y2="24.000"/>
    <line class="dot" x1="148.800" x2="148.800" y1="43.200" y2="43.200"/>
    <line class="dot" x1="168.000" x2="168.000" y1="24.000" y2="24.000"/>
    <line class="dot" x1="168.000" x2="168.000" y1="43.200" y2="43.200"/>
    <line class="dot" x1="187.200" x2="187.200" y1="24.000" y2="24.000"/>
    <line class="dot" x1="187.200" x2="187.200" y1="43.200" y2="43.200"/>
    <line class="dot" x1="206.400" x2="206.400" y1="24.000" y2="24.000"/>
    <line class="dot" x1="206.400" x2="206.400" y1="43.200" y2="43.200"/>
    <line class="dot" x1="225.600" x2="225.600" y1="24.000" y2="24.000"/>
    <line class="dot" x1="225.600" x2="225.600" y1="43.200" y2="43.200"/>
    <line class="dot" x1="244.800" x2="244.800" y1="24.000" y2="24.000"/>
    <line class="dot" x1="244.800" x2="244.800" y1="43.200" y2="43.200"/>
    <line class="dot" x1="264.000" x2="264.000" y1="24.000" y2="24.000"/>
    <line class="dot" x1="264.000" x2="264.000" y1="43.200" y2="43.200"/>
    <line class="dot" x1="283.200" x2="283.200" y1="24.000" y2="24.000"/>
    <line class="dot" x1="283.200" x2="283.200" y1="43.200" y2="43.200"/>
    <line class="dot" x1="302.400" x2="302.400" y1="24.000" y2="24.000"/>
    <line class="dot" x1="302.400" x2="302.400" y1="43.200" y2="43.200"/>
    <line class="dot" x1="321.600" x2="321.600" y1="24.000" y2="24.000"/>
    <line class="dot" x1="321.600" x2="321.600" y1="43.200" y2="43.200"/>
    <line class="dot" x1="340.800" x2="340.800" y1="24.000" y2="24.000"/>
    <line class="dot" x1="340.800" x2="340.800" y1="43.200" y2="43.200"/>
    <line class="dot" x1="360.000" x2="360.000" y1="24.000" y2="24.000"/>
    <line class="dot" x1="360.000" x2="360.000" y1="43.200" y2="43.200"/>
    <line class="dot" x1="379.200" x2="379.200" y1="24.000" y2="24.000"/>
    <line class="dot" x1="379.200" x2="379.200" y1="43.200" y2="43.200"/>
    <line class="dot" x1="398.400" x2="398.400" y1="24.000" y2="24.000"/>
    <line class="dot" x1="398.400" x2="398.400" y1="43.200" y2="43.200"/>
    <line class="dot" x1="417.600" x2="417.600" y1="24.000" y2="24.000"/>
    <line class="dot" x1="417.600" x2="417.600" y1="43.200" y2="43.200"/>
    <line class="dot" x1="436.800" x2="436.800" y1="24.000" y2="24.000"/>
    <line class="dot" x1="436.800" x2="436.800" y1="43.200" y2="43.200"/>
    <line class="dot" x1="456.000" x2="456.000" y1="24.000" y2="24.000"/>
    <line class="dot" x1="456.000" x2="456.000" y1="43.200" y2="43.200"/>
    <line class="dot" x1="475.200" x2="475.200" y1="24.000" y2="24.000"/>
    <line class="dot" x1="475.200" x2="475.200" y1="43.200" y2="43.200"/>
    <line class="dot" x1="494.400" x2="494.400" y1="24.000" y2="24.000"/>
    <line class="dot" x1="494.400" x2="494.400" y1="43.200" y2="43.200"/>
    <line class="dot" x1="513.600" x2="513.600" y1="24.000" y2="24.000"/>
    <line class="dot" x1="513.600" x2="513.600" y1="43.200" y2="43.200"/>
    <rect height="816.000" width="528.000" x="0.000" y="0.000"/>
  </g>
</svg>
