<?xml version="1.0" encoding="UTF-8"?>
<svg xmlns="http://www.w3.org/2000/svg" version="1.1" width="528.000px" height="816.000px" viewBox="0.000 0.000 528.000 816.000">
  <style>text {
    text-anchor: middle;
    font-family: 'Times New Roman', 'Times Roman', serif;
    font-size: 8px;
    fill: #cccccc;
}
circle {
    fill: #cccccc;
}
</style>
  <g id="document">
    <circle cx="33.600" cy="74.474" r="1.000"/>
    <circle cx="33.600" cy="93.674" r="1.000"/>
    <circle cx="33.600" cy="112.874" r="1.000"/>
    <circle cx="33.600" cy="132.074" r="1.000"/>
    <circle cx="33.600" cy="151.274" r="1.000"/>
    <circle cx="33.600" cy="170.474" r="1.000"/>
    <circle cx="33.600" cy="189.674" r="1.000"/>
    <circle cx="33.600" cy="208.874" r="1.000"/>
    <circle cx="33.600" cy="228.074" r="1.000"/>
    <circle cx="33.600" cy="247.274" r="1.000"/>
    <circle cx="33.600" cy="266.474" r="1.000"/>
    <circle cx="33.600" cy="285.674" r="1.000"/>
    <circle cx="33.600" cy="304.874" r="1.000"/>
    <circle cx="33.600" cy="324.074" r="1.000"/>
    <circle cx="33.600" cy="343.274" r="1.000"/>
    <circle cx="33.600" cy="362.474" r="1.000"/>
    <circle cx="33.600" cy="381.674" r="1.000"/>
    <circle cx="33.600" cy="400.874" r="1.000"/>
    <circle cx="33.600" cy="420.074" r="1.000"/>
    <circle cx="33.600" cy="439.274" r="1.000"/>
    <circle cx="33.600" cy="458.474" r="1.000"/>
    <circle cx="33.600" cy="477.674" r="1.000"/>
    <circle cx="33.600" cy="496.874" r="1.000"/>
    <circle cx="33.600" cy="516.074" r="1.000"/>
    <circle cx="33.600" cy="535.274" r="1.000"/>
    <circle cx="33.600" cy="554.474" r="1.000"/>
    <circle cx="33.600" cy="573.674" r="1.000"/>
    <circle cx="33.600" cy="592.874" r="1.000"/>
    <circle cx="33.600" cy="612.074" r="1.000"/>
    <circle cx="33.600" cy="631.274" r="1.000"/>
    <circle cx="33.600" cy="650.474" r="1.000"/>
    <circle cx="33.600" cy="669.674" r="1.000"/>
    <circle cx="33.600" cy="688.874" r="1.000"/>
    <circle cx="33.600" cy="708.074" r="1.000"/>
    <circle cx="33.600" cy="727.274" r="1.000"/>
    <circle cx="33.600" cy="746.474" r="1.000"/>
    <circle cx="33.600" cy="765.674" r="1.000"/>
    <circle cx="52.800" cy="74.474" r="1.000"/>
    <circle cx="52.800" cy="93.674" r="1.000"/>
    <circle cx="52.800" cy="112.874" r="1.000"/>
    <circle cx="52.800" cy="132.074" r="1.000"/>
    <circle cx="52.800" cy="151.274" r="1.000"/>
    <circle cx="52.800" cy="170.474" r="1.000"/>
    <circle cx="52.800" cy="189.674" r="1.000"/>
    <circle cx="52.800" cy="208.874" r="1.000"/>
    <circle cx="52.800" cy="228.074" r="1.000"/>
    <circle cx="52.800" cy="247.274" r="1.000"/>
    <circle cx="52.800" cy="266.474" r="1.000"/>
    <circle cx="52.800" cy="285.674" r="1.000"/>
    <circle cx="52.800" cy="304.874" r="1.000"/>
    <circle cx="52.800" cy="324.074" r="1.000"/>
    <circle cx="52.800" cy="343.274" r="1.000"/>
    <circle cx="52.800" cy="362.474" r="1.000"/>
    <circle cx="52.800" cy="381.674" r="1.000"/>
    <circle cx="52.800" cy="400.874" r="1.000"/>
    <circle cx="52.800" cy="420.074" r="1.000"/>
    <circle cx="52.800" cy="439.274" r="1.000"/>
    <circle cx="52.800" cy="458.474" r="1.000"/>
    <circle cx="52.800" cy="477.674" r="1.000"/>
    <circle cx="52.800" cy="496.874" r="1.000"/>
    <circle cx="52.800" cy="516.074" r="1.000"/>
    <circle cx="52.800" cy="535.274" r="1.000"/>
    <circle cx="52.800" cy="554.474" r="1.000"/>
    <circle cx="52.800" cy="573.674" r="1.000"/>
    <circle cx="52.800" cy="592.874" r="1.000"/>
    <circle cx="52.800" cy="612.074" r="1.000"/>
    <circle cx="52.800" cy="631.274" r="1.000"/>
    <circle cx="52.800" cy="650.474" r="1.000"/>
    <circle cx="52.800" cy="669.674" r="1.000"/>
    <circle cx="52.800" cy="688.874" r="1.000"/>
    <circle cx="52.800" cy="708.074" r="1.000"/>
    <circle cx="52.800" cy="727.274" r="1.000"/>
    <circle cx="52.800" cy="746.474" r="1.000"/>
    <circle cx="52.800" cy="765.674" r="1.000"/>
    <circle cx="72.000" cy="74.474" r="1.000"/>
    <circle cx="72.000" cy="93.674" r="1.000"/>
    <circle cx="72.000" cy="112.874" r="1.000"/>
    <circle cx="72.000" cy="132.074" r="1.000"/>
    <circle cx="72.000" cy="151.274" r="1.000"/>
    <circle cx="72.000" cy="170.474" r="1.000"/>
    <circle cx="72.000" cy="189.674" r="1.000"/>
    <circle cx="72.000" cy="208.874" r="1.000"/>
    <circle cx="72.000" cy="228.074" r="1.000"/>
    <circle cx="72.000" cy="247.274" r="1.000"/>
    <circle cx="72.000" cy="266.474" r="1.000"/>
    <circle cx="72.000" cy="285.674" r="1.000"/>
    <circle cx="72.000" cy="304.874" r="1.000"/>
    <circle cx="72.000" cy="324.074" r="1.000"/>
    <circle cx="72.000" cy="343.274" r="1.000"/>
    <circle cx="72.000" cy="362.474" r="1.000"/>
    <circle cx="72.000" cy="381.674" r="1.000"/>
    <circle cx="72.000" cy="400.874" r="1.000"/>
    <circle cx="72.000" cy="420.074" r="1.000"/>
    <circle cx="72.000" cy="439.274" r="1.000"/>
    <circle cx="72.000" cy="458.474" r="1.000"/>
    <circle cx="72.000" cy="477.674" r="1.000"/>
    <circle cx="72.000" cy="496.874" r="1.000"/>
    <circle cx="72.000" cy="516.074" r="1.000"/>
    <circle cx="72.000" cy="535.274" r="1.000"/>
    <circle cx="72.000" cy="554.474" r="1.000"/>
    <circle cx="72.000" cy="573.674" r="1.000"/>
    <circle cx="72.000" cy="592.874" r="1.000"/>
    <circle cx="72.000" cy="612.074" r="1.000"/>
    <circle cx="72.000" cy="631.274" r="1.000"/>
    <circle cx="72.000" cy="650.474" r="1.000"/>
    <circle cx="72.000" cy="669.674" r="1.000"/>
    <circle cx="72.000" cy="688.874" r="1.000"/>
    <circle cx="72.000" cy="708.074" r="1.000"/>
    <circle cx="72.000" cy="727.274" r="1.000"/>
    <circle cx="72.000" cy="746.474" r="1.000"/>
    <circle cx="72.000" cy="765.674" r="1.000"/>
    <circle cx="91.200" cy="74.474" r="1.000"/>
    <circle cx="91.200" cy="93.674" r="1.000"/>
    <circle cx="91.200" cy="112.874" r="1.000"/>
    <circle cx="91.200" cy="132.074" r="1.000"/>
    <circle cx="91.200" cy="151.274" r="1.000"/>
    <circle cx="91.200" cy="170.474" r="1.000"/>
    <circle cx="91.200" cy="189.674" r="1.000"/>
    <circle cx="91.200" cy="208.874" r="1.000"/>
    <circle cx="91.200" cy="228.074" r="1.000"/>
    <circle cx="91.200" cy="247.274" r="1.000"/>
    <circle cx="91.200" cy="266.474" r="1.000"/>
    <circle cx="91.200" cy="285.674" r="1.000"/>
    <circle cx="91.200" cy="304.874" r="1.000"/>
    <circle cx="91.200" cy="324.074" r="1.000"/>
    <circle cx="91.200" cy="343.274" r="1.000"/>
    <circle cx="91.200" cy="362.474" r="1.000"/>
    <circle cx="91.200" cy="381.674" r="1.000"/>
    <circle cx="91.200" cy="400.874" r="1.000"/>
    <circle cx="91.200" cy="420.074" r="1.000"/>
    <circle cx="91.200" cy="439.274" r="1.000"/>
    <circle cx="91.200" cy="458.474" r="1.000"/>
    <circle cx="91.200" cy="477.674" r="1.000"/>
    <circle cx="91.200" cy="496.874" r="1.000"/>
    <circle cx="91.200" cy="516.074" r="1.000"/>
    <circle cx="91.200" cy="535.274" r="1.000"/>
    <circle cx="91.200" cy="554.474" r="1.000"/>
    <circle cx="91.200" cy="573.674" r="1.000"/>
    <circle cx="91.200" cy="592.874" r="1.000"/>
    <circle cx="91.200" cy="612.074" r="1.000"/>
    <circle cx="91.200" cy="631.274" r="1.000"/>
    <circle cx="91.200" cy="650.474" r="1.000"/>
    <circle cx="91.200" cy="669.674" r="1.000"/>
    <circle cx="91.200" cy="688.874" r="1.000"/>
    <circle cx="91.200" cy="708.074" r="1.000"/>
    <circle cx="91.200" cy="727.274" r="1.000"/>
    <circle cx="91.200" cy="746.474" r="1.000"/>
    <circle cx="91.200" cy="765.674" r="1.000"/>
    <circle cx="110.400" cy="74.474" r="1.000"/>
    <circle cx="110.400" cy="93.674" r="1.000"/>
    <circle cx="110.400" cy="112.874" r="1.000"/>
    <circle cx="110.400" cy="132.074" r="1.000"/>
    <circle cx="110.400" cy="151.274" r="1.000"/>
    <circle cx="110.400" cy="170.474" r="1.000"/>
    <circle cx="110.400" cy="189.674" r="1.000"/>
    <circle cx="110.400" cy="208.874" r="1.000"/>
    <circle cx="110.400" cy="228.074" r="1.000"/>
    <circle cx="110.400" cy="247.274" r="1.000"/>
    <circle cx="110.400" cy="266.474" r="1.000"/>
    <circle cx="110.400" cy="285.674" r="1.000"/>
    <circle cx="110.400" cy="304.874" r="1.000"/>
    <circle cx="110.400" cy="324.074" r="1.000"/>
    <circle cx="110.400" cy="343.274" r="1.000"/>
    <circle cx="110.400" cy="362.474" r="1.000"/>
    <circle cx="110.400" cy="381.674" r="1.000"/>
    <circle cx="110.400" cy="400.874" r="1.000"/>
    <circle cx="110.400" cy="420.074" r="1.000"/>
    <circle cx="110.400" cy="439.274" r="1.000"/>
    <circle cx="110.400" cy="458.474" r="1.000"/>
    <circle cx="110.400" cy="477.674" r="1.000"/>
    <circle cx="110.400" cy="496.874" r="1.000"/>
    <circle cx="110.400" cy="516.074" r="1.000"/>
    <circle cx="110.400" cy="535.274" r="1.000"/>
    <circle cx="110.400" cy="554.474" r="1.000"/>
    <circle cx="110.400" cy="573.674" r="1.000"/>
    <circle cx="110.400" cy="592.874" r="1.000"/>
    <circle cx="110.400" cy="612.074" r="1.000"/>
    <circle cx="110.400" cy="631.274" r="1.000"/>
    <circle cx="110.400" cy="650.474" r="1.000"/>
    <circle cx="110.400" cy="669.674" r="1.000"/>
    <circle cx="110.400" cy="688.874" r="1.000"/>
    <circle cx="110.400" cy="708.074" r="1.000"/>
    <circle cx="110.400" cy="727.274" r="1.000"/>
    <circle cx="110.400" cy="746.474" r="1.000"/>
    <circle cx="110.400" cy="765.674" r="1.000"/>
    <circle cx="129.600" cy="74.474" r="1.000"/>
    <circle cx="129.600" cy="93.674" r="1.000"/>
    <circle cx="129.600" cy="112.874" r="1.000"/>
    <circle cx="129.600" cy="132.074" r="1.000"/>
    <circle cx="129.600" cy="151.274" r="1.000"/>
    <circle cx="129.600" cy="170.474" r="1.000"/>
    <circle cx="129.600" cy="189.674" r="1.000"/>
    <circle cx="129.600" cy="208.874" r="1.000"/>
    <circle cx="129.600" cy="228.074" r="1.000"/>
    <circle cx="129.600" cy="247.274" r="1.000"/>
    <circle cx="129.600" cy="266.474" r="1.000"/>
    <circle cx="129.600" cy="285.674" r="1.000"/>
    <circle cx="129.600" cy="304.874" r="1.000"/>
    <circle cx="129.600" cy="324.074" r="1.000"/>
    <circle cx="129.600" cy="343.274" r="1.000"/>
    <circle cx="129.600" cy="362.474" r="1.000"/>
    <circle cx="129.600" cy="381.674" r="1.000"/>
    <circle cx="129.600" cy="400.874" r="1.000"/>
    <circle cx="129.600" cy="420.074" r="1.000"/>
    <circle cx="129.600" cy="439.274" r="1.000"/>
    <circle cx="129.600" cy="458.474" r="1.000"/>
    <circle cx="129.600" cy="477.674" r="1.000"/>
    <circle cx="129.600" cy="496.874" r="1.000"/>
    <circle cx="129.600" cy="516.074" r="1.000"/>
    <circle cx="129.600" cy="535.274" r="1.000"/>
    <circle cx="129.600" cy="554.474" r="1.000"/>
    <circle cx="129.600" cy="573.674" r="1.000"/>
    <circle cx="129.600" cy="592.874" r="1.000"/>
    <circle cx="129.600" cy="612.074" r="1.000"/>
    <circle cx="129.600" cy="631.274" r="1.000"/>
    <circle cx="129.600" cy="650.474" r="1.000"/>
    <circle cx="129.600" cy="669.674" r="1.000"/>
    <circle cx="129.600" cy="688.874" r="1.000"/>
    <circle cx="129.600" cy="708.074" r="1.000"/>
    <circle cx="129.600" cy="727.274" r="1.000"/>
    <circle cx="129.600" cy="746.474" r="1.000"/>
    <circle cx="129.600" cy="765.674" r="1.000"/>
    <circle cx="148.800" cy="74.474" r="1.000"/>
    <circle cx="148.800" cy="93.674" r="1.000"/>
    <circle cx="148.800" cy="112.874" r="1.000"/>
    <circle cx="148.800" cy="132.074" r="1.000"/>
    <circle cx="148.800" cy="151.274" r="1.000"/>
    <circle cx="148.800" cy="170.474" r="1.000"/>
    <circle cx="148.800" cy="189.674" r="1.000"/>
    <circle cx="148.800" cy="208.874" r="1.000"/>
    <circle cx="148.800" cy="228.074" r="1.000"/>
    <circle cx="148.800" cy="247.274" r="1.000"/>
    <circle cx="148.800" cy="266.474" r="1.000"/>
    <circle cx="148.800" cy="285.674" r="1.000"/>
    <circle cx="148.800" cy="304.874" r="1.000"/>
    <circle cx="148.800" cy="324.074" r="1.000"/>
    <circle cx="148.800" cy="343.274" r="1.000"/>
    <circle cx="148.800" cy="362.474" r="1.000"/>
    <circle cx="148.800" cy="381.674" r="1.000"/>
    <circle cx="148.800" cy="400.874" r="1.000"/>
    <circle cx="148.800" cy="420.074" r="1.000"/>
    <circle cx="148.800" cy="439.274" r="1.000"/>
    <circle cx="148.800" cy="458.474" r="1.000"/>
    <circle cx="148.800" cy="477.674" r="1.000"/>
    <circle cx="148.800" cy="496.874" r="1.000"/>
    <circle cx="148.800" cy="516.074" r="1.000"/>
    <circle cx="148.800" cy="535.274" r="1.000"/>
    <circle cx="148.800" cy="554.474" r="1.000"/>
    <circle cx="148.800" cy="573.674" r="1.000"/>
    <circle cx="148.800" cy="592.874" r="1.000"/>
    <circle cx="148.800" cy="612.074" r="1.000"/>
    <circle cx="148.800" cy="631.274" r="1.000"/>
    <circle cx="148.800" cy="650.474" r="1.000"/>
    <circle cx="148.800" cy="669.674" r="1.000"/>
    <circle cx="148.800" cy="688.874" r="1.000"/>
    <circle cx="148.800" cy="708.074" r="1.000"/>
    <circle cx="148.800" cy="727.274" r="1.000"/>
    <circle cx="148.800" cy="746.474" r="1.000"/>
    <circle cx="148.800" cy="765.674" r="1.000"/>
    <circle cx="168.000" cy="74.474" r="1.000"/>
    <circle cx="168.000" cy="93.674" r="1.000"/>
    <circle cx="168.000" cy="112.874" r="1.000"/>
    <circle cx="168.000" cy="132.074" r="1.000"/>
    <circle cx="168.000" cy="151.274" r="1.000"/>
    <circle cx="168.000" cy="170.474" r="1.000"/>
    <circle cx="168.000" cy="189.674" r="1.000"/>
    <circle cx="168.000" cy="208.874" r="1.000"/>
    <circle cx="168.000" cy="228.074" r="1.000"/>
    <circle cx="168.000" cy="247.274" r="1.000"/>
    <circle cx="168.000" cy="266.474" r="1.000"/>
    <circle cx="168.000" cy="285.674" r="1.000"/>
    <circle cx="168.000" cy="304.874" r="1.000"/>
    <circle cx="168.000" cy="324.074" r="1.000"/>
    <circle cx="168.000" cy="343.274" r="1.000"/>
    <circle cx="168.000" cy="362.474" r="1.000"/>
    <circle cx="168.000" cy="381.674" r="1.000"/>
    <circle cx="168.000" cy="400.874" r="1.000"/>
    <circle cx="168.000" cy="420.074" r="1.000"/>
    <circle cx="168.000" cy="439.274" r="1.000"/>
    <circle cx="168.000" cy="458.474" r="1.000"/>
    <circle cx="168.000" cy="477.674" r="1.000"/>
    <circle cx="168.000" cy="496.874" r="1.000"/>
    <circle cx="168.000" cy="516.074" r="1.000"/>
    <circle cx="168.000" cy="535.274" r="1.000"/>
    <circle cx="168.000" cy="554.474" r="1.000"/>
    <circle cx="168.000" cy="573.674" r="1.000"/>
    <circle cx="168.000" cy="592.874" r="1.000"/>
    <circle cx="168.000" cy="612.074" r="1.000"/>
    <circle cx="168.000" cy="631.274" r="1.000"/>
    <circle cx="168.000" cy="650.474" r="1.000"/>
    <circle cx="168.000" cy="669.674" r="1.000"/>
    <circle cx="168.000" cy="688.874" r="1.000"/>
    <circle cx="168.000" cy="708.074" r="1.000"/>
    <circle cx="168.000" cy="727.274" r="1.000"/>
    <circle cx="168.000" cy="746.474" r="1.000"/>
    <circle cx="168.000" cy="765.674" r="1.000"/>
    <circle cx="187.200" cy="74.474" r="1.000"/>
    <circle cx="187.200" cy="93.674" r="1.000"/>
    <circle cx="187.200" cy="112.874" r="1.000"/>
    <circle cx="187.200" cy="132.074" r="1.000"/>
    <circle cx="187.200" cy="151.274" r="1.000"/>
    <circle cx="187.200" cy="170.474" r="1.000"/>
    <circle cx="187.200" cy="189.674" r="1.000"/>
    <circle cx="187.200" cy="208.874" r="1.000"/>
    <circle cx="187.200" cy="228.074" r="1.000"/>
    <circle cx="187.200" cy="247.274" r="1.000"/>
    <circle cx="187.200" cy="266.474" r="1.000"/>
    <circle cx="187.200" cy="285.674" r="1.000"/>
    <circle cx="187.200" cy="304.874" r="1.000"/>
    <circle cx="187.200" cy="324.074" r="1.000"/>
    <circle cx="187.200" cy="343.274" r="1.000"/>
    <circle cx="187.200" cy="362.474" r="1.000"/>
    <circle cx="187.200" cy="381.674" r="1.000"/>
    <circle cx="187.200" cy="400.874" r="1.000"/>
    <circle cx="187.200" cy="420.074" r="1.000"/>
    <circle cx="187.200" cy="439.274" r="1.000"/>
    <circle cx="187.200" cy="458.474" r="1.000"/>
    <circle cx="187.200" cy="477.674" r="1.000"/>
    <circle cx="187.200" cy="496.874" r="1.000"/>
    <circle cx="187.200" cy="516.074" r="1.000"/>
    <circle cx="187.200" cy="535.274" r="1.000"/>
    <circle cx="187.200" cy="554.474" r="1.000"/>
    <circle cx="187.200" cy="573.674" r="1.000"/>
    <circle cx="187.200" cy="592.874" r="1.000"/>
    <circle cx="187.200" cy="612.074" r="1.000"/>
    <circle cx="187.200" cy="631.274" r="1.000"/>
    <circle cx="187.200" cy="650.474" r="1.000"/>
    <circle cx="187.200" cy="669.674" r="1.000"/>
    <circle cx="187.200" cy="688.874" r="1.000"/>
    <circle cx="187.200" cy="708.074" r="1.000"/>
    <circle cx="187.200" cy="727.274" r="1.000"/>
    <circle cx="187.200" cy="746.474" r="1.000"/>
    <circle cx="187.200" cy="765.674" r="1.000"/>
    <circle cx="206.400" cy="74.474" r="1.000"/>
    <circle cx="206.400" cy="93.674" r="1.000"/>
    <circle cx="206.400" cy="112.874" r="1.000"/>
    <circle cx="206.400" cy="132.074" r="1.000"/>
    <circle cx="206.400" cy="151.274" r="1.000"/>
    <circle cx="206.400" cy="170.474" r="1.000"/>
    <circle cx="206.400" cy="189.674" r="1.000"/>
    <circle cx="206.400" cy="208.874" r="1.000"/>
    <circle cx="206.400" cy="228.074" r="1.000"/>
    <circle cx="206.400" cy="247.274" r="1.000"/>
    <circle cx="206.400" cy="266.474" r="1.000"/>
    <circle cx="206.400" cy="285.674" r="1.000"/>
    <circle cx="206.400" cy="304.874" r="1.000"/>
    <circle cx="206.400" cy="324.074" r="1.000"/>
    <circle cx="206.400" cy="343.274" r="1.000"/>
    <circle cx="206.400" cy="362.474" r="1.000"/>
    <circle cx="206.400" cy="381.674" r="1.000"/>
    <circle cx="206.400" cy="400.874" r="1.000"/>
    <circle cx="206.400" cy="420.074" r="1.000"/>
    <circle cx="206.400" cy="439.274" r="1.000"/>
    <circle cx="206.400" cy="458.474" r="1.000"/>
    <circle cx="206.400" cy="477.674" r="1.000"/>
    <circle cx="206.400" cy="496.874" r="1.000"/>
    <circle cx="206.400" cy="516.074" r="1.000"/>
    <circle cx="206.400" cy="535.274" r="1.000"/>
    <circle cx="206.400" cy="554.474" r="1.000"/>
    <circle cx="206.400" cy="573.674" r="1.000"/>
    <circle cx="206.400" cy="592.874" r="1.000"/>
    <circle cx="206.400" cy="612.074" r="1.000"/>
    <circle cx="206.400" cy="631.274" r="1.000"/>
    <circle cx="206.400" cy="650.474" r="1.000"/>
    <circle cx="206.400" cy="669.674" r="1.000"/>
    <circle cx="206.400" cy="688.874" r="1.000"/>
    <circle cx="206.400" cy="708.074" r="1.000"/>
    <circle cx="206.400" cy="727.274" r="1.000"/>
    <circle cx="206.400" cy="746.474" r="1.000"/>
    <circle cx="206.400" cy="765.674" r="1.000"/>
    <circle cx="225.600" cy="74.474" r="1.000"/>
    <circle cx="225.600" cy="93.674" r="1.000"/>
    <circle cx="225.600" cy="112.874" r="1.000"/>
    <circle cx="225.600" cy="132.074" r="1.000"/>
    <circle cx="225.600" cy="151.274" r="1.000"/>
    <circle cx="225.600" cy="170.474" r="1.000"/>
    <circle cx="225.600" cy="189.674" r="1.000"/>
    <circle cx="225.600" cy="208.874" r="1.000"/>
    <circle cx="225.600" cy="228.074" r="1.000"/>
    <circle cx="225.600" cy="247.274" r="1.000"/>
    <circle cx="225.600" cy="266.474" r="1.000"/>
    <circle cx="225.600" cy="285.674" r="1.000"/>
    <circle cx="225.600" cy="304.874" r="1.000"/>
    <circle cx="225.600" cy="324.074" r="1.000"/>
    <circle cx="225.600" cy="343.274" r="1.000"/>
    <circle cx="225.600" cy="362.474" r="1.000"/>
    <circle cx="225.600" cy="381.674" r="1.000"/>
    <circle cx="225.600" cy="400.874" r="1.000"/>
    <circle cx="225.600" cy="420.074" r="1.000"/>
    <circle cx="225.600" cy="439.274" r="1.000"/>
    <circle cx="225.600" cy="458.474" r="1.000"/>
    <circle cx="225.600" cy="477.674" r="1.000"/>
    <circle cx="225.600" cy="496.874" r="1.000"/>
    <circle cx="225.600" cy="516.074" r="1.000"/>
    <circle cx="225.600" cy="535.274" r="1.000"/>
    <circle cx="225.600" cy="554.474" r="1.000"/>
    <circle cx="225.600" cy="573.674" r="1.000"/>
    <circle cx="225.600" cy="592.874" r="1.000"/>
    <circle cx="225.600" cy="612.074" r="1.000"/>
    <circle cx="225.600" cy="631.274" r="1.000"/>
    <circle cx="225.600" cy="650.474" r="1.000"/>
    <circle cx="225.600" cy="669.674" r="1.000"/>
    <circle cx="225.600" cy="688.874" r="1.000"/>
    <circle cx="225.600" cy="708.074" r="1.000"/>
    <circle cx="225.600" cy="727.274" r="1.000"/>
    <circle cx="225.600" cy="746.474" r="1.000"/>
    <circle cx="225.600" cy="765.674" r="1.000"/>
    <circle cx="244.800" cy="74.474" r="1.000"/>
    <circle cx="244.800" cy="93.674" r="1.000"/>
    <circle cx="244.800" cy="112.874" r="1.000"/>
    <circle cx="244.800" cy="132.074" r="1.000"/>
    <circle cx="244.800" cy="151.274" r="1.000"/>
    <circle cx="244.800" cy="170.474" r="1.000"/>
    <circle cx="244.800" cy="189.674" r="1.000"/>
    <circle cx="244.800" cy="208.874" r="1.000"/>
    <circle cx="244.800" cy="228.074" r="1.000"/>
    <circle cx="244.800" cy="247.274" r="1.000"/>
    <circle cx="244.800" cy="266.474" r="1.000"/>
    <circle cx="244.800" cy="285.674" r="1.000"/>
    <circle cx="244.800" cy="304.874" r="1.000"/>
    <circle cx="244.800" cy="324.074" r="1.000"/>
    <circle cx="244.800" cy="343.274" r="1.000"/>
    <circle cx="244.800" cy="362.474" r="1.000"/>
    <circle cx="244.800" cy="381.674" r="1.000"/>
    <circle cx="244.800" cy="400.874" r="1.000"/>
    <circle cx="244.800" cy="420.074" r="1.000"/>
    <circle cx="244.800" cy="439.274" r="1.000"/>
    <circle cx="244.800" cy="458.474" r="1.000"/>
    <circle cx="244.800" cy="477.674" r="1.000"/>
    <circle cx="244.800" cy="496.874" r="1.000"/>
    <circle cx="244.800" cy="516.074" r="1.000"/>
    <circle cx="244.800" cy="535.274" r="1.000"/>
    <circle cx="244.800" cy="554.474" r="1.000"/>
    <circle cx="244.800" cy="573.674" r="1.000"/>
    <circle cx="244.800" cy="592.874" r="1.000"/>
    <circle cx="244.800" cy="612.074" r="1.000"/>
    <circle cx="244.800" cy="631.274" r="1.000"/>
    <circle cx="244.800" cy="650.474" r="1.000"/>
    <circle cx="244.800" cy="669.674" r="1.000"/>
    <circle cx="244.800" cy="688.874" r="1.000"/>
    <circle cx="244.800" cy="708.074" r="1.000"/>
    <circle cx="244.800" cy="727.274" r="1.000"/>
    <circle cx="244.800" cy="746.474" r="1.000"/>
    <circle cx="244.800" cy="765.674" r="1.000"/>
    <circle cx="264.000" cy="74.474" r="1.000"/>
    <circle cx="264.000" cy="93.674" r="1.000"/>
    <circle cx="264.000" cy="112.874" r="1.000"/>
    <circle cx="264.000" cy="132.074" r="1.000"/>
    <circle cx="264.000" cy="151.274" r="1.000"/>
    <circle cx="264.000" cy="170.474" r="1.000"/>
    <circle cx="264.000" cy="189.674" r="1.000"/>
    <circle cx="264.000" cy="208.874" r="1.000"/>
    <circle cx="264.000" cy="228.074" r="1.000"/>
    <circle cx="264.000" cy="247.274" r="1.000"/>
    <circle cx="264.000" cy="266.474" r="1.000"/>
    <circle cx="264.000" cy="285.674" r="1.000"/>
    <circle cx="264.000" cy="304.874" r="1.000"/>
    <circle cx="264.000" cy="324.074" r="1.000"/>
    <circle cx="264.000" cy="343.274" r="1.000"/>
    <circle cx="264.000" cy="362.474" r="1.000"/>
    <circle cx="264.000" cy="381.674" r="1.000"/>
    <circle cx="264.000" cy="400.874" r="1.000"/>
    <circle cx="264.000" cy="420.074" r="1.000"/>
    <circle cx="264.000" cy="439.274" r="1.000"/>
    <circle cx="264.000" cy="458.474" r="1.000"/>
    <circle cx="264.000" cy="477.674" r="1.000"/>
    <circle cx="264.000" cy="496.874" r="1.000"/>
    <circle cx="264.000" cy="516.074" r="1.000"/>
    <circle cx="264.000" cy="535.274" r="1.000"/>
    <circle cx="264.000" cy="554.474" r="1.000"/>
    <circle cx="264.000" cy="573.674" r="1.000"/>
    <circle cx="264.000" cy="592.874" r="1.000"/>
    <circle cx="264.000" cy="612.074" r="1.000"/>
    <circle cx="264.000" cy="631.274" r="1.000"/>
    <circle cx="264.000" cy="650.474" r="1.000"/>
    <circle cx="264.000" cy="669.674" r="1.000"/>
    <circle cx="264.000" cy="688.874" r="1.000"/>
    <circle cx="264.000" cy="708.074" r="1.000"/>
    <circle cx="264.000" cy="727.274" r="1.000"/>
    <circle cx="264.000" cy="746.474" r="1.000"/>
    <circle cx="264.000" cy="765.674" r="1.000"/>
    <circle cx="283.200" cy="74.474" r="1.000"/>
    <circle cx="283.200" cy="93.674" r="1.000"/>
    <circle cx="283.200" cy="112.874" r="1.000"/>
    <circle cx="283.200" cy="132.074" r="1.000"/>
    <circle cx="283.200" cy="151.274" r="1.000"/>
    <circle cx="283.200" cy="170.474" r="1.000"/>
    <circle cx="283.200" cy="189.674" r="1.000"/>
    <circle cx="283.200" cy="208.874" r="1.000"/>
    <circle cx="283.200" cy="228.074" r="1.000"/>
    <circle cx="283.200" cy="247.274" r="1.000"/>
    <circle cx="283.200" cy="266.474" r="1.000"/>
    <circle cx="283.200" cy="285.674" r="1.000"/>
    <circle cx="283.200" cy="304.874" r="1.000"/>
    <circle cx="283.200" cy="324.074" r="1.000"/>
    <circle cx="283.200" cy="343.274" r="1.000"/>
    <circle cx="283.200" cy="362.474" r="1.000"/>
    <circle cx="283.200" cy="381.674" r="1.000"/>
    <circle cx="283.200" cy="400.874" r="1.000"/>
    <circle cx="283.200" cy="420.074" r="1.000"/>
    <circle cx="283.200" cy="439.274" r="1.000"/>
    <circle cx="283.200" cy="458.474" r="1.000"/>
    <circle cx="283.200" cy="477.674" r="1.000"/>
    <circle cx="283.200" cy="496.874" r="1.000"/>
    <circle cx="283.200" cy="516.074" r="1.000"/>
    <circle cx="283.200" cy="535.274" r="1.000"/>
    <circle cx="283.200" cy="554.474" r="1.000"/>
    <circle cx="283.200" cy="573.674" r="1.000"/>
    <circle cx="283.200" cy="592.874" r="1.000"/>
    <circle cx="283.200" cy="612.074" r="1.000"/>
    <circle cx="283.200" cy="631.274" r="1.000"/>
    <circle cx="283.200" cy="650.474" r="1.000"/>
    <circle cx="283.200" cy="669.674" r="1.000"/>
    <circle cx="283.200" cy="688.874" r="1.000"/>
    <circle cx="283.200" cy="708.074" r="1.000"/>
    <circle cx="283.200" cy="727.274" r="1.000"/>
    <circle cx="283.200" cy="746.474" r="1.000"/>
    <circle cx="283.200" cy="765.674" r="1.000"/>
    <circle cx="302.400" cy="74.474" r="1.000"/>
    <circle cx="302.400" cy="93.674" r="1.000"/>
    <circle cx="302.400" cy="112.874" r="1.000"/>
    <circle cx="302.400" cy="132.074" r="1.000"/>
    <circle cx="302.400" cy="151.274" r="1.000"/>
    <circle cx="302.400" cy="170.474" r="1.000"/>
    <circle cx="302.400" cy="189.674" r="1.000"/>
    <circle cx="302.400" cy="208.874" r="1.000"/>
    <circle cx="302.400" cy="228.074" r="1.000"/>
    <circle cx="302.400" cy="247.274" r="1.000"/>
    <circle cx="302.400" cy="266.474" r="1.000"/>
    <circle cx="302.400" cy="285.674" r="1.000"/>
    <circle cx="302.400" cy="304.874" r="1.000"/>
    <circle cx="302.400" cy="324.074" r="1.000"/>
    <circle cx="302.400" cy="343.274" r="1.000"/>
    <circle cx="302.400" cy="362.474" r="1.000"/>
    <circle cx="302.400" cy="381.674" r="1.000"/>
    <circle cx="302.400" cy="400.874" r="1.000"/>
    <circle cx="302.400" cy="420.074" r="1.000"/>
    <circle cx="302.400" cy="439.274" r="1.000"/>
    <circle cx="302.400" cy="458.474" r="1.000"/>
    <circle cx="302.400" cy="477.674" r="1.000"/>
    <circle cx="302.400" cy="496.874" r="1.000"/>
    <circle cx="302.400" cy="516.074" r="1.000"/>
    <circle cx="302.400" cy="535.274" r="1.000"/>
    <circle cx="302.400" cy="554.474" r="1.000"/>
    <circle cx="302.400" cy="573.674" r="1.000"/>
    <circle cx="302.400" cy="592.874" r="1.000"/>
    <circle cx="302.400" cy="612.074" r="1.000"/>
    <circle cx="302.400" cy="631.274" r="1.000"/>
    <circle cx="302.400" cy="650.474" r="1.000"/>
    <circle cx="302.400" cy="669.674" r="1.000"/>
    <circle cx="302.400" cy="688.874" r="1.000"/>
    <circle cx="302.400" cy="708.074" r="1.000"/>
    <circle cx="302.400" cy="727.274" r="1.000"/>
    <circle cx="302.400" cy="746.474" r="1.000"/>
    <circle cx="302.400" cy="765.674" r="1.000"/>
    <circle cx="321.600" cy="74.474" r="1.000"/>
    <circle cx="321.600" cy="93.674" r="1.000"/>
    <circle cx="321.600" cy="112.874" r="1.000"/>
    <circle cx="321.600" cy="132.074" r="1.000"/>
    <circle cx="321.600" cy="151.274" r="1.000"/>
    <circle cx="321.600" cy="170.474" r="1.000"/>
    <circle cx="321.600" cy="189.674" r="1.000"/>
    <circle cx="321.600" cy="208.874" r="1.000"/>
    <circle cx="321.600" cy="228.074" r="1.000"/>
    <circle cx="321.600" cy="247.274" r="1.000"/>
    <circle cx="321.600" cy="266.474" r="1.000"/>
    <circle cx="321.600" cy="285.674" r="1.000"/>
    <circle cx="321.600" cy="304.874" r="1.000"/>
    <circle cx="321.600" cy="324.074" r="1.000"/>
    <circle cx="321.600" cy="343.274" r="1.000"/>
    <circle cx="321.600" cy="362.474" r="1.000"/>
    <circle cx="321.600" cy="381.674" r="1.000"/>
    <circle cx="321.600" cy="400.874" r="1.000"/>
    <circle cx="321.600" cy="420.074" r="1.000"/>
    <circle cx="321.600" cy="439.274" r="1.000"/>
    <circle cx="321.600" cy="458.474" r="1.000"/>
    <circle cx="321.600" cy="477.674" r="1.000"/>
    <circle cx="321.600" cy="496.874" r="1.000"/>
    <circle cx="321.600" cy="516.074" r="1.000"/>
    <circle cx="321.600" cy="535.274" r="1.000"/>
    <circle cx="321.600" cy="554.474" r="1.000"/>
    <circle cx="321.600" cy="573.674" r="1.000"/>
    <circle cx="321.600" cy="592.874" r="1.000"/>
    <circle cx="321.600" cy="612.074" r="1.000"/>
    <circle cx="321.600" cy="631.274" r="1.000"/>
    <circle cx="321.600" cy="650.474" r="1.000"/>
    <circle cx="321.600" cy="669.674" r="1.000"/>
    <circle cx="321.600" cy="688.874" r="1.000"/>
    <circle cx="321.600" cy="708.074" r="1.000"/>
    <circle cx="321.600" cy="727.274" r="1.000"/>
    <circle cx="321.600" cy="746.474" r="1.000"/>
    <circle cx="321.600" cy="765.674" r="1.000"/>
    <circle cx="340.800" cy="74.474" r="1.000"/>
    <circle cx="340.800" cy="93.674" r="1.000"/>
    <circle cx="340.800" cy="112.874" r="1.000"/>
    <circle cx="340.800" cy="132.074" r="1.000"/>
    <circle cx="340.800" cy="151.274" r="1.000"/>
    <circle cx="340.800" cy="170.474" r="1.000"/>
    <circle cx="340.800" cy="189.674" r="1.000"/>
    <circle cx="340.800" cy="208.874" r="1.000"/>
    <circle cx="340.800" cy="228.074" r="1.000"/>
    <circle cx="340.800" cy="247.274" r="1.000"/>
    <circle cx="340.800" cy="266.474" r="1.000"/>
    <circle cx="340.800" cy="285.674" r="1.000"/>
    <circle cx="340.800" cy="304.874" r="1.000"/>
    <circle cx="340.800" cy="324.074" r="1.000"/>
    <circle cx="340.800" cy="343.274" r="1.000"/>
    <circle cx="340.800" cy="362.474" r="1.000"/>
    <circle cx="340.800" cy="381.674" r="1.000"/>
    <circle cx="340.800" cy="400.874" r="1.000"/>
    <circle cx="340.800" cy="420.074" r="1.000"/>
    <circle cx="340.800" cy="439.274" r="1.000"/>
    <circle cx="340.800" cy="458.474" r="1.000"/>
    <circle cx="340.800" cy="477.674" r="1.000"/>
    <circle cx="340.800" cy="496.874" r="1.000"/>
    <circle cx="340.800" cy="516.074" r="1.000"/>
    <circle cx="340.800" cy="535.274" r="1.000"/>
    <circle cx="340.800" cy="554.474" r="1.000"/>
    <circle cx="340.800" cy="573.674" r="1.000"/>
    <circle cx="340.800" cy="592.874" r="1.000"/>
    <circle cx="340.800" cy="612.074" r="1.000"/>
    <circle cx="340.800" cy="631.274" r="1.000"/>
    <circle cx="340.800" cy="650.474" r="1.000"/>
    <circle cx="340.800" cy="669.674" r="1.000"/>
    <circle cx="340.800" cy="688.874" r="1.000"/>
    <circle cx="340.800" cy="708.074" r="1.000"/>
    <circle cx="340.800" cy="727.274" r="1.000"/>
    <circle cx="340.800" cy="746.474" r="1.000"/>
    <circle cx="340.800" cy="765.674" r="1.000"/>
    <circle cx="360.000" cy="74.474" r="1.000"/>
    <circle cx="360.000" cy="93.674" r="1.000"/>
    <circle cx="360.000" cy="112.874" r="1.000"/>
    <circle cx="360.000" cy="132.074" r="1.000"/>
    <circle cx="360.000" cy="151.274" r="1.000"/>
    <circle cx="360.000" cy="170.474" r="1.000"/>
    <circle cx="360.000" cy="189.674" r="1.000"/>
    <circle cx="360.000" cy="208.874" r="1.000"/>
    <circle cx="360.000" cy="228.074" r="1.000"/>
    <circle cx="360.000" cy="247.274" r="1.000"/>
    <circle cx="360.000" cy="266.474" r="1.000"/>
    <circle cx="360.000" cy="285.674" r="1.000"/>
    <circle cx="360.000" cy="304.874" r="1.000"/>
    <circle cx="360.000" cy="324.074" r="1.000"/>
    <circle cx="360.000" cy="343.274" r="1.000"/>
    <circle cx="360.000" cy="362.474" r="1.000"/>
    <circle cx="360.000" cy="381.674" r="1.000"/>
    <circle cx="360.000" cy="400.874" r="1.000"/>
    <circle cx="360.000" cy="420.074" r="1.000"/>
    <circle cx="360.000" cy="439.274" r="1.000"/>
    <circle cx="360.000" cy="458.474" r="1.000"/>
    <circle cx="360.000" cy="477.674" r="1.000"/>
    <circle cx="360.000" cy="496.874" r="1.000"/>
    <circle cx="360.000" cy="516.074" r="1.000"/>
    <circle cx="360.000" cy="535.274" r="1.000"/>
    <circle cx="360.000" cy="554.474" r="1.000"/>
    <circle cx="360.000" cy="573.674" r="1.000"/>
    <circle cx="360.000" cy="592.874" r="1.000"/>
    <circle cx="360.000" cy="612.074" r="1.000"/>
    <circle cx="360.000" cy="631.274" r="1.000"/>
    <circle cx="360.000" cy="650.474" r="1.000"/>
    <circle cx="360.000" cy="669.674" r="1.000"/>
    <circle cx="360.000" cy="688.874" r="1.000"/>
    <circle cx="360.000" cy="708.074" r="1.000"/>
    <circle cx="360.000" cy="727.274" r="1.000"/>
    <circle cx="360.000" cy="746.474" r="1.000"/>
    <circle cx="360.000" cy="765.674" r="1.000"/>
    <circle cx="379.200" cy="74.474" r="1.000"/>
    <circle cx="379.200" cy="93.674" r="1.000"/>
    <circle cx="379.200" cy="112.874" r="1.000"/>
    <circle cx="379.200" cy="132.074" r="1.000"/>
    <circle cx="379.200" cy="151.274" r="1.000"/>
    <circle cx="379.200" cy="170.474" r="1.000"/>
    <circle cx="379.200" cy="189.674" r="1.000"/>
    <circle cx="379.200" cy="208.874" r="1.000"/>
    <circle cx="379.200" cy="228.074" r="1.000"/>
    <circle cx="379.200" cy="247.274" r="1.000"/>
    <circle cx="379.200" cy="266.474" r="1.000"/>
    <circle cx="379.200" cy="285.674" r="1.000"/>
    <circle cx="379.200" cy="304.874" r="1.000"/>
    <circle cx="379.200" cy="324.074" r="1.000"/>
    <circle cx="379.200" cy="343.274" r="1.000"/>
    <circle cx="379.200" cy="362.474" r="1.000"/>
    <circle cx="379.200" cy="381.674" r="1.000"/>
    <circle cx="379.200" cy="400.874" r="1.000"/>
    <circle cx="379.200" cy="420.074" r="1.000"/>
    <circle cx="379.200" cy="439.274" r="1.000"/>
    <circle cx="379.200" cy="458.474" r="1.000"/>
    <circle cx="379.200" cy="477.674" r="1.000"/>
    <circle cx="379.200" cy="496.874" r="1.000"/>
    <circle cx="379.200" cy="516.074" r="1.000"/>
    <circle cx="379.200" cy="535.274" r="1.000"/>
    <circle cx="379.200" cy="554.474" r="1.000"/>
    <circle cx="379.200" cy="573.674" r="1.000"/>
    <circle cx="379.200" cy="592.874" r="1.000"/>
    <circle cx="379.200" cy="612.074" r="1.000"/>
    <circle cx="379.200" cy="631.274" r="1.000"/>
    <circle cx="379.200" cy="650.474" r="1.000"/>
    <circle cx="379.200" cy="669.674" r="1.000"/>
    <circle cx="379.200" cy="688.874" r="1.000"/>
    <circle cx="379.200" cy="708.074" r="1.000"/>
    <circle cx="379.200" cy="727.274" r="1.000"/>
    <circle cx="379.200" cy="746.474" r="1.000"/>
    <circle cx="379.200" cy="765.674" r="1.000"/>
    <circle cx="398.400" cy="74.474" r="1.000"/>
    <circle cx="398.400" cy="93.674" r="1.000"/>
    <circle cx="398.400" cy="112.874" r="1.000"/>
    <circle cx="398.400" cy="132.074" r="1.000"/>
    <circle cx="398.400" cy="151.274" r="1.000"/>
    <circle cx="398.400" cy="170.474" r="1.000"/>
    <circle cx="398.400" cy="189.674" r="1.000"/>
    <circle cx="398.400" cy="208.874" r="1.000"/>
    <circle cx="398.400" cy="228.074" r="1.000"/>
    <circle cx="398.400" cy="247.274" r="1.000"/>
    <circle cx="398.400" cy="266.474" r="1.000"/>
    <circle cx="398.400" cy="285.674" r="1.000"/>
    <circle cx="398.400" cy="304.874" r="1.000"/>
    <circle cx="398.400" cy="324.074" r="1.000"/>
    <circle cx="398.400" cy="343.274" r="1.000"/>
    <circle cx="398.400" cy="362.474" r="1.000"/>
    <circle cx="398.400" cy="381.674" r="1.000"/>
    <circle cx="398.400" cy="400.874" r="1.000"/>
    <circle cx="398.400" cy="420.074" r="1.000"/>
    <circle cx="398.400" cy="439.274" r="1.000"/>
    <circle cx="398.400" cy="458.474" r="1.000"/>
    <circle cx="398.400" cy="477.674" r="1.000"/>
    <circle cx="398.400" cy="496.874" r="1.000"/>
    <circle cx="398.400" cy="516.074" r="1.000"/>
    <circle cx="398.400" cy="535.274" r="1.000"/>
    <circle cx="398.400" cy="554.474" r="1.000"/>
    <circle cx="398.400" cy="573.674" r="1.000"/>
    <circle cx="398.400" cy="592.874" r="1.000"/>
    <circle cx="398.400" cy="612.074" r="1.000"/>
    <circle cx="398.400" cy="631.274" r="1.000"/>
    <circle cx="398.400" cy="650.474" r="1.000"/>
    <circle cx="398.400" cy="669.674" r="1.000"/>
    <circle cx="398.400" cy="688.874" r="1.000"/>
    <circle cx="398.400" cy="708.074" r="1.000"/>
    <circle cx="398.400" cy="727.274" r="1.000"/>
    <circle cx="398.400" cy="746.474" r="1.000"/>
    <circle cx="398.400" cy="765.674" r="1.000"/>
    <circle cx="417.600" cy="74.474" r="1.000"/>
    <circle cx="417.600" cy="93.674" r="1.000"/>
    <circle cx="417.600" cy="112.874" r="1.000"/>
    <circle cx="417.600" cy="132.074" r="1.000"/>
    <circle cx="417.600" cy="151.274" r="1.000"/>
    <circle cx="417.600" cy="170.474" r="1.000"/>
    <circle cx="417.600" cy="189.674" r="1.000"/>
    <circle cx="417.600" cy="208.874" r="1.000"/>
    <circle cx="417.600" cy="228.074" r="1.000"/>
    <circle cx="417.600" cy="247.274" r="1.000"/>
    <circle cx="417.600" cy="266.474" r="1.000"/>
    <circle cx="417.600" cy="285.674" r="1.000"/>
    <circle cx="417.600" cy="304.874" r="1.000"/>
    <circle cx="417.600" cy="324.074" r="1.000"/>
    <circle cx="417.600" cy="343.274" r="1.000"/>
    <circle cx="417.600" cy="362.474" r="1.000"/>
    <circle cx="417.600" cy="381.674" r="1.000"/>
    <circle cx="417.600" cy="400.874" r="1.000"/>
    <circle cx="417.600" cy="420.074" r="1.000"/>
    <circle cx="417.600" cy="439.274" r="1.000"/>
    <circle cx="417.600" cy="458.474" r="1.000"/>
    <circle cx="417.600" cy="477.674" r="1.000"/>
    <circle cx="417.600" cy="496.874" r="1.000"/>
    <circle cx="417.600" cy="516.074" r="1.000"/>
    <circle cx="417.600" cy="535.274" r="1.000"/>
    <circle cx="417.600" cy="554.474" r="1.000"/>
    <circle cx="417.600" cy="573.674" r="1.000"/>
    <circle cx="417.600" cy="592.874" r="1.000"/>
    <circle cx="417.600" cy="612.074" r="1.000"/>
    <circle cx="417.600" cy="631.274" r="1.000"/>
    <circle cx="417.600" cy="650.474" r="1.000"/>
    <circle cx="417.600" cy="669.674" r="1.000"/>
    <circle cx="417.600" cy="688.874" r="1.000"/>
    <circle cx="417.600" cy="708.074" r="1.000"/>
    <circle cx="417.600" cy="727.274" r="1.000"/>
    <circle cx="417.600" cy="746.474" r="1.000"/>
    <circle cx="417.600" cy="765.674" r="1.000"/>
    <circle cx="436.800" cy="74.474" r="1.000"/>
    <circle cx="436.800" cy="93.674" r="1.000"/>
    <circle cx="436.800" cy="112.874" r="1.000"/>
    <circle cx="436.800" cy="132.074" r="1.000"/>
    <circle cx="436.800" cy="151.274" r="1.000"/>
    <circle cx="436.800" cy="170.474" r="1.000"/>
    <circle cx="436.800" cy="189.674" r="1.000"/>
    <circle cx="436.800" cy="208.874" r="1.000"/>
    <circle cx="436.800" cy="228.074" r="1.000"/>
    <circle cx="436.800" cy="247.274" r="1.000"/>
    <circle cx="436.800" cy="266.474" r="1.000"/>
    <circle cx="436.800" cy="285.674" r="1.000"/>
    <circle cx="436.800" cy="304.874" r="1.000"/>
    <circle cx="436.800" cy="324.074" r="1.000"/>
    <circle cx="436.800" cy="343.274" r="1.000"/>
    <circle cx="436.800" cy="362.474" r="1.000"/>
    <circle cx="436.800" cy="381.674" r="1.000"/>
    <circle cx="436.800" cy="400.874" r="1.000"/>
    <circle cx="436.800" cy="420.074" r="1.000"/>
    <circle cx="436.800" cy="439.274" r="1.000"/>
    <circle cx="436.800" cy="458.474" r="1.000"/>
    <circle cx="436.800" cy="477.674" r="1.000"/>
    <circle cx="436.800" cy="496.874" r="1.000"/>
    <circle cx="436.800" cy="516.074" r="1.000"/>
    <circle cx="436.800" cy="535.274" r="1.000"/>
    <circle cx="436.800" cy="554.474" r="1.000"/>
    <circle cx="436.800" cy="573.674" r="1.000"/>
    <circle cx="436.800" cy="592.874" r="1.000"/>
    <circle cx="436.800" cy="612.074" r="1.000"/>
    <circle cx="436.800" cy="631.274" r="1.000"/>
    <circle cx="436.800" cy="650.474" r="1.000"/>
    <circle cx="436.800" cy="669.674" r="1.000"/>
    <circle cx="436.800" cy="688.874" r="1.000"/>
    <circle cx="436.800" cy="708.074" r="1.000"/>
    <circle cx="436.800" cy="727.274" r="1.000"/>
    <circle cx="436.800" cy="746.474" r="1.000"/>
    <circle cx="436.800" cy="765.674" r="1.000"/>
    <circle cx="456.000" cy="74.474" r="1.000"/>
    <circle cx="456.000" cy="93.674" r="1.000"/>
    <circle cx="456.000" cy="112.874" r="1.000"/>
    <circle cx="456.000" cy="132.074" r="1.000"/>
    <circle cx="456.000" cy="151.274" r="1.000"/>
    <circle cx="456.000" cy="170.474" r="1.000"/>
    <circle cx="456.000" cy="189.674" r="1.000"/>
    <circle cx="456.000" cy="208.874" r="1.000"/>
    <circle cx="456.000" cy="228.074" r="1.000"/>
    <circle cx="456.000" cy="247.274" r="1.000"/>
    <circle cx="456.000" cy="266.474" r="1.000"/>
    <circle cx="456.000" cy="285.674" r="1.000"/>
    <circle cx="456.000" cy="304.874" r="1.000"/>
    <circle cx="456.000" cy="324.074" r="1.000"/>
    <circle cx="456.000" cy="343.274" r="1.000"/>
    <circle cx="456.000" cy="362.474" r="1.000"/>
    <circle cx="456.000" cy="381.674" r="1.000"/>
    <circle cx="456.000" cy="400.874" r="1.000"/>
    <circle cx="456.000" cy="420.074" r="1.000"/>
    <circle cx="456.000" cy="439.274" r="1.000"/>
    <circle cx="456.000" cy="458.474" r="1.000"/>
    <circle cx="456.000" cy="477.674" r="1.000"/>
    <circle cx="456.000" cy="496.874" r="1.000"/>
    <circle cx="456.000" cy="516.074" r="1.000"/>
    <circle cx="456.000" cy="535.274" r="1.000"/>
    <circle cx="456.000" cy="554.474" r="1.000"/>
    <circle cx="456.000" cy="573.674" r="1.000"/>
    <circle cx="456.000" cy="592.874" r="1.000"/>
    <circle cx="456.000" cy="612.074" r="1.000"/>
    <circle cx="456.000" cy="631.274" r="1.000"/>
    <circle cx="456.000" cy="650.474" r="1.000"/>
    <circle cx="456.000" cy="669.674" r="1.000"/>
    <circle cx="456.000" cy="688.874" r="1.000"/>
    <circle cx="456.000" cy="708.074" r="1.000"/>
    <circle cx="456.000" cy="727.274" r="1.000"/>
    <circle cx="456.000" cy="746.474" r="1.000"/>
    <circle cx="456.000" cy="765.674" r="1.000"/>
    <circle cx="475.200" cy="74.474" r="1.000"/>
    <circle cx="475.200" cy="93.674" r="1.000"/>
    <circle cx="475.200" cy="112.874" r="1.000"/>
    <circle cx="475.200" cy="132.074" r="1.000"/>
    <circle cx="475.200" cy="151.274" r="1.000"/>
    <circle cx="475.200" cy="170.474" r="1.000"/>
    <circle cx="475.200" cy="189.674" r="1.000"/>
    <circle cx="475.200" cy="208.874" r="1.000"/>
    <circle cx="475.200" cy="228.074" r="1.000"/>
    <circle cx="475.200" cy="247.274" r="1.000"/>
    <circle cx="475.200" cy="266.474" r="1.000"/>
    <circle cx="475.200" cy="285.674" r="1.000"/>
    <circle cx="475.200" cy="304.874" r="1.000"/>
    <circle cx="475.200" cy="324.074" r="1.000"/>
    <circle cx="475.200" cy="343.274" r="1.000"/>
    <circle cx="475.200" cy="362.474" r="1.000"/>
    <circle cx="475.200" cy="381.674" r="1.000"/>
    <circle cx="475.200" cy="400.874" r="1.000"/>
    <circle cx="475.200" cy="420.074" r="1.000"/>
    <circle cx="475.200" cy="439.274" r="1.000"/>
    <circle cx="475.200" cy="458.474" r="1.000"/>
    <circle cx="475.200" cy="477.674" r="1.000"/>
    <circle cx="475.200" cy="496.874" r="1.000"/>
    <circle cx="475.200" cy="516.074" r="1.000"/>
    <circle cx="475.200" cy="535.274" r="1.000"/>
    <circle cx="475.200" cy="554.474" r="1.000"/>
    <circle cx="475.200" cy="573.674" r="1.000"/>
    <circle cx="475.200" cy="592.874" r="1.000"/>
    <circle cx="475.200" cy="612.074" r="1.000"/>
    <circle cx="475.200" cy="631.274" r="1.000"/>
    <circle cx="475.200" cy="650.474" r="1.000"/>
    <circle cx="475.200" cy="669.674" r="1.000"/>
    <circle cx="475.200" cy="688.874" r="1.000"/>
    <circle cx="475.200" cy="708.074" r="1.000"/>
    <circle cx="475.200" cy="727.274" r="1.000"/>
    <circle cx="475.200" cy="746.474" r="1.000"/>
    <circle cx="475.200" cy="765.674" r="1.000"/>
    <circle cx="494.400" cy="74.474" r="1.000"/>
    <circle cx="494.400" cy="93.674" r="1.000"/>
    <circle cx="494.400" cy="112.874" r="1.000"/>
    <circle cx="494.400" cy="132.074" r="1.000"/>
    <circle cx="494.400" cy="151.274" r="1.000"/>
    <circle cx="494.400" cy="170.474" r="1.000"/>
    <circle cx="494.400" cy="189.674" r="1.000"/>
    <circle cx="494.400" cy="208.874" r="1.000"/>
    <circle cx="494.400" cy="228.074" r="1.000"/>
    <circle cx="494.400" cy="247.274" r="1.000"/>
    <circle cx="494.400" cy="266.474" r="1.000"/>
    <circle cx="494.400" cy="285.674" r="1.000"/>
    <circle cx="494.400" cy="304.874" r="1.000"/>
    <circle cx="494.400" cy="324.074" r="1.000"/>
    <circle cx="494.400" cy="343.274" r="1.000"/>
    <circle cx="494.400" cy="362.474" r="1.000"/>
    <circle cx="494.400" cy="381.674" r="1.000"/>
    <circle cx="494.400" cy="400.874" r="1.000"/>
    <circle cx="494.400" cy="420.074" r="1.000"/>
    <circle cx="494.400" cy="439.274" r="1.000"/>
    <circle cx="494.400" cy="458.474" r="1.000"/>
    <circle cx="494.400" cy="477.674" r="1.000"/>
    <circle cx="494.400" cy="496.874" r="1.000"/>
    <circle cx="494.400" cy="516.074" r="1.000"/>
    <circle cx="494.400" cy="535.274" r="1.000"/>
    <circle cx="494.400" cy="554.474" r="1.000"/>
    <circle cx="494.400" cy="573.674" r="1.000"/>
    <circle cx="494.400" cy="592.874" r="1.000"/>
    <circle cx="494.400" cy="612.074" r="1.000"/>
    <circle cx="494.400" cy="631.274" r="1.000"/>
    <circle cx="494.400" cy="650.474" r="1.000"/>
    <circle cx="494.400" cy="669.674" r="1.000"/>
    <circle cx="494.400" cy="688.874" r="1.000"/>
    <circle cx="494.400" cy="708.074" r="1.000"/>
    <circle cx="494.400" cy="727.274" r="1.000"/>
    <circle cx="494.400" cy="746.474" r="1.000"/>
    <circle cx="494.400" cy="765.674" r="1.000"/>
    <text x="33.600" y="67.274">0</text>
    <text x="33.600" y="777.674">0</text>
    <text x="110.400" y="67.274">4</text>
    <text x="110.400" y="777.674">4</text>
    <text x="187.200" y="67.274">8</text>
    <text x="187.200" y="777.674">8</text>
    <text x="264.000" y="67.274">12</text>
    <text x="264.000" y="777.674">12</text>
    <text x="340.800" y="67.274">16</text>
    <text x="340.800" y="777.674">16</text>
    <text x="417.600" y="67.274">20</text>
    <text x="417.600" y="777.674">20</text>
    <text x="494.400" y="67.274">24</text>
    <text x="494.400" y="777.674">24</text>
    <text style="text-anchor: middle" x="22.080" y="76.874">0</text>
    <text style="text-anchor: middle" x="505.920" y="76.874">0</text>
    <text style="text-anchor: middle" x="22.080" y="192.074">6</text>
    <text style="text-anchor: middle" x="505.920" y="192.074">6</text>
    <text style="text-anchor: middle" x="22.080" y="307.274">12</text>
    <text style="text-anchor: middle" x="505.920" y="307.274">12</text>
    <text style="text-anchor: middle" x="22.080" y="422.474">18</text>
    <text style="text-anchor: middle" x="505.920" y="422.474">18</text>
    <text style="text-anchor: middle" x="22.080" y="537.674">24</text>
    <text style="text-anchor: middle" x="505.920" y="537.674">24</text>
    <text style="text-anchor: middle" x="22.080" y="652.874">30</text>
    <text style="text-anchor: middle" x="505.920" y="652.874">30</text>
    <text style="text-anchor: middle" x="22.080" y="768.074">36</text>
    <text style="text-anchor: middle" x="505.920" y="768.074">36</text>
    <circle cx="33.600" cy="16.874" r="1.000"/>
    <circle cx="33.600" cy="36.074" r="1.000"/>
    <circle cx="33.600" cy="55.274" r="1.000"/>
    <circle cx="52.800" cy="16.874" r="1.000"/>
    <circle cx="52.800" cy="36.074" r="1.000"/>
    <circle cx="52.800" cy="55.274" r="1.000"/>
    <circle cx="72.000" cy="16.874" r="1.000"/>
    <circle cx="72.000" cy="36.074" r="1.000"/>
    <circle cx="72.000" cy="55.274" r="1.000"/>
    <circle cx="91.200" cy="16.874" r="1.000"/>
    <circle cx="91.200" cy="36.074" r="1.000"/>
    <circle cx="91.200" cy="55.274" r="1.000"/>
    <circle cx="110.400" cy="16.874" r="1.000"/>
    <circle cx="110.400" cy="36.074" r="1.000"/>
    <circle cx="110.400" cy="55.274" r="1.000"/>
    <circle cx="129.600" cy="16.874" r="1.000"/>
    <circle cx="129.600" cy="36.074" r="1.000"/>
    <circle cx="129.600" cy="55.274" r="1.000"/>
    <circle cx="148.800" cy="16.874" r="1.000"/>
    <circle cx="148.800" cy="36.074" r="1.000"/>
    <circle cx="148.800" cy="55.274" r="1.000"/>
    <circle cx="168.000" cy="16.874" r="1.000"/>
    <circle cx="168.000" cy="36.074" r="1.000"/>
    <circle cx="168.000" cy="55.274" r="1.000"/>
    <circle cx="187.200" cy="16.874" r="1.000"/>
    <circle cx="187.200" cy="36.074" r="1.000"/>
    <circle cx="187.200" cy="55.274" r="1.000"/>
    <circle cx="206.400" cy="16.874" r="1.000"/>
    <circle cx="206.400" cy="36.074" r="1.000"/>
    <circle cx="206.400" cy="55.274" r="1.000"/>
    <circle cx="225.600" cy="16.874" r="1.000"/>
    <circle cx="225.600" cy="36.074" r="1.000"/>
    <circle cx="225.600" cy="55.274" r="1.000"/>
    <circle cx="244.800" cy="16.874" r="1.000"/>
    <circle cx="244.800" cy="36.074" r="1.000"/>
    <circle cx="244.800" cy="55.274" r="1.000"/>
    <circle cx="264.000" cy="16.874" r="1.000"/>
    <circle cx="264.000" cy="36.074" r="1.000"/>
    <circle cx="264.000" cy="55.274" r="1.000"/>
    <circle cx="283.200" cy="16.874" r="1.000"/>
    <circle cx="283.200" cy="36.074" r="1.000"/>
    <circle cx="283.200" cy="55.274" r="1.000"/>
    <circle cx="302.400" cy="16.874" r="1.000"/>
    <circle cx="302.400" cy="36.074" r="1.000"/>
    <circle cx="302.400" cy="55.274" r="1.000"/>
    <circle cx="321.600" cy="16.874" r="1.000"/>
    <circle cx="321.600" cy="36.074" r="1.000"/>
    <circle cx="321.600" cy="55.274" r="1.000"/>
    <circle cx="340.800" cy="16.874" r="1.000"/>
    <circle cx="340.800" cy="36.074" r="1.000"/>
    <circle cx="340.800" cy="55.274" r="1.000"/>
    <circle cx="360.000" cy="16.874" r="1.000"/>
    <circle cx="360.000" cy="36.074" r="1.000"/>
    <circle cx="360.000" cy="55.274" r="1.000"/>
    <circle cx="379.200" cy="16.874" r="1.000"/>
    <circle cx="379.200" cy="36.074" r="1.000"/>
    <circle cx="379.200" cy="55.274" r="1.000"/>
    <circle cx="398.400" cy="16.874" r="1.000"/>
    <circle cx="398.400" cy="36.074" r="1.000"/>
    <circle cx="398.400" cy="55.274" r="1.000"/>
    <circle cx="417.600" cy="16.874" r="1.000"/>
    <circle cx="417.600" cy="36.074" r="1.000"/>
    <circle cx="417.600" cy="55.274" r="1.000"/>
    <circle cx="436.800" cy="16.874" r="1.000"/>
    <circle cx="436.800" cy="36.074" r="1.000"/>
    <circle cx="436.800" cy="55.274" r="1.000"/>
    <circle cx="456.000" cy="16.874" r="1.000"/>
    <circle cx="456.000" cy="36.074" r="1.000"/>
    <circle cx="456.000" cy="55.274" r="1.000"/>
    <circle cx="475.200" cy="16.874" r="1.000"/>
    <circle cx="475.200" cy="36.074" r="1.000"/>
    <circle cx="475.200" cy="55.274" r="1.000"/>
    <circle cx="494.400" cy="16.874" r="1.000"/>
    <circle cx="494.400" cy="36.074" r="1.000"/>
    <circle cx="494.400" cy="55.274" r="1.000"/>
  </g>
</svg>
