<?xml version="1.0" encoding="UTF-8"?>
<svg xmlns="http://www.w3.org/2000/svg" version="1.1" width="528.000px" height="816.000px" viewBox="0.000 0.000 528.000 816.000">
  <style>line, rect {
    fill: none;
    stroke-width: 0.16px;
    stroke: #95c9d7;
    stroke-linecap: round;
    stroke-linejoin: round;
}
.minor {
    stroke-width: 0.32px;
}
.major {
    stroke-width: 0.64px;
}
</style>
  <g id="document">
    <line class="major" x1="37.228" x2="37.228" y1="19.321" y2="775.227"/>
    <line class="feint" x1="44.787" x2="44.787" y1="19.321" y2="775.227"/>
    <line class="feint" x1="52.346" x2="52.346" y1="19.321" y2="775.227"/>
    <line class="feint" x1="59.906" x2="59.906" y1="19.321" y2="775.227"/>
    <line class="feint" x1="67.465" x2="67.465" y1="19.321" y2="775.227"/>
    <line class="feint" x1="75.024" x2="75.024" y1="19.321" y2="775.227"/>
    <line class="feint" x1="82.583" x2="82.583" y1="19.321" y2="775.227"/>
    <line class="feint" x1="90.142" x2="90.142" y1="19.321" y2="775.227"/>
    <line class="feint" x1="97.701" x2="97.701" y1="19.321" y2="775.227"/>
    <line class="feint" x1="105.260" x2="105.260" y1="19.321" y2="775.227"/>
    <line class="feint" x1="112.819" x2="112.819" y1="19.321" y2="775.227"/>
    <line class="feint" x1="120.378" x2="120.378" y1="19.321" y2="775.227"/>
    <line class="major" x1="127.937" x2="127.937" y1="19.321" y2="775.227"/>
    <line class="feint" x1="135.496" x2="135.496" y1="19.321" y2="775.227"/>
    <line class="feint" x1="143.055" x2="143.055" y1="19.321" y2="775.227"/>
    <line class="feint" x1="150.614" x2="150.614" y1="19.321" y2="775.227"/>
    <line class="feint" x1="158.173" x2="158.173" y1="19.321" y2="775.227"/>
    <line class="feint" x1="165.732" x2="165.732" y1="19.321" y2="775.227"/>
    <line class="feint" x1="173.291" x2="173.291" y1="19.321" y2="775.227"/>
    <line class="feint" x1="180.850" x2="180.850" y1="19.321" y2="775.227"/>
    <line class="feint" x1="188.409" x2="188.409" y1="19.321" y2="775.227"/>
    <line class="feint" x1="195.969" x2="195.969" y1="19.321" y2="775.227"/>
    <line class="feint" x1="203.528" x2="203.528" y1="19.321" y2="775.227"/>
    <line class="feint" x1="211.087" x2="211.087" y1="19.321" y2="775.227"/>
    <line class="major" x1="218.646" x2="218.646" y1="19.321" y2="775.227"/>
    <line class="feint" x1="226.205" x2="226.205" y1="19.321" y2="775.227"/>
    <line class="feint" x1="233.764" x2="233.764" y1="19.321" y2="775.227"/>
    <line class="feint" x1="241.323" x2="241.323" y1="19.321" y2="775.227"/>
    <line class="feint" x1="248.882" x2="248.882" y1="19.321" y2="775.227"/>
    <line class="feint" x1="256.441" x2="256.441" y1="19.321" y2="775.227"/>
    <line class="feint" x1="264.000" x2="264.000" y1="19.321" y2="775.227"/>
    <line class="feint" x1="271.559" x2="271.559" y1="19.321" y2="775.227"/>
    <line class="feint" x1="279.118" x2="279.118" y1="19.321" y2="775.227"/>
    <line class="feint" x1="286.677" x2="286.677" y1="19.321" y2="775.227"/>
    <line class="feint" x1="294.236" x2="294.236" y1="19.321" y2="775.227"/>
    <line class="feint" x1="301.795" x2="301.795" y1="19.321" y2="775.227"/>
    <line class="major" x1="309.354" x2="309.354" y1="19.321" y2="775.227"/>
    <line class="feint" x1="316.913" x2="316.913" y1="19.321" y2="775.227"/>
    <line class="feint" x1="324.472" x2="324.472" y1="19.321" y2="775.227"/>
    <line class="feint" x1="332.031" x2="332.031" y1="19.321" y2="775.227"/>
    <line class="feint" x1="339.591" x2="339.591" y1="19.321" y2="775.227"/>
    <line class="feint" x1="347.150" x2="347.150" y1="19.321" y2="775.227"/>
    <line class="feint" x1="354.709" x2="354.709" y1="19.321" y2="775.227"/>
    <line class="feint" x1="362.268" x2="362.268" y1="19.321" y2="775.227"/>
    <line class="feint" x1="369.827" x2="369.827" y1="19.321" y2="775.227"/>
    <line class="feint" x1="377.386" x2="377.386" y1="19.321" y2="775.227"/>
    <line class="feint" x1="384.945" x2="384.945" y1="19.321" y2="775.227"/>
    <line class="feint" x1="392.504" x2="392.504" y1="19.321" y2="775.227"/>
    <line class="major" x1="400.063" x2="400.063" y1="19.321" y2="775.227"/>
    <line class="feint" x1="407.622" x2="407.622" y1="19.321" y2="775.227"/>
    <line class="feint" x1="415.181" x2="415.181" y1="19.321" y2="775.227"/>
    <line class="feint" x1="422.740" x2="422.740" y1="19.321" y2="775.227"/>
    <line class="feint" x1="430.299" x2="430.299" y1="19.321" y2="775.227"/>
    <line class="feint" x1="437.858" x2="437.858" y1="19.321" y2="775.227"/>
    <line class="feint" x1="445.417" x2="445.417" y1="19.321" y2="775.227"/>
    <line class="feint" x1="452.976" x2="452.976" y1="19.321" y2="775.227"/>
    <line class="feint" x1="460.535" x2="460.535" y1="19.321" y2="775.227"/>
    <line class="feint" x1="468.094" x2="468.094" y1="19.321" y2="775.227"/>
    <line class="feint" x1="475.654" x2="475.654" y1="19.321" y2="775.227"/>
    <line class="feint" x1="483.213" x2="483.213" y1="19.321" y2="775.227"/>
    <line class="major" x1="490.772" x2="490.772" y1="19.321" y2="775.227"/>
    <line class="feint" x1="37.228" x2="490.772" y1="19.321" y2="19.321"/>
    <line class="feint" x1="37.228" x2="490.772" y1="26.880" y2="26.880"/>
    <line class="major" x1="37.228" x2="490.772" y1="34.439" y2="34.439"/>
    <line class="feint" x1="37.228" x2="490.772" y1="41.998" y2="41.998"/>
    <line class="feint" x1="37.228" x2="490.772" y1="49.557" y2="49.557"/>
    <line class="feint" x1="37.228" x2="490.772" y1="57.116" y2="57.116"/>
    <line class="feint" x1="37.228" x2="490.772" y1="64.675" y2="64.675"/>
    <line class="feint" x1="37.228" x2="490.772" y1="72.235" y2="72.235"/>
    <line class="feint" x1="37.228" x2="490.772" y1="79.794" y2="79.794"/>
    <line class="feint" x1="37.228" x2="490.772" y1="87.353" y2="87.353"/>
    <line class="feint" x1="37.228" x2="490.772" y1="94.912" y2="94.912"/>
    <line class="feint" x1="37.228" x2="490.772" y1="102.471" y2="102.471"/>
    <line class="feint" x1="37.228" x2="490.772" y1="110.030" y2="110.030"/>
    <line class="feint" x1="37.228" x2="490.772" y1="117.589" y2="117.589"/>
    <line class="major" x1="37.228" x2="490.772" y1="125.148" y2="125.148"/>
    <line class="feint" x1="37.228" x2="490.772" y1="132.707" y2="132.707"/>
    <line class="feint" x1="37.228" x2="490.772" y1="140.266" y2="140.266"/>
    <line class="feint" x1="37.228" x2="490.772" y1="147.825" y2="147.825"/>
    <line class="feint" x1="37.228" x2="490.772" y1="155.384" y2="155.384"/>
    <line class="feint" x1="37.228" x2="490.772" y1="162.943" y2="162.943"/>
    <line class="feint" x1="37.228" x2="490.772" y1="170.502" y2="170.502"/>
    <line class="feint" x1="37.228" x2="490.772" y1="178.061" y2="178.061"/>
    <line class="feint" x1="37.228" x2="490.772" y1="185.620" y2="185.620"/>
    <line class="feint" x1="37.228" x2="490.772" y1="193.179" y2="193.179"/>
    <line class="feint" x1="37.228" x2="490.772" y1="200.738" y2="200.738"/>
    <line class="feint" x1="37.228" x2="490.772" y1="208.298" y2="208.298"/>
    <line class="major" x1="37.228" x2="490.772" y1="215.857" y2="215.857"/>
    <line class="feint" x1="37.228" x2="490.772" y1="223.416" y2="223.416"/>
    <line class="feint" x1="37.228" x2="490.772" y1="230.975" y2="230.975"/>
    <line class="feint" x1="37.228" x2="490.772" y1="238.534" y2="238.534"/>
    <line class="feint" x1="37.228" x2="490.772" y1="246.093" y2="246.093"/>
    <line class="feint" x1="37.228" x2="490.772" y1="253.652" y2="253.652"/>
    <line class="feint" x1="37.228" x2="490.772" y1="261.211" y2="261.211"/>
    <line class="feint" x1="37.228" x2="490.772" y1="268.770" y2="268.770"/>
    <line class="feint" x1="37.228" x2="490.772" y1="276.329" y2="276.329"/>
    <line class="feint" x1="37.228" x2="490.772" y1="283.888" y2="283.888"/>
    <line class="feint" x1="37.228" x2="490.772" y1="291.447" y2="291.447"/>
    <line class="feint" x1="37.228" x2="490.772" y1="299.006" y2="299.006"/>
    <line class="major" x1="37.228" x2="490.772" y1="306.565" y2="306.565"/>
    <line class="feint" x1="37.228" x2="490.772" y1="314.124" y2="314.124"/>
    <line class="feint" x1="37.228" x2="490.772" y1="321.683" y2="321.683"/>
    <line class="feint" x1="37.228" x2="490.772" y1="329.242" y2="329.242"/>
    <line class="feint" x1="37.228" x2="490.772" y1="336.801" y2="336.801"/>
    <line class="feint" x1="37.228" x2="490.772" y1="344.361" y2="344.361"/>
    <line class="feint" x1="37.228" x2="490.772" y1="351.920" y2="351.920"/>
    <line class="feint" x1="37.228" x2="490.772" y1="359.479" y2="359.479"/>
    <line class="feint" x1="37.228" x2="490.772" y1="367.038" y2="367.038"/>
    <line class="feint" x1="37.228" x2="490.772" y1="374.597" y2="374.597"/>
    <line class="feint" x1="37.228" x2="490.772" y1="382.156" y2="382.156"/>
    <line class="feint" x1="37.228" x2="490.772" y1="389.715" y2="389.715"/>
    <line class="major" x1="37.228" x2="490.772" y1="397.274" y2="397.274"/>
    <line class="feint" x1="37.228" x2="490.772" y1="404.833" y2="404.833"/>
    <line class="feint" x1="37.228" x2="490.772" y1="412.392" y2="412.392"/>
    <line class="feint" x1="37.228" x2="490.772" y1="419.951" y2="419.951"/>
    <line class="feint" x1="37.228" x2="490.772" y1="427.510" y2="427.510"/>
    <line class="feint" x1="37.228" x2="490.772" y1="435.069" y2="435.069"/>
    <line class="feint" x1="37.228" x2="490.772" y1="442.628" y2="442.628"/>
    <line class="feint" x1="37.228" x2="490.772" y1="450.187" y2="450.187"/>
    <line class="feint" x1="37.228" x2="490.772" y1="457.746" y2="457.746"/>
    <line class="feint" x1="37.228" x2="490.772" y1="465.305" y2="465.305"/>
    <line class="feint" x1="37.228" x2="490.772" y1="472.864" y2="472.864"/>
    <line class="feint" x1="37.228" x2="490.772" y1="480.424" y2="480.424"/>
    <line class="major" x1="37.228" x2="490.772" y1="487.983" y2="487.983"/>
    <line class="feint" x1="37.228" x2="490.772" y1="495.542" y2="495.542"/>
    <line class="feint" x1="37.228" x2="490.772" y1="503.101" y2="503.101"/>
    <line class="feint" x1="37.228" x2="490.772" y1="510.660" y2="510.660"/>
    <line class="feint" x1="37.228" x2="490.772" y1="518.219" y2="518.219"/>
    <line class="feint" x1="37.228" x2="490.772" y1="525.778" y2="525.778"/>
    <line class="feint" x1="37.228" x2="490.772" y1="533.337" y2="533.337"/>
    <line class="feint" x1="37.228" x2="490.772" y1="540.896" y2="540.896"/>
    <line class="feint" x1="37.228" x2="490.772" y1="548.455" y2="548.455"/>
    <line class="feint" x1="37.228" x2="490.772" y1="556.014" y2="556.014"/>
    <line class="feint" x1="37.228" x2="490.772" y1="563.573" y2="563.573"/>
    <line class="feint" x1="37.228" x2="490.772" y1="571.132" y2="571.132"/>
    <line class="major" x1="37.228" x2="490.772" y1="578.691" y2="578.691"/>
    <line class="feint" x1="37.228" x2="490.772" y1="586.250" y2="586.250"/>
    <line class="feint" x1="37.228" x2="490.772" y1="593.809" y2="593.809"/>
    <line class="feint" x1="37.228" x2="490.772" y1="601.368" y2="601.368"/>
    <line class="feint" x1="37.228" x2="490.772" y1="608.927" y2="608.927"/>
    <line class="feint" x1="37.228" x2="490.772" y1="616.486" y2="616.486"/>
    <line class="feint" x1="37.228" x2="490.772" y1="624.046" y2="624.046"/>
    <line class="feint" x1="37.228" x2="490.772" y1="631.605" y2="631.605"/>
    <line class="feint" x1="37.228" x2="490.772" y1="639.164" y2="639.164"/>
    <line class="feint" x1="37.228" x2="490.772" y1="646.723" y2="646.723"/>
    <line class="feint" x1="37.228" x2="490.772" y1="654.282" y2="654.282"/>
    <line class="feint" x1="37.228" x2="490.772" y1="661.841" y2="661.841"/>
    <line class="major" x1="37.228" x2="490.772" y1="669.400" y2="669.400"/>
    <line class="feint" x1="37.228" x2="490.772" y1="676.959" y2="676.959"/>
    <line class="feint" x1="37.228" x2="490.772" y1="684.518" y2="684.518"/>
    <line class="feint" x1="37.228" x2="490.772" y1="692.077" y2="692.077"/>
    <line class="feint" x1="37.228" x2="490.772" y1="699.636" y2="699.636"/>
    <line class="feint" x1="37.228" x2="490.772" y1="707.195" y2="707.195"/>
    <line class="feint" x1="37.228" x2="490.772" y1="714.754" y2="714.754"/>
    <line class="feint" x1="37.228" x2="490.772" y1="722.313" y2="722.313"/>
    <line class="feint" x1="37.228" x2="490.772" y1="729.872" y2="729.872"/>
    <line class="feint" x1="37.228" x2="490.772" y1="737.431" y2="737.431"/>
    <line class="feint" x1="37.228" x2="490.772" y1="744.990" y2="744.990"/>
    <line class="feint" x1="37.228" x2="490.772" y1="752.549" y2="752.549"/>
    <line class="major" x1="37.228" x2="490.772" y1="760.109" y2="760.109"/>
    <line class="feint" x1="37.228" x2="490.772" y1="767.668" y2="767.668"/>
    <line class="feint" x1="37.228" x2="490.772" y1="775.227" y2="775.227"/>
  </g>
</svg>
