<?xml version="1.0" encoding="UTF-8"?>
<svg xmlns="http://www.w3.org/2000/svg" version="1.1" width="528.000px" height="816.000px" viewBox="0.000 0.000 528.000 816.000">
  <style>line, rect {
    fill: none;
    stroke-width: 0.64px;
    stroke: #95c9d7;
    stroke-linecap: round;
    stroke-linejoin: round;
}
.major {
    stroke-width: 1.92px;
}
</style>
  <g id="document">
    <line class="major" x1="27.780" x2="27.780" y1="19.321" y2="775.227"/>
    <line class="minor" x1="37.228" x2="37.228" y1="19.321" y2="775.227"/>
    <line class="minor" x1="46.677" x2="46.677" y1="19.321" y2="775.227"/>
    <line class="minor" x1="56.126" x2="56.126" y1="19.321" y2="775.227"/>
    <line class="minor" x1="65.575" x2="65.575" y1="19.321" y2="775.227"/>
    <line class="minor" x1="75.024" x2="75.024" y1="19.321" y2="775.227"/>
    <line class="minor" x1="84.472" x2="84.472" y1="19.321" y2="775.227"/>
    <line class="minor" x1="93.921" x2="93.921" y1="19.321" y2="775.227"/>
    <line class="minor" x1="103.370" x2="103.370" y1="19.321" y2="775.227"/>
    <line class="minor" x1="112.819" x2="112.819" y1="19.321" y2="775.227"/>
    <line class="major" x1="122.268" x2="122.268" y1="19.321" y2="775.227"/>
    <line class="minor" x1="131.717" x2="131.717" y1="19.321" y2="775.227"/>
    <line class="minor" x1="141.165" x2="141.165" y1="19.321" y2="775.227"/>
    <line class="minor" x1="150.614" x2="150.614" y1="19.321" y2="775.227"/>
    <line class="minor" x1="160.063" x2="160.063" y1="19.321" y2="775.227"/>
    <line class="minor" x1="169.512" x2="169.512" y1="19.321" y2="775.227"/>
    <line class="minor" x1="178.961" x2="178.961" y1="19.321" y2="775.227"/>
    <line class="minor" x1="188.409" x2="188.409" y1="19.321" y2="775.227"/>
    <line class="minor" x1="197.858" x2="197.858" y1="19.321" y2="775.227"/>
    <line class="minor" x1="207.307" x2="207.307" y1="19.321" y2="775.227"/>
    <line class="major" x1="216.756" x2="216.756" y1="19.321" y2="775.227"/>
    <line class="minor" x1="226.205" x2="226.205" y1="19.321" y2="775.227"/>
    <line class="minor" x1="235.654" x2="235.654" y1="19.321" y2="775.227"/>
    <line class="minor" x1="245.102" x2="245.102" y1="19.321" y2="775.227"/>
    <line class="minor" x1="254.551" x2="254.551" y1="19.321" y2="775.227"/>
    <line class="minor" x1="264.000" x2="264.000" y1="19.321" y2="775.227"/>
    <line class="minor" x1="273.449" x2="273.449" y1="19.321" y2="775.227"/>
    <line class="minor" x1="282.898" x2="282.898" y1="19.321" y2="775.227"/>
    <line class="minor" x1="292.346" x2="292.346" y1="19.321" y2="775.227"/>
    <line class="minor" x1="301.795" x2="301.795" y1="19.321" y2="775.227"/>
    <line class="major" x1="311.244" x2="311.244" y1="19.321" y2="775.227"/>
    <line class="minor" x1="320.693" x2="320.693" y1="19.321" y2="775.227"/>
    <line class="minor" x1="330.142" x2="330.142" y1="19.321" y2="775.227"/>
    <line class="minor" x1="339.591" x2="339.591" y1="19.321" y2="775.227"/>
    <line class="minor" x1="349.039" x2="349.039" y1="19.321" y2="775.227"/>
    <line class="minor" x1="358.488" x2="358.488" y1="19.321" y2="775.227"/>
    <line class="minor" x1="367.937" x2="367.937" y1="19.321" y2="775.227"/>
    <line class="minor" x1="377.386" x2="377.386" y1="19.321" y2="775.227"/>
    <line class="minor" x1="386.835" x2="386.835" y1="19.321" y2="775.227"/>
    <line class="minor" x1="396.283" x2="396.283" y1="19.321" y2="775.227"/>
    <line class="major" x1="405.732" x2="405.732" y1="19.321" y2="775.227"/>
    <line class="minor" x1="415.181" x2="415.181" y1="19.321" y2="775.227"/>
    <line class="minor" x1="424.630" x2="424.630" y1="19.321" y2="775.227"/>
    <line class="minor" x1="434.079" x2="434.079" y1="19.321" y2="775.227"/>
    <line class="minor" x1="443.528" x2="443.528" y1="19.321" y2="775.227"/>
    <line class="minor" x1="452.976" x2="452.976" y1="19.321" y2="775.227"/>
    <line class="minor" x1="462.425" x2="462.425" y1="19.321" y2="775.227"/>
    <line class="minor" x1="471.874" x2="471.874" y1="19.321" y2="775.227"/>
    <line class="minor" x1="481.323" x2="481.323" y1="19.321" y2="775.227"/>
    <line class="minor" x1="490.772" x2="490.772" y1="19.321" y2="775.227"/>
    <line class="major" x1="500.220" x2="500.220" y1="19.321" y2="775.227"/>
    <line class="major" x1="27.780" x2="500.220" y1="19.321" y2="19.321"/>
    <line class="minor" x1="27.780" x2="500.220" y1="28.770" y2="28.770"/>
    <line class="minor" x1="27.780" x2="500.220" y1="38.219" y2="38.219"/>
    <line class="minor" x1="27.780" x2="500.220" y1="47.668" y2="47.668"/>
    <line class="minor" x1="27.780" x2="500.220" y1="57.116" y2="57.116"/>
    <line class="minor" x1="27.780" x2="500.220" y1="66.565" y2="66.565"/>
    <line class="minor" x1="27.780" x2="500.220" y1="76.014" y2="76.014"/>
    <line class="minor" x1="27.780" x2="500.220" y1="85.463" y2="85.463"/>
    <line class="minor" x1="27.780" x2="500.220" y1="94.912" y2="94.912"/>
    <line class="minor" x1="27.780" x2="500.220" y1="104.361" y2="104.361"/>
    <line class="major" x1="27.780" x2="500.220" y1="113.809" y2="113.809"/>
    <line class="minor" x1="27.780" x2="500.220" y1="123.258" y2="123.258"/>
    <line class="minor" x1="27.780" x2="500.220" y1="132.707" y2="132.707"/>
    <line class="minor" x1="27.780" x2="500.220" y1="142.156" y2="142.156"/>
    <line class="minor" x1="27.780" x2="500.220" y1="151.605" y2="151.605"/>
    <line class="minor" x1="27.780" x2="500.220" y1="161.053" y2="161.053"/>
    <line class="minor" x1="27.780" x2="500.220" y1="170.502" y2="170.502"/>
    <line class="minor" x1="27.780" x2="500.220" y1="179.951" y2="179.951"/>
    <line class="minor" x1="27.780" x2="500.220" y1="189.400" y2="189.400"/>
    <line class="minor" x1="27.780" x2="500.220" y1="198.849" y2="198.849"/>
    <line class="major" x1="27.780" x2="500.220" y1="208.298" y2="208.298"/>
    <line class="minor" x1="27.780" x2="500.220" y1="217.746" y2="217.746"/>
    <line class="minor" x1="27.780" x2="500.220" y1="227.195" y2="227.195"/>
    <line class="minor" x1="27.780" x2="500.220" y1="236.644" y2="236.644"/>
    <line class="minor" x1="27.780" x2="500.220" y1="246.093" y2="246.093"/>
    <line class="minor" x1="27.780" x2="500.220" y1="255.542" y2="255.542"/>
    <line class="minor" x1="27.780" x2="500.220" y1="264.990" y2="264.990"/>
    <line class="minor" x1="27.780" x2="500.220" y1="274.439" y2="274.439"/>
    <line class="minor" x1="27.780" x2="500.220" y1="283.888" y2="283.888"/>
    <line class="minor" x1="27.780" x2="500.220" y1="293.337" y2="293.337"/>
    <line class="major" x1="27.780" x2="500.220" y1="302.786" y2="302.786"/>
    <line class="minor" x1="27.780" x2="500.220" y1="312.235" y2="312.235"/>
    <line class="minor" x1="27.780" x2="500.220" y1="321.683" y2="321.683"/>
    <line class="minor" x1="27.780" x2="500.220" y1="331.132" y2="331.132"/>
    <line class="minor" x1="27.780" x2="500.220" y1="340.581" y2="340.581"/>
    <line class="minor" x1="27.780" x2="500.220" y1="350.030" y2="350.030"/>
    <line class="minor" x1="27.780" x2="500.220" y1="359.479" y2="359.479"/>
    <line class="minor" x1="27.780" x2="500.220" y1="368.927" y2="368.927"/>
    <line class="minor" x1="27.780" x2="500.220" y1="378.376" y2="378.376"/>
    <line class="minor" x1="27.780" x2="500.220" y1="387.825" y2="387.825"/>
    <line class="major" x1="27.780" x2="500.220" y1="397.274" y2="397.274"/>
    <line class="minor" x1="27.780" x2="500.220" y1="406.723" y2="406.723"/>
    <line class="minor" x1="27.780" x2="500.220" y1="416.172" y2="416.172"/>
    <line class="minor" x1="27.780" x2="500.220" y1="425.620" y2="425.620"/>
    <line class="minor" x1="27.780" x2="500.220" y1="435.069" y2="435.069"/>
    <line class="minor" x1="27.780" x2="500.220" y1="444.518" y2="444.518"/>
    <line class="minor" x1="27.780" x2="500.220" y1="453.967" y2="453.967"/>
    <line class="minor" x1="27.780" x2="500.220" y1="463.416" y2="463.416"/>
    <line class="minor" x1="27.780" x2="500.220" y1="472.864" y2="472.864"/>
    <line class="minor" x1="27.780" x2="500.220" y1="482.313" y2="482.313"/>
    <line class="major" x1="27.780" x2="500.220" y1="491.762" y2="491.762"/>
    <line class="minor" x1="27.780" x2="500.220" y1="501.211" y2="501.211"/>
    <line class="minor" x1="27.780" x2="500.220" y1="510.660" y2="510.660"/>
    <line class="minor" x1="27.780" x2="500.220" y1="520.109" y2="520.109"/>
    <line class="minor" x1="27.780" x2="500.220" y1="529.557" y2="529.557"/>
    <line class="minor" x1="27.780" x2="500.220" y1="539.006" y2="539.006"/>
    <line class="minor" x1="27.780" x2="500.220" y1="548.455" y2="548.455"/>
    <line class="minor" x1="27.780" x2="500.220" y1="557.904" y2="557.904"/>
    <line class="minor" x1="27.780" x2="500.220" y1="567.353" y2="567.353"/>
    <line class="minor" x1="27.780" x2="500.220" y1="576.801" y2="576.801"/>
    <line class="major" x1="27.780" x2="500.220" y1="586.250" y2="586.250"/>
    <line class="minor" x1="27.780" x2="500.220" y1="595.699" y2="595.699"/>
    <line class="minor" x1="27.780" x2="500.220" y1="605.148" y2="605.148"/>
    <line class="minor" x1="27.780" x2="500.220" y1="614.597" y2="614.597"/>
    <line class="minor" x1="27.780" x2="500.220" y1="624.046" y2="624.046"/>
    <line class="minor" x1="27.780" x2="500.220" y1="633.494" y2="633.494"/>
    <line class="minor" x1="27.780" x2="500.220" y1="642.943" y2="642.943"/>
    <line class="minor" x1="27.780" x2="500.220" y1="652.392" y2="652.392"/>
    <line class="minor" x1="27.780" x2="500.220" y1="661.841" y2="661.841"/>
    <line class="minor" x1="27.780" x2="500.220" y1="671.290" y2="671.290"/>
    <line class="major" x1="27.780" x2="500.220" y1="680.738" y2="680.738"/>
    <line class="minor" x1="27.780" x2="500.220" y1="690.187" y2="690.187"/>
    <line class="minor" x1="27.780" x2="500.220" y1="699.636" y2="699.636"/>
    <line class="minor" x1="27.780" x2="500.220" y1="709.085" y2="709.085"/>
    <line class="minor" x1="27.780" x2="500.220" y1="718.534" y2="718.534"/>
    <line class="minor" x1="27.780" x2="500.220" y1="727.983" y2="727.983"/>
    <line class="minor" x1="27.780" x2="500.220" y1="737.431" y2="737.431"/>
    <line class="minor" x1="27.780" x2="500.220" y1="746.880" y2="746.880"/>
    <line class="minor" x1="27.780" x2="500.220" y1="756.329" y2="756.329"/>
    <line class="minor" x1="27.780" x2="500.220" y1="765.778" y2="765.778"/>
    <line class="major" x1="27.780" x2="500.220" y1="775.227" y2="775.227"/>
  </g>
</svg>
