<?xml version="1.0" encoding="UTF-8"?>
<svg xmlns="http://www.w3.org/2000/svg" width="297.955pt" height="421.373pt" viewBox="0.000 0.000 297.955 421.373">
  <style>
        .line, .regular-line, .major-line, .feint-line,
        .dot,  .regular-dot,  .major-dot,  .feint-dot,
        .margin-line {
            stroke-linecap: round; stroke-linejoin: round;
        }
        .stroke-linecap-butt    { stroke-linecap:  butt;   }
        .stroke-linecap-round   { stroke-linecap:  round;  }
        .stroke-linecap-square  { stroke-linecap:  square; }
        .stroke-linejoin-butt   { stroke-linejoin: butt;   }
        .stroke-linejoin-round  { stroke-linejoin: round;  }
        .stroke-linejoin-square { stroke-linejoin: square; }
        .rectangle { fill: #ffffff; }


        .regular-line { stroke-width: 0.96px; opacity: 1; }
        .major-line   { stroke-width: 1.35764501987817px; opacity: 1;   }
        .feint-line   { stroke-width: 0.678822509939086px; opacity: 1;   }
        .regular-dot  { stroke-width: 1.92px; opacity: 1;  }
        .major-dot    { stroke-width: 3.84px; opacity: 1;    }
        .feint-dot    { stroke-width: 0.96px; opacity: 1;    }
        .margin-line  { stroke-width: 0.96px; opacity: 1;  }
        .regular-line { stroke: #b3b3ff; }
        .major-line   { stroke: #b3b3ff;   }
        .feint-line   { stroke: #b3b3ff;   }
        .regular-dot  { stroke: #b3b3ff; }
        .major-dot    { stroke: #b3b3ff;   }
        .feint-dot    { stroke: #b3b3ff;   }
        .margin-line  { stroke: #ff9e9e;  }
  </style>
  <defs/>
  <g id="grid">
    <line x1="0.000" x2="297.955" y1="5.174" y2="5.174" class="regular-line horizontal"/>
    <line x1="0.000" x2="297.955" y1="19.348" y2="19.348" class="regular-line horizontal"/>
    <line x1="0.000" x2="297.955" y1="33.521" y2="33.521" class="regular-line horizontal"/>
    <line x1="0.000" x2="297.955" y1="47.694" y2="47.694" class="regular-line horizontal"/>
    <line x1="0.000" x2="297.955" y1="61.867" y2="61.867" class="regular-line horizontal"/>
    <line x1="0.000" x2="297.955" y1="76.041" y2="76.041" class="regular-line horizontal"/>
    <line x1="0.000" x2="297.955" y1="90.214" y2="90.214" class="regular-line horizontal"/>
    <line x1="0.000" x2="297.955" y1="104.387" y2="104.387" class="regular-line horizontal"/>
    <line x1="0.000" x2="297.955" y1="118.560" y2="118.560" class="regular-line horizontal"/>
    <line x1="0.000" x2="297.955" y1="132.734" y2="132.734" class="regular-line horizontal"/>
    <line x1="0.000" x2="297.955" y1="146.907" y2="146.907" class="regular-line horizontal"/>
    <line x1="0.000" x2="297.955" y1="161.080" y2="161.080" class="regular-line horizontal"/>
    <line x1="0.000" x2="297.955" y1="175.253" y2="175.253" class="regular-line horizontal"/>
    <line x1="0.000" x2="297.955" y1="189.426" y2="189.426" class="regular-line horizontal"/>
    <line x1="0.000" x2="297.955" y1="203.600" y2="203.600" class="regular-line horizontal"/>
    <line x1="0.000" x2="297.955" y1="217.773" y2="217.773" class="regular-line horizontal"/>
    <line x1="0.000" x2="297.955" y1="231.946" y2="231.946" class="regular-line horizontal"/>
    <line x1="0.000" x2="297.955" y1="246.119" y2="246.119" class="regular-line horizontal"/>
    <line x1="0.000" x2="297.955" y1="260.293" y2="260.293" class="regular-line horizontal"/>
    <line x1="0.000" x2="297.955" y1="274.466" y2="274.466" class="regular-line horizontal"/>
    <line x1="0.000" x2="297.955" y1="288.639" y2="288.639" class="regular-line horizontal"/>
    <line x1="0.000" x2="297.955" y1="302.812" y2="302.812" class="regular-line horizontal"/>
    <line x1="0.000" x2="297.955" y1="316.986" y2="316.986" class="regular-line horizontal"/>
    <line x1="0.000" x2="297.955" y1="331.159" y2="331.159" class="regular-line horizontal"/>
    <line x1="0.000" x2="297.955" y1="345.332" y2="345.332" class="regular-line horizontal"/>
    <line x1="0.000" x2="297.955" y1="359.505" y2="359.505" class="regular-line horizontal"/>
    <line x1="0.000" x2="297.955" y1="373.678" y2="373.678" class="regular-line horizontal"/>
    <line x1="0.000" x2="297.955" y1="387.852" y2="387.852" class="regular-line horizontal"/>
    <line x1="0.000" x2="297.955" y1="402.025" y2="402.025" class="regular-line horizontal"/>
    <line x1="0.000" x2="297.955" y1="416.198" y2="416.198" class="regular-line horizontal"/>
    <line x1="0.159" x2="0.159" y1="0.000" y2="421.373" class="regular-line vertical"/>
    <line x1="14.332" x2="14.332" y1="0.000" y2="421.373" class="regular-line vertical"/>
    <line x1="28.505" x2="28.505" y1="0.000" y2="421.373" class="regular-line vertical"/>
    <line x1="42.678" x2="42.678" y1="0.000" y2="421.373" class="regular-line vertical"/>
    <line x1="56.852" x2="56.852" y1="0.000" y2="421.373" class="regular-line vertical"/>
    <line x1="71.025" x2="71.025" y1="0.000" y2="421.373" class="regular-line vertical"/>
    <line x1="85.198" x2="85.198" y1="0.000" y2="421.373" class="regular-line vertical"/>
    <line x1="99.371" x2="99.371" y1="0.000" y2="421.373" class="regular-line vertical"/>
    <line x1="113.545" x2="113.545" y1="0.000" y2="421.373" class="regular-line vertical"/>
    <line x1="127.718" x2="127.718" y1="0.000" y2="421.373" class="regular-line vertical"/>
    <line x1="141.891" x2="141.891" y1="0.000" y2="421.373" class="regular-line vertical"/>
    <line x1="156.064" x2="156.064" y1="0.000" y2="421.373" class="regular-line vertical"/>
    <line x1="170.238" x2="170.238" y1="0.000" y2="421.373" class="regular-line vertical"/>
    <line x1="184.411" x2="184.411" y1="0.000" y2="421.373" class="regular-line vertical"/>
    <line x1="198.584" x2="198.584" y1="0.000" y2="421.373" class="regular-line vertical"/>
    <line x1="212.757" x2="212.757" y1="0.000" y2="421.373" class="regular-line vertical"/>
    <line x1="226.930" x2="226.930" y1="0.000" y2="421.373" class="regular-line vertical"/>
    <line x1="241.104" x2="241.104" y1="0.000" y2="421.373" class="regular-line vertical"/>
    <line x1="255.277" x2="255.277" y1="0.000" y2="421.373" class="regular-line vertical"/>
    <line x1="269.450" x2="269.450" y1="0.000" y2="421.373" class="regular-line vertical"/>
    <line x1="283.623" x2="283.623" y1="0.000" y2="421.373" class="regular-line vertical"/>
    <line x1="297.797" x2="297.797" y1="0.000" y2="421.373" class="regular-line vertical"/>
  </g>
  <rect x="54.4777113638465" y="395.372599804113" width="189" height="12" fill="#ffffff" stroke="none" stroke-width="0px"/>
  <text x="148.977711363847" y="403.372599804113" text-anchor="middle" fill="#b3b3ff" stroke="none" stroke-width="0" style="font-family: &quot;Courier&quot;, &quot;Courier New&quot;, monospace; font-size: 6pt;">https://github.com/dse/printable-paper</text>
</svg>
