<?xml version="1.0" encoding="UTF-8"?>
<svg xmlns="http://www.w3.org/2000/svg" width="297.955pt" height="421.373pt" viewBox="0.000 0.000 297.955 421.373">
  <style>
        .line, .regular-line, .major-line, .feint-line,
        .dot,  .regular-dot,  .major-dot,  .feint-dot,
        .margin-line {
            stroke-linecap: round; stroke-linejoin: round;
        }
        .stroke-linecap-butt    { stroke-linecap:  butt;   }
        .stroke-linecap-round   { stroke-linecap:  round;  }
        .stroke-linecap-square  { stroke-linecap:  square; }
        .stroke-linejoin-butt   { stroke-linejoin: butt;   }
        .stroke-linejoin-round  { stroke-linejoin: round;  }
        .stroke-linejoin-square { stroke-linejoin: square; }
        .rectangle { fill: #ffffff; }


        .regular-line { stroke-width: 0.96px; opacity: 1; }
        .major-line   { stroke-width: 1.35764501987817px; opacity: 1;   }
        .feint-line   { stroke-width: 0.678822509939086px; opacity: 1;   }
        .regular-dot  { stroke-width: 1.92px; opacity: 1;  }
        .major-dot    { stroke-width: 3.84px; opacity: 1;    }
        .feint-dot    { stroke-width: 0.96px; opacity: 1;    }
        .margin-line  { stroke-width: 0.96px; opacity: 1;  }
        .regular-line { stroke: #b3b3ff; }
        .major-line   { stroke: #b3b3ff;   }
        .feint-line   { stroke: #b3b3ff;   }
        .regular-dot  { stroke: #b3b3ff; }
        .major-dot    { stroke: #b3b3ff;   }
        .feint-dot    { stroke: #b3b3ff;   }
        .margin-line  { stroke: #ff9e9e;  }
  </style>
  <defs/>
  <g id="grid">
    <line x1="0.000" x2="297.955" y1="6.592" y2="6.592" class="regular-line horizontal"/>
    <line x1="0.000" x2="297.955" y1="23.600" y2="23.600" class="regular-line horizontal"/>
    <line x1="0.000" x2="297.955" y1="40.608" y2="40.608" class="regular-line horizontal"/>
    <line x1="0.000" x2="297.955" y1="57.615" y2="57.615" class="regular-line horizontal"/>
    <line x1="0.000" x2="297.955" y1="74.623" y2="74.623" class="regular-line horizontal"/>
    <line x1="0.000" x2="297.955" y1="91.631" y2="91.631" class="regular-line horizontal"/>
    <line x1="0.000" x2="297.955" y1="108.639" y2="108.639" class="regular-line horizontal"/>
    <line x1="0.000" x2="297.955" y1="125.647" y2="125.647" class="regular-line horizontal"/>
    <line x1="0.000" x2="297.955" y1="142.655" y2="142.655" class="regular-line horizontal"/>
    <line x1="0.000" x2="297.955" y1="159.663" y2="159.663" class="regular-line horizontal"/>
    <line x1="0.000" x2="297.955" y1="176.671" y2="176.671" class="regular-line horizontal"/>
    <line x1="0.000" x2="297.955" y1="193.678" y2="193.678" class="regular-line horizontal"/>
    <line x1="0.000" x2="297.955" y1="210.686" y2="210.686" class="regular-line horizontal"/>
    <line x1="0.000" x2="297.955" y1="227.694" y2="227.694" class="regular-line horizontal"/>
    <line x1="0.000" x2="297.955" y1="244.702" y2="244.702" class="regular-line horizontal"/>
    <line x1="0.000" x2="297.955" y1="261.710" y2="261.710" class="regular-line horizontal"/>
    <line x1="0.000" x2="297.955" y1="278.718" y2="278.718" class="regular-line horizontal"/>
    <line x1="0.000" x2="297.955" y1="295.726" y2="295.726" class="regular-line horizontal"/>
    <line x1="0.000" x2="297.955" y1="312.734" y2="312.734" class="regular-line horizontal"/>
    <line x1="0.000" x2="297.955" y1="329.741" y2="329.741" class="regular-line horizontal"/>
    <line x1="0.000" x2="297.955" y1="346.749" y2="346.749" class="regular-line horizontal"/>
    <line x1="0.000" x2="297.955" y1="363.757" y2="363.757" class="regular-line horizontal"/>
    <line x1="0.000" x2="297.955" y1="380.765" y2="380.765" class="regular-line horizontal"/>
    <line x1="0.000" x2="297.955" y1="397.773" y2="397.773" class="regular-line horizontal"/>
    <line x1="0.000" x2="297.955" y1="414.781" y2="414.781" class="regular-line horizontal"/>
    <line x1="4.411" x2="4.411" y1="0.000" y2="421.373" class="regular-line vertical"/>
    <line x1="21.419" x2="21.419" y1="0.000" y2="421.373" class="regular-line vertical"/>
    <line x1="38.427" x2="38.427" y1="0.000" y2="421.373" class="regular-line vertical"/>
    <line x1="55.434" x2="55.434" y1="0.000" y2="421.373" class="regular-line vertical"/>
    <line x1="72.442" x2="72.442" y1="0.000" y2="421.373" class="regular-line vertical"/>
    <line x1="89.450" x2="89.450" y1="0.000" y2="421.373" class="regular-line vertical"/>
    <line x1="106.458" x2="106.458" y1="0.000" y2="421.373" class="regular-line vertical"/>
    <line x1="123.466" x2="123.466" y1="0.000" y2="421.373" class="regular-line vertical"/>
    <line x1="140.474" x2="140.474" y1="0.000" y2="421.373" class="regular-line vertical"/>
    <line x1="157.482" x2="157.482" y1="0.000" y2="421.373" class="regular-line vertical"/>
    <line x1="174.490" x2="174.490" y1="0.000" y2="421.373" class="regular-line vertical"/>
    <line x1="191.497" x2="191.497" y1="0.000" y2="421.373" class="regular-line vertical"/>
    <line x1="208.505" x2="208.505" y1="0.000" y2="421.373" class="regular-line vertical"/>
    <line x1="225.513" x2="225.513" y1="0.000" y2="421.373" class="regular-line vertical"/>
    <line x1="242.521" x2="242.521" y1="0.000" y2="421.373" class="regular-line vertical"/>
    <line x1="259.529" x2="259.529" y1="0.000" y2="421.373" class="regular-line vertical"/>
    <line x1="276.537" x2="276.537" y1="0.000" y2="421.373" class="regular-line vertical"/>
    <line x1="293.545" x2="293.545" y1="0.000" y2="421.373" class="regular-line vertical"/>
  </g>
  <rect x="54.4777113638465" y="395.372599804113" width="189" height="12" fill="#ffffff" stroke="none" stroke-width="0px"/>
  <text x="148.977711363847" y="403.372599804113" text-anchor="middle" fill="#b3b3ff" stroke="none" stroke-width="0" style="font-family: &quot;Courier&quot;, &quot;Courier New&quot;, monospace; font-size: 6pt;">https://github.com/dse/printable-paper</text>
</svg>
