<?xml version="1.0" encoding="UTF-8"?>
<svg xmlns="http://www.w3.org/2000/svg" width="595.276pt" height="841.89pt" viewBox="0 0 595.276 841.89">
  <defs/>
  <style>        .line, .dot { stroke-linecap: round; }
        .stroke-linecap-butt { stroke-linecap: butt; }

        .rectangle { fill: #ffffff; }

        .line.xx-thin    { stroke-width: 0.32004px; }
        .line.x-thin     { stroke-width: 0.48px; }
        .line.thin       { stroke-width: 0.63996px; }
        .line.semi-thin  { stroke-width: 0.78384px; }
        .line            { stroke-width: 0.96px; }
        .line.semi-thick { stroke-width: 1.17576px; }
        .line.thick      { stroke-width: 1.44px; }

        .dot.xx-thin     { stroke-width: 0.64008px; }
        .dot.x-thin      { stroke-width: 0.96px; }
        .dot.thin        { stroke-width: 1.27992px; }
        .dot.semi-thin   { stroke-width: 1.56768px; }
        .dot             { stroke-width: 1.92px; }
        .dot.semi-thick  { stroke-width: 2.35152px; }
        .dot.thick       { stroke-width: 2.88px; }

        .stroke-1     { stroke-width: 0.12px; stroke-linecap: round; }
        .stroke-2     { stroke-width: 0.24px; stroke-linecap: round; }
        .stroke-3     { stroke-width: 0.36px; stroke-linecap: round; }
        .stroke-4     { stroke-width: 0.48px; stroke-linecap: round; }
        .stroke-5     { stroke-width: 0.6px; stroke-linecap: round; }
        .stroke-6     { stroke-width: 0.72px; stroke-linecap: round; }
        .stroke-7     { stroke-width: 0.84px; stroke-linecap: round; }
        .stroke-8     { stroke-width: 0.96px; stroke-linecap: round; }
        .stroke-9     { stroke-width: 1.08px; stroke-linecap: round; }
        .stroke-10    { stroke-width: 1.2px; stroke-linecap: round; }

        .blue  { stroke: #b3b3ff; }
        .red   { stroke: #ff9999; }
        .green { stroke: #b3ffb3; }
        .gray  { stroke: #b3b3b3; }

        .black         { stroke: #000000; }
        .half-black    { stroke: #808080; }
        .quarter-black { stroke: #c0c0c0; }

        .light.blue  { stroke: #d9d9ff; }
        .light.red   { stroke: #ffcccc; }
        .light.green { stroke: #d9ffd9; }
        .light.gray  { stroke: #d9d9d9; }

        .dark.blue  { stroke: #6767ff; }
        .dark.red   { stroke: #ff3333; }
        .dark.green { stroke: #67ff67; }
        .dark.gray  { stroke: #676767; }

        .alternate-blue  { stroke: #6767ff; opacity: 0.5; }
        .alternate-red   { stroke: #ff3333; opacity: 0.5; }
        .alternate-green { stroke: #67ff67; opacity: 0.5; }
        .alternate-gray  { stroke: #676767; opacity: 0.5; }
</style>
  <g id="grid">
    <line x1="0" x2="595.276" y1="1.417" y2="1.417" class="stroke-1 quarter-black line"/>
    <line x1="0" x2="595.276" y1="7.087" y2="7.087" class="stroke-1 quarter-black line"/>
    <line x1="0" x2="595.276" y1="12.756" y2="12.756" class="stroke-1 quarter-black line"/>
    <line x1="0" x2="595.276" y1="18.425" y2="18.425" class="stroke-1 quarter-black line"/>
    <line x1="0" x2="595.276" y1="24.095" y2="24.095" class="stroke-1 quarter-black line"/>
    <line x1="0" x2="595.276" y1="29.764" y2="29.764" class="stroke-1 quarter-black line"/>
    <line x1="0" x2="595.276" y1="35.433" y2="35.433" class="stroke-1 quarter-black line"/>
    <line x1="0" x2="595.276" y1="41.102" y2="41.102" class="stroke-1 quarter-black line"/>
    <line x1="0" x2="595.276" y1="46.772" y2="46.772" class="stroke-1 quarter-black line"/>
    <line x1="0" x2="595.276" y1="52.441" y2="52.441" class="stroke-1 quarter-black line"/>
    <line x1="0" x2="595.276" y1="58.11" y2="58.11" class="stroke-1 quarter-black line"/>
    <line x1="0" x2="595.276" y1="63.78" y2="63.78" class="stroke-1 quarter-black line"/>
    <line x1="0" x2="595.276" y1="69.449" y2="69.449" class="stroke-1 quarter-black line"/>
    <line x1="0" x2="595.276" y1="75.118" y2="75.118" class="stroke-1 quarter-black line"/>
    <line x1="0" x2="595.276" y1="80.788" y2="80.788" class="stroke-1 quarter-black line"/>
    <line x1="0" x2="595.276" y1="86.457" y2="86.457" class="stroke-1 quarter-black line"/>
    <line x1="0" x2="595.276" y1="92.126" y2="92.126" class="stroke-1 quarter-black line"/>
    <line x1="0" x2="595.276" y1="97.795" y2="97.795" class="stroke-1 quarter-black line"/>
    <line x1="0" x2="595.276" y1="103.465" y2="103.465" class="stroke-1 quarter-black line"/>
    <line x1="0" x2="595.276" y1="109.134" y2="109.134" class="stroke-1 quarter-black line"/>
    <line x1="0" x2="595.276" y1="114.803" y2="114.803" class="stroke-1 quarter-black line"/>
    <line x1="0" x2="595.276" y1="120.473" y2="120.473" class="stroke-1 quarter-black line"/>
    <line x1="0" x2="595.276" y1="126.142" y2="126.142" class="stroke-1 quarter-black line"/>
    <line x1="0" x2="595.276" y1="131.811" y2="131.811" class="stroke-1 quarter-black line"/>
    <line x1="0" x2="595.276" y1="137.48" y2="137.48" class="stroke-1 quarter-black line"/>
    <line x1="0" x2="595.276" y1="143.15" y2="143.15" class="stroke-1 quarter-black line"/>
    <line x1="0" x2="595.276" y1="148.819" y2="148.819" class="stroke-1 quarter-black line"/>
    <line x1="0" x2="595.276" y1="154.488" y2="154.488" class="stroke-1 quarter-black line"/>
    <line x1="0" x2="595.276" y1="160.158" y2="160.158" class="stroke-1 quarter-black line"/>
    <line x1="0" x2="595.276" y1="165.827" y2="165.827" class="stroke-1 quarter-black line"/>
    <line x1="0" x2="595.276" y1="171.496" y2="171.496" class="stroke-1 quarter-black line"/>
    <line x1="0" x2="595.276" y1="177.165" y2="177.165" class="stroke-1 quarter-black line"/>
    <line x1="0" x2="595.276" y1="182.835" y2="182.835" class="stroke-1 quarter-black line"/>
    <line x1="0" x2="595.276" y1="188.504" y2="188.504" class="stroke-1 quarter-black line"/>
    <line x1="0" x2="595.276" y1="194.173" y2="194.173" class="stroke-1 quarter-black line"/>
    <line x1="0" x2="595.276" y1="199.843" y2="199.843" class="stroke-1 quarter-black line"/>
    <line x1="0" x2="595.276" y1="205.512" y2="205.512" class="stroke-1 quarter-black line"/>
    <line x1="0" x2="595.276" y1="211.181" y2="211.181" class="stroke-1 quarter-black line"/>
    <line x1="0" x2="595.276" y1="216.851" y2="216.851" class="stroke-1 quarter-black line"/>
    <line x1="0" x2="595.276" y1="222.52" y2="222.52" class="stroke-1 quarter-black line"/>
    <line x1="0" x2="595.276" y1="228.189" y2="228.189" class="stroke-1 quarter-black line"/>
    <line x1="0" x2="595.276" y1="233.858" y2="233.858" class="stroke-1 quarter-black line"/>
    <line x1="0" x2="595.276" y1="239.528" y2="239.528" class="stroke-1 quarter-black line"/>
    <line x1="0" x2="595.276" y1="245.197" y2="245.197" class="stroke-1 quarter-black line"/>
    <line x1="0" x2="595.276" y1="250.866" y2="250.866" class="stroke-1 quarter-black line"/>
    <line x1="0" x2="595.276" y1="256.536" y2="256.536" class="stroke-1 quarter-black line"/>
    <line x1="0" x2="595.276" y1="262.205" y2="262.205" class="stroke-1 quarter-black line"/>
    <line x1="0" x2="595.276" y1="267.874" y2="267.874" class="stroke-1 quarter-black line"/>
    <line x1="0" x2="595.276" y1="273.543" y2="273.543" class="stroke-1 quarter-black line"/>
    <line x1="0" x2="595.276" y1="279.213" y2="279.213" class="stroke-1 quarter-black line"/>
    <line x1="0" x2="595.276" y1="284.882" y2="284.882" class="stroke-1 quarter-black line"/>
    <line x1="0" x2="595.276" y1="290.551" y2="290.551" class="stroke-1 quarter-black line"/>
    <line x1="0" x2="595.276" y1="296.221" y2="296.221" class="stroke-1 quarter-black line"/>
    <line x1="0" x2="595.276" y1="301.89" y2="301.89" class="stroke-1 quarter-black line"/>
    <line x1="0" x2="595.276" y1="307.559" y2="307.559" class="stroke-1 quarter-black line"/>
    <line x1="0" x2="595.276" y1="313.228" y2="313.228" class="stroke-1 quarter-black line"/>
    <line x1="0" x2="595.276" y1="318.898" y2="318.898" class="stroke-1 quarter-black line"/>
    <line x1="0" x2="595.276" y1="324.567" y2="324.567" class="stroke-1 quarter-black line"/>
    <line x1="0" x2="595.276" y1="330.236" y2="330.236" class="stroke-1 quarter-black line"/>
    <line x1="0" x2="595.276" y1="335.906" y2="335.906" class="stroke-1 quarter-black line"/>
    <line x1="0" x2="595.276" y1="341.575" y2="341.575" class="stroke-1 quarter-black line"/>
    <line x1="0" x2="595.276" y1="347.244" y2="347.244" class="stroke-1 quarter-black line"/>
    <line x1="0" x2="595.276" y1="352.914" y2="352.914" class="stroke-1 quarter-black line"/>
    <line x1="0" x2="595.276" y1="358.583" y2="358.583" class="stroke-1 quarter-black line"/>
    <line x1="0" x2="595.276" y1="364.252" y2="364.252" class="stroke-1 quarter-black line"/>
    <line x1="0" x2="595.276" y1="369.921" y2="369.921" class="stroke-1 quarter-black line"/>
    <line x1="0" x2="595.276" y1="375.591" y2="375.591" class="stroke-1 quarter-black line"/>
    <line x1="0" x2="595.276" y1="381.26" y2="381.26" class="stroke-1 quarter-black line"/>
    <line x1="0" x2="595.276" y1="386.929" y2="386.929" class="stroke-1 quarter-black line"/>
    <line x1="0" x2="595.276" y1="392.599" y2="392.599" class="stroke-1 quarter-black line"/>
    <line x1="0" x2="595.276" y1="398.268" y2="398.268" class="stroke-1 quarter-black line"/>
    <line x1="0" x2="595.276" y1="403.937" y2="403.937" class="stroke-1 quarter-black line"/>
    <line x1="0" x2="595.276" y1="409.606" y2="409.606" class="stroke-1 quarter-black line"/>
    <line x1="0" x2="595.276" y1="415.276" y2="415.276" class="stroke-1 quarter-black line"/>
    <line x1="0" x2="595.276" y1="420.945" y2="420.945" class="stroke-1 quarter-black line"/>
    <line x1="0" x2="595.276" y1="426.614" y2="426.614" class="stroke-1 quarter-black line"/>
    <line x1="0" x2="595.276" y1="432.284" y2="432.284" class="stroke-1 quarter-black line"/>
    <line x1="0" x2="595.276" y1="437.953" y2="437.953" class="stroke-1 quarter-black line"/>
    <line x1="0" x2="595.276" y1="443.622" y2="443.622" class="stroke-1 quarter-black line"/>
    <line x1="0" x2="595.276" y1="449.291" y2="449.291" class="stroke-1 quarter-black line"/>
    <line x1="0" x2="595.276" y1="454.961" y2="454.961" class="stroke-1 quarter-black line"/>
    <line x1="0" x2="595.276" y1="460.63" y2="460.63" class="stroke-1 quarter-black line"/>
    <line x1="0" x2="595.276" y1="466.299" y2="466.299" class="stroke-1 quarter-black line"/>
    <line x1="0" x2="595.276" y1="471.969" y2="471.969" class="stroke-1 quarter-black line"/>
    <line x1="0" x2="595.276" y1="477.638" y2="477.638" class="stroke-1 quarter-black line"/>
    <line x1="0" x2="595.276" y1="483.307" y2="483.307" class="stroke-1 quarter-black line"/>
    <line x1="0" x2="595.276" y1="488.976" y2="488.976" class="stroke-1 quarter-black line"/>
    <line x1="0" x2="595.276" y1="494.646" y2="494.646" class="stroke-1 quarter-black line"/>
    <line x1="0" x2="595.276" y1="500.315" y2="500.315" class="stroke-1 quarter-black line"/>
    <line x1="0" x2="595.276" y1="505.984" y2="505.984" class="stroke-1 quarter-black line"/>
    <line x1="0" x2="595.276" y1="511.654" y2="511.654" class="stroke-1 quarter-black line"/>
    <line x1="0" x2="595.276" y1="517.323" y2="517.323" class="stroke-1 quarter-black line"/>
    <line x1="0" x2="595.276" y1="522.992" y2="522.992" class="stroke-1 quarter-black line"/>
    <line x1="0" x2="595.276" y1="528.662" y2="528.662" class="stroke-1 quarter-black line"/>
    <line x1="0" x2="595.276" y1="534.331" y2="534.331" class="stroke-1 quarter-black line"/>
    <line x1="0" x2="595.276" y1="540" y2="540" class="stroke-1 quarter-black line"/>
    <line x1="0" x2="595.276" y1="545.669" y2="545.669" class="stroke-1 quarter-black line"/>
    <line x1="0" x2="595.276" y1="551.339" y2="551.339" class="stroke-1 quarter-black line"/>
    <line x1="0" x2="595.276" y1="557.008" y2="557.008" class="stroke-1 quarter-black line"/>
    <line x1="0" x2="595.276" y1="562.677" y2="562.677" class="stroke-1 quarter-black line"/>
    <line x1="0" x2="595.276" y1="568.347" y2="568.347" class="stroke-1 quarter-black line"/>
    <line x1="0" x2="595.276" y1="574.016" y2="574.016" class="stroke-1 quarter-black line"/>
    <line x1="0" x2="595.276" y1="579.685" y2="579.685" class="stroke-1 quarter-black line"/>
    <line x1="0" x2="595.276" y1="585.354" y2="585.354" class="stroke-1 quarter-black line"/>
    <line x1="0" x2="595.276" y1="591.024" y2="591.024" class="stroke-1 quarter-black line"/>
    <line x1="0" x2="595.276" y1="596.693" y2="596.693" class="stroke-1 quarter-black line"/>
    <line x1="0" x2="595.276" y1="602.362" y2="602.362" class="stroke-1 quarter-black line"/>
    <line x1="0" x2="595.276" y1="608.032" y2="608.032" class="stroke-1 quarter-black line"/>
    <line x1="0" x2="595.276" y1="613.701" y2="613.701" class="stroke-1 quarter-black line"/>
    <line x1="0" x2="595.276" y1="619.37" y2="619.37" class="stroke-1 quarter-black line"/>
    <line x1="0" x2="595.276" y1="625.039" y2="625.039" class="stroke-1 quarter-black line"/>
    <line x1="0" x2="595.276" y1="630.709" y2="630.709" class="stroke-1 quarter-black line"/>
    <line x1="0" x2="595.276" y1="636.378" y2="636.378" class="stroke-1 quarter-black line"/>
    <line x1="0" x2="595.276" y1="642.047" y2="642.047" class="stroke-1 quarter-black line"/>
    <line x1="0" x2="595.276" y1="647.717" y2="647.717" class="stroke-1 quarter-black line"/>
    <line x1="0" x2="595.276" y1="653.386" y2="653.386" class="stroke-1 quarter-black line"/>
    <line x1="0" x2="595.276" y1="659.055" y2="659.055" class="stroke-1 quarter-black line"/>
    <line x1="0" x2="595.276" y1="664.725" y2="664.725" class="stroke-1 quarter-black line"/>
    <line x1="0" x2="595.276" y1="670.394" y2="670.394" class="stroke-1 quarter-black line"/>
    <line x1="0" x2="595.276" y1="676.063" y2="676.063" class="stroke-1 quarter-black line"/>
    <line x1="0" x2="595.276" y1="681.732" y2="681.732" class="stroke-1 quarter-black line"/>
    <line x1="0" x2="595.276" y1="687.402" y2="687.402" class="stroke-1 quarter-black line"/>
    <line x1="0" x2="595.276" y1="693.071" y2="693.071" class="stroke-1 quarter-black line"/>
    <line x1="0" x2="595.276" y1="698.74" y2="698.74" class="stroke-1 quarter-black line"/>
    <line x1="0" x2="595.276" y1="704.41" y2="704.41" class="stroke-1 quarter-black line"/>
    <line x1="0" x2="595.276" y1="710.079" y2="710.079" class="stroke-1 quarter-black line"/>
    <line x1="0" x2="595.276" y1="715.748" y2="715.748" class="stroke-1 quarter-black line"/>
    <line x1="0" x2="595.276" y1="721.417" y2="721.417" class="stroke-1 quarter-black line"/>
    <line x1="0" x2="595.276" y1="727.087" y2="727.087" class="stroke-1 quarter-black line"/>
    <line x1="0" x2="595.276" y1="732.756" y2="732.756" class="stroke-1 quarter-black line"/>
    <line x1="0" x2="595.276" y1="738.425" y2="738.425" class="stroke-1 quarter-black line"/>
    <line x1="0" x2="595.276" y1="744.095" y2="744.095" class="stroke-1 quarter-black line"/>
    <line x1="0" x2="595.276" y1="749.764" y2="749.764" class="stroke-1 quarter-black line"/>
    <line x1="0" x2="595.276" y1="755.433" y2="755.433" class="stroke-1 quarter-black line"/>
    <line x1="0" x2="595.276" y1="761.102" y2="761.102" class="stroke-1 quarter-black line"/>
    <line x1="0" x2="595.276" y1="766.772" y2="766.772" class="stroke-1 quarter-black line"/>
    <line x1="0" x2="595.276" y1="772.441" y2="772.441" class="stroke-1 quarter-black line"/>
    <line x1="0" x2="595.276" y1="778.11" y2="778.11" class="stroke-1 quarter-black line"/>
    <line x1="0" x2="595.276" y1="783.78" y2="783.78" class="stroke-1 quarter-black line"/>
    <line x1="0" x2="595.276" y1="789.449" y2="789.449" class="stroke-1 quarter-black line"/>
    <line x1="0" x2="595.276" y1="795.118" y2="795.118" class="stroke-1 quarter-black line"/>
    <line x1="0" x2="595.276" y1="800.788" y2="800.788" class="stroke-1 quarter-black line"/>
    <line x1="0" x2="595.276" y1="806.457" y2="806.457" class="stroke-1 quarter-black line"/>
    <line x1="0" x2="595.276" y1="812.126" y2="812.126" class="stroke-1 quarter-black line"/>
    <line x1="0" x2="595.276" y1="817.795" y2="817.795" class="stroke-1 quarter-black line"/>
    <line x1="0" x2="595.276" y1="823.465" y2="823.465" class="stroke-1 quarter-black line"/>
    <line x1="0" x2="595.276" y1="829.134" y2="829.134" class="stroke-1 quarter-black line"/>
    <line x1="0" x2="595.276" y1="834.803" y2="834.803" class="stroke-1 quarter-black line"/>
    <line x1="0" x2="595.276" y1="840.473" y2="840.473" class="stroke-1 quarter-black line"/>
    <line x1="0" x2="0" y1="0" y2="841.89" class="stroke-1 quarter-black line"/>
    <line x1="5.669" x2="5.669" y1="0" y2="841.89" class="stroke-1 quarter-black line"/>
    <line x1="11.339" x2="11.339" y1="0" y2="841.89" class="stroke-1 quarter-black line"/>
    <line x1="17.008" x2="17.008" y1="0" y2="841.89" class="stroke-1 quarter-black line"/>
    <line x1="22.677" x2="22.677" y1="0" y2="841.89" class="stroke-1 quarter-black line"/>
    <line x1="28.346" x2="28.346" y1="0" y2="841.89" class="stroke-1 quarter-black line"/>
    <line x1="34.016" x2="34.016" y1="0" y2="841.89" class="stroke-1 quarter-black line"/>
    <line x1="39.685" x2="39.685" y1="0" y2="841.89" class="stroke-1 quarter-black line"/>
    <line x1="45.354" x2="45.354" y1="0" y2="841.89" class="stroke-1 quarter-black line"/>
    <line x1="51.024" x2="51.024" y1="0" y2="841.89" class="stroke-1 quarter-black line"/>
    <line x1="56.693" x2="56.693" y1="0" y2="841.89" class="stroke-1 quarter-black line"/>
    <line x1="62.362" x2="62.362" y1="0" y2="841.89" class="stroke-1 quarter-black line"/>
    <line x1="68.031" x2="68.031" y1="0" y2="841.89" class="stroke-1 quarter-black line"/>
    <line x1="73.701" x2="73.701" y1="0" y2="841.89" class="stroke-1 quarter-black line"/>
    <line x1="79.37" x2="79.37" y1="0" y2="841.89" class="stroke-1 quarter-black line"/>
    <line x1="85.039" x2="85.039" y1="0" y2="841.89" class="stroke-1 quarter-black line"/>
    <line x1="90.709" x2="90.709" y1="0" y2="841.89" class="stroke-1 quarter-black line"/>
    <line x1="96.378" x2="96.378" y1="0" y2="841.89" class="stroke-1 quarter-black line"/>
    <line x1="102.047" x2="102.047" y1="0" y2="841.89" class="stroke-1 quarter-black line"/>
    <line x1="107.717" x2="107.717" y1="0" y2="841.89" class="stroke-1 quarter-black line"/>
    <line x1="113.386" x2="113.386" y1="0" y2="841.89" class="stroke-1 quarter-black line"/>
    <line x1="119.055" x2="119.055" y1="0" y2="841.89" class="stroke-1 quarter-black line"/>
    <line x1="124.724" x2="124.724" y1="0" y2="841.89" class="stroke-1 quarter-black line"/>
    <line x1="130.394" x2="130.394" y1="0" y2="841.89" class="stroke-1 quarter-black line"/>
    <line x1="136.063" x2="136.063" y1="0" y2="841.89" class="stroke-1 quarter-black line"/>
    <line x1="141.732" x2="141.732" y1="0" y2="841.89" class="stroke-1 quarter-black line"/>
    <line x1="147.402" x2="147.402" y1="0" y2="841.89" class="stroke-1 quarter-black line"/>
    <line x1="153.071" x2="153.071" y1="0" y2="841.89" class="stroke-1 quarter-black line"/>
    <line x1="158.74" x2="158.74" y1="0" y2="841.89" class="stroke-1 quarter-black line"/>
    <line x1="164.409" x2="164.409" y1="0" y2="841.89" class="stroke-1 quarter-black line"/>
    <line x1="170.079" x2="170.079" y1="0" y2="841.89" class="stroke-1 quarter-black line"/>
    <line x1="175.748" x2="175.748" y1="0" y2="841.89" class="stroke-1 quarter-black line"/>
    <line x1="181.417" x2="181.417" y1="0" y2="841.89" class="stroke-1 quarter-black line"/>
    <line x1="187.087" x2="187.087" y1="0" y2="841.89" class="stroke-1 quarter-black line"/>
    <line x1="192.756" x2="192.756" y1="0" y2="841.89" class="stroke-1 quarter-black line"/>
    <line x1="198.425" x2="198.425" y1="0" y2="841.89" class="stroke-1 quarter-black line"/>
    <line x1="204.094" x2="204.094" y1="0" y2="841.89" class="stroke-1 quarter-black line"/>
    <line x1="209.764" x2="209.764" y1="0" y2="841.89" class="stroke-1 quarter-black line"/>
    <line x1="215.433" x2="215.433" y1="0" y2="841.89" class="stroke-1 quarter-black line"/>
    <line x1="221.102" x2="221.102" y1="0" y2="841.89" class="stroke-1 quarter-black line"/>
    <line x1="226.772" x2="226.772" y1="0" y2="841.89" class="stroke-1 quarter-black line"/>
    <line x1="232.441" x2="232.441" y1="0" y2="841.89" class="stroke-1 quarter-black line"/>
    <line x1="238.11" x2="238.11" y1="0" y2="841.89" class="stroke-1 quarter-black line"/>
    <line x1="243.78" x2="243.78" y1="0" y2="841.89" class="stroke-1 quarter-black line"/>
    <line x1="249.449" x2="249.449" y1="0" y2="841.89" class="stroke-1 quarter-black line"/>
    <line x1="255.118" x2="255.118" y1="0" y2="841.89" class="stroke-1 quarter-black line"/>
    <line x1="260.787" x2="260.787" y1="0" y2="841.89" class="stroke-1 quarter-black line"/>
    <line x1="266.457" x2="266.457" y1="0" y2="841.89" class="stroke-1 quarter-black line"/>
    <line x1="272.126" x2="272.126" y1="0" y2="841.89" class="stroke-1 quarter-black line"/>
    <line x1="277.795" x2="277.795" y1="0" y2="841.89" class="stroke-1 quarter-black line"/>
    <line x1="283.465" x2="283.465" y1="0" y2="841.89" class="stroke-1 quarter-black line"/>
    <line x1="289.134" x2="289.134" y1="0" y2="841.89" class="stroke-1 quarter-black line"/>
    <line x1="294.803" x2="294.803" y1="0" y2="841.89" class="stroke-1 quarter-black line"/>
    <line x1="300.472" x2="300.472" y1="0" y2="841.89" class="stroke-1 quarter-black line"/>
    <line x1="306.142" x2="306.142" y1="0" y2="841.89" class="stroke-1 quarter-black line"/>
    <line x1="311.811" x2="311.811" y1="0" y2="841.89" class="stroke-1 quarter-black line"/>
    <line x1="317.48" x2="317.48" y1="0" y2="841.89" class="stroke-1 quarter-black line"/>
    <line x1="323.15" x2="323.15" y1="0" y2="841.89" class="stroke-1 quarter-black line"/>
    <line x1="328.819" x2="328.819" y1="0" y2="841.89" class="stroke-1 quarter-black line"/>
    <line x1="334.488" x2="334.488" y1="0" y2="841.89" class="stroke-1 quarter-black line"/>
    <line x1="340.157" x2="340.157" y1="0" y2="841.89" class="stroke-1 quarter-black line"/>
    <line x1="345.827" x2="345.827" y1="0" y2="841.89" class="stroke-1 quarter-black line"/>
    <line x1="351.496" x2="351.496" y1="0" y2="841.89" class="stroke-1 quarter-black line"/>
    <line x1="357.165" x2="357.165" y1="0" y2="841.89" class="stroke-1 quarter-black line"/>
    <line x1="362.835" x2="362.835" y1="0" y2="841.89" class="stroke-1 quarter-black line"/>
    <line x1="368.504" x2="368.504" y1="0" y2="841.89" class="stroke-1 quarter-black line"/>
    <line x1="374.173" x2="374.173" y1="0" y2="841.89" class="stroke-1 quarter-black line"/>
    <line x1="379.843" x2="379.843" y1="0" y2="841.89" class="stroke-1 quarter-black line"/>
    <line x1="385.512" x2="385.512" y1="0" y2="841.89" class="stroke-1 quarter-black line"/>
    <line x1="391.181" x2="391.181" y1="0" y2="841.89" class="stroke-1 quarter-black line"/>
    <line x1="396.85" x2="396.85" y1="0" y2="841.89" class="stroke-1 quarter-black line"/>
    <line x1="402.52" x2="402.52" y1="0" y2="841.89" class="stroke-1 quarter-black line"/>
    <line x1="408.189" x2="408.189" y1="0" y2="841.89" class="stroke-1 quarter-black line"/>
    <line x1="413.858" x2="413.858" y1="0" y2="841.89" class="stroke-1 quarter-black line"/>
    <line x1="419.528" x2="419.528" y1="0" y2="841.89" class="stroke-1 quarter-black line"/>
    <line x1="425.197" x2="425.197" y1="0" y2="841.89" class="stroke-1 quarter-black line"/>
    <line x1="430.866" x2="430.866" y1="0" y2="841.89" class="stroke-1 quarter-black line"/>
    <line x1="436.535" x2="436.535" y1="0" y2="841.89" class="stroke-1 quarter-black line"/>
    <line x1="442.205" x2="442.205" y1="0" y2="841.89" class="stroke-1 quarter-black line"/>
    <line x1="447.874" x2="447.874" y1="0" y2="841.89" class="stroke-1 quarter-black line"/>
    <line x1="453.543" x2="453.543" y1="0" y2="841.89" class="stroke-1 quarter-black line"/>
    <line x1="459.213" x2="459.213" y1="0" y2="841.89" class="stroke-1 quarter-black line"/>
    <line x1="464.882" x2="464.882" y1="0" y2="841.89" class="stroke-1 quarter-black line"/>
    <line x1="470.551" x2="470.551" y1="0" y2="841.89" class="stroke-1 quarter-black line"/>
    <line x1="476.22" x2="476.22" y1="0" y2="841.89" class="stroke-1 quarter-black line"/>
    <line x1="481.89" x2="481.89" y1="0" y2="841.89" class="stroke-1 quarter-black line"/>
    <line x1="487.559" x2="487.559" y1="0" y2="841.89" class="stroke-1 quarter-black line"/>
    <line x1="493.228" x2="493.228" y1="0" y2="841.89" class="stroke-1 quarter-black line"/>
    <line x1="498.898" x2="498.898" y1="0" y2="841.89" class="stroke-1 quarter-black line"/>
    <line x1="504.567" x2="504.567" y1="0" y2="841.89" class="stroke-1 quarter-black line"/>
    <line x1="510.236" x2="510.236" y1="0" y2="841.89" class="stroke-1 quarter-black line"/>
    <line x1="515.906" x2="515.906" y1="0" y2="841.89" class="stroke-1 quarter-black line"/>
    <line x1="521.575" x2="521.575" y1="0" y2="841.89" class="stroke-1 quarter-black line"/>
    <line x1="527.244" x2="527.244" y1="0" y2="841.89" class="stroke-1 quarter-black line"/>
    <line x1="532.913" x2="532.913" y1="0" y2="841.89" class="stroke-1 quarter-black line"/>
    <line x1="538.583" x2="538.583" y1="0" y2="841.89" class="stroke-1 quarter-black line"/>
    <line x1="544.252" x2="544.252" y1="0" y2="841.89" class="stroke-1 quarter-black line"/>
    <line x1="549.921" x2="549.921" y1="0" y2="841.89" class="stroke-1 quarter-black line"/>
    <line x1="555.591" x2="555.591" y1="0" y2="841.89" class="stroke-1 quarter-black line"/>
    <line x1="561.26" x2="561.26" y1="0" y2="841.89" class="stroke-1 quarter-black line"/>
    <line x1="566.929" x2="566.929" y1="0" y2="841.89" class="stroke-1 quarter-black line"/>
    <line x1="572.598" x2="572.598" y1="0" y2="841.89" class="stroke-1 quarter-black line"/>
    <line x1="578.268" x2="578.268" y1="0" y2="841.89" class="stroke-1 quarter-black line"/>
    <line x1="583.937" x2="583.937" y1="0" y2="841.89" class="stroke-1 quarter-black line"/>
    <line x1="589.606" x2="589.606" y1="0" y2="841.89" class="stroke-1 quarter-black line"/>
    <line x1="595.276" x2="595.276" y1="0" y2="841.89" class="stroke-1 quarter-black line"/>
  </g>
  <g id="lines">
    <line x1="0" x2="595.276" y1="1.417" y2="1.417" class="stroke-3 black line"/>
    <line x1="0" x2="595.276" y1="18.425" y2="18.425" class="stroke-3 black line"/>
    <line x1="0" x2="595.276" y1="35.433" y2="35.433" class="stroke-3 black line"/>
    <line x1="0" x2="595.276" y1="52.441" y2="52.441" class="stroke-3 black line"/>
    <line x1="0" x2="595.276" y1="69.449" y2="69.449" class="stroke-3 black line"/>
    <line x1="0" x2="595.276" y1="86.457" y2="86.457" class="stroke-3 black line"/>
    <line x1="0" x2="595.276" y1="103.465" y2="103.465" class="stroke-3 black line"/>
    <line x1="0" x2="595.276" y1="120.473" y2="120.473" class="stroke-3 black line"/>
    <line x1="0" x2="595.276" y1="137.48" y2="137.48" class="stroke-3 black line"/>
    <line x1="0" x2="595.276" y1="154.488" y2="154.488" class="stroke-3 black line"/>
    <line x1="0" x2="595.276" y1="171.496" y2="171.496" class="stroke-3 black line"/>
    <line x1="0" x2="595.276" y1="188.504" y2="188.504" class="stroke-3 black line"/>
    <line x1="0" x2="595.276" y1="205.512" y2="205.512" class="stroke-3 black line"/>
    <line x1="0" x2="595.276" y1="222.52" y2="222.52" class="stroke-3 black line"/>
    <line x1="0" x2="595.276" y1="239.528" y2="239.528" class="stroke-3 black line"/>
    <line x1="0" x2="595.276" y1="256.536" y2="256.536" class="stroke-3 black line"/>
    <line x1="0" x2="595.276" y1="273.543" y2="273.543" class="stroke-3 black line"/>
    <line x1="0" x2="595.276" y1="290.551" y2="290.551" class="stroke-3 black line"/>
    <line x1="0" x2="595.276" y1="307.559" y2="307.559" class="stroke-3 black line"/>
    <line x1="0" x2="595.276" y1="324.567" y2="324.567" class="stroke-3 black line"/>
    <line x1="0" x2="595.276" y1="341.575" y2="341.575" class="stroke-3 black line"/>
    <line x1="0" x2="595.276" y1="358.583" y2="358.583" class="stroke-3 black line"/>
    <line x1="0" x2="595.276" y1="375.591" y2="375.591" class="stroke-3 black line"/>
    <line x1="0" x2="595.276" y1="392.599" y2="392.599" class="stroke-3 black line"/>
    <line x1="0" x2="595.276" y1="409.606" y2="409.606" class="stroke-3 black line"/>
    <line x1="0" x2="595.276" y1="426.614" y2="426.614" class="stroke-3 black line"/>
    <line x1="0" x2="595.276" y1="443.622" y2="443.622" class="stroke-3 black line"/>
    <line x1="0" x2="595.276" y1="460.63" y2="460.63" class="stroke-3 black line"/>
    <line x1="0" x2="595.276" y1="477.638" y2="477.638" class="stroke-3 black line"/>
    <line x1="0" x2="595.276" y1="494.646" y2="494.646" class="stroke-3 black line"/>
    <line x1="0" x2="595.276" y1="511.654" y2="511.654" class="stroke-3 black line"/>
    <line x1="0" x2="595.276" y1="528.662" y2="528.662" class="stroke-3 black line"/>
    <line x1="0" x2="595.276" y1="545.669" y2="545.669" class="stroke-3 black line"/>
    <line x1="0" x2="595.276" y1="562.677" y2="562.677" class="stroke-3 black line"/>
    <line x1="0" x2="595.276" y1="579.685" y2="579.685" class="stroke-3 black line"/>
    <line x1="0" x2="595.276" y1="596.693" y2="596.693" class="stroke-3 black line"/>
    <line x1="0" x2="595.276" y1="613.701" y2="613.701" class="stroke-3 black line"/>
    <line x1="0" x2="595.276" y1="630.709" y2="630.709" class="stroke-3 black line"/>
    <line x1="0" x2="595.276" y1="647.717" y2="647.717" class="stroke-3 black line"/>
    <line x1="0" x2="595.276" y1="664.725" y2="664.725" class="stroke-3 black line"/>
    <line x1="0" x2="595.276" y1="681.732" y2="681.732" class="stroke-3 black line"/>
    <line x1="0" x2="595.276" y1="698.74" y2="698.74" class="stroke-3 black line"/>
    <line x1="0" x2="595.276" y1="715.748" y2="715.748" class="stroke-3 black line"/>
    <line x1="0" x2="595.276" y1="732.756" y2="732.756" class="stroke-3 black line"/>
    <line x1="0" x2="595.276" y1="749.764" y2="749.764" class="stroke-3 black line"/>
    <line x1="0" x2="595.276" y1="766.772" y2="766.772" class="stroke-3 black line"/>
    <line x1="0" x2="595.276" y1="783.78" y2="783.78" class="stroke-3 black line"/>
    <line x1="0" x2="595.276" y1="800.788" y2="800.788" class="stroke-3 black line"/>
    <line x1="0" x2="595.276" y1="817.795" y2="817.795" class="stroke-3 black line"/>
    <line x1="0" x2="595.276" y1="834.803" y2="834.803" class="stroke-3 black line"/>
  </g>
  <g id="margin-line">
    <line x1="62.362" x2="62.362" y1="0" y2="841.89" class="stroke-3 black line"/>
  </g>
  <rect x="203.138" y="815.89" width="189" height="12" fill="#ffffff" stroke="none" stroke-width="0px"/>
  <text x="297.638" y="823.89" text-anchor="middle" fill="#808080" stroke="none" stroke-width="0" style="font-family: &quot;Courier&quot;, &quot;Courier New&quot;, monospace; font-size: 6pt;">https://github.com/dse/printable-paper</text>
</svg>
