<?xml version="1.0" encoding="UTF-8"?>
<svg xmlns="http://www.w3.org/2000/svg" width="595.911pt" height="842.745pt" viewBox="0.000 0.000 595.911 842.745">
  <style>
        .line, .dot, .major-line, .feint-line, .margin-line { stroke-linecap: round; stroke-linejoin: round; }
        .stroke-linecap-butt    { stroke-linecap:  butt;   }
        .stroke-linecap-round   { stroke-linecap:  round;  }
        .stroke-linecap-square  { stroke-linecap:  square; }
        .stroke-linejoin-butt   { stroke-linejoin: butt;   }
        .stroke-linejoin-round  { stroke-linejoin: round;  }
        .stroke-linejoin-square { stroke-linejoin: square; }
        .rectangle { fill: #ffffff; }


        .line        { stroke-width: 0.24px; opacity:  1; }
        .major-line  { stroke-width: 0.24px; opacity: 1; }
        .feint-line  { stroke-width: 0.12px; opacity:  1; }

        .dot         { stroke-width: 0.96px; opacity:  1; }

        .margin-line { stroke-width: 0.24px; opacity:  1; }
        .line        { stroke: #000000; }
        .major-line  { stroke: #000000; }
        .feint-line  { stroke: #000000; }
        .dot         { stroke: #000000; }
        .margin-line { stroke: #000000; }
  </style>
  <defs/>
  <g id="grid">
    <line x1="0.000" x2="595.911" y1="1.845" y2="1.845" class="feint-line horizontal"/>
    <line x1="0.000" x2="595.911" y1="7.514" y2="7.514" class="feint-line horizontal"/>
    <line x1="0.000" x2="595.911" y1="13.184" y2="13.184" class="feint-line horizontal"/>
    <line x1="0.000" x2="595.911" y1="18.853" y2="18.853" class="feint-line horizontal"/>
    <line x1="0.000" x2="595.911" y1="24.522" y2="24.522" class="feint-line horizontal"/>
    <line x1="0.000" x2="595.911" y1="30.191" y2="30.191" class="feint-line horizontal"/>
    <line x1="0.000" x2="595.911" y1="35.861" y2="35.861" class="feint-line horizontal"/>
    <line x1="0.000" x2="595.911" y1="41.530" y2="41.530" class="feint-line horizontal"/>
    <line x1="0.000" x2="595.911" y1="47.199" y2="47.199" class="feint-line horizontal"/>
    <line x1="0.000" x2="595.911" y1="52.869" y2="52.869" class="feint-line horizontal"/>
    <line x1="0.000" x2="595.911" y1="58.538" y2="58.538" class="feint-line horizontal"/>
    <line x1="0.000" x2="595.911" y1="64.207" y2="64.207" class="feint-line horizontal"/>
    <line x1="0.000" x2="595.911" y1="69.877" y2="69.877" class="feint-line horizontal"/>
    <line x1="0.000" x2="595.911" y1="75.546" y2="75.546" class="feint-line horizontal"/>
    <line x1="0.000" x2="595.911" y1="81.215" y2="81.215" class="feint-line horizontal"/>
    <line x1="0.000" x2="595.911" y1="86.884" y2="86.884" class="feint-line horizontal"/>
    <line x1="0.000" x2="595.911" y1="92.554" y2="92.554" class="feint-line horizontal"/>
    <line x1="0.000" x2="595.911" y1="98.223" y2="98.223" class="feint-line horizontal"/>
    <line x1="0.000" x2="595.911" y1="103.892" y2="103.892" class="feint-line horizontal"/>
    <line x1="0.000" x2="595.911" y1="109.562" y2="109.562" class="feint-line horizontal"/>
    <line x1="0.000" x2="595.911" y1="115.231" y2="115.231" class="feint-line horizontal"/>
    <line x1="0.000" x2="595.911" y1="120.900" y2="120.900" class="feint-line horizontal"/>
    <line x1="0.000" x2="595.911" y1="126.569" y2="126.569" class="feint-line horizontal"/>
    <line x1="0.000" x2="595.911" y1="132.239" y2="132.239" class="feint-line horizontal"/>
    <line x1="0.000" x2="595.911" y1="137.908" y2="137.908" class="feint-line horizontal"/>
    <line x1="0.000" x2="595.911" y1="143.577" y2="143.577" class="feint-line horizontal"/>
    <line x1="0.000" x2="595.911" y1="149.247" y2="149.247" class="feint-line horizontal"/>
    <line x1="0.000" x2="595.911" y1="154.916" y2="154.916" class="feint-line horizontal"/>
    <line x1="0.000" x2="595.911" y1="160.585" y2="160.585" class="feint-line horizontal"/>
    <line x1="0.000" x2="595.911" y1="166.254" y2="166.254" class="feint-line horizontal"/>
    <line x1="0.000" x2="595.911" y1="171.924" y2="171.924" class="feint-line horizontal"/>
    <line x1="0.000" x2="595.911" y1="177.593" y2="177.593" class="feint-line horizontal"/>
    <line x1="0.000" x2="595.911" y1="183.262" y2="183.262" class="feint-line horizontal"/>
    <line x1="0.000" x2="595.911" y1="188.932" y2="188.932" class="feint-line horizontal"/>
    <line x1="0.000" x2="595.911" y1="194.601" y2="194.601" class="feint-line horizontal"/>
    <line x1="0.000" x2="595.911" y1="200.270" y2="200.270" class="feint-line horizontal"/>
    <line x1="0.000" x2="595.911" y1="205.940" y2="205.940" class="feint-line horizontal"/>
    <line x1="0.000" x2="595.911" y1="211.609" y2="211.609" class="feint-line horizontal"/>
    <line x1="0.000" x2="595.911" y1="217.278" y2="217.278" class="feint-line horizontal"/>
    <line x1="0.000" x2="595.911" y1="222.947" y2="222.947" class="feint-line horizontal"/>
    <line x1="0.000" x2="595.911" y1="228.617" y2="228.617" class="feint-line horizontal"/>
    <line x1="0.000" x2="595.911" y1="234.286" y2="234.286" class="feint-line horizontal"/>
    <line x1="0.000" x2="595.911" y1="239.955" y2="239.955" class="feint-line horizontal"/>
    <line x1="0.000" x2="595.911" y1="245.625" y2="245.625" class="feint-line horizontal"/>
    <line x1="0.000" x2="595.911" y1="251.294" y2="251.294" class="feint-line horizontal"/>
    <line x1="0.000" x2="595.911" y1="256.963" y2="256.963" class="feint-line horizontal"/>
    <line x1="0.000" x2="595.911" y1="262.632" y2="262.632" class="feint-line horizontal"/>
    <line x1="0.000" x2="595.911" y1="268.302" y2="268.302" class="feint-line horizontal"/>
    <line x1="0.000" x2="595.911" y1="273.971" y2="273.971" class="feint-line horizontal"/>
    <line x1="0.000" x2="595.911" y1="279.640" y2="279.640" class="feint-line horizontal"/>
    <line x1="0.000" x2="595.911" y1="285.310" y2="285.310" class="feint-line horizontal"/>
    <line x1="0.000" x2="595.911" y1="290.979" y2="290.979" class="feint-line horizontal"/>
    <line x1="0.000" x2="595.911" y1="296.648" y2="296.648" class="feint-line horizontal"/>
    <line x1="0.000" x2="595.911" y1="302.317" y2="302.317" class="feint-line horizontal"/>
    <line x1="0.000" x2="595.911" y1="307.987" y2="307.987" class="feint-line horizontal"/>
    <line x1="0.000" x2="595.911" y1="313.656" y2="313.656" class="feint-line horizontal"/>
    <line x1="0.000" x2="595.911" y1="319.325" y2="319.325" class="feint-line horizontal"/>
    <line x1="0.000" x2="595.911" y1="324.995" y2="324.995" class="feint-line horizontal"/>
    <line x1="0.000" x2="595.911" y1="330.664" y2="330.664" class="feint-line horizontal"/>
    <line x1="0.000" x2="595.911" y1="336.333" y2="336.333" class="feint-line horizontal"/>
    <line x1="0.000" x2="595.911" y1="342.003" y2="342.003" class="feint-line horizontal"/>
    <line x1="0.000" x2="595.911" y1="347.672" y2="347.672" class="feint-line horizontal"/>
    <line x1="0.000" x2="595.911" y1="353.341" y2="353.341" class="feint-line horizontal"/>
    <line x1="0.000" x2="595.911" y1="359.010" y2="359.010" class="feint-line horizontal"/>
    <line x1="0.000" x2="595.911" y1="364.680" y2="364.680" class="feint-line horizontal"/>
    <line x1="0.000" x2="595.911" y1="370.349" y2="370.349" class="feint-line horizontal"/>
    <line x1="0.000" x2="595.911" y1="376.018" y2="376.018" class="feint-line horizontal"/>
    <line x1="0.000" x2="595.911" y1="381.688" y2="381.688" class="feint-line horizontal"/>
    <line x1="0.000" x2="595.911" y1="387.357" y2="387.357" class="feint-line horizontal"/>
    <line x1="0.000" x2="595.911" y1="393.026" y2="393.026" class="feint-line horizontal"/>
    <line x1="0.000" x2="595.911" y1="398.695" y2="398.695" class="feint-line horizontal"/>
    <line x1="0.000" x2="595.911" y1="404.365" y2="404.365" class="feint-line horizontal"/>
    <line x1="0.000" x2="595.911" y1="410.034" y2="410.034" class="feint-line horizontal"/>
    <line x1="0.000" x2="595.911" y1="415.703" y2="415.703" class="feint-line horizontal"/>
    <line x1="0.000" x2="595.911" y1="421.373" y2="421.373" class="feint-line horizontal"/>
    <line x1="0.000" x2="595.911" y1="427.042" y2="427.042" class="feint-line horizontal"/>
    <line x1="0.000" x2="595.911" y1="432.711" y2="432.711" class="feint-line horizontal"/>
    <line x1="0.000" x2="595.911" y1="438.380" y2="438.380" class="feint-line horizontal"/>
    <line x1="0.000" x2="595.911" y1="444.050" y2="444.050" class="feint-line horizontal"/>
    <line x1="0.000" x2="595.911" y1="449.719" y2="449.719" class="feint-line horizontal"/>
    <line x1="0.000" x2="595.911" y1="455.388" y2="455.388" class="feint-line horizontal"/>
    <line x1="0.000" x2="595.911" y1="461.058" y2="461.058" class="feint-line horizontal"/>
    <line x1="0.000" x2="595.911" y1="466.727" y2="466.727" class="feint-line horizontal"/>
    <line x1="0.000" x2="595.911" y1="472.396" y2="472.396" class="feint-line horizontal"/>
    <line x1="0.000" x2="595.911" y1="478.066" y2="478.066" class="feint-line horizontal"/>
    <line x1="0.000" x2="595.911" y1="483.735" y2="483.735" class="feint-line horizontal"/>
    <line x1="0.000" x2="595.911" y1="489.404" y2="489.404" class="feint-line horizontal"/>
    <line x1="0.000" x2="595.911" y1="495.073" y2="495.073" class="feint-line horizontal"/>
    <line x1="0.000" x2="595.911" y1="500.743" y2="500.743" class="feint-line horizontal"/>
    <line x1="0.000" x2="595.911" y1="506.412" y2="506.412" class="feint-line horizontal"/>
    <line x1="0.000" x2="595.911" y1="512.081" y2="512.081" class="feint-line horizontal"/>
    <line x1="0.000" x2="595.911" y1="517.751" y2="517.751" class="feint-line horizontal"/>
    <line x1="0.000" x2="595.911" y1="523.420" y2="523.420" class="feint-line horizontal"/>
    <line x1="0.000" x2="595.911" y1="529.089" y2="529.089" class="feint-line horizontal"/>
    <line x1="0.000" x2="595.911" y1="534.758" y2="534.758" class="feint-line horizontal"/>
    <line x1="0.000" x2="595.911" y1="540.428" y2="540.428" class="feint-line horizontal"/>
    <line x1="0.000" x2="595.911" y1="546.097" y2="546.097" class="feint-line horizontal"/>
    <line x1="0.000" x2="595.911" y1="551.766" y2="551.766" class="feint-line horizontal"/>
    <line x1="0.000" x2="595.911" y1="557.436" y2="557.436" class="feint-line horizontal"/>
    <line x1="0.000" x2="595.911" y1="563.105" y2="563.105" class="feint-line horizontal"/>
    <line x1="0.000" x2="595.911" y1="568.774" y2="568.774" class="feint-line horizontal"/>
    <line x1="0.000" x2="595.911" y1="574.443" y2="574.443" class="feint-line horizontal"/>
    <line x1="0.000" x2="595.911" y1="580.113" y2="580.113" class="feint-line horizontal"/>
    <line x1="0.000" x2="595.911" y1="585.782" y2="585.782" class="feint-line horizontal"/>
    <line x1="0.000" x2="595.911" y1="591.451" y2="591.451" class="feint-line horizontal"/>
    <line x1="0.000" x2="595.911" y1="597.121" y2="597.121" class="feint-line horizontal"/>
    <line x1="0.000" x2="595.911" y1="602.790" y2="602.790" class="feint-line horizontal"/>
    <line x1="0.000" x2="595.911" y1="608.459" y2="608.459" class="feint-line horizontal"/>
    <line x1="0.000" x2="595.911" y1="614.129" y2="614.129" class="feint-line horizontal"/>
    <line x1="0.000" x2="595.911" y1="619.798" y2="619.798" class="feint-line horizontal"/>
    <line x1="0.000" x2="595.911" y1="625.467" y2="625.467" class="feint-line horizontal"/>
    <line x1="0.000" x2="595.911" y1="631.136" y2="631.136" class="feint-line horizontal"/>
    <line x1="0.000" x2="595.911" y1="636.806" y2="636.806" class="feint-line horizontal"/>
    <line x1="0.000" x2="595.911" y1="642.475" y2="642.475" class="feint-line horizontal"/>
    <line x1="0.000" x2="595.911" y1="648.144" y2="648.144" class="feint-line horizontal"/>
    <line x1="0.000" x2="595.911" y1="653.814" y2="653.814" class="feint-line horizontal"/>
    <line x1="0.000" x2="595.911" y1="659.483" y2="659.483" class="feint-line horizontal"/>
    <line x1="0.000" x2="595.911" y1="665.152" y2="665.152" class="feint-line horizontal"/>
    <line x1="0.000" x2="595.911" y1="670.821" y2="670.821" class="feint-line horizontal"/>
    <line x1="0.000" x2="595.911" y1="676.491" y2="676.491" class="feint-line horizontal"/>
    <line x1="0.000" x2="595.911" y1="682.160" y2="682.160" class="feint-line horizontal"/>
    <line x1="0.000" x2="595.911" y1="687.829" y2="687.829" class="feint-line horizontal"/>
    <line x1="0.000" x2="595.911" y1="693.499" y2="693.499" class="feint-line horizontal"/>
    <line x1="0.000" x2="595.911" y1="699.168" y2="699.168" class="feint-line horizontal"/>
    <line x1="0.000" x2="595.911" y1="704.837" y2="704.837" class="feint-line horizontal"/>
    <line x1="0.000" x2="595.911" y1="710.506" y2="710.506" class="feint-line horizontal"/>
    <line x1="0.000" x2="595.911" y1="716.176" y2="716.176" class="feint-line horizontal"/>
    <line x1="0.000" x2="595.911" y1="721.845" y2="721.845" class="feint-line horizontal"/>
    <line x1="0.000" x2="595.911" y1="727.514" y2="727.514" class="feint-line horizontal"/>
    <line x1="0.000" x2="595.911" y1="733.184" y2="733.184" class="feint-line horizontal"/>
    <line x1="0.000" x2="595.911" y1="738.853" y2="738.853" class="feint-line horizontal"/>
    <line x1="0.000" x2="595.911" y1="744.522" y2="744.522" class="feint-line horizontal"/>
    <line x1="0.000" x2="595.911" y1="750.191" y2="750.191" class="feint-line horizontal"/>
    <line x1="0.000" x2="595.911" y1="755.861" y2="755.861" class="feint-line horizontal"/>
    <line x1="0.000" x2="595.911" y1="761.530" y2="761.530" class="feint-line horizontal"/>
    <line x1="0.000" x2="595.911" y1="767.199" y2="767.199" class="feint-line horizontal"/>
    <line x1="0.000" x2="595.911" y1="772.869" y2="772.869" class="feint-line horizontal"/>
    <line x1="0.000" x2="595.911" y1="778.538" y2="778.538" class="feint-line horizontal"/>
    <line x1="0.000" x2="595.911" y1="784.207" y2="784.207" class="feint-line horizontal"/>
    <line x1="0.000" x2="595.911" y1="789.877" y2="789.877" class="feint-line horizontal"/>
    <line x1="0.000" x2="595.911" y1="795.546" y2="795.546" class="feint-line horizontal"/>
    <line x1="0.000" x2="595.911" y1="801.215" y2="801.215" class="feint-line horizontal"/>
    <line x1="0.000" x2="595.911" y1="806.884" y2="806.884" class="feint-line horizontal"/>
    <line x1="0.000" x2="595.911" y1="812.554" y2="812.554" class="feint-line horizontal"/>
    <line x1="0.000" x2="595.911" y1="818.223" y2="818.223" class="feint-line horizontal"/>
    <line x1="0.000" x2="595.911" y1="823.892" y2="823.892" class="feint-line horizontal"/>
    <line x1="0.000" x2="595.911" y1="829.562" y2="829.562" class="feint-line horizontal"/>
    <line x1="0.000" x2="595.911" y1="835.231" y2="835.231" class="feint-line horizontal"/>
    <line x1="0.000" x2="595.911" y1="840.900" y2="840.900" class="feint-line horizontal"/>
    <line x1="0.000" x2="0.000" y1="0.000" y2="842.745" class="feint-line vertical"/>
    <line x1="5.669" x2="5.669" y1="0.000" y2="842.745" class="feint-line vertical"/>
    <line x1="11.339" x2="11.339" y1="0.000" y2="842.745" class="feint-line vertical"/>
    <line x1="17.008" x2="17.008" y1="0.000" y2="842.745" class="feint-line vertical"/>
    <line x1="22.677" x2="22.677" y1="0.000" y2="842.745" class="feint-line vertical"/>
    <line x1="28.346" x2="28.346" y1="0.000" y2="842.745" class="feint-line vertical"/>
    <line x1="34.016" x2="34.016" y1="0.000" y2="842.745" class="feint-line vertical"/>
    <line x1="39.685" x2="39.685" y1="0.000" y2="842.745" class="feint-line vertical"/>
    <line x1="45.354" x2="45.354" y1="0.000" y2="842.745" class="feint-line vertical"/>
    <line x1="51.024" x2="51.024" y1="0.000" y2="842.745" class="feint-line vertical"/>
    <line x1="56.693" x2="56.693" y1="0.000" y2="842.745" class="feint-line vertical"/>
    <line x1="62.362" x2="62.362" y1="0.000" y2="842.745" class="feint-line vertical"/>
    <line x1="68.031" x2="68.031" y1="0.000" y2="842.745" class="feint-line vertical"/>
    <line x1="73.701" x2="73.701" y1="0.000" y2="842.745" class="feint-line vertical"/>
    <line x1="79.370" x2="79.370" y1="0.000" y2="842.745" class="feint-line vertical"/>
    <line x1="85.039" x2="85.039" y1="0.000" y2="842.745" class="feint-line vertical"/>
    <line x1="90.709" x2="90.709" y1="0.000" y2="842.745" class="feint-line vertical"/>
    <line x1="96.378" x2="96.378" y1="0.000" y2="842.745" class="feint-line vertical"/>
    <line x1="102.047" x2="102.047" y1="0.000" y2="842.745" class="feint-line vertical"/>
    <line x1="107.717" x2="107.717" y1="0.000" y2="842.745" class="feint-line vertical"/>
    <line x1="113.386" x2="113.386" y1="0.000" y2="842.745" class="feint-line vertical"/>
    <line x1="119.055" x2="119.055" y1="0.000" y2="842.745" class="feint-line vertical"/>
    <line x1="124.724" x2="124.724" y1="0.000" y2="842.745" class="feint-line vertical"/>
    <line x1="130.394" x2="130.394" y1="0.000" y2="842.745" class="feint-line vertical"/>
    <line x1="136.063" x2="136.063" y1="0.000" y2="842.745" class="feint-line vertical"/>
    <line x1="141.732" x2="141.732" y1="0.000" y2="842.745" class="feint-line vertical"/>
    <line x1="147.402" x2="147.402" y1="0.000" y2="842.745" class="feint-line vertical"/>
    <line x1="153.071" x2="153.071" y1="0.000" y2="842.745" class="feint-line vertical"/>
    <line x1="158.740" x2="158.740" y1="0.000" y2="842.745" class="feint-line vertical"/>
    <line x1="164.409" x2="164.409" y1="0.000" y2="842.745" class="feint-line vertical"/>
    <line x1="170.079" x2="170.079" y1="0.000" y2="842.745" class="feint-line vertical"/>
    <line x1="175.748" x2="175.748" y1="0.000" y2="842.745" class="feint-line vertical"/>
    <line x1="181.417" x2="181.417" y1="0.000" y2="842.745" class="feint-line vertical"/>
    <line x1="187.087" x2="187.087" y1="0.000" y2="842.745" class="feint-line vertical"/>
    <line x1="192.756" x2="192.756" y1="0.000" y2="842.745" class="feint-line vertical"/>
    <line x1="198.425" x2="198.425" y1="0.000" y2="842.745" class="feint-line vertical"/>
    <line x1="204.094" x2="204.094" y1="0.000" y2="842.745" class="feint-line vertical"/>
    <line x1="209.764" x2="209.764" y1="0.000" y2="842.745" class="feint-line vertical"/>
    <line x1="215.433" x2="215.433" y1="0.000" y2="842.745" class="feint-line vertical"/>
    <line x1="221.102" x2="221.102" y1="0.000" y2="842.745" class="feint-line vertical"/>
    <line x1="226.772" x2="226.772" y1="0.000" y2="842.745" class="feint-line vertical"/>
    <line x1="232.441" x2="232.441" y1="0.000" y2="842.745" class="feint-line vertical"/>
    <line x1="238.110" x2="238.110" y1="0.000" y2="842.745" class="feint-line vertical"/>
    <line x1="243.780" x2="243.780" y1="0.000" y2="842.745" class="feint-line vertical"/>
    <line x1="249.449" x2="249.449" y1="0.000" y2="842.745" class="feint-line vertical"/>
    <line x1="255.118" x2="255.118" y1="0.000" y2="842.745" class="feint-line vertical"/>
    <line x1="260.787" x2="260.787" y1="0.000" y2="842.745" class="feint-line vertical"/>
    <line x1="266.457" x2="266.457" y1="0.000" y2="842.745" class="feint-line vertical"/>
    <line x1="272.126" x2="272.126" y1="0.000" y2="842.745" class="feint-line vertical"/>
    <line x1="277.795" x2="277.795" y1="0.000" y2="842.745" class="feint-line vertical"/>
    <line x1="283.465" x2="283.465" y1="0.000" y2="842.745" class="feint-line vertical"/>
    <line x1="289.134" x2="289.134" y1="0.000" y2="842.745" class="feint-line vertical"/>
    <line x1="294.803" x2="294.803" y1="0.000" y2="842.745" class="feint-line vertical"/>
    <line x1="300.472" x2="300.472" y1="0.000" y2="842.745" class="feint-line vertical"/>
    <line x1="306.142" x2="306.142" y1="0.000" y2="842.745" class="feint-line vertical"/>
    <line x1="311.811" x2="311.811" y1="0.000" y2="842.745" class="feint-line vertical"/>
    <line x1="317.480" x2="317.480" y1="0.000" y2="842.745" class="feint-line vertical"/>
    <line x1="323.150" x2="323.150" y1="0.000" y2="842.745" class="feint-line vertical"/>
    <line x1="328.819" x2="328.819" y1="0.000" y2="842.745" class="feint-line vertical"/>
    <line x1="334.488" x2="334.488" y1="0.000" y2="842.745" class="feint-line vertical"/>
    <line x1="340.157" x2="340.157" y1="0.000" y2="842.745" class="feint-line vertical"/>
    <line x1="345.827" x2="345.827" y1="0.000" y2="842.745" class="feint-line vertical"/>
    <line x1="351.496" x2="351.496" y1="0.000" y2="842.745" class="feint-line vertical"/>
    <line x1="357.165" x2="357.165" y1="0.000" y2="842.745" class="feint-line vertical"/>
    <line x1="362.835" x2="362.835" y1="0.000" y2="842.745" class="feint-line vertical"/>
    <line x1="368.504" x2="368.504" y1="0.000" y2="842.745" class="feint-line vertical"/>
    <line x1="374.173" x2="374.173" y1="0.000" y2="842.745" class="feint-line vertical"/>
    <line x1="379.843" x2="379.843" y1="0.000" y2="842.745" class="feint-line vertical"/>
    <line x1="385.512" x2="385.512" y1="0.000" y2="842.745" class="feint-line vertical"/>
    <line x1="391.181" x2="391.181" y1="0.000" y2="842.745" class="feint-line vertical"/>
    <line x1="396.850" x2="396.850" y1="0.000" y2="842.745" class="feint-line vertical"/>
    <line x1="402.520" x2="402.520" y1="0.000" y2="842.745" class="feint-line vertical"/>
    <line x1="408.189" x2="408.189" y1="0.000" y2="842.745" class="feint-line vertical"/>
    <line x1="413.858" x2="413.858" y1="0.000" y2="842.745" class="feint-line vertical"/>
    <line x1="419.528" x2="419.528" y1="0.000" y2="842.745" class="feint-line vertical"/>
    <line x1="425.197" x2="425.197" y1="0.000" y2="842.745" class="feint-line vertical"/>
    <line x1="430.866" x2="430.866" y1="0.000" y2="842.745" class="feint-line vertical"/>
    <line x1="436.535" x2="436.535" y1="0.000" y2="842.745" class="feint-line vertical"/>
    <line x1="442.205" x2="442.205" y1="0.000" y2="842.745" class="feint-line vertical"/>
    <line x1="447.874" x2="447.874" y1="0.000" y2="842.745" class="feint-line vertical"/>
    <line x1="453.543" x2="453.543" y1="0.000" y2="842.745" class="feint-line vertical"/>
    <line x1="459.213" x2="459.213" y1="0.000" y2="842.745" class="feint-line vertical"/>
    <line x1="464.882" x2="464.882" y1="0.000" y2="842.745" class="feint-line vertical"/>
    <line x1="470.551" x2="470.551" y1="0.000" y2="842.745" class="feint-line vertical"/>
    <line x1="476.220" x2="476.220" y1="0.000" y2="842.745" class="feint-line vertical"/>
    <line x1="481.890" x2="481.890" y1="0.000" y2="842.745" class="feint-line vertical"/>
    <line x1="487.559" x2="487.559" y1="0.000" y2="842.745" class="feint-line vertical"/>
    <line x1="493.228" x2="493.228" y1="0.000" y2="842.745" class="feint-line vertical"/>
    <line x1="498.898" x2="498.898" y1="0.000" y2="842.745" class="feint-line vertical"/>
    <line x1="504.567" x2="504.567" y1="0.000" y2="842.745" class="feint-line vertical"/>
    <line x1="510.236" x2="510.236" y1="0.000" y2="842.745" class="feint-line vertical"/>
    <line x1="515.906" x2="515.906" y1="0.000" y2="842.745" class="feint-line vertical"/>
    <line x1="521.575" x2="521.575" y1="0.000" y2="842.745" class="feint-line vertical"/>
    <line x1="527.244" x2="527.244" y1="0.000" y2="842.745" class="feint-line vertical"/>
    <line x1="532.913" x2="532.913" y1="0.000" y2="842.745" class="feint-line vertical"/>
    <line x1="538.583" x2="538.583" y1="0.000" y2="842.745" class="feint-line vertical"/>
    <line x1="544.252" x2="544.252" y1="0.000" y2="842.745" class="feint-line vertical"/>
    <line x1="549.921" x2="549.921" y1="0.000" y2="842.745" class="feint-line vertical"/>
    <line x1="555.591" x2="555.591" y1="0.000" y2="842.745" class="feint-line vertical"/>
    <line x1="561.260" x2="561.260" y1="0.000" y2="842.745" class="feint-line vertical"/>
    <line x1="566.929" x2="566.929" y1="0.000" y2="842.745" class="feint-line vertical"/>
    <line x1="572.598" x2="572.598" y1="0.000" y2="842.745" class="feint-line vertical"/>
    <line x1="578.268" x2="578.268" y1="0.000" y2="842.745" class="feint-line vertical"/>
    <line x1="583.937" x2="583.937" y1="0.000" y2="842.745" class="feint-line vertical"/>
    <line x1="589.606" x2="589.606" y1="0.000" y2="842.745" class="feint-line vertical"/>
    <line x1="595.276" x2="595.276" y1="0.000" y2="842.745" class="feint-line vertical"/>
  </g>
  <g id="lines">
    <line x1="0.000" x2="595.911" y1="1.845" y2="1.845" class="line"/>
    <line x1="0.000" x2="595.911" y1="18.853" y2="18.853" class="line"/>
    <line x1="0.000" x2="595.911" y1="35.861" y2="35.861" class="line"/>
    <line x1="0.000" x2="595.911" y1="52.869" y2="52.869" class="line"/>
    <line x1="0.000" x2="595.911" y1="69.877" y2="69.877" class="line"/>
    <line x1="0.000" x2="595.911" y1="86.884" y2="86.884" class="line"/>
    <line x1="0.000" x2="595.911" y1="103.892" y2="103.892" class="line"/>
    <line x1="0.000" x2="595.911" y1="120.900" y2="120.900" class="line"/>
    <line x1="0.000" x2="595.911" y1="137.908" y2="137.908" class="line"/>
    <line x1="0.000" x2="595.911" y1="154.916" y2="154.916" class="line"/>
    <line x1="0.000" x2="595.911" y1="171.924" y2="171.924" class="line"/>
    <line x1="0.000" x2="595.911" y1="188.932" y2="188.932" class="line"/>
    <line x1="0.000" x2="595.911" y1="205.940" y2="205.940" class="line"/>
    <line x1="0.000" x2="595.911" y1="222.947" y2="222.947" class="line"/>
    <line x1="0.000" x2="595.911" y1="239.955" y2="239.955" class="line"/>
    <line x1="0.000" x2="595.911" y1="256.963" y2="256.963" class="line"/>
    <line x1="0.000" x2="595.911" y1="273.971" y2="273.971" class="line"/>
    <line x1="0.000" x2="595.911" y1="290.979" y2="290.979" class="line"/>
    <line x1="0.000" x2="595.911" y1="307.987" y2="307.987" class="line"/>
    <line x1="0.000" x2="595.911" y1="324.995" y2="324.995" class="line"/>
    <line x1="0.000" x2="595.911" y1="342.003" y2="342.003" class="line"/>
    <line x1="0.000" x2="595.911" y1="359.010" y2="359.010" class="line"/>
    <line x1="0.000" x2="595.911" y1="376.018" y2="376.018" class="line"/>
    <line x1="0.000" x2="595.911" y1="393.026" y2="393.026" class="line"/>
    <line x1="0.000" x2="595.911" y1="410.034" y2="410.034" class="line"/>
    <line x1="0.000" x2="595.911" y1="427.042" y2="427.042" class="line"/>
    <line x1="0.000" x2="595.911" y1="444.050" y2="444.050" class="line"/>
    <line x1="0.000" x2="595.911" y1="461.058" y2="461.058" class="line"/>
    <line x1="0.000" x2="595.911" y1="478.066" y2="478.066" class="line"/>
    <line x1="0.000" x2="595.911" y1="495.073" y2="495.073" class="line"/>
    <line x1="0.000" x2="595.911" y1="512.081" y2="512.081" class="line"/>
    <line x1="0.000" x2="595.911" y1="529.089" y2="529.089" class="line"/>
    <line x1="0.000" x2="595.911" y1="546.097" y2="546.097" class="line"/>
    <line x1="0.000" x2="595.911" y1="563.105" y2="563.105" class="line"/>
    <line x1="0.000" x2="595.911" y1="580.113" y2="580.113" class="line"/>
    <line x1="0.000" x2="595.911" y1="597.121" y2="597.121" class="line"/>
    <line x1="0.000" x2="595.911" y1="614.129" y2="614.129" class="line"/>
    <line x1="0.000" x2="595.911" y1="631.136" y2="631.136" class="line"/>
    <line x1="0.000" x2="595.911" y1="648.144" y2="648.144" class="line"/>
    <line x1="0.000" x2="595.911" y1="665.152" y2="665.152" class="line"/>
    <line x1="0.000" x2="595.911" y1="682.160" y2="682.160" class="line"/>
    <line x1="0.000" x2="595.911" y1="699.168" y2="699.168" class="line"/>
    <line x1="0.000" x2="595.911" y1="716.176" y2="716.176" class="line"/>
    <line x1="0.000" x2="595.911" y1="733.184" y2="733.184" class="line"/>
    <line x1="0.000" x2="595.911" y1="750.191" y2="750.191" class="line"/>
    <line x1="0.000" x2="595.911" y1="767.199" y2="767.199" class="line"/>
    <line x1="0.000" x2="595.911" y1="784.207" y2="784.207" class="line"/>
    <line x1="0.000" x2="595.911" y1="801.215" y2="801.215" class="line"/>
    <line x1="0.000" x2="595.911" y1="818.223" y2="818.223" class="line"/>
    <line x1="0.000" x2="595.911" y1="835.231" y2="835.231" class="line"/>
  </g>
  <g id="margin-line">
    <line x1="62.362" x2="62.362" y1="0.000" y2="842.745" class="margin-line vertical"/>
  </g>
  <rect x="203.455422727694" y="816.745199608227" width="189" height="12" fill="#ffffff" stroke="none" stroke-width="0px"/>
  <text x="297.955422727694" y="824.745199608227" text-anchor="middle" fill="#000000" stroke="none" stroke-width="0" style="font-family: &quot;Courier&quot;, &quot;Courier New&quot;, monospace; font-size: 6pt;">https://github.com/dse/printable-paper</text>
</svg>
