<?xml version="1.0" encoding="UTF-8"?>
<svg xmlns="http://www.w3.org/2000/svg" width="421.373pt" height="595.911pt" viewBox="0.000 0.000 421.373 595.911">
  <style>
        .line, .dot, .major-line, .feint-line, .margin-line { stroke-linecap: round; }
        .stroke-linecap-butt { stroke-linecap: butt; }
        .rectangle { fill: #ffffff; }


        .line        { stroke-width: 0.24px; opacity:  1; }
        .major-line  { stroke-width: 0.339411254969543px; opacity: 1; }
        .feint-line  { stroke-width: 0.12px; opacity:  1; }
        .dot         { stroke-width: 0.96px; opacity:  1; }
        .margin-line { stroke-width: 0.24px; opacity:  1; }
        .line        { stroke: #000000; }
        .major-line  { stroke: #000000; }
        .feint-line  { stroke: #000000; }
        .dot         { stroke: #000000; }
        .margin-line { stroke: #000000; }
  </style>
  <defs/>
  <g id="grid">
    <line x1="0.000" x2="421.373" y1="0.318" y2="0.318" class="feint-line"/>
    <line x1="0.000" x2="421.373" y1="8.822" y2="8.822" class="feint-line"/>
    <line x1="0.000" x2="421.373" y1="17.326" y2="17.326" class="feint-line"/>
    <line x1="0.000" x2="421.373" y1="25.829" y2="25.829" class="feint-line"/>
    <line x1="0.000" x2="421.373" y1="34.333" y2="34.333" class="feint-line"/>
    <line x1="0.000" x2="421.373" y1="42.837" y2="42.837" class="feint-line"/>
    <line x1="0.000" x2="421.373" y1="51.341" y2="51.341" class="feint-line"/>
    <line x1="0.000" x2="421.373" y1="59.845" y2="59.845" class="feint-line"/>
    <line x1="0.000" x2="421.373" y1="68.349" y2="68.349" class="feint-line"/>
    <line x1="0.000" x2="421.373" y1="76.853" y2="76.853" class="feint-line"/>
    <line x1="0.000" x2="421.373" y1="85.357" y2="85.357" class="feint-line"/>
    <line x1="0.000" x2="421.373" y1="93.861" y2="93.861" class="feint-line"/>
    <line x1="0.000" x2="421.373" y1="102.365" y2="102.365" class="feint-line"/>
    <line x1="0.000" x2="421.373" y1="110.869" y2="110.869" class="feint-line"/>
    <line x1="0.000" x2="421.373" y1="119.373" y2="119.373" class="feint-line"/>
    <line x1="0.000" x2="421.373" y1="127.877" y2="127.877" class="feint-line"/>
    <line x1="0.000" x2="421.373" y1="136.381" y2="136.381" class="feint-line"/>
    <line x1="0.000" x2="421.373" y1="144.885" y2="144.885" class="feint-line"/>
    <line x1="0.000" x2="421.373" y1="153.388" y2="153.388" class="feint-line"/>
    <line x1="0.000" x2="421.373" y1="161.892" y2="161.892" class="feint-line"/>
    <line x1="0.000" x2="421.373" y1="170.396" y2="170.396" class="feint-line"/>
    <line x1="0.000" x2="421.373" y1="178.900" y2="178.900" class="feint-line"/>
    <line x1="0.000" x2="421.373" y1="187.404" y2="187.404" class="feint-line"/>
    <line x1="0.000" x2="421.373" y1="195.908" y2="195.908" class="feint-line"/>
    <line x1="0.000" x2="421.373" y1="204.412" y2="204.412" class="feint-line"/>
    <line x1="0.000" x2="421.373" y1="212.916" y2="212.916" class="feint-line"/>
    <line x1="0.000" x2="421.373" y1="221.420" y2="221.420" class="feint-line"/>
    <line x1="0.000" x2="421.373" y1="229.924" y2="229.924" class="feint-line"/>
    <line x1="0.000" x2="421.373" y1="238.428" y2="238.428" class="feint-line"/>
    <line x1="0.000" x2="421.373" y1="246.932" y2="246.932" class="feint-line"/>
    <line x1="0.000" x2="421.373" y1="255.436" y2="255.436" class="feint-line"/>
    <line x1="0.000" x2="421.373" y1="263.940" y2="263.940" class="feint-line"/>
    <line x1="0.000" x2="421.373" y1="272.444" y2="272.444" class="feint-line"/>
    <line x1="0.000" x2="421.373" y1="280.948" y2="280.948" class="feint-line"/>
    <line x1="0.000" x2="421.373" y1="289.451" y2="289.451" class="feint-line"/>
    <line x1="0.000" x2="421.373" y1="297.955" y2="297.955" class="feint-line"/>
    <line x1="0.000" x2="421.373" y1="306.459" y2="306.459" class="feint-line"/>
    <line x1="0.000" x2="421.373" y1="314.963" y2="314.963" class="feint-line"/>
    <line x1="0.000" x2="421.373" y1="323.467" y2="323.467" class="feint-line"/>
    <line x1="0.000" x2="421.373" y1="331.971" y2="331.971" class="feint-line"/>
    <line x1="0.000" x2="421.373" y1="340.475" y2="340.475" class="feint-line"/>
    <line x1="0.000" x2="421.373" y1="348.979" y2="348.979" class="feint-line"/>
    <line x1="0.000" x2="421.373" y1="357.483" y2="357.483" class="feint-line"/>
    <line x1="0.000" x2="421.373" y1="365.987" y2="365.987" class="feint-line"/>
    <line x1="0.000" x2="421.373" y1="374.491" y2="374.491" class="feint-line"/>
    <line x1="0.000" x2="421.373" y1="382.995" y2="382.995" class="feint-line"/>
    <line x1="0.000" x2="421.373" y1="391.499" y2="391.499" class="feint-line"/>
    <line x1="0.000" x2="421.373" y1="400.003" y2="400.003" class="feint-line"/>
    <line x1="0.000" x2="421.373" y1="408.507" y2="408.507" class="feint-line"/>
    <line x1="0.000" x2="421.373" y1="417.011" y2="417.011" class="feint-line"/>
    <line x1="0.000" x2="421.373" y1="425.514" y2="425.514" class="feint-line"/>
    <line x1="0.000" x2="421.373" y1="434.018" y2="434.018" class="feint-line"/>
    <line x1="0.000" x2="421.373" y1="442.522" y2="442.522" class="feint-line"/>
    <line x1="0.000" x2="421.373" y1="451.026" y2="451.026" class="feint-line"/>
    <line x1="0.000" x2="421.373" y1="459.530" y2="459.530" class="feint-line"/>
    <line x1="0.000" x2="421.373" y1="468.034" y2="468.034" class="feint-line"/>
    <line x1="0.000" x2="421.373" y1="476.538" y2="476.538" class="feint-line"/>
    <line x1="0.000" x2="421.373" y1="485.042" y2="485.042" class="feint-line"/>
    <line x1="0.000" x2="421.373" y1="493.546" y2="493.546" class="feint-line"/>
    <line x1="0.000" x2="421.373" y1="502.050" y2="502.050" class="feint-line"/>
    <line x1="0.000" x2="421.373" y1="510.554" y2="510.554" class="feint-line"/>
    <line x1="0.000" x2="421.373" y1="519.058" y2="519.058" class="feint-line"/>
    <line x1="0.000" x2="421.373" y1="527.562" y2="527.562" class="feint-line"/>
    <line x1="0.000" x2="421.373" y1="536.066" y2="536.066" class="feint-line"/>
    <line x1="0.000" x2="421.373" y1="544.570" y2="544.570" class="feint-line"/>
    <line x1="0.000" x2="421.373" y1="553.074" y2="553.074" class="feint-line"/>
    <line x1="0.000" x2="421.373" y1="561.577" y2="561.577" class="feint-line"/>
    <line x1="0.000" x2="421.373" y1="570.081" y2="570.081" class="feint-line"/>
    <line x1="0.000" x2="421.373" y1="578.585" y2="578.585" class="feint-line"/>
    <line x1="0.000" x2="421.373" y1="587.089" y2="587.089" class="feint-line"/>
    <line x1="0.000" x2="421.373" y1="595.593" y2="595.593" class="feint-line"/>
    <line x1="2.835" x2="2.835" y1="0.000" y2="595.911" class="feint-line"/>
    <line x1="11.339" x2="11.339" y1="0.000" y2="595.911" class="feint-line"/>
    <line x1="19.843" x2="19.843" y1="0.000" y2="595.911" class="feint-line"/>
    <line x1="28.346" x2="28.346" y1="0.000" y2="595.911" class="feint-line"/>
    <line x1="36.850" x2="36.850" y1="0.000" y2="595.911" class="feint-line"/>
    <line x1="45.354" x2="45.354" y1="0.000" y2="595.911" class="feint-line"/>
    <line x1="53.858" x2="53.858" y1="0.000" y2="595.911" class="feint-line"/>
    <line x1="62.362" x2="62.362" y1="0.000" y2="595.911" class="feint-line"/>
    <line x1="70.866" x2="70.866" y1="0.000" y2="595.911" class="feint-line"/>
    <line x1="79.370" x2="79.370" y1="0.000" y2="595.911" class="feint-line"/>
    <line x1="87.874" x2="87.874" y1="0.000" y2="595.911" class="feint-line"/>
    <line x1="96.378" x2="96.378" y1="0.000" y2="595.911" class="feint-line"/>
    <line x1="104.882" x2="104.882" y1="0.000" y2="595.911" class="feint-line"/>
    <line x1="113.386" x2="113.386" y1="0.000" y2="595.911" class="feint-line"/>
    <line x1="121.890" x2="121.890" y1="0.000" y2="595.911" class="feint-line"/>
    <line x1="130.394" x2="130.394" y1="0.000" y2="595.911" class="feint-line"/>
    <line x1="138.898" x2="138.898" y1="0.000" y2="595.911" class="feint-line"/>
    <line x1="147.402" x2="147.402" y1="0.000" y2="595.911" class="feint-line"/>
    <line x1="155.906" x2="155.906" y1="0.000" y2="595.911" class="feint-line"/>
    <line x1="164.409" x2="164.409" y1="0.000" y2="595.911" class="feint-line"/>
    <line x1="172.913" x2="172.913" y1="0.000" y2="595.911" class="feint-line"/>
    <line x1="181.417" x2="181.417" y1="0.000" y2="595.911" class="feint-line"/>
    <line x1="189.921" x2="189.921" y1="0.000" y2="595.911" class="feint-line"/>
    <line x1="198.425" x2="198.425" y1="0.000" y2="595.911" class="feint-line"/>
    <line x1="206.929" x2="206.929" y1="0.000" y2="595.911" class="feint-line"/>
    <line x1="215.433" x2="215.433" y1="0.000" y2="595.911" class="feint-line"/>
    <line x1="223.937" x2="223.937" y1="0.000" y2="595.911" class="feint-line"/>
    <line x1="232.441" x2="232.441" y1="0.000" y2="595.911" class="feint-line"/>
    <line x1="240.945" x2="240.945" y1="0.000" y2="595.911" class="feint-line"/>
    <line x1="249.449" x2="249.449" y1="0.000" y2="595.911" class="feint-line"/>
    <line x1="257.953" x2="257.953" y1="0.000" y2="595.911" class="feint-line"/>
    <line x1="266.457" x2="266.457" y1="0.000" y2="595.911" class="feint-line"/>
    <line x1="274.961" x2="274.961" y1="0.000" y2="595.911" class="feint-line"/>
    <line x1="283.465" x2="283.465" y1="0.000" y2="595.911" class="feint-line"/>
    <line x1="291.969" x2="291.969" y1="0.000" y2="595.911" class="feint-line"/>
    <line x1="300.472" x2="300.472" y1="0.000" y2="595.911" class="feint-line"/>
    <line x1="308.976" x2="308.976" y1="0.000" y2="595.911" class="feint-line"/>
    <line x1="317.480" x2="317.480" y1="0.000" y2="595.911" class="feint-line"/>
    <line x1="325.984" x2="325.984" y1="0.000" y2="595.911" class="feint-line"/>
    <line x1="334.488" x2="334.488" y1="0.000" y2="595.911" class="feint-line"/>
    <line x1="342.992" x2="342.992" y1="0.000" y2="595.911" class="feint-line"/>
    <line x1="351.496" x2="351.496" y1="0.000" y2="595.911" class="feint-line"/>
    <line x1="360.000" x2="360.000" y1="0.000" y2="595.911" class="feint-line"/>
    <line x1="368.504" x2="368.504" y1="0.000" y2="595.911" class="feint-line"/>
    <line x1="377.008" x2="377.008" y1="0.000" y2="595.911" class="feint-line"/>
    <line x1="385.512" x2="385.512" y1="0.000" y2="595.911" class="feint-line"/>
    <line x1="394.016" x2="394.016" y1="0.000" y2="595.911" class="feint-line"/>
    <line x1="402.520" x2="402.520" y1="0.000" y2="595.911" class="feint-line"/>
    <line x1="411.024" x2="411.024" y1="0.000" y2="595.911" class="feint-line"/>
    <line x1="419.528" x2="419.528" y1="0.000" y2="595.911" class="feint-line"/>
  </g>
  <g id="lines">
    <line x1="0.000" x2="421.373" y1="17.326" y2="17.326" class="line"/>
    <line x1="0.000" x2="421.373" y1="42.837" y2="42.837" class="line"/>
    <line x1="0.000" x2="421.373" y1="68.349" y2="68.349" class="line"/>
    <line x1="0.000" x2="421.373" y1="93.861" y2="93.861" class="line"/>
    <line x1="0.000" x2="421.373" y1="119.373" y2="119.373" class="line"/>
    <line x1="0.000" x2="421.373" y1="144.885" y2="144.885" class="line"/>
    <line x1="0.000" x2="421.373" y1="170.396" y2="170.396" class="line"/>
    <line x1="0.000" x2="421.373" y1="195.908" y2="195.908" class="line"/>
    <line x1="0.000" x2="421.373" y1="221.420" y2="221.420" class="line"/>
    <line x1="0.000" x2="421.373" y1="246.932" y2="246.932" class="line"/>
    <line x1="0.000" x2="421.373" y1="272.444" y2="272.444" class="line"/>
    <line x1="0.000" x2="421.373" y1="297.955" y2="297.955" class="line"/>
    <line x1="0.000" x2="421.373" y1="323.467" y2="323.467" class="line"/>
    <line x1="0.000" x2="421.373" y1="348.979" y2="348.979" class="line"/>
    <line x1="0.000" x2="421.373" y1="374.491" y2="374.491" class="line"/>
    <line x1="0.000" x2="421.373" y1="400.003" y2="400.003" class="line"/>
    <line x1="0.000" x2="421.373" y1="425.514" y2="425.514" class="line"/>
    <line x1="0.000" x2="421.373" y1="451.026" y2="451.026" class="line"/>
    <line x1="0.000" x2="421.373" y1="476.538" y2="476.538" class="line"/>
    <line x1="0.000" x2="421.373" y1="502.050" y2="502.050" class="line"/>
    <line x1="0.000" x2="421.373" y1="527.562" y2="527.562" class="line"/>
    <line x1="0.000" x2="421.373" y1="553.074" y2="553.074" class="line"/>
    <line x1="0.000" x2="421.373" y1="578.585" y2="578.585" class="line"/>
  </g>
  <g id="margin-line">
    <line x1="62.362" x2="62.362" y1="0.000" y2="595.911" class="margin-line"/>
  </g>
  <rect x="116.186299902057" y="569.910845455389" width="189" height="12" fill="#ffffff" stroke="none" stroke-width="0px"/>
  <text x="210.686299902057" y="577.910845455389" text-anchor="middle" fill="#000000" stroke="none" stroke-width="0" style="font-family: &quot;Courier&quot;, &quot;Courier New&quot;, monospace; font-size: 6pt;">https://github.com/dse/printable-paper</text>
</svg>
