<?xml version="1.0" encoding="UTF-8"?>
<svg xmlns="http://www.w3.org/2000/svg" width="306.000pt" height="396.000pt" viewBox="0.000 0.000 306.000 396.000">
  <style>
        .line, .dot, .major-line, .feint-line, .margin-line { stroke-linecap: round; stroke-linejoin: round; }
        .stroke-linecap-butt    { stroke-linecap:  butt;   }
        .stroke-linecap-round   { stroke-linecap:  round;  }
        .stroke-linecap-square  { stroke-linecap:  square; }
        .stroke-linejoin-butt   { stroke-linejoin: butt;   }
        .stroke-linejoin-round  { stroke-linejoin: round;  }
        .stroke-linejoin-square { stroke-linejoin: square; }
        .rectangle { fill: #ffffff; }


        .line        { stroke-width: 0.24px; opacity:  1; }
        .major-line  { stroke-width: 0.24px; opacity: 1; }
        .feint-line  { stroke-width: 0.12px; opacity:  1; }

        .dot         { stroke-width: 0.96px; opacity:  1; }

        .margin-line { stroke-width: 0.24px; opacity:  1; }
        .line        { stroke: #000000; }
        .major-line  { stroke: #000000; }
        .feint-line  { stroke: #000000; }
        .dot         { stroke: #000000; }
        .margin-line { stroke: #000000; }
  </style>
  <defs/>
  <g id="grid">
    <line x1="0.000" x2="306.000" y1="0.000" y2="0.000" class="feint-line horizontal"/>
    <line x1="0.000" x2="306.000" y1="6.000" y2="6.000" class="feint-line horizontal"/>
    <line x1="0.000" x2="306.000" y1="12.000" y2="12.000" class="feint-line horizontal"/>
    <line x1="0.000" x2="306.000" y1="18.000" y2="18.000" class="feint-line horizontal"/>
    <line x1="0.000" x2="306.000" y1="24.000" y2="24.000" class="feint-line horizontal"/>
    <line x1="0.000" x2="306.000" y1="30.000" y2="30.000" class="feint-line horizontal"/>
    <line x1="0.000" x2="306.000" y1="36.000" y2="36.000" class="feint-line horizontal"/>
    <line x1="0.000" x2="306.000" y1="42.000" y2="42.000" class="feint-line horizontal"/>
    <line x1="0.000" x2="306.000" y1="48.000" y2="48.000" class="feint-line horizontal"/>
    <line x1="0.000" x2="306.000" y1="54.000" y2="54.000" class="feint-line horizontal"/>
    <line x1="0.000" x2="306.000" y1="60.000" y2="60.000" class="feint-line horizontal"/>
    <line x1="0.000" x2="306.000" y1="66.000" y2="66.000" class="feint-line horizontal"/>
    <line x1="0.000" x2="306.000" y1="72.000" y2="72.000" class="feint-line horizontal"/>
    <line x1="0.000" x2="306.000" y1="78.000" y2="78.000" class="feint-line horizontal"/>
    <line x1="0.000" x2="306.000" y1="84.000" y2="84.000" class="feint-line horizontal"/>
    <line x1="0.000" x2="306.000" y1="90.000" y2="90.000" class="feint-line horizontal"/>
    <line x1="0.000" x2="306.000" y1="96.000" y2="96.000" class="feint-line horizontal"/>
    <line x1="0.000" x2="306.000" y1="102.000" y2="102.000" class="feint-line horizontal"/>
    <line x1="0.000" x2="306.000" y1="108.000" y2="108.000" class="feint-line horizontal"/>
    <line x1="0.000" x2="306.000" y1="114.000" y2="114.000" class="feint-line horizontal"/>
    <line x1="0.000" x2="306.000" y1="120.000" y2="120.000" class="feint-line horizontal"/>
    <line x1="0.000" x2="306.000" y1="126.000" y2="126.000" class="feint-line horizontal"/>
    <line x1="0.000" x2="306.000" y1="132.000" y2="132.000" class="feint-line horizontal"/>
    <line x1="0.000" x2="306.000" y1="138.000" y2="138.000" class="feint-line horizontal"/>
    <line x1="0.000" x2="306.000" y1="144.000" y2="144.000" class="feint-line horizontal"/>
    <line x1="0.000" x2="306.000" y1="150.000" y2="150.000" class="feint-line horizontal"/>
    <line x1="0.000" x2="306.000" y1="156.000" y2="156.000" class="feint-line horizontal"/>
    <line x1="0.000" x2="306.000" y1="162.000" y2="162.000" class="feint-line horizontal"/>
    <line x1="0.000" x2="306.000" y1="168.000" y2="168.000" class="feint-line horizontal"/>
    <line x1="0.000" x2="306.000" y1="174.000" y2="174.000" class="feint-line horizontal"/>
    <line x1="0.000" x2="306.000" y1="180.000" y2="180.000" class="feint-line horizontal"/>
    <line x1="0.000" x2="306.000" y1="186.000" y2="186.000" class="feint-line horizontal"/>
    <line x1="0.000" x2="306.000" y1="192.000" y2="192.000" class="feint-line horizontal"/>
    <line x1="0.000" x2="306.000" y1="198.000" y2="198.000" class="feint-line horizontal"/>
    <line x1="0.000" x2="306.000" y1="204.000" y2="204.000" class="feint-line horizontal"/>
    <line x1="0.000" x2="306.000" y1="210.000" y2="210.000" class="feint-line horizontal"/>
    <line x1="0.000" x2="306.000" y1="216.000" y2="216.000" class="feint-line horizontal"/>
    <line x1="0.000" x2="306.000" y1="222.000" y2="222.000" class="feint-line horizontal"/>
    <line x1="0.000" x2="306.000" y1="228.000" y2="228.000" class="feint-line horizontal"/>
    <line x1="0.000" x2="306.000" y1="234.000" y2="234.000" class="feint-line horizontal"/>
    <line x1="0.000" x2="306.000" y1="240.000" y2="240.000" class="feint-line horizontal"/>
    <line x1="0.000" x2="306.000" y1="246.000" y2="246.000" class="feint-line horizontal"/>
    <line x1="0.000" x2="306.000" y1="252.000" y2="252.000" class="feint-line horizontal"/>
    <line x1="0.000" x2="306.000" y1="258.000" y2="258.000" class="feint-line horizontal"/>
    <line x1="0.000" x2="306.000" y1="264.000" y2="264.000" class="feint-line horizontal"/>
    <line x1="0.000" x2="306.000" y1="270.000" y2="270.000" class="feint-line horizontal"/>
    <line x1="0.000" x2="306.000" y1="276.000" y2="276.000" class="feint-line horizontal"/>
    <line x1="0.000" x2="306.000" y1="282.000" y2="282.000" class="feint-line horizontal"/>
    <line x1="0.000" x2="306.000" y1="288.000" y2="288.000" class="feint-line horizontal"/>
    <line x1="0.000" x2="306.000" y1="294.000" y2="294.000" class="feint-line horizontal"/>
    <line x1="0.000" x2="306.000" y1="300.000" y2="300.000" class="feint-line horizontal"/>
    <line x1="0.000" x2="306.000" y1="306.000" y2="306.000" class="feint-line horizontal"/>
    <line x1="0.000" x2="306.000" y1="312.000" y2="312.000" class="feint-line horizontal"/>
    <line x1="0.000" x2="306.000" y1="318.000" y2="318.000" class="feint-line horizontal"/>
    <line x1="0.000" x2="306.000" y1="324.000" y2="324.000" class="feint-line horizontal"/>
    <line x1="0.000" x2="306.000" y1="330.000" y2="330.000" class="feint-line horizontal"/>
    <line x1="0.000" x2="306.000" y1="336.000" y2="336.000" class="feint-line horizontal"/>
    <line x1="0.000" x2="306.000" y1="342.000" y2="342.000" class="feint-line horizontal"/>
    <line x1="0.000" x2="306.000" y1="348.000" y2="348.000" class="feint-line horizontal"/>
    <line x1="0.000" x2="306.000" y1="354.000" y2="354.000" class="feint-line horizontal"/>
    <line x1="0.000" x2="306.000" y1="360.000" y2="360.000" class="feint-line horizontal"/>
    <line x1="0.000" x2="306.000" y1="366.000" y2="366.000" class="feint-line horizontal"/>
    <line x1="0.000" x2="306.000" y1="372.000" y2="372.000" class="feint-line horizontal"/>
    <line x1="0.000" x2="306.000" y1="378.000" y2="378.000" class="feint-line horizontal"/>
    <line x1="0.000" x2="306.000" y1="384.000" y2="384.000" class="feint-line horizontal"/>
    <line x1="0.000" x2="306.000" y1="390.000" y2="390.000" class="feint-line horizontal"/>
    <line x1="0.000" x2="306.000" y1="396.000" y2="396.000" class="feint-line horizontal"/>
    <line x1="3.000" x2="3.000" y1="0.000" y2="396.000" class="feint-line vertical"/>
    <line x1="9.000" x2="9.000" y1="0.000" y2="396.000" class="feint-line vertical"/>
    <line x1="15.000" x2="15.000" y1="0.000" y2="396.000" class="feint-line vertical"/>
    <line x1="21.000" x2="21.000" y1="0.000" y2="396.000" class="feint-line vertical"/>
    <line x1="27.000" x2="27.000" y1="0.000" y2="396.000" class="feint-line vertical"/>
    <line x1="33.000" x2="33.000" y1="0.000" y2="396.000" class="feint-line vertical"/>
    <line x1="39.000" x2="39.000" y1="0.000" y2="396.000" class="feint-line vertical"/>
    <line x1="45.000" x2="45.000" y1="0.000" y2="396.000" class="feint-line vertical"/>
    <line x1="51.000" x2="51.000" y1="0.000" y2="396.000" class="feint-line vertical"/>
    <line x1="57.000" x2="57.000" y1="0.000" y2="396.000" class="feint-line vertical"/>
    <line x1="63.000" x2="63.000" y1="0.000" y2="396.000" class="feint-line vertical"/>
    <line x1="69.000" x2="69.000" y1="0.000" y2="396.000" class="feint-line vertical"/>
    <line x1="75.000" x2="75.000" y1="0.000" y2="396.000" class="feint-line vertical"/>
    <line x1="81.000" x2="81.000" y1="0.000" y2="396.000" class="feint-line vertical"/>
    <line x1="87.000" x2="87.000" y1="0.000" y2="396.000" class="feint-line vertical"/>
    <line x1="93.000" x2="93.000" y1="0.000" y2="396.000" class="feint-line vertical"/>
    <line x1="99.000" x2="99.000" y1="0.000" y2="396.000" class="feint-line vertical"/>
    <line x1="105.000" x2="105.000" y1="0.000" y2="396.000" class="feint-line vertical"/>
    <line x1="111.000" x2="111.000" y1="0.000" y2="396.000" class="feint-line vertical"/>
    <line x1="117.000" x2="117.000" y1="0.000" y2="396.000" class="feint-line vertical"/>
    <line x1="123.000" x2="123.000" y1="0.000" y2="396.000" class="feint-line vertical"/>
    <line x1="129.000" x2="129.000" y1="0.000" y2="396.000" class="feint-line vertical"/>
    <line x1="135.000" x2="135.000" y1="0.000" y2="396.000" class="feint-line vertical"/>
    <line x1="141.000" x2="141.000" y1="0.000" y2="396.000" class="feint-line vertical"/>
    <line x1="147.000" x2="147.000" y1="0.000" y2="396.000" class="feint-line vertical"/>
    <line x1="153.000" x2="153.000" y1="0.000" y2="396.000" class="feint-line vertical"/>
    <line x1="159.000" x2="159.000" y1="0.000" y2="396.000" class="feint-line vertical"/>
    <line x1="165.000" x2="165.000" y1="0.000" y2="396.000" class="feint-line vertical"/>
    <line x1="171.000" x2="171.000" y1="0.000" y2="396.000" class="feint-line vertical"/>
    <line x1="177.000" x2="177.000" y1="0.000" y2="396.000" class="feint-line vertical"/>
    <line x1="183.000" x2="183.000" y1="0.000" y2="396.000" class="feint-line vertical"/>
    <line x1="189.000" x2="189.000" y1="0.000" y2="396.000" class="feint-line vertical"/>
    <line x1="195.000" x2="195.000" y1="0.000" y2="396.000" class="feint-line vertical"/>
    <line x1="201.000" x2="201.000" y1="0.000" y2="396.000" class="feint-line vertical"/>
    <line x1="207.000" x2="207.000" y1="0.000" y2="396.000" class="feint-line vertical"/>
    <line x1="213.000" x2="213.000" y1="0.000" y2="396.000" class="feint-line vertical"/>
    <line x1="219.000" x2="219.000" y1="0.000" y2="396.000" class="feint-line vertical"/>
    <line x1="225.000" x2="225.000" y1="0.000" y2="396.000" class="feint-line vertical"/>
    <line x1="231.000" x2="231.000" y1="0.000" y2="396.000" class="feint-line vertical"/>
    <line x1="237.000" x2="237.000" y1="0.000" y2="396.000" class="feint-line vertical"/>
    <line x1="243.000" x2="243.000" y1="0.000" y2="396.000" class="feint-line vertical"/>
    <line x1="249.000" x2="249.000" y1="0.000" y2="396.000" class="feint-line vertical"/>
    <line x1="255.000" x2="255.000" y1="0.000" y2="396.000" class="feint-line vertical"/>
    <line x1="261.000" x2="261.000" y1="0.000" y2="396.000" class="feint-line vertical"/>
    <line x1="267.000" x2="267.000" y1="0.000" y2="396.000" class="feint-line vertical"/>
    <line x1="273.000" x2="273.000" y1="0.000" y2="396.000" class="feint-line vertical"/>
    <line x1="279.000" x2="279.000" y1="0.000" y2="396.000" class="feint-line vertical"/>
    <line x1="285.000" x2="285.000" y1="0.000" y2="396.000" class="feint-line vertical"/>
    <line x1="291.000" x2="291.000" y1="0.000" y2="396.000" class="feint-line vertical"/>
    <line x1="297.000" x2="297.000" y1="0.000" y2="396.000" class="feint-line vertical"/>
    <line x1="303.000" x2="303.000" y1="0.000" y2="396.000" class="feint-line vertical"/>
  </g>
  <g id="lines">
    <line x1="0.000" x2="306.000" y1="6.000" y2="6.000" class="line"/>
    <line x1="0.000" x2="306.000" y1="24.000" y2="24.000" class="line"/>
    <line x1="0.000" x2="306.000" y1="42.000" y2="42.000" class="line"/>
    <line x1="0.000" x2="306.000" y1="60.000" y2="60.000" class="line"/>
    <line x1="0.000" x2="306.000" y1="78.000" y2="78.000" class="line"/>
    <line x1="0.000" x2="306.000" y1="96.000" y2="96.000" class="line"/>
    <line x1="0.000" x2="306.000" y1="114.000" y2="114.000" class="line"/>
    <line x1="0.000" x2="306.000" y1="132.000" y2="132.000" class="line"/>
    <line x1="0.000" x2="306.000" y1="150.000" y2="150.000" class="line"/>
    <line x1="0.000" x2="306.000" y1="168.000" y2="168.000" class="line"/>
    <line x1="0.000" x2="306.000" y1="186.000" y2="186.000" class="line"/>
    <line x1="0.000" x2="306.000" y1="204.000" y2="204.000" class="line"/>
    <line x1="0.000" x2="306.000" y1="222.000" y2="222.000" class="line"/>
    <line x1="0.000" x2="306.000" y1="240.000" y2="240.000" class="line"/>
    <line x1="0.000" x2="306.000" y1="258.000" y2="258.000" class="line"/>
    <line x1="0.000" x2="306.000" y1="276.000" y2="276.000" class="line"/>
    <line x1="0.000" x2="306.000" y1="294.000" y2="294.000" class="line"/>
    <line x1="0.000" x2="306.000" y1="312.000" y2="312.000" class="line"/>
    <line x1="0.000" x2="306.000" y1="330.000" y2="330.000" class="line"/>
    <line x1="0.000" x2="306.000" y1="348.000" y2="348.000" class="line"/>
    <line x1="0.000" x2="306.000" y1="366.000" y2="366.000" class="line"/>
    <line x1="0.000" x2="306.000" y1="384.000" y2="384.000" class="line"/>
  </g>
  <g id="margin-line">
    <line x1="63.000" x2="63.000" y1="0.000" y2="396.000" class="margin-line vertical"/>
  </g>
  <rect x="58.5" y="370" width="189" height="12" fill="#ffffff" stroke="none" stroke-width="0px"/>
  <text x="153" y="378" text-anchor="middle" fill="#000000" stroke="none" stroke-width="0" style="font-family: &quot;Courier&quot;, &quot;Courier New&quot;, monospace; font-size: 6pt;">https://github.com/dse/printable-paper</text>
</svg>
