<?xml version="1.0" encoding="UTF-8"?>
<svg xmlns="http://www.w3.org/2000/svg" width="595.911pt" height="842.745pt" viewBox="0.000 0.000 595.911 842.745">
  <style>
        .line, .regular-line, .major-line, .feint-line,
        .dot,  .regular-dot,  .major-dot,  .feint-dot,
        .margin-line {
            stroke-linecap: round; stroke-linejoin: round;
        }
        .stroke-linecap-butt    { stroke-linecap:  butt;   }
        .stroke-linecap-round   { stroke-linecap:  round;  }
        .stroke-linecap-square  { stroke-linecap:  square; }
        .stroke-linejoin-butt   { stroke-linejoin: butt;   }
        .stroke-linejoin-round  { stroke-linejoin: round;  }
        .stroke-linejoin-square { stroke-linejoin: square; }
        .rectangle { fill: #ffffff; }


        .regular-line { stroke-width: 0.24px; opacity: 1; }
        .major-line   { stroke-width: 0.24px; opacity: 1;   }
        .feint-line   { stroke-width: 0.12px; opacity: 1;   }
        .regular-dot  { stroke-width: 0.96px; opacity: 1;  }
        .major-dot    { stroke-width: 1.92px; opacity: 1;    }
        .feint-dot    { stroke-width: 0.48px; opacity: 1;    }
        .margin-line  { stroke-width: 0.24px; opacity: 1;  }
        .regular-line { stroke: #000000; }
        .major-line   { stroke: #000000;   }
        .feint-line   { stroke: #000000;   }
        .regular-dot  { stroke: #000000; }
        .major-dot    { stroke: #000000;   }
        .feint-dot    { stroke: #000000;   }
        .margin-line  { stroke: #000000;  }
        line.regular-dot {
            stroke-linecap: butt;
        }
        line.major-dot {
            stroke-linecap: butt;
        }
        line.feint-dot {
            stroke-linecap: butt;
        }
  </style>
  <defs/>
  <g id="lines">
    <line x1="0.000" x2="595.911" y1="13.184" y2="13.184" class="regular-line"/>
    <line x1="0.000" x2="595.911" y1="30.191" y2="30.191" class="regular-line"/>
    <line x1="0.000" x2="595.911" y1="47.199" y2="47.199" class="regular-line"/>
    <line x1="0.000" x2="595.911" y1="64.207" y2="64.207" class="regular-line"/>
    <line x1="0.000" x2="595.911" y1="81.215" y2="81.215" class="regular-line"/>
    <line x1="0.000" x2="595.911" y1="98.223" y2="98.223" class="regular-line"/>
    <line x1="0.000" x2="595.911" y1="115.231" y2="115.231" class="regular-line"/>
    <line x1="0.000" x2="595.911" y1="132.239" y2="132.239" class="regular-line"/>
    <line x1="0.000" x2="595.911" y1="149.247" y2="149.247" class="regular-line"/>
    <line x1="0.000" x2="595.911" y1="166.254" y2="166.254" class="regular-line"/>
    <line x1="0.000" x2="595.911" y1="183.262" y2="183.262" class="regular-line"/>
    <line x1="0.000" x2="595.911" y1="200.270" y2="200.270" class="regular-line"/>
    <line x1="0.000" x2="595.911" y1="217.278" y2="217.278" class="regular-line"/>
    <line x1="0.000" x2="595.911" y1="234.286" y2="234.286" class="regular-line"/>
    <line x1="0.000" x2="595.911" y1="251.294" y2="251.294" class="regular-line"/>
    <line x1="0.000" x2="595.911" y1="268.302" y2="268.302" class="regular-line"/>
    <line x1="0.000" x2="595.911" y1="285.310" y2="285.310" class="regular-line"/>
    <line x1="0.000" x2="595.911" y1="302.317" y2="302.317" class="regular-line"/>
    <line x1="0.000" x2="595.911" y1="319.325" y2="319.325" class="regular-line"/>
    <line x1="0.000" x2="595.911" y1="336.333" y2="336.333" class="regular-line"/>
    <line x1="0.000" x2="595.911" y1="353.341" y2="353.341" class="regular-line"/>
    <line x1="0.000" x2="595.911" y1="370.349" y2="370.349" class="regular-line"/>
    <line x1="0.000" x2="595.911" y1="387.357" y2="387.357" class="regular-line"/>
    <line x1="0.000" x2="595.911" y1="404.365" y2="404.365" class="regular-line"/>
    <line x1="0.000" x2="595.911" y1="421.373" y2="421.373" class="regular-line"/>
    <line x1="0.000" x2="595.911" y1="438.380" y2="438.380" class="regular-line"/>
    <line x1="0.000" x2="595.911" y1="455.388" y2="455.388" class="regular-line"/>
    <line x1="0.000" x2="595.911" y1="472.396" y2="472.396" class="regular-line"/>
    <line x1="0.000" x2="595.911" y1="489.404" y2="489.404" class="regular-line"/>
    <line x1="0.000" x2="595.911" y1="506.412" y2="506.412" class="regular-line"/>
    <line x1="0.000" x2="595.911" y1="523.420" y2="523.420" class="regular-line"/>
    <line x1="0.000" x2="595.911" y1="540.428" y2="540.428" class="regular-line"/>
    <line x1="0.000" x2="595.911" y1="557.436" y2="557.436" class="regular-line"/>
    <line x1="0.000" x2="595.911" y1="574.443" y2="574.443" class="regular-line"/>
    <line x1="0.000" x2="595.911" y1="591.451" y2="591.451" class="regular-line"/>
    <line x1="0.000" x2="595.911" y1="608.459" y2="608.459" class="regular-line"/>
    <line x1="0.000" x2="595.911" y1="625.467" y2="625.467" class="regular-line"/>
    <line x1="0.000" x2="595.911" y1="642.475" y2="642.475" class="regular-line"/>
    <line x1="0.000" x2="595.911" y1="659.483" y2="659.483" class="regular-line"/>
    <line x1="0.000" x2="595.911" y1="676.491" y2="676.491" class="regular-line"/>
    <line x1="0.000" x2="595.911" y1="693.499" y2="693.499" class="regular-line"/>
    <line x1="0.000" x2="595.911" y1="710.506" y2="710.506" class="regular-line"/>
    <line x1="0.000" x2="595.911" y1="727.514" y2="727.514" class="regular-line"/>
    <line x1="0.000" x2="595.911" y1="744.522" y2="744.522" class="regular-line"/>
    <line x1="0.000" x2="595.911" y1="761.530" y2="761.530" class="regular-line"/>
    <line x1="0.000" x2="595.911" y1="778.538" y2="778.538" class="regular-line"/>
    <line x1="0.000" x2="595.911" y1="795.546" y2="795.546" class="regular-line"/>
    <line x1="0.000" x2="595.911" y1="812.554" y2="812.554" class="regular-line"/>
    <line x1="0.000" x2="595.911" y1="829.562" y2="829.562" class="regular-line"/>
  </g>
  <g id="grid-1">
    <line x1="8.822" x2="8.822" y1="1.365" y2="841.380" class="regular-dot" stroke-dasharray="0.960 1.875" stroke-dashoffset="0.000"/>
    <line x1="25.829" x2="25.829" y1="1.365" y2="841.380" class="regular-dot" stroke-dasharray="0.960 1.875" stroke-dashoffset="0.000"/>
    <line x1="42.837" x2="42.837" y1="1.365" y2="841.380" class="regular-dot" stroke-dasharray="0.960 1.875" stroke-dashoffset="0.000"/>
    <line x1="59.845" x2="59.845" y1="1.365" y2="841.380" class="regular-dot" stroke-dasharray="0.960 1.875" stroke-dashoffset="0.000"/>
    <line x1="76.853" x2="76.853" y1="1.365" y2="841.380" class="regular-dot" stroke-dasharray="0.960 1.875" stroke-dashoffset="0.000"/>
    <line x1="93.861" x2="93.861" y1="1.365" y2="841.380" class="regular-dot" stroke-dasharray="0.960 1.875" stroke-dashoffset="0.000"/>
    <line x1="110.869" x2="110.869" y1="1.365" y2="841.380" class="regular-dot" stroke-dasharray="0.960 1.875" stroke-dashoffset="0.000"/>
    <line x1="127.877" x2="127.877" y1="1.365" y2="841.380" class="regular-dot" stroke-dasharray="0.960 1.875" stroke-dashoffset="0.000"/>
    <line x1="144.885" x2="144.885" y1="1.365" y2="841.380" class="regular-dot" stroke-dasharray="0.960 1.875" stroke-dashoffset="0.000"/>
    <line x1="161.892" x2="161.892" y1="1.365" y2="841.380" class="regular-dot" stroke-dasharray="0.960 1.875" stroke-dashoffset="0.000"/>
    <line x1="178.900" x2="178.900" y1="1.365" y2="841.380" class="regular-dot" stroke-dasharray="0.960 1.875" stroke-dashoffset="0.000"/>
    <line x1="195.908" x2="195.908" y1="1.365" y2="841.380" class="regular-dot" stroke-dasharray="0.960 1.875" stroke-dashoffset="0.000"/>
    <line x1="212.916" x2="212.916" y1="1.365" y2="841.380" class="regular-dot" stroke-dasharray="0.960 1.875" stroke-dashoffset="0.000"/>
    <line x1="229.924" x2="229.924" y1="1.365" y2="841.380" class="regular-dot" stroke-dasharray="0.960 1.875" stroke-dashoffset="0.000"/>
    <line x1="246.932" x2="246.932" y1="1.365" y2="841.380" class="regular-dot" stroke-dasharray="0.960 1.875" stroke-dashoffset="0.000"/>
    <line x1="263.940" x2="263.940" y1="1.365" y2="841.380" class="regular-dot" stroke-dasharray="0.960 1.875" stroke-dashoffset="0.000"/>
    <line x1="280.948" x2="280.948" y1="1.365" y2="841.380" class="regular-dot" stroke-dasharray="0.960 1.875" stroke-dashoffset="0.000"/>
    <line x1="297.955" x2="297.955" y1="1.365" y2="841.380" class="regular-dot" stroke-dasharray="0.960 1.875" stroke-dashoffset="0.000"/>
    <line x1="314.963" x2="314.963" y1="1.365" y2="841.380" class="regular-dot" stroke-dasharray="0.960 1.875" stroke-dashoffset="0.000"/>
    <line x1="331.971" x2="331.971" y1="1.365" y2="841.380" class="regular-dot" stroke-dasharray="0.960 1.875" stroke-dashoffset="0.000"/>
    <line x1="348.979" x2="348.979" y1="1.365" y2="841.380" class="regular-dot" stroke-dasharray="0.960 1.875" stroke-dashoffset="0.000"/>
    <line x1="365.987" x2="365.987" y1="1.365" y2="841.380" class="regular-dot" stroke-dasharray="0.960 1.875" stroke-dashoffset="0.000"/>
    <line x1="382.995" x2="382.995" y1="1.365" y2="841.380" class="regular-dot" stroke-dasharray="0.960 1.875" stroke-dashoffset="0.000"/>
    <line x1="400.003" x2="400.003" y1="1.365" y2="841.380" class="regular-dot" stroke-dasharray="0.960 1.875" stroke-dashoffset="0.000"/>
    <line x1="417.011" x2="417.011" y1="1.365" y2="841.380" class="regular-dot" stroke-dasharray="0.960 1.875" stroke-dashoffset="0.000"/>
    <line x1="434.018" x2="434.018" y1="1.365" y2="841.380" class="regular-dot" stroke-dasharray="0.960 1.875" stroke-dashoffset="0.000"/>
    <line x1="451.026" x2="451.026" y1="1.365" y2="841.380" class="regular-dot" stroke-dasharray="0.960 1.875" stroke-dashoffset="0.000"/>
    <line x1="468.034" x2="468.034" y1="1.365" y2="841.380" class="regular-dot" stroke-dasharray="0.960 1.875" stroke-dashoffset="0.000"/>
    <line x1="485.042" x2="485.042" y1="1.365" y2="841.380" class="regular-dot" stroke-dasharray="0.960 1.875" stroke-dashoffset="0.000"/>
    <line x1="502.050" x2="502.050" y1="1.365" y2="841.380" class="regular-dot" stroke-dasharray="0.960 1.875" stroke-dashoffset="0.000"/>
    <line x1="519.058" x2="519.058" y1="1.365" y2="841.380" class="regular-dot" stroke-dasharray="0.960 1.875" stroke-dashoffset="0.000"/>
    <line x1="536.066" x2="536.066" y1="1.365" y2="841.380" class="regular-dot" stroke-dasharray="0.960 1.875" stroke-dashoffset="0.000"/>
    <line x1="553.074" x2="553.074" y1="1.365" y2="841.380" class="regular-dot" stroke-dasharray="0.960 1.875" stroke-dashoffset="0.000"/>
    <line x1="570.081" x2="570.081" y1="1.365" y2="841.380" class="regular-dot" stroke-dasharray="0.960 1.875" stroke-dashoffset="0.000"/>
    <line x1="587.089" x2="587.089" y1="1.365" y2="841.380" class="regular-dot" stroke-dasharray="0.960 1.875" stroke-dashoffset="0.000"/>
  </g>
  <g id="grid-2">
    <line x1="1.052" x2="594.858" y1="1.845" y2="1.845" class="regular-dot" stroke-dasharray="0.960 1.470" stroke-dashoffset="0.000"/>
    <line x1="1.052" x2="594.858" y1="18.853" y2="18.853" class="regular-dot" stroke-dasharray="0.960 1.470" stroke-dashoffset="0.000"/>
    <line x1="1.052" x2="594.858" y1="35.861" y2="35.861" class="regular-dot" stroke-dasharray="0.960 1.470" stroke-dashoffset="0.000"/>
    <line x1="1.052" x2="594.858" y1="52.869" y2="52.869" class="regular-dot" stroke-dasharray="0.960 1.470" stroke-dashoffset="0.000"/>
    <line x1="1.052" x2="594.858" y1="69.877" y2="69.877" class="regular-dot" stroke-dasharray="0.960 1.470" stroke-dashoffset="0.000"/>
    <line x1="1.052" x2="594.858" y1="86.884" y2="86.884" class="regular-dot" stroke-dasharray="0.960 1.470" stroke-dashoffset="0.000"/>
    <line x1="1.052" x2="594.858" y1="103.892" y2="103.892" class="regular-dot" stroke-dasharray="0.960 1.470" stroke-dashoffset="0.000"/>
    <line x1="1.052" x2="594.858" y1="120.900" y2="120.900" class="regular-dot" stroke-dasharray="0.960 1.470" stroke-dashoffset="0.000"/>
    <line x1="1.052" x2="594.858" y1="137.908" y2="137.908" class="regular-dot" stroke-dasharray="0.960 1.470" stroke-dashoffset="0.000"/>
    <line x1="1.052" x2="594.858" y1="154.916" y2="154.916" class="regular-dot" stroke-dasharray="0.960 1.470" stroke-dashoffset="0.000"/>
    <line x1="1.052" x2="594.858" y1="171.924" y2="171.924" class="regular-dot" stroke-dasharray="0.960 1.470" stroke-dashoffset="0.000"/>
    <line x1="1.052" x2="594.858" y1="188.932" y2="188.932" class="regular-dot" stroke-dasharray="0.960 1.470" stroke-dashoffset="0.000"/>
    <line x1="1.052" x2="594.858" y1="205.940" y2="205.940" class="regular-dot" stroke-dasharray="0.960 1.470" stroke-dashoffset="0.000"/>
    <line x1="1.052" x2="594.858" y1="222.947" y2="222.947" class="regular-dot" stroke-dasharray="0.960 1.470" stroke-dashoffset="0.000"/>
    <line x1="1.052" x2="594.858" y1="239.955" y2="239.955" class="regular-dot" stroke-dasharray="0.960 1.470" stroke-dashoffset="0.000"/>
    <line x1="1.052" x2="594.858" y1="256.963" y2="256.963" class="regular-dot" stroke-dasharray="0.960 1.470" stroke-dashoffset="0.000"/>
    <line x1="1.052" x2="594.858" y1="273.971" y2="273.971" class="regular-dot" stroke-dasharray="0.960 1.470" stroke-dashoffset="0.000"/>
    <line x1="1.052" x2="594.858" y1="290.979" y2="290.979" class="regular-dot" stroke-dasharray="0.960 1.470" stroke-dashoffset="0.000"/>
    <line x1="1.052" x2="594.858" y1="307.987" y2="307.987" class="regular-dot" stroke-dasharray="0.960 1.470" stroke-dashoffset="0.000"/>
    <line x1="1.052" x2="594.858" y1="324.995" y2="324.995" class="regular-dot" stroke-dasharray="0.960 1.470" stroke-dashoffset="0.000"/>
    <line x1="1.052" x2="594.858" y1="342.003" y2="342.003" class="regular-dot" stroke-dasharray="0.960 1.470" stroke-dashoffset="0.000"/>
    <line x1="1.052" x2="594.858" y1="359.010" y2="359.010" class="regular-dot" stroke-dasharray="0.960 1.470" stroke-dashoffset="0.000"/>
    <line x1="1.052" x2="594.858" y1="376.018" y2="376.018" class="regular-dot" stroke-dasharray="0.960 1.470" stroke-dashoffset="0.000"/>
    <line x1="1.052" x2="594.858" y1="393.026" y2="393.026" class="regular-dot" stroke-dasharray="0.960 1.470" stroke-dashoffset="0.000"/>
    <line x1="1.052" x2="594.858" y1="410.034" y2="410.034" class="regular-dot" stroke-dasharray="0.960 1.470" stroke-dashoffset="0.000"/>
    <line x1="1.052" x2="594.858" y1="427.042" y2="427.042" class="regular-dot" stroke-dasharray="0.960 1.470" stroke-dashoffset="0.000"/>
    <line x1="1.052" x2="594.858" y1="444.050" y2="444.050" class="regular-dot" stroke-dasharray="0.960 1.470" stroke-dashoffset="0.000"/>
    <line x1="1.052" x2="594.858" y1="461.058" y2="461.058" class="regular-dot" stroke-dasharray="0.960 1.470" stroke-dashoffset="0.000"/>
    <line x1="1.052" x2="594.858" y1="478.066" y2="478.066" class="regular-dot" stroke-dasharray="0.960 1.470" stroke-dashoffset="0.000"/>
    <line x1="1.052" x2="594.858" y1="495.073" y2="495.073" class="regular-dot" stroke-dasharray="0.960 1.470" stroke-dashoffset="0.000"/>
    <line x1="1.052" x2="594.858" y1="512.081" y2="512.081" class="regular-dot" stroke-dasharray="0.960 1.470" stroke-dashoffset="0.000"/>
    <line x1="1.052" x2="594.858" y1="529.089" y2="529.089" class="regular-dot" stroke-dasharray="0.960 1.470" stroke-dashoffset="0.000"/>
    <line x1="1.052" x2="594.858" y1="546.097" y2="546.097" class="regular-dot" stroke-dasharray="0.960 1.470" stroke-dashoffset="0.000"/>
    <line x1="1.052" x2="594.858" y1="563.105" y2="563.105" class="regular-dot" stroke-dasharray="0.960 1.470" stroke-dashoffset="0.000"/>
    <line x1="1.052" x2="594.858" y1="580.113" y2="580.113" class="regular-dot" stroke-dasharray="0.960 1.470" stroke-dashoffset="0.000"/>
    <line x1="1.052" x2="594.858" y1="597.121" y2="597.121" class="regular-dot" stroke-dasharray="0.960 1.470" stroke-dashoffset="0.000"/>
    <line x1="1.052" x2="594.858" y1="614.129" y2="614.129" class="regular-dot" stroke-dasharray="0.960 1.470" stroke-dashoffset="0.000"/>
    <line x1="1.052" x2="594.858" y1="631.136" y2="631.136" class="regular-dot" stroke-dasharray="0.960 1.470" stroke-dashoffset="0.000"/>
    <line x1="1.052" x2="594.858" y1="648.144" y2="648.144" class="regular-dot" stroke-dasharray="0.960 1.470" stroke-dashoffset="0.000"/>
    <line x1="1.052" x2="594.858" y1="665.152" y2="665.152" class="regular-dot" stroke-dasharray="0.960 1.470" stroke-dashoffset="0.000"/>
    <line x1="1.052" x2="594.858" y1="682.160" y2="682.160" class="regular-dot" stroke-dasharray="0.960 1.470" stroke-dashoffset="0.000"/>
    <line x1="1.052" x2="594.858" y1="699.168" y2="699.168" class="regular-dot" stroke-dasharray="0.960 1.470" stroke-dashoffset="0.000"/>
    <line x1="1.052" x2="594.858" y1="716.176" y2="716.176" class="regular-dot" stroke-dasharray="0.960 1.470" stroke-dashoffset="0.000"/>
    <line x1="1.052" x2="594.858" y1="733.184" y2="733.184" class="regular-dot" stroke-dasharray="0.960 1.470" stroke-dashoffset="0.000"/>
    <line x1="1.052" x2="594.858" y1="750.191" y2="750.191" class="regular-dot" stroke-dasharray="0.960 1.470" stroke-dashoffset="0.000"/>
    <line x1="1.052" x2="594.858" y1="767.199" y2="767.199" class="regular-dot" stroke-dasharray="0.960 1.470" stroke-dashoffset="0.000"/>
    <line x1="1.052" x2="594.858" y1="784.207" y2="784.207" class="regular-dot" stroke-dasharray="0.960 1.470" stroke-dashoffset="0.000"/>
    <line x1="1.052" x2="594.858" y1="801.215" y2="801.215" class="regular-dot" stroke-dasharray="0.960 1.470" stroke-dashoffset="0.000"/>
    <line x1="1.052" x2="594.858" y1="818.223" y2="818.223" class="regular-dot" stroke-dasharray="0.960 1.470" stroke-dashoffset="0.000"/>
    <line x1="1.052" x2="594.858" y1="835.231" y2="835.231" class="regular-dot" stroke-dasharray="0.960 1.470" stroke-dashoffset="0.000"/>
  </g>
  <g id="grid-3">
    <line x1="1.052" x2="594.858" y1="7.514" y2="7.514" class="regular-dot" stroke-dasharray="0.960 1.470" stroke-dashoffset="0.000"/>
    <line x1="1.052" x2="594.858" y1="24.522" y2="24.522" class="regular-dot" stroke-dasharray="0.960 1.470" stroke-dashoffset="0.000"/>
    <line x1="1.052" x2="594.858" y1="41.530" y2="41.530" class="regular-dot" stroke-dasharray="0.960 1.470" stroke-dashoffset="0.000"/>
    <line x1="1.052" x2="594.858" y1="58.538" y2="58.538" class="regular-dot" stroke-dasharray="0.960 1.470" stroke-dashoffset="0.000"/>
    <line x1="1.052" x2="594.858" y1="75.546" y2="75.546" class="regular-dot" stroke-dasharray="0.960 1.470" stroke-dashoffset="0.000"/>
    <line x1="1.052" x2="594.858" y1="92.554" y2="92.554" class="regular-dot" stroke-dasharray="0.960 1.470" stroke-dashoffset="0.000"/>
    <line x1="1.052" x2="594.858" y1="109.562" y2="109.562" class="regular-dot" stroke-dasharray="0.960 1.470" stroke-dashoffset="0.000"/>
    <line x1="1.052" x2="594.858" y1="126.569" y2="126.569" class="regular-dot" stroke-dasharray="0.960 1.470" stroke-dashoffset="0.000"/>
    <line x1="1.052" x2="594.858" y1="143.577" y2="143.577" class="regular-dot" stroke-dasharray="0.960 1.470" stroke-dashoffset="0.000"/>
    <line x1="1.052" x2="594.858" y1="160.585" y2="160.585" class="regular-dot" stroke-dasharray="0.960 1.470" stroke-dashoffset="0.000"/>
    <line x1="1.052" x2="594.858" y1="177.593" y2="177.593" class="regular-dot" stroke-dasharray="0.960 1.470" stroke-dashoffset="0.000"/>
    <line x1="1.052" x2="594.858" y1="194.601" y2="194.601" class="regular-dot" stroke-dasharray="0.960 1.470" stroke-dashoffset="0.000"/>
    <line x1="1.052" x2="594.858" y1="211.609" y2="211.609" class="regular-dot" stroke-dasharray="0.960 1.470" stroke-dashoffset="0.000"/>
    <line x1="1.052" x2="594.858" y1="228.617" y2="228.617" class="regular-dot" stroke-dasharray="0.960 1.470" stroke-dashoffset="0.000"/>
    <line x1="1.052" x2="594.858" y1="245.625" y2="245.625" class="regular-dot" stroke-dasharray="0.960 1.470" stroke-dashoffset="0.000"/>
    <line x1="1.052" x2="594.858" y1="262.632" y2="262.632" class="regular-dot" stroke-dasharray="0.960 1.470" stroke-dashoffset="0.000"/>
    <line x1="1.052" x2="594.858" y1="279.640" y2="279.640" class="regular-dot" stroke-dasharray="0.960 1.470" stroke-dashoffset="0.000"/>
    <line x1="1.052" x2="594.858" y1="296.648" y2="296.648" class="regular-dot" stroke-dasharray="0.960 1.470" stroke-dashoffset="0.000"/>
    <line x1="1.052" x2="594.858" y1="313.656" y2="313.656" class="regular-dot" stroke-dasharray="0.960 1.470" stroke-dashoffset="0.000"/>
    <line x1="1.052" x2="594.858" y1="330.664" y2="330.664" class="regular-dot" stroke-dasharray="0.960 1.470" stroke-dashoffset="0.000"/>
    <line x1="1.052" x2="594.858" y1="347.672" y2="347.672" class="regular-dot" stroke-dasharray="0.960 1.470" stroke-dashoffset="0.000"/>
    <line x1="1.052" x2="594.858" y1="364.680" y2="364.680" class="regular-dot" stroke-dasharray="0.960 1.470" stroke-dashoffset="0.000"/>
    <line x1="1.052" x2="594.858" y1="381.688" y2="381.688" class="regular-dot" stroke-dasharray="0.960 1.470" stroke-dashoffset="0.000"/>
    <line x1="1.052" x2="594.858" y1="398.695" y2="398.695" class="regular-dot" stroke-dasharray="0.960 1.470" stroke-dashoffset="0.000"/>
    <line x1="1.052" x2="594.858" y1="415.703" y2="415.703" class="regular-dot" stroke-dasharray="0.960 1.470" stroke-dashoffset="0.000"/>
    <line x1="1.052" x2="594.858" y1="432.711" y2="432.711" class="regular-dot" stroke-dasharray="0.960 1.470" stroke-dashoffset="0.000"/>
    <line x1="1.052" x2="594.858" y1="449.719" y2="449.719" class="regular-dot" stroke-dasharray="0.960 1.470" stroke-dashoffset="0.000"/>
    <line x1="1.052" x2="594.858" y1="466.727" y2="466.727" class="regular-dot" stroke-dasharray="0.960 1.470" stroke-dashoffset="0.000"/>
    <line x1="1.052" x2="594.858" y1="483.735" y2="483.735" class="regular-dot" stroke-dasharray="0.960 1.470" stroke-dashoffset="0.000"/>
    <line x1="1.052" x2="594.858" y1="500.743" y2="500.743" class="regular-dot" stroke-dasharray="0.960 1.470" stroke-dashoffset="0.000"/>
    <line x1="1.052" x2="594.858" y1="517.751" y2="517.751" class="regular-dot" stroke-dasharray="0.960 1.470" stroke-dashoffset="0.000"/>
    <line x1="1.052" x2="594.858" y1="534.758" y2="534.758" class="regular-dot" stroke-dasharray="0.960 1.470" stroke-dashoffset="0.000"/>
    <line x1="1.052" x2="594.858" y1="551.766" y2="551.766" class="regular-dot" stroke-dasharray="0.960 1.470" stroke-dashoffset="0.000"/>
    <line x1="1.052" x2="594.858" y1="568.774" y2="568.774" class="regular-dot" stroke-dasharray="0.960 1.470" stroke-dashoffset="0.000"/>
    <line x1="1.052" x2="594.858" y1="585.782" y2="585.782" class="regular-dot" stroke-dasharray="0.960 1.470" stroke-dashoffset="0.000"/>
    <line x1="1.052" x2="594.858" y1="602.790" y2="602.790" class="regular-dot" stroke-dasharray="0.960 1.470" stroke-dashoffset="0.000"/>
    <line x1="1.052" x2="594.858" y1="619.798" y2="619.798" class="regular-dot" stroke-dasharray="0.960 1.470" stroke-dashoffset="0.000"/>
    <line x1="1.052" x2="594.858" y1="636.806" y2="636.806" class="regular-dot" stroke-dasharray="0.960 1.470" stroke-dashoffset="0.000"/>
    <line x1="1.052" x2="594.858" y1="653.814" y2="653.814" class="regular-dot" stroke-dasharray="0.960 1.470" stroke-dashoffset="0.000"/>
    <line x1="1.052" x2="594.858" y1="670.821" y2="670.821" class="regular-dot" stroke-dasharray="0.960 1.470" stroke-dashoffset="0.000"/>
    <line x1="1.052" x2="594.858" y1="687.829" y2="687.829" class="regular-dot" stroke-dasharray="0.960 1.470" stroke-dashoffset="0.000"/>
    <line x1="1.052" x2="594.858" y1="704.837" y2="704.837" class="regular-dot" stroke-dasharray="0.960 1.470" stroke-dashoffset="0.000"/>
    <line x1="1.052" x2="594.858" y1="721.845" y2="721.845" class="regular-dot" stroke-dasharray="0.960 1.470" stroke-dashoffset="0.000"/>
    <line x1="1.052" x2="594.858" y1="738.853" y2="738.853" class="regular-dot" stroke-dasharray="0.960 1.470" stroke-dashoffset="0.000"/>
    <line x1="1.052" x2="594.858" y1="755.861" y2="755.861" class="regular-dot" stroke-dasharray="0.960 1.470" stroke-dashoffset="0.000"/>
    <line x1="1.052" x2="594.858" y1="772.869" y2="772.869" class="regular-dot" stroke-dasharray="0.960 1.470" stroke-dashoffset="0.000"/>
    <line x1="1.052" x2="594.858" y1="789.877" y2="789.877" class="regular-dot" stroke-dasharray="0.960 1.470" stroke-dashoffset="0.000"/>
    <line x1="1.052" x2="594.858" y1="806.884" y2="806.884" class="regular-dot" stroke-dasharray="0.960 1.470" stroke-dashoffset="0.000"/>
    <line x1="1.052" x2="594.858" y1="823.892" y2="823.892" class="regular-dot" stroke-dasharray="0.960 1.470" stroke-dashoffset="0.000"/>
    <line x1="1.052" x2="594.858" y1="840.900" y2="840.900" class="regular-dot" stroke-dasharray="0.960 1.470" stroke-dashoffset="0.000"/>
  </g>
  <g id="grid-4">
    <line x1="8.822" x2="8.822" y1="12.224" y2="830.522" class="regular-dot" stroke-dasharray="1.920 15.088" stroke-dashoffset="0.000"/>
    <line x1="25.829" x2="25.829" y1="12.224" y2="830.522" class="regular-dot" stroke-dasharray="1.920 15.088" stroke-dashoffset="0.000"/>
    <line x1="42.837" x2="42.837" y1="12.224" y2="830.522" class="regular-dot" stroke-dasharray="1.920 15.088" stroke-dashoffset="0.000"/>
    <line x1="59.845" x2="59.845" y1="12.224" y2="830.522" class="regular-dot" stroke-dasharray="1.920 15.088" stroke-dashoffset="0.000"/>
    <line x1="76.853" x2="76.853" y1="12.224" y2="830.522" class="regular-dot" stroke-dasharray="1.920 15.088" stroke-dashoffset="0.000"/>
    <line x1="93.861" x2="93.861" y1="12.224" y2="830.522" class="regular-dot" stroke-dasharray="1.920 15.088" stroke-dashoffset="0.000"/>
    <line x1="110.869" x2="110.869" y1="12.224" y2="830.522" class="regular-dot" stroke-dasharray="1.920 15.088" stroke-dashoffset="0.000"/>
    <line x1="127.877" x2="127.877" y1="12.224" y2="830.522" class="regular-dot" stroke-dasharray="1.920 15.088" stroke-dashoffset="0.000"/>
    <line x1="144.885" x2="144.885" y1="12.224" y2="830.522" class="regular-dot" stroke-dasharray="1.920 15.088" stroke-dashoffset="0.000"/>
    <line x1="161.892" x2="161.892" y1="12.224" y2="830.522" class="regular-dot" stroke-dasharray="1.920 15.088" stroke-dashoffset="0.000"/>
    <line x1="178.900" x2="178.900" y1="12.224" y2="830.522" class="regular-dot" stroke-dasharray="1.920 15.088" stroke-dashoffset="0.000"/>
    <line x1="195.908" x2="195.908" y1="12.224" y2="830.522" class="regular-dot" stroke-dasharray="1.920 15.088" stroke-dashoffset="0.000"/>
    <line x1="212.916" x2="212.916" y1="12.224" y2="830.522" class="regular-dot" stroke-dasharray="1.920 15.088" stroke-dashoffset="0.000"/>
    <line x1="229.924" x2="229.924" y1="12.224" y2="830.522" class="regular-dot" stroke-dasharray="1.920 15.088" stroke-dashoffset="0.000"/>
    <line x1="246.932" x2="246.932" y1="12.224" y2="830.522" class="regular-dot" stroke-dasharray="1.920 15.088" stroke-dashoffset="0.000"/>
    <line x1="263.940" x2="263.940" y1="12.224" y2="830.522" class="regular-dot" stroke-dasharray="1.920 15.088" stroke-dashoffset="0.000"/>
    <line x1="280.948" x2="280.948" y1="12.224" y2="830.522" class="regular-dot" stroke-dasharray="1.920 15.088" stroke-dashoffset="0.000"/>
    <line x1="297.955" x2="297.955" y1="12.224" y2="830.522" class="regular-dot" stroke-dasharray="1.920 15.088" stroke-dashoffset="0.000"/>
    <line x1="314.963" x2="314.963" y1="12.224" y2="830.522" class="regular-dot" stroke-dasharray="1.920 15.088" stroke-dashoffset="0.000"/>
    <line x1="331.971" x2="331.971" y1="12.224" y2="830.522" class="regular-dot" stroke-dasharray="1.920 15.088" stroke-dashoffset="0.000"/>
    <line x1="348.979" x2="348.979" y1="12.224" y2="830.522" class="regular-dot" stroke-dasharray="1.920 15.088" stroke-dashoffset="0.000"/>
    <line x1="365.987" x2="365.987" y1="12.224" y2="830.522" class="regular-dot" stroke-dasharray="1.920 15.088" stroke-dashoffset="0.000"/>
    <line x1="382.995" x2="382.995" y1="12.224" y2="830.522" class="regular-dot" stroke-dasharray="1.920 15.088" stroke-dashoffset="0.000"/>
    <line x1="400.003" x2="400.003" y1="12.224" y2="830.522" class="regular-dot" stroke-dasharray="1.920 15.088" stroke-dashoffset="0.000"/>
    <line x1="417.011" x2="417.011" y1="12.224" y2="830.522" class="regular-dot" stroke-dasharray="1.920 15.088" stroke-dashoffset="0.000"/>
    <line x1="434.018" x2="434.018" y1="12.224" y2="830.522" class="regular-dot" stroke-dasharray="1.920 15.088" stroke-dashoffset="0.000"/>
    <line x1="451.026" x2="451.026" y1="12.224" y2="830.522" class="regular-dot" stroke-dasharray="1.920 15.088" stroke-dashoffset="0.000"/>
    <line x1="468.034" x2="468.034" y1="12.224" y2="830.522" class="regular-dot" stroke-dasharray="1.920 15.088" stroke-dashoffset="0.000"/>
    <line x1="485.042" x2="485.042" y1="12.224" y2="830.522" class="regular-dot" stroke-dasharray="1.920 15.088" stroke-dashoffset="0.000"/>
    <line x1="502.050" x2="502.050" y1="12.224" y2="830.522" class="regular-dot" stroke-dasharray="1.920 15.088" stroke-dashoffset="0.000"/>
    <line x1="519.058" x2="519.058" y1="12.224" y2="830.522" class="regular-dot" stroke-dasharray="1.920 15.088" stroke-dashoffset="0.000"/>
    <line x1="536.066" x2="536.066" y1="12.224" y2="830.522" class="regular-dot" stroke-dasharray="1.920 15.088" stroke-dashoffset="0.000"/>
    <line x1="553.074" x2="553.074" y1="12.224" y2="830.522" class="regular-dot" stroke-dasharray="1.920 15.088" stroke-dashoffset="0.000"/>
    <line x1="570.081" x2="570.081" y1="12.224" y2="830.522" class="regular-dot" stroke-dasharray="1.920 15.088" stroke-dashoffset="0.000"/>
    <line x1="587.089" x2="587.089" y1="12.224" y2="830.522" class="regular-dot" stroke-dasharray="1.920 15.088" stroke-dashoffset="0.000"/>
  </g>
  <rect x="203.455422727694" y="816.745199608227" width="189" height="12" fill="#ffffff" stroke="none" stroke-width="0px"/>
  <text x="297.955422727694" y="824.745199608227" text-anchor="middle" fill="#000000" stroke="none" stroke-width="0" style="font-family: &quot;Courier&quot;, &quot;Courier New&quot;, monospace; font-size: 6pt;">https://github.com/dse/printable-paper</text>
</svg>
