<?xml version="1.0" encoding="UTF-8"?>
<svg xmlns="http://www.w3.org/2000/svg" width="612pt" height="792pt" viewBox="0 0 612 792">
  <defs/>
  <style>        .line, .dot { stroke-linecap: round; }
        .stroke-linecap-butt { stroke-linecap: butt; }

        .line            { stroke-width: 0.72pt; }
        .line.xx-thin    { stroke-width: 0.24pt; }
        .line.x-thin     { stroke-width: 0.36pt; }
        .line.thin       { stroke-width: 0.48pt; }
        .line.thick      { stroke-width: 1.08pt; }
        .line.semi-thin  { stroke-width: 0.588pt; }
        .line.semi-thick { stroke-width: 0.882pt; }

        .dot             { stroke-width: 1.44pt; }
        .dot.thin        { stroke-width: 0.96pt; }
        .dot.thick       { stroke-width: 2.16pt; }
        .dot.semi-thin   { stroke-width: 1.176pt; }
        .dot.semi-thick  { stroke-width: 1.764pt; }

        .stroke-1     { stroke-width: 0.12pt; stroke-linecap: round; } /* 1/600 in */
        .stroke-2     { stroke-width: 0.24pt; stroke-linecap: round; }
        .stroke-3     { stroke-width: 0.36pt; stroke-linecap: round; }
        .stroke-4     { stroke-width: 0.48pt; stroke-linecap: round; }
        .stroke-5     { stroke-width: 0.60pt; stroke-linecap: round; }
        .stroke-6     { stroke-width: 0.72pt; stroke-linecap: round; }
        .stroke-7     { stroke-width: 0.84pt; stroke-linecap: round; }
        .stroke-8     { stroke-width: 0.96pt; stroke-linecap: round; }
        .stroke-9     { stroke-width: 1.08pt; stroke-linecap: round; }
        .stroke-10    { stroke-width: 1.20pt; stroke-linecap: round; }

        .blue  { stroke: #b3b3ff; }
        .red   { stroke: #ff9999; }
        .green { stroke: #b3ffb3; }
        .gray  { stroke: #b3b3b3; }
        .black         { stroke: #000000; }
        .half-black    { stroke: #808080; }
        .quarter-black { stroke: #c0c0c0; }
        .light.blue  { stroke: #d9d9ff; }
        .light.red   { stroke: #ffcccc; }
        .light.green { stroke: #d9ffd9; }
        .light.gray  { stroke: #d9d9d9; }

        .dark.blue  { stroke: #6767ff; }
        .dark.red   { stroke: #ff3333; }
        .dark.green { stroke: #67ff67; }
        .dark.gray  { stroke: #676767; }

        .alternate-blue  { stroke: #6767ff; opacity: 0.5; }
        .alternate-red   { stroke: #ff3333; opacity: 0.5; }
        .alternate-green { stroke: #67ff67; opacity: 0.5; }
        .alternate-gray  { stroke: #676767; opacity: 0.5; }
</style>
  <defs>
    <pattern x="-18" y="88.3125" width="648" height="5.625" id="grid-pattern-1-horizontal-lines" patternUnits="userSpaceOnUse" viewBox="0 0 648.000 5.625">
      <line x1="18" x2="630" y1="2.812" y2="2.812" class="stroke-1 black line"/>
    </pattern>
    <pattern x="78.75" y="-18" width="22.5" height="828" id="grid-pattern-2-vertical-lines" patternUnits="userSpaceOnUse" viewBox="0 0 22.500 828.000">
      <line x1="11.25" x2="11.25" y1="18" y2="810" class="stroke-1 black line"/>
    </pattern>
  </defs>
  <g id="grid">
    <rect x="-18" y="88.3125" width="648" height="641.25" fill="url(#grid-pattern-1-horizontal-lines)"/>
    <rect x="78.75" y="-18" width="540" height="828" fill="url(#grid-pattern-2-vertical-lines)"/>
  </g>
  <g id="lines">
    <line x1="0" x2="612" y1="108" y2="108" class="stroke-3 black line"/>
    <line x1="0" x2="612" y1="130.5" y2="130.5" class="stroke-3 black line"/>
    <line x1="0" x2="612" y1="153" y2="153" class="stroke-3 black line"/>
    <line x1="0" x2="612" y1="175.5" y2="175.5" class="stroke-3 black line"/>
    <line x1="0" x2="612" y1="198" y2="198" class="stroke-3 black line"/>
    <line x1="0" x2="612" y1="220.5" y2="220.5" class="stroke-3 black line"/>
    <line x1="0" x2="612" y1="243" y2="243" class="stroke-3 black line"/>
    <line x1="0" x2="612" y1="265.5" y2="265.5" class="stroke-3 black line"/>
    <line x1="0" x2="612" y1="288" y2="288" class="stroke-3 black line"/>
    <line x1="0" x2="612" y1="310.5" y2="310.5" class="stroke-3 black line"/>
    <line x1="0" x2="612" y1="333" y2="333" class="stroke-3 black line"/>
    <line x1="0" x2="612" y1="355.5" y2="355.5" class="stroke-3 black line"/>
    <line x1="0" x2="612" y1="378" y2="378" class="stroke-3 black line"/>
    <line x1="0" x2="612" y1="400.5" y2="400.5" class="stroke-3 black line"/>
    <line x1="0" x2="612" y1="423" y2="423" class="stroke-3 black line"/>
    <line x1="0" x2="612" y1="445.5" y2="445.5" class="stroke-3 black line"/>
    <line x1="0" x2="612" y1="468" y2="468" class="stroke-3 black line"/>
    <line x1="0" x2="612" y1="490.5" y2="490.5" class="stroke-3 black line"/>
    <line x1="0" x2="612" y1="513" y2="513" class="stroke-3 black line"/>
    <line x1="0" x2="612" y1="535.5" y2="535.5" class="stroke-3 black line"/>
    <line x1="0" x2="612" y1="558" y2="558" class="stroke-3 black line"/>
    <line x1="0" x2="612" y1="580.5" y2="580.5" class="stroke-3 black line"/>
    <line x1="0" x2="612" y1="603" y2="603" class="stroke-3 black line"/>
    <line x1="0" x2="612" y1="625.5" y2="625.5" class="stroke-3 black line"/>
    <line x1="0" x2="612" y1="648" y2="648" class="stroke-3 black line"/>
    <line x1="0" x2="612" y1="670.5" y2="670.5" class="stroke-3 black line"/>
    <line x1="0" x2="612" y1="693" y2="693" class="stroke-3 black line"/>
    <line x1="0" x2="612" y1="715.5" y2="715.5" class="stroke-3 black line"/>
  </g>
  <g id="margin-line">
    <line x1="90" x2="90" y1="0" y2="792" class="stroke-3 black line"/>
  </g>
  <g id="head-line">
    <line x1="0" x2="612" y1="36" y2="36" class="stroke-3 black line"/>
  </g>
  <g id="page-number-line">
    <line x1="22.5" x2="90" y1="774" y2="774" class="stroke-3 black line"/>
  </g>
</svg>
