<?xml version="1.0" encoding="UTF-8"?>
<svg xmlns="http://www.w3.org/2000/svg" width="419.528pt" height="595.276pt" viewBox="0.000 0.000 419.528 595.276">
  <style>
        .line, .dot, .feint-line, .margin-line { stroke-linecap: round; }
        .stroke-linecap-butt { stroke-linecap: butt; }
        .rectangle { fill: #ffffff; }
        .blue  { stroke: #b3b3ff; }
        .red   { stroke: #ff9e9e; }
        .green { stroke: #5aff5a; }
        .gray  { stroke: #bbbbbb; }
        .thin-black { stroke: #000000; }


        .line        { stroke-width: 0.12px; opacity: 1; }
        .feint-line  { stroke-width: 0.12px; opacity: 1; }
        .dot         { stroke-width: 0.96px; opacity: 1; }
        .margin-line { stroke-width: 0.24px; opacity: 1; }
  </style>
  <defs/>
  <g id="grid">
    <line x1="5.670" x2="5.670" y1="8.504" y2="586.772" class="thin-black dot" stroke-dasharray="0.010 16.998" stroke-dashoffset="0.005"/>
    <line x1="22.677" x2="22.677" y1="8.504" y2="586.772" class="thin-black dot" stroke-dasharray="0.010 16.998" stroke-dashoffset="0.005"/>
    <line x1="39.685" x2="39.685" y1="8.504" y2="586.772" class="thin-black dot" stroke-dasharray="0.010 16.998" stroke-dashoffset="0.005"/>
    <line x1="56.693" x2="56.693" y1="8.504" y2="586.772" class="thin-black dot" stroke-dasharray="0.010 16.998" stroke-dashoffset="0.005"/>
    <line x1="73.701" x2="73.701" y1="8.504" y2="586.772" class="thin-black dot" stroke-dasharray="0.010 16.998" stroke-dashoffset="0.005"/>
    <line x1="90.709" x2="90.709" y1="8.504" y2="586.772" class="thin-black dot" stroke-dasharray="0.010 16.998" stroke-dashoffset="0.005"/>
    <line x1="107.717" x2="107.717" y1="8.504" y2="586.772" class="thin-black dot" stroke-dasharray="0.010 16.998" stroke-dashoffset="0.005"/>
    <line x1="124.725" x2="124.725" y1="8.504" y2="586.772" class="thin-black dot" stroke-dasharray="0.010 16.998" stroke-dashoffset="0.005"/>
    <line x1="141.733" x2="141.733" y1="8.504" y2="586.772" class="thin-black dot" stroke-dasharray="0.010 16.998" stroke-dashoffset="0.005"/>
    <line x1="158.740" x2="158.740" y1="8.504" y2="586.772" class="thin-black dot" stroke-dasharray="0.010 16.998" stroke-dashoffset="0.005"/>
    <line x1="175.748" x2="175.748" y1="8.504" y2="586.772" class="thin-black dot" stroke-dasharray="0.010 16.998" stroke-dashoffset="0.005"/>
    <line x1="192.756" x2="192.756" y1="8.504" y2="586.772" class="thin-black dot" stroke-dasharray="0.010 16.998" stroke-dashoffset="0.005"/>
    <line x1="209.764" x2="209.764" y1="8.504" y2="586.772" class="thin-black dot" stroke-dasharray="0.010 16.998" stroke-dashoffset="0.005"/>
    <line x1="226.772" x2="226.772" y1="8.504" y2="586.772" class="thin-black dot" stroke-dasharray="0.010 16.998" stroke-dashoffset="0.005"/>
    <line x1="243.780" x2="243.780" y1="8.504" y2="586.772" class="thin-black dot" stroke-dasharray="0.010 16.998" stroke-dashoffset="0.005"/>
    <line x1="260.788" x2="260.788" y1="8.504" y2="586.772" class="thin-black dot" stroke-dasharray="0.010 16.998" stroke-dashoffset="0.005"/>
    <line x1="277.795" x2="277.795" y1="8.504" y2="586.772" class="thin-black dot" stroke-dasharray="0.010 16.998" stroke-dashoffset="0.005"/>
    <line x1="294.803" x2="294.803" y1="8.504" y2="586.772" class="thin-black dot" stroke-dasharray="0.010 16.998" stroke-dashoffset="0.005"/>
    <line x1="311.811" x2="311.811" y1="8.504" y2="586.772" class="thin-black dot" stroke-dasharray="0.010 16.998" stroke-dashoffset="0.005"/>
    <line x1="328.819" x2="328.819" y1="8.504" y2="586.772" class="thin-black dot" stroke-dasharray="0.010 16.998" stroke-dashoffset="0.005"/>
    <line x1="345.827" x2="345.827" y1="8.504" y2="586.772" class="thin-black dot" stroke-dasharray="0.010 16.998" stroke-dashoffset="0.005"/>
    <line x1="362.835" x2="362.835" y1="8.504" y2="586.772" class="thin-black dot" stroke-dasharray="0.010 16.998" stroke-dashoffset="0.005"/>
    <line x1="379.843" x2="379.843" y1="8.504" y2="586.772" class="thin-black dot" stroke-dasharray="0.010 16.998" stroke-dashoffset="0.005"/>
    <line x1="396.851" x2="396.851" y1="8.504" y2="586.772" class="thin-black dot" stroke-dasharray="0.010 16.998" stroke-dashoffset="0.005"/>
    <line x1="413.858" x2="413.858" y1="8.504" y2="586.772" class="thin-black dot" stroke-dasharray="0.010 16.998" stroke-dashoffset="0.005"/>
  </g>
  <g id="lines">
    <line x1="0.000" x2="419.528" y1="8.504" y2="8.504" class="thin-black line"/>
    <line x1="0.000" x2="419.528" y1="25.512" y2="25.512" class="thin-black line"/>
    <line x1="0.000" x2="419.528" y1="42.520" y2="42.520" class="thin-black line"/>
    <line x1="0.000" x2="419.528" y1="59.528" y2="59.528" class="thin-black line"/>
    <line x1="0.000" x2="419.528" y1="76.536" y2="76.536" class="thin-black line"/>
    <line x1="0.000" x2="419.528" y1="93.544" y2="93.544" class="thin-black line"/>
    <line x1="0.000" x2="419.528" y1="110.551" y2="110.551" class="thin-black line"/>
    <line x1="0.000" x2="419.528" y1="127.559" y2="127.559" class="thin-black line"/>
    <line x1="0.000" x2="419.528" y1="144.567" y2="144.567" class="thin-black line"/>
    <line x1="0.000" x2="419.528" y1="161.575" y2="161.575" class="thin-black line"/>
    <line x1="0.000" x2="419.528" y1="178.583" y2="178.583" class="thin-black line"/>
    <line x1="0.000" x2="419.528" y1="195.591" y2="195.591" class="thin-black line"/>
    <line x1="0.000" x2="419.528" y1="212.599" y2="212.599" class="thin-black line"/>
    <line x1="0.000" x2="419.528" y1="229.607" y2="229.607" class="thin-black line"/>
    <line x1="0.000" x2="419.528" y1="246.614" y2="246.614" class="thin-black line"/>
    <line x1="0.000" x2="419.528" y1="263.622" y2="263.622" class="thin-black line"/>
    <line x1="0.000" x2="419.528" y1="280.630" y2="280.630" class="thin-black line"/>
    <line x1="0.000" x2="419.528" y1="297.638" y2="297.638" class="thin-black line"/>
    <line x1="0.000" x2="419.528" y1="314.646" y2="314.646" class="thin-black line"/>
    <line x1="0.000" x2="419.528" y1="331.654" y2="331.654" class="thin-black line"/>
    <line x1="0.000" x2="419.528" y1="348.662" y2="348.662" class="thin-black line"/>
    <line x1="0.000" x2="419.528" y1="365.669" y2="365.669" class="thin-black line"/>
    <line x1="0.000" x2="419.528" y1="382.677" y2="382.677" class="thin-black line"/>
    <line x1="0.000" x2="419.528" y1="399.685" y2="399.685" class="thin-black line"/>
    <line x1="0.000" x2="419.528" y1="416.693" y2="416.693" class="thin-black line"/>
    <line x1="0.000" x2="419.528" y1="433.701" y2="433.701" class="thin-black line"/>
    <line x1="0.000" x2="419.528" y1="450.709" y2="450.709" class="thin-black line"/>
    <line x1="0.000" x2="419.528" y1="467.717" y2="467.717" class="thin-black line"/>
    <line x1="0.000" x2="419.528" y1="484.725" y2="484.725" class="thin-black line"/>
    <line x1="0.000" x2="419.528" y1="501.732" y2="501.732" class="thin-black line"/>
    <line x1="0.000" x2="419.528" y1="518.740" y2="518.740" class="thin-black line"/>
    <line x1="0.000" x2="419.528" y1="535.748" y2="535.748" class="thin-black line"/>
    <line x1="0.000" x2="419.528" y1="552.756" y2="552.756" class="thin-black line"/>
    <line x1="0.000" x2="419.528" y1="569.764" y2="569.764" class="thin-black line"/>
    <line x1="0.000" x2="419.528" y1="586.772" y2="586.772" class="thin-black line"/>
  </g>
  <rect x="115.264" y="569.276" width="189" height="12" fill="#ffffff" stroke="none" stroke-width="0px"/>
  <text x="209.764" y="577.276" text-anchor="middle" fill="#808080" stroke="none" stroke-width="0" style="font-family: &quot;Courier&quot;, &quot;Courier New&quot;, monospace; font-size: 6pt;">https://github.com/dse/printable-paper</text>
</svg>
