<?xml version="1.0" encoding="UTF-8"?>
<svg xmlns="http://www.w3.org/2000/svg" width="297.955pt" height="421.373pt" viewBox="0.000 0.000 297.955 421.373">
  <style>
        .line, .regular-line, .major-line, .feint-line,
        .dot,  .regular-dot,  .major-dot,  .feint-dot,
        .margin-line {
            stroke-linecap: round; stroke-linejoin: round;
        }
        .stroke-linecap-butt    { stroke-linecap:  butt;   }
        .stroke-linecap-round   { stroke-linecap:  round;  }
        .stroke-linecap-square  { stroke-linecap:  square; }
        .stroke-linejoin-butt   { stroke-linejoin: butt;   }
        .stroke-linejoin-round  { stroke-linejoin: round;  }
        .stroke-linejoin-square { stroke-linejoin: square; }
        .rectangle { fill: #ffffff; }


        .regular-line { stroke-width: 0.24px; opacity: 1; }
        .major-line   { stroke-width: 0.339411254969543px; opacity: 1;   }
        .feint-line   { stroke-width: 0.169705627484771px; opacity: 1;   }
        .regular-dot  { stroke-width: 0.96px; opacity: 1;  }
        .major-dot    { stroke-width: 1.92px; opacity: 1;    }
        .feint-dot    { stroke-width: 0.48px; opacity: 1;    }
        .margin-line  { stroke-width: 0.24px; opacity: 1;  }
        .regular-line { stroke: #000000; }
        .major-line   { stroke: #000000;   }
        .feint-line   { stroke: #000000;   }
        .regular-dot  { stroke: #000000; }
        .major-dot    { stroke: #000000;   }
        .feint-dot    { stroke: #000000;   }
        .margin-line  { stroke: #000000;  }
  </style>
  <defs/>
  <g id="grid">
    <line x1="12.915" x2="12.915" y1="6.592" y2="414.781" class="regular-dot" stroke-dasharray="0.010 16.998" stroke-dashoffset="0.005"/>
    <line x1="29.923" x2="29.923" y1="6.592" y2="414.781" class="regular-dot" stroke-dasharray="0.010 16.998" stroke-dashoffset="0.005"/>
    <line x1="46.930" x2="46.930" y1="6.592" y2="414.781" class="regular-dot" stroke-dasharray="0.010 16.998" stroke-dashoffset="0.005"/>
    <line x1="63.938" x2="63.938" y1="6.592" y2="414.781" class="regular-dot" stroke-dasharray="0.010 16.998" stroke-dashoffset="0.005"/>
    <line x1="80.946" x2="80.946" y1="6.592" y2="414.781" class="regular-dot" stroke-dasharray="0.010 16.998" stroke-dashoffset="0.005"/>
    <line x1="97.954" x2="97.954" y1="6.592" y2="414.781" class="regular-dot" stroke-dasharray="0.010 16.998" stroke-dashoffset="0.005"/>
    <line x1="114.962" x2="114.962" y1="6.592" y2="414.781" class="regular-dot" stroke-dasharray="0.010 16.998" stroke-dashoffset="0.005"/>
    <line x1="131.970" x2="131.970" y1="6.592" y2="414.781" class="regular-dot" stroke-dasharray="0.010 16.998" stroke-dashoffset="0.005"/>
    <line x1="148.978" x2="148.978" y1="6.592" y2="414.781" class="regular-dot" stroke-dasharray="0.010 16.998" stroke-dashoffset="0.005"/>
    <line x1="165.986" x2="165.986" y1="6.592" y2="414.781" class="regular-dot" stroke-dasharray="0.010 16.998" stroke-dashoffset="0.005"/>
    <line x1="182.993" x2="182.993" y1="6.592" y2="414.781" class="regular-dot" stroke-dasharray="0.010 16.998" stroke-dashoffset="0.005"/>
    <line x1="200.001" x2="200.001" y1="6.592" y2="414.781" class="regular-dot" stroke-dasharray="0.010 16.998" stroke-dashoffset="0.005"/>
    <line x1="217.009" x2="217.009" y1="6.592" y2="414.781" class="regular-dot" stroke-dasharray="0.010 16.998" stroke-dashoffset="0.005"/>
    <line x1="234.017" x2="234.017" y1="6.592" y2="414.781" class="regular-dot" stroke-dasharray="0.010 16.998" stroke-dashoffset="0.005"/>
    <line x1="251.025" x2="251.025" y1="6.592" y2="414.781" class="regular-dot" stroke-dasharray="0.010 16.998" stroke-dashoffset="0.005"/>
    <line x1="268.033" x2="268.033" y1="6.592" y2="414.781" class="regular-dot" stroke-dasharray="0.010 16.998" stroke-dashoffset="0.005"/>
    <line x1="285.041" x2="285.041" y1="6.592" y2="414.781" class="regular-dot" stroke-dasharray="0.010 16.998" stroke-dashoffset="0.005"/>
  </g>
  <g id="lines">
    <line x1="0.000" x2="297.955" y1="6.592" y2="6.592" class="regular-line"/>
    <line x1="0.000" x2="297.955" y1="23.600" y2="23.600" class="regular-line"/>
    <line x1="0.000" x2="297.955" y1="40.608" y2="40.608" class="regular-line"/>
    <line x1="0.000" x2="297.955" y1="57.615" y2="57.615" class="regular-line"/>
    <line x1="0.000" x2="297.955" y1="74.623" y2="74.623" class="regular-line"/>
    <line x1="0.000" x2="297.955" y1="91.631" y2="91.631" class="regular-line"/>
    <line x1="0.000" x2="297.955" y1="108.639" y2="108.639" class="regular-line"/>
    <line x1="0.000" x2="297.955" y1="125.647" y2="125.647" class="regular-line"/>
    <line x1="0.000" x2="297.955" y1="142.655" y2="142.655" class="regular-line"/>
    <line x1="0.000" x2="297.955" y1="159.663" y2="159.663" class="regular-line"/>
    <line x1="0.000" x2="297.955" y1="176.671" y2="176.671" class="regular-line"/>
    <line x1="0.000" x2="297.955" y1="193.678" y2="193.678" class="regular-line"/>
    <line x1="0.000" x2="297.955" y1="210.686" y2="210.686" class="regular-line"/>
    <line x1="0.000" x2="297.955" y1="227.694" y2="227.694" class="regular-line"/>
    <line x1="0.000" x2="297.955" y1="244.702" y2="244.702" class="regular-line"/>
    <line x1="0.000" x2="297.955" y1="261.710" y2="261.710" class="regular-line"/>
    <line x1="0.000" x2="297.955" y1="278.718" y2="278.718" class="regular-line"/>
    <line x1="0.000" x2="297.955" y1="295.726" y2="295.726" class="regular-line"/>
    <line x1="0.000" x2="297.955" y1="312.734" y2="312.734" class="regular-line"/>
    <line x1="0.000" x2="297.955" y1="329.741" y2="329.741" class="regular-line"/>
    <line x1="0.000" x2="297.955" y1="346.749" y2="346.749" class="regular-line"/>
    <line x1="0.000" x2="297.955" y1="363.757" y2="363.757" class="regular-line"/>
    <line x1="0.000" x2="297.955" y1="380.765" y2="380.765" class="regular-line"/>
    <line x1="0.000" x2="297.955" y1="397.773" y2="397.773" class="regular-line"/>
    <line x1="0.000" x2="297.955" y1="414.781" y2="414.781" class="regular-line"/>
  </g>
  <rect x="54.4777113638465" y="395.372599804113" width="189" height="12" fill="#ffffff" stroke="none" stroke-width="0px"/>
  <text x="148.977711363847" y="403.372599804113" text-anchor="middle" fill="#000000" stroke="none" stroke-width="0" style="font-family: &quot;Courier&quot;, &quot;Courier New&quot;, monospace; font-size: 6pt;">https://github.com/dse/printable-paper</text>
</svg>
