<?xml version="1.0" encoding="UTF-8"?>
<svg xmlns="http://www.w3.org/2000/svg" width="595.276pt" height="841.89pt" viewBox="0.000000 0.000000 595.276000 841.890000">
  <style>            .line, .dot { stroke-linecap: round; }
            .stroke-linecap-butt { stroke-linecap: butt; }

            .line            { stroke-width: 0.72pt; }
            .line.xx-thin    { stroke-width: 0.24pt; }
            .line.x-thin     { stroke-width: 0.36pt; }
            .line.thin       { stroke-width: 0.48pt; }
            .line.thick      { stroke-width: 1.08pt; }
            .line.semi-thin  { stroke-width: 0.588pt; }
            .line.semi-thick { stroke-width: 0.882pt; }

            .dot             { stroke-width: 1.44pt; }
            .dot.thin        { stroke-width: 0.96pt; }
            .dot.thick       { stroke-width: 2.16pt; }
            .dot.semi-thin   { stroke-width: 1.176pt; }
            .dot.semi-thick  { stroke-width: 1.764pt; }

            .blue  { stroke: #b3b3ff; }
            .red   { stroke: #ff9999; }
            .green { stroke: #b3ffb3; }
            .gray  { stroke: #b3b3b3; }

            .light.blue  { stroke: #d9d9ff; }
            .light.red   { stroke: #ffcccc; }
            .light.green { stroke: #d9ffd9; }
            .light.gray  { stroke: #d9d9d9; }

            .dark.blue  { stroke: #6767ff; }
            .dark.red   { stroke: #ff3333; }
            .dark.green { stroke: #67ff67; }
            .dark.gray  { stroke: #676767; }

            .alternate-blue  { stroke: #6767ff; opacity: 0.5; }
            .alternate-red   { stroke: #ff3333; opacity: 0.5; }
            .alternate-green { stroke: #67ff67; opacity: 0.5; }
            .alternate-gray  { stroke: #676767; opacity: 0.5; }
</style>
  <g id="minor-horizontal-lines">
    <line x1="0" x2="595.276" y1="772.441062992126" y2="772.441062992126" class="thin blue line"/>
    <line x1="0" x2="595.276" y1="766.771771653543" y2="766.771771653543" class="thin blue line"/>
    <line x1="0" x2="595.276" y1="755.433188976378" y2="755.433188976378" class="thin blue line"/>
    <line x1="0" x2="595.276" y1="749.763897637795" y2="749.763897637795" class="thin blue line"/>
    <line x1="0" x2="595.276" y1="744.094606299213" y2="744.094606299213" class="thin blue line"/>
    <line x1="0" x2="595.276" y1="732.756023622047" y2="732.756023622047" class="thin blue line"/>
    <line x1="0" x2="595.276" y1="727.086732283464" y2="727.086732283464" class="thin blue line"/>
    <line x1="0" x2="595.276" y1="721.417440944882" y2="721.417440944882" class="thin blue line"/>
    <line x1="0" x2="595.276" y1="710.078858267716" y2="710.078858267716" class="thin blue line"/>
    <line x1="0" x2="595.276" y1="704.409566929134" y2="704.409566929134" class="thin blue line"/>
    <line x1="0" x2="595.276" y1="698.740275590551" y2="698.740275590551" class="thin blue line"/>
    <line x1="0" x2="595.276" y1="693.070984251968" y2="693.070984251968" class="thin blue line"/>
    <line x1="0" x2="595.276" y1="687.401692913386" y2="687.401692913386" class="thin blue line"/>
    <line x1="0" x2="595.276" y1="681.732401574803" y2="681.732401574803" class="thin blue line"/>
    <line x1="0" x2="595.276" y1="676.06311023622" y2="676.06311023622" class="thin blue line"/>
    <line x1="0" x2="595.276" y1="664.724527559055" y2="664.724527559055" class="thin blue line"/>
    <line x1="0" x2="595.276" y1="659.055236220472" y2="659.055236220472" class="thin blue line"/>
    <line x1="0" x2="595.276" y1="653.38594488189" y2="653.38594488189" class="thin blue line"/>
    <line x1="0" x2="595.276" y1="642.047362204724" y2="642.047362204724" class="thin blue line"/>
    <line x1="0" x2="595.276" y1="636.378070866142" y2="636.378070866142" class="thin blue line"/>
    <line x1="0" x2="595.276" y1="630.708779527559" y2="630.708779527559" class="thin blue line"/>
    <line x1="0" x2="595.276" y1="619.370196850394" y2="619.370196850394" class="thin blue line"/>
    <line x1="0" x2="595.276" y1="613.700905511811" y2="613.700905511811" class="thin blue line"/>
    <line x1="0" x2="595.276" y1="608.031614173228" y2="608.031614173228" class="thin blue line"/>
    <line x1="0" x2="595.276" y1="596.693031496063" y2="596.693031496063" class="thin blue line"/>
    <line x1="0" x2="595.276" y1="591.02374015748" y2="591.02374015748" class="thin blue line"/>
    <line x1="0" x2="595.276" y1="585.354448818898" y2="585.354448818898" class="thin blue line"/>
    <line x1="0" x2="595.276" y1="574.015866141732" y2="574.015866141732" class="thin blue line"/>
    <line x1="0" x2="595.276" y1="568.34657480315" y2="568.34657480315" class="thin blue line"/>
    <line x1="0" x2="595.276" y1="562.677283464567" y2="562.677283464567" class="thin blue line"/>
    <line x1="0" x2="595.276" y1="551.338700787402" y2="551.338700787402" class="thin blue line"/>
    <line x1="0" x2="595.276" y1="545.669409448819" y2="545.669409448819" class="thin blue line"/>
    <line x1="0" x2="595.276" y1="540.000118110236" y2="540.000118110236" class="thin blue line"/>
    <line x1="0" x2="595.276" y1="528.661535433071" y2="528.661535433071" class="thin blue line"/>
    <line x1="0" x2="595.276" y1="522.992244094488" y2="522.992244094488" class="thin blue line"/>
    <line x1="0" x2="595.276" y1="517.322952755905" y2="517.322952755905" class="thin blue line"/>
    <line x1="0" x2="595.276" y1="505.98437007874" y2="505.98437007874" class="thin blue line"/>
    <line x1="0" x2="595.276" y1="500.315078740157" y2="500.315078740157" class="thin blue line"/>
    <line x1="0" x2="595.276" y1="494.645787401575" y2="494.645787401575" class="thin blue line"/>
    <line x1="0" x2="595.276" y1="483.307204724409" y2="483.307204724409" class="thin blue line"/>
    <line x1="0" x2="595.276" y1="477.637913385827" y2="477.637913385827" class="thin blue line"/>
    <line x1="0" x2="595.276" y1="471.968622047244" y2="471.968622047244" class="thin blue line"/>
    <line x1="0" x2="595.276" y1="460.630039370078" y2="460.630039370078" class="thin blue line"/>
    <line x1="0" x2="595.276" y1="454.960748031496" y2="454.960748031496" class="thin blue line"/>
    <line x1="0" x2="595.276" y1="449.291456692913" y2="449.291456692913" class="thin blue line"/>
    <line x1="0" x2="595.276" y1="443.62216535433" y2="443.62216535433" class="thin blue line"/>
    <line x1="0" x2="595.276" y1="437.952874015748" y2="437.952874015748" class="thin blue line"/>
    <line x1="0" x2="595.276" y1="432.283582677165" y2="432.283582677165" class="thin blue line"/>
    <line x1="0" x2="595.276" y1="426.614291338582" y2="426.614291338582" class="thin blue line"/>
    <line x1="0" x2="595.276" y1="415.275708661417" y2="415.275708661417" class="thin blue line"/>
    <line x1="0" x2="595.276" y1="409.606417322834" y2="409.606417322834" class="thin blue line"/>
    <line x1="0" x2="595.276" y1="403.937125984252" y2="403.937125984252" class="thin blue line"/>
    <line x1="0" x2="595.276" y1="392.598543307086" y2="392.598543307086" class="thin blue line"/>
    <line x1="0" x2="595.276" y1="386.929251968503" y2="386.929251968503" class="thin blue line"/>
    <line x1="0" x2="595.276" y1="381.259960629921" y2="381.259960629921" class="thin blue line"/>
    <line x1="0" x2="595.276" y1="369.921377952755" y2="369.921377952755" class="thin blue line"/>
    <line x1="0" x2="595.276" y1="364.252086614173" y2="364.252086614173" class="thin blue line"/>
    <line x1="0" x2="595.276" y1="358.58279527559" y2="358.58279527559" class="thin blue line"/>
    <line x1="0" x2="595.276" y1="352.913503937007" y2="352.913503937007" class="thin blue line"/>
    <line x1="0" x2="595.276" y1="347.244212598425" y2="347.244212598425" class="thin blue line"/>
    <line x1="0" x2="595.276" y1="341.574921259842" y2="341.574921259842" class="thin blue line"/>
    <line x1="0" x2="595.276" y1="335.905629921259" y2="335.905629921259" class="thin blue line"/>
    <line x1="0" x2="595.276" y1="330.236338582676" y2="330.236338582676" class="thin blue line"/>
    <line x1="0" x2="595.276" y1="324.567047244094" y2="324.567047244094" class="thin blue line"/>
    <line x1="0" x2="595.276" y1="318.897755905511" y2="318.897755905511" class="thin blue line"/>
    <line x1="0" x2="595.276" y1="313.228464566929" y2="313.228464566929" class="thin blue line"/>
    <line x1="0" x2="595.276" y1="301.889881889763" y2="301.889881889763" class="thin blue line"/>
    <line x1="0" x2="595.276" y1="296.220590551181" y2="296.220590551181" class="thin blue line"/>
    <line x1="0" x2="595.276" y1="290.551299212598" y2="290.551299212598" class="thin blue line"/>
    <line x1="0" x2="595.276" y1="284.882007874015" y2="284.882007874015" class="thin blue line"/>
    <line x1="0" x2="595.276" y1="279.212716535433" y2="279.212716535433" class="thin blue line"/>
    <line x1="0" x2="595.276" y1="273.54342519685" y2="273.54342519685" class="thin blue line"/>
    <line x1="0" x2="595.276" y1="267.874133858267" y2="267.874133858267" class="thin blue line"/>
    <line x1="0" x2="595.276" y1="256.535551181102" y2="256.535551181102" class="thin blue line"/>
    <line x1="0" x2="595.276" y1="250.86625984252" y2="250.86625984252" class="thin blue line"/>
    <line x1="0" x2="595.276" y1="245.196968503937" y2="245.196968503937" class="thin blue line"/>
    <line x1="0" x2="595.276" y1="233.858385826772" y2="233.858385826772" class="thin blue line"/>
    <line x1="0" x2="595.276" y1="228.189094488189" y2="228.189094488189" class="thin blue line"/>
    <line x1="0" x2="595.276" y1="222.519803149606" y2="222.519803149606" class="thin blue line"/>
    <line x1="0" x2="595.276" y1="211.181220472441" y2="211.181220472441" class="thin blue line"/>
    <line x1="0" x2="595.276" y1="205.511929133858" y2="205.511929133858" class="thin blue line"/>
    <line x1="0" x2="595.276" y1="199.842637795276" y2="199.842637795276" class="thin blue line"/>
    <line x1="0" x2="595.276" y1="188.504055118111" y2="188.504055118111" class="thin blue line"/>
    <line x1="0" x2="595.276" y1="182.834763779528" y2="182.834763779528" class="thin blue line"/>
    <line x1="0" x2="595.276" y1="177.165472440945" y2="177.165472440945" class="thin blue line"/>
    <line x1="0" x2="595.276" y1="171.496181102363" y2="171.496181102363" class="thin blue line"/>
    <line x1="0" x2="595.276" y1="165.82688976378" y2="165.82688976378" class="thin blue line"/>
    <line x1="0" x2="595.276" y1="160.157598425197" y2="160.157598425197" class="thin blue line"/>
    <line x1="0" x2="595.276" y1="154.488307086615" y2="154.488307086615" class="thin blue line"/>
    <line x1="0" x2="595.276" y1="143.149724409449" y2="143.149724409449" class="thin blue line"/>
    <line x1="0" x2="595.276" y1="137.480433070867" y2="137.480433070867" class="thin blue line"/>
    <line x1="0" x2="595.276" y1="131.811141732284" y2="131.811141732284" class="thin blue line"/>
    <line x1="0" x2="595.276" y1="120.472559055119" y2="120.472559055119" class="thin blue line"/>
    <line x1="0" x2="595.276" y1="114.803267716536" y2="114.803267716536" class="thin blue line"/>
    <line x1="0" x2="595.276" y1="109.133976377954" y2="109.133976377954" class="thin blue line"/>
    <line x1="0" x2="595.276" y1="103.464685039371" y2="103.464685039371" class="thin blue line"/>
    <line x1="0" x2="595.276" y1="97.7953937007883" y2="97.7953937007883" class="thin blue line"/>
    <line x1="0" x2="595.276" y1="92.1261023622056" y2="92.1261023622056" class="thin blue line"/>
    <line x1="0" x2="595.276" y1="86.456811023623" y2="86.456811023623" class="thin blue line"/>
  </g>
  <g id="vertical-lines">
    <line x1="116.220677165354" x2="116.220677165354" y1="841.89" y2="0" class="thin blue line"/>
    <line x1="138.897842519685" x2="138.897842519685" y1="841.89" y2="0" class="thin blue line"/>
    <line x1="161.575007874016" x2="161.575007874016" y1="841.89" y2="0" class="thin blue line"/>
    <line x1="184.252173228346" x2="184.252173228346" y1="841.89" y2="0" class="thin blue line"/>
    <line x1="206.929338582677" x2="206.929338582677" y1="841.89" y2="0" class="thin blue line"/>
    <line x1="229.606503937008" x2="229.606503937008" y1="841.89" y2="0" class="thin blue line"/>
    <line x1="252.283669291339" x2="252.283669291339" y1="841.89" y2="0" class="thin blue line"/>
    <line x1="274.960834645669" x2="274.960834645669" y1="841.89" y2="0" class="thin blue line"/>
    <line x1="297.638" x2="297.638" y1="841.89" y2="0" class="thin blue line"/>
    <line x1="320.315165354331" x2="320.315165354331" y1="841.89" y2="0" class="thin blue line"/>
    <line x1="342.992330708661" x2="342.992330708661" y1="841.89" y2="0" class="thin blue line"/>
    <line x1="365.669496062992" x2="365.669496062992" y1="841.89" y2="0" class="thin blue line"/>
    <line x1="388.346661417323" x2="388.346661417323" y1="841.89" y2="0" class="thin blue line"/>
    <line x1="411.023826771654" x2="411.023826771654" y1="841.89" y2="0" class="thin blue line"/>
    <line x1="433.700992125984" x2="433.700992125984" y1="841.89" y2="0" class="thin blue line"/>
    <line x1="456.378157480315" x2="456.378157480315" y1="841.89" y2="0" class="thin blue line"/>
    <line x1="479.055322834646" x2="479.055322834646" y1="841.89" y2="0" class="thin blue line"/>
    <line x1="501.732488188977" x2="501.732488188977" y1="841.89" y2="0" class="thin blue line"/>
    <line x1="524.409653543307" x2="524.409653543307" y1="841.89" y2="0" class="thin blue line"/>
    <line x1="547.086818897638" x2="547.086818897638" y1="841.89" y2="0" class="thin blue line"/>
    <line x1="569.763984251969" x2="569.763984251969" y1="841.89" y2="0" class="thin blue line"/>
    <line x1="592.441149606299" x2="592.441149606299" y1="841.89" y2="0" class="thin blue line"/>
  </g>
  <g id="horizontal-lines">
    <line x1="0" x2="595.276" y1="761.102480314961" y2="761.102480314961" class="blue line"/>
    <line x1="0" x2="595.276" y1="738.42531496063" y2="738.42531496063" class="blue line"/>
    <line x1="0" x2="595.276" y1="715.748149606299" y2="715.748149606299" class="blue line"/>
    <line x1="0" x2="595.276" y1="693.070984251969" y2="693.070984251969" class="blue line"/>
    <line x1="0" x2="595.276" y1="670.393818897638" y2="670.393818897638" class="blue line"/>
    <line x1="0" x2="595.276" y1="647.716653543307" y2="647.716653543307" class="blue line"/>
    <line x1="0" x2="595.276" y1="625.039488188976" y2="625.039488188976" class="blue line"/>
    <line x1="0" x2="595.276" y1="602.362322834646" y2="602.362322834646" class="blue line"/>
    <line x1="0" x2="595.276" y1="579.685157480315" y2="579.685157480315" class="blue line"/>
    <line x1="0" x2="595.276" y1="557.007992125984" y2="557.007992125984" class="blue line"/>
    <line x1="0" x2="595.276" y1="534.330826771654" y2="534.330826771654" class="blue line"/>
    <line x1="0" x2="595.276" y1="511.653661417323" y2="511.653661417323" class="blue line"/>
    <line x1="0" x2="595.276" y1="488.976496062992" y2="488.976496062992" class="blue line"/>
    <line x1="0" x2="595.276" y1="466.299330708661" y2="466.299330708661" class="blue line"/>
    <line x1="0" x2="595.276" y1="443.622165354331" y2="443.622165354331" class="blue line"/>
    <line x1="0" x2="595.276" y1="420.945" y2="420.945" class="blue line"/>
    <line x1="0" x2="595.276" y1="398.267834645669" y2="398.267834645669" class="blue line"/>
    <line x1="0" x2="595.276" y1="375.590669291338" y2="375.590669291338" class="blue line"/>
    <line x1="0" x2="595.276" y1="352.913503937008" y2="352.913503937008" class="blue line"/>
    <line x1="0" x2="595.276" y1="330.236338582677" y2="330.236338582677" class="blue line"/>
    <line x1="0" x2="595.276" y1="307.559173228346" y2="307.559173228346" class="blue line"/>
    <line x1="0" x2="595.276" y1="284.882007874016" y2="284.882007874016" class="blue line"/>
    <line x1="0" x2="595.276" y1="262.204842519685" y2="262.204842519685" class="blue line"/>
    <line x1="0" x2="595.276" y1="239.527677165354" y2="239.527677165354" class="blue line"/>
    <line x1="0" x2="595.276" y1="216.850511811024" y2="216.850511811024" class="blue line"/>
    <line x1="0" x2="595.276" y1="194.173346456693" y2="194.173346456693" class="blue line"/>
    <line x1="0" x2="595.276" y1="171.496181102362" y2="171.496181102362" class="blue line"/>
    <line x1="0" x2="595.276" y1="148.819015748032" y2="148.819015748032" class="blue line"/>
    <line x1="0" x2="595.276" y1="126.141850393701" y2="126.141850393701" class="blue line"/>
    <line x1="0" x2="595.276" y1="103.46468503937" y2="103.46468503937" class="blue line"/>
  </g>
  <g id="additional-horizontal-lines">
    <line x1="0" x2="595.276" y1="35.4331889763783" y2="35.4331889763783" class="thin blue line"/>
    <line x1="501.732488188976" x2="569.763984251969" y1="806.456811023622" y2="806.456811023622" class="blue line stroke-linecap-butt"/>
  </g>
  <g id="margin-lines">
    <line x1="116.220677165354" x2="116.220677165354" y1="841.89" y2="0" class="red margin line"/>
  </g>
</svg>
