<?xml version="1.0" encoding="UTF-8"?>
<svg xmlns="http://www.w3.org/2000/svg" width="421.373pt" height="595.911pt" viewBox="0.000 0.000 421.373 595.911">
  <style>
        .line, .regular-line, .major-line, .feint-line,
        .dot,  .regular-dot,  .major-dot,  .feint-dot,
        .margin-line {
            stroke-linecap: round; stroke-linejoin: round;
        }
        .stroke-linecap-butt    { stroke-linecap:  butt;   }
        .stroke-linecap-round   { stroke-linecap:  round;  }
        .stroke-linecap-square  { stroke-linecap:  square; }
        .stroke-linejoin-butt   { stroke-linejoin: butt;   }
        .stroke-linejoin-round  { stroke-linejoin: round;  }
        .stroke-linejoin-square { stroke-linejoin: square; }
        .rectangle { fill: #ffffff; }


        .regular-line { stroke-width: 0.24px; opacity: 1; }
        .major-line   { stroke-width: 0.339411254969543px; opacity: 1;   }
        .feint-line   { stroke-width: 0.169705627484771px; opacity: 1;   }
        .regular-dot  { stroke-width: 0.96px; opacity: 1;  }
        .major-dot    { stroke-width: 1.92px; opacity: 1;    }
        .feint-dot    { stroke-width: 0.48px; opacity: 1;    }
        .margin-line  { stroke-width: 0.24px; opacity: 1;  }
        .regular-line { stroke: #000000; }
        .major-line   { stroke: #000000;   }
        .feint-line   { stroke: #000000;   }
        .regular-dot  { stroke: #000000; }
        .major-dot    { stroke: #000000;   }
        .feint-dot    { stroke: #000000;   }
        .margin-line  { stroke: #000000;  }
  </style>
  <defs/>
  <g id="grid">
    <line x1="0.000" x2="421.373" y1="0.318" y2="0.318" class="regular-line horizontal"/>
    <line x1="0.000" x2="421.373" y1="17.326" y2="17.326" class="regular-line horizontal"/>
    <line x1="0.000" x2="421.373" y1="34.333" y2="34.333" class="regular-line horizontal"/>
    <line x1="0.000" x2="421.373" y1="51.341" y2="51.341" class="regular-line horizontal"/>
    <line x1="0.000" x2="421.373" y1="68.349" y2="68.349" class="regular-line horizontal"/>
    <line x1="0.000" x2="421.373" y1="85.357" y2="85.357" class="regular-line horizontal"/>
    <line x1="0.000" x2="421.373" y1="102.365" y2="102.365" class="regular-line horizontal"/>
    <line x1="0.000" x2="421.373" y1="119.373" y2="119.373" class="regular-line horizontal"/>
    <line x1="0.000" x2="421.373" y1="136.381" y2="136.381" class="regular-line horizontal"/>
    <line x1="0.000" x2="421.373" y1="153.388" y2="153.388" class="regular-line horizontal"/>
    <line x1="0.000" x2="421.373" y1="170.396" y2="170.396" class="regular-line horizontal"/>
    <line x1="0.000" x2="421.373" y1="187.404" y2="187.404" class="regular-line horizontal"/>
    <line x1="0.000" x2="421.373" y1="204.412" y2="204.412" class="regular-line horizontal"/>
    <line x1="0.000" x2="421.373" y1="221.420" y2="221.420" class="regular-line horizontal"/>
    <line x1="0.000" x2="421.373" y1="238.428" y2="238.428" class="regular-line horizontal"/>
    <line x1="0.000" x2="421.373" y1="255.436" y2="255.436" class="regular-line horizontal"/>
    <line x1="0.000" x2="421.373" y1="272.444" y2="272.444" class="regular-line horizontal"/>
    <line x1="0.000" x2="421.373" y1="289.451" y2="289.451" class="regular-line horizontal"/>
    <line x1="0.000" x2="421.373" y1="306.459" y2="306.459" class="regular-line horizontal"/>
    <line x1="0.000" x2="421.373" y1="323.467" y2="323.467" class="regular-line horizontal"/>
    <line x1="0.000" x2="421.373" y1="340.475" y2="340.475" class="regular-line horizontal"/>
    <line x1="0.000" x2="421.373" y1="357.483" y2="357.483" class="regular-line horizontal"/>
    <line x1="0.000" x2="421.373" y1="374.491" y2="374.491" class="regular-line horizontal"/>
    <line x1="0.000" x2="421.373" y1="391.499" y2="391.499" class="regular-line horizontal"/>
    <line x1="0.000" x2="421.373" y1="408.507" y2="408.507" class="regular-line horizontal"/>
    <line x1="0.000" x2="421.373" y1="425.514" y2="425.514" class="regular-line horizontal"/>
    <line x1="0.000" x2="421.373" y1="442.522" y2="442.522" class="regular-line horizontal"/>
    <line x1="0.000" x2="421.373" y1="459.530" y2="459.530" class="regular-line horizontal"/>
    <line x1="0.000" x2="421.373" y1="476.538" y2="476.538" class="regular-line horizontal"/>
    <line x1="0.000" x2="421.373" y1="493.546" y2="493.546" class="regular-line horizontal"/>
    <line x1="0.000" x2="421.373" y1="510.554" y2="510.554" class="regular-line horizontal"/>
    <line x1="0.000" x2="421.373" y1="527.562" y2="527.562" class="regular-line horizontal"/>
    <line x1="0.000" x2="421.373" y1="544.570" y2="544.570" class="regular-line horizontal"/>
    <line x1="0.000" x2="421.373" y1="561.577" y2="561.577" class="regular-line horizontal"/>
    <line x1="0.000" x2="421.373" y1="578.585" y2="578.585" class="regular-line horizontal"/>
    <line x1="0.000" x2="421.373" y1="595.593" y2="595.593" class="regular-line horizontal"/>
    <line x1="6.592" x2="6.592" y1="0.000" y2="595.911" class="regular-line vertical"/>
    <line x1="23.600" x2="23.600" y1="0.000" y2="595.911" class="regular-line vertical"/>
    <line x1="40.608" x2="40.608" y1="0.000" y2="595.911" class="regular-line vertical"/>
    <line x1="57.615" x2="57.615" y1="0.000" y2="595.911" class="regular-line vertical"/>
    <line x1="74.623" x2="74.623" y1="0.000" y2="595.911" class="regular-line vertical"/>
    <line x1="91.631" x2="91.631" y1="0.000" y2="595.911" class="regular-line vertical"/>
    <line x1="108.639" x2="108.639" y1="0.000" y2="595.911" class="regular-line vertical"/>
    <line x1="125.647" x2="125.647" y1="0.000" y2="595.911" class="regular-line vertical"/>
    <line x1="142.655" x2="142.655" y1="0.000" y2="595.911" class="regular-line vertical"/>
    <line x1="159.663" x2="159.663" y1="0.000" y2="595.911" class="regular-line vertical"/>
    <line x1="176.671" x2="176.671" y1="0.000" y2="595.911" class="regular-line vertical"/>
    <line x1="193.678" x2="193.678" y1="0.000" y2="595.911" class="regular-line vertical"/>
    <line x1="210.686" x2="210.686" y1="0.000" y2="595.911" class="regular-line vertical"/>
    <line x1="227.694" x2="227.694" y1="0.000" y2="595.911" class="regular-line vertical"/>
    <line x1="244.702" x2="244.702" y1="0.000" y2="595.911" class="regular-line vertical"/>
    <line x1="261.710" x2="261.710" y1="0.000" y2="595.911" class="regular-line vertical"/>
    <line x1="278.718" x2="278.718" y1="0.000" y2="595.911" class="regular-line vertical"/>
    <line x1="295.726" x2="295.726" y1="0.000" y2="595.911" class="regular-line vertical"/>
    <line x1="312.734" x2="312.734" y1="0.000" y2="595.911" class="regular-line vertical"/>
    <line x1="329.741" x2="329.741" y1="0.000" y2="595.911" class="regular-line vertical"/>
    <line x1="346.749" x2="346.749" y1="0.000" y2="595.911" class="regular-line vertical"/>
    <line x1="363.757" x2="363.757" y1="0.000" y2="595.911" class="regular-line vertical"/>
    <line x1="380.765" x2="380.765" y1="0.000" y2="595.911" class="regular-line vertical"/>
    <line x1="397.773" x2="397.773" y1="0.000" y2="595.911" class="regular-line vertical"/>
    <line x1="414.781" x2="414.781" y1="0.000" y2="595.911" class="regular-line vertical"/>
  </g>
  <rect x="116.186299902057" y="569.910845455389" width="189" height="12" fill="#ffffff" stroke="none" stroke-width="0px"/>
  <text x="210.686299902057" y="577.910845455389" text-anchor="middle" fill="#000000" stroke="none" stroke-width="0" style="font-family: &quot;Courier&quot;, &quot;Courier New&quot;, monospace; font-size: 6pt;">https://github.com/dse/printable-paper</text>
</svg>
