<?xml version="1.0" encoding="UTF-8"?>
<svg xmlns="http://www.w3.org/2000/svg" width="396pt" height="612pt" viewBox="0 0 396 612">
  <defs/>
  <style>        .line, .dot { stroke-linecap: round; }
        .stroke-linecap-butt { stroke-linecap: butt; }

        .line            { stroke-width: 0.72pt; }
        .line.xx-thin    { stroke-width: 0.24pt; }
        .line.x-thin     { stroke-width: 0.36pt; }
        .line.thin       { stroke-width: 0.48pt; }
        .line.thick      { stroke-width: 1.08pt; }
        .line.semi-thin  { stroke-width: 0.588pt; }
        .line.semi-thick { stroke-width: 0.882pt; }

        .dot             { stroke-width: 1.44pt; }
        .dot.thin        { stroke-width: 0.96pt; }
        .dot.thick       { stroke-width: 2.16pt; }
        .dot.semi-thin   { stroke-width: 1.176pt; }
        .dot.semi-thick  { stroke-width: 1.764pt; }

        .stroke-1     { stroke-width: 0.12pt; stroke-linecap: round; } /* 1/600 in */
        .stroke-2     { stroke-width: 0.24pt; stroke-linecap: round; }
        .stroke-3     { stroke-width: 0.36pt; stroke-linecap: round; }
        .stroke-4     { stroke-width: 0.48pt; stroke-linecap: round; }
        .stroke-5     { stroke-width: 0.60pt; stroke-linecap: round; }
        .stroke-6     { stroke-width: 0.72pt; stroke-linecap: round; }
        .stroke-7     { stroke-width: 0.84pt; stroke-linecap: round; }
        .stroke-8     { stroke-width: 0.96pt; stroke-linecap: round; }
        .stroke-9     { stroke-width: 1.08pt; stroke-linecap: round; }
        .stroke-10    { stroke-width: 1.20pt; stroke-linecap: round; }

        .blue  { stroke: #b3b3ff; }
        .red   { stroke: #ff9999; }
        .green { stroke: #b3ffb3; }
        .gray  { stroke: #b3b3b3; }
        .light.blue  { stroke: #d9d9ff; }
        .light.red   { stroke: #ffcccc; }
        .light.green { stroke: #d9ffd9; }
        .light.gray  { stroke: #d9d9d9; }

        .dark.blue  { stroke: #6767ff; }
        .dark.red   { stroke: #ff3333; }
        .dark.green { stroke: #67ff67; }
        .dark.gray  { stroke: #676767; }

        .alternate-blue  { stroke: #6767ff; opacity: 0.5; }
        .alternate-red   { stroke: #ff3333; opacity: 0.5; }
        .alternate-green { stroke: #67ff67; opacity: 0.5; }
        .alternate-gray  { stroke: #676767; opacity: 0.5; }
</style>
  <defs>
    <pattern x="-18" y="52.3125" width="432" height="5.625" id="grid-pattern-1-horizontal-lines" patternUnits="userSpaceOnUse" viewBox="0 0 432.000 5.625">
      <line x1="18" x2="414" y1="2.812" y2="2.812" class="thin blue line"/>
    </pattern>
    <pattern x="42.75" y="-18" width="22.5" height="648" id="grid-pattern-2-vertical-lines" patternUnits="userSpaceOnUse" viewBox="0 0 22.500 648.000">
      <line x1="11.25" x2="11.25" y1="18" y2="630" class="thin blue line"/>
    </pattern>
  </defs>
  <g id="grid">
    <rect x="-18" y="52.3125" width="432" height="517.5" fill="url(#grid-pattern-1-horizontal-lines)"/>
    <rect x="42.75" y="-18" width="360" height="648" fill="url(#grid-pattern-2-vertical-lines)"/>
  </g>
  <g id="lines">
    <line x1="0" x2="396" y1="72" y2="72" class=" blue line"/>
    <line x1="0" x2="396" y1="94.5" y2="94.5" class=" blue line"/>
    <line x1="0" x2="396" y1="117" y2="117" class=" blue line"/>
    <line x1="0" x2="396" y1="139.5" y2="139.5" class=" blue line"/>
    <line x1="0" x2="396" y1="162" y2="162" class=" blue line"/>
    <line x1="0" x2="396" y1="184.5" y2="184.5" class=" blue line"/>
    <line x1="0" x2="396" y1="207" y2="207" class=" blue line"/>
    <line x1="0" x2="396" y1="229.5" y2="229.5" class=" blue line"/>
    <line x1="0" x2="396" y1="252" y2="252" class=" blue line"/>
    <line x1="0" x2="396" y1="274.5" y2="274.5" class=" blue line"/>
    <line x1="0" x2="396" y1="297" y2="297" class=" blue line"/>
    <line x1="0" x2="396" y1="319.5" y2="319.5" class=" blue line"/>
    <line x1="0" x2="396" y1="342" y2="342" class=" blue line"/>
    <line x1="0" x2="396" y1="364.5" y2="364.5" class=" blue line"/>
    <line x1="0" x2="396" y1="387" y2="387" class=" blue line"/>
    <line x1="0" x2="396" y1="409.5" y2="409.5" class=" blue line"/>
    <line x1="0" x2="396" y1="432" y2="432" class=" blue line"/>
    <line x1="0" x2="396" y1="454.5" y2="454.5" class=" blue line"/>
    <line x1="0" x2="396" y1="477" y2="477" class=" blue line"/>
    <line x1="0" x2="396" y1="499.5" y2="499.5" class=" blue line"/>
    <line x1="0" x2="396" y1="522" y2="522" class=" blue line"/>
    <line x1="0" x2="396" y1="544.5" y2="544.5" class=" blue line"/>
  </g>
  <g id="margin-line">
    <line x1="54" x2="54" y1="0" y2="612" class="red margin line"/>
  </g>
  <g id="head-line">
    <line x1="0" x2="396" y1="36" y2="36" class=" blue line"/>
  </g>
  <g id="page-number-line">
    <line x1="-13.5" x2="54" y1="594" y2="594" class=" blue line"/>
  </g>
</svg>
