<?xml version="1.0" encoding="UTF-8"?>
<svg xmlns="http://www.w3.org/2000/svg" width="612pt" height="792pt" viewBox="0 0 612 792">
  <defs/>
  <style>        .line, .dot { stroke-linecap: round; }
        .stroke-linecap-butt { stroke-linecap: butt; }

        .rectangle { fill: #ffffff; }

        .line.xx-thin    { stroke-width: 0.24pt; }
        .line.x-thin     { stroke-width: 0.36pt; }
        .line.thin       { stroke-width: 0.48pt; }
        .line.semi-thin  { stroke-width: 0.588pt; }
        .line            { stroke-width: 0.72pt; }
        .line.semi-thick { stroke-width: 0.882pt; }
        .line.thick      { stroke-width: 1.08pt; }

        .dot.xx-thin     { stroke-width: 0.48pt; }
        .dot.x-thin      { stroke-width: 0.72pt; }
        .dot.thin        { stroke-width: 0.96pt; }
        .dot.semi-thin   { stroke-width: 1.176pt; }
        .dot             { stroke-width: 1.44pt; }
        .dot.semi-thick  { stroke-width: 1.764pt; }
        .dot.thick       { stroke-width: 2.16pt; }

        .stroke-1     { stroke-width: 0.12pt; stroke-linecap: round; }
        .stroke-2     { stroke-width: 0.24pt; stroke-linecap: round; }
        .stroke-3     { stroke-width: 0.36pt; stroke-linecap: round; }
        .stroke-4     { stroke-width: 0.48pt; stroke-linecap: round; }
        .stroke-5     { stroke-width: 0.6pt; stroke-linecap: round; }
        .stroke-6     { stroke-width: 0.72pt; stroke-linecap: round; }
        .stroke-7     { stroke-width: 0.84pt; stroke-linecap: round; }
        .stroke-8     { stroke-width: 0.96pt; stroke-linecap: round; }
        .stroke-9     { stroke-width: 1.08pt; stroke-linecap: round; }
        .stroke-10    { stroke-width: 1.2pt; stroke-linecap: round; }

        .blue  { stroke: #b3b3ff; }
        .red   { stroke: #ff9999; }
        .green { stroke: #b3ffb3; }
        .gray  { stroke: #b3b3b3; }

        .black         { stroke: #000000; }
        .half-black    { stroke: #808080; }
        .quarter-black { stroke: #c0c0c0; }

        .light.blue  { stroke: #d9d9ff; }
        .light.red   { stroke: #ffcccc; }
        .light.green { stroke: #d9ffd9; }
        .light.gray  { stroke: #d9d9d9; }

        .dark.blue  { stroke: #6767ff; }
        .dark.red   { stroke: #ff3333; }
        .dark.green { stroke: #67ff67; }
        .dark.gray  { stroke: #676767; }

        .alternate-blue  { stroke: #6767ff; opacity: 0.5; }
        .alternate-red   { stroke: #ff3333; opacity: 0.5; }
        .alternate-green { stroke: #67ff67; opacity: 0.5; }
        .alternate-gray  { stroke: #676767; opacity: 0.5; }
</style>
  <g id="grid">
    <line x1="0" x2="612" y1="0" y2="0" class="xx-thin blue line"/>
    <line x1="0" x2="612" y1="6" y2="6" class="xx-thin blue line"/>
    <line x1="0" x2="612" y1="12" y2="12" class="xx-thin blue line"/>
    <line x1="0" x2="612" y1="18" y2="18" class="xx-thin blue line"/>
    <line x1="0" x2="612" y1="24" y2="24" class="xx-thin blue line"/>
    <line x1="0" x2="612" y1="30" y2="30" class="xx-thin blue line"/>
    <line x1="0" x2="612" y1="36" y2="36" class="xx-thin blue line"/>
    <line x1="0" x2="612" y1="42" y2="42" class="xx-thin blue line"/>
    <line x1="0" x2="612" y1="48" y2="48" class="xx-thin blue line"/>
    <line x1="0" x2="612" y1="54" y2="54" class="xx-thin blue line"/>
    <line x1="0" x2="612" y1="60" y2="60" class="xx-thin blue line"/>
    <line x1="0" x2="612" y1="66" y2="66" class="xx-thin blue line"/>
    <line x1="0" x2="612" y1="72" y2="72" class="xx-thin blue line"/>
    <line x1="0" x2="612" y1="78" y2="78" class="xx-thin blue line"/>
    <line x1="0" x2="612" y1="84" y2="84" class="xx-thin blue line"/>
    <line x1="0" x2="612" y1="90" y2="90" class="xx-thin blue line"/>
    <line x1="0" x2="612" y1="96" y2="96" class="xx-thin blue line"/>
    <line x1="0" x2="612" y1="102" y2="102" class="xx-thin blue line"/>
    <line x1="0" x2="612" y1="108" y2="108" class="xx-thin blue line"/>
    <line x1="0" x2="612" y1="114" y2="114" class="xx-thin blue line"/>
    <line x1="0" x2="612" y1="120" y2="120" class="xx-thin blue line"/>
    <line x1="0" x2="612" y1="126" y2="126" class="xx-thin blue line"/>
    <line x1="0" x2="612" y1="132" y2="132" class="xx-thin blue line"/>
    <line x1="0" x2="612" y1="138" y2="138" class="xx-thin blue line"/>
    <line x1="0" x2="612" y1="144" y2="144" class="xx-thin blue line"/>
    <line x1="0" x2="612" y1="150" y2="150" class="xx-thin blue line"/>
    <line x1="0" x2="612" y1="156" y2="156" class="xx-thin blue line"/>
    <line x1="0" x2="612" y1="162" y2="162" class="xx-thin blue line"/>
    <line x1="0" x2="612" y1="168" y2="168" class="xx-thin blue line"/>
    <line x1="0" x2="612" y1="174" y2="174" class="xx-thin blue line"/>
    <line x1="0" x2="612" y1="180" y2="180" class="xx-thin blue line"/>
    <line x1="0" x2="612" y1="186" y2="186" class="xx-thin blue line"/>
    <line x1="0" x2="612" y1="192" y2="192" class="xx-thin blue line"/>
    <line x1="0" x2="612" y1="198" y2="198" class="xx-thin blue line"/>
    <line x1="0" x2="612" y1="204" y2="204" class="xx-thin blue line"/>
    <line x1="0" x2="612" y1="210" y2="210" class="xx-thin blue line"/>
    <line x1="0" x2="612" y1="216" y2="216" class="xx-thin blue line"/>
    <line x1="0" x2="612" y1="222" y2="222" class="xx-thin blue line"/>
    <line x1="0" x2="612" y1="228" y2="228" class="xx-thin blue line"/>
    <line x1="0" x2="612" y1="234" y2="234" class="xx-thin blue line"/>
    <line x1="0" x2="612" y1="240" y2="240" class="xx-thin blue line"/>
    <line x1="0" x2="612" y1="246" y2="246" class="xx-thin blue line"/>
    <line x1="0" x2="612" y1="252" y2="252" class="xx-thin blue line"/>
    <line x1="0" x2="612" y1="258" y2="258" class="xx-thin blue line"/>
    <line x1="0" x2="612" y1="264" y2="264" class="xx-thin blue line"/>
    <line x1="0" x2="612" y1="270" y2="270" class="xx-thin blue line"/>
    <line x1="0" x2="612" y1="276" y2="276" class="xx-thin blue line"/>
    <line x1="0" x2="612" y1="282" y2="282" class="xx-thin blue line"/>
    <line x1="0" x2="612" y1="288" y2="288" class="xx-thin blue line"/>
    <line x1="0" x2="612" y1="294" y2="294" class="xx-thin blue line"/>
    <line x1="0" x2="612" y1="300" y2="300" class="xx-thin blue line"/>
    <line x1="0" x2="612" y1="306" y2="306" class="xx-thin blue line"/>
    <line x1="0" x2="612" y1="312" y2="312" class="xx-thin blue line"/>
    <line x1="0" x2="612" y1="318" y2="318" class="xx-thin blue line"/>
    <line x1="0" x2="612" y1="324" y2="324" class="xx-thin blue line"/>
    <line x1="0" x2="612" y1="330" y2="330" class="xx-thin blue line"/>
    <line x1="0" x2="612" y1="336" y2="336" class="xx-thin blue line"/>
    <line x1="0" x2="612" y1="342" y2="342" class="xx-thin blue line"/>
    <line x1="0" x2="612" y1="348" y2="348" class="xx-thin blue line"/>
    <line x1="0" x2="612" y1="354" y2="354" class="xx-thin blue line"/>
    <line x1="0" x2="612" y1="360" y2="360" class="xx-thin blue line"/>
    <line x1="0" x2="612" y1="366" y2="366" class="xx-thin blue line"/>
    <line x1="0" x2="612" y1="372" y2="372" class="xx-thin blue line"/>
    <line x1="0" x2="612" y1="378" y2="378" class="xx-thin blue line"/>
    <line x1="0" x2="612" y1="384" y2="384" class="xx-thin blue line"/>
    <line x1="0" x2="612" y1="390" y2="390" class="xx-thin blue line"/>
    <line x1="0" x2="612" y1="396" y2="396" class="xx-thin blue line"/>
    <line x1="0" x2="612" y1="402" y2="402" class="xx-thin blue line"/>
    <line x1="0" x2="612" y1="408" y2="408" class="xx-thin blue line"/>
    <line x1="0" x2="612" y1="414" y2="414" class="xx-thin blue line"/>
    <line x1="0" x2="612" y1="420" y2="420" class="xx-thin blue line"/>
    <line x1="0" x2="612" y1="426" y2="426" class="xx-thin blue line"/>
    <line x1="0" x2="612" y1="432" y2="432" class="xx-thin blue line"/>
    <line x1="0" x2="612" y1="438" y2="438" class="xx-thin blue line"/>
    <line x1="0" x2="612" y1="444" y2="444" class="xx-thin blue line"/>
    <line x1="0" x2="612" y1="450" y2="450" class="xx-thin blue line"/>
    <line x1="0" x2="612" y1="456" y2="456" class="xx-thin blue line"/>
    <line x1="0" x2="612" y1="462" y2="462" class="xx-thin blue line"/>
    <line x1="0" x2="612" y1="468" y2="468" class="xx-thin blue line"/>
    <line x1="0" x2="612" y1="474" y2="474" class="xx-thin blue line"/>
    <line x1="0" x2="612" y1="480" y2="480" class="xx-thin blue line"/>
    <line x1="0" x2="612" y1="486" y2="486" class="xx-thin blue line"/>
    <line x1="0" x2="612" y1="492" y2="492" class="xx-thin blue line"/>
    <line x1="0" x2="612" y1="498" y2="498" class="xx-thin blue line"/>
    <line x1="0" x2="612" y1="504" y2="504" class="xx-thin blue line"/>
    <line x1="0" x2="612" y1="510" y2="510" class="xx-thin blue line"/>
    <line x1="0" x2="612" y1="516" y2="516" class="xx-thin blue line"/>
    <line x1="0" x2="612" y1="522" y2="522" class="xx-thin blue line"/>
    <line x1="0" x2="612" y1="528" y2="528" class="xx-thin blue line"/>
    <line x1="0" x2="612" y1="534" y2="534" class="xx-thin blue line"/>
    <line x1="0" x2="612" y1="540" y2="540" class="xx-thin blue line"/>
    <line x1="0" x2="612" y1="546" y2="546" class="xx-thin blue line"/>
    <line x1="0" x2="612" y1="552" y2="552" class="xx-thin blue line"/>
    <line x1="0" x2="612" y1="558" y2="558" class="xx-thin blue line"/>
    <line x1="0" x2="612" y1="564" y2="564" class="xx-thin blue line"/>
    <line x1="0" x2="612" y1="570" y2="570" class="xx-thin blue line"/>
    <line x1="0" x2="612" y1="576" y2="576" class="xx-thin blue line"/>
    <line x1="0" x2="612" y1="582" y2="582" class="xx-thin blue line"/>
    <line x1="0" x2="612" y1="588" y2="588" class="xx-thin blue line"/>
    <line x1="0" x2="612" y1="594" y2="594" class="xx-thin blue line"/>
    <line x1="0" x2="612" y1="600" y2="600" class="xx-thin blue line"/>
    <line x1="0" x2="612" y1="606" y2="606" class="xx-thin blue line"/>
    <line x1="0" x2="612" y1="612" y2="612" class="xx-thin blue line"/>
    <line x1="0" x2="612" y1="618" y2="618" class="xx-thin blue line"/>
    <line x1="0" x2="612" y1="624" y2="624" class="xx-thin blue line"/>
    <line x1="0" x2="612" y1="630" y2="630" class="xx-thin blue line"/>
    <line x1="0" x2="612" y1="636" y2="636" class="xx-thin blue line"/>
    <line x1="0" x2="612" y1="642" y2="642" class="xx-thin blue line"/>
    <line x1="0" x2="612" y1="648" y2="648" class="xx-thin blue line"/>
    <line x1="0" x2="612" y1="654" y2="654" class="xx-thin blue line"/>
    <line x1="0" x2="612" y1="660" y2="660" class="xx-thin blue line"/>
    <line x1="0" x2="612" y1="666" y2="666" class="xx-thin blue line"/>
    <line x1="0" x2="612" y1="672" y2="672" class="xx-thin blue line"/>
    <line x1="0" x2="612" y1="678" y2="678" class="xx-thin blue line"/>
    <line x1="0" x2="612" y1="684" y2="684" class="xx-thin blue line"/>
    <line x1="0" x2="612" y1="690" y2="690" class="xx-thin blue line"/>
    <line x1="0" x2="612" y1="696" y2="696" class="xx-thin blue line"/>
    <line x1="0" x2="612" y1="702" y2="702" class="xx-thin blue line"/>
    <line x1="0" x2="612" y1="708" y2="708" class="xx-thin blue line"/>
    <line x1="0" x2="612" y1="714" y2="714" class="xx-thin blue line"/>
    <line x1="0" x2="612" y1="720" y2="720" class="xx-thin blue line"/>
    <line x1="0" x2="612" y1="726" y2="726" class="xx-thin blue line"/>
    <line x1="0" x2="612" y1="732" y2="732" class="xx-thin blue line"/>
    <line x1="0" x2="612" y1="738" y2="738" class="xx-thin blue line"/>
    <line x1="0" x2="612" y1="744" y2="744" class="xx-thin blue line"/>
    <line x1="0" x2="612" y1="750" y2="750" class="xx-thin blue line"/>
    <line x1="0" x2="612" y1="756" y2="756" class="xx-thin blue line"/>
    <line x1="0" x2="612" y1="762" y2="762" class="xx-thin blue line"/>
    <line x1="0" x2="612" y1="768" y2="768" class="xx-thin blue line"/>
    <line x1="0" x2="612" y1="774" y2="774" class="xx-thin blue line"/>
    <line x1="0" x2="612" y1="780" y2="780" class="xx-thin blue line"/>
    <line x1="0" x2="612" y1="786" y2="786" class="xx-thin blue line"/>
    <line x1="0" x2="612" y1="792" y2="792" class="xx-thin blue line"/>
    <line x1="3" x2="3" y1="0" y2="792" class="xx-thin blue line"/>
    <line x1="9" x2="9" y1="0" y2="792" class="xx-thin blue line"/>
    <line x1="15" x2="15" y1="0" y2="792" class="xx-thin blue line"/>
    <line x1="21" x2="21" y1="0" y2="792" class="xx-thin blue line"/>
    <line x1="27" x2="27" y1="0" y2="792" class="xx-thin blue line"/>
    <line x1="33" x2="33" y1="0" y2="792" class="xx-thin blue line"/>
    <line x1="39" x2="39" y1="0" y2="792" class="xx-thin blue line"/>
    <line x1="45" x2="45" y1="0" y2="792" class="xx-thin blue line"/>
    <line x1="51" x2="51" y1="0" y2="792" class="xx-thin blue line"/>
    <line x1="57" x2="57" y1="0" y2="792" class="xx-thin blue line"/>
    <line x1="63" x2="63" y1="0" y2="792" class="xx-thin blue line"/>
    <line x1="69" x2="69" y1="0" y2="792" class="xx-thin blue line"/>
    <line x1="75" x2="75" y1="0" y2="792" class="xx-thin blue line"/>
    <line x1="81" x2="81" y1="0" y2="792" class="xx-thin blue line"/>
    <line x1="87" x2="87" y1="0" y2="792" class="xx-thin blue line"/>
    <line x1="93" x2="93" y1="0" y2="792" class="xx-thin blue line"/>
    <line x1="99" x2="99" y1="0" y2="792" class="xx-thin blue line"/>
    <line x1="105" x2="105" y1="0" y2="792" class="xx-thin blue line"/>
    <line x1="111" x2="111" y1="0" y2="792" class="xx-thin blue line"/>
    <line x1="117" x2="117" y1="0" y2="792" class="xx-thin blue line"/>
    <line x1="123" x2="123" y1="0" y2="792" class="xx-thin blue line"/>
    <line x1="129" x2="129" y1="0" y2="792" class="xx-thin blue line"/>
    <line x1="135" x2="135" y1="0" y2="792" class="xx-thin blue line"/>
    <line x1="141" x2="141" y1="0" y2="792" class="xx-thin blue line"/>
    <line x1="147" x2="147" y1="0" y2="792" class="xx-thin blue line"/>
    <line x1="153" x2="153" y1="0" y2="792" class="xx-thin blue line"/>
    <line x1="159" x2="159" y1="0" y2="792" class="xx-thin blue line"/>
    <line x1="165" x2="165" y1="0" y2="792" class="xx-thin blue line"/>
    <line x1="171" x2="171" y1="0" y2="792" class="xx-thin blue line"/>
    <line x1="177" x2="177" y1="0" y2="792" class="xx-thin blue line"/>
    <line x1="183" x2="183" y1="0" y2="792" class="xx-thin blue line"/>
    <line x1="189" x2="189" y1="0" y2="792" class="xx-thin blue line"/>
    <line x1="195" x2="195" y1="0" y2="792" class="xx-thin blue line"/>
    <line x1="201" x2="201" y1="0" y2="792" class="xx-thin blue line"/>
    <line x1="207" x2="207" y1="0" y2="792" class="xx-thin blue line"/>
    <line x1="213" x2="213" y1="0" y2="792" class="xx-thin blue line"/>
    <line x1="219" x2="219" y1="0" y2="792" class="xx-thin blue line"/>
    <line x1="225" x2="225" y1="0" y2="792" class="xx-thin blue line"/>
    <line x1="231" x2="231" y1="0" y2="792" class="xx-thin blue line"/>
    <line x1="237" x2="237" y1="0" y2="792" class="xx-thin blue line"/>
    <line x1="243" x2="243" y1="0" y2="792" class="xx-thin blue line"/>
    <line x1="249" x2="249" y1="0" y2="792" class="xx-thin blue line"/>
    <line x1="255" x2="255" y1="0" y2="792" class="xx-thin blue line"/>
    <line x1="261" x2="261" y1="0" y2="792" class="xx-thin blue line"/>
    <line x1="267" x2="267" y1="0" y2="792" class="xx-thin blue line"/>
    <line x1="273" x2="273" y1="0" y2="792" class="xx-thin blue line"/>
    <line x1="279" x2="279" y1="0" y2="792" class="xx-thin blue line"/>
    <line x1="285" x2="285" y1="0" y2="792" class="xx-thin blue line"/>
    <line x1="291" x2="291" y1="0" y2="792" class="xx-thin blue line"/>
    <line x1="297" x2="297" y1="0" y2="792" class="xx-thin blue line"/>
    <line x1="303" x2="303" y1="0" y2="792" class="xx-thin blue line"/>
    <line x1="309" x2="309" y1="0" y2="792" class="xx-thin blue line"/>
    <line x1="315" x2="315" y1="0" y2="792" class="xx-thin blue line"/>
    <line x1="321" x2="321" y1="0" y2="792" class="xx-thin blue line"/>
    <line x1="327" x2="327" y1="0" y2="792" class="xx-thin blue line"/>
    <line x1="333" x2="333" y1="0" y2="792" class="xx-thin blue line"/>
    <line x1="339" x2="339" y1="0" y2="792" class="xx-thin blue line"/>
    <line x1="345" x2="345" y1="0" y2="792" class="xx-thin blue line"/>
    <line x1="351" x2="351" y1="0" y2="792" class="xx-thin blue line"/>
    <line x1="357" x2="357" y1="0" y2="792" class="xx-thin blue line"/>
    <line x1="363" x2="363" y1="0" y2="792" class="xx-thin blue line"/>
    <line x1="369" x2="369" y1="0" y2="792" class="xx-thin blue line"/>
    <line x1="375" x2="375" y1="0" y2="792" class="xx-thin blue line"/>
    <line x1="381" x2="381" y1="0" y2="792" class="xx-thin blue line"/>
    <line x1="387" x2="387" y1="0" y2="792" class="xx-thin blue line"/>
    <line x1="393" x2="393" y1="0" y2="792" class="xx-thin blue line"/>
    <line x1="399" x2="399" y1="0" y2="792" class="xx-thin blue line"/>
    <line x1="405" x2="405" y1="0" y2="792" class="xx-thin blue line"/>
    <line x1="411" x2="411" y1="0" y2="792" class="xx-thin blue line"/>
    <line x1="417" x2="417" y1="0" y2="792" class="xx-thin blue line"/>
    <line x1="423" x2="423" y1="0" y2="792" class="xx-thin blue line"/>
    <line x1="429" x2="429" y1="0" y2="792" class="xx-thin blue line"/>
    <line x1="435" x2="435" y1="0" y2="792" class="xx-thin blue line"/>
    <line x1="441" x2="441" y1="0" y2="792" class="xx-thin blue line"/>
    <line x1="447" x2="447" y1="0" y2="792" class="xx-thin blue line"/>
    <line x1="453" x2="453" y1="0" y2="792" class="xx-thin blue line"/>
    <line x1="459" x2="459" y1="0" y2="792" class="xx-thin blue line"/>
    <line x1="465" x2="465" y1="0" y2="792" class="xx-thin blue line"/>
    <line x1="471" x2="471" y1="0" y2="792" class="xx-thin blue line"/>
    <line x1="477" x2="477" y1="0" y2="792" class="xx-thin blue line"/>
    <line x1="483" x2="483" y1="0" y2="792" class="xx-thin blue line"/>
    <line x1="489" x2="489" y1="0" y2="792" class="xx-thin blue line"/>
    <line x1="495" x2="495" y1="0" y2="792" class="xx-thin blue line"/>
    <line x1="501" x2="501" y1="0" y2="792" class="xx-thin blue line"/>
    <line x1="507" x2="507" y1="0" y2="792" class="xx-thin blue line"/>
    <line x1="513" x2="513" y1="0" y2="792" class="xx-thin blue line"/>
    <line x1="519" x2="519" y1="0" y2="792" class="xx-thin blue line"/>
    <line x1="525" x2="525" y1="0" y2="792" class="xx-thin blue line"/>
    <line x1="531" x2="531" y1="0" y2="792" class="xx-thin blue line"/>
    <line x1="537" x2="537" y1="0" y2="792" class="xx-thin blue line"/>
    <line x1="543" x2="543" y1="0" y2="792" class="xx-thin blue line"/>
    <line x1="549" x2="549" y1="0" y2="792" class="xx-thin blue line"/>
    <line x1="555" x2="555" y1="0" y2="792" class="xx-thin blue line"/>
    <line x1="561" x2="561" y1="0" y2="792" class="xx-thin blue line"/>
    <line x1="567" x2="567" y1="0" y2="792" class="xx-thin blue line"/>
    <line x1="573" x2="573" y1="0" y2="792" class="xx-thin blue line"/>
    <line x1="579" x2="579" y1="0" y2="792" class="xx-thin blue line"/>
    <line x1="585" x2="585" y1="0" y2="792" class="xx-thin blue line"/>
    <line x1="591" x2="591" y1="0" y2="792" class="xx-thin blue line"/>
    <line x1="597" x2="597" y1="0" y2="792" class="xx-thin blue line"/>
    <line x1="603" x2="603" y1="0" y2="792" class="xx-thin blue line"/>
    <line x1="609" x2="609" y1="0" y2="792" class="xx-thin blue line"/>
  </g>
  <g id="lines">
    <line x1="0" x2="612" y1="6" y2="6" class="blue line"/>
    <line x1="0" x2="612" y1="24" y2="24" class="blue line"/>
    <line x1="0" x2="612" y1="42" y2="42" class="blue line"/>
    <line x1="0" x2="612" y1="60" y2="60" class="blue line"/>
    <line x1="0" x2="612" y1="78" y2="78" class="blue line"/>
    <line x1="0" x2="612" y1="96" y2="96" class="blue line"/>
    <line x1="0" x2="612" y1="114" y2="114" class="blue line"/>
    <line x1="0" x2="612" y1="132" y2="132" class="blue line"/>
    <line x1="0" x2="612" y1="150" y2="150" class="blue line"/>
    <line x1="0" x2="612" y1="168" y2="168" class="blue line"/>
    <line x1="0" x2="612" y1="186" y2="186" class="blue line"/>
    <line x1="0" x2="612" y1="204" y2="204" class="blue line"/>
    <line x1="0" x2="612" y1="222" y2="222" class="blue line"/>
    <line x1="0" x2="612" y1="240" y2="240" class="blue line"/>
    <line x1="0" x2="612" y1="258" y2="258" class="blue line"/>
    <line x1="0" x2="612" y1="276" y2="276" class="blue line"/>
    <line x1="0" x2="612" y1="294" y2="294" class="blue line"/>
    <line x1="0" x2="612" y1="312" y2="312" class="blue line"/>
    <line x1="0" x2="612" y1="330" y2="330" class="blue line"/>
    <line x1="0" x2="612" y1="348" y2="348" class="blue line"/>
    <line x1="0" x2="612" y1="366" y2="366" class="blue line"/>
    <line x1="0" x2="612" y1="384" y2="384" class="blue line"/>
    <line x1="0" x2="612" y1="402" y2="402" class="blue line"/>
    <line x1="0" x2="612" y1="420" y2="420" class="blue line"/>
    <line x1="0" x2="612" y1="438" y2="438" class="blue line"/>
    <line x1="0" x2="612" y1="456" y2="456" class="blue line"/>
    <line x1="0" x2="612" y1="474" y2="474" class="blue line"/>
    <line x1="0" x2="612" y1="492" y2="492" class="blue line"/>
    <line x1="0" x2="612" y1="510" y2="510" class="blue line"/>
    <line x1="0" x2="612" y1="528" y2="528" class="blue line"/>
    <line x1="0" x2="612" y1="546" y2="546" class="blue line"/>
    <line x1="0" x2="612" y1="564" y2="564" class="blue line"/>
    <line x1="0" x2="612" y1="582" y2="582" class="blue line"/>
    <line x1="0" x2="612" y1="600" y2="600" class="blue line"/>
    <line x1="0" x2="612" y1="618" y2="618" class="blue line"/>
    <line x1="0" x2="612" y1="636" y2="636" class="blue line"/>
    <line x1="0" x2="612" y1="654" y2="654" class="blue line"/>
    <line x1="0" x2="612" y1="672" y2="672" class="blue line"/>
    <line x1="0" x2="612" y1="690" y2="690" class="blue line"/>
    <line x1="0" x2="612" y1="708" y2="708" class="blue line"/>
    <line x1="0" x2="612" y1="726" y2="726" class="blue line"/>
    <line x1="0" x2="612" y1="744" y2="744" class="blue line"/>
    <line x1="0" x2="612" y1="762" y2="762" class="blue line"/>
    <line x1="0" x2="612" y1="780" y2="780" class="blue line"/>
  </g>
  <g id="margin-line">
    <line x1="63" x2="63" y1="0" y2="792" class="red margin line"/>
  </g>
  <rect x="211.5" y="766" width="189" height="12" stroke="#b3b3ff" stroke-width="0.24" fill="#ffffff" rx="2pt" ry="2pt"/>
  <text x="306" y="774" text-anchor="middle" fill="#b3b3ff" stroke="none" stroke-width="0" style="font-family: &quot;Courier&quot;, &quot;Courier New&quot;, monospace; font-size: 6pt;">https://github.com/dse/printable-paper</text>
</svg>
