<?xml version="1.0" encoding="UTF-8"?>
<svg xmlns="http://www.w3.org/2000/svg" width="595.276pt" height="841.89pt" viewBox="0 0 595.276 841.89">
  <defs/>
  <style>        .line, .dot { stroke-linecap: round; }
        .stroke-linecap-butt { stroke-linecap: butt; }

        .line            { stroke-width: 0.72pt; }
        .line.xx-thin    { stroke-width: 0.24pt; }
        .line.x-thin     { stroke-width: 0.36pt; }
        .line.thin       { stroke-width: 0.48pt; }
        .line.thick      { stroke-width: 1.08pt; }
        .line.semi-thin  { stroke-width: 0.588pt; }
        .line.semi-thick { stroke-width: 0.882pt; }

        .dot             { stroke-width: 1.44pt; }
        .dot.thin        { stroke-width: 0.96pt; }
        .dot.thick       { stroke-width: 2.16pt; }
        .dot.semi-thin   { stroke-width: 1.176pt; }
        .dot.semi-thick  { stroke-width: 1.764pt; }

        .stroke-1     { stroke-width: 0.12pt; stroke-linecap: round; } /* 1/600 in */
        .stroke-2     { stroke-width: 0.24pt; stroke-linecap: round; }
        .stroke-3     { stroke-width: 0.36pt; stroke-linecap: round; }
        .stroke-4     { stroke-width: 0.48pt; stroke-linecap: round; }
        .stroke-5     { stroke-width: 0.60pt; stroke-linecap: round; }
        .stroke-6     { stroke-width: 0.72pt; stroke-linecap: round; }
        .stroke-7     { stroke-width: 0.84pt; stroke-linecap: round; }
        .stroke-8     { stroke-width: 0.96pt; stroke-linecap: round; }
        .stroke-9     { stroke-width: 1.08pt; stroke-linecap: round; }
        .stroke-10    { stroke-width: 1.20pt; stroke-linecap: round; }

        .blue  { stroke: #b3b3ff; }
        .red   { stroke: #ff9999; }
        .green { stroke: #b3ffb3; }
        .gray  { stroke: #b3b3b3; }

        .light.blue  { stroke: #d9d9ff; }
        .light.red   { stroke: #ffcccc; }
        .light.green { stroke: #d9ffd9; }
        .light.gray  { stroke: #d9d9d9; }

        .dark.blue  { stroke: #6767ff; }
        .dark.red   { stroke: #ff3333; }
        .dark.green { stroke: #67ff67; }
        .dark.gray  { stroke: #676767; }

        .alternate-blue  { stroke: #6767ff; opacity: 0.5; }
        .alternate-red   { stroke: #ff3333; opacity: 0.5; }
        .alternate-green { stroke: #67ff67; opacity: 0.5; }
        .alternate-gray  { stroke: #676767; opacity: 0.5; }
</style>
  <defs>
    <pattern x="-18" y="-1.4172047244076" width="631.276" height="5.66929133858267" id="grid-pattern-1-horizontal-lines" patternUnits="userSpaceOnUse" viewBox="0 0 631.276 5.669">
      <line x1="18" x2="613.276" y1="2.835" y2="2.835" class="xx-thin blue line"/>
    </pattern>
    <pattern x="-2.83464566929122" y="-18" width="5.66929133858267" height="877.89" id="grid-pattern-2-vertical-lines" patternUnits="userSpaceOnUse" viewBox="0 0 5.669 877.890">
      <line x1="2.835" x2="2.835" y1="18" y2="859.89" class="xx-thin blue line"/>
    </pattern>
  </defs>
  <g id="grid">
    <rect x="-18" y="-1.4172047244076" width="631.276" height="844.724409448815" fill="url(#grid-pattern-1-horizontal-lines)"/>
    <rect x="-2.83464566929122" y="-18" width="600.944881889761" height="877.89" fill="url(#grid-pattern-2-vertical-lines)"/>
  </g>
  <g id="lines">
    <line x1="0" x2="595.276" y1="1.417" y2="1.417" class="blue line"/>
    <line x1="0" x2="595.276" y1="18.425" y2="18.425" class="blue line"/>
    <line x1="0" x2="595.276" y1="35.433" y2="35.433" class="blue line"/>
    <line x1="0" x2="595.276" y1="52.441" y2="52.441" class="blue line"/>
    <line x1="0" x2="595.276" y1="69.449" y2="69.449" class="blue line"/>
    <line x1="0" x2="595.276" y1="86.457" y2="86.457" class="blue line"/>
    <line x1="0" x2="595.276" y1="103.465" y2="103.465" class="blue line"/>
    <line x1="0" x2="595.276" y1="120.473" y2="120.473" class="blue line"/>
    <line x1="0" x2="595.276" y1="137.48" y2="137.48" class="blue line"/>
    <line x1="0" x2="595.276" y1="154.488" y2="154.488" class="blue line"/>
    <line x1="0" x2="595.276" y1="171.496" y2="171.496" class="blue line"/>
    <line x1="0" x2="595.276" y1="188.504" y2="188.504" class="blue line"/>
    <line x1="0" x2="595.276" y1="205.512" y2="205.512" class="blue line"/>
    <line x1="0" x2="595.276" y1="222.52" y2="222.52" class="blue line"/>
    <line x1="0" x2="595.276" y1="239.528" y2="239.528" class="blue line"/>
    <line x1="0" x2="595.276" y1="256.536" y2="256.536" class="blue line"/>
    <line x1="0" x2="595.276" y1="273.543" y2="273.543" class="blue line"/>
    <line x1="0" x2="595.276" y1="290.551" y2="290.551" class="blue line"/>
    <line x1="0" x2="595.276" y1="307.559" y2="307.559" class="blue line"/>
    <line x1="0" x2="595.276" y1="324.567" y2="324.567" class="blue line"/>
    <line x1="0" x2="595.276" y1="341.575" y2="341.575" class="blue line"/>
    <line x1="0" x2="595.276" y1="358.583" y2="358.583" class="blue line"/>
    <line x1="0" x2="595.276" y1="375.591" y2="375.591" class="blue line"/>
    <line x1="0" x2="595.276" y1="392.599" y2="392.599" class="blue line"/>
    <line x1="0" x2="595.276" y1="409.606" y2="409.606" class="blue line"/>
    <line x1="0" x2="595.276" y1="426.614" y2="426.614" class="blue line"/>
    <line x1="0" x2="595.276" y1="443.622" y2="443.622" class="blue line"/>
    <line x1="0" x2="595.276" y1="460.63" y2="460.63" class="blue line"/>
    <line x1="0" x2="595.276" y1="477.638" y2="477.638" class="blue line"/>
    <line x1="0" x2="595.276" y1="494.646" y2="494.646" class="blue line"/>
    <line x1="0" x2="595.276" y1="511.654" y2="511.654" class="blue line"/>
    <line x1="0" x2="595.276" y1="528.662" y2="528.662" class="blue line"/>
    <line x1="0" x2="595.276" y1="545.669" y2="545.669" class="blue line"/>
    <line x1="0" x2="595.276" y1="562.677" y2="562.677" class="blue line"/>
    <line x1="0" x2="595.276" y1="579.685" y2="579.685" class="blue line"/>
    <line x1="0" x2="595.276" y1="596.693" y2="596.693" class="blue line"/>
    <line x1="0" x2="595.276" y1="613.701" y2="613.701" class="blue line"/>
    <line x1="0" x2="595.276" y1="630.709" y2="630.709" class="blue line"/>
    <line x1="0" x2="595.276" y1="647.717" y2="647.717" class="blue line"/>
    <line x1="0" x2="595.276" y1="664.725" y2="664.725" class="blue line"/>
    <line x1="0" x2="595.276" y1="681.732" y2="681.732" class="blue line"/>
    <line x1="0" x2="595.276" y1="698.74" y2="698.74" class="blue line"/>
    <line x1="0" x2="595.276" y1="715.748" y2="715.748" class="blue line"/>
    <line x1="0" x2="595.276" y1="732.756" y2="732.756" class="blue line"/>
    <line x1="0" x2="595.276" y1="749.764" y2="749.764" class="blue line"/>
    <line x1="0" x2="595.276" y1="766.772" y2="766.772" class="blue line"/>
    <line x1="0" x2="595.276" y1="783.78" y2="783.78" class="blue line"/>
    <line x1="0" x2="595.276" y1="800.788" y2="800.788" class="blue line"/>
    <line x1="0" x2="595.276" y1="817.795" y2="817.795" class="blue line"/>
    <line x1="0" x2="595.276" y1="834.803" y2="834.803" class="blue line"/>
  </g>
  <g id="margin-line">
    <line x1="62.362" x2="62.362" y1="0" y2="841.89" class="red margin line"/>
  </g>
</svg>
