<?xml version="1.0" encoding="UTF-8"?>
<svg xmlns="http://www.w3.org/2000/svg" width="396pt" height="612pt" viewBox="0 0 396 612">
  <defs/>
  <style>        .line, .dot { stroke-linecap: round; }
        .stroke-linecap-butt { stroke-linecap: butt; }

        .rectangle { fill: #ffffff; }

        .line.xx-thin    { stroke-width: 0.24pt; }
        .line.x-thin     { stroke-width: 0.36pt; }
        .line.thin       { stroke-width: 0.48pt; }
        .line.semi-thin  { stroke-width: 0.588pt; }
        .line            { stroke-width: 0.72pt; }
        .line.semi-thick { stroke-width: 0.882pt; }
        .line.thick      { stroke-width: 1.08pt; }

        .dot.xx-thin     { stroke-width: 0.48pt; }
        .dot.x-thin      { stroke-width: 0.72pt; }
        .dot.thin        { stroke-width: 0.96pt; }
        .dot.semi-thin   { stroke-width: 1.176pt; }
        .dot             { stroke-width: 1.44pt; }
        .dot.semi-thick  { stroke-width: 1.764pt; }
        .dot.thick       { stroke-width: 2.16pt; }

        .stroke-1     { stroke-width: 0.12pt; stroke-linecap: round; }
        .stroke-2     { stroke-width: 0.24pt; stroke-linecap: round; }
        .stroke-3     { stroke-width: 0.36pt; stroke-linecap: round; }
        .stroke-4     { stroke-width: 0.48pt; stroke-linecap: round; }
        .stroke-5     { stroke-width: 0.6pt; stroke-linecap: round; }
        .stroke-6     { stroke-width: 0.72pt; stroke-linecap: round; }
        .stroke-7     { stroke-width: 0.84pt; stroke-linecap: round; }
        .stroke-8     { stroke-width: 0.96pt; stroke-linecap: round; }
        .stroke-9     { stroke-width: 1.08pt; stroke-linecap: round; }
        .stroke-10    { stroke-width: 1.2pt; stroke-linecap: round; }

        .blue  { stroke: #b3b3ff; }
        .red   { stroke: #ff9999; }
        .green { stroke: #b3ffb3; }
        .gray  { stroke: #b3b3b3; }

        .black         { stroke: #000000; }
        .half-black    { stroke: #808080; }
        .quarter-black { stroke: #c0c0c0; }

        .light.blue  { stroke: #d9d9ff; }
        .light.red   { stroke: #ffcccc; }
        .light.green { stroke: #d9ffd9; }
        .light.gray  { stroke: #d9d9d9; }

        .dark.blue  { stroke: #6767ff; }
        .dark.red   { stroke: #ff3333; }
        .dark.green { stroke: #67ff67; }
        .dark.gray  { stroke: #676767; }

        .alternate-blue  { stroke: #6767ff; opacity: 0.5; }
        .alternate-red   { stroke: #ff3333; opacity: 0.5; }
        .alternate-green { stroke: #67ff67; opacity: 0.5; }
        .alternate-gray  { stroke: #676767; opacity: 0.5; }
</style>
  <g id="grid">
    <line x1="0" x2="396" y1="0" y2="0" class="stroke-1 quarter-black line"/>
    <line x1="0" x2="396" y1="9" y2="9" class="stroke-1 quarter-black line"/>
    <line x1="0" x2="396" y1="18" y2="18" class="stroke-1 quarter-black line"/>
    <line x1="0" x2="396" y1="27" y2="27" class="stroke-1 quarter-black line"/>
    <line x1="0" x2="396" y1="36" y2="36" class="stroke-1 quarter-black line"/>
    <line x1="0" x2="396" y1="45" y2="45" class="stroke-1 quarter-black line"/>
    <line x1="0" x2="396" y1="54" y2="54" class="stroke-1 quarter-black line"/>
    <line x1="0" x2="396" y1="63" y2="63" class="stroke-1 quarter-black line"/>
    <line x1="0" x2="396" y1="72" y2="72" class="stroke-1 quarter-black line"/>
    <line x1="0" x2="396" y1="81" y2="81" class="stroke-1 quarter-black line"/>
    <line x1="0" x2="396" y1="90" y2="90" class="stroke-1 quarter-black line"/>
    <line x1="0" x2="396" y1="99" y2="99" class="stroke-1 quarter-black line"/>
    <line x1="0" x2="396" y1="108" y2="108" class="stroke-1 quarter-black line"/>
    <line x1="0" x2="396" y1="117" y2="117" class="stroke-1 quarter-black line"/>
    <line x1="0" x2="396" y1="126" y2="126" class="stroke-1 quarter-black line"/>
    <line x1="0" x2="396" y1="135" y2="135" class="stroke-1 quarter-black line"/>
    <line x1="0" x2="396" y1="144" y2="144" class="stroke-1 quarter-black line"/>
    <line x1="0" x2="396" y1="153" y2="153" class="stroke-1 quarter-black line"/>
    <line x1="0" x2="396" y1="162" y2="162" class="stroke-1 quarter-black line"/>
    <line x1="0" x2="396" y1="171" y2="171" class="stroke-1 quarter-black line"/>
    <line x1="0" x2="396" y1="180" y2="180" class="stroke-1 quarter-black line"/>
    <line x1="0" x2="396" y1="189" y2="189" class="stroke-1 quarter-black line"/>
    <line x1="0" x2="396" y1="198" y2="198" class="stroke-1 quarter-black line"/>
    <line x1="0" x2="396" y1="207" y2="207" class="stroke-1 quarter-black line"/>
    <line x1="0" x2="396" y1="216" y2="216" class="stroke-1 quarter-black line"/>
    <line x1="0" x2="396" y1="225" y2="225" class="stroke-1 quarter-black line"/>
    <line x1="0" x2="396" y1="234" y2="234" class="stroke-1 quarter-black line"/>
    <line x1="0" x2="396" y1="243" y2="243" class="stroke-1 quarter-black line"/>
    <line x1="0" x2="396" y1="252" y2="252" class="stroke-1 quarter-black line"/>
    <line x1="0" x2="396" y1="261" y2="261" class="stroke-1 quarter-black line"/>
    <line x1="0" x2="396" y1="270" y2="270" class="stroke-1 quarter-black line"/>
    <line x1="0" x2="396" y1="279" y2="279" class="stroke-1 quarter-black line"/>
    <line x1="0" x2="396" y1="288" y2="288" class="stroke-1 quarter-black line"/>
    <line x1="0" x2="396" y1="297" y2="297" class="stroke-1 quarter-black line"/>
    <line x1="0" x2="396" y1="306" y2="306" class="stroke-1 quarter-black line"/>
    <line x1="0" x2="396" y1="315" y2="315" class="stroke-1 quarter-black line"/>
    <line x1="0" x2="396" y1="324" y2="324" class="stroke-1 quarter-black line"/>
    <line x1="0" x2="396" y1="333" y2="333" class="stroke-1 quarter-black line"/>
    <line x1="0" x2="396" y1="342" y2="342" class="stroke-1 quarter-black line"/>
    <line x1="0" x2="396" y1="351" y2="351" class="stroke-1 quarter-black line"/>
    <line x1="0" x2="396" y1="360" y2="360" class="stroke-1 quarter-black line"/>
    <line x1="0" x2="396" y1="369" y2="369" class="stroke-1 quarter-black line"/>
    <line x1="0" x2="396" y1="378" y2="378" class="stroke-1 quarter-black line"/>
    <line x1="0" x2="396" y1="387" y2="387" class="stroke-1 quarter-black line"/>
    <line x1="0" x2="396" y1="396" y2="396" class="stroke-1 quarter-black line"/>
    <line x1="0" x2="396" y1="405" y2="405" class="stroke-1 quarter-black line"/>
    <line x1="0" x2="396" y1="414" y2="414" class="stroke-1 quarter-black line"/>
    <line x1="0" x2="396" y1="423" y2="423" class="stroke-1 quarter-black line"/>
    <line x1="0" x2="396" y1="432" y2="432" class="stroke-1 quarter-black line"/>
    <line x1="0" x2="396" y1="441" y2="441" class="stroke-1 quarter-black line"/>
    <line x1="0" x2="396" y1="450" y2="450" class="stroke-1 quarter-black line"/>
    <line x1="0" x2="396" y1="459" y2="459" class="stroke-1 quarter-black line"/>
    <line x1="0" x2="396" y1="468" y2="468" class="stroke-1 quarter-black line"/>
    <line x1="0" x2="396" y1="477" y2="477" class="stroke-1 quarter-black line"/>
    <line x1="0" x2="396" y1="486" y2="486" class="stroke-1 quarter-black line"/>
    <line x1="0" x2="396" y1="495" y2="495" class="stroke-1 quarter-black line"/>
    <line x1="0" x2="396" y1="504" y2="504" class="stroke-1 quarter-black line"/>
    <line x1="0" x2="396" y1="513" y2="513" class="stroke-1 quarter-black line"/>
    <line x1="0" x2="396" y1="522" y2="522" class="stroke-1 quarter-black line"/>
    <line x1="0" x2="396" y1="531" y2="531" class="stroke-1 quarter-black line"/>
    <line x1="0" x2="396" y1="540" y2="540" class="stroke-1 quarter-black line"/>
    <line x1="0" x2="396" y1="549" y2="549" class="stroke-1 quarter-black line"/>
    <line x1="0" x2="396" y1="558" y2="558" class="stroke-1 quarter-black line"/>
    <line x1="0" x2="396" y1="567" y2="567" class="stroke-1 quarter-black line"/>
    <line x1="0" x2="396" y1="576" y2="576" class="stroke-1 quarter-black line"/>
    <line x1="0" x2="396" y1="585" y2="585" class="stroke-1 quarter-black line"/>
    <line x1="0" x2="396" y1="594" y2="594" class="stroke-1 quarter-black line"/>
    <line x1="0" x2="396" y1="603" y2="603" class="stroke-1 quarter-black line"/>
    <line x1="0" x2="396" y1="612" y2="612" class="stroke-1 quarter-black line"/>
    <line x1="0" x2="0" y1="0" y2="612" class="stroke-1 quarter-black line"/>
    <line x1="9" x2="9" y1="0" y2="612" class="stroke-1 quarter-black line"/>
    <line x1="18" x2="18" y1="0" y2="612" class="stroke-1 quarter-black line"/>
    <line x1="27" x2="27" y1="0" y2="612" class="stroke-1 quarter-black line"/>
    <line x1="36" x2="36" y1="0" y2="612" class="stroke-1 quarter-black line"/>
    <line x1="45" x2="45" y1="0" y2="612" class="stroke-1 quarter-black line"/>
    <line x1="54" x2="54" y1="0" y2="612" class="stroke-1 quarter-black line"/>
    <line x1="63" x2="63" y1="0" y2="612" class="stroke-1 quarter-black line"/>
    <line x1="72" x2="72" y1="0" y2="612" class="stroke-1 quarter-black line"/>
    <line x1="81" x2="81" y1="0" y2="612" class="stroke-1 quarter-black line"/>
    <line x1="90" x2="90" y1="0" y2="612" class="stroke-1 quarter-black line"/>
    <line x1="99" x2="99" y1="0" y2="612" class="stroke-1 quarter-black line"/>
    <line x1="108" x2="108" y1="0" y2="612" class="stroke-1 quarter-black line"/>
    <line x1="117" x2="117" y1="0" y2="612" class="stroke-1 quarter-black line"/>
    <line x1="126" x2="126" y1="0" y2="612" class="stroke-1 quarter-black line"/>
    <line x1="135" x2="135" y1="0" y2="612" class="stroke-1 quarter-black line"/>
    <line x1="144" x2="144" y1="0" y2="612" class="stroke-1 quarter-black line"/>
    <line x1="153" x2="153" y1="0" y2="612" class="stroke-1 quarter-black line"/>
    <line x1="162" x2="162" y1="0" y2="612" class="stroke-1 quarter-black line"/>
    <line x1="171" x2="171" y1="0" y2="612" class="stroke-1 quarter-black line"/>
    <line x1="180" x2="180" y1="0" y2="612" class="stroke-1 quarter-black line"/>
    <line x1="189" x2="189" y1="0" y2="612" class="stroke-1 quarter-black line"/>
    <line x1="198" x2="198" y1="0" y2="612" class="stroke-1 quarter-black line"/>
    <line x1="207" x2="207" y1="0" y2="612" class="stroke-1 quarter-black line"/>
    <line x1="216" x2="216" y1="0" y2="612" class="stroke-1 quarter-black line"/>
    <line x1="225" x2="225" y1="0" y2="612" class="stroke-1 quarter-black line"/>
    <line x1="234" x2="234" y1="0" y2="612" class="stroke-1 quarter-black line"/>
    <line x1="243" x2="243" y1="0" y2="612" class="stroke-1 quarter-black line"/>
    <line x1="252" x2="252" y1="0" y2="612" class="stroke-1 quarter-black line"/>
    <line x1="261" x2="261" y1="0" y2="612" class="stroke-1 quarter-black line"/>
    <line x1="270" x2="270" y1="0" y2="612" class="stroke-1 quarter-black line"/>
    <line x1="279" x2="279" y1="0" y2="612" class="stroke-1 quarter-black line"/>
    <line x1="288" x2="288" y1="0" y2="612" class="stroke-1 quarter-black line"/>
    <line x1="297" x2="297" y1="0" y2="612" class="stroke-1 quarter-black line"/>
    <line x1="306" x2="306" y1="0" y2="612" class="stroke-1 quarter-black line"/>
    <line x1="315" x2="315" y1="0" y2="612" class="stroke-1 quarter-black line"/>
    <line x1="324" x2="324" y1="0" y2="612" class="stroke-1 quarter-black line"/>
    <line x1="333" x2="333" y1="0" y2="612" class="stroke-1 quarter-black line"/>
    <line x1="342" x2="342" y1="0" y2="612" class="stroke-1 quarter-black line"/>
    <line x1="351" x2="351" y1="0" y2="612" class="stroke-1 quarter-black line"/>
    <line x1="360" x2="360" y1="0" y2="612" class="stroke-1 quarter-black line"/>
    <line x1="369" x2="369" y1="0" y2="612" class="stroke-1 quarter-black line"/>
    <line x1="378" x2="378" y1="0" y2="612" class="stroke-1 quarter-black line"/>
    <line x1="387" x2="387" y1="0" y2="612" class="stroke-1 quarter-black line"/>
    <line x1="396" x2="396" y1="0" y2="612" class="stroke-1 quarter-black line"/>
  </g>
  <g id="lines">
    <line x1="0" x2="396" y1="9" y2="9" class="stroke-3 black line"/>
    <line x1="0" x2="396" y1="36" y2="36" class="stroke-3 black line"/>
    <line x1="0" x2="396" y1="63" y2="63" class="stroke-3 black line"/>
    <line x1="0" x2="396" y1="90" y2="90" class="stroke-3 black line"/>
    <line x1="0" x2="396" y1="117" y2="117" class="stroke-3 black line"/>
    <line x1="0" x2="396" y1="144" y2="144" class="stroke-3 black line"/>
    <line x1="0" x2="396" y1="171" y2="171" class="stroke-3 black line"/>
    <line x1="0" x2="396" y1="198" y2="198" class="stroke-3 black line"/>
    <line x1="0" x2="396" y1="225" y2="225" class="stroke-3 black line"/>
    <line x1="0" x2="396" y1="252" y2="252" class="stroke-3 black line"/>
    <line x1="0" x2="396" y1="279" y2="279" class="stroke-3 black line"/>
    <line x1="0" x2="396" y1="306" y2="306" class="stroke-3 black line"/>
    <line x1="0" x2="396" y1="333" y2="333" class="stroke-3 black line"/>
    <line x1="0" x2="396" y1="360" y2="360" class="stroke-3 black line"/>
    <line x1="0" x2="396" y1="387" y2="387" class="stroke-3 black line"/>
    <line x1="0" x2="396" y1="414" y2="414" class="stroke-3 black line"/>
    <line x1="0" x2="396" y1="441" y2="441" class="stroke-3 black line"/>
    <line x1="0" x2="396" y1="468" y2="468" class="stroke-3 black line"/>
    <line x1="0" x2="396" y1="495" y2="495" class="stroke-3 black line"/>
    <line x1="0" x2="396" y1="522" y2="522" class="stroke-3 black line"/>
    <line x1="0" x2="396" y1="549" y2="549" class="stroke-3 black line"/>
    <line x1="0" x2="396" y1="576" y2="576" class="stroke-3 black line"/>
    <line x1="0" x2="396" y1="603" y2="603" class="stroke-3 black line"/>
  </g>
  <g id="margin-line">
    <line x1="63" x2="63" y1="0" y2="612" class="stroke-3 black line"/>
  </g>
  <rect x="103.5" y="586" width="189" height="12" stroke="#808080" stroke-width="0.24" fill="#ffffff" rx="2pt" ry="2pt"/>
  <text x="198" y="594" text-anchor="middle" fill="#808080" stroke="none" stroke-width="0" style="font-family: &quot;Courier&quot;, &quot;Courier New&quot;, monospace; font-size: 6pt;">https://github.com/dse/printable-paper</text>
</svg>
