<?xml version="1.0" encoding="UTF-8"?>
<svg xmlns="http://www.w3.org/2000/svg" width="419.528pt" height="595.276pt" viewBox="0 0 419.528 595.276">
  <defs/>
  <style>        .line, .dot { stroke-linecap: round; }
        .stroke-linecap-butt { stroke-linecap: butt; }

        .line            { stroke-width: 0.72pt; }
        .line.xx-thin    { stroke-width: 0.24pt; }
        .line.x-thin     { stroke-width: 0.36pt; }
        .line.thin       { stroke-width: 0.48pt; }
        .line.thick      { stroke-width: 1.08pt; }
        .line.semi-thin  { stroke-width: 0.588pt; }
        .line.semi-thick { stroke-width: 0.882pt; }

        .dot             { stroke-width: 1.44pt; }
        .dot.thin        { stroke-width: 0.96pt; }
        .dot.thick       { stroke-width: 2.16pt; }
        .dot.semi-thin   { stroke-width: 1.176pt; }
        .dot.semi-thick  { stroke-width: 1.764pt; }

        .stroke-1     { stroke-width: 0.12pt; stroke-linecap: round; } /* 1/600 in */
        .stroke-2     { stroke-width: 0.24pt; stroke-linecap: round; }
        .stroke-3     { stroke-width: 0.36pt; stroke-linecap: round; }
        .stroke-4     { stroke-width: 0.48pt; stroke-linecap: round; }
        .stroke-5     { stroke-width: 0.60pt; stroke-linecap: round; }
        .stroke-6     { stroke-width: 0.72pt; stroke-linecap: round; }
        .stroke-7     { stroke-width: 0.84pt; stroke-linecap: round; }
        .stroke-8     { stroke-width: 0.96pt; stroke-linecap: round; }
        .stroke-9     { stroke-width: 1.08pt; stroke-linecap: round; }
        .stroke-10    { stroke-width: 1.20pt; stroke-linecap: round; }

        .blue  { stroke: #b3b3ff; }
        .red   { stroke: #ff9999; }
        .green { stroke: #b3ffb3; }
        .gray  { stroke: #b3b3b3; }
        .black         { stroke: #000000; }
        .half-black    { stroke: #808080; }
        .quarter-black { stroke: #c0c0c0; }
        .light.blue  { stroke: #d9d9ff; }
        .light.red   { stroke: #ffcccc; }
        .light.green { stroke: #d9ffd9; }
        .light.gray  { stroke: #d9d9d9; }

        .dark.blue  { stroke: #6767ff; }
        .dark.red   { stroke: #ff3333; }
        .dark.green { stroke: #67ff67; }
        .dark.gray  { stroke: #676767; }

        .alternate-blue  { stroke: #6767ff; opacity: 0.5; }
        .alternate-red   { stroke: #ff3333; opacity: 0.5; }
        .alternate-green { stroke: #67ff67; opacity: 0.5; }
        .alternate-gray  { stroke: #676767; opacity: 0.5; }
</style>
  <defs>
    <pattern x="-18" y="0.000204724410551194" width="455.528" height="5.66929133858267" id="grid-pattern-1-horizontal-lines" patternUnits="userSpaceOnUse" viewBox="0 0 455.528 5.669">
      <line x1="18" x2="437.528" y1="2.835" y2="2.835" class="stroke-1 quarter-black line"/>
    </pattern>
    <pattern x="-2.83464566929122" y="-18" width="5.66929133858267" height="631.276" id="grid-pattern-2-vertical-lines" patternUnits="userSpaceOnUse" viewBox="0 0 5.669 631.276">
      <line x1="2.835" x2="2.835" y1="18" y2="613.276" class="stroke-1 quarter-black line"/>
    </pattern>
  </defs>
  <g id="grid">
    <rect x="-18" y="0.000204724410551194" width="455.528" height="595.275590551178" fill="url(#grid-pattern-1-horizontal-lines)"/>
    <rect x="-2.83464566929122" y="-18" width="425.196850393699" height="631.276" fill="url(#grid-pattern-2-vertical-lines)"/>
  </g>
  <g id="lines">
    <line x1="0" x2="419.528" y1="14.173" y2="14.173" class="stroke-3 black line"/>
    <line x1="0" x2="419.528" y1="31.181" y2="31.181" class="stroke-3 black line"/>
    <line x1="0" x2="419.528" y1="48.189" y2="48.189" class="stroke-3 black line"/>
    <line x1="0" x2="419.528" y1="65.197" y2="65.197" class="stroke-3 black line"/>
    <line x1="0" x2="419.528" y1="82.205" y2="82.205" class="stroke-3 black line"/>
    <line x1="0" x2="419.528" y1="99.213" y2="99.213" class="stroke-3 black line"/>
    <line x1="0" x2="419.528" y1="116.221" y2="116.221" class="stroke-3 black line"/>
    <line x1="0" x2="419.528" y1="133.229" y2="133.229" class="stroke-3 black line"/>
    <line x1="0" x2="419.528" y1="150.236" y2="150.236" class="stroke-3 black line"/>
    <line x1="0" x2="419.528" y1="167.244" y2="167.244" class="stroke-3 black line"/>
    <line x1="0" x2="419.528" y1="184.252" y2="184.252" class="stroke-3 black line"/>
    <line x1="0" x2="419.528" y1="201.26" y2="201.26" class="stroke-3 black line"/>
    <line x1="0" x2="419.528" y1="218.268" y2="218.268" class="stroke-3 black line"/>
    <line x1="0" x2="419.528" y1="235.276" y2="235.276" class="stroke-3 black line"/>
    <line x1="0" x2="419.528" y1="252.284" y2="252.284" class="stroke-3 black line"/>
    <line x1="0" x2="419.528" y1="269.292" y2="269.292" class="stroke-3 black line"/>
    <line x1="0" x2="419.528" y1="286.299" y2="286.299" class="stroke-3 black line"/>
    <line x1="0" x2="419.528" y1="303.307" y2="303.307" class="stroke-3 black line"/>
    <line x1="0" x2="419.528" y1="320.315" y2="320.315" class="stroke-3 black line"/>
    <line x1="0" x2="419.528" y1="337.323" y2="337.323" class="stroke-3 black line"/>
    <line x1="0" x2="419.528" y1="354.331" y2="354.331" class="stroke-3 black line"/>
    <line x1="0" x2="419.528" y1="371.339" y2="371.339" class="stroke-3 black line"/>
    <line x1="0" x2="419.528" y1="388.347" y2="388.347" class="stroke-3 black line"/>
    <line x1="0" x2="419.528" y1="405.355" y2="405.355" class="stroke-3 black line"/>
    <line x1="0" x2="419.528" y1="422.362" y2="422.362" class="stroke-3 black line"/>
    <line x1="0" x2="419.528" y1="439.37" y2="439.37" class="stroke-3 black line"/>
    <line x1="0" x2="419.528" y1="456.378" y2="456.378" class="stroke-3 black line"/>
    <line x1="0" x2="419.528" y1="473.386" y2="473.386" class="stroke-3 black line"/>
    <line x1="0" x2="419.528" y1="490.394" y2="490.394" class="stroke-3 black line"/>
    <line x1="0" x2="419.528" y1="507.402" y2="507.402" class="stroke-3 black line"/>
    <line x1="0" x2="419.528" y1="524.41" y2="524.41" class="stroke-3 black line"/>
    <line x1="0" x2="419.528" y1="541.418" y2="541.418" class="stroke-3 black line"/>
    <line x1="0" x2="419.528" y1="558.425" y2="558.425" class="stroke-3 black line"/>
    <line x1="0" x2="419.528" y1="575.433" y2="575.433" class="stroke-3 black line"/>
    <line x1="0" x2="419.528" y1="592.441" y2="592.441" class="stroke-3 black line"/>
  </g>
  <g id="margin-line">
    <line x1="62.362" x2="62.362" y1="0" y2="595.276" class="stroke-3 black line"/>
  </g>
</svg>
