<?xml version="1.0" encoding="UTF-8"?>
<svg xmlns="http://www.w3.org/2000/svg" width="306.000pt" height="396.000pt" viewBox="0.000 0.000 306.000 396.000">
  <style>
        .line, .dot, .major-line, .feint-line, .margin-line { stroke-linecap: round; }
        .stroke-linecap-butt   { stroke-linecap: butt; }
        .stroke-linecap-round  { stroke-linecap: round; }
        .stroke-linecap-square { stroke-linecap: square; }
        .rectangle { fill: #ffffff; }


        .line        { stroke-width: 0.24px; opacity:  1; }
        .major-line  { stroke-width: 0.339411254969543px; opacity: 1; }
        .feint-line  { stroke-width: 0.169705627484771px; opacity:  1; }
        .dot         { stroke-width: 0.96px; opacity:  1; }
        .margin-line { stroke-width: 0.24px; opacity:  1; }
        .line        { stroke: #000000; }
        .major-line  { stroke: #000000; }
        .feint-line  { stroke: #000000; }
        .dot         { stroke: #000000; }
        .margin-line { stroke: #000000; }
  </style>
  <defs/>
  <g id="grid">
    <line x1="0.000" x2="306.000" y1="10.800" y2="10.800" class="line horizontal"/>
    <line x1="0.000" x2="306.000" y1="25.200" y2="25.200" class="line horizontal"/>
    <line x1="0.000" x2="306.000" y1="39.600" y2="39.600" class="line horizontal"/>
    <line x1="0.000" x2="306.000" y1="54.000" y2="54.000" class="line horizontal"/>
    <line x1="0.000" x2="306.000" y1="68.400" y2="68.400" class="line horizontal"/>
    <line x1="0.000" x2="306.000" y1="82.800" y2="82.800" class="line horizontal"/>
    <line x1="0.000" x2="306.000" y1="97.200" y2="97.200" class="line horizontal"/>
    <line x1="0.000" x2="306.000" y1="111.600" y2="111.600" class="line horizontal"/>
    <line x1="0.000" x2="306.000" y1="126.000" y2="126.000" class="line horizontal"/>
    <line x1="0.000" x2="306.000" y1="140.400" y2="140.400" class="line horizontal"/>
    <line x1="0.000" x2="306.000" y1="154.800" y2="154.800" class="line horizontal"/>
    <line x1="0.000" x2="306.000" y1="169.200" y2="169.200" class="line horizontal"/>
    <line x1="0.000" x2="306.000" y1="183.600" y2="183.600" class="line horizontal"/>
    <line x1="0.000" x2="306.000" y1="198.000" y2="198.000" class="line horizontal"/>
    <line x1="0.000" x2="306.000" y1="212.400" y2="212.400" class="line horizontal"/>
    <line x1="0.000" x2="306.000" y1="226.800" y2="226.800" class="line horizontal"/>
    <line x1="0.000" x2="306.000" y1="241.200" y2="241.200" class="line horizontal"/>
    <line x1="0.000" x2="306.000" y1="255.600" y2="255.600" class="line horizontal"/>
    <line x1="0.000" x2="306.000" y1="270.000" y2="270.000" class="line horizontal"/>
    <line x1="0.000" x2="306.000" y1="284.400" y2="284.400" class="line horizontal"/>
    <line x1="0.000" x2="306.000" y1="298.800" y2="298.800" class="line horizontal"/>
    <line x1="0.000" x2="306.000" y1="313.200" y2="313.200" class="line horizontal"/>
    <line x1="0.000" x2="306.000" y1="327.600" y2="327.600" class="line horizontal"/>
    <line x1="0.000" x2="306.000" y1="342.000" y2="342.000" class="line horizontal"/>
    <line x1="0.000" x2="306.000" y1="356.400" y2="356.400" class="line horizontal"/>
    <line x1="0.000" x2="306.000" y1="370.800" y2="370.800" class="line horizontal"/>
    <line x1="0.000" x2="306.000" y1="385.200" y2="385.200" class="line horizontal"/>
    <line x1="9.000" x2="9.000" y1="0.000" y2="396.000" class="line vertical"/>
    <line x1="23.400" x2="23.400" y1="0.000" y2="396.000" class="line vertical"/>
    <line x1="37.800" x2="37.800" y1="0.000" y2="396.000" class="line vertical"/>
    <line x1="52.200" x2="52.200" y1="0.000" y2="396.000" class="line vertical"/>
    <line x1="66.600" x2="66.600" y1="0.000" y2="396.000" class="line vertical"/>
    <line x1="81.000" x2="81.000" y1="0.000" y2="396.000" class="line vertical"/>
    <line x1="95.400" x2="95.400" y1="0.000" y2="396.000" class="line vertical"/>
    <line x1="109.800" x2="109.800" y1="0.000" y2="396.000" class="line vertical"/>
    <line x1="124.200" x2="124.200" y1="0.000" y2="396.000" class="line vertical"/>
    <line x1="138.600" x2="138.600" y1="0.000" y2="396.000" class="line vertical"/>
    <line x1="153.000" x2="153.000" y1="0.000" y2="396.000" class="line vertical"/>
    <line x1="167.400" x2="167.400" y1="0.000" y2="396.000" class="line vertical"/>
    <line x1="181.800" x2="181.800" y1="0.000" y2="396.000" class="line vertical"/>
    <line x1="196.200" x2="196.200" y1="0.000" y2="396.000" class="line vertical"/>
    <line x1="210.600" x2="210.600" y1="0.000" y2="396.000" class="line vertical"/>
    <line x1="225.000" x2="225.000" y1="0.000" y2="396.000" class="line vertical"/>
    <line x1="239.400" x2="239.400" y1="0.000" y2="396.000" class="line vertical"/>
    <line x1="253.800" x2="253.800" y1="0.000" y2="396.000" class="line vertical"/>
    <line x1="268.200" x2="268.200" y1="0.000" y2="396.000" class="line vertical"/>
    <line x1="282.600" x2="282.600" y1="0.000" y2="396.000" class="line vertical"/>
    <line x1="297.000" x2="297.000" y1="0.000" y2="396.000" class="line vertical"/>
  </g>
  <rect x="58.5" y="370" width="189" height="12" fill="#ffffff" stroke="none" stroke-width="0px"/>
  <text x="153" y="378" text-anchor="middle" fill="#000000" stroke="none" stroke-width="0" style="font-family: &quot;Courier&quot;, &quot;Courier New&quot;, monospace; font-size: 6pt;">https://github.com/dse/printable-paper</text>
</svg>
