<?xml version="1.0" encoding="UTF-8"?>
<svg xmlns="http://www.w3.org/2000/svg" width="612.000pt" height="792.000pt" viewBox="0.000 0.000 612.000 792.000">
  <style>
        .regular-line, .dot, .major-line, .feint-line, .margin-line { stroke-linecap: round; stroke-linejoin: round; }
        .stroke-linecap-butt    { stroke-linecap:  butt;   }
        .stroke-linecap-round   { stroke-linecap:  round;  }
        .stroke-linecap-square  { stroke-linecap:  square; }
        .stroke-linejoin-butt   { stroke-linejoin: butt;   }
        .stroke-linejoin-round  { stroke-linejoin: round;  }
        .stroke-linejoin-square { stroke-linejoin: square; }
        .rectangle { fill: #ffffff; }


        .regular-line { stroke-width: 0.24px; opacity: 1; }
        .major-line   { stroke-width: 0.339411254969543px; opacity: 1;   }
        .feint-line   { stroke-width: 0.169705627484771px; opacity: 1;   }
        .regular-dot  { stroke-width: 0.96px; opacity: 1;  }
        .major-dot    { stroke-width: 1.92px; opacity: 1;    }
        .feint-dot    { stroke-width: 0.48px; opacity: 1;    }
        .margin-line  { stroke-width: 0.24px; opacity: 1;  }
        .regular-line { stroke: #000000; }
        .major-line   { stroke: #000000;   }
        .feint-line   { stroke: #000000;   }
        .regular-dot  { stroke: #000000; }
        .major-dot    { stroke: #000000;   }
        .feint-dot    { stroke: #000000;   }
        .margin-line  { stroke: #000000;  }
  </style>
  <defs/>
  <g id="grid">
    <line x1="0.000" x2="612.000" y1="7.200" y2="7.200" class="regular-line horizontal"/>
    <line x1="0.000" x2="612.000" y1="21.600" y2="21.600" class="regular-line horizontal"/>
    <line x1="0.000" x2="612.000" y1="36.000" y2="36.000" class="regular-line horizontal"/>
    <line x1="0.000" x2="612.000" y1="50.400" y2="50.400" class="regular-line horizontal"/>
    <line x1="0.000" x2="612.000" y1="64.800" y2="64.800" class="regular-line horizontal"/>
    <line x1="0.000" x2="612.000" y1="79.200" y2="79.200" class="regular-line horizontal"/>
    <line x1="0.000" x2="612.000" y1="93.600" y2="93.600" class="regular-line horizontal"/>
    <line x1="0.000" x2="612.000" y1="108.000" y2="108.000" class="regular-line horizontal"/>
    <line x1="0.000" x2="612.000" y1="122.400" y2="122.400" class="regular-line horizontal"/>
    <line x1="0.000" x2="612.000" y1="136.800" y2="136.800" class="regular-line horizontal"/>
    <line x1="0.000" x2="612.000" y1="151.200" y2="151.200" class="regular-line horizontal"/>
    <line x1="0.000" x2="612.000" y1="165.600" y2="165.600" class="regular-line horizontal"/>
    <line x1="0.000" x2="612.000" y1="180.000" y2="180.000" class="regular-line horizontal"/>
    <line x1="0.000" x2="612.000" y1="194.400" y2="194.400" class="regular-line horizontal"/>
    <line x1="0.000" x2="612.000" y1="208.800" y2="208.800" class="regular-line horizontal"/>
    <line x1="0.000" x2="612.000" y1="223.200" y2="223.200" class="regular-line horizontal"/>
    <line x1="0.000" x2="612.000" y1="237.600" y2="237.600" class="regular-line horizontal"/>
    <line x1="0.000" x2="612.000" y1="252.000" y2="252.000" class="regular-line horizontal"/>
    <line x1="0.000" x2="612.000" y1="266.400" y2="266.400" class="regular-line horizontal"/>
    <line x1="0.000" x2="612.000" y1="280.800" y2="280.800" class="regular-line horizontal"/>
    <line x1="0.000" x2="612.000" y1="295.200" y2="295.200" class="regular-line horizontal"/>
    <line x1="0.000" x2="612.000" y1="309.600" y2="309.600" class="regular-line horizontal"/>
    <line x1="0.000" x2="612.000" y1="324.000" y2="324.000" class="regular-line horizontal"/>
    <line x1="0.000" x2="612.000" y1="338.400" y2="338.400" class="regular-line horizontal"/>
    <line x1="0.000" x2="612.000" y1="352.800" y2="352.800" class="regular-line horizontal"/>
    <line x1="0.000" x2="612.000" y1="367.200" y2="367.200" class="regular-line horizontal"/>
    <line x1="0.000" x2="612.000" y1="381.600" y2="381.600" class="regular-line horizontal"/>
    <line x1="0.000" x2="612.000" y1="396.000" y2="396.000" class="regular-line horizontal"/>
    <line x1="0.000" x2="612.000" y1="410.400" y2="410.400" class="regular-line horizontal"/>
    <line x1="0.000" x2="612.000" y1="424.800" y2="424.800" class="regular-line horizontal"/>
    <line x1="0.000" x2="612.000" y1="439.200" y2="439.200" class="regular-line horizontal"/>
    <line x1="0.000" x2="612.000" y1="453.600" y2="453.600" class="regular-line horizontal"/>
    <line x1="0.000" x2="612.000" y1="468.000" y2="468.000" class="regular-line horizontal"/>
    <line x1="0.000" x2="612.000" y1="482.400" y2="482.400" class="regular-line horizontal"/>
    <line x1="0.000" x2="612.000" y1="496.800" y2="496.800" class="regular-line horizontal"/>
    <line x1="0.000" x2="612.000" y1="511.200" y2="511.200" class="regular-line horizontal"/>
    <line x1="0.000" x2="612.000" y1="525.600" y2="525.600" class="regular-line horizontal"/>
    <line x1="0.000" x2="612.000" y1="540.000" y2="540.000" class="regular-line horizontal"/>
    <line x1="0.000" x2="612.000" y1="554.400" y2="554.400" class="regular-line horizontal"/>
    <line x1="0.000" x2="612.000" y1="568.800" y2="568.800" class="regular-line horizontal"/>
    <line x1="0.000" x2="612.000" y1="583.200" y2="583.200" class="regular-line horizontal"/>
    <line x1="0.000" x2="612.000" y1="597.600" y2="597.600" class="regular-line horizontal"/>
    <line x1="0.000" x2="612.000" y1="612.000" y2="612.000" class="regular-line horizontal"/>
    <line x1="0.000" x2="612.000" y1="626.400" y2="626.400" class="regular-line horizontal"/>
    <line x1="0.000" x2="612.000" y1="640.800" y2="640.800" class="regular-line horizontal"/>
    <line x1="0.000" x2="612.000" y1="655.200" y2="655.200" class="regular-line horizontal"/>
    <line x1="0.000" x2="612.000" y1="669.600" y2="669.600" class="regular-line horizontal"/>
    <line x1="0.000" x2="612.000" y1="684.000" y2="684.000" class="regular-line horizontal"/>
    <line x1="0.000" x2="612.000" y1="698.400" y2="698.400" class="regular-line horizontal"/>
    <line x1="0.000" x2="612.000" y1="712.800" y2="712.800" class="regular-line horizontal"/>
    <line x1="0.000" x2="612.000" y1="727.200" y2="727.200" class="regular-line horizontal"/>
    <line x1="0.000" x2="612.000" y1="741.600" y2="741.600" class="regular-line horizontal"/>
    <line x1="0.000" x2="612.000" y1="756.000" y2="756.000" class="regular-line horizontal"/>
    <line x1="0.000" x2="612.000" y1="770.400" y2="770.400" class="regular-line horizontal"/>
    <line x1="0.000" x2="612.000" y1="784.800" y2="784.800" class="regular-line horizontal"/>
    <line x1="3.600" x2="3.600" y1="0.000" y2="792.000" class="regular-line vertical"/>
    <line x1="18.000" x2="18.000" y1="0.000" y2="792.000" class="regular-line vertical"/>
    <line x1="32.400" x2="32.400" y1="0.000" y2="792.000" class="regular-line vertical"/>
    <line x1="46.800" x2="46.800" y1="0.000" y2="792.000" class="regular-line vertical"/>
    <line x1="61.200" x2="61.200" y1="0.000" y2="792.000" class="regular-line vertical"/>
    <line x1="75.600" x2="75.600" y1="0.000" y2="792.000" class="regular-line vertical"/>
    <line x1="90.000" x2="90.000" y1="0.000" y2="792.000" class="regular-line vertical"/>
    <line x1="104.400" x2="104.400" y1="0.000" y2="792.000" class="regular-line vertical"/>
    <line x1="118.800" x2="118.800" y1="0.000" y2="792.000" class="regular-line vertical"/>
    <line x1="133.200" x2="133.200" y1="0.000" y2="792.000" class="regular-line vertical"/>
    <line x1="147.600" x2="147.600" y1="0.000" y2="792.000" class="regular-line vertical"/>
    <line x1="162.000" x2="162.000" y1="0.000" y2="792.000" class="regular-line vertical"/>
    <line x1="176.400" x2="176.400" y1="0.000" y2="792.000" class="regular-line vertical"/>
    <line x1="190.800" x2="190.800" y1="0.000" y2="792.000" class="regular-line vertical"/>
    <line x1="205.200" x2="205.200" y1="0.000" y2="792.000" class="regular-line vertical"/>
    <line x1="219.600" x2="219.600" y1="0.000" y2="792.000" class="regular-line vertical"/>
    <line x1="234.000" x2="234.000" y1="0.000" y2="792.000" class="regular-line vertical"/>
    <line x1="248.400" x2="248.400" y1="0.000" y2="792.000" class="regular-line vertical"/>
    <line x1="262.800" x2="262.800" y1="0.000" y2="792.000" class="regular-line vertical"/>
    <line x1="277.200" x2="277.200" y1="0.000" y2="792.000" class="regular-line vertical"/>
    <line x1="291.600" x2="291.600" y1="0.000" y2="792.000" class="regular-line vertical"/>
    <line x1="306.000" x2="306.000" y1="0.000" y2="792.000" class="regular-line vertical"/>
    <line x1="320.400" x2="320.400" y1="0.000" y2="792.000" class="regular-line vertical"/>
    <line x1="334.800" x2="334.800" y1="0.000" y2="792.000" class="regular-line vertical"/>
    <line x1="349.200" x2="349.200" y1="0.000" y2="792.000" class="regular-line vertical"/>
    <line x1="363.600" x2="363.600" y1="0.000" y2="792.000" class="regular-line vertical"/>
    <line x1="378.000" x2="378.000" y1="0.000" y2="792.000" class="regular-line vertical"/>
    <line x1="392.400" x2="392.400" y1="0.000" y2="792.000" class="regular-line vertical"/>
    <line x1="406.800" x2="406.800" y1="0.000" y2="792.000" class="regular-line vertical"/>
    <line x1="421.200" x2="421.200" y1="0.000" y2="792.000" class="regular-line vertical"/>
    <line x1="435.600" x2="435.600" y1="0.000" y2="792.000" class="regular-line vertical"/>
    <line x1="450.000" x2="450.000" y1="0.000" y2="792.000" class="regular-line vertical"/>
    <line x1="464.400" x2="464.400" y1="0.000" y2="792.000" class="regular-line vertical"/>
    <line x1="478.800" x2="478.800" y1="0.000" y2="792.000" class="regular-line vertical"/>
    <line x1="493.200" x2="493.200" y1="0.000" y2="792.000" class="regular-line vertical"/>
    <line x1="507.600" x2="507.600" y1="0.000" y2="792.000" class="regular-line vertical"/>
    <line x1="522.000" x2="522.000" y1="0.000" y2="792.000" class="regular-line vertical"/>
    <line x1="536.400" x2="536.400" y1="0.000" y2="792.000" class="regular-line vertical"/>
    <line x1="550.800" x2="550.800" y1="0.000" y2="792.000" class="regular-line vertical"/>
    <line x1="565.200" x2="565.200" y1="0.000" y2="792.000" class="regular-line vertical"/>
    <line x1="579.600" x2="579.600" y1="0.000" y2="792.000" class="regular-line vertical"/>
    <line x1="594.000" x2="594.000" y1="0.000" y2="792.000" class="regular-line vertical"/>
    <line x1="608.400" x2="608.400" y1="0.000" y2="792.000" class="regular-line vertical"/>
  </g>
  <rect x="211.5" y="766" width="189" height="12" fill="#ffffff" stroke="none" stroke-width="0px"/>
  <text x="306" y="774" text-anchor="middle" fill="#000000" stroke="none" stroke-width="0" style="font-family: &quot;Courier&quot;, &quot;Courier New&quot;, monospace; font-size: 6pt;">https://github.com/dse/printable-paper</text>
</svg>
