<?xml version="1.0" encoding="UTF-8"?>
<svg xmlns="http://www.w3.org/2000/svg" width="396.000pt" height="612.000pt" viewBox="0.000 0.000 396.000 612.000">
  <style>
        .line, .dot, .major-line, .feint-line, .margin-line { stroke-linecap: round; }
        .stroke-linecap-butt   { stroke-linecap: butt; }
        .stroke-linecap-round  { stroke-linecap: round; }
        .stroke-linecap-square { stroke-linecap: square; }
        .rectangle { fill: #ffffff; }


        .line        { stroke-width: 0.24px; opacity:  1; }
        .major-line  { stroke-width: 0.339411254969543px; opacity: 1; }
        .feint-line  { stroke-width: 0.169705627484771px; opacity:  1; }
        .dot         { stroke-width: 0.96px; opacity:  1; }
        .margin-line { stroke-width: 0.24px; opacity:  1; }
        .line        { stroke: #000000; }
        .major-line  { stroke: #000000; }
        .feint-line  { stroke: #000000; }
        .dot         { stroke: #000000; }
        .margin-line { stroke: #000000; }
  </style>
  <defs/>
  <g id="grid">
    <line x1="0.000" x2="396.000" y1="3.600" y2="3.600" class="line horizontal"/>
    <line x1="0.000" x2="396.000" y1="18.000" y2="18.000" class="line horizontal"/>
    <line x1="0.000" x2="396.000" y1="32.400" y2="32.400" class="line horizontal"/>
    <line x1="0.000" x2="396.000" y1="46.800" y2="46.800" class="line horizontal"/>
    <line x1="0.000" x2="396.000" y1="61.200" y2="61.200" class="line horizontal"/>
    <line x1="0.000" x2="396.000" y1="75.600" y2="75.600" class="line horizontal"/>
    <line x1="0.000" x2="396.000" y1="90.000" y2="90.000" class="line horizontal"/>
    <line x1="0.000" x2="396.000" y1="104.400" y2="104.400" class="line horizontal"/>
    <line x1="0.000" x2="396.000" y1="118.800" y2="118.800" class="line horizontal"/>
    <line x1="0.000" x2="396.000" y1="133.200" y2="133.200" class="line horizontal"/>
    <line x1="0.000" x2="396.000" y1="147.600" y2="147.600" class="line horizontal"/>
    <line x1="0.000" x2="396.000" y1="162.000" y2="162.000" class="line horizontal"/>
    <line x1="0.000" x2="396.000" y1="176.400" y2="176.400" class="line horizontal"/>
    <line x1="0.000" x2="396.000" y1="190.800" y2="190.800" class="line horizontal"/>
    <line x1="0.000" x2="396.000" y1="205.200" y2="205.200" class="line horizontal"/>
    <line x1="0.000" x2="396.000" y1="219.600" y2="219.600" class="line horizontal"/>
    <line x1="0.000" x2="396.000" y1="234.000" y2="234.000" class="line horizontal"/>
    <line x1="0.000" x2="396.000" y1="248.400" y2="248.400" class="line horizontal"/>
    <line x1="0.000" x2="396.000" y1="262.800" y2="262.800" class="line horizontal"/>
    <line x1="0.000" x2="396.000" y1="277.200" y2="277.200" class="line horizontal"/>
    <line x1="0.000" x2="396.000" y1="291.600" y2="291.600" class="line horizontal"/>
    <line x1="0.000" x2="396.000" y1="306.000" y2="306.000" class="line horizontal"/>
    <line x1="0.000" x2="396.000" y1="320.400" y2="320.400" class="line horizontal"/>
    <line x1="0.000" x2="396.000" y1="334.800" y2="334.800" class="line horizontal"/>
    <line x1="0.000" x2="396.000" y1="349.200" y2="349.200" class="line horizontal"/>
    <line x1="0.000" x2="396.000" y1="363.600" y2="363.600" class="line horizontal"/>
    <line x1="0.000" x2="396.000" y1="378.000" y2="378.000" class="line horizontal"/>
    <line x1="0.000" x2="396.000" y1="392.400" y2="392.400" class="line horizontal"/>
    <line x1="0.000" x2="396.000" y1="406.800" y2="406.800" class="line horizontal"/>
    <line x1="0.000" x2="396.000" y1="421.200" y2="421.200" class="line horizontal"/>
    <line x1="0.000" x2="396.000" y1="435.600" y2="435.600" class="line horizontal"/>
    <line x1="0.000" x2="396.000" y1="450.000" y2="450.000" class="line horizontal"/>
    <line x1="0.000" x2="396.000" y1="464.400" y2="464.400" class="line horizontal"/>
    <line x1="0.000" x2="396.000" y1="478.800" y2="478.800" class="line horizontal"/>
    <line x1="0.000" x2="396.000" y1="493.200" y2="493.200" class="line horizontal"/>
    <line x1="0.000" x2="396.000" y1="507.600" y2="507.600" class="line horizontal"/>
    <line x1="0.000" x2="396.000" y1="522.000" y2="522.000" class="line horizontal"/>
    <line x1="0.000" x2="396.000" y1="536.400" y2="536.400" class="line horizontal"/>
    <line x1="0.000" x2="396.000" y1="550.800" y2="550.800" class="line horizontal"/>
    <line x1="0.000" x2="396.000" y1="565.200" y2="565.200" class="line horizontal"/>
    <line x1="0.000" x2="396.000" y1="579.600" y2="579.600" class="line horizontal"/>
    <line x1="0.000" x2="396.000" y1="594.000" y2="594.000" class="line horizontal"/>
    <line x1="0.000" x2="396.000" y1="608.400" y2="608.400" class="line horizontal"/>
    <line x1="3.600" x2="3.600" y1="0.000" y2="612.000" class="line vertical"/>
    <line x1="18.000" x2="18.000" y1="0.000" y2="612.000" class="line vertical"/>
    <line x1="32.400" x2="32.400" y1="0.000" y2="612.000" class="line vertical"/>
    <line x1="46.800" x2="46.800" y1="0.000" y2="612.000" class="line vertical"/>
    <line x1="61.200" x2="61.200" y1="0.000" y2="612.000" class="line vertical"/>
    <line x1="75.600" x2="75.600" y1="0.000" y2="612.000" class="line vertical"/>
    <line x1="90.000" x2="90.000" y1="0.000" y2="612.000" class="line vertical"/>
    <line x1="104.400" x2="104.400" y1="0.000" y2="612.000" class="line vertical"/>
    <line x1="118.800" x2="118.800" y1="0.000" y2="612.000" class="line vertical"/>
    <line x1="133.200" x2="133.200" y1="0.000" y2="612.000" class="line vertical"/>
    <line x1="147.600" x2="147.600" y1="0.000" y2="612.000" class="line vertical"/>
    <line x1="162.000" x2="162.000" y1="0.000" y2="612.000" class="line vertical"/>
    <line x1="176.400" x2="176.400" y1="0.000" y2="612.000" class="line vertical"/>
    <line x1="190.800" x2="190.800" y1="0.000" y2="612.000" class="line vertical"/>
    <line x1="205.200" x2="205.200" y1="0.000" y2="612.000" class="line vertical"/>
    <line x1="219.600" x2="219.600" y1="0.000" y2="612.000" class="line vertical"/>
    <line x1="234.000" x2="234.000" y1="0.000" y2="612.000" class="line vertical"/>
    <line x1="248.400" x2="248.400" y1="0.000" y2="612.000" class="line vertical"/>
    <line x1="262.800" x2="262.800" y1="0.000" y2="612.000" class="line vertical"/>
    <line x1="277.200" x2="277.200" y1="0.000" y2="612.000" class="line vertical"/>
    <line x1="291.600" x2="291.600" y1="0.000" y2="612.000" class="line vertical"/>
    <line x1="306.000" x2="306.000" y1="0.000" y2="612.000" class="line vertical"/>
    <line x1="320.400" x2="320.400" y1="0.000" y2="612.000" class="line vertical"/>
    <line x1="334.800" x2="334.800" y1="0.000" y2="612.000" class="line vertical"/>
    <line x1="349.200" x2="349.200" y1="0.000" y2="612.000" class="line vertical"/>
    <line x1="363.600" x2="363.600" y1="0.000" y2="612.000" class="line vertical"/>
    <line x1="378.000" x2="378.000" y1="0.000" y2="612.000" class="line vertical"/>
    <line x1="392.400" x2="392.400" y1="0.000" y2="612.000" class="line vertical"/>
  </g>
  <rect x="103.5" y="586" width="189" height="12" fill="#ffffff" stroke="none" stroke-width="0px"/>
  <text x="198" y="594" text-anchor="middle" fill="#000000" stroke="none" stroke-width="0" style="font-family: &quot;Courier&quot;, &quot;Courier New&quot;, monospace; font-size: 6pt;">https://github.com/dse/printable-paper</text>
</svg>
