<?xml version="1.0" encoding="UTF-8"?>
<svg xmlns="http://www.w3.org/2000/svg" width="396pt" height="612pt" viewBox="0 0 396 612">
  <defs/>
  <style>        .line, .dot { stroke-linecap: round; }
        .stroke-linecap-butt { stroke-linecap: butt; }

        .rectangle { fill: #ffffff; }

        .line.xx-thin    { stroke-width: 0.32004px; }
        .line.x-thin     { stroke-width: 0.48px; }
        .line.thin       { stroke-width: 0.63996px; }
        .line.semi-thin  { stroke-width: 0.78384px; }
        .line            { stroke-width: 0.96px; }
        .line.semi-thick { stroke-width: 1.17576px; }
        .line.thick      { stroke-width: 1.44px; }

        .dot.xx-thin     { stroke-width: 0.64008px; }
        .dot.x-thin      { stroke-width: 0.96px; }
        .dot.thin        { stroke-width: 1.27992px; }
        .dot.semi-thin   { stroke-width: 1.56768px; }
        .dot             { stroke-width: 1.92px; }
        .dot.semi-thick  { stroke-width: 2.35152px; }
        .dot.thick       { stroke-width: 2.88px; }

        .stroke-1     { stroke-width: 0.12px; stroke-linecap: round; }
        .stroke-2     { stroke-width: 0.24px; stroke-linecap: round; }
        .stroke-3     { stroke-width: 0.36px; stroke-linecap: round; }
        .stroke-4     { stroke-width: 0.48px; stroke-linecap: round; }
        .stroke-5     { stroke-width: 0.6px; stroke-linecap: round; }
        .stroke-6     { stroke-width: 0.72px; stroke-linecap: round; }
        .stroke-7     { stroke-width: 0.84px; stroke-linecap: round; }
        .stroke-8     { stroke-width: 0.96px; stroke-linecap: round; }
        .stroke-9     { stroke-width: 1.08px; stroke-linecap: round; }
        .stroke-10    { stroke-width: 1.2px; stroke-linecap: round; }

        .blue  { stroke: #b3b3ff; }
        .red   { stroke: #ff9999; }
        .green { stroke: #b3ffb3; }
        .gray  { stroke: #b3b3b3; }

        .black         { stroke: #000000; }
        .half-black    { stroke: #808080; }
        .quarter-black { stroke: #c0c0c0; }

        .light.blue  { stroke: #d9d9ff; }
        .light.red   { stroke: #ffcccc; }
        .light.green { stroke: #d9ffd9; }
        .light.gray  { stroke: #d9d9d9; }

        .dark.blue  { stroke: #6767ff; }
        .dark.red   { stroke: #ff3333; }
        .dark.green { stroke: #67ff67; }
        .dark.gray  { stroke: #676767; }

        .alternate-blue  { stroke: #6767ff; opacity: 0.5; }
        .alternate-red   { stroke: #ff3333; opacity: 0.5; }
        .alternate-green { stroke: #67ff67; opacity: 0.5; }
        .alternate-gray  { stroke: #676767; opacity: 0.5; }
</style>
  <g id="grid">
    <line x1="0" x2="396" y1="0" y2="0" class="stroke-1 black line"/>
    <line x1="0" x2="396" y1="18" y2="18" class="stroke-1 black line"/>
    <line x1="0" x2="396" y1="36" y2="36" class="stroke-1 black line"/>
    <line x1="0" x2="396" y1="54" y2="54" class="stroke-1 black line"/>
    <line x1="0" x2="396" y1="72" y2="72" class="stroke-1 black line"/>
    <line x1="0" x2="396" y1="90" y2="90" class="stroke-1 black line"/>
    <line x1="0" x2="396" y1="108" y2="108" class="stroke-1 black line"/>
    <line x1="0" x2="396" y1="126" y2="126" class="stroke-1 black line"/>
    <line x1="0" x2="396" y1="144" y2="144" class="stroke-1 black line"/>
    <line x1="0" x2="396" y1="162" y2="162" class="stroke-1 black line"/>
    <line x1="0" x2="396" y1="180" y2="180" class="stroke-1 black line"/>
    <line x1="0" x2="396" y1="198" y2="198" class="stroke-1 black line"/>
    <line x1="0" x2="396" y1="216" y2="216" class="stroke-1 black line"/>
    <line x1="0" x2="396" y1="234" y2="234" class="stroke-1 black line"/>
    <line x1="0" x2="396" y1="252" y2="252" class="stroke-1 black line"/>
    <line x1="0" x2="396" y1="270" y2="270" class="stroke-1 black line"/>
    <line x1="0" x2="396" y1="288" y2="288" class="stroke-1 black line"/>
    <line x1="0" x2="396" y1="306" y2="306" class="stroke-1 black line"/>
    <line x1="0" x2="396" y1="324" y2="324" class="stroke-1 black line"/>
    <line x1="0" x2="396" y1="342" y2="342" class="stroke-1 black line"/>
    <line x1="0" x2="396" y1="360" y2="360" class="stroke-1 black line"/>
    <line x1="0" x2="396" y1="378" y2="378" class="stroke-1 black line"/>
    <line x1="0" x2="396" y1="396" y2="396" class="stroke-1 black line"/>
    <line x1="0" x2="396" y1="414" y2="414" class="stroke-1 black line"/>
    <line x1="0" x2="396" y1="432" y2="432" class="stroke-1 black line"/>
    <line x1="0" x2="396" y1="450" y2="450" class="stroke-1 black line"/>
    <line x1="0" x2="396" y1="468" y2="468" class="stroke-1 black line"/>
    <line x1="0" x2="396" y1="486" y2="486" class="stroke-1 black line"/>
    <line x1="0" x2="396" y1="504" y2="504" class="stroke-1 black line"/>
    <line x1="0" x2="396" y1="522" y2="522" class="stroke-1 black line"/>
    <line x1="0" x2="396" y1="540" y2="540" class="stroke-1 black line"/>
    <line x1="0" x2="396" y1="558" y2="558" class="stroke-1 black line"/>
    <line x1="0" x2="396" y1="576" y2="576" class="stroke-1 black line"/>
    <line x1="0" x2="396" y1="594" y2="594" class="stroke-1 black line"/>
    <line x1="0" x2="396" y1="612" y2="612" class="stroke-1 black line"/>
    <line x1="0" x2="0" y1="0" y2="612" class="stroke-1 black line"/>
    <line x1="18" x2="18" y1="0" y2="612" class="stroke-1 black line"/>
    <line x1="36" x2="36" y1="0" y2="612" class="stroke-1 black line"/>
    <line x1="54" x2="54" y1="0" y2="612" class="stroke-1 black line"/>
    <line x1="72" x2="72" y1="0" y2="612" class="stroke-1 black line"/>
    <line x1="90" x2="90" y1="0" y2="612" class="stroke-1 black line"/>
    <line x1="108" x2="108" y1="0" y2="612" class="stroke-1 black line"/>
    <line x1="126" x2="126" y1="0" y2="612" class="stroke-1 black line"/>
    <line x1="144" x2="144" y1="0" y2="612" class="stroke-1 black line"/>
    <line x1="162" x2="162" y1="0" y2="612" class="stroke-1 black line"/>
    <line x1="180" x2="180" y1="0" y2="612" class="stroke-1 black line"/>
    <line x1="198" x2="198" y1="0" y2="612" class="stroke-1 black line"/>
    <line x1="216" x2="216" y1="0" y2="612" class="stroke-1 black line"/>
    <line x1="234" x2="234" y1="0" y2="612" class="stroke-1 black line"/>
    <line x1="252" x2="252" y1="0" y2="612" class="stroke-1 black line"/>
    <line x1="270" x2="270" y1="0" y2="612" class="stroke-1 black line"/>
    <line x1="288" x2="288" y1="0" y2="612" class="stroke-1 black line"/>
    <line x1="306" x2="306" y1="0" y2="612" class="stroke-1 black line"/>
    <line x1="324" x2="324" y1="0" y2="612" class="stroke-1 black line"/>
    <line x1="342" x2="342" y1="0" y2="612" class="stroke-1 black line"/>
    <line x1="360" x2="360" y1="0" y2="612" class="stroke-1 black line"/>
    <line x1="378" x2="378" y1="0" y2="612" class="stroke-1 black line"/>
    <line x1="396" x2="396" y1="0" y2="612" class="stroke-1 black line"/>
  </g>
  <rect x="103.5" y="586" width="189" height="12" fill="#ffffff" stroke="none" stroke-width="0px"/>
  <text x="198" y="594" text-anchor="middle" fill="#808080" stroke="none" stroke-width="0" style="font-family: &quot;Courier&quot;, &quot;Courier New&quot;, monospace; font-size: 6pt;">https://github.com/dse/printable-paper</text>
</svg>
