<?xml version="1.0" encoding="UTF-8"?>
<svg xmlns="http://www.w3.org/2000/svg" width="396pt" height="612pt" viewBox="0 0 396 612">
  <defs/>
  <style>        .line, .dot { stroke-linecap: round; }
        .stroke-linecap-butt { stroke-linecap: butt; }

        .line            { stroke-width: 0.72pt; }
        .line.xx-thin    { stroke-width: 0.24pt; }
        .line.x-thin     { stroke-width: 0.36pt; }
        .line.thin       { stroke-width: 0.48pt; }
        .line.thick      { stroke-width: 1.08pt; }
        .line.semi-thin  { stroke-width: 0.588pt; }
        .line.semi-thick { stroke-width: 0.882pt; }

        .dot             { stroke-width: 1.44pt; }
        .dot.thin        { stroke-width: 0.96pt; }
        .dot.thick       { stroke-width: 2.16pt; }
        .dot.semi-thin   { stroke-width: 1.176pt; }
        .dot.semi-thick  { stroke-width: 1.764pt; }

        .stroke-1     { stroke-width: 0.12pt; stroke-linecap: round; } /* 1/600 in */
        .stroke-2     { stroke-width: 0.24pt; stroke-linecap: round; }
        .stroke-3     { stroke-width: 0.36pt; stroke-linecap: round; }
        .stroke-4     { stroke-width: 0.48pt; stroke-linecap: round; }
        .stroke-5     { stroke-width: 0.60pt; stroke-linecap: round; }
        .stroke-6     { stroke-width: 0.72pt; stroke-linecap: round; }
        .stroke-7     { stroke-width: 0.84pt; stroke-linecap: round; }
        .stroke-8     { stroke-width: 0.96pt; stroke-linecap: round; }
        .stroke-9     { stroke-width: 1.08pt; stroke-linecap: round; }
        .stroke-10    { stroke-width: 1.20pt; stroke-linecap: round; }

        .blue  { stroke: #b3b3ff; }
        .red   { stroke: #ff9999; }
        .green { stroke: #b3ffb3; }
        .gray  { stroke: #b3b3b3; }
        .black         { stroke: #000000; }
        .half-black    { stroke: #808080; }
        .quarter-black { stroke: #c0c0c0; }
        .light.blue  { stroke: #d9d9ff; }
        .light.red   { stroke: #ffcccc; }
        .light.green { stroke: #d9ffd9; }
        .light.gray  { stroke: #d9d9d9; }

        .dark.blue  { stroke: #6767ff; }
        .dark.red   { stroke: #ff3333; }
        .dark.green { stroke: #67ff67; }
        .dark.gray  { stroke: #676767; }

        .alternate-blue  { stroke: #6767ff; opacity: 0.5; }
        .alternate-red   { stroke: #ff3333; opacity: 0.5; }
        .alternate-green { stroke: #67ff67; opacity: 0.5; }
        .alternate-gray  { stroke: #676767; opacity: 0.5; }
</style>
  <g id="grid">
    <line x1="0" x2="396" y1="3.6" y2="3.6" class="stroke-1 black line"/>
    <line x1="0" x2="396" y1="18" y2="18" class="stroke-1 black line"/>
    <line x1="0" x2="396" y1="32.4" y2="32.4" class="stroke-1 black line"/>
    <line x1="0" x2="396" y1="46.8" y2="46.8" class="stroke-1 black line"/>
    <line x1="0" x2="396" y1="61.2" y2="61.2" class="stroke-1 black line"/>
    <line x1="0" x2="396" y1="75.6" y2="75.6" class="stroke-1 black line"/>
    <line x1="0" x2="396" y1="90" y2="90" class="stroke-1 black line"/>
    <line x1="0" x2="396" y1="104.4" y2="104.4" class="stroke-1 black line"/>
    <line x1="0" x2="396" y1="118.8" y2="118.8" class="stroke-1 black line"/>
    <line x1="0" x2="396" y1="133.2" y2="133.2" class="stroke-1 black line"/>
    <line x1="0" x2="396" y1="147.6" y2="147.6" class="stroke-1 black line"/>
    <line x1="0" x2="396" y1="162" y2="162" class="stroke-1 black line"/>
    <line x1="0" x2="396" y1="176.4" y2="176.4" class="stroke-1 black line"/>
    <line x1="0" x2="396" y1="190.8" y2="190.8" class="stroke-1 black line"/>
    <line x1="0" x2="396" y1="205.2" y2="205.2" class="stroke-1 black line"/>
    <line x1="0" x2="396" y1="219.6" y2="219.6" class="stroke-1 black line"/>
    <line x1="0" x2="396" y1="234" y2="234" class="stroke-1 black line"/>
    <line x1="0" x2="396" y1="248.4" y2="248.4" class="stroke-1 black line"/>
    <line x1="0" x2="396" y1="262.8" y2="262.8" class="stroke-1 black line"/>
    <line x1="0" x2="396" y1="277.2" y2="277.2" class="stroke-1 black line"/>
    <line x1="0" x2="396" y1="291.6" y2="291.6" class="stroke-1 black line"/>
    <line x1="0" x2="396" y1="306" y2="306" class="stroke-1 black line"/>
    <line x1="0" x2="396" y1="320.4" y2="320.4" class="stroke-1 black line"/>
    <line x1="0" x2="396" y1="334.8" y2="334.8" class="stroke-1 black line"/>
    <line x1="0" x2="396" y1="349.2" y2="349.2" class="stroke-1 black line"/>
    <line x1="0" x2="396" y1="363.6" y2="363.6" class="stroke-1 black line"/>
    <line x1="0" x2="396" y1="378" y2="378" class="stroke-1 black line"/>
    <line x1="0" x2="396" y1="392.4" y2="392.4" class="stroke-1 black line"/>
    <line x1="0" x2="396" y1="406.8" y2="406.8" class="stroke-1 black line"/>
    <line x1="0" x2="396" y1="421.2" y2="421.2" class="stroke-1 black line"/>
    <line x1="0" x2="396" y1="435.6" y2="435.6" class="stroke-1 black line"/>
    <line x1="0" x2="396" y1="450" y2="450" class="stroke-1 black line"/>
    <line x1="0" x2="396" y1="464.4" y2="464.4" class="stroke-1 black line"/>
    <line x1="0" x2="396" y1="478.8" y2="478.8" class="stroke-1 black line"/>
    <line x1="0" x2="396" y1="493.2" y2="493.2" class="stroke-1 black line"/>
    <line x1="0" x2="396" y1="507.6" y2="507.6" class="stroke-1 black line"/>
    <line x1="0" x2="396" y1="522" y2="522" class="stroke-1 black line"/>
    <line x1="0" x2="396" y1="536.4" y2="536.4" class="stroke-1 black line"/>
    <line x1="0" x2="396" y1="550.8" y2="550.8" class="stroke-1 black line"/>
    <line x1="0" x2="396" y1="565.2" y2="565.2" class="stroke-1 black line"/>
    <line x1="0" x2="396" y1="579.6" y2="579.6" class="stroke-1 black line"/>
    <line x1="0" x2="396" y1="594" y2="594" class="stroke-1 black line"/>
    <line x1="0" x2="396" y1="608.4" y2="608.4" class="stroke-1 black line"/>
    <line x1="10.8" x2="10.8" y1="0" y2="612" class="stroke-1 black line"/>
    <line x1="25.2" x2="25.2" y1="0" y2="612" class="stroke-1 black line"/>
    <line x1="39.6" x2="39.6" y1="0" y2="612" class="stroke-1 black line"/>
    <line x1="54" x2="54" y1="0" y2="612" class="stroke-1 black line"/>
    <line x1="68.4" x2="68.4" y1="0" y2="612" class="stroke-1 black line"/>
    <line x1="82.8" x2="82.8" y1="0" y2="612" class="stroke-1 black line"/>
    <line x1="97.2" x2="97.2" y1="0" y2="612" class="stroke-1 black line"/>
    <line x1="111.6" x2="111.6" y1="0" y2="612" class="stroke-1 black line"/>
    <line x1="126" x2="126" y1="0" y2="612" class="stroke-1 black line"/>
    <line x1="140.4" x2="140.4" y1="0" y2="612" class="stroke-1 black line"/>
    <line x1="154.8" x2="154.8" y1="0" y2="612" class="stroke-1 black line"/>
    <line x1="169.2" x2="169.2" y1="0" y2="612" class="stroke-1 black line"/>
    <line x1="183.6" x2="183.6" y1="0" y2="612" class="stroke-1 black line"/>
    <line x1="198" x2="198" y1="0" y2="612" class="stroke-1 black line"/>
    <line x1="212.4" x2="212.4" y1="0" y2="612" class="stroke-1 black line"/>
    <line x1="226.8" x2="226.8" y1="0" y2="612" class="stroke-1 black line"/>
    <line x1="241.2" x2="241.2" y1="0" y2="612" class="stroke-1 black line"/>
    <line x1="255.6" x2="255.6" y1="0" y2="612" class="stroke-1 black line"/>
    <line x1="270" x2="270" y1="0" y2="612" class="stroke-1 black line"/>
    <line x1="284.4" x2="284.4" y1="0" y2="612" class="stroke-1 black line"/>
    <line x1="298.8" x2="298.8" y1="0" y2="612" class="stroke-1 black line"/>
    <line x1="313.2" x2="313.2" y1="0" y2="612" class="stroke-1 black line"/>
    <line x1="327.6" x2="327.6" y1="0" y2="612" class="stroke-1 black line"/>
    <line x1="342" x2="342" y1="0" y2="612" class="stroke-1 black line"/>
    <line x1="356.4" x2="356.4" y1="0" y2="612" class="stroke-1 black line"/>
    <line x1="370.8" x2="370.8" y1="0" y2="612" class="stroke-1 black line"/>
    <line x1="385.2" x2="385.2" y1="0" y2="612" class="stroke-1 black line"/>
  </g>
  <rect x="103.5" y="586" width="189" height="12" stroke="#808080" stroke-width="0.24" fill="#ffffff" rx="2pt" ry="2pt"/>
  <text x="198" y="594" text-anchor="middle" fill="#808080" stroke="none" stroke-width="0" style="font-family: &quot;Courier&quot;, &quot;Courier New&quot;, monospace; font-size: 6pt;">https://github.com/dse/printable-paper</text>
</svg>
