<?xml version="1.0" encoding="UTF-8"?>
<svg xmlns="http://www.w3.org/2000/svg" width="306.000pt" height="396.000pt" viewBox="0.000 0.000 306.000 396.000">
  <style>
        .regular-line, .dot, .major-line, .feint-line, .margin-line { stroke-linecap: round; stroke-linejoin: round; }
        .stroke-linecap-butt    { stroke-linecap:  butt;   }
        .stroke-linecap-round   { stroke-linecap:  round;  }
        .stroke-linecap-square  { stroke-linecap:  square; }
        .stroke-linejoin-butt   { stroke-linejoin: butt;   }
        .stroke-linejoin-round  { stroke-linejoin: round;  }
        .stroke-linejoin-square { stroke-linejoin: square; }
        .rectangle { fill: #ffffff; }


        .regular-line { stroke-width: 0.24px; opacity: 1; }
        .major-line   { stroke-width: 0.339411254969543px; opacity: 1;   }
        .feint-line   { stroke-width: 0.169705627484771px; opacity: 1;   }
        .regular-dot  { stroke-width: 0.96px; opacity: 1;  }
        .major-dot    { stroke-width: 1.92px; opacity: 1;    }
        .feint-dot    { stroke-width: 0.48px; opacity: 1;    }
        .margin-line  { stroke-width: 0.24px; opacity: 1;  }
        .regular-line { stroke: #000000; }
        .major-line   { stroke: #000000;   }
        .feint-line   { stroke: #000000;   }
        .regular-dot  { stroke: #000000; }
        .major-dot    { stroke: #000000;   }
        .feint-dot    { stroke: #000000;   }
        .margin-line  { stroke: #000000;  }
  </style>
  <defs/>
  <g id="grid">
    <line x1="0.000" x2="306.000" y1="3.600" y2="3.600" class="regular-line horizontal"/>
    <line x1="0.000" x2="306.000" y1="18.000" y2="18.000" class="regular-line horizontal"/>
    <line x1="0.000" x2="306.000" y1="32.400" y2="32.400" class="regular-line horizontal"/>
    <line x1="0.000" x2="306.000" y1="46.800" y2="46.800" class="regular-line horizontal"/>
    <line x1="0.000" x2="306.000" y1="61.200" y2="61.200" class="regular-line horizontal"/>
    <line x1="0.000" x2="306.000" y1="75.600" y2="75.600" class="regular-line horizontal"/>
    <line x1="0.000" x2="306.000" y1="90.000" y2="90.000" class="regular-line horizontal"/>
    <line x1="0.000" x2="306.000" y1="104.400" y2="104.400" class="regular-line horizontal"/>
    <line x1="0.000" x2="306.000" y1="118.800" y2="118.800" class="regular-line horizontal"/>
    <line x1="0.000" x2="306.000" y1="133.200" y2="133.200" class="regular-line horizontal"/>
    <line x1="0.000" x2="306.000" y1="147.600" y2="147.600" class="regular-line horizontal"/>
    <line x1="0.000" x2="306.000" y1="162.000" y2="162.000" class="regular-line horizontal"/>
    <line x1="0.000" x2="306.000" y1="176.400" y2="176.400" class="regular-line horizontal"/>
    <line x1="0.000" x2="306.000" y1="190.800" y2="190.800" class="regular-line horizontal"/>
    <line x1="0.000" x2="306.000" y1="205.200" y2="205.200" class="regular-line horizontal"/>
    <line x1="0.000" x2="306.000" y1="219.600" y2="219.600" class="regular-line horizontal"/>
    <line x1="0.000" x2="306.000" y1="234.000" y2="234.000" class="regular-line horizontal"/>
    <line x1="0.000" x2="306.000" y1="248.400" y2="248.400" class="regular-line horizontal"/>
    <line x1="0.000" x2="306.000" y1="262.800" y2="262.800" class="regular-line horizontal"/>
    <line x1="0.000" x2="306.000" y1="277.200" y2="277.200" class="regular-line horizontal"/>
    <line x1="0.000" x2="306.000" y1="291.600" y2="291.600" class="regular-line horizontal"/>
    <line x1="0.000" x2="306.000" y1="306.000" y2="306.000" class="regular-line horizontal"/>
    <line x1="0.000" x2="306.000" y1="320.400" y2="320.400" class="regular-line horizontal"/>
    <line x1="0.000" x2="306.000" y1="334.800" y2="334.800" class="regular-line horizontal"/>
    <line x1="0.000" x2="306.000" y1="349.200" y2="349.200" class="regular-line horizontal"/>
    <line x1="0.000" x2="306.000" y1="363.600" y2="363.600" class="regular-line horizontal"/>
    <line x1="0.000" x2="306.000" y1="378.000" y2="378.000" class="regular-line horizontal"/>
    <line x1="0.000" x2="306.000" y1="392.400" y2="392.400" class="regular-line horizontal"/>
    <line x1="9.000" x2="9.000" y1="0.000" y2="396.000" class="regular-line vertical"/>
    <line x1="23.400" x2="23.400" y1="0.000" y2="396.000" class="regular-line vertical"/>
    <line x1="37.800" x2="37.800" y1="0.000" y2="396.000" class="regular-line vertical"/>
    <line x1="52.200" x2="52.200" y1="0.000" y2="396.000" class="regular-line vertical"/>
    <line x1="66.600" x2="66.600" y1="0.000" y2="396.000" class="regular-line vertical"/>
    <line x1="81.000" x2="81.000" y1="0.000" y2="396.000" class="regular-line vertical"/>
    <line x1="95.400" x2="95.400" y1="0.000" y2="396.000" class="regular-line vertical"/>
    <line x1="109.800" x2="109.800" y1="0.000" y2="396.000" class="regular-line vertical"/>
    <line x1="124.200" x2="124.200" y1="0.000" y2="396.000" class="regular-line vertical"/>
    <line x1="138.600" x2="138.600" y1="0.000" y2="396.000" class="regular-line vertical"/>
    <line x1="153.000" x2="153.000" y1="0.000" y2="396.000" class="regular-line vertical"/>
    <line x1="167.400" x2="167.400" y1="0.000" y2="396.000" class="regular-line vertical"/>
    <line x1="181.800" x2="181.800" y1="0.000" y2="396.000" class="regular-line vertical"/>
    <line x1="196.200" x2="196.200" y1="0.000" y2="396.000" class="regular-line vertical"/>
    <line x1="210.600" x2="210.600" y1="0.000" y2="396.000" class="regular-line vertical"/>
    <line x1="225.000" x2="225.000" y1="0.000" y2="396.000" class="regular-line vertical"/>
    <line x1="239.400" x2="239.400" y1="0.000" y2="396.000" class="regular-line vertical"/>
    <line x1="253.800" x2="253.800" y1="0.000" y2="396.000" class="regular-line vertical"/>
    <line x1="268.200" x2="268.200" y1="0.000" y2="396.000" class="regular-line vertical"/>
    <line x1="282.600" x2="282.600" y1="0.000" y2="396.000" class="regular-line vertical"/>
    <line x1="297.000" x2="297.000" y1="0.000" y2="396.000" class="regular-line vertical"/>
  </g>
  <rect x="58.5" y="370" width="189" height="12" fill="#ffffff" stroke="none" stroke-width="0px"/>
  <text x="153" y="378" text-anchor="middle" fill="#000000" stroke="none" stroke-width="0" style="font-family: &quot;Courier&quot;, &quot;Courier New&quot;, monospace; font-size: 6pt;">https://github.com/dse/printable-paper</text>
</svg>
