<?xml version="1.0" encoding="UTF-8"?>
<svg xmlns="http://www.w3.org/2000/svg" width="595.911pt" height="842.745pt" viewBox="0.000 0.000 595.911 842.745">
  <style>
        .line, .dot, .major-line, .feint-line, .margin-line { stroke-linecap: round; }
        .stroke-linecap-butt { stroke-linecap: butt; }
        .rectangle { fill: #ffffff; }


        .line        { stroke-width: 0.12px; opacity:  1; }
        .major-line  { stroke-width: 0.339411254969543px; opacity: 1; }
        .feint-line  { stroke-width: 0.169705627484771px; opacity:  1; }
        .dot         { stroke-width: 0.24px; opacity:  1; }
        .margin-line { stroke-width: 0.24px; opacity:  1; }
        .line        { stroke: #000000; }
        .major-line  { stroke: #000000; }
        .feint-line  { stroke: #000000; }
        .dot         { stroke: #000000; }
        .margin-line { stroke: #000000; }
        line.dot {
            stroke-linecap: butt;
        }
  </style>
  <defs/>
  <g id="lines">
    <line x1="0.000" x2="595.911" y1="8.459" y2="8.459" class="line"/>
    <line x1="0.000" x2="595.911" y1="30.191" y2="30.191" class="line"/>
    <line x1="0.000" x2="595.911" y1="51.924" y2="51.924" class="line"/>
    <line x1="0.000" x2="595.911" y1="73.656" y2="73.656" class="line"/>
    <line x1="0.000" x2="595.911" y1="95.388" y2="95.388" class="line"/>
    <line x1="0.000" x2="595.911" y1="117.121" y2="117.121" class="line"/>
    <line x1="0.000" x2="595.911" y1="138.853" y2="138.853" class="line"/>
    <line x1="0.000" x2="595.911" y1="160.585" y2="160.585" class="line"/>
    <line x1="0.000" x2="595.911" y1="182.317" y2="182.317" class="line"/>
    <line x1="0.000" x2="595.911" y1="204.050" y2="204.050" class="line"/>
    <line x1="0.000" x2="595.911" y1="225.782" y2="225.782" class="line"/>
    <line x1="0.000" x2="595.911" y1="247.514" y2="247.514" class="line"/>
    <line x1="0.000" x2="595.911" y1="269.247" y2="269.247" class="line"/>
    <line x1="0.000" x2="595.911" y1="290.979" y2="290.979" class="line"/>
    <line x1="0.000" x2="595.911" y1="312.711" y2="312.711" class="line"/>
    <line x1="0.000" x2="595.911" y1="334.443" y2="334.443" class="line"/>
    <line x1="0.000" x2="595.911" y1="356.176" y2="356.176" class="line"/>
    <line x1="0.000" x2="595.911" y1="377.908" y2="377.908" class="line"/>
    <line x1="0.000" x2="595.911" y1="399.640" y2="399.640" class="line"/>
    <line x1="0.000" x2="595.911" y1="421.373" y2="421.373" class="line"/>
    <line x1="0.000" x2="595.911" y1="443.105" y2="443.105" class="line"/>
    <line x1="0.000" x2="595.911" y1="464.837" y2="464.837" class="line"/>
    <line x1="0.000" x2="595.911" y1="486.569" y2="486.569" class="line"/>
    <line x1="0.000" x2="595.911" y1="508.302" y2="508.302" class="line"/>
    <line x1="0.000" x2="595.911" y1="530.034" y2="530.034" class="line"/>
    <line x1="0.000" x2="595.911" y1="551.766" y2="551.766" class="line"/>
    <line x1="0.000" x2="595.911" y1="573.499" y2="573.499" class="line"/>
    <line x1="0.000" x2="595.911" y1="595.231" y2="595.231" class="line"/>
    <line x1="0.000" x2="595.911" y1="616.963" y2="616.963" class="line"/>
    <line x1="0.000" x2="595.911" y1="638.695" y2="638.695" class="line"/>
    <line x1="0.000" x2="595.911" y1="660.428" y2="660.428" class="line"/>
    <line x1="0.000" x2="595.911" y1="682.160" y2="682.160" class="line"/>
    <line x1="0.000" x2="595.911" y1="703.892" y2="703.892" class="line"/>
    <line x1="0.000" x2="595.911" y1="725.625" y2="725.625" class="line"/>
    <line x1="0.000" x2="595.911" y1="747.357" y2="747.357" class="line"/>
    <line x1="0.000" x2="595.911" y1="769.089" y2="769.089" class="line"/>
    <line x1="0.000" x2="595.911" y1="790.821" y2="790.821" class="line"/>
    <line x1="0.000" x2="595.911" y1="812.554" y2="812.554" class="line"/>
    <line x1="0.000" x2="595.911" y1="834.286" y2="834.286" class="line"/>
  </g>
  <g id="grid-1">
    <line x1="15.436" x2="15.436" y1="1.095" y2="841.650" class="dot" stroke-dasharray="0.250 3.372" stroke-dashoffset="0.005"/>
    <line x1="37.168" x2="37.168" y1="1.095" y2="841.650" class="dot" stroke-dasharray="0.250 3.372" stroke-dashoffset="0.005"/>
    <line x1="58.900" x2="58.900" y1="1.095" y2="841.650" class="dot" stroke-dasharray="0.250 3.372" stroke-dashoffset="0.005"/>
    <line x1="80.633" x2="80.633" y1="1.095" y2="841.650" class="dot" stroke-dasharray="0.250 3.372" stroke-dashoffset="0.005"/>
    <line x1="102.365" x2="102.365" y1="1.095" y2="841.650" class="dot" stroke-dasharray="0.250 3.372" stroke-dashoffset="0.005"/>
    <line x1="124.097" x2="124.097" y1="1.095" y2="841.650" class="dot" stroke-dasharray="0.250 3.372" stroke-dashoffset="0.005"/>
    <line x1="145.829" x2="145.829" y1="1.095" y2="841.650" class="dot" stroke-dasharray="0.250 3.372" stroke-dashoffset="0.005"/>
    <line x1="167.562" x2="167.562" y1="1.095" y2="841.650" class="dot" stroke-dasharray="0.250 3.372" stroke-dashoffset="0.005"/>
    <line x1="189.294" x2="189.294" y1="1.095" y2="841.650" class="dot" stroke-dasharray="0.250 3.372" stroke-dashoffset="0.005"/>
    <line x1="211.026" x2="211.026" y1="1.095" y2="841.650" class="dot" stroke-dasharray="0.250 3.372" stroke-dashoffset="0.005"/>
    <line x1="232.759" x2="232.759" y1="1.095" y2="841.650" class="dot" stroke-dasharray="0.250 3.372" stroke-dashoffset="0.005"/>
    <line x1="254.491" x2="254.491" y1="1.095" y2="841.650" class="dot" stroke-dasharray="0.250 3.372" stroke-dashoffset="0.005"/>
    <line x1="276.223" x2="276.223" y1="1.095" y2="841.650" class="dot" stroke-dasharray="0.250 3.372" stroke-dashoffset="0.005"/>
    <line x1="297.955" x2="297.955" y1="1.095" y2="841.650" class="dot" stroke-dasharray="0.250 3.372" stroke-dashoffset="0.005"/>
    <line x1="319.688" x2="319.688" y1="1.095" y2="841.650" class="dot" stroke-dasharray="0.250 3.372" stroke-dashoffset="0.005"/>
    <line x1="341.420" x2="341.420" y1="1.095" y2="841.650" class="dot" stroke-dasharray="0.250 3.372" stroke-dashoffset="0.005"/>
    <line x1="363.152" x2="363.152" y1="1.095" y2="841.650" class="dot" stroke-dasharray="0.250 3.372" stroke-dashoffset="0.005"/>
    <line x1="384.885" x2="384.885" y1="1.095" y2="841.650" class="dot" stroke-dasharray="0.250 3.372" stroke-dashoffset="0.005"/>
    <line x1="406.617" x2="406.617" y1="1.095" y2="841.650" class="dot" stroke-dasharray="0.250 3.372" stroke-dashoffset="0.005"/>
    <line x1="428.349" x2="428.349" y1="1.095" y2="841.650" class="dot" stroke-dasharray="0.250 3.372" stroke-dashoffset="0.005"/>
    <line x1="450.081" x2="450.081" y1="1.095" y2="841.650" class="dot" stroke-dasharray="0.250 3.372" stroke-dashoffset="0.005"/>
    <line x1="471.814" x2="471.814" y1="1.095" y2="841.650" class="dot" stroke-dasharray="0.250 3.372" stroke-dashoffset="0.005"/>
    <line x1="493.546" x2="493.546" y1="1.095" y2="841.650" class="dot" stroke-dasharray="0.250 3.372" stroke-dashoffset="0.005"/>
    <line x1="515.278" x2="515.278" y1="1.095" y2="841.650" class="dot" stroke-dasharray="0.250 3.372" stroke-dashoffset="0.005"/>
    <line x1="537.011" x2="537.011" y1="1.095" y2="841.650" class="dot" stroke-dasharray="0.250 3.372" stroke-dashoffset="0.005"/>
    <line x1="558.743" x2="558.743" y1="1.095" y2="841.650" class="dot" stroke-dasharray="0.250 3.372" stroke-dashoffset="0.005"/>
    <line x1="580.475" x2="580.475" y1="1.095" y2="841.650" class="dot" stroke-dasharray="0.250 3.372" stroke-dashoffset="0.005"/>
  </g>
  <g id="grid-2">
    <line x1="2.897" x2="593.014" y1="15.703" y2="15.703" class="dot" stroke-dasharray="0.250 2.855" stroke-dashoffset="0.005"/>
    <line x1="2.897" x2="593.014" y1="37.436" y2="37.436" class="dot" stroke-dasharray="0.250 2.855" stroke-dashoffset="0.005"/>
    <line x1="2.897" x2="593.014" y1="59.168" y2="59.168" class="dot" stroke-dasharray="0.250 2.855" stroke-dashoffset="0.005"/>
    <line x1="2.897" x2="593.014" y1="80.900" y2="80.900" class="dot" stroke-dasharray="0.250 2.855" stroke-dashoffset="0.005"/>
    <line x1="2.897" x2="593.014" y1="102.632" y2="102.632" class="dot" stroke-dasharray="0.250 2.855" stroke-dashoffset="0.005"/>
    <line x1="2.897" x2="593.014" y1="124.365" y2="124.365" class="dot" stroke-dasharray="0.250 2.855" stroke-dashoffset="0.005"/>
    <line x1="2.897" x2="593.014" y1="146.097" y2="146.097" class="dot" stroke-dasharray="0.250 2.855" stroke-dashoffset="0.005"/>
    <line x1="2.897" x2="593.014" y1="167.829" y2="167.829" class="dot" stroke-dasharray="0.250 2.855" stroke-dashoffset="0.005"/>
    <line x1="2.897" x2="593.014" y1="189.562" y2="189.562" class="dot" stroke-dasharray="0.250 2.855" stroke-dashoffset="0.005"/>
    <line x1="2.897" x2="593.014" y1="211.294" y2="211.294" class="dot" stroke-dasharray="0.250 2.855" stroke-dashoffset="0.005"/>
    <line x1="2.897" x2="593.014" y1="233.026" y2="233.026" class="dot" stroke-dasharray="0.250 2.855" stroke-dashoffset="0.005"/>
    <line x1="2.897" x2="593.014" y1="254.758" y2="254.758" class="dot" stroke-dasharray="0.250 2.855" stroke-dashoffset="0.005"/>
    <line x1="2.897" x2="593.014" y1="276.491" y2="276.491" class="dot" stroke-dasharray="0.250 2.855" stroke-dashoffset="0.005"/>
    <line x1="2.897" x2="593.014" y1="298.223" y2="298.223" class="dot" stroke-dasharray="0.250 2.855" stroke-dashoffset="0.005"/>
    <line x1="2.897" x2="593.014" y1="319.955" y2="319.955" class="dot" stroke-dasharray="0.250 2.855" stroke-dashoffset="0.005"/>
    <line x1="2.897" x2="593.014" y1="341.688" y2="341.688" class="dot" stroke-dasharray="0.250 2.855" stroke-dashoffset="0.005"/>
    <line x1="2.897" x2="593.014" y1="363.420" y2="363.420" class="dot" stroke-dasharray="0.250 2.855" stroke-dashoffset="0.005"/>
    <line x1="2.897" x2="593.014" y1="385.152" y2="385.152" class="dot" stroke-dasharray="0.250 2.855" stroke-dashoffset="0.005"/>
    <line x1="2.897" x2="593.014" y1="406.884" y2="406.884" class="dot" stroke-dasharray="0.250 2.855" stroke-dashoffset="0.005"/>
    <line x1="2.897" x2="593.014" y1="428.617" y2="428.617" class="dot" stroke-dasharray="0.250 2.855" stroke-dashoffset="0.005"/>
    <line x1="2.897" x2="593.014" y1="450.349" y2="450.349" class="dot" stroke-dasharray="0.250 2.855" stroke-dashoffset="0.005"/>
    <line x1="2.897" x2="593.014" y1="472.081" y2="472.081" class="dot" stroke-dasharray="0.250 2.855" stroke-dashoffset="0.005"/>
    <line x1="2.897" x2="593.014" y1="493.814" y2="493.814" class="dot" stroke-dasharray="0.250 2.855" stroke-dashoffset="0.005"/>
    <line x1="2.897" x2="593.014" y1="515.546" y2="515.546" class="dot" stroke-dasharray="0.250 2.855" stroke-dashoffset="0.005"/>
    <line x1="2.897" x2="593.014" y1="537.278" y2="537.278" class="dot" stroke-dasharray="0.250 2.855" stroke-dashoffset="0.005"/>
    <line x1="2.897" x2="593.014" y1="559.010" y2="559.010" class="dot" stroke-dasharray="0.250 2.855" stroke-dashoffset="0.005"/>
    <line x1="2.897" x2="593.014" y1="580.743" y2="580.743" class="dot" stroke-dasharray="0.250 2.855" stroke-dashoffset="0.005"/>
    <line x1="2.897" x2="593.014" y1="602.475" y2="602.475" class="dot" stroke-dasharray="0.250 2.855" stroke-dashoffset="0.005"/>
    <line x1="2.897" x2="593.014" y1="624.207" y2="624.207" class="dot" stroke-dasharray="0.250 2.855" stroke-dashoffset="0.005"/>
    <line x1="2.897" x2="593.014" y1="645.940" y2="645.940" class="dot" stroke-dasharray="0.250 2.855" stroke-dashoffset="0.005"/>
    <line x1="2.897" x2="593.014" y1="667.672" y2="667.672" class="dot" stroke-dasharray="0.250 2.855" stroke-dashoffset="0.005"/>
    <line x1="2.897" x2="593.014" y1="689.404" y2="689.404" class="dot" stroke-dasharray="0.250 2.855" stroke-dashoffset="0.005"/>
    <line x1="2.897" x2="593.014" y1="711.136" y2="711.136" class="dot" stroke-dasharray="0.250 2.855" stroke-dashoffset="0.005"/>
    <line x1="2.897" x2="593.014" y1="732.869" y2="732.869" class="dot" stroke-dasharray="0.250 2.855" stroke-dashoffset="0.005"/>
    <line x1="2.897" x2="593.014" y1="754.601" y2="754.601" class="dot" stroke-dasharray="0.250 2.855" stroke-dashoffset="0.005"/>
    <line x1="2.897" x2="593.014" y1="776.333" y2="776.333" class="dot" stroke-dasharray="0.250 2.855" stroke-dashoffset="0.005"/>
    <line x1="2.897" x2="593.014" y1="798.066" y2="798.066" class="dot" stroke-dasharray="0.250 2.855" stroke-dashoffset="0.005"/>
    <line x1="2.897" x2="593.014" y1="819.798" y2="819.798" class="dot" stroke-dasharray="0.250 2.855" stroke-dashoffset="0.005"/>
    <line x1="2.897" x2="593.014" y1="841.530" y2="841.530" class="dot" stroke-dasharray="0.250 2.855" stroke-dashoffset="0.005"/>
  </g>
  <g id="grid-3">
    <line x1="2.897" x2="593.014" y1="1.215" y2="1.215" class="dot" stroke-dasharray="0.250 2.855" stroke-dashoffset="0.005"/>
    <line x1="2.897" x2="593.014" y1="22.947" y2="22.947" class="dot" stroke-dasharray="0.250 2.855" stroke-dashoffset="0.005"/>
    <line x1="2.897" x2="593.014" y1="44.680" y2="44.680" class="dot" stroke-dasharray="0.250 2.855" stroke-dashoffset="0.005"/>
    <line x1="2.897" x2="593.014" y1="66.412" y2="66.412" class="dot" stroke-dasharray="0.250 2.855" stroke-dashoffset="0.005"/>
    <line x1="2.897" x2="593.014" y1="88.144" y2="88.144" class="dot" stroke-dasharray="0.250 2.855" stroke-dashoffset="0.005"/>
    <line x1="2.897" x2="593.014" y1="109.877" y2="109.877" class="dot" stroke-dasharray="0.250 2.855" stroke-dashoffset="0.005"/>
    <line x1="2.897" x2="593.014" y1="131.609" y2="131.609" class="dot" stroke-dasharray="0.250 2.855" stroke-dashoffset="0.005"/>
    <line x1="2.897" x2="593.014" y1="153.341" y2="153.341" class="dot" stroke-dasharray="0.250 2.855" stroke-dashoffset="0.005"/>
    <line x1="2.897" x2="593.014" y1="175.073" y2="175.073" class="dot" stroke-dasharray="0.250 2.855" stroke-dashoffset="0.005"/>
    <line x1="2.897" x2="593.014" y1="196.806" y2="196.806" class="dot" stroke-dasharray="0.250 2.855" stroke-dashoffset="0.005"/>
    <line x1="2.897" x2="593.014" y1="218.538" y2="218.538" class="dot" stroke-dasharray="0.250 2.855" stroke-dashoffset="0.005"/>
    <line x1="2.897" x2="593.014" y1="240.270" y2="240.270" class="dot" stroke-dasharray="0.250 2.855" stroke-dashoffset="0.005"/>
    <line x1="2.897" x2="593.014" y1="262.003" y2="262.003" class="dot" stroke-dasharray="0.250 2.855" stroke-dashoffset="0.005"/>
    <line x1="2.897" x2="593.014" y1="283.735" y2="283.735" class="dot" stroke-dasharray="0.250 2.855" stroke-dashoffset="0.005"/>
    <line x1="2.897" x2="593.014" y1="305.467" y2="305.467" class="dot" stroke-dasharray="0.250 2.855" stroke-dashoffset="0.005"/>
    <line x1="2.897" x2="593.014" y1="327.199" y2="327.199" class="dot" stroke-dasharray="0.250 2.855" stroke-dashoffset="0.005"/>
    <line x1="2.897" x2="593.014" y1="348.932" y2="348.932" class="dot" stroke-dasharray="0.250 2.855" stroke-dashoffset="0.005"/>
    <line x1="2.897" x2="593.014" y1="370.664" y2="370.664" class="dot" stroke-dasharray="0.250 2.855" stroke-dashoffset="0.005"/>
    <line x1="2.897" x2="593.014" y1="392.396" y2="392.396" class="dot" stroke-dasharray="0.250 2.855" stroke-dashoffset="0.005"/>
    <line x1="2.897" x2="593.014" y1="414.129" y2="414.129" class="dot" stroke-dasharray="0.250 2.855" stroke-dashoffset="0.005"/>
    <line x1="2.897" x2="593.014" y1="435.861" y2="435.861" class="dot" stroke-dasharray="0.250 2.855" stroke-dashoffset="0.005"/>
    <line x1="2.897" x2="593.014" y1="457.593" y2="457.593" class="dot" stroke-dasharray="0.250 2.855" stroke-dashoffset="0.005"/>
    <line x1="2.897" x2="593.014" y1="479.325" y2="479.325" class="dot" stroke-dasharray="0.250 2.855" stroke-dashoffset="0.005"/>
    <line x1="2.897" x2="593.014" y1="501.058" y2="501.058" class="dot" stroke-dasharray="0.250 2.855" stroke-dashoffset="0.005"/>
    <line x1="2.897" x2="593.014" y1="522.790" y2="522.790" class="dot" stroke-dasharray="0.250 2.855" stroke-dashoffset="0.005"/>
    <line x1="2.897" x2="593.014" y1="544.522" y2="544.522" class="dot" stroke-dasharray="0.250 2.855" stroke-dashoffset="0.005"/>
    <line x1="2.897" x2="593.014" y1="566.254" y2="566.254" class="dot" stroke-dasharray="0.250 2.855" stroke-dashoffset="0.005"/>
    <line x1="2.897" x2="593.014" y1="587.987" y2="587.987" class="dot" stroke-dasharray="0.250 2.855" stroke-dashoffset="0.005"/>
    <line x1="2.897" x2="593.014" y1="609.719" y2="609.719" class="dot" stroke-dasharray="0.250 2.855" stroke-dashoffset="0.005"/>
    <line x1="2.897" x2="593.014" y1="631.451" y2="631.451" class="dot" stroke-dasharray="0.250 2.855" stroke-dashoffset="0.005"/>
    <line x1="2.897" x2="593.014" y1="653.184" y2="653.184" class="dot" stroke-dasharray="0.250 2.855" stroke-dashoffset="0.005"/>
    <line x1="2.897" x2="593.014" y1="674.916" y2="674.916" class="dot" stroke-dasharray="0.250 2.855" stroke-dashoffset="0.005"/>
    <line x1="2.897" x2="593.014" y1="696.648" y2="696.648" class="dot" stroke-dasharray="0.250 2.855" stroke-dashoffset="0.005"/>
    <line x1="2.897" x2="593.014" y1="718.380" y2="718.380" class="dot" stroke-dasharray="0.250 2.855" stroke-dashoffset="0.005"/>
    <line x1="2.897" x2="593.014" y1="740.113" y2="740.113" class="dot" stroke-dasharray="0.250 2.855" stroke-dashoffset="0.005"/>
    <line x1="2.897" x2="593.014" y1="761.845" y2="761.845" class="dot" stroke-dasharray="0.250 2.855" stroke-dashoffset="0.005"/>
    <line x1="2.897" x2="593.014" y1="783.577" y2="783.577" class="dot" stroke-dasharray="0.250 2.855" stroke-dashoffset="0.005"/>
    <line x1="2.897" x2="593.014" y1="805.310" y2="805.310" class="dot" stroke-dasharray="0.250 2.855" stroke-dashoffset="0.005"/>
    <line x1="2.897" x2="593.014" y1="827.042" y2="827.042" class="dot" stroke-dasharray="0.250 2.855" stroke-dashoffset="0.005"/>
  </g>
  <g id="grid-4">
    <line x1="15.436" x2="15.436" y1="8.219" y2="834.526" class="dot" stroke-dasharray="0.490 21.242" stroke-dashoffset="0.005"/>
    <line x1="37.168" x2="37.168" y1="8.219" y2="834.526" class="dot" stroke-dasharray="0.490 21.242" stroke-dashoffset="0.005"/>
    <line x1="58.900" x2="58.900" y1="8.219" y2="834.526" class="dot" stroke-dasharray="0.490 21.242" stroke-dashoffset="0.005"/>
    <line x1="80.633" x2="80.633" y1="8.219" y2="834.526" class="dot" stroke-dasharray="0.490 21.242" stroke-dashoffset="0.005"/>
    <line x1="102.365" x2="102.365" y1="8.219" y2="834.526" class="dot" stroke-dasharray="0.490 21.242" stroke-dashoffset="0.005"/>
    <line x1="124.097" x2="124.097" y1="8.219" y2="834.526" class="dot" stroke-dasharray="0.490 21.242" stroke-dashoffset="0.005"/>
    <line x1="145.829" x2="145.829" y1="8.219" y2="834.526" class="dot" stroke-dasharray="0.490 21.242" stroke-dashoffset="0.005"/>
    <line x1="167.562" x2="167.562" y1="8.219" y2="834.526" class="dot" stroke-dasharray="0.490 21.242" stroke-dashoffset="0.005"/>
    <line x1="189.294" x2="189.294" y1="8.219" y2="834.526" class="dot" stroke-dasharray="0.490 21.242" stroke-dashoffset="0.005"/>
    <line x1="211.026" x2="211.026" y1="8.219" y2="834.526" class="dot" stroke-dasharray="0.490 21.242" stroke-dashoffset="0.005"/>
    <line x1="232.759" x2="232.759" y1="8.219" y2="834.526" class="dot" stroke-dasharray="0.490 21.242" stroke-dashoffset="0.005"/>
    <line x1="254.491" x2="254.491" y1="8.219" y2="834.526" class="dot" stroke-dasharray="0.490 21.242" stroke-dashoffset="0.005"/>
    <line x1="276.223" x2="276.223" y1="8.219" y2="834.526" class="dot" stroke-dasharray="0.490 21.242" stroke-dashoffset="0.005"/>
    <line x1="297.955" x2="297.955" y1="8.219" y2="834.526" class="dot" stroke-dasharray="0.490 21.242" stroke-dashoffset="0.005"/>
    <line x1="319.688" x2="319.688" y1="8.219" y2="834.526" class="dot" stroke-dasharray="0.490 21.242" stroke-dashoffset="0.005"/>
    <line x1="341.420" x2="341.420" y1="8.219" y2="834.526" class="dot" stroke-dasharray="0.490 21.242" stroke-dashoffset="0.005"/>
    <line x1="363.152" x2="363.152" y1="8.219" y2="834.526" class="dot" stroke-dasharray="0.490 21.242" stroke-dashoffset="0.005"/>
    <line x1="384.885" x2="384.885" y1="8.219" y2="834.526" class="dot" stroke-dasharray="0.490 21.242" stroke-dashoffset="0.005"/>
    <line x1="406.617" x2="406.617" y1="8.219" y2="834.526" class="dot" stroke-dasharray="0.490 21.242" stroke-dashoffset="0.005"/>
    <line x1="428.349" x2="428.349" y1="8.219" y2="834.526" class="dot" stroke-dasharray="0.490 21.242" stroke-dashoffset="0.005"/>
    <line x1="450.081" x2="450.081" y1="8.219" y2="834.526" class="dot" stroke-dasharray="0.490 21.242" stroke-dashoffset="0.005"/>
    <line x1="471.814" x2="471.814" y1="8.219" y2="834.526" class="dot" stroke-dasharray="0.490 21.242" stroke-dashoffset="0.005"/>
    <line x1="493.546" x2="493.546" y1="8.219" y2="834.526" class="dot" stroke-dasharray="0.490 21.242" stroke-dashoffset="0.005"/>
    <line x1="515.278" x2="515.278" y1="8.219" y2="834.526" class="dot" stroke-dasharray="0.490 21.242" stroke-dashoffset="0.005"/>
    <line x1="537.011" x2="537.011" y1="8.219" y2="834.526" class="dot" stroke-dasharray="0.490 21.242" stroke-dashoffset="0.005"/>
    <line x1="558.743" x2="558.743" y1="8.219" y2="834.526" class="dot" stroke-dasharray="0.490 21.242" stroke-dashoffset="0.005"/>
    <line x1="580.475" x2="580.475" y1="8.219" y2="834.526" class="dot" stroke-dasharray="0.490 21.242" stroke-dashoffset="0.005"/>
  </g>
  <rect x="203.455422727694" y="816.745199608227" width="189" height="12" fill="#ffffff" stroke="none" stroke-width="0px"/>
  <text x="297.955422727694" y="824.745199608227" text-anchor="middle" fill="#000000" stroke="none" stroke-width="0" style="font-family: &quot;Courier&quot;, &quot;Courier New&quot;, monospace; font-size: 6pt;">https://github.com/dse/printable-paper</text>
</svg>
