<?xml version="1.0" encoding="UTF-8"?>
<svg xmlns="http://www.w3.org/2000/svg" width="595.276pt" height="841.890pt" viewBox="0.000 0.000 595.276 841.890">
  <style>        .line, .dot { stroke-linecap: round; }
        .stroke-linecap-butt { stroke-linecap: butt; }

        .rectangle { fill: #ffffff; }

        .line.xx-thin    { stroke-width: 0.32004px; }
        .line.x-thin     { stroke-width: 0.48px; }
        .line.thin       { stroke-width: 0.63996px; }
        .line.semi-thin  { stroke-width: 0.78384px; }
        .line            { stroke-width: 0.96px; }
        .line.semi-thick { stroke-width: 1.17576px; }
        .line.thick      { stroke-width: 1.44px; }

        .dot.xx-thin     { stroke-width: 0.64008px; }
        .dot.x-thin      { stroke-width: 0.96px; }
        .dot.thin        { stroke-width: 1.27992px; }
        .dot.semi-thin   { stroke-width: 1.56768px; }
        .dot             { stroke-width: 1.92px; }
        .dot.semi-thick  { stroke-width: 2.35152px; }
        .dot.thick       { stroke-width: 2.88px; }

        .stroke-1     { stroke-width: 0.12px; stroke-linecap: round; }
        .stroke-2     { stroke-width: 0.24px; stroke-linecap: round; }
        .stroke-3     { stroke-width: 0.36px; stroke-linecap: round; }
        .stroke-4     { stroke-width: 0.48px; stroke-linecap: round; }
        .stroke-5     { stroke-width: 0.6px; stroke-linecap: round; }
        .stroke-6     { stroke-width: 0.72px; stroke-linecap: round; }
        .stroke-7     { stroke-width: 0.84px; stroke-linecap: round; }
        .stroke-8     { stroke-width: 0.96px; stroke-linecap: round; }
        .stroke-9     { stroke-width: 1.08px; stroke-linecap: round; }
        .stroke-10    { stroke-width: 1.2px; stroke-linecap: round; }

        .blue  { stroke: #b3b3ff; }
        .red   { stroke: #ff9999; }
        .green { stroke: #b3ffb3; }
        .gray  { stroke: #b3b3b3; }

        .black         { stroke: #000000; }
        .half-black    { stroke: #808080; }
        .quarter-black { stroke: #c0c0c0; }

        .light.blue  { stroke: #d9d9ff; }
        .light.red   { stroke: #ffcccc; }
        .light.green { stroke: #d9ffd9; }
        .light.gray  { stroke: #d9d9d9; }

        .dark.blue  { stroke: #6767ff; }
        .dark.red   { stroke: #ff3333; }
        .dark.green { stroke: #67ff67; }
        .dark.gray  { stroke: #676767; }

        .alternate-blue  { stroke: #6767ff; opacity: 0.5; }
        .alternate-red   { stroke: #ff3333; opacity: 0.5; }
        .alternate-green { stroke: #67ff67; opacity: 0.5; }
        .alternate-gray  { stroke: #676767; opacity: 0.5; }

        .gray20 { stroke: #333333; }
        .gray40 { stroke: #666666; }
        .gray60 { stroke: #999999; }
        .gray80 { stroke: #cccccc; }
</style>
  <style>        #lines line {
            stroke: #000000; stroke-width: 0.24px;
        }
        #grid-1 line, #grid-1-pattern line {
            stroke: #000000; stroke-width: 0.72px; stroke-linecap: butt;
        }
        #grid-2 line, #grid-2-pattern line {
            stroke: #000000; stroke-width: 0.72px; stroke-linecap: butt;
        }
        #grid-3 line, #grid-3-pattern line {
            stroke: #000000; stroke-width: 0.72px; stroke-linecap: butt;
        }
        #grid-4 line, #grid-4-pattern line {
            stroke: #000000; stroke-width: 0.72px; stroke-linecap: butt;
        }
</style>
  <defs/>
  <g id="lines">
    <line x1="0.000" x2="595.276" y1="8.032" y2="8.032"/>
    <line x1="0.000" x2="595.276" y1="29.764" y2="29.764"/>
    <line x1="0.000" x2="595.276" y1="51.496" y2="51.496"/>
    <line x1="0.000" x2="595.276" y1="73.228" y2="73.228"/>
    <line x1="0.000" x2="595.276" y1="94.961" y2="94.961"/>
    <line x1="0.000" x2="595.276" y1="116.693" y2="116.693"/>
    <line x1="0.000" x2="595.276" y1="138.425" y2="138.425"/>
    <line x1="0.000" x2="595.276" y1="160.158" y2="160.158"/>
    <line x1="0.000" x2="595.276" y1="181.890" y2="181.890"/>
    <line x1="0.000" x2="595.276" y1="203.622" y2="203.622"/>
    <line x1="0.000" x2="595.276" y1="225.354" y2="225.354"/>
    <line x1="0.000" x2="595.276" y1="247.087" y2="247.087"/>
    <line x1="0.000" x2="595.276" y1="268.819" y2="268.819"/>
    <line x1="0.000" x2="595.276" y1="290.551" y2="290.551"/>
    <line x1="0.000" x2="595.276" y1="312.284" y2="312.284"/>
    <line x1="0.000" x2="595.276" y1="334.016" y2="334.016"/>
    <line x1="0.000" x2="595.276" y1="355.748" y2="355.748"/>
    <line x1="0.000" x2="595.276" y1="377.480" y2="377.480"/>
    <line x1="0.000" x2="595.276" y1="399.213" y2="399.213"/>
    <line x1="0.000" x2="595.276" y1="420.945" y2="420.945"/>
    <line x1="0.000" x2="595.276" y1="442.677" y2="442.677"/>
    <line x1="0.000" x2="595.276" y1="464.410" y2="464.410"/>
    <line x1="0.000" x2="595.276" y1="486.142" y2="486.142"/>
    <line x1="0.000" x2="595.276" y1="507.874" y2="507.874"/>
    <line x1="0.000" x2="595.276" y1="529.606" y2="529.606"/>
    <line x1="0.000" x2="595.276" y1="551.339" y2="551.339"/>
    <line x1="0.000" x2="595.276" y1="573.071" y2="573.071"/>
    <line x1="0.000" x2="595.276" y1="594.803" y2="594.803"/>
    <line x1="0.000" x2="595.276" y1="616.536" y2="616.536"/>
    <line x1="0.000" x2="595.276" y1="638.268" y2="638.268"/>
    <line x1="0.000" x2="595.276" y1="660.000" y2="660.000"/>
    <line x1="0.000" x2="595.276" y1="681.732" y2="681.732"/>
    <line x1="0.000" x2="595.276" y1="703.465" y2="703.465"/>
    <line x1="0.000" x2="595.276" y1="725.197" y2="725.197"/>
    <line x1="0.000" x2="595.276" y1="746.929" y2="746.929"/>
    <line x1="0.000" x2="595.276" y1="768.662" y2="768.662"/>
    <line x1="0.000" x2="595.276" y1="790.394" y2="790.394"/>
    <line x1="0.000" x2="595.276" y1="812.126" y2="812.126"/>
    <line x1="0.000" x2="595.276" y1="833.858" y2="833.858"/>
  </g>
  <g id="grid-1">
    <line x1="15.118" x2="15.118" y1="0.428" y2="841.462" stroke-dasharray="0.730 2.892" stroke-dashoffset="0.005"/>
    <line x1="36.851" x2="36.851" y1="0.428" y2="841.462" stroke-dasharray="0.730 2.892" stroke-dashoffset="0.005"/>
    <line x1="58.583" x2="58.583" y1="0.428" y2="841.462" stroke-dasharray="0.730 2.892" stroke-dashoffset="0.005"/>
    <line x1="80.315" x2="80.315" y1="0.428" y2="841.462" stroke-dasharray="0.730 2.892" stroke-dashoffset="0.005"/>
    <line x1="102.047" x2="102.047" y1="0.428" y2="841.462" stroke-dasharray="0.730 2.892" stroke-dashoffset="0.005"/>
    <line x1="123.780" x2="123.780" y1="0.428" y2="841.462" stroke-dasharray="0.730 2.892" stroke-dashoffset="0.005"/>
    <line x1="145.512" x2="145.512" y1="0.428" y2="841.462" stroke-dasharray="0.730 2.892" stroke-dashoffset="0.005"/>
    <line x1="167.244" x2="167.244" y1="0.428" y2="841.462" stroke-dasharray="0.730 2.892" stroke-dashoffset="0.005"/>
    <line x1="188.977" x2="188.977" y1="0.428" y2="841.462" stroke-dasharray="0.730 2.892" stroke-dashoffset="0.005"/>
    <line x1="210.709" x2="210.709" y1="0.428" y2="841.462" stroke-dasharray="0.730 2.892" stroke-dashoffset="0.005"/>
    <line x1="232.441" x2="232.441" y1="0.428" y2="841.462" stroke-dasharray="0.730 2.892" stroke-dashoffset="0.005"/>
    <line x1="254.173" x2="254.173" y1="0.428" y2="841.462" stroke-dasharray="0.730 2.892" stroke-dashoffset="0.005"/>
    <line x1="275.906" x2="275.906" y1="0.428" y2="841.462" stroke-dasharray="0.730 2.892" stroke-dashoffset="0.005"/>
    <line x1="297.638" x2="297.638" y1="0.428" y2="841.462" stroke-dasharray="0.730 2.892" stroke-dashoffset="0.005"/>
    <line x1="319.370" x2="319.370" y1="0.428" y2="841.462" stroke-dasharray="0.730 2.892" stroke-dashoffset="0.005"/>
    <line x1="341.103" x2="341.103" y1="0.428" y2="841.462" stroke-dasharray="0.730 2.892" stroke-dashoffset="0.005"/>
    <line x1="362.835" x2="362.835" y1="0.428" y2="841.462" stroke-dasharray="0.730 2.892" stroke-dashoffset="0.005"/>
    <line x1="384.567" x2="384.567" y1="0.428" y2="841.462" stroke-dasharray="0.730 2.892" stroke-dashoffset="0.005"/>
    <line x1="406.299" x2="406.299" y1="0.428" y2="841.462" stroke-dasharray="0.730 2.892" stroke-dashoffset="0.005"/>
    <line x1="428.032" x2="428.032" y1="0.428" y2="841.462" stroke-dasharray="0.730 2.892" stroke-dashoffset="0.005"/>
    <line x1="449.764" x2="449.764" y1="0.428" y2="841.462" stroke-dasharray="0.730 2.892" stroke-dashoffset="0.005"/>
    <line x1="471.496" x2="471.496" y1="0.428" y2="841.462" stroke-dasharray="0.730 2.892" stroke-dashoffset="0.005"/>
    <line x1="493.229" x2="493.229" y1="0.428" y2="841.462" stroke-dasharray="0.730 2.892" stroke-dashoffset="0.005"/>
    <line x1="514.961" x2="514.961" y1="0.428" y2="841.462" stroke-dasharray="0.730 2.892" stroke-dashoffset="0.005"/>
    <line x1="536.693" x2="536.693" y1="0.428" y2="841.462" stroke-dasharray="0.730 2.892" stroke-dashoffset="0.005"/>
    <line x1="558.425" x2="558.425" y1="0.428" y2="841.462" stroke-dasharray="0.730 2.892" stroke-dashoffset="0.005"/>
    <line x1="580.158" x2="580.158" y1="0.428" y2="841.462" stroke-dasharray="0.730 2.892" stroke-dashoffset="0.005"/>
  </g>
  <g id="grid-2">
    <line x1="2.340" x2="592.936" y1="15.276" y2="15.276" stroke-dasharray="0.730 2.375" stroke-dashoffset="0.005"/>
    <line x1="2.340" x2="592.936" y1="37.008" y2="37.008" stroke-dasharray="0.730 2.375" stroke-dashoffset="0.005"/>
    <line x1="2.340" x2="592.936" y1="58.740" y2="58.740" stroke-dasharray="0.730 2.375" stroke-dashoffset="0.005"/>
    <line x1="2.340" x2="592.936" y1="80.473" y2="80.473" stroke-dasharray="0.730 2.375" stroke-dashoffset="0.005"/>
    <line x1="2.340" x2="592.936" y1="102.205" y2="102.205" stroke-dasharray="0.730 2.375" stroke-dashoffset="0.005"/>
    <line x1="2.340" x2="592.936" y1="123.937" y2="123.937" stroke-dasharray="0.730 2.375" stroke-dashoffset="0.005"/>
    <line x1="2.340" x2="592.936" y1="145.669" y2="145.669" stroke-dasharray="0.730 2.375" stroke-dashoffset="0.005"/>
    <line x1="2.340" x2="592.936" y1="167.402" y2="167.402" stroke-dasharray="0.730 2.375" stroke-dashoffset="0.005"/>
    <line x1="2.340" x2="592.936" y1="189.134" y2="189.134" stroke-dasharray="0.730 2.375" stroke-dashoffset="0.005"/>
    <line x1="2.340" x2="592.936" y1="210.866" y2="210.866" stroke-dasharray="0.730 2.375" stroke-dashoffset="0.005"/>
    <line x1="2.340" x2="592.936" y1="232.599" y2="232.599" stroke-dasharray="0.730 2.375" stroke-dashoffset="0.005"/>
    <line x1="2.340" x2="592.936" y1="254.331" y2="254.331" stroke-dasharray="0.730 2.375" stroke-dashoffset="0.005"/>
    <line x1="2.340" x2="592.936" y1="276.063" y2="276.063" stroke-dasharray="0.730 2.375" stroke-dashoffset="0.005"/>
    <line x1="2.340" x2="592.936" y1="297.795" y2="297.795" stroke-dasharray="0.730 2.375" stroke-dashoffset="0.005"/>
    <line x1="2.340" x2="592.936" y1="319.528" y2="319.528" stroke-dasharray="0.730 2.375" stroke-dashoffset="0.005"/>
    <line x1="2.340" x2="592.936" y1="341.260" y2="341.260" stroke-dasharray="0.730 2.375" stroke-dashoffset="0.005"/>
    <line x1="2.340" x2="592.936" y1="362.992" y2="362.992" stroke-dasharray="0.730 2.375" stroke-dashoffset="0.005"/>
    <line x1="2.340" x2="592.936" y1="384.725" y2="384.725" stroke-dasharray="0.730 2.375" stroke-dashoffset="0.005"/>
    <line x1="2.340" x2="592.936" y1="406.457" y2="406.457" stroke-dasharray="0.730 2.375" stroke-dashoffset="0.005"/>
    <line x1="2.340" x2="592.936" y1="428.189" y2="428.189" stroke-dasharray="0.730 2.375" stroke-dashoffset="0.005"/>
    <line x1="2.340" x2="592.936" y1="449.921" y2="449.921" stroke-dasharray="0.730 2.375" stroke-dashoffset="0.005"/>
    <line x1="2.340" x2="592.936" y1="471.654" y2="471.654" stroke-dasharray="0.730 2.375" stroke-dashoffset="0.005"/>
    <line x1="2.340" x2="592.936" y1="493.386" y2="493.386" stroke-dasharray="0.730 2.375" stroke-dashoffset="0.005"/>
    <line x1="2.340" x2="592.936" y1="515.118" y2="515.118" stroke-dasharray="0.730 2.375" stroke-dashoffset="0.005"/>
    <line x1="2.340" x2="592.936" y1="536.851" y2="536.851" stroke-dasharray="0.730 2.375" stroke-dashoffset="0.005"/>
    <line x1="2.340" x2="592.936" y1="558.583" y2="558.583" stroke-dasharray="0.730 2.375" stroke-dashoffset="0.005"/>
    <line x1="2.340" x2="592.936" y1="580.315" y2="580.315" stroke-dasharray="0.730 2.375" stroke-dashoffset="0.005"/>
    <line x1="2.340" x2="592.936" y1="602.047" y2="602.047" stroke-dasharray="0.730 2.375" stroke-dashoffset="0.005"/>
    <line x1="2.340" x2="592.936" y1="623.780" y2="623.780" stroke-dasharray="0.730 2.375" stroke-dashoffset="0.005"/>
    <line x1="2.340" x2="592.936" y1="645.512" y2="645.512" stroke-dasharray="0.730 2.375" stroke-dashoffset="0.005"/>
    <line x1="2.340" x2="592.936" y1="667.244" y2="667.244" stroke-dasharray="0.730 2.375" stroke-dashoffset="0.005"/>
    <line x1="2.340" x2="592.936" y1="688.976" y2="688.976" stroke-dasharray="0.730 2.375" stroke-dashoffset="0.005"/>
    <line x1="2.340" x2="592.936" y1="710.709" y2="710.709" stroke-dasharray="0.730 2.375" stroke-dashoffset="0.005"/>
    <line x1="2.340" x2="592.936" y1="732.441" y2="732.441" stroke-dasharray="0.730 2.375" stroke-dashoffset="0.005"/>
    <line x1="2.340" x2="592.936" y1="754.173" y2="754.173" stroke-dasharray="0.730 2.375" stroke-dashoffset="0.005"/>
    <line x1="2.340" x2="592.936" y1="775.906" y2="775.906" stroke-dasharray="0.730 2.375" stroke-dashoffset="0.005"/>
    <line x1="2.340" x2="592.936" y1="797.638" y2="797.638" stroke-dasharray="0.730 2.375" stroke-dashoffset="0.005"/>
    <line x1="2.340" x2="592.936" y1="819.370" y2="819.370" stroke-dasharray="0.730 2.375" stroke-dashoffset="0.005"/>
    <line x1="2.340" x2="592.936" y1="841.102" y2="841.102" stroke-dasharray="0.730 2.375" stroke-dashoffset="0.005"/>
  </g>
  <g id="grid-3">
    <line x1="2.340" x2="592.936" y1="0.788" y2="0.788" stroke-dasharray="0.730 2.375" stroke-dashoffset="0.005"/>
    <line x1="2.340" x2="592.936" y1="22.520" y2="22.520" stroke-dasharray="0.730 2.375" stroke-dashoffset="0.005"/>
    <line x1="2.340" x2="592.936" y1="44.252" y2="44.252" stroke-dasharray="0.730 2.375" stroke-dashoffset="0.005"/>
    <line x1="2.340" x2="592.936" y1="65.984" y2="65.984" stroke-dasharray="0.730 2.375" stroke-dashoffset="0.005"/>
    <line x1="2.340" x2="592.936" y1="87.717" y2="87.717" stroke-dasharray="0.730 2.375" stroke-dashoffset="0.005"/>
    <line x1="2.340" x2="592.936" y1="109.449" y2="109.449" stroke-dasharray="0.730 2.375" stroke-dashoffset="0.005"/>
    <line x1="2.340" x2="592.936" y1="131.181" y2="131.181" stroke-dasharray="0.730 2.375" stroke-dashoffset="0.005"/>
    <line x1="2.340" x2="592.936" y1="152.914" y2="152.914" stroke-dasharray="0.730 2.375" stroke-dashoffset="0.005"/>
    <line x1="2.340" x2="592.936" y1="174.646" y2="174.646" stroke-dasharray="0.730 2.375" stroke-dashoffset="0.005"/>
    <line x1="2.340" x2="592.936" y1="196.378" y2="196.378" stroke-dasharray="0.730 2.375" stroke-dashoffset="0.005"/>
    <line x1="2.340" x2="592.936" y1="218.110" y2="218.110" stroke-dasharray="0.730 2.375" stroke-dashoffset="0.005"/>
    <line x1="2.340" x2="592.936" y1="239.843" y2="239.843" stroke-dasharray="0.730 2.375" stroke-dashoffset="0.005"/>
    <line x1="2.340" x2="592.936" y1="261.575" y2="261.575" stroke-dasharray="0.730 2.375" stroke-dashoffset="0.005"/>
    <line x1="2.340" x2="592.936" y1="283.307" y2="283.307" stroke-dasharray="0.730 2.375" stroke-dashoffset="0.005"/>
    <line x1="2.340" x2="592.936" y1="305.039" y2="305.039" stroke-dasharray="0.730 2.375" stroke-dashoffset="0.005"/>
    <line x1="2.340" x2="592.936" y1="326.772" y2="326.772" stroke-dasharray="0.730 2.375" stroke-dashoffset="0.005"/>
    <line x1="2.340" x2="592.936" y1="348.504" y2="348.504" stroke-dasharray="0.730 2.375" stroke-dashoffset="0.005"/>
    <line x1="2.340" x2="592.936" y1="370.236" y2="370.236" stroke-dasharray="0.730 2.375" stroke-dashoffset="0.005"/>
    <line x1="2.340" x2="592.936" y1="391.969" y2="391.969" stroke-dasharray="0.730 2.375" stroke-dashoffset="0.005"/>
    <line x1="2.340" x2="592.936" y1="413.701" y2="413.701" stroke-dasharray="0.730 2.375" stroke-dashoffset="0.005"/>
    <line x1="2.340" x2="592.936" y1="435.433" y2="435.433" stroke-dasharray="0.730 2.375" stroke-dashoffset="0.005"/>
    <line x1="2.340" x2="592.936" y1="457.165" y2="457.165" stroke-dasharray="0.730 2.375" stroke-dashoffset="0.005"/>
    <line x1="2.340" x2="592.936" y1="478.898" y2="478.898" stroke-dasharray="0.730 2.375" stroke-dashoffset="0.005"/>
    <line x1="2.340" x2="592.936" y1="500.630" y2="500.630" stroke-dasharray="0.730 2.375" stroke-dashoffset="0.005"/>
    <line x1="2.340" x2="592.936" y1="522.362" y2="522.362" stroke-dasharray="0.730 2.375" stroke-dashoffset="0.005"/>
    <line x1="2.340" x2="592.936" y1="544.095" y2="544.095" stroke-dasharray="0.730 2.375" stroke-dashoffset="0.005"/>
    <line x1="2.340" x2="592.936" y1="565.827" y2="565.827" stroke-dasharray="0.730 2.375" stroke-dashoffset="0.005"/>
    <line x1="2.340" x2="592.936" y1="587.559" y2="587.559" stroke-dasharray="0.730 2.375" stroke-dashoffset="0.005"/>
    <line x1="2.340" x2="592.936" y1="609.291" y2="609.291" stroke-dasharray="0.730 2.375" stroke-dashoffset="0.005"/>
    <line x1="2.340" x2="592.936" y1="631.024" y2="631.024" stroke-dasharray="0.730 2.375" stroke-dashoffset="0.005"/>
    <line x1="2.340" x2="592.936" y1="652.756" y2="652.756" stroke-dasharray="0.730 2.375" stroke-dashoffset="0.005"/>
    <line x1="2.340" x2="592.936" y1="674.488" y2="674.488" stroke-dasharray="0.730 2.375" stroke-dashoffset="0.005"/>
    <line x1="2.340" x2="592.936" y1="696.221" y2="696.221" stroke-dasharray="0.730 2.375" stroke-dashoffset="0.005"/>
    <line x1="2.340" x2="592.936" y1="717.953" y2="717.953" stroke-dasharray="0.730 2.375" stroke-dashoffset="0.005"/>
    <line x1="2.340" x2="592.936" y1="739.685" y2="739.685" stroke-dasharray="0.730 2.375" stroke-dashoffset="0.005"/>
    <line x1="2.340" x2="592.936" y1="761.417" y2="761.417" stroke-dasharray="0.730 2.375" stroke-dashoffset="0.005"/>
    <line x1="2.340" x2="592.936" y1="783.150" y2="783.150" stroke-dasharray="0.730 2.375" stroke-dashoffset="0.005"/>
    <line x1="2.340" x2="592.936" y1="804.882" y2="804.882" stroke-dasharray="0.730 2.375" stroke-dashoffset="0.005"/>
    <line x1="2.340" x2="592.936" y1="826.614" y2="826.614" stroke-dasharray="0.730 2.375" stroke-dashoffset="0.005"/>
  </g>
  <g id="grid-4">
    <line x1="15.118" x2="15.118" y1="7.312" y2="834.578" stroke-dasharray="1.450 20.282" stroke-dashoffset="0.005"/>
    <line x1="36.851" x2="36.851" y1="7.312" y2="834.578" stroke-dasharray="1.450 20.282" stroke-dashoffset="0.005"/>
    <line x1="58.583" x2="58.583" y1="7.312" y2="834.578" stroke-dasharray="1.450 20.282" stroke-dashoffset="0.005"/>
    <line x1="80.315" x2="80.315" y1="7.312" y2="834.578" stroke-dasharray="1.450 20.282" stroke-dashoffset="0.005"/>
    <line x1="102.047" x2="102.047" y1="7.312" y2="834.578" stroke-dasharray="1.450 20.282" stroke-dashoffset="0.005"/>
    <line x1="123.780" x2="123.780" y1="7.312" y2="834.578" stroke-dasharray="1.450 20.282" stroke-dashoffset="0.005"/>
    <line x1="145.512" x2="145.512" y1="7.312" y2="834.578" stroke-dasharray="1.450 20.282" stroke-dashoffset="0.005"/>
    <line x1="167.244" x2="167.244" y1="7.312" y2="834.578" stroke-dasharray="1.450 20.282" stroke-dashoffset="0.005"/>
    <line x1="188.977" x2="188.977" y1="7.312" y2="834.578" stroke-dasharray="1.450 20.282" stroke-dashoffset="0.005"/>
    <line x1="210.709" x2="210.709" y1="7.312" y2="834.578" stroke-dasharray="1.450 20.282" stroke-dashoffset="0.005"/>
    <line x1="232.441" x2="232.441" y1="7.312" y2="834.578" stroke-dasharray="1.450 20.282" stroke-dashoffset="0.005"/>
    <line x1="254.173" x2="254.173" y1="7.312" y2="834.578" stroke-dasharray="1.450 20.282" stroke-dashoffset="0.005"/>
    <line x1="275.906" x2="275.906" y1="7.312" y2="834.578" stroke-dasharray="1.450 20.282" stroke-dashoffset="0.005"/>
    <line x1="297.638" x2="297.638" y1="7.312" y2="834.578" stroke-dasharray="1.450 20.282" stroke-dashoffset="0.005"/>
    <line x1="319.370" x2="319.370" y1="7.312" y2="834.578" stroke-dasharray="1.450 20.282" stroke-dashoffset="0.005"/>
    <line x1="341.103" x2="341.103" y1="7.312" y2="834.578" stroke-dasharray="1.450 20.282" stroke-dashoffset="0.005"/>
    <line x1="362.835" x2="362.835" y1="7.312" y2="834.578" stroke-dasharray="1.450 20.282" stroke-dashoffset="0.005"/>
    <line x1="384.567" x2="384.567" y1="7.312" y2="834.578" stroke-dasharray="1.450 20.282" stroke-dashoffset="0.005"/>
    <line x1="406.299" x2="406.299" y1="7.312" y2="834.578" stroke-dasharray="1.450 20.282" stroke-dashoffset="0.005"/>
    <line x1="428.032" x2="428.032" y1="7.312" y2="834.578" stroke-dasharray="1.450 20.282" stroke-dashoffset="0.005"/>
    <line x1="449.764" x2="449.764" y1="7.312" y2="834.578" stroke-dasharray="1.450 20.282" stroke-dashoffset="0.005"/>
    <line x1="471.496" x2="471.496" y1="7.312" y2="834.578" stroke-dasharray="1.450 20.282" stroke-dashoffset="0.005"/>
    <line x1="493.229" x2="493.229" y1="7.312" y2="834.578" stroke-dasharray="1.450 20.282" stroke-dashoffset="0.005"/>
    <line x1="514.961" x2="514.961" y1="7.312" y2="834.578" stroke-dasharray="1.450 20.282" stroke-dashoffset="0.005"/>
    <line x1="536.693" x2="536.693" y1="7.312" y2="834.578" stroke-dasharray="1.450 20.282" stroke-dashoffset="0.005"/>
    <line x1="558.425" x2="558.425" y1="7.312" y2="834.578" stroke-dasharray="1.450 20.282" stroke-dashoffset="0.005"/>
    <line x1="580.158" x2="580.158" y1="7.312" y2="834.578" stroke-dasharray="1.450 20.282" stroke-dashoffset="0.005"/>
  </g>
  <rect x="203.138" y="815.89" width="189" height="12" fill="#ffffff" stroke="none" stroke-width="0px"/>
  <text x="297.638" y="823.89" text-anchor="middle" fill="#808080" stroke="none" stroke-width="0" style="font-family: &quot;Courier&quot;, &quot;Courier New&quot;, monospace; font-size: 6pt;">https://github.com/dse/printable-paper</text>
</svg>
