<?xml version="1.0" encoding="UTF-8"?>
<svg xmlns="http://www.w3.org/2000/svg" width="306.000pt" height="396.000pt" viewBox="0.000 0.000 306.000 396.000">
  <style>
        .line, .regular-line, .major-line, .feint-line,
        .dot,  .regular-dot,  .major-dot,  .feint-dot,
        .margin-line {
            stroke-linecap: round; stroke-linejoin: round;
        }
        .stroke-linecap-butt    { stroke-linecap:  butt;   }
        .stroke-linecap-round   { stroke-linecap:  round;  }
        .stroke-linecap-square  { stroke-linecap:  square; }
        .stroke-linejoin-butt   { stroke-linejoin: butt;   }
        .stroke-linejoin-round  { stroke-linejoin: round;  }
        .stroke-linejoin-square { stroke-linejoin: square; }
        .rectangle { fill: #ffffff; }


        .regular-line { stroke-width: 0.24px; opacity: 1; }
        .major-line   { stroke-width: 0.339411254969543px; opacity: 1;   }
        .feint-line   { stroke-width: 0.169705627484771px; opacity: 1;   }
        .regular-dot  { stroke-width: 0.96px; opacity: 1;  }
        .major-dot    { stroke-width: 1.92px; opacity: 1;    }
        .feint-dot    { stroke-width: 0.48px; opacity: 1;    }
        .margin-line  { stroke-width: 0.24px; opacity: 1;  }
        .regular-line { stroke: #000000; }
        .major-line   { stroke: #000000;   }
        .feint-line   { stroke: #000000;   }
        .regular-dot  { stroke: #000000; }
        .major-dot    { stroke: #000000;   }
        .feint-dot    { stroke: #000000;   }
        .margin-line  { stroke: #000000;  }
        line.regular-dot {
            stroke-linecap: butt;
        }
        line.major-dot {
            stroke-linecap: butt;
        }
        line.feint-dot {
            stroke-linecap: butt;
        }
  </style>
  <defs/>
  <g id="lines">
    <line x1="0.000" x2="306.000" y1="3.600" y2="3.600" class="regular-line"/>
    <line x1="0.000" x2="306.000" y1="25.200" y2="25.200" class="regular-line"/>
    <line x1="0.000" x2="306.000" y1="46.800" y2="46.800" class="regular-line"/>
    <line x1="0.000" x2="306.000" y1="68.400" y2="68.400" class="regular-line"/>
    <line x1="0.000" x2="306.000" y1="90.000" y2="90.000" class="regular-line"/>
    <line x1="0.000" x2="306.000" y1="111.600" y2="111.600" class="regular-line"/>
    <line x1="0.000" x2="306.000" y1="133.200" y2="133.200" class="regular-line"/>
    <line x1="0.000" x2="306.000" y1="154.800" y2="154.800" class="regular-line"/>
    <line x1="0.000" x2="306.000" y1="176.400" y2="176.400" class="regular-line"/>
    <line x1="0.000" x2="306.000" y1="198.000" y2="198.000" class="regular-line"/>
    <line x1="0.000" x2="306.000" y1="219.600" y2="219.600" class="regular-line"/>
    <line x1="0.000" x2="306.000" y1="241.200" y2="241.200" class="regular-line"/>
    <line x1="0.000" x2="306.000" y1="262.800" y2="262.800" class="regular-line"/>
    <line x1="0.000" x2="306.000" y1="284.400" y2="284.400" class="regular-line"/>
    <line x1="0.000" x2="306.000" y1="306.000" y2="306.000" class="regular-line"/>
    <line x1="0.000" x2="306.000" y1="327.600" y2="327.600" class="regular-line"/>
    <line x1="0.000" x2="306.000" y1="349.200" y2="349.200" class="regular-line"/>
    <line x1="0.000" x2="306.000" y1="370.800" y2="370.800" class="regular-line"/>
    <line x1="0.000" x2="306.000" y1="392.400" y2="392.400" class="regular-line"/>
  </g>
  <g id="grid-1">
    <line x1="1.800" x2="1.800" y1="-0.480" y2="396.480" class="regular-dot" stroke-dasharray="0.960 2.640" stroke-dashoffset="0.000"/>
    <line x1="23.400" x2="23.400" y1="-0.480" y2="396.480" class="regular-dot" stroke-dasharray="0.960 2.640" stroke-dashoffset="0.000"/>
    <line x1="45.000" x2="45.000" y1="-0.480" y2="396.480" class="regular-dot" stroke-dasharray="0.960 2.640" stroke-dashoffset="0.000"/>
    <line x1="66.600" x2="66.600" y1="-0.480" y2="396.480" class="regular-dot" stroke-dasharray="0.960 2.640" stroke-dashoffset="0.000"/>
    <line x1="88.200" x2="88.200" y1="-0.480" y2="396.480" class="regular-dot" stroke-dasharray="0.960 2.640" stroke-dashoffset="0.000"/>
    <line x1="109.800" x2="109.800" y1="-0.480" y2="396.480" class="regular-dot" stroke-dasharray="0.960 2.640" stroke-dashoffset="0.000"/>
    <line x1="131.400" x2="131.400" y1="-0.480" y2="396.480" class="regular-dot" stroke-dasharray="0.960 2.640" stroke-dashoffset="0.000"/>
    <line x1="153.000" x2="153.000" y1="-0.480" y2="396.480" class="regular-dot" stroke-dasharray="0.960 2.640" stroke-dashoffset="0.000"/>
    <line x1="174.600" x2="174.600" y1="-0.480" y2="396.480" class="regular-dot" stroke-dasharray="0.960 2.640" stroke-dashoffset="0.000"/>
    <line x1="196.200" x2="196.200" y1="-0.480" y2="396.480" class="regular-dot" stroke-dasharray="0.960 2.640" stroke-dashoffset="0.000"/>
    <line x1="217.800" x2="217.800" y1="-0.480" y2="396.480" class="regular-dot" stroke-dasharray="0.960 2.640" stroke-dashoffset="0.000"/>
    <line x1="239.400" x2="239.400" y1="-0.480" y2="396.480" class="regular-dot" stroke-dasharray="0.960 2.640" stroke-dashoffset="0.000"/>
    <line x1="261.000" x2="261.000" y1="-0.480" y2="396.480" class="regular-dot" stroke-dasharray="0.960 2.640" stroke-dashoffset="0.000"/>
    <line x1="282.600" x2="282.600" y1="-0.480" y2="396.480" class="regular-dot" stroke-dasharray="0.960 2.640" stroke-dashoffset="0.000"/>
    <line x1="304.200" x2="304.200" y1="-0.480" y2="396.480" class="regular-dot" stroke-dasharray="0.960 2.640" stroke-dashoffset="0.000"/>
  </g>
  <g id="grid-2">
    <line x1="1.320" x2="304.680" y1="10.800" y2="10.800" class="regular-dot" stroke-dasharray="0.960 2.126" stroke-dashoffset="0.000"/>
    <line x1="1.320" x2="304.680" y1="32.400" y2="32.400" class="regular-dot" stroke-dasharray="0.960 2.126" stroke-dashoffset="0.000"/>
    <line x1="1.320" x2="304.680" y1="54.000" y2="54.000" class="regular-dot" stroke-dasharray="0.960 2.126" stroke-dashoffset="0.000"/>
    <line x1="1.320" x2="304.680" y1="75.600" y2="75.600" class="regular-dot" stroke-dasharray="0.960 2.126" stroke-dashoffset="0.000"/>
    <line x1="1.320" x2="304.680" y1="97.200" y2="97.200" class="regular-dot" stroke-dasharray="0.960 2.126" stroke-dashoffset="0.000"/>
    <line x1="1.320" x2="304.680" y1="118.800" y2="118.800" class="regular-dot" stroke-dasharray="0.960 2.126" stroke-dashoffset="0.000"/>
    <line x1="1.320" x2="304.680" y1="140.400" y2="140.400" class="regular-dot" stroke-dasharray="0.960 2.126" stroke-dashoffset="0.000"/>
    <line x1="1.320" x2="304.680" y1="162.000" y2="162.000" class="regular-dot" stroke-dasharray="0.960 2.126" stroke-dashoffset="0.000"/>
    <line x1="1.320" x2="304.680" y1="183.600" y2="183.600" class="regular-dot" stroke-dasharray="0.960 2.126" stroke-dashoffset="0.000"/>
    <line x1="1.320" x2="304.680" y1="205.200" y2="205.200" class="regular-dot" stroke-dasharray="0.960 2.126" stroke-dashoffset="0.000"/>
    <line x1="1.320" x2="304.680" y1="226.800" y2="226.800" class="regular-dot" stroke-dasharray="0.960 2.126" stroke-dashoffset="0.000"/>
    <line x1="1.320" x2="304.680" y1="248.400" y2="248.400" class="regular-dot" stroke-dasharray="0.960 2.126" stroke-dashoffset="0.000"/>
    <line x1="1.320" x2="304.680" y1="270.000" y2="270.000" class="regular-dot" stroke-dasharray="0.960 2.126" stroke-dashoffset="0.000"/>
    <line x1="1.320" x2="304.680" y1="291.600" y2="291.600" class="regular-dot" stroke-dasharray="0.960 2.126" stroke-dashoffset="0.000"/>
    <line x1="1.320" x2="304.680" y1="313.200" y2="313.200" class="regular-dot" stroke-dasharray="0.960 2.126" stroke-dashoffset="0.000"/>
    <line x1="1.320" x2="304.680" y1="334.800" y2="334.800" class="regular-dot" stroke-dasharray="0.960 2.126" stroke-dashoffset="0.000"/>
    <line x1="1.320" x2="304.680" y1="356.400" y2="356.400" class="regular-dot" stroke-dasharray="0.960 2.126" stroke-dashoffset="0.000"/>
    <line x1="1.320" x2="304.680" y1="378.000" y2="378.000" class="regular-dot" stroke-dasharray="0.960 2.126" stroke-dashoffset="0.000"/>
  </g>
  <g id="grid-3">
    <line x1="1.320" x2="304.680" y1="18.000" y2="18.000" class="regular-dot" stroke-dasharray="0.960 2.126" stroke-dashoffset="0.000"/>
    <line x1="1.320" x2="304.680" y1="39.600" y2="39.600" class="regular-dot" stroke-dasharray="0.960 2.126" stroke-dashoffset="0.000"/>
    <line x1="1.320" x2="304.680" y1="61.200" y2="61.200" class="regular-dot" stroke-dasharray="0.960 2.126" stroke-dashoffset="0.000"/>
    <line x1="1.320" x2="304.680" y1="82.800" y2="82.800" class="regular-dot" stroke-dasharray="0.960 2.126" stroke-dashoffset="0.000"/>
    <line x1="1.320" x2="304.680" y1="104.400" y2="104.400" class="regular-dot" stroke-dasharray="0.960 2.126" stroke-dashoffset="0.000"/>
    <line x1="1.320" x2="304.680" y1="126.000" y2="126.000" class="regular-dot" stroke-dasharray="0.960 2.126" stroke-dashoffset="0.000"/>
    <line x1="1.320" x2="304.680" y1="147.600" y2="147.600" class="regular-dot" stroke-dasharray="0.960 2.126" stroke-dashoffset="0.000"/>
    <line x1="1.320" x2="304.680" y1="169.200" y2="169.200" class="regular-dot" stroke-dasharray="0.960 2.126" stroke-dashoffset="0.000"/>
    <line x1="1.320" x2="304.680" y1="190.800" y2="190.800" class="regular-dot" stroke-dasharray="0.960 2.126" stroke-dashoffset="0.000"/>
    <line x1="1.320" x2="304.680" y1="212.400" y2="212.400" class="regular-dot" stroke-dasharray="0.960 2.126" stroke-dashoffset="0.000"/>
    <line x1="1.320" x2="304.680" y1="234.000" y2="234.000" class="regular-dot" stroke-dasharray="0.960 2.126" stroke-dashoffset="0.000"/>
    <line x1="1.320" x2="304.680" y1="255.600" y2="255.600" class="regular-dot" stroke-dasharray="0.960 2.126" stroke-dashoffset="0.000"/>
    <line x1="1.320" x2="304.680" y1="277.200" y2="277.200" class="regular-dot" stroke-dasharray="0.960 2.126" stroke-dashoffset="0.000"/>
    <line x1="1.320" x2="304.680" y1="298.800" y2="298.800" class="regular-dot" stroke-dasharray="0.960 2.126" stroke-dashoffset="0.000"/>
    <line x1="1.320" x2="304.680" y1="320.400" y2="320.400" class="regular-dot" stroke-dasharray="0.960 2.126" stroke-dashoffset="0.000"/>
    <line x1="1.320" x2="304.680" y1="342.000" y2="342.000" class="regular-dot" stroke-dasharray="0.960 2.126" stroke-dashoffset="0.000"/>
    <line x1="1.320" x2="304.680" y1="363.600" y2="363.600" class="regular-dot" stroke-dasharray="0.960 2.126" stroke-dashoffset="0.000"/>
    <line x1="1.320" x2="304.680" y1="385.200" y2="385.200" class="regular-dot" stroke-dasharray="0.960 2.126" stroke-dashoffset="0.000"/>
  </g>
  <g id="grid-4">
    <line x1="1.800" x2="1.800" y1="2.640" y2="393.360" class="regular-dot" stroke-dasharray="1.920 19.680" stroke-dashoffset="0.000"/>
    <line x1="23.400" x2="23.400" y1="2.640" y2="393.360" class="regular-dot" stroke-dasharray="1.920 19.680" stroke-dashoffset="0.000"/>
    <line x1="45.000" x2="45.000" y1="2.640" y2="393.360" class="regular-dot" stroke-dasharray="1.920 19.680" stroke-dashoffset="0.000"/>
    <line x1="66.600" x2="66.600" y1="2.640" y2="393.360" class="regular-dot" stroke-dasharray="1.920 19.680" stroke-dashoffset="0.000"/>
    <line x1="88.200" x2="88.200" y1="2.640" y2="393.360" class="regular-dot" stroke-dasharray="1.920 19.680" stroke-dashoffset="0.000"/>
    <line x1="109.800" x2="109.800" y1="2.640" y2="393.360" class="regular-dot" stroke-dasharray="1.920 19.680" stroke-dashoffset="0.000"/>
    <line x1="131.400" x2="131.400" y1="2.640" y2="393.360" class="regular-dot" stroke-dasharray="1.920 19.680" stroke-dashoffset="0.000"/>
    <line x1="153.000" x2="153.000" y1="2.640" y2="393.360" class="regular-dot" stroke-dasharray="1.920 19.680" stroke-dashoffset="0.000"/>
    <line x1="174.600" x2="174.600" y1="2.640" y2="393.360" class="regular-dot" stroke-dasharray="1.920 19.680" stroke-dashoffset="0.000"/>
    <line x1="196.200" x2="196.200" y1="2.640" y2="393.360" class="regular-dot" stroke-dasharray="1.920 19.680" stroke-dashoffset="0.000"/>
    <line x1="217.800" x2="217.800" y1="2.640" y2="393.360" class="regular-dot" stroke-dasharray="1.920 19.680" stroke-dashoffset="0.000"/>
    <line x1="239.400" x2="239.400" y1="2.640" y2="393.360" class="regular-dot" stroke-dasharray="1.920 19.680" stroke-dashoffset="0.000"/>
    <line x1="261.000" x2="261.000" y1="2.640" y2="393.360" class="regular-dot" stroke-dasharray="1.920 19.680" stroke-dashoffset="0.000"/>
    <line x1="282.600" x2="282.600" y1="2.640" y2="393.360" class="regular-dot" stroke-dasharray="1.920 19.680" stroke-dashoffset="0.000"/>
    <line x1="304.200" x2="304.200" y1="2.640" y2="393.360" class="regular-dot" stroke-dasharray="1.920 19.680" stroke-dashoffset="0.000"/>
  </g>
  <rect x="58.5" y="370" width="189" height="12" fill="#ffffff" stroke="none" stroke-width="0px"/>
  <text x="153" y="378" text-anchor="middle" fill="#000000" stroke="none" stroke-width="0" style="font-family: &quot;Courier&quot;, &quot;Courier New&quot;, monospace; font-size: 6pt;">https://github.com/dse/printable-paper</text>
</svg>
