<?xml version="1.0" encoding="UTF-8"?>
<svg xmlns="http://www.w3.org/2000/svg" width="612.000pt" height="792.000pt" viewBox="0.000 0.000 612.000 792.000">
  <style>        .line, .dot { stroke-linecap: round; }
        .stroke-linecap-butt { stroke-linecap: butt; }

        .rectangle { fill: #ffffff; }

        .line.xx-thin    { stroke-width: 0.32004px; }
        .line.x-thin     { stroke-width: 0.48px; }
        .line.thin       { stroke-width: 0.63996px; }
        .line.semi-thin  { stroke-width: 0.78384px; }
        .line            { stroke-width: 0.96px; }
        .line.semi-thick { stroke-width: 1.17576px; }
        .line.thick      { stroke-width: 1.44px; }

        .dot.xx-thin     { stroke-width: 0.64008px; }
        .dot.x-thin      { stroke-width: 0.96px; }
        .dot.thin        { stroke-width: 1.27992px; }
        .dot.semi-thin   { stroke-width: 1.56768px; }
        .dot             { stroke-width: 1.92px; }
        .dot.semi-thick  { stroke-width: 2.35152px; }
        .dot.thick       { stroke-width: 2.88px; }

        .stroke-1     { stroke-width: 0.12px; stroke-linecap: round; }
        .stroke-2     { stroke-width: 0.24px; stroke-linecap: round; }
        .stroke-3     { stroke-width: 0.36px; stroke-linecap: round; }
        .stroke-4     { stroke-width: 0.48px; stroke-linecap: round; }
        .stroke-5     { stroke-width: 0.6px; stroke-linecap: round; }
        .stroke-6     { stroke-width: 0.72px; stroke-linecap: round; }
        .stroke-7     { stroke-width: 0.84px; stroke-linecap: round; }
        .stroke-8     { stroke-width: 0.96px; stroke-linecap: round; }
        .stroke-9     { stroke-width: 1.08px; stroke-linecap: round; }
        .stroke-10    { stroke-width: 1.2px; stroke-linecap: round; }

        .blue  { stroke: #b3b3ff; }
        .red   { stroke: #ff9999; }
        .green { stroke: #b3ffb3; }
        .gray  { stroke: #b3b3b3; }

        .black         { stroke: #000000; }
        .half-black    { stroke: #808080; }
        .quarter-black { stroke: #c0c0c0; }

        .light.blue  { stroke: #d9d9ff; }
        .light.red   { stroke: #ffcccc; }
        .light.green { stroke: #d9ffd9; }
        .light.gray  { stroke: #d9d9d9; }

        .dark.blue  { stroke: #6767ff; }
        .dark.red   { stroke: #ff3333; }
        .dark.green { stroke: #67ff67; }
        .dark.gray  { stroke: #676767; }

        .alternate-blue  { stroke: #6767ff; opacity: 0.5; }
        .alternate-red   { stroke: #ff3333; opacity: 0.5; }
        .alternate-green { stroke: #67ff67; opacity: 0.5; }
        .alternate-gray  { stroke: #676767; opacity: 0.5; }

        .gray20 { stroke: #333333; }
        .gray40 { stroke: #666666; }
        .gray60 { stroke: #999999; }
        .gray80 { stroke: #cccccc; }
</style>
  <style>        #lines line {
            stroke: #000000; stroke-width: 0.24px;
        }
        #grid-1 line, #grid-1-pattern line {
            stroke: #000000; stroke-width: 0.72px; stroke-linecap: butt;
        }
        #grid-2 line, #grid-2-pattern line {
            stroke: #000000; stroke-width: 0.72px; stroke-linecap: butt;
        }
        #grid-3 line, #grid-3-pattern line {
            stroke: #000000; stroke-width: 0.72px; stroke-linecap: butt;
        }
        #grid-4 line, #grid-4-pattern line {
            stroke: #000000; stroke-width: 0.72px; stroke-linecap: butt;
        }
</style>
  <defs/>
  <g id="lines">
    <line x1="0.000" x2="612.000" y1="0.000" y2="0.000"/>
    <line x1="0.000" x2="612.000" y1="18.000" y2="18.000"/>
    <line x1="0.000" x2="612.000" y1="36.000" y2="36.000"/>
    <line x1="0.000" x2="612.000" y1="54.000" y2="54.000"/>
    <line x1="0.000" x2="612.000" y1="72.000" y2="72.000"/>
    <line x1="0.000" x2="612.000" y1="90.000" y2="90.000"/>
    <line x1="0.000" x2="612.000" y1="108.000" y2="108.000"/>
    <line x1="0.000" x2="612.000" y1="126.000" y2="126.000"/>
    <line x1="0.000" x2="612.000" y1="144.000" y2="144.000"/>
    <line x1="0.000" x2="612.000" y1="162.000" y2="162.000"/>
    <line x1="0.000" x2="612.000" y1="180.000" y2="180.000"/>
    <line x1="0.000" x2="612.000" y1="198.000" y2="198.000"/>
    <line x1="0.000" x2="612.000" y1="216.000" y2="216.000"/>
    <line x1="0.000" x2="612.000" y1="234.000" y2="234.000"/>
    <line x1="0.000" x2="612.000" y1="252.000" y2="252.000"/>
    <line x1="0.000" x2="612.000" y1="270.000" y2="270.000"/>
    <line x1="0.000" x2="612.000" y1="288.000" y2="288.000"/>
    <line x1="0.000" x2="612.000" y1="306.000" y2="306.000"/>
    <line x1="0.000" x2="612.000" y1="324.000" y2="324.000"/>
    <line x1="0.000" x2="612.000" y1="342.000" y2="342.000"/>
    <line x1="0.000" x2="612.000" y1="360.000" y2="360.000"/>
    <line x1="0.000" x2="612.000" y1="378.000" y2="378.000"/>
    <line x1="0.000" x2="612.000" y1="396.000" y2="396.000"/>
    <line x1="0.000" x2="612.000" y1="414.000" y2="414.000"/>
    <line x1="0.000" x2="612.000" y1="432.000" y2="432.000"/>
    <line x1="0.000" x2="612.000" y1="450.000" y2="450.000"/>
    <line x1="0.000" x2="612.000" y1="468.000" y2="468.000"/>
    <line x1="0.000" x2="612.000" y1="486.000" y2="486.000"/>
    <line x1="0.000" x2="612.000" y1="504.000" y2="504.000"/>
    <line x1="0.000" x2="612.000" y1="522.000" y2="522.000"/>
    <line x1="0.000" x2="612.000" y1="540.000" y2="540.000"/>
    <line x1="0.000" x2="612.000" y1="558.000" y2="558.000"/>
    <line x1="0.000" x2="612.000" y1="576.000" y2="576.000"/>
    <line x1="0.000" x2="612.000" y1="594.000" y2="594.000"/>
    <line x1="0.000" x2="612.000" y1="612.000" y2="612.000"/>
    <line x1="0.000" x2="612.000" y1="630.000" y2="630.000"/>
    <line x1="0.000" x2="612.000" y1="648.000" y2="648.000"/>
    <line x1="0.000" x2="612.000" y1="666.000" y2="666.000"/>
    <line x1="0.000" x2="612.000" y1="684.000" y2="684.000"/>
    <line x1="0.000" x2="612.000" y1="702.000" y2="702.000"/>
    <line x1="0.000" x2="612.000" y1="720.000" y2="720.000"/>
    <line x1="0.000" x2="612.000" y1="738.000" y2="738.000"/>
    <line x1="0.000" x2="612.000" y1="756.000" y2="756.000"/>
    <line x1="0.000" x2="612.000" y1="774.000" y2="774.000"/>
    <line x1="0.000" x2="612.000" y1="792.000" y2="792.000"/>
  </g>
  <g id="grid-1">
    <line x1="0.000" x2="0.000" y1="-0.360" y2="792.360" stroke-dasharray="0.730 2.270" stroke-dashoffset="0.005"/>
    <line x1="18.000" x2="18.000" y1="-0.360" y2="792.360" stroke-dasharray="0.730 2.270" stroke-dashoffset="0.005"/>
    <line x1="36.000" x2="36.000" y1="-0.360" y2="792.360" stroke-dasharray="0.730 2.270" stroke-dashoffset="0.005"/>
    <line x1="54.000" x2="54.000" y1="-0.360" y2="792.360" stroke-dasharray="0.730 2.270" stroke-dashoffset="0.005"/>
    <line x1="72.000" x2="72.000" y1="-0.360" y2="792.360" stroke-dasharray="0.730 2.270" stroke-dashoffset="0.005"/>
    <line x1="90.000" x2="90.000" y1="-0.360" y2="792.360" stroke-dasharray="0.730 2.270" stroke-dashoffset="0.005"/>
    <line x1="108.000" x2="108.000" y1="-0.360" y2="792.360" stroke-dasharray="0.730 2.270" stroke-dashoffset="0.005"/>
    <line x1="126.000" x2="126.000" y1="-0.360" y2="792.360" stroke-dasharray="0.730 2.270" stroke-dashoffset="0.005"/>
    <line x1="144.000" x2="144.000" y1="-0.360" y2="792.360" stroke-dasharray="0.730 2.270" stroke-dashoffset="0.005"/>
    <line x1="162.000" x2="162.000" y1="-0.360" y2="792.360" stroke-dasharray="0.730 2.270" stroke-dashoffset="0.005"/>
    <line x1="180.000" x2="180.000" y1="-0.360" y2="792.360" stroke-dasharray="0.730 2.270" stroke-dashoffset="0.005"/>
    <line x1="198.000" x2="198.000" y1="-0.360" y2="792.360" stroke-dasharray="0.730 2.270" stroke-dashoffset="0.005"/>
    <line x1="216.000" x2="216.000" y1="-0.360" y2="792.360" stroke-dasharray="0.730 2.270" stroke-dashoffset="0.005"/>
    <line x1="234.000" x2="234.000" y1="-0.360" y2="792.360" stroke-dasharray="0.730 2.270" stroke-dashoffset="0.005"/>
    <line x1="252.000" x2="252.000" y1="-0.360" y2="792.360" stroke-dasharray="0.730 2.270" stroke-dashoffset="0.005"/>
    <line x1="270.000" x2="270.000" y1="-0.360" y2="792.360" stroke-dasharray="0.730 2.270" stroke-dashoffset="0.005"/>
    <line x1="288.000" x2="288.000" y1="-0.360" y2="792.360" stroke-dasharray="0.730 2.270" stroke-dashoffset="0.005"/>
    <line x1="306.000" x2="306.000" y1="-0.360" y2="792.360" stroke-dasharray="0.730 2.270" stroke-dashoffset="0.005"/>
    <line x1="324.000" x2="324.000" y1="-0.360" y2="792.360" stroke-dasharray="0.730 2.270" stroke-dashoffset="0.005"/>
    <line x1="342.000" x2="342.000" y1="-0.360" y2="792.360" stroke-dasharray="0.730 2.270" stroke-dashoffset="0.005"/>
    <line x1="360.000" x2="360.000" y1="-0.360" y2="792.360" stroke-dasharray="0.730 2.270" stroke-dashoffset="0.005"/>
    <line x1="378.000" x2="378.000" y1="-0.360" y2="792.360" stroke-dasharray="0.730 2.270" stroke-dashoffset="0.005"/>
    <line x1="396.000" x2="396.000" y1="-0.360" y2="792.360" stroke-dasharray="0.730 2.270" stroke-dashoffset="0.005"/>
    <line x1="414.000" x2="414.000" y1="-0.360" y2="792.360" stroke-dasharray="0.730 2.270" stroke-dashoffset="0.005"/>
    <line x1="432.000" x2="432.000" y1="-0.360" y2="792.360" stroke-dasharray="0.730 2.270" stroke-dashoffset="0.005"/>
    <line x1="450.000" x2="450.000" y1="-0.360" y2="792.360" stroke-dasharray="0.730 2.270" stroke-dashoffset="0.005"/>
    <line x1="468.000" x2="468.000" y1="-0.360" y2="792.360" stroke-dasharray="0.730 2.270" stroke-dashoffset="0.005"/>
    <line x1="486.000" x2="486.000" y1="-0.360" y2="792.360" stroke-dasharray="0.730 2.270" stroke-dashoffset="0.005"/>
    <line x1="504.000" x2="504.000" y1="-0.360" y2="792.360" stroke-dasharray="0.730 2.270" stroke-dashoffset="0.005"/>
    <line x1="522.000" x2="522.000" y1="-0.360" y2="792.360" stroke-dasharray="0.730 2.270" stroke-dashoffset="0.005"/>
    <line x1="540.000" x2="540.000" y1="-0.360" y2="792.360" stroke-dasharray="0.730 2.270" stroke-dashoffset="0.005"/>
    <line x1="558.000" x2="558.000" y1="-0.360" y2="792.360" stroke-dasharray="0.730 2.270" stroke-dashoffset="0.005"/>
    <line x1="576.000" x2="576.000" y1="-0.360" y2="792.360" stroke-dasharray="0.730 2.270" stroke-dashoffset="0.005"/>
    <line x1="594.000" x2="594.000" y1="-0.360" y2="792.360" stroke-dasharray="0.730 2.270" stroke-dashoffset="0.005"/>
    <line x1="612.000" x2="612.000" y1="-0.360" y2="792.360" stroke-dasharray="0.730 2.270" stroke-dashoffset="0.005"/>
  </g>
  <g id="grid-2">
    <line x1="-0.360" x2="612.360" y1="6.000" y2="6.000" stroke-dasharray="0.730 1.841" stroke-dashoffset="0.005"/>
    <line x1="-0.360" x2="612.360" y1="24.000" y2="24.000" stroke-dasharray="0.730 1.841" stroke-dashoffset="0.005"/>
    <line x1="-0.360" x2="612.360" y1="42.000" y2="42.000" stroke-dasharray="0.730 1.841" stroke-dashoffset="0.005"/>
    <line x1="-0.360" x2="612.360" y1="60.000" y2="60.000" stroke-dasharray="0.730 1.841" stroke-dashoffset="0.005"/>
    <line x1="-0.360" x2="612.360" y1="78.000" y2="78.000" stroke-dasharray="0.730 1.841" stroke-dashoffset="0.005"/>
    <line x1="-0.360" x2="612.360" y1="96.000" y2="96.000" stroke-dasharray="0.730 1.841" stroke-dashoffset="0.005"/>
    <line x1="-0.360" x2="612.360" y1="114.000" y2="114.000" stroke-dasharray="0.730 1.841" stroke-dashoffset="0.005"/>
    <line x1="-0.360" x2="612.360" y1="132.000" y2="132.000" stroke-dasharray="0.730 1.841" stroke-dashoffset="0.005"/>
    <line x1="-0.360" x2="612.360" y1="150.000" y2="150.000" stroke-dasharray="0.730 1.841" stroke-dashoffset="0.005"/>
    <line x1="-0.360" x2="612.360" y1="168.000" y2="168.000" stroke-dasharray="0.730 1.841" stroke-dashoffset="0.005"/>
    <line x1="-0.360" x2="612.360" y1="186.000" y2="186.000" stroke-dasharray="0.730 1.841" stroke-dashoffset="0.005"/>
    <line x1="-0.360" x2="612.360" y1="204.000" y2="204.000" stroke-dasharray="0.730 1.841" stroke-dashoffset="0.005"/>
    <line x1="-0.360" x2="612.360" y1="222.000" y2="222.000" stroke-dasharray="0.730 1.841" stroke-dashoffset="0.005"/>
    <line x1="-0.360" x2="612.360" y1="240.000" y2="240.000" stroke-dasharray="0.730 1.841" stroke-dashoffset="0.005"/>
    <line x1="-0.360" x2="612.360" y1="258.000" y2="258.000" stroke-dasharray="0.730 1.841" stroke-dashoffset="0.005"/>
    <line x1="-0.360" x2="612.360" y1="276.000" y2="276.000" stroke-dasharray="0.730 1.841" stroke-dashoffset="0.005"/>
    <line x1="-0.360" x2="612.360" y1="294.000" y2="294.000" stroke-dasharray="0.730 1.841" stroke-dashoffset="0.005"/>
    <line x1="-0.360" x2="612.360" y1="312.000" y2="312.000" stroke-dasharray="0.730 1.841" stroke-dashoffset="0.005"/>
    <line x1="-0.360" x2="612.360" y1="330.000" y2="330.000" stroke-dasharray="0.730 1.841" stroke-dashoffset="0.005"/>
    <line x1="-0.360" x2="612.360" y1="348.000" y2="348.000" stroke-dasharray="0.730 1.841" stroke-dashoffset="0.005"/>
    <line x1="-0.360" x2="612.360" y1="366.000" y2="366.000" stroke-dasharray="0.730 1.841" stroke-dashoffset="0.005"/>
    <line x1="-0.360" x2="612.360" y1="384.000" y2="384.000" stroke-dasharray="0.730 1.841" stroke-dashoffset="0.005"/>
    <line x1="-0.360" x2="612.360" y1="402.000" y2="402.000" stroke-dasharray="0.730 1.841" stroke-dashoffset="0.005"/>
    <line x1="-0.360" x2="612.360" y1="420.000" y2="420.000" stroke-dasharray="0.730 1.841" stroke-dashoffset="0.005"/>
    <line x1="-0.360" x2="612.360" y1="438.000" y2="438.000" stroke-dasharray="0.730 1.841" stroke-dashoffset="0.005"/>
    <line x1="-0.360" x2="612.360" y1="456.000" y2="456.000" stroke-dasharray="0.730 1.841" stroke-dashoffset="0.005"/>
    <line x1="-0.360" x2="612.360" y1="474.000" y2="474.000" stroke-dasharray="0.730 1.841" stroke-dashoffset="0.005"/>
    <line x1="-0.360" x2="612.360" y1="492.000" y2="492.000" stroke-dasharray="0.730 1.841" stroke-dashoffset="0.005"/>
    <line x1="-0.360" x2="612.360" y1="510.000" y2="510.000" stroke-dasharray="0.730 1.841" stroke-dashoffset="0.005"/>
    <line x1="-0.360" x2="612.360" y1="528.000" y2="528.000" stroke-dasharray="0.730 1.841" stroke-dashoffset="0.005"/>
    <line x1="-0.360" x2="612.360" y1="546.000" y2="546.000" stroke-dasharray="0.730 1.841" stroke-dashoffset="0.005"/>
    <line x1="-0.360" x2="612.360" y1="564.000" y2="564.000" stroke-dasharray="0.730 1.841" stroke-dashoffset="0.005"/>
    <line x1="-0.360" x2="612.360" y1="582.000" y2="582.000" stroke-dasharray="0.730 1.841" stroke-dashoffset="0.005"/>
    <line x1="-0.360" x2="612.360" y1="600.000" y2="600.000" stroke-dasharray="0.730 1.841" stroke-dashoffset="0.005"/>
    <line x1="-0.360" x2="612.360" y1="618.000" y2="618.000" stroke-dasharray="0.730 1.841" stroke-dashoffset="0.005"/>
    <line x1="-0.360" x2="612.360" y1="636.000" y2="636.000" stroke-dasharray="0.730 1.841" stroke-dashoffset="0.005"/>
    <line x1="-0.360" x2="612.360" y1="654.000" y2="654.000" stroke-dasharray="0.730 1.841" stroke-dashoffset="0.005"/>
    <line x1="-0.360" x2="612.360" y1="672.000" y2="672.000" stroke-dasharray="0.730 1.841" stroke-dashoffset="0.005"/>
    <line x1="-0.360" x2="612.360" y1="690.000" y2="690.000" stroke-dasharray="0.730 1.841" stroke-dashoffset="0.005"/>
    <line x1="-0.360" x2="612.360" y1="708.000" y2="708.000" stroke-dasharray="0.730 1.841" stroke-dashoffset="0.005"/>
    <line x1="-0.360" x2="612.360" y1="726.000" y2="726.000" stroke-dasharray="0.730 1.841" stroke-dashoffset="0.005"/>
    <line x1="-0.360" x2="612.360" y1="744.000" y2="744.000" stroke-dasharray="0.730 1.841" stroke-dashoffset="0.005"/>
    <line x1="-0.360" x2="612.360" y1="762.000" y2="762.000" stroke-dasharray="0.730 1.841" stroke-dashoffset="0.005"/>
    <line x1="-0.360" x2="612.360" y1="780.000" y2="780.000" stroke-dasharray="0.730 1.841" stroke-dashoffset="0.005"/>
  </g>
  <g id="grid-3">
    <line x1="-0.360" x2="612.360" y1="12.000" y2="12.000" stroke-dasharray="0.730 1.841" stroke-dashoffset="0.005"/>
    <line x1="-0.360" x2="612.360" y1="30.000" y2="30.000" stroke-dasharray="0.730 1.841" stroke-dashoffset="0.005"/>
    <line x1="-0.360" x2="612.360" y1="48.000" y2="48.000" stroke-dasharray="0.730 1.841" stroke-dashoffset="0.005"/>
    <line x1="-0.360" x2="612.360" y1="66.000" y2="66.000" stroke-dasharray="0.730 1.841" stroke-dashoffset="0.005"/>
    <line x1="-0.360" x2="612.360" y1="84.000" y2="84.000" stroke-dasharray="0.730 1.841" stroke-dashoffset="0.005"/>
    <line x1="-0.360" x2="612.360" y1="102.000" y2="102.000" stroke-dasharray="0.730 1.841" stroke-dashoffset="0.005"/>
    <line x1="-0.360" x2="612.360" y1="120.000" y2="120.000" stroke-dasharray="0.730 1.841" stroke-dashoffset="0.005"/>
    <line x1="-0.360" x2="612.360" y1="138.000" y2="138.000" stroke-dasharray="0.730 1.841" stroke-dashoffset="0.005"/>
    <line x1="-0.360" x2="612.360" y1="156.000" y2="156.000" stroke-dasharray="0.730 1.841" stroke-dashoffset="0.005"/>
    <line x1="-0.360" x2="612.360" y1="174.000" y2="174.000" stroke-dasharray="0.730 1.841" stroke-dashoffset="0.005"/>
    <line x1="-0.360" x2="612.360" y1="192.000" y2="192.000" stroke-dasharray="0.730 1.841" stroke-dashoffset="0.005"/>
    <line x1="-0.360" x2="612.360" y1="210.000" y2="210.000" stroke-dasharray="0.730 1.841" stroke-dashoffset="0.005"/>
    <line x1="-0.360" x2="612.360" y1="228.000" y2="228.000" stroke-dasharray="0.730 1.841" stroke-dashoffset="0.005"/>
    <line x1="-0.360" x2="612.360" y1="246.000" y2="246.000" stroke-dasharray="0.730 1.841" stroke-dashoffset="0.005"/>
    <line x1="-0.360" x2="612.360" y1="264.000" y2="264.000" stroke-dasharray="0.730 1.841" stroke-dashoffset="0.005"/>
    <line x1="-0.360" x2="612.360" y1="282.000" y2="282.000" stroke-dasharray="0.730 1.841" stroke-dashoffset="0.005"/>
    <line x1="-0.360" x2="612.360" y1="300.000" y2="300.000" stroke-dasharray="0.730 1.841" stroke-dashoffset="0.005"/>
    <line x1="-0.360" x2="612.360" y1="318.000" y2="318.000" stroke-dasharray="0.730 1.841" stroke-dashoffset="0.005"/>
    <line x1="-0.360" x2="612.360" y1="336.000" y2="336.000" stroke-dasharray="0.730 1.841" stroke-dashoffset="0.005"/>
    <line x1="-0.360" x2="612.360" y1="354.000" y2="354.000" stroke-dasharray="0.730 1.841" stroke-dashoffset="0.005"/>
    <line x1="-0.360" x2="612.360" y1="372.000" y2="372.000" stroke-dasharray="0.730 1.841" stroke-dashoffset="0.005"/>
    <line x1="-0.360" x2="612.360" y1="390.000" y2="390.000" stroke-dasharray="0.730 1.841" stroke-dashoffset="0.005"/>
    <line x1="-0.360" x2="612.360" y1="408.000" y2="408.000" stroke-dasharray="0.730 1.841" stroke-dashoffset="0.005"/>
    <line x1="-0.360" x2="612.360" y1="426.000" y2="426.000" stroke-dasharray="0.730 1.841" stroke-dashoffset="0.005"/>
    <line x1="-0.360" x2="612.360" y1="444.000" y2="444.000" stroke-dasharray="0.730 1.841" stroke-dashoffset="0.005"/>
    <line x1="-0.360" x2="612.360" y1="462.000" y2="462.000" stroke-dasharray="0.730 1.841" stroke-dashoffset="0.005"/>
    <line x1="-0.360" x2="612.360" y1="480.000" y2="480.000" stroke-dasharray="0.730 1.841" stroke-dashoffset="0.005"/>
    <line x1="-0.360" x2="612.360" y1="498.000" y2="498.000" stroke-dasharray="0.730 1.841" stroke-dashoffset="0.005"/>
    <line x1="-0.360" x2="612.360" y1="516.000" y2="516.000" stroke-dasharray="0.730 1.841" stroke-dashoffset="0.005"/>
    <line x1="-0.360" x2="612.360" y1="534.000" y2="534.000" stroke-dasharray="0.730 1.841" stroke-dashoffset="0.005"/>
    <line x1="-0.360" x2="612.360" y1="552.000" y2="552.000" stroke-dasharray="0.730 1.841" stroke-dashoffset="0.005"/>
    <line x1="-0.360" x2="612.360" y1="570.000" y2="570.000" stroke-dasharray="0.730 1.841" stroke-dashoffset="0.005"/>
    <line x1="-0.360" x2="612.360" y1="588.000" y2="588.000" stroke-dasharray="0.730 1.841" stroke-dashoffset="0.005"/>
    <line x1="-0.360" x2="612.360" y1="606.000" y2="606.000" stroke-dasharray="0.730 1.841" stroke-dashoffset="0.005"/>
    <line x1="-0.360" x2="612.360" y1="624.000" y2="624.000" stroke-dasharray="0.730 1.841" stroke-dashoffset="0.005"/>
    <line x1="-0.360" x2="612.360" y1="642.000" y2="642.000" stroke-dasharray="0.730 1.841" stroke-dashoffset="0.005"/>
    <line x1="-0.360" x2="612.360" y1="660.000" y2="660.000" stroke-dasharray="0.730 1.841" stroke-dashoffset="0.005"/>
    <line x1="-0.360" x2="612.360" y1="678.000" y2="678.000" stroke-dasharray="0.730 1.841" stroke-dashoffset="0.005"/>
    <line x1="-0.360" x2="612.360" y1="696.000" y2="696.000" stroke-dasharray="0.730 1.841" stroke-dashoffset="0.005"/>
    <line x1="-0.360" x2="612.360" y1="714.000" y2="714.000" stroke-dasharray="0.730 1.841" stroke-dashoffset="0.005"/>
    <line x1="-0.360" x2="612.360" y1="732.000" y2="732.000" stroke-dasharray="0.730 1.841" stroke-dashoffset="0.005"/>
    <line x1="-0.360" x2="612.360" y1="750.000" y2="750.000" stroke-dasharray="0.730 1.841" stroke-dashoffset="0.005"/>
    <line x1="-0.360" x2="612.360" y1="768.000" y2="768.000" stroke-dasharray="0.730 1.841" stroke-dashoffset="0.005"/>
    <line x1="-0.360" x2="612.360" y1="786.000" y2="786.000" stroke-dasharray="0.730 1.841" stroke-dashoffset="0.005"/>
  </g>
  <g id="grid-4">
    <line x1="0.000" x2="0.000" y1="-0.720" y2="792.720" stroke-dasharray="1.450 16.550" stroke-dashoffset="0.005"/>
    <line x1="18.000" x2="18.000" y1="-0.720" y2="792.720" stroke-dasharray="1.450 16.550" stroke-dashoffset="0.005"/>
    <line x1="36.000" x2="36.000" y1="-0.720" y2="792.720" stroke-dasharray="1.450 16.550" stroke-dashoffset="0.005"/>
    <line x1="54.000" x2="54.000" y1="-0.720" y2="792.720" stroke-dasharray="1.450 16.550" stroke-dashoffset="0.005"/>
    <line x1="72.000" x2="72.000" y1="-0.720" y2="792.720" stroke-dasharray="1.450 16.550" stroke-dashoffset="0.005"/>
    <line x1="90.000" x2="90.000" y1="-0.720" y2="792.720" stroke-dasharray="1.450 16.550" stroke-dashoffset="0.005"/>
    <line x1="108.000" x2="108.000" y1="-0.720" y2="792.720" stroke-dasharray="1.450 16.550" stroke-dashoffset="0.005"/>
    <line x1="126.000" x2="126.000" y1="-0.720" y2="792.720" stroke-dasharray="1.450 16.550" stroke-dashoffset="0.005"/>
    <line x1="144.000" x2="144.000" y1="-0.720" y2="792.720" stroke-dasharray="1.450 16.550" stroke-dashoffset="0.005"/>
    <line x1="162.000" x2="162.000" y1="-0.720" y2="792.720" stroke-dasharray="1.450 16.550" stroke-dashoffset="0.005"/>
    <line x1="180.000" x2="180.000" y1="-0.720" y2="792.720" stroke-dasharray="1.450 16.550" stroke-dashoffset="0.005"/>
    <line x1="198.000" x2="198.000" y1="-0.720" y2="792.720" stroke-dasharray="1.450 16.550" stroke-dashoffset="0.005"/>
    <line x1="216.000" x2="216.000" y1="-0.720" y2="792.720" stroke-dasharray="1.450 16.550" stroke-dashoffset="0.005"/>
    <line x1="234.000" x2="234.000" y1="-0.720" y2="792.720" stroke-dasharray="1.450 16.550" stroke-dashoffset="0.005"/>
    <line x1="252.000" x2="252.000" y1="-0.720" y2="792.720" stroke-dasharray="1.450 16.550" stroke-dashoffset="0.005"/>
    <line x1="270.000" x2="270.000" y1="-0.720" y2="792.720" stroke-dasharray="1.450 16.550" stroke-dashoffset="0.005"/>
    <line x1="288.000" x2="288.000" y1="-0.720" y2="792.720" stroke-dasharray="1.450 16.550" stroke-dashoffset="0.005"/>
    <line x1="306.000" x2="306.000" y1="-0.720" y2="792.720" stroke-dasharray="1.450 16.550" stroke-dashoffset="0.005"/>
    <line x1="324.000" x2="324.000" y1="-0.720" y2="792.720" stroke-dasharray="1.450 16.550" stroke-dashoffset="0.005"/>
    <line x1="342.000" x2="342.000" y1="-0.720" y2="792.720" stroke-dasharray="1.450 16.550" stroke-dashoffset="0.005"/>
    <line x1="360.000" x2="360.000" y1="-0.720" y2="792.720" stroke-dasharray="1.450 16.550" stroke-dashoffset="0.005"/>
    <line x1="378.000" x2="378.000" y1="-0.720" y2="792.720" stroke-dasharray="1.450 16.550" stroke-dashoffset="0.005"/>
    <line x1="396.000" x2="396.000" y1="-0.720" y2="792.720" stroke-dasharray="1.450 16.550" stroke-dashoffset="0.005"/>
    <line x1="414.000" x2="414.000" y1="-0.720" y2="792.720" stroke-dasharray="1.450 16.550" stroke-dashoffset="0.005"/>
    <line x1="432.000" x2="432.000" y1="-0.720" y2="792.720" stroke-dasharray="1.450 16.550" stroke-dashoffset="0.005"/>
    <line x1="450.000" x2="450.000" y1="-0.720" y2="792.720" stroke-dasharray="1.450 16.550" stroke-dashoffset="0.005"/>
    <line x1="468.000" x2="468.000" y1="-0.720" y2="792.720" stroke-dasharray="1.450 16.550" stroke-dashoffset="0.005"/>
    <line x1="486.000" x2="486.000" y1="-0.720" y2="792.720" stroke-dasharray="1.450 16.550" stroke-dashoffset="0.005"/>
    <line x1="504.000" x2="504.000" y1="-0.720" y2="792.720" stroke-dasharray="1.450 16.550" stroke-dashoffset="0.005"/>
    <line x1="522.000" x2="522.000" y1="-0.720" y2="792.720" stroke-dasharray="1.450 16.550" stroke-dashoffset="0.005"/>
    <line x1="540.000" x2="540.000" y1="-0.720" y2="792.720" stroke-dasharray="1.450 16.550" stroke-dashoffset="0.005"/>
    <line x1="558.000" x2="558.000" y1="-0.720" y2="792.720" stroke-dasharray="1.450 16.550" stroke-dashoffset="0.005"/>
    <line x1="576.000" x2="576.000" y1="-0.720" y2="792.720" stroke-dasharray="1.450 16.550" stroke-dashoffset="0.005"/>
    <line x1="594.000" x2="594.000" y1="-0.720" y2="792.720" stroke-dasharray="1.450 16.550" stroke-dashoffset="0.005"/>
    <line x1="612.000" x2="612.000" y1="-0.720" y2="792.720" stroke-dasharray="1.450 16.550" stroke-dashoffset="0.005"/>
  </g>
  <rect x="211.5" y="766" width="189" height="12" fill="#ffffff" stroke="none" stroke-width="0px"/>
  <text x="306" y="774" text-anchor="middle" fill="#808080" stroke="none" stroke-width="0" style="font-family: &quot;Courier&quot;, &quot;Courier New&quot;, monospace; font-size: 6pt;">https://github.com/dse/printable-paper</text>
</svg>
