<?xml version="1.0" encoding="UTF-8"?>
<svg xmlns="http://www.w3.org/2000/svg" width="297.955pt" height="421.373pt" viewBox="0.000 0.000 297.955 421.373">
  <style>
        .line, .dot, .major-line, .feint-line, .margin-line { stroke-linecap: round; }
        .stroke-linecap-butt   { stroke-linecap: butt; }
        .stroke-linecap-round  { stroke-linecap: round; }
        .stroke-linecap-square { stroke-linecap: square; }
        .rectangle { fill: #ffffff; }


        .line        { stroke-width: 0.12px; opacity:  1; }
        .major-line  { stroke-width: 0.339411254969543px; opacity: 1; }
        .feint-line  { stroke-width: 0.169705627484771px; opacity:  1; }
        .dot         { stroke-width: 0.24px; opacity:  1; }
        .margin-line { stroke-width: 0.24px; opacity:  1; }
        .line        { stroke: #000000; }
        .major-line  { stroke: #000000; }
        .feint-line  { stroke: #000000; }
        .dot         { stroke: #000000; }
        .margin-line { stroke: #000000; }
        line.dot {
            stroke-linecap: butt;
        }
  </style>
  <defs/>
  <g id="lines">
    <line x1="0.000" x2="297.955" y1="15.096" y2="15.096" class="line"/>
    <line x1="0.000" x2="297.955" y1="36.828" y2="36.828" class="line"/>
    <line x1="0.000" x2="297.955" y1="58.560" y2="58.560" class="line"/>
    <line x1="0.000" x2="297.955" y1="80.293" y2="80.293" class="line"/>
    <line x1="0.000" x2="297.955" y1="102.025" y2="102.025" class="line"/>
    <line x1="0.000" x2="297.955" y1="123.757" y2="123.757" class="line"/>
    <line x1="0.000" x2="297.955" y1="145.489" y2="145.489" class="line"/>
    <line x1="0.000" x2="297.955" y1="167.222" y2="167.222" class="line"/>
    <line x1="0.000" x2="297.955" y1="188.954" y2="188.954" class="line"/>
    <line x1="0.000" x2="297.955" y1="210.686" y2="210.686" class="line"/>
    <line x1="0.000" x2="297.955" y1="232.419" y2="232.419" class="line"/>
    <line x1="0.000" x2="297.955" y1="254.151" y2="254.151" class="line"/>
    <line x1="0.000" x2="297.955" y1="275.883" y2="275.883" class="line"/>
    <line x1="0.000" x2="297.955" y1="297.615" y2="297.615" class="line"/>
    <line x1="0.000" x2="297.955" y1="319.348" y2="319.348" class="line"/>
    <line x1="0.000" x2="297.955" y1="341.080" y2="341.080" class="line"/>
    <line x1="0.000" x2="297.955" y1="362.812" y2="362.812" class="line"/>
    <line x1="0.000" x2="297.955" y1="384.545" y2="384.545" class="line"/>
    <line x1="0.000" x2="297.955" y1="406.277" y2="406.277" class="line"/>
  </g>
  <g id="grid-1">
    <line x1="18.584" x2="18.584" y1="0.488" y2="420.885" class="dot" stroke-dasharray="0.250 3.372" stroke-dashoffset="0.005"/>
    <line x1="40.316" x2="40.316" y1="0.488" y2="420.885" class="dot" stroke-dasharray="0.250 3.372" stroke-dashoffset="0.005"/>
    <line x1="62.049" x2="62.049" y1="0.488" y2="420.885" class="dot" stroke-dasharray="0.250 3.372" stroke-dashoffset="0.005"/>
    <line x1="83.781" x2="83.781" y1="0.488" y2="420.885" class="dot" stroke-dasharray="0.250 3.372" stroke-dashoffset="0.005"/>
    <line x1="105.513" x2="105.513" y1="0.488" y2="420.885" class="dot" stroke-dasharray="0.250 3.372" stroke-dashoffset="0.005"/>
    <line x1="127.245" x2="127.245" y1="0.488" y2="420.885" class="dot" stroke-dasharray="0.250 3.372" stroke-dashoffset="0.005"/>
    <line x1="148.978" x2="148.978" y1="0.488" y2="420.885" class="dot" stroke-dasharray="0.250 3.372" stroke-dashoffset="0.005"/>
    <line x1="170.710" x2="170.710" y1="0.488" y2="420.885" class="dot" stroke-dasharray="0.250 3.372" stroke-dashoffset="0.005"/>
    <line x1="192.442" x2="192.442" y1="0.488" y2="420.885" class="dot" stroke-dasharray="0.250 3.372" stroke-dashoffset="0.005"/>
    <line x1="214.175" x2="214.175" y1="0.488" y2="420.885" class="dot" stroke-dasharray="0.250 3.372" stroke-dashoffset="0.005"/>
    <line x1="235.907" x2="235.907" y1="0.488" y2="420.885" class="dot" stroke-dasharray="0.250 3.372" stroke-dashoffset="0.005"/>
    <line x1="257.639" x2="257.639" y1="0.488" y2="420.885" class="dot" stroke-dasharray="0.250 3.372" stroke-dashoffset="0.005"/>
    <line x1="279.371" x2="279.371" y1="0.488" y2="420.885" class="dot" stroke-dasharray="0.250 3.372" stroke-dashoffset="0.005"/>
  </g>
  <g id="grid-2">
    <line x1="2.941" x2="295.014" y1="0.608" y2="0.608" class="dot" stroke-dasharray="0.250 2.855" stroke-dashoffset="0.005"/>
    <line x1="2.941" x2="295.014" y1="22.340" y2="22.340" class="dot" stroke-dasharray="0.250 2.855" stroke-dashoffset="0.005"/>
    <line x1="2.941" x2="295.014" y1="44.072" y2="44.072" class="dot" stroke-dasharray="0.250 2.855" stroke-dashoffset="0.005"/>
    <line x1="2.941" x2="295.014" y1="65.804" y2="65.804" class="dot" stroke-dasharray="0.250 2.855" stroke-dashoffset="0.005"/>
    <line x1="2.941" x2="295.014" y1="87.537" y2="87.537" class="dot" stroke-dasharray="0.250 2.855" stroke-dashoffset="0.005"/>
    <line x1="2.941" x2="295.014" y1="109.269" y2="109.269" class="dot" stroke-dasharray="0.250 2.855" stroke-dashoffset="0.005"/>
    <line x1="2.941" x2="295.014" y1="131.001" y2="131.001" class="dot" stroke-dasharray="0.250 2.855" stroke-dashoffset="0.005"/>
    <line x1="2.941" x2="295.014" y1="152.734" y2="152.734" class="dot" stroke-dasharray="0.250 2.855" stroke-dashoffset="0.005"/>
    <line x1="2.941" x2="295.014" y1="174.466" y2="174.466" class="dot" stroke-dasharray="0.250 2.855" stroke-dashoffset="0.005"/>
    <line x1="2.941" x2="295.014" y1="196.198" y2="196.198" class="dot" stroke-dasharray="0.250 2.855" stroke-dashoffset="0.005"/>
    <line x1="2.941" x2="295.014" y1="217.930" y2="217.930" class="dot" stroke-dasharray="0.250 2.855" stroke-dashoffset="0.005"/>
    <line x1="2.941" x2="295.014" y1="239.663" y2="239.663" class="dot" stroke-dasharray="0.250 2.855" stroke-dashoffset="0.005"/>
    <line x1="2.941" x2="295.014" y1="261.395" y2="261.395" class="dot" stroke-dasharray="0.250 2.855" stroke-dashoffset="0.005"/>
    <line x1="2.941" x2="295.014" y1="283.127" y2="283.127" class="dot" stroke-dasharray="0.250 2.855" stroke-dashoffset="0.005"/>
    <line x1="2.941" x2="295.014" y1="304.860" y2="304.860" class="dot" stroke-dasharray="0.250 2.855" stroke-dashoffset="0.005"/>
    <line x1="2.941" x2="295.014" y1="326.592" y2="326.592" class="dot" stroke-dasharray="0.250 2.855" stroke-dashoffset="0.005"/>
    <line x1="2.941" x2="295.014" y1="348.324" y2="348.324" class="dot" stroke-dasharray="0.250 2.855" stroke-dashoffset="0.005"/>
    <line x1="2.941" x2="295.014" y1="370.056" y2="370.056" class="dot" stroke-dasharray="0.250 2.855" stroke-dashoffset="0.005"/>
    <line x1="2.941" x2="295.014" y1="391.789" y2="391.789" class="dot" stroke-dasharray="0.250 2.855" stroke-dashoffset="0.005"/>
    <line x1="2.941" x2="295.014" y1="413.521" y2="413.521" class="dot" stroke-dasharray="0.250 2.855" stroke-dashoffset="0.005"/>
  </g>
  <g id="grid-3">
    <line x1="2.941" x2="295.014" y1="7.852" y2="7.852" class="dot" stroke-dasharray="0.250 2.855" stroke-dashoffset="0.005"/>
    <line x1="2.941" x2="295.014" y1="29.584" y2="29.584" class="dot" stroke-dasharray="0.250 2.855" stroke-dashoffset="0.005"/>
    <line x1="2.941" x2="295.014" y1="51.316" y2="51.316" class="dot" stroke-dasharray="0.250 2.855" stroke-dashoffset="0.005"/>
    <line x1="2.941" x2="295.014" y1="73.049" y2="73.049" class="dot" stroke-dasharray="0.250 2.855" stroke-dashoffset="0.005"/>
    <line x1="2.941" x2="295.014" y1="94.781" y2="94.781" class="dot" stroke-dasharray="0.250 2.855" stroke-dashoffset="0.005"/>
    <line x1="2.941" x2="295.014" y1="116.513" y2="116.513" class="dot" stroke-dasharray="0.250 2.855" stroke-dashoffset="0.005"/>
    <line x1="2.941" x2="295.014" y1="138.245" y2="138.245" class="dot" stroke-dasharray="0.250 2.855" stroke-dashoffset="0.005"/>
    <line x1="2.941" x2="295.014" y1="159.978" y2="159.978" class="dot" stroke-dasharray="0.250 2.855" stroke-dashoffset="0.005"/>
    <line x1="2.941" x2="295.014" y1="181.710" y2="181.710" class="dot" stroke-dasharray="0.250 2.855" stroke-dashoffset="0.005"/>
    <line x1="2.941" x2="295.014" y1="203.442" y2="203.442" class="dot" stroke-dasharray="0.250 2.855" stroke-dashoffset="0.005"/>
    <line x1="2.941" x2="295.014" y1="225.174" y2="225.174" class="dot" stroke-dasharray="0.250 2.855" stroke-dashoffset="0.005"/>
    <line x1="2.941" x2="295.014" y1="246.907" y2="246.907" class="dot" stroke-dasharray="0.250 2.855" stroke-dashoffset="0.005"/>
    <line x1="2.941" x2="295.014" y1="268.639" y2="268.639" class="dot" stroke-dasharray="0.250 2.855" stroke-dashoffset="0.005"/>
    <line x1="2.941" x2="295.014" y1="290.371" y2="290.371" class="dot" stroke-dasharray="0.250 2.855" stroke-dashoffset="0.005"/>
    <line x1="2.941" x2="295.014" y1="312.104" y2="312.104" class="dot" stroke-dasharray="0.250 2.855" stroke-dashoffset="0.005"/>
    <line x1="2.941" x2="295.014" y1="333.836" y2="333.836" class="dot" stroke-dasharray="0.250 2.855" stroke-dashoffset="0.005"/>
    <line x1="2.941" x2="295.014" y1="355.568" y2="355.568" class="dot" stroke-dasharray="0.250 2.855" stroke-dashoffset="0.005"/>
    <line x1="2.941" x2="295.014" y1="377.300" y2="377.300" class="dot" stroke-dasharray="0.250 2.855" stroke-dashoffset="0.005"/>
    <line x1="2.941" x2="295.014" y1="399.033" y2="399.033" class="dot" stroke-dasharray="0.250 2.855" stroke-dashoffset="0.005"/>
    <line x1="2.941" x2="295.014" y1="420.765" y2="420.765" class="dot" stroke-dasharray="0.250 2.855" stroke-dashoffset="0.005"/>
  </g>
  <g id="grid-4">
    <line x1="18.584" x2="18.584" y1="14.856" y2="406.517" class="dot" stroke-dasharray="0.490 21.242" stroke-dashoffset="0.005"/>
    <line x1="40.316" x2="40.316" y1="14.856" y2="406.517" class="dot" stroke-dasharray="0.490 21.242" stroke-dashoffset="0.005"/>
    <line x1="62.049" x2="62.049" y1="14.856" y2="406.517" class="dot" stroke-dasharray="0.490 21.242" stroke-dashoffset="0.005"/>
    <line x1="83.781" x2="83.781" y1="14.856" y2="406.517" class="dot" stroke-dasharray="0.490 21.242" stroke-dashoffset="0.005"/>
    <line x1="105.513" x2="105.513" y1="14.856" y2="406.517" class="dot" stroke-dasharray="0.490 21.242" stroke-dashoffset="0.005"/>
    <line x1="127.245" x2="127.245" y1="14.856" y2="406.517" class="dot" stroke-dasharray="0.490 21.242" stroke-dashoffset="0.005"/>
    <line x1="148.978" x2="148.978" y1="14.856" y2="406.517" class="dot" stroke-dasharray="0.490 21.242" stroke-dashoffset="0.005"/>
    <line x1="170.710" x2="170.710" y1="14.856" y2="406.517" class="dot" stroke-dasharray="0.490 21.242" stroke-dashoffset="0.005"/>
    <line x1="192.442" x2="192.442" y1="14.856" y2="406.517" class="dot" stroke-dasharray="0.490 21.242" stroke-dashoffset="0.005"/>
    <line x1="214.175" x2="214.175" y1="14.856" y2="406.517" class="dot" stroke-dasharray="0.490 21.242" stroke-dashoffset="0.005"/>
    <line x1="235.907" x2="235.907" y1="14.856" y2="406.517" class="dot" stroke-dasharray="0.490 21.242" stroke-dashoffset="0.005"/>
    <line x1="257.639" x2="257.639" y1="14.856" y2="406.517" class="dot" stroke-dasharray="0.490 21.242" stroke-dashoffset="0.005"/>
    <line x1="279.371" x2="279.371" y1="14.856" y2="406.517" class="dot" stroke-dasharray="0.490 21.242" stroke-dashoffset="0.005"/>
  </g>
  <rect x="54.4777113638465" y="395.372599804113" width="189" height="12" fill="#ffffff" stroke="none" stroke-width="0px"/>
  <text x="148.977711363847" y="403.372599804113" text-anchor="middle" fill="#000000" stroke="none" stroke-width="0" style="font-family: &quot;Courier&quot;, &quot;Courier New&quot;, monospace; font-size: 6pt;">https://github.com/dse/printable-paper</text>
</svg>
