<?xml version="1.0" encoding="UTF-8"?>
<svg xmlns="http://www.w3.org/2000/svg" width="612pt" height="792pt" viewBox="0.000000 0.000000 612.000000 792.000000">
  <style>            .line, .dot { stroke-linecap: round; }

            .line            { stroke-width: 0.72pt; }
            .line.super-thin { stroke-width: 0.36pt; }
            .line.thin       { stroke-width: 0.48pt; }
            .line.thick      { stroke-width: 1.08pt; }

            .dot       { stroke-width: 1.44pt; }
            .dot.thin  { stroke-width: 0.96pt; }
            .dot.thick { stroke-width: 2.16pt; }

            .blue  { stroke: #b3b3ff; }
            .red   { stroke: #ff9999; }
            .green { stroke: #b3ffb3; }
            .gray  { stroke: #b3b3b3; }

            .light.blue  { stroke: #d9d9ff; }
            .light.red   { stroke: #ffcccc; }
            .light.green { stroke: #d9ffd9; }
            .light.gray  { stroke: #d9d9d9; }

            .dark.blue  { stroke: #6767ff; }
            .dark.red   { stroke: #ff3333; }
            .dark.green { stroke: #67ff67; }
            .dark.gray  { stroke: #676767; }

            .alternate-blue  { stroke: #6767ff; opacity: 0.5; }
            .alternate-red   { stroke: #ff3333; opacity: 0.5; }
            .alternate-green { stroke: #67ff67; opacity: 0.5; }
            .alternate-gray  { stroke: #676767; opacity: 0.5; }
</style>
  <g id="minor-horizontal-lines">
    <line x1="0" x2="612" y1="722.25" y2="722.25" class="thin blue line"/>
    <line x1="0" x2="612" y1="716.625" y2="716.625" class="thin blue line"/>
    <line x1="0" x2="612" y1="705.375" y2="705.375" class="thin blue line"/>
    <line x1="0" x2="612" y1="699.75" y2="699.75" class="thin blue line"/>
    <line x1="0" x2="612" y1="694.125" y2="694.125" class="thin blue line"/>
    <line x1="0" x2="612" y1="682.875" y2="682.875" class="thin blue line"/>
    <line x1="0" x2="612" y1="677.25" y2="677.25" class="thin blue line"/>
    <line x1="0" x2="612" y1="671.625" y2="671.625" class="thin blue line"/>
    <line x1="0" x2="612" y1="660.375" y2="660.375" class="thin blue line"/>
    <line x1="0" x2="612" y1="654.75" y2="654.75" class="thin blue line"/>
    <line x1="0" x2="612" y1="649.125" y2="649.125" class="thin blue line"/>
    <line x1="0" x2="612" y1="637.875" y2="637.875" class="thin blue line"/>
    <line x1="0" x2="612" y1="632.25" y2="632.25" class="thin blue line"/>
    <line x1="0" x2="612" y1="626.625" y2="626.625" class="thin blue line"/>
    <line x1="0" x2="612" y1="615.375" y2="615.375" class="thin blue line"/>
    <line x1="0" x2="612" y1="609.75" y2="609.75" class="thin blue line"/>
    <line x1="0" x2="612" y1="604.125" y2="604.125" class="thin blue line"/>
    <line x1="0" x2="612" y1="592.875" y2="592.875" class="thin blue line"/>
    <line x1="0" x2="612" y1="587.25" y2="587.25" class="thin blue line"/>
    <line x1="0" x2="612" y1="581.625" y2="581.625" class="thin blue line"/>
    <line x1="0" x2="612" y1="570.375" y2="570.375" class="thin blue line"/>
    <line x1="0" x2="612" y1="564.75" y2="564.75" class="thin blue line"/>
    <line x1="0" x2="612" y1="559.125" y2="559.125" class="thin blue line"/>
    <line x1="0" x2="612" y1="547.875" y2="547.875" class="thin blue line"/>
    <line x1="0" x2="612" y1="542.25" y2="542.25" class="thin blue line"/>
    <line x1="0" x2="612" y1="536.625" y2="536.625" class="thin blue line"/>
    <line x1="0" x2="612" y1="525.375" y2="525.375" class="thin blue line"/>
    <line x1="0" x2="612" y1="519.75" y2="519.75" class="thin blue line"/>
    <line x1="0" x2="612" y1="514.125" y2="514.125" class="thin blue line"/>
    <line x1="0" x2="612" y1="502.875" y2="502.875" class="thin blue line"/>
    <line x1="0" x2="612" y1="497.25" y2="497.25" class="thin blue line"/>
    <line x1="0" x2="612" y1="491.625" y2="491.625" class="thin blue line"/>
    <line x1="0" x2="612" y1="480.375" y2="480.375" class="thin blue line"/>
    <line x1="0" x2="612" y1="474.75" y2="474.75" class="thin blue line"/>
    <line x1="0" x2="612" y1="469.125" y2="469.125" class="thin blue line"/>
    <line x1="0" x2="612" y1="457.875" y2="457.875" class="thin blue line"/>
    <line x1="0" x2="612" y1="452.25" y2="452.25" class="thin blue line"/>
    <line x1="0" x2="612" y1="446.625" y2="446.625" class="thin blue line"/>
    <line x1="0" x2="612" y1="435.375" y2="435.375" class="thin blue line"/>
    <line x1="0" x2="612" y1="429.75" y2="429.75" class="thin blue line"/>
    <line x1="0" x2="612" y1="424.125" y2="424.125" class="thin blue line"/>
    <line x1="0" x2="612" y1="412.875" y2="412.875" class="thin blue line"/>
    <line x1="0" x2="612" y1="407.25" y2="407.25" class="thin blue line"/>
    <line x1="0" x2="612" y1="401.625" y2="401.625" class="thin blue line"/>
    <line x1="0" x2="612" y1="390.375" y2="390.375" class="thin blue line"/>
    <line x1="0" x2="612" y1="384.75" y2="384.75" class="thin blue line"/>
    <line x1="0" x2="612" y1="379.125" y2="379.125" class="thin blue line"/>
    <line x1="0" x2="612" y1="367.875" y2="367.875" class="thin blue line"/>
    <line x1="0" x2="612" y1="362.25" y2="362.25" class="thin blue line"/>
    <line x1="0" x2="612" y1="356.625" y2="356.625" class="thin blue line"/>
    <line x1="0" x2="612" y1="345.375" y2="345.375" class="thin blue line"/>
    <line x1="0" x2="612" y1="339.75" y2="339.75" class="thin blue line"/>
    <line x1="0" x2="612" y1="334.125" y2="334.125" class="thin blue line"/>
    <line x1="0" x2="612" y1="322.875" y2="322.875" class="thin blue line"/>
    <line x1="0" x2="612" y1="317.25" y2="317.25" class="thin blue line"/>
    <line x1="0" x2="612" y1="311.625" y2="311.625" class="thin blue line"/>
    <line x1="0" x2="612" y1="300.375" y2="300.375" class="thin blue line"/>
    <line x1="0" x2="612" y1="294.75" y2="294.75" class="thin blue line"/>
    <line x1="0" x2="612" y1="289.125" y2="289.125" class="thin blue line"/>
    <line x1="0" x2="612" y1="277.875" y2="277.875" class="thin blue line"/>
    <line x1="0" x2="612" y1="272.25" y2="272.25" class="thin blue line"/>
    <line x1="0" x2="612" y1="266.625" y2="266.625" class="thin blue line"/>
    <line x1="0" x2="612" y1="255.375" y2="255.375" class="thin blue line"/>
    <line x1="0" x2="612" y1="249.75" y2="249.75" class="thin blue line"/>
    <line x1="0" x2="612" y1="244.125" y2="244.125" class="thin blue line"/>
    <line x1="0" x2="612" y1="232.875" y2="232.875" class="thin blue line"/>
    <line x1="0" x2="612" y1="227.25" y2="227.25" class="thin blue line"/>
    <line x1="0" x2="612" y1="221.625" y2="221.625" class="thin blue line"/>
    <line x1="0" x2="612" y1="210.375" y2="210.375" class="thin blue line"/>
    <line x1="0" x2="612" y1="204.75" y2="204.75" class="thin blue line"/>
    <line x1="0" x2="612" y1="199.125" y2="199.125" class="thin blue line"/>
    <line x1="0" x2="612" y1="187.875" y2="187.875" class="thin blue line"/>
    <line x1="0" x2="612" y1="182.25" y2="182.25" class="thin blue line"/>
    <line x1="0" x2="612" y1="176.625" y2="176.625" class="thin blue line"/>
    <line x1="0" x2="612" y1="165.375" y2="165.375" class="thin blue line"/>
    <line x1="0" x2="612" y1="159.75" y2="159.75" class="thin blue line"/>
    <line x1="0" x2="612" y1="154.125" y2="154.125" class="thin blue line"/>
    <line x1="0" x2="612" y1="142.875" y2="142.875" class="thin blue line"/>
    <line x1="0" x2="612" y1="137.25" y2="137.25" class="thin blue line"/>
    <line x1="0" x2="612" y1="131.625" y2="131.625" class="thin blue line"/>
    <line x1="0" x2="612" y1="120.375" y2="120.375" class="thin blue line"/>
    <line x1="0" x2="612" y1="114.75" y2="114.75" class="thin blue line"/>
    <line x1="0" x2="612" y1="109.125" y2="109.125" class="thin blue line"/>
    <line x1="0" x2="612" y1="97.875" y2="97.875" class="thin blue line"/>
    <line x1="0" x2="612" y1="92.25" y2="92.25" class="thin blue line"/>
    <line x1="0" x2="612" y1="86.625" y2="86.625" class="thin blue line"/>
  </g>
  <g id="vertical-lines">
    <line x1="92.25" x2="92.25" y1="792" y2="0" class="thin blue line"/>
    <line x1="114.75" x2="114.75" y1="792" y2="0" class="thin blue line"/>
    <line x1="137.25" x2="137.25" y1="792" y2="0" class="thin blue line"/>
    <line x1="159.75" x2="159.75" y1="792" y2="0" class="thin blue line"/>
    <line x1="182.25" x2="182.25" y1="792" y2="0" class="thin blue line"/>
    <line x1="204.75" x2="204.75" y1="792" y2="0" class="thin blue line"/>
    <line x1="227.25" x2="227.25" y1="792" y2="0" class="thin blue line"/>
    <line x1="249.75" x2="249.75" y1="792" y2="0" class="thin blue line"/>
    <line x1="272.25" x2="272.25" y1="792" y2="0" class="thin blue line"/>
    <line x1="294.75" x2="294.75" y1="792" y2="0" class="thin blue line"/>
    <line x1="317.25" x2="317.25" y1="792" y2="0" class="thin blue line"/>
    <line x1="339.75" x2="339.75" y1="792" y2="0" class="thin blue line"/>
    <line x1="362.25" x2="362.25" y1="792" y2="0" class="thin blue line"/>
    <line x1="384.75" x2="384.75" y1="792" y2="0" class="thin blue line"/>
    <line x1="407.25" x2="407.25" y1="792" y2="0" class="thin blue line"/>
    <line x1="429.75" x2="429.75" y1="792" y2="0" class="thin blue line"/>
    <line x1="452.25" x2="452.25" y1="792" y2="0" class="thin blue line"/>
    <line x1="474.75" x2="474.75" y1="792" y2="0" class="thin blue line"/>
    <line x1="497.25" x2="497.25" y1="792" y2="0" class="thin blue line"/>
    <line x1="519.75" x2="519.75" y1="792" y2="0" class="thin blue line"/>
    <line x1="542.25" x2="542.25" y1="792" y2="0" class="thin blue line"/>
    <line x1="564.75" x2="564.75" y1="792" y2="0" class="thin blue line"/>
    <line x1="587.25" x2="587.25" y1="792" y2="0" class="thin blue line"/>
    <line x1="609.75" x2="609.75" y1="792" y2="0" class="thin blue line"/>
  </g>
  <g id="horizontal-lines">
    <line x1="0" x2="612" y1="711" y2="711" class="blue line"/>
    <line x1="0" x2="612" y1="688.5" y2="688.5" class="blue line"/>
    <line x1="0" x2="612" y1="666" y2="666" class="blue line"/>
    <line x1="0" x2="612" y1="643.5" y2="643.5" class="blue line"/>
    <line x1="0" x2="612" y1="621" y2="621" class="blue line"/>
    <line x1="0" x2="612" y1="598.5" y2="598.5" class="blue line"/>
    <line x1="0" x2="612" y1="576" y2="576" class="blue line"/>
    <line x1="0" x2="612" y1="553.5" y2="553.5" class="blue line"/>
    <line x1="0" x2="612" y1="531" y2="531" class="blue line"/>
    <line x1="0" x2="612" y1="508.5" y2="508.5" class="blue line"/>
    <line x1="0" x2="612" y1="486" y2="486" class="blue line"/>
    <line x1="0" x2="612" y1="463.5" y2="463.5" class="blue line"/>
    <line x1="0" x2="612" y1="441" y2="441" class="blue line"/>
    <line x1="0" x2="612" y1="418.5" y2="418.5" class="blue line"/>
    <line x1="0" x2="612" y1="396" y2="396" class="blue line"/>
    <line x1="0" x2="612" y1="373.5" y2="373.5" class="blue line"/>
    <line x1="0" x2="612" y1="351" y2="351" class="blue line"/>
    <line x1="0" x2="612" y1="328.5" y2="328.5" class="blue line"/>
    <line x1="0" x2="612" y1="306" y2="306" class="blue line"/>
    <line x1="0" x2="612" y1="283.5" y2="283.5" class="blue line"/>
    <line x1="0" x2="612" y1="261" y2="261" class="blue line"/>
    <line x1="0" x2="612" y1="238.5" y2="238.5" class="blue line"/>
    <line x1="0" x2="612" y1="216" y2="216" class="blue line"/>
    <line x1="0" x2="612" y1="193.5" y2="193.5" class="blue line"/>
    <line x1="0" x2="612" y1="171" y2="171" class="blue line"/>
    <line x1="0" x2="612" y1="148.5" y2="148.5" class="blue line"/>
    <line x1="0" x2="612" y1="126" y2="126" class="blue line"/>
    <line x1="0" x2="612" y1="103.5" y2="103.5" class="blue line"/>
  </g>
  <g id="additional-horizontal-lines">
    <line x1="0" x2="612" y1="36" y2="36" class="thin blue line"/>
    <line x1="519.75" x2="587.25" y1="778.5" y2="778.5" class="thin blue line"/>
  </g>
  <g id="margin-lines">
    <line x1="92.25" x2="92.25" y1="792" y2="0" class="red margin-line"/>
  </g>
</svg>
