<?xml version="1.0" encoding="UTF-8"?>
<svg xmlns="http://www.w3.org/2000/svg" width="419.528pt" height="595.276pt" viewBox="0.000 0.000 419.528 595.276">
  <style>        .line, .dot { stroke-linecap: round; }
        .stroke-linecap-butt { stroke-linecap: butt; }

        .rectangle { fill: #ffffff; }

        .line.xx-thin    { stroke-width: 0.32px; }
        .line.x-thin     { stroke-width: 0.48px; }
        .line.thin       { stroke-width: 0.64px; }
        .line.semi-thin  { stroke-width: 0.783837px; }
        .line            { stroke-width: 0.96px; }
        .line.semi-thick { stroke-width: 1.17576px; }
        .line.thick      { stroke-width: 1.44px; }

        .dot.xx-thin     { stroke-width: 0.64px; }
        .dot.x-thin      { stroke-width: 0.96px; }
        .dot.thin        { stroke-width: 1.28px; }
        .dot.semi-thin   { stroke-width: 1.56767px; }
        .dot             { stroke-width: 1.92px; }
        .dot.semi-thick  { stroke-width: 2.35151px; }
        .dot.thick       { stroke-width: 2.88px; }

        .stroke-1  { stroke-width: 0.12px; stroke-linecap: round; }
        .stroke-2  { stroke-width: 0.24px; stroke-linecap: round; }
        .stroke-3  { stroke-width: 0.36px; stroke-linecap: round; }
        .stroke-4  { stroke-width: 0.48px; stroke-linecap: round; }
        .stroke-5  { stroke-width: 0.6px; stroke-linecap: round; }
        .stroke-6  { stroke-width: 0.72px; stroke-linecap: round; }
        .stroke-7  { stroke-width: 0.84px; stroke-linecap: round; }
        .stroke-8  { stroke-width: 0.96px; stroke-linecap: round; }
        .stroke-9  { stroke-width: 1.08px; stroke-linecap: round; }
        .stroke-10 { stroke-width: 1.2px; stroke-linecap: round; }
        .stroke-11 { stroke-width: 1.32px; stroke-linecap: round; }
        .stroke-12 { stroke-width: 1.44px; stroke-linecap: round; }
        .stroke-13 { stroke-width: 1.56px; stroke-linecap: round; }
        .stroke-14 { stroke-width: 1.68px; stroke-linecap: round; }
        .stroke-15 { stroke-width: 1.8px; stroke-linecap: round; }
        .stroke-16 { stroke-width: 1.92px; stroke-linecap: round; }
        .stroke-17 { stroke-width: 2.04px; stroke-linecap: round; }
        .stroke-18 { stroke-width: 2.16px; stroke-linecap: round; }
        .stroke-19 { stroke-width: 2.28px; stroke-linecap: round; }
        .stroke-20 { stroke-width: 2.4px; stroke-linecap: round; }
        .stroke-21 { stroke-width: 2.52px; stroke-linecap: round; }
        .stroke-22 { stroke-width: 2.64px; stroke-linecap: round; }
        .stroke-23 { stroke-width: 2.76px; stroke-linecap: round; }
        .stroke-24 { stroke-width: 2.88px; stroke-linecap: round; }

        .blue  { stroke: #b3b3ff; }
        .red   { stroke: #ff9999; }
        .green { stroke: #b3ffb3; }
        .gray  { stroke: #b3b3b3; }

        .thin-black               { stroke-width: 0.12px; stroke: #000000; }
        .thin-black.stroke-6      { stroke-width: 0.72px; }
        .thin-black.stroke-4      { stroke-width: 0.48px; }
        .thin-black.stroke-2      { stroke-width: 0.24px; }
        .thin-black.stroke-half   { stroke-width: 0.12px; stroke: #808080; }
        .thin-black.stroke-quater { stroke-width: 0.12px; stroke: #c0c0c0; }

        .thin-blue                { stroke-width: 0.24px; stroke: #8080ff; }
        .thin-blue.stroke-6       { stroke-width: 1.44px; }
        .thin-blue.stroke-4       { stroke-width: 0.96px; }
        .thin-blue.stroke-2       { stroke-width: 0.48px; }
        .thin-blue.stroke-half    { stroke-width: 0.12px; stroke: #8080ff; }
        .thin-blue.stroke-quarter { stroke-width: 0.12px; stroke: #c0c0ff; }

        .thin-gray                { stroke-width: 0.24px; stroke: #808080; }
        .thin-gray.stroke-6       { stroke-width: 1.44px; }
        .thin-gray.stroke-4       { stroke-width: 0.96px; }
        .thin-gray.stroke-2       { stroke-width: 0.48px; }
        .thin-gray.stroke-half    { stroke-width: 0.12px; stroke: #808080; }
        .thin-gray.stroke-quarter { stroke-width: 0.12px; stroke: #c0c0c0; }

        .light.blue  { stroke: #d9d9ff; }
        .light.red   { stroke: #ffcccc; }
        .light.green { stroke: #d9ffd9; }
        .light.gray  { stroke: #d9d9d9; }

        .dark.blue  { stroke: #6767ff; }
        .dark.red   { stroke: #ff3333; }
        .dark.green { stroke: #67ff67; }
        .dark.gray  { stroke: #676767; }

        .alternate.blue  { stroke: #6767ff; opacity: 0.5; }
        .alternate.red   { stroke: #ff3333; opacity: 0.5; }
        .alternate.green { stroke: #67ff67; opacity: 0.5; }
        .alternate.gray  { stroke: #676767; opacity: 0.5; }

        .gray20 { stroke: #333333; }
        .gray40 { stroke: #666666; }
        .gray60 { stroke: #999999; }
        .gray80 { stroke: #cccccc; }
</style>
  <defs/>
  <g id="grid">
    <line x1="0.000" x2="419.528" y1="0.000" y2="0.000" class="xx-thin blue line"/>
    <line x1="0.000" x2="419.528" y1="8.504" y2="8.504" class="xx-thin blue line"/>
    <line x1="0.000" x2="419.528" y1="17.008" y2="17.008" class="xx-thin blue line"/>
    <line x1="0.000" x2="419.528" y1="25.512" y2="25.512" class="xx-thin blue line"/>
    <line x1="0.000" x2="419.528" y1="34.016" y2="34.016" class="xx-thin blue line"/>
    <line x1="0.000" x2="419.528" y1="42.520" y2="42.520" class="xx-thin blue line"/>
    <line x1="0.000" x2="419.528" y1="51.024" y2="51.024" class="xx-thin blue line"/>
    <line x1="0.000" x2="419.528" y1="59.528" y2="59.528" class="xx-thin blue line"/>
    <line x1="0.000" x2="419.528" y1="68.032" y2="68.032" class="xx-thin blue line"/>
    <line x1="0.000" x2="419.528" y1="76.536" y2="76.536" class="xx-thin blue line"/>
    <line x1="0.000" x2="419.528" y1="85.040" y2="85.040" class="xx-thin blue line"/>
    <line x1="0.000" x2="419.528" y1="93.544" y2="93.544" class="xx-thin blue line"/>
    <line x1="0.000" x2="419.528" y1="102.047" y2="102.047" class="xx-thin blue line"/>
    <line x1="0.000" x2="419.528" y1="110.551" y2="110.551" class="xx-thin blue line"/>
    <line x1="0.000" x2="419.528" y1="119.055" y2="119.055" class="xx-thin blue line"/>
    <line x1="0.000" x2="419.528" y1="127.559" y2="127.559" class="xx-thin blue line"/>
    <line x1="0.000" x2="419.528" y1="136.063" y2="136.063" class="xx-thin blue line"/>
    <line x1="0.000" x2="419.528" y1="144.567" y2="144.567" class="xx-thin blue line"/>
    <line x1="0.000" x2="419.528" y1="153.071" y2="153.071" class="xx-thin blue line"/>
    <line x1="0.000" x2="419.528" y1="161.575" y2="161.575" class="xx-thin blue line"/>
    <line x1="0.000" x2="419.528" y1="170.079" y2="170.079" class="xx-thin blue line"/>
    <line x1="0.000" x2="419.528" y1="178.583" y2="178.583" class="xx-thin blue line"/>
    <line x1="0.000" x2="419.528" y1="187.087" y2="187.087" class="xx-thin blue line"/>
    <line x1="0.000" x2="419.528" y1="195.591" y2="195.591" class="xx-thin blue line"/>
    <line x1="0.000" x2="419.528" y1="204.095" y2="204.095" class="xx-thin blue line"/>
    <line x1="0.000" x2="419.528" y1="212.599" y2="212.599" class="xx-thin blue line"/>
    <line x1="0.000" x2="419.528" y1="221.103" y2="221.103" class="xx-thin blue line"/>
    <line x1="0.000" x2="419.528" y1="229.607" y2="229.607" class="xx-thin blue line"/>
    <line x1="0.000" x2="419.528" y1="238.110" y2="238.110" class="xx-thin blue line"/>
    <line x1="0.000" x2="419.528" y1="246.614" y2="246.614" class="xx-thin blue line"/>
    <line x1="0.000" x2="419.528" y1="255.118" y2="255.118" class="xx-thin blue line"/>
    <line x1="0.000" x2="419.528" y1="263.622" y2="263.622" class="xx-thin blue line"/>
    <line x1="0.000" x2="419.528" y1="272.126" y2="272.126" class="xx-thin blue line"/>
    <line x1="0.000" x2="419.528" y1="280.630" y2="280.630" class="xx-thin blue line"/>
    <line x1="0.000" x2="419.528" y1="289.134" y2="289.134" class="xx-thin blue line"/>
    <line x1="0.000" x2="419.528" y1="297.638" y2="297.638" class="xx-thin blue line"/>
    <line x1="0.000" x2="419.528" y1="306.142" y2="306.142" class="xx-thin blue line"/>
    <line x1="0.000" x2="419.528" y1="314.646" y2="314.646" class="xx-thin blue line"/>
    <line x1="0.000" x2="419.528" y1="323.150" y2="323.150" class="xx-thin blue line"/>
    <line x1="0.000" x2="419.528" y1="331.654" y2="331.654" class="xx-thin blue line"/>
    <line x1="0.000" x2="419.528" y1="340.158" y2="340.158" class="xx-thin blue line"/>
    <line x1="0.000" x2="419.528" y1="348.662" y2="348.662" class="xx-thin blue line"/>
    <line x1="0.000" x2="419.528" y1="357.166" y2="357.166" class="xx-thin blue line"/>
    <line x1="0.000" x2="419.528" y1="365.669" y2="365.669" class="xx-thin blue line"/>
    <line x1="0.000" x2="419.528" y1="374.173" y2="374.173" class="xx-thin blue line"/>
    <line x1="0.000" x2="419.528" y1="382.677" y2="382.677" class="xx-thin blue line"/>
    <line x1="0.000" x2="419.528" y1="391.181" y2="391.181" class="xx-thin blue line"/>
    <line x1="0.000" x2="419.528" y1="399.685" y2="399.685" class="xx-thin blue line"/>
    <line x1="0.000" x2="419.528" y1="408.189" y2="408.189" class="xx-thin blue line"/>
    <line x1="0.000" x2="419.528" y1="416.693" y2="416.693" class="xx-thin blue line"/>
    <line x1="0.000" x2="419.528" y1="425.197" y2="425.197" class="xx-thin blue line"/>
    <line x1="0.000" x2="419.528" y1="433.701" y2="433.701" class="xx-thin blue line"/>
    <line x1="0.000" x2="419.528" y1="442.205" y2="442.205" class="xx-thin blue line"/>
    <line x1="0.000" x2="419.528" y1="450.709" y2="450.709" class="xx-thin blue line"/>
    <line x1="0.000" x2="419.528" y1="459.213" y2="459.213" class="xx-thin blue line"/>
    <line x1="0.000" x2="419.528" y1="467.717" y2="467.717" class="xx-thin blue line"/>
    <line x1="0.000" x2="419.528" y1="476.221" y2="476.221" class="xx-thin blue line"/>
    <line x1="0.000" x2="419.528" y1="484.725" y2="484.725" class="xx-thin blue line"/>
    <line x1="0.000" x2="419.528" y1="493.229" y2="493.229" class="xx-thin blue line"/>
    <line x1="0.000" x2="419.528" y1="501.732" y2="501.732" class="xx-thin blue line"/>
    <line x1="0.000" x2="419.528" y1="510.236" y2="510.236" class="xx-thin blue line"/>
    <line x1="0.000" x2="419.528" y1="518.740" y2="518.740" class="xx-thin blue line"/>
    <line x1="0.000" x2="419.528" y1="527.244" y2="527.244" class="xx-thin blue line"/>
    <line x1="0.000" x2="419.528" y1="535.748" y2="535.748" class="xx-thin blue line"/>
    <line x1="0.000" x2="419.528" y1="544.252" y2="544.252" class="xx-thin blue line"/>
    <line x1="0.000" x2="419.528" y1="552.756" y2="552.756" class="xx-thin blue line"/>
    <line x1="0.000" x2="419.528" y1="561.260" y2="561.260" class="xx-thin blue line"/>
    <line x1="0.000" x2="419.528" y1="569.764" y2="569.764" class="xx-thin blue line"/>
    <line x1="0.000" x2="419.528" y1="578.268" y2="578.268" class="xx-thin blue line"/>
    <line x1="0.000" x2="419.528" y1="586.772" y2="586.772" class="xx-thin blue line"/>
    <line x1="0.000" x2="419.528" y1="595.276" y2="595.276" class="xx-thin blue line"/>
    <line x1="2.835" x2="2.835" y1="0.000" y2="595.276" class="xx-thin blue line"/>
    <line x1="11.339" x2="11.339" y1="0.000" y2="595.276" class="xx-thin blue line"/>
    <line x1="19.843" x2="19.843" y1="0.000" y2="595.276" class="xx-thin blue line"/>
    <line x1="28.346" x2="28.346" y1="0.000" y2="595.276" class="xx-thin blue line"/>
    <line x1="36.850" x2="36.850" y1="0.000" y2="595.276" class="xx-thin blue line"/>
    <line x1="45.354" x2="45.354" y1="0.000" y2="595.276" class="xx-thin blue line"/>
    <line x1="53.858" x2="53.858" y1="0.000" y2="595.276" class="xx-thin blue line"/>
    <line x1="62.362" x2="62.362" y1="0.000" y2="595.276" class="xx-thin blue line"/>
    <line x1="70.866" x2="70.866" y1="0.000" y2="595.276" class="xx-thin blue line"/>
    <line x1="79.370" x2="79.370" y1="0.000" y2="595.276" class="xx-thin blue line"/>
    <line x1="87.874" x2="87.874" y1="0.000" y2="595.276" class="xx-thin blue line"/>
    <line x1="96.378" x2="96.378" y1="0.000" y2="595.276" class="xx-thin blue line"/>
    <line x1="104.882" x2="104.882" y1="0.000" y2="595.276" class="xx-thin blue line"/>
    <line x1="113.386" x2="113.386" y1="0.000" y2="595.276" class="xx-thin blue line"/>
    <line x1="121.890" x2="121.890" y1="0.000" y2="595.276" class="xx-thin blue line"/>
    <line x1="130.394" x2="130.394" y1="0.000" y2="595.276" class="xx-thin blue line"/>
    <line x1="138.898" x2="138.898" y1="0.000" y2="595.276" class="xx-thin blue line"/>
    <line x1="147.402" x2="147.402" y1="0.000" y2="595.276" class="xx-thin blue line"/>
    <line x1="155.906" x2="155.906" y1="0.000" y2="595.276" class="xx-thin blue line"/>
    <line x1="164.409" x2="164.409" y1="0.000" y2="595.276" class="xx-thin blue line"/>
    <line x1="172.913" x2="172.913" y1="0.000" y2="595.276" class="xx-thin blue line"/>
    <line x1="181.417" x2="181.417" y1="0.000" y2="595.276" class="xx-thin blue line"/>
    <line x1="189.921" x2="189.921" y1="0.000" y2="595.276" class="xx-thin blue line"/>
    <line x1="198.425" x2="198.425" y1="0.000" y2="595.276" class="xx-thin blue line"/>
    <line x1="206.929" x2="206.929" y1="0.000" y2="595.276" class="xx-thin blue line"/>
    <line x1="215.433" x2="215.433" y1="0.000" y2="595.276" class="xx-thin blue line"/>
    <line x1="223.937" x2="223.937" y1="0.000" y2="595.276" class="xx-thin blue line"/>
    <line x1="232.441" x2="232.441" y1="0.000" y2="595.276" class="xx-thin blue line"/>
    <line x1="240.945" x2="240.945" y1="0.000" y2="595.276" class="xx-thin blue line"/>
    <line x1="249.449" x2="249.449" y1="0.000" y2="595.276" class="xx-thin blue line"/>
    <line x1="257.953" x2="257.953" y1="0.000" y2="595.276" class="xx-thin blue line"/>
    <line x1="266.457" x2="266.457" y1="0.000" y2="595.276" class="xx-thin blue line"/>
    <line x1="274.961" x2="274.961" y1="0.000" y2="595.276" class="xx-thin blue line"/>
    <line x1="283.465" x2="283.465" y1="0.000" y2="595.276" class="xx-thin blue line"/>
    <line x1="291.969" x2="291.969" y1="0.000" y2="595.276" class="xx-thin blue line"/>
    <line x1="300.472" x2="300.472" y1="0.000" y2="595.276" class="xx-thin blue line"/>
    <line x1="308.976" x2="308.976" y1="0.000" y2="595.276" class="xx-thin blue line"/>
    <line x1="317.480" x2="317.480" y1="0.000" y2="595.276" class="xx-thin blue line"/>
    <line x1="325.984" x2="325.984" y1="0.000" y2="595.276" class="xx-thin blue line"/>
    <line x1="334.488" x2="334.488" y1="0.000" y2="595.276" class="xx-thin blue line"/>
    <line x1="342.992" x2="342.992" y1="0.000" y2="595.276" class="xx-thin blue line"/>
    <line x1="351.496" x2="351.496" y1="0.000" y2="595.276" class="xx-thin blue line"/>
    <line x1="360.000" x2="360.000" y1="0.000" y2="595.276" class="xx-thin blue line"/>
    <line x1="368.504" x2="368.504" y1="0.000" y2="595.276" class="xx-thin blue line"/>
    <line x1="377.008" x2="377.008" y1="0.000" y2="595.276" class="xx-thin blue line"/>
    <line x1="385.512" x2="385.512" y1="0.000" y2="595.276" class="xx-thin blue line"/>
    <line x1="394.016" x2="394.016" y1="0.000" y2="595.276" class="xx-thin blue line"/>
    <line x1="402.520" x2="402.520" y1="0.000" y2="595.276" class="xx-thin blue line"/>
    <line x1="411.024" x2="411.024" y1="0.000" y2="595.276" class="xx-thin blue line"/>
    <line x1="419.528" x2="419.528" y1="0.000" y2="595.276" class="xx-thin blue line"/>
  </g>
  <g id="lines">
    <line x1="0.000" x2="419.528" y1="17.008" y2="17.008" class=" blue line"/>
    <line x1="0.000" x2="419.528" y1="42.520" y2="42.520" class=" blue line"/>
    <line x1="0.000" x2="419.528" y1="68.032" y2="68.032" class=" blue line"/>
    <line x1="0.000" x2="419.528" y1="93.544" y2="93.544" class=" blue line"/>
    <line x1="0.000" x2="419.528" y1="119.055" y2="119.055" class=" blue line"/>
    <line x1="0.000" x2="419.528" y1="144.567" y2="144.567" class=" blue line"/>
    <line x1="0.000" x2="419.528" y1="170.079" y2="170.079" class=" blue line"/>
    <line x1="0.000" x2="419.528" y1="195.591" y2="195.591" class=" blue line"/>
    <line x1="0.000" x2="419.528" y1="221.103" y2="221.103" class=" blue line"/>
    <line x1="0.000" x2="419.528" y1="246.614" y2="246.614" class=" blue line"/>
    <line x1="0.000" x2="419.528" y1="272.126" y2="272.126" class=" blue line"/>
    <line x1="0.000" x2="419.528" y1="297.638" y2="297.638" class=" blue line"/>
    <line x1="0.000" x2="419.528" y1="323.150" y2="323.150" class=" blue line"/>
    <line x1="0.000" x2="419.528" y1="348.662" y2="348.662" class=" blue line"/>
    <line x1="0.000" x2="419.528" y1="374.173" y2="374.173" class=" blue line"/>
    <line x1="0.000" x2="419.528" y1="399.685" y2="399.685" class=" blue line"/>
    <line x1="0.000" x2="419.528" y1="425.197" y2="425.197" class=" blue line"/>
    <line x1="0.000" x2="419.528" y1="450.709" y2="450.709" class=" blue line"/>
    <line x1="0.000" x2="419.528" y1="476.221" y2="476.221" class=" blue line"/>
    <line x1="0.000" x2="419.528" y1="501.732" y2="501.732" class=" blue line"/>
    <line x1="0.000" x2="419.528" y1="527.244" y2="527.244" class=" blue line"/>
    <line x1="0.000" x2="419.528" y1="552.756" y2="552.756" class=" blue line"/>
    <line x1="0.000" x2="419.528" y1="578.268" y2="578.268" class=" blue line"/>
  </g>
  <g id="margin-line">
    <line x1="62.362" x2="62.362" y1="0.000" y2="595.276" class="red line"/>
  </g>
  <rect x="115.264" y="569.276" width="189" height="12" fill="#ffffff" stroke="none" stroke-width="0px"/>
  <text x="209.764" y="577.276" text-anchor="middle" fill="#b3b3ff" stroke="none" stroke-width="0" style="font-family: &quot;Courier&quot;, &quot;Courier New&quot;, monospace; font-size: 6pt;">https://github.com/dse/printable-paper</text>
</svg>
