<?xml version="1.0" encoding="UTF-8"?>
<svg xmlns="http://www.w3.org/2000/svg" width="612.000pt" height="792.000pt" viewBox="0.000 0.000 612.000 792.000">
  <style>
        .line, .dot, .major-line, .feint-line, .margin-line { stroke-linecap: round; stroke-linejoin: round; }
        .stroke-linecap-butt    { stroke-linecap:  butt;   }
        .stroke-linecap-round   { stroke-linecap:  round;  }
        .stroke-linecap-square  { stroke-linecap:  square; }
        .stroke-linejoin-butt   { stroke-linejoin: butt;   }
        .stroke-linejoin-round  { stroke-linejoin: round;  }
        .stroke-linejoin-square { stroke-linejoin: square; }
        .rectangle { fill: #ffffff; }


        .line        { stroke-width: 0.96px; opacity:  1; }
        .major-line  { stroke-width: 1.35764501987817px; opacity: 1; }
        .feint-line  { stroke-width: 0.339411254969543px; opacity:  1; }

        .dot         { stroke-width: 1.92px; opacity:  1; }

        .margin-line { stroke-width: 0.96px; opacity:  1; }
        .line        { stroke: #b3b3ff; }
        .major-line  { stroke: #b3b3ff; }
        .feint-line  { stroke: #b3b3ff; }
        .dot         { stroke: #b3b3ff; }
        .margin-line { stroke: #ff9e9e; }
  </style>
  <defs/>
  <g id="grid">
    <line x1="0.000" x2="612.000" y1="0.000" y2="0.000" class="feint-line horizontal"/>
    <line x1="0.000" x2="612.000" y1="9.000" y2="9.000" class="feint-line horizontal"/>
    <line x1="0.000" x2="612.000" y1="18.000" y2="18.000" class="feint-line horizontal"/>
    <line x1="0.000" x2="612.000" y1="27.000" y2="27.000" class="feint-line horizontal"/>
    <line x1="0.000" x2="612.000" y1="36.000" y2="36.000" class="feint-line horizontal"/>
    <line x1="0.000" x2="612.000" y1="45.000" y2="45.000" class="feint-line horizontal"/>
    <line x1="0.000" x2="612.000" y1="54.000" y2="54.000" class="feint-line horizontal"/>
    <line x1="0.000" x2="612.000" y1="63.000" y2="63.000" class="feint-line horizontal"/>
    <line x1="0.000" x2="612.000" y1="72.000" y2="72.000" class="feint-line horizontal"/>
    <line x1="0.000" x2="612.000" y1="81.000" y2="81.000" class="feint-line horizontal"/>
    <line x1="0.000" x2="612.000" y1="90.000" y2="90.000" class="feint-line horizontal"/>
    <line x1="0.000" x2="612.000" y1="99.000" y2="99.000" class="feint-line horizontal"/>
    <line x1="0.000" x2="612.000" y1="108.000" y2="108.000" class="feint-line horizontal"/>
    <line x1="0.000" x2="612.000" y1="117.000" y2="117.000" class="feint-line horizontal"/>
    <line x1="0.000" x2="612.000" y1="126.000" y2="126.000" class="feint-line horizontal"/>
    <line x1="0.000" x2="612.000" y1="135.000" y2="135.000" class="feint-line horizontal"/>
    <line x1="0.000" x2="612.000" y1="144.000" y2="144.000" class="feint-line horizontal"/>
    <line x1="0.000" x2="612.000" y1="153.000" y2="153.000" class="feint-line horizontal"/>
    <line x1="0.000" x2="612.000" y1="162.000" y2="162.000" class="feint-line horizontal"/>
    <line x1="0.000" x2="612.000" y1="171.000" y2="171.000" class="feint-line horizontal"/>
    <line x1="0.000" x2="612.000" y1="180.000" y2="180.000" class="feint-line horizontal"/>
    <line x1="0.000" x2="612.000" y1="189.000" y2="189.000" class="feint-line horizontal"/>
    <line x1="0.000" x2="612.000" y1="198.000" y2="198.000" class="feint-line horizontal"/>
    <line x1="0.000" x2="612.000" y1="207.000" y2="207.000" class="feint-line horizontal"/>
    <line x1="0.000" x2="612.000" y1="216.000" y2="216.000" class="feint-line horizontal"/>
    <line x1="0.000" x2="612.000" y1="225.000" y2="225.000" class="feint-line horizontal"/>
    <line x1="0.000" x2="612.000" y1="234.000" y2="234.000" class="feint-line horizontal"/>
    <line x1="0.000" x2="612.000" y1="243.000" y2="243.000" class="feint-line horizontal"/>
    <line x1="0.000" x2="612.000" y1="252.000" y2="252.000" class="feint-line horizontal"/>
    <line x1="0.000" x2="612.000" y1="261.000" y2="261.000" class="feint-line horizontal"/>
    <line x1="0.000" x2="612.000" y1="270.000" y2="270.000" class="feint-line horizontal"/>
    <line x1="0.000" x2="612.000" y1="279.000" y2="279.000" class="feint-line horizontal"/>
    <line x1="0.000" x2="612.000" y1="288.000" y2="288.000" class="feint-line horizontal"/>
    <line x1="0.000" x2="612.000" y1="297.000" y2="297.000" class="feint-line horizontal"/>
    <line x1="0.000" x2="612.000" y1="306.000" y2="306.000" class="feint-line horizontal"/>
    <line x1="0.000" x2="612.000" y1="315.000" y2="315.000" class="feint-line horizontal"/>
    <line x1="0.000" x2="612.000" y1="324.000" y2="324.000" class="feint-line horizontal"/>
    <line x1="0.000" x2="612.000" y1="333.000" y2="333.000" class="feint-line horizontal"/>
    <line x1="0.000" x2="612.000" y1="342.000" y2="342.000" class="feint-line horizontal"/>
    <line x1="0.000" x2="612.000" y1="351.000" y2="351.000" class="feint-line horizontal"/>
    <line x1="0.000" x2="612.000" y1="360.000" y2="360.000" class="feint-line horizontal"/>
    <line x1="0.000" x2="612.000" y1="369.000" y2="369.000" class="feint-line horizontal"/>
    <line x1="0.000" x2="612.000" y1="378.000" y2="378.000" class="feint-line horizontal"/>
    <line x1="0.000" x2="612.000" y1="387.000" y2="387.000" class="feint-line horizontal"/>
    <line x1="0.000" x2="612.000" y1="396.000" y2="396.000" class="feint-line horizontal"/>
    <line x1="0.000" x2="612.000" y1="405.000" y2="405.000" class="feint-line horizontal"/>
    <line x1="0.000" x2="612.000" y1="414.000" y2="414.000" class="feint-line horizontal"/>
    <line x1="0.000" x2="612.000" y1="423.000" y2="423.000" class="feint-line horizontal"/>
    <line x1="0.000" x2="612.000" y1="432.000" y2="432.000" class="feint-line horizontal"/>
    <line x1="0.000" x2="612.000" y1="441.000" y2="441.000" class="feint-line horizontal"/>
    <line x1="0.000" x2="612.000" y1="450.000" y2="450.000" class="feint-line horizontal"/>
    <line x1="0.000" x2="612.000" y1="459.000" y2="459.000" class="feint-line horizontal"/>
    <line x1="0.000" x2="612.000" y1="468.000" y2="468.000" class="feint-line horizontal"/>
    <line x1="0.000" x2="612.000" y1="477.000" y2="477.000" class="feint-line horizontal"/>
    <line x1="0.000" x2="612.000" y1="486.000" y2="486.000" class="feint-line horizontal"/>
    <line x1="0.000" x2="612.000" y1="495.000" y2="495.000" class="feint-line horizontal"/>
    <line x1="0.000" x2="612.000" y1="504.000" y2="504.000" class="feint-line horizontal"/>
    <line x1="0.000" x2="612.000" y1="513.000" y2="513.000" class="feint-line horizontal"/>
    <line x1="0.000" x2="612.000" y1="522.000" y2="522.000" class="feint-line horizontal"/>
    <line x1="0.000" x2="612.000" y1="531.000" y2="531.000" class="feint-line horizontal"/>
    <line x1="0.000" x2="612.000" y1="540.000" y2="540.000" class="feint-line horizontal"/>
    <line x1="0.000" x2="612.000" y1="549.000" y2="549.000" class="feint-line horizontal"/>
    <line x1="0.000" x2="612.000" y1="558.000" y2="558.000" class="feint-line horizontal"/>
    <line x1="0.000" x2="612.000" y1="567.000" y2="567.000" class="feint-line horizontal"/>
    <line x1="0.000" x2="612.000" y1="576.000" y2="576.000" class="feint-line horizontal"/>
    <line x1="0.000" x2="612.000" y1="585.000" y2="585.000" class="feint-line horizontal"/>
    <line x1="0.000" x2="612.000" y1="594.000" y2="594.000" class="feint-line horizontal"/>
    <line x1="0.000" x2="612.000" y1="603.000" y2="603.000" class="feint-line horizontal"/>
    <line x1="0.000" x2="612.000" y1="612.000" y2="612.000" class="feint-line horizontal"/>
    <line x1="0.000" x2="612.000" y1="621.000" y2="621.000" class="feint-line horizontal"/>
    <line x1="0.000" x2="612.000" y1="630.000" y2="630.000" class="feint-line horizontal"/>
    <line x1="0.000" x2="612.000" y1="639.000" y2="639.000" class="feint-line horizontal"/>
    <line x1="0.000" x2="612.000" y1="648.000" y2="648.000" class="feint-line horizontal"/>
    <line x1="0.000" x2="612.000" y1="657.000" y2="657.000" class="feint-line horizontal"/>
    <line x1="0.000" x2="612.000" y1="666.000" y2="666.000" class="feint-line horizontal"/>
    <line x1="0.000" x2="612.000" y1="675.000" y2="675.000" class="feint-line horizontal"/>
    <line x1="0.000" x2="612.000" y1="684.000" y2="684.000" class="feint-line horizontal"/>
    <line x1="0.000" x2="612.000" y1="693.000" y2="693.000" class="feint-line horizontal"/>
    <line x1="0.000" x2="612.000" y1="702.000" y2="702.000" class="feint-line horizontal"/>
    <line x1="0.000" x2="612.000" y1="711.000" y2="711.000" class="feint-line horizontal"/>
    <line x1="0.000" x2="612.000" y1="720.000" y2="720.000" class="feint-line horizontal"/>
    <line x1="0.000" x2="612.000" y1="729.000" y2="729.000" class="feint-line horizontal"/>
    <line x1="0.000" x2="612.000" y1="738.000" y2="738.000" class="feint-line horizontal"/>
    <line x1="0.000" x2="612.000" y1="747.000" y2="747.000" class="feint-line horizontal"/>
    <line x1="0.000" x2="612.000" y1="756.000" y2="756.000" class="feint-line horizontal"/>
    <line x1="0.000" x2="612.000" y1="765.000" y2="765.000" class="feint-line horizontal"/>
    <line x1="0.000" x2="612.000" y1="774.000" y2="774.000" class="feint-line horizontal"/>
    <line x1="0.000" x2="612.000" y1="783.000" y2="783.000" class="feint-line horizontal"/>
    <line x1="0.000" x2="612.000" y1="792.000" y2="792.000" class="feint-line horizontal"/>
    <line x1="0.000" x2="0.000" y1="0.000" y2="792.000" class="feint-line vertical"/>
    <line x1="9.000" x2="9.000" y1="0.000" y2="792.000" class="feint-line vertical"/>
    <line x1="18.000" x2="18.000" y1="0.000" y2="792.000" class="feint-line vertical"/>
    <line x1="27.000" x2="27.000" y1="0.000" y2="792.000" class="feint-line vertical"/>
    <line x1="36.000" x2="36.000" y1="0.000" y2="792.000" class="feint-line vertical"/>
    <line x1="45.000" x2="45.000" y1="0.000" y2="792.000" class="feint-line vertical"/>
    <line x1="54.000" x2="54.000" y1="0.000" y2="792.000" class="feint-line vertical"/>
    <line x1="63.000" x2="63.000" y1="0.000" y2="792.000" class="feint-line vertical"/>
    <line x1="72.000" x2="72.000" y1="0.000" y2="792.000" class="feint-line vertical"/>
    <line x1="81.000" x2="81.000" y1="0.000" y2="792.000" class="feint-line vertical"/>
    <line x1="90.000" x2="90.000" y1="0.000" y2="792.000" class="feint-line vertical"/>
    <line x1="99.000" x2="99.000" y1="0.000" y2="792.000" class="feint-line vertical"/>
    <line x1="108.000" x2="108.000" y1="0.000" y2="792.000" class="feint-line vertical"/>
    <line x1="117.000" x2="117.000" y1="0.000" y2="792.000" class="feint-line vertical"/>
    <line x1="126.000" x2="126.000" y1="0.000" y2="792.000" class="feint-line vertical"/>
    <line x1="135.000" x2="135.000" y1="0.000" y2="792.000" class="feint-line vertical"/>
    <line x1="144.000" x2="144.000" y1="0.000" y2="792.000" class="feint-line vertical"/>
    <line x1="153.000" x2="153.000" y1="0.000" y2="792.000" class="feint-line vertical"/>
    <line x1="162.000" x2="162.000" y1="0.000" y2="792.000" class="feint-line vertical"/>
    <line x1="171.000" x2="171.000" y1="0.000" y2="792.000" class="feint-line vertical"/>
    <line x1="180.000" x2="180.000" y1="0.000" y2="792.000" class="feint-line vertical"/>
    <line x1="189.000" x2="189.000" y1="0.000" y2="792.000" class="feint-line vertical"/>
    <line x1="198.000" x2="198.000" y1="0.000" y2="792.000" class="feint-line vertical"/>
    <line x1="207.000" x2="207.000" y1="0.000" y2="792.000" class="feint-line vertical"/>
    <line x1="216.000" x2="216.000" y1="0.000" y2="792.000" class="feint-line vertical"/>
    <line x1="225.000" x2="225.000" y1="0.000" y2="792.000" class="feint-line vertical"/>
    <line x1="234.000" x2="234.000" y1="0.000" y2="792.000" class="feint-line vertical"/>
    <line x1="243.000" x2="243.000" y1="0.000" y2="792.000" class="feint-line vertical"/>
    <line x1="252.000" x2="252.000" y1="0.000" y2="792.000" class="feint-line vertical"/>
    <line x1="261.000" x2="261.000" y1="0.000" y2="792.000" class="feint-line vertical"/>
    <line x1="270.000" x2="270.000" y1="0.000" y2="792.000" class="feint-line vertical"/>
    <line x1="279.000" x2="279.000" y1="0.000" y2="792.000" class="feint-line vertical"/>
    <line x1="288.000" x2="288.000" y1="0.000" y2="792.000" class="feint-line vertical"/>
    <line x1="297.000" x2="297.000" y1="0.000" y2="792.000" class="feint-line vertical"/>
    <line x1="306.000" x2="306.000" y1="0.000" y2="792.000" class="feint-line vertical"/>
    <line x1="315.000" x2="315.000" y1="0.000" y2="792.000" class="feint-line vertical"/>
    <line x1="324.000" x2="324.000" y1="0.000" y2="792.000" class="feint-line vertical"/>
    <line x1="333.000" x2="333.000" y1="0.000" y2="792.000" class="feint-line vertical"/>
    <line x1="342.000" x2="342.000" y1="0.000" y2="792.000" class="feint-line vertical"/>
    <line x1="351.000" x2="351.000" y1="0.000" y2="792.000" class="feint-line vertical"/>
    <line x1="360.000" x2="360.000" y1="0.000" y2="792.000" class="feint-line vertical"/>
    <line x1="369.000" x2="369.000" y1="0.000" y2="792.000" class="feint-line vertical"/>
    <line x1="378.000" x2="378.000" y1="0.000" y2="792.000" class="feint-line vertical"/>
    <line x1="387.000" x2="387.000" y1="0.000" y2="792.000" class="feint-line vertical"/>
    <line x1="396.000" x2="396.000" y1="0.000" y2="792.000" class="feint-line vertical"/>
    <line x1="405.000" x2="405.000" y1="0.000" y2="792.000" class="feint-line vertical"/>
    <line x1="414.000" x2="414.000" y1="0.000" y2="792.000" class="feint-line vertical"/>
    <line x1="423.000" x2="423.000" y1="0.000" y2="792.000" class="feint-line vertical"/>
    <line x1="432.000" x2="432.000" y1="0.000" y2="792.000" class="feint-line vertical"/>
    <line x1="441.000" x2="441.000" y1="0.000" y2="792.000" class="feint-line vertical"/>
    <line x1="450.000" x2="450.000" y1="0.000" y2="792.000" class="feint-line vertical"/>
    <line x1="459.000" x2="459.000" y1="0.000" y2="792.000" class="feint-line vertical"/>
    <line x1="468.000" x2="468.000" y1="0.000" y2="792.000" class="feint-line vertical"/>
    <line x1="477.000" x2="477.000" y1="0.000" y2="792.000" class="feint-line vertical"/>
    <line x1="486.000" x2="486.000" y1="0.000" y2="792.000" class="feint-line vertical"/>
    <line x1="495.000" x2="495.000" y1="0.000" y2="792.000" class="feint-line vertical"/>
    <line x1="504.000" x2="504.000" y1="0.000" y2="792.000" class="feint-line vertical"/>
    <line x1="513.000" x2="513.000" y1="0.000" y2="792.000" class="feint-line vertical"/>
    <line x1="522.000" x2="522.000" y1="0.000" y2="792.000" class="feint-line vertical"/>
    <line x1="531.000" x2="531.000" y1="0.000" y2="792.000" class="feint-line vertical"/>
    <line x1="540.000" x2="540.000" y1="0.000" y2="792.000" class="feint-line vertical"/>
    <line x1="549.000" x2="549.000" y1="0.000" y2="792.000" class="feint-line vertical"/>
    <line x1="558.000" x2="558.000" y1="0.000" y2="792.000" class="feint-line vertical"/>
    <line x1="567.000" x2="567.000" y1="0.000" y2="792.000" class="feint-line vertical"/>
    <line x1="576.000" x2="576.000" y1="0.000" y2="792.000" class="feint-line vertical"/>
    <line x1="585.000" x2="585.000" y1="0.000" y2="792.000" class="feint-line vertical"/>
    <line x1="594.000" x2="594.000" y1="0.000" y2="792.000" class="feint-line vertical"/>
    <line x1="603.000" x2="603.000" y1="0.000" y2="792.000" class="feint-line vertical"/>
    <line x1="612.000" x2="612.000" y1="0.000" y2="792.000" class="feint-line vertical"/>
  </g>
  <g id="lines">
    <line x1="0.000" x2="612.000" y1="18.000" y2="18.000" class="line"/>
    <line x1="0.000" x2="612.000" y1="45.000" y2="45.000" class="line"/>
    <line x1="0.000" x2="612.000" y1="72.000" y2="72.000" class="line"/>
    <line x1="0.000" x2="612.000" y1="99.000" y2="99.000" class="line"/>
    <line x1="0.000" x2="612.000" y1="126.000" y2="126.000" class="line"/>
    <line x1="0.000" x2="612.000" y1="153.000" y2="153.000" class="line"/>
    <line x1="0.000" x2="612.000" y1="180.000" y2="180.000" class="line"/>
    <line x1="0.000" x2="612.000" y1="207.000" y2="207.000" class="line"/>
    <line x1="0.000" x2="612.000" y1="234.000" y2="234.000" class="line"/>
    <line x1="0.000" x2="612.000" y1="261.000" y2="261.000" class="line"/>
    <line x1="0.000" x2="612.000" y1="288.000" y2="288.000" class="line"/>
    <line x1="0.000" x2="612.000" y1="315.000" y2="315.000" class="line"/>
    <line x1="0.000" x2="612.000" y1="342.000" y2="342.000" class="line"/>
    <line x1="0.000" x2="612.000" y1="369.000" y2="369.000" class="line"/>
    <line x1="0.000" x2="612.000" y1="396.000" y2="396.000" class="line"/>
    <line x1="0.000" x2="612.000" y1="423.000" y2="423.000" class="line"/>
    <line x1="0.000" x2="612.000" y1="450.000" y2="450.000" class="line"/>
    <line x1="0.000" x2="612.000" y1="477.000" y2="477.000" class="line"/>
    <line x1="0.000" x2="612.000" y1="504.000" y2="504.000" class="line"/>
    <line x1="0.000" x2="612.000" y1="531.000" y2="531.000" class="line"/>
    <line x1="0.000" x2="612.000" y1="558.000" y2="558.000" class="line"/>
    <line x1="0.000" x2="612.000" y1="585.000" y2="585.000" class="line"/>
    <line x1="0.000" x2="612.000" y1="612.000" y2="612.000" class="line"/>
    <line x1="0.000" x2="612.000" y1="639.000" y2="639.000" class="line"/>
    <line x1="0.000" x2="612.000" y1="666.000" y2="666.000" class="line"/>
    <line x1="0.000" x2="612.000" y1="693.000" y2="693.000" class="line"/>
    <line x1="0.000" x2="612.000" y1="720.000" y2="720.000" class="line"/>
    <line x1="0.000" x2="612.000" y1="747.000" y2="747.000" class="line"/>
    <line x1="0.000" x2="612.000" y1="774.000" y2="774.000" class="line"/>
  </g>
  <g id="margin-line">
    <line x1="63.000" x2="63.000" y1="0.000" y2="792.000" class="margin-line vertical"/>
  </g>
  <rect x="211.5" y="766" width="189" height="12" fill="#ffffff" stroke="none" stroke-width="0px"/>
  <text x="306" y="774" text-anchor="middle" fill="#b3b3ff" stroke="none" stroke-width="0" style="font-family: &quot;Courier&quot;, &quot;Courier New&quot;, monospace; font-size: 6pt;">https://github.com/dse/printable-paper</text>
</svg>
