<?xml version="1.0" encoding="UTF-8"?>
<svg xmlns="http://www.w3.org/2000/svg" width="595.276pt" height="841.89pt" viewBox="0 0 595.276 841.89">
  <defs/>
  <style>        .line, .dot { stroke-linecap: round; }
        .stroke-linecap-butt { stroke-linecap: butt; }

        .line            { stroke-width: 0.72pt; }
        .line.xx-thin    { stroke-width: 0.24pt; }
        .line.x-thin     { stroke-width: 0.36pt; }
        .line.thin       { stroke-width: 0.48pt; }
        .line.thick      { stroke-width: 1.08pt; }
        .line.semi-thin  { stroke-width: 0.588pt; }
        .line.semi-thick { stroke-width: 0.882pt; }

        .dot             { stroke-width: 1.44pt; }
        .dot.thin        { stroke-width: 0.96pt; }
        .dot.thick       { stroke-width: 2.16pt; }
        .dot.semi-thin   { stroke-width: 1.176pt; }
        .dot.semi-thick  { stroke-width: 1.764pt; }

        .stroke-1     { stroke-width: 0.12pt; stroke-linecap: round; } /* 1/600 in */
        .stroke-2     { stroke-width: 0.24pt; stroke-linecap: round; }
        .stroke-3     { stroke-width: 0.36pt; stroke-linecap: round; }
        .stroke-4     { stroke-width: 0.48pt; stroke-linecap: round; }
        .stroke-5     { stroke-width: 0.60pt; stroke-linecap: round; }
        .stroke-6     { stroke-width: 0.72pt; stroke-linecap: round; }
        .stroke-7     { stroke-width: 0.84pt; stroke-linecap: round; }
        .stroke-8     { stroke-width: 0.96pt; stroke-linecap: round; }
        .stroke-9     { stroke-width: 1.08pt; stroke-linecap: round; }
        .stroke-10    { stroke-width: 1.20pt; stroke-linecap: round; }

        .blue  { stroke: #b3b3ff; }
        .red   { stroke: #ff9999; }
        .green { stroke: #b3ffb3; }
        .gray  { stroke: #b3b3b3; }

        .light.blue  { stroke: #d9d9ff; }
        .light.red   { stroke: #ffcccc; }
        .light.green { stroke: #d9ffd9; }
        .light.gray  { stroke: #d9d9d9; }

        .dark.blue  { stroke: #6767ff; }
        .dark.red   { stroke: #ff3333; }
        .dark.green { stroke: #67ff67; }
        .dark.gray  { stroke: #676767; }

        .alternate-blue  { stroke: #6767ff; opacity: 0.5; }
        .alternate-red   { stroke: #ff3333; opacity: 0.5; }
        .alternate-green { stroke: #67ff67; opacity: 0.5; }
        .alternate-gray  { stroke: #676767; opacity: 0.5; }
</style>
  <defs>
    <pattern x="-18" y="90.7086614173229" width="631.276" height="5.66929133858267" id="grid-pattern-1-horizontal-lines" patternUnits="userSpaceOnUse" viewBox="0 0 631.276 5.669">
      <line x1="18" x2="613.276" y1="2.835" y2="2.835" class="x-thin blue line"/>
    </pattern>
    <pattern x="107.716535433071" y="-18" width="17.007874015748" height="877.89" id="grid-pattern-2-vertical-lines" patternUnits="userSpaceOnUse" viewBox="0 0 17.008 877.890">
      <line x1="8.504" x2="8.504" y1="18" y2="859.89" class="x-thin blue line"/>
    </pattern>
  </defs>
  <g id="grid">
    <rect x="-18" y="90.7086614173229" width="631.276" height="680.314960629918" fill="url(#grid-pattern-1-horizontal-lines)"/>
    <rect x="107.716535433071" y="-18" width="493.228346456693" height="877.89" fill="url(#grid-pattern-2-vertical-lines)"/>
  </g>
  <g id="lines">
    <line x1="0" x2="595.276" y1="104.882" y2="104.882" class="blue line"/>
    <line x1="0" x2="595.276" y1="121.89" y2="121.89" class="blue line"/>
    <line x1="0" x2="595.276" y1="138.898" y2="138.898" class="blue line"/>
    <line x1="0" x2="595.276" y1="155.906" y2="155.906" class="blue line"/>
    <line x1="0" x2="595.276" y1="172.913" y2="172.913" class="blue line"/>
    <line x1="0" x2="595.276" y1="189.921" y2="189.921" class="blue line"/>
    <line x1="0" x2="595.276" y1="206.929" y2="206.929" class="blue line"/>
    <line x1="0" x2="595.276" y1="223.937" y2="223.937" class="blue line"/>
    <line x1="0" x2="595.276" y1="240.945" y2="240.945" class="blue line"/>
    <line x1="0" x2="595.276" y1="257.953" y2="257.953" class="blue line"/>
    <line x1="0" x2="595.276" y1="274.961" y2="274.961" class="blue line"/>
    <line x1="0" x2="595.276" y1="291.969" y2="291.969" class="blue line"/>
    <line x1="0" x2="595.276" y1="308.976" y2="308.976" class="blue line"/>
    <line x1="0" x2="595.276" y1="325.984" y2="325.984" class="blue line"/>
    <line x1="0" x2="595.276" y1="342.992" y2="342.992" class="blue line"/>
    <line x1="0" x2="595.276" y1="360" y2="360" class="blue line"/>
    <line x1="0" x2="595.276" y1="377.008" y2="377.008" class="blue line"/>
    <line x1="0" x2="595.276" y1="394.016" y2="394.016" class="blue line"/>
    <line x1="0" x2="595.276" y1="411.024" y2="411.024" class="blue line"/>
    <line x1="0" x2="595.276" y1="428.031" y2="428.031" class="blue line"/>
    <line x1="0" x2="595.276" y1="445.039" y2="445.039" class="blue line"/>
    <line x1="0" x2="595.276" y1="462.047" y2="462.047" class="blue line"/>
    <line x1="0" x2="595.276" y1="479.055" y2="479.055" class="blue line"/>
    <line x1="0" x2="595.276" y1="496.063" y2="496.063" class="blue line"/>
    <line x1="0" x2="595.276" y1="513.071" y2="513.071" class="blue line"/>
    <line x1="0" x2="595.276" y1="530.079" y2="530.079" class="blue line"/>
    <line x1="0" x2="595.276" y1="547.087" y2="547.087" class="blue line"/>
    <line x1="0" x2="595.276" y1="564.094" y2="564.094" class="blue line"/>
    <line x1="0" x2="595.276" y1="581.102" y2="581.102" class="blue line"/>
    <line x1="0" x2="595.276" y1="598.11" y2="598.11" class="blue line"/>
    <line x1="0" x2="595.276" y1="615.118" y2="615.118" class="blue line"/>
    <line x1="0" x2="595.276" y1="632.126" y2="632.126" class="blue line"/>
    <line x1="0" x2="595.276" y1="649.134" y2="649.134" class="blue line"/>
    <line x1="0" x2="595.276" y1="666.142" y2="666.142" class="blue line"/>
    <line x1="0" x2="595.276" y1="683.15" y2="683.15" class="blue line"/>
    <line x1="0" x2="595.276" y1="700.157" y2="700.157" class="blue line"/>
    <line x1="0" x2="595.276" y1="717.165" y2="717.165" class="blue line"/>
    <line x1="0" x2="595.276" y1="734.173" y2="734.173" class="blue line"/>
    <line x1="0" x2="595.276" y1="751.181" y2="751.181" class="blue line"/>
  </g>
  <g id="margin-line">
    <line x1="116.22" x2="116.22" y1="0" y2="841.89" class="red margin line"/>
  </g>
  <g id="head-line">
    <line x1="0" x2="595.276" y1="34.016" y2="34.016" class="blue line"/>
  </g>
  <g id="page-number-line">
    <line x1="65.197" x2="116.22" y1="824.882" y2="824.882" class="blue line"/>
  </g>
</svg>
