<?xml version="1.0" encoding="UTF-8"?>
<svg xmlns="http://www.w3.org/2000/svg" width="396pt" height="612pt" viewBox="0.000000 0.000000 396.000000 612.000000">
  <style>            .line, .dot { stroke-linecap: round; }

            .line            { stroke-width: 0.72pt; }
            .line.xx-thin    { stroke-width: 0.24pt; }
            .line.x-thin     { stroke-width: 0.36pt; }
            .line.thin       { stroke-width: 0.48pt; }
            .line.thick      { stroke-width: 1.08pt; }
            .line.semi-thin  { stroke-width: 0.588pt; }
            .line.semi-thick { stroke-width: 0.882pt; }

            .dot             { stroke-width: 1.44pt; }
            .dot.thin        { stroke-width: 0.96pt; }
            .dot.thick       { stroke-width: 2.16pt; }
            .dot.semi-thin   { stroke-width: 1.176pt; }
            .dot.semi-thick  { stroke-width: 1.764pt; }

            .blue  { stroke: #b3b3ff; }
            .red   { stroke: #ff9999; }
            .green { stroke: #b3ffb3; }
            .gray  { stroke: #b3b3b3; }

            .light.blue  { stroke: #d9d9ff; }
            .light.red   { stroke: #ffcccc; }
            .light.green { stroke: #d9ffd9; }
            .light.gray  { stroke: #d9d9d9; }

            .dark.blue  { stroke: #6767ff; }
            .dark.red   { stroke: #ff3333; }
            .dark.green { stroke: #67ff67; }
            .dark.gray  { stroke: #676767; }

            .alternate-blue  { stroke: #6767ff; opacity: 0.5; }
            .alternate-red   { stroke: #ff3333; opacity: 0.5; }
            .alternate-green { stroke: #67ff67; opacity: 0.5; }
            .alternate-gray  { stroke: #676767; opacity: 0.5; }
</style>
  <g id="minor-horizontal-lines">
    <line x1="0" x2="396" y1="564.75" y2="564.75" class="x-thin blue line"/>
    <line x1="0" x2="396" y1="559.125" y2="559.125" class="x-thin blue line"/>
    <line x1="0" x2="396" y1="547.875" y2="547.875" class="x-thin blue line"/>
    <line x1="0" x2="396" y1="542.25" y2="542.25" class="x-thin blue line"/>
    <line x1="0" x2="396" y1="536.625" y2="536.625" class="x-thin blue line"/>
    <line x1="0" x2="396" y1="525.375" y2="525.375" class="x-thin blue line"/>
    <line x1="0" x2="396" y1="519.75" y2="519.75" class="x-thin blue line"/>
    <line x1="0" x2="396" y1="514.125" y2="514.125" class="x-thin blue line"/>
    <line x1="0" x2="396" y1="502.875" y2="502.875" class="x-thin blue line"/>
    <line x1="0" x2="396" y1="497.25" y2="497.25" class="x-thin blue line"/>
    <line x1="0" x2="396" y1="491.625" y2="491.625" class="x-thin blue line"/>
    <line x1="0" x2="396" y1="480.375" y2="480.375" class="x-thin blue line"/>
    <line x1="0" x2="396" y1="474.75" y2="474.75" class="x-thin blue line"/>
    <line x1="0" x2="396" y1="469.125" y2="469.125" class="x-thin blue line"/>
    <line x1="0" x2="396" y1="457.875" y2="457.875" class="x-thin blue line"/>
    <line x1="0" x2="396" y1="452.25" y2="452.25" class="x-thin blue line"/>
    <line x1="0" x2="396" y1="446.625" y2="446.625" class="x-thin blue line"/>
    <line x1="0" x2="396" y1="435.375" y2="435.375" class="x-thin blue line"/>
    <line x1="0" x2="396" y1="429.75" y2="429.75" class="x-thin blue line"/>
    <line x1="0" x2="396" y1="424.125" y2="424.125" class="x-thin blue line"/>
    <line x1="0" x2="396" y1="412.875" y2="412.875" class="x-thin blue line"/>
    <line x1="0" x2="396" y1="407.25" y2="407.25" class="x-thin blue line"/>
    <line x1="0" x2="396" y1="401.625" y2="401.625" class="x-thin blue line"/>
    <line x1="0" x2="396" y1="390.375" y2="390.375" class="x-thin blue line"/>
    <line x1="0" x2="396" y1="384.75" y2="384.75" class="x-thin blue line"/>
    <line x1="0" x2="396" y1="379.125" y2="379.125" class="x-thin blue line"/>
    <line x1="0" x2="396" y1="367.875" y2="367.875" class="x-thin blue line"/>
    <line x1="0" x2="396" y1="362.25" y2="362.25" class="x-thin blue line"/>
    <line x1="0" x2="396" y1="356.625" y2="356.625" class="x-thin blue line"/>
    <line x1="0" x2="396" y1="345.375" y2="345.375" class="x-thin blue line"/>
    <line x1="0" x2="396" y1="339.75" y2="339.75" class="x-thin blue line"/>
    <line x1="0" x2="396" y1="334.125" y2="334.125" class="x-thin blue line"/>
    <line x1="0" x2="396" y1="322.875" y2="322.875" class="x-thin blue line"/>
    <line x1="0" x2="396" y1="317.25" y2="317.25" class="x-thin blue line"/>
    <line x1="0" x2="396" y1="311.625" y2="311.625" class="x-thin blue line"/>
    <line x1="0" x2="396" y1="300.375" y2="300.375" class="x-thin blue line"/>
    <line x1="0" x2="396" y1="294.75" y2="294.75" class="x-thin blue line"/>
    <line x1="0" x2="396" y1="289.125" y2="289.125" class="x-thin blue line"/>
    <line x1="0" x2="396" y1="277.875" y2="277.875" class="x-thin blue line"/>
    <line x1="0" x2="396" y1="272.25" y2="272.25" class="x-thin blue line"/>
    <line x1="0" x2="396" y1="266.625" y2="266.625" class="x-thin blue line"/>
    <line x1="0" x2="396" y1="255.375" y2="255.375" class="x-thin blue line"/>
    <line x1="0" x2="396" y1="249.75" y2="249.75" class="x-thin blue line"/>
    <line x1="0" x2="396" y1="244.125" y2="244.125" class="x-thin blue line"/>
    <line x1="0" x2="396" y1="232.875" y2="232.875" class="x-thin blue line"/>
    <line x1="0" x2="396" y1="227.25" y2="227.25" class="x-thin blue line"/>
    <line x1="0" x2="396" y1="221.625" y2="221.625" class="x-thin blue line"/>
    <line x1="0" x2="396" y1="210.375" y2="210.375" class="x-thin blue line"/>
    <line x1="0" x2="396" y1="204.75" y2="204.75" class="x-thin blue line"/>
    <line x1="0" x2="396" y1="199.125" y2="199.125" class="x-thin blue line"/>
    <line x1="0" x2="396" y1="187.875" y2="187.875" class="x-thin blue line"/>
    <line x1="0" x2="396" y1="182.25" y2="182.25" class="x-thin blue line"/>
    <line x1="0" x2="396" y1="176.625" y2="176.625" class="x-thin blue line"/>
    <line x1="0" x2="396" y1="165.375" y2="165.375" class="x-thin blue line"/>
    <line x1="0" x2="396" y1="159.75" y2="159.75" class="x-thin blue line"/>
    <line x1="0" x2="396" y1="154.125" y2="154.125" class="x-thin blue line"/>
    <line x1="0" x2="396" y1="142.875" y2="142.875" class="x-thin blue line"/>
    <line x1="0" x2="396" y1="137.25" y2="137.25" class="x-thin blue line"/>
    <line x1="0" x2="396" y1="131.625" y2="131.625" class="x-thin blue line"/>
    <line x1="0" x2="396" y1="120.375" y2="120.375" class="x-thin blue line"/>
    <line x1="0" x2="396" y1="114.75" y2="114.75" class="x-thin blue line"/>
    <line x1="0" x2="396" y1="109.125" y2="109.125" class="x-thin blue line"/>
    <line x1="0" x2="396" y1="97.875" y2="97.875" class="x-thin blue line"/>
    <line x1="0" x2="396" y1="92.25" y2="92.25" class="x-thin blue line"/>
    <line x1="0" x2="396" y1="86.625" y2="86.625" class="x-thin blue line"/>
    <line x1="0" x2="396" y1="75.375" y2="75.375" class="x-thin blue line"/>
    <line x1="0" x2="396" y1="69.75" y2="69.75" class="x-thin blue line"/>
    <line x1="0" x2="396" y1="64.125" y2="64.125" class="x-thin blue line"/>
  </g>
  <g id="vertical-lines">
    <line x1="51.75" x2="51.75" y1="612" y2="0" class="x-thin blue line"/>
    <line x1="74.25" x2="74.25" y1="612" y2="0" class="x-thin blue line"/>
    <line x1="96.75" x2="96.75" y1="612" y2="0" class="x-thin blue line"/>
    <line x1="119.25" x2="119.25" y1="612" y2="0" class="x-thin blue line"/>
    <line x1="141.75" x2="141.75" y1="612" y2="0" class="x-thin blue line"/>
    <line x1="164.25" x2="164.25" y1="612" y2="0" class="x-thin blue line"/>
    <line x1="186.75" x2="186.75" y1="612" y2="0" class="x-thin blue line"/>
    <line x1="209.25" x2="209.25" y1="612" y2="0" class="x-thin blue line"/>
    <line x1="231.75" x2="231.75" y1="612" y2="0" class="x-thin blue line"/>
    <line x1="254.25" x2="254.25" y1="612" y2="0" class="x-thin blue line"/>
    <line x1="276.75" x2="276.75" y1="612" y2="0" class="x-thin blue line"/>
    <line x1="299.25" x2="299.25" y1="612" y2="0" class="x-thin blue line"/>
    <line x1="321.75" x2="321.75" y1="612" y2="0" class="x-thin blue line"/>
    <line x1="344.25" x2="344.25" y1="612" y2="0" class="x-thin blue line"/>
    <line x1="366.75" x2="366.75" y1="612" y2="0" class="x-thin blue line"/>
    <line x1="389.25" x2="389.25" y1="612" y2="0" class="x-thin blue line"/>
  </g>
  <g id="horizontal-lines">
    <line x1="0" x2="396" y1="553.5" y2="553.5" class="blue line"/>
    <line x1="0" x2="396" y1="531" y2="531" class="blue line"/>
    <line x1="0" x2="396" y1="508.5" y2="508.5" class="blue line"/>
    <line x1="0" x2="396" y1="486" y2="486" class="blue line"/>
    <line x1="0" x2="396" y1="463.5" y2="463.5" class="blue line"/>
    <line x1="0" x2="396" y1="441" y2="441" class="blue line"/>
    <line x1="0" x2="396" y1="418.5" y2="418.5" class="blue line"/>
    <line x1="0" x2="396" y1="396" y2="396" class="blue line"/>
    <line x1="0" x2="396" y1="373.5" y2="373.5" class="blue line"/>
    <line x1="0" x2="396" y1="351" y2="351" class="blue line"/>
    <line x1="0" x2="396" y1="328.5" y2="328.5" class="blue line"/>
    <line x1="0" x2="396" y1="306" y2="306" class="blue line"/>
    <line x1="0" x2="396" y1="283.5" y2="283.5" class="blue line"/>
    <line x1="0" x2="396" y1="261" y2="261" class="blue line"/>
    <line x1="0" x2="396" y1="238.5" y2="238.5" class="blue line"/>
    <line x1="0" x2="396" y1="216" y2="216" class="blue line"/>
    <line x1="0" x2="396" y1="193.5" y2="193.5" class="blue line"/>
    <line x1="0" x2="396" y1="171" y2="171" class="blue line"/>
    <line x1="0" x2="396" y1="148.5" y2="148.5" class="blue line"/>
    <line x1="0" x2="396" y1="126" y2="126" class="blue line"/>
    <line x1="0" x2="396" y1="103.5" y2="103.5" class="blue line"/>
    <line x1="0" x2="396" y1="81" y2="81" class="blue line"/>
  </g>
  <g id="additional-horizontal-lines">
    <line x1="0" x2="396" y1="36" y2="36" class="x-thin blue line"/>
    <line x1="51.75" x2="119.25" y1="589.5" y2="589.5" class="blue line"/>
  </g>
  <g id="margin-lines">
    <line x1="51.75" x2="51.75" y1="612" y2="0" class="red margin line"/>
  </g>
</svg>
