<?xml version="1.0" encoding="UTF-8"?>
<svg xmlns="http://www.w3.org/2000/svg" width="396pt" height="612pt" viewBox="0 0 396 612">
  <defs/>
  <style>        .line, .dot { stroke-linecap: round; }
        .stroke-linecap-butt { stroke-linecap: butt; }

        .line            { stroke-width: 0.72pt; }
        .line.xx-thin    { stroke-width: 0.24pt; }
        .line.x-thin     { stroke-width: 0.36pt; }
        .line.thin       { stroke-width: 0.48pt; }
        .line.thick      { stroke-width: 1.08pt; }
        .line.semi-thin  { stroke-width: 0.588pt; }
        .line.semi-thick { stroke-width: 0.882pt; }

        .dot             { stroke-width: 1.44pt; }
        .dot.thin        { stroke-width: 0.96pt; }
        .dot.thick       { stroke-width: 2.16pt; }
        .dot.semi-thin   { stroke-width: 1.176pt; }
        .dot.semi-thick  { stroke-width: 1.764pt; }

        .stroke-1     { stroke-width: 0.12pt; stroke-linecap: round; } /* 1/600 in */
        .stroke-2     { stroke-width: 0.24pt; stroke-linecap: round; }
        .stroke-3     { stroke-width: 0.36pt; stroke-linecap: round; }
        .stroke-4     { stroke-width: 0.48pt; stroke-linecap: round; }
        .stroke-5     { stroke-width: 0.60pt; stroke-linecap: round; }
        .stroke-6     { stroke-width: 0.72pt; stroke-linecap: round; }
        .stroke-7     { stroke-width: 0.84pt; stroke-linecap: round; }
        .stroke-8     { stroke-width: 0.96pt; stroke-linecap: round; }
        .stroke-9     { stroke-width: 1.08pt; stroke-linecap: round; }
        .stroke-10    { stroke-width: 1.20pt; stroke-linecap: round; }

        .blue  { stroke: #b3b3ff; }
        .red   { stroke: #ff9999; }
        .green { stroke: #b3ffb3; }
        .gray  { stroke: #b3b3b3; }
        .black         { stroke: #000000; }
        .half-black    { stroke: #808080; }
        .quarter-black { stroke: #c0c0c0; }
        .light.blue  { stroke: #d9d9ff; }
        .light.red   { stroke: #ffcccc; }
        .light.green { stroke: #d9ffd9; }
        .light.gray  { stroke: #d9d9d9; }

        .dark.blue  { stroke: #6767ff; }
        .dark.red   { stroke: #ff3333; }
        .dark.green { stroke: #67ff67; }
        .dark.gray  { stroke: #676767; }

        .alternate-blue  { stroke: #6767ff; opacity: 0.5; }
        .alternate-red   { stroke: #ff3333; opacity: 0.5; }
        .alternate-green { stroke: #67ff67; opacity: 0.5; }
        .alternate-gray  { stroke: #676767; opacity: 0.5; }
</style>
  <g id="grid">
    <line x1="0" x2="396" y1="60" y2="60" class="stroke-1 black line"/>
    <line x1="0" x2="396" y1="66" y2="66" class="stroke-1 black line"/>
    <line x1="0" x2="396" y1="72" y2="72" class="stroke-1 black line"/>
    <line x1="0" x2="396" y1="78" y2="78" class="stroke-1 black line"/>
    <line x1="0" x2="396" y1="84" y2="84" class="stroke-1 black line"/>
    <line x1="0" x2="396" y1="90" y2="90" class="stroke-1 black line"/>
    <line x1="0" x2="396" y1="96" y2="96" class="stroke-1 black line"/>
    <line x1="0" x2="396" y1="102" y2="102" class="stroke-1 black line"/>
    <line x1="0" x2="396" y1="108" y2="108" class="stroke-1 black line"/>
    <line x1="0" x2="396" y1="114" y2="114" class="stroke-1 black line"/>
    <line x1="0" x2="396" y1="120" y2="120" class="stroke-1 black line"/>
    <line x1="0" x2="396" y1="126" y2="126" class="stroke-1 black line"/>
    <line x1="0" x2="396" y1="132" y2="132" class="stroke-1 black line"/>
    <line x1="0" x2="396" y1="138" y2="138" class="stroke-1 black line"/>
    <line x1="0" x2="396" y1="144" y2="144" class="stroke-1 black line"/>
    <line x1="0" x2="396" y1="150" y2="150" class="stroke-1 black line"/>
    <line x1="0" x2="396" y1="156" y2="156" class="stroke-1 black line"/>
    <line x1="0" x2="396" y1="162" y2="162" class="stroke-1 black line"/>
    <line x1="0" x2="396" y1="168" y2="168" class="stroke-1 black line"/>
    <line x1="0" x2="396" y1="174" y2="174" class="stroke-1 black line"/>
    <line x1="0" x2="396" y1="180" y2="180" class="stroke-1 black line"/>
    <line x1="0" x2="396" y1="186" y2="186" class="stroke-1 black line"/>
    <line x1="0" x2="396" y1="192" y2="192" class="stroke-1 black line"/>
    <line x1="0" x2="396" y1="198" y2="198" class="stroke-1 black line"/>
    <line x1="0" x2="396" y1="204" y2="204" class="stroke-1 black line"/>
    <line x1="0" x2="396" y1="210" y2="210" class="stroke-1 black line"/>
    <line x1="0" x2="396" y1="216" y2="216" class="stroke-1 black line"/>
    <line x1="0" x2="396" y1="222" y2="222" class="stroke-1 black line"/>
    <line x1="0" x2="396" y1="228" y2="228" class="stroke-1 black line"/>
    <line x1="0" x2="396" y1="234" y2="234" class="stroke-1 black line"/>
    <line x1="0" x2="396" y1="240" y2="240" class="stroke-1 black line"/>
    <line x1="0" x2="396" y1="246" y2="246" class="stroke-1 black line"/>
    <line x1="0" x2="396" y1="252" y2="252" class="stroke-1 black line"/>
    <line x1="0" x2="396" y1="258" y2="258" class="stroke-1 black line"/>
    <line x1="0" x2="396" y1="264" y2="264" class="stroke-1 black line"/>
    <line x1="0" x2="396" y1="270" y2="270" class="stroke-1 black line"/>
    <line x1="0" x2="396" y1="276" y2="276" class="stroke-1 black line"/>
    <line x1="0" x2="396" y1="282" y2="282" class="stroke-1 black line"/>
    <line x1="0" x2="396" y1="288" y2="288" class="stroke-1 black line"/>
    <line x1="0" x2="396" y1="294" y2="294" class="stroke-1 black line"/>
    <line x1="0" x2="396" y1="300" y2="300" class="stroke-1 black line"/>
    <line x1="0" x2="396" y1="306" y2="306" class="stroke-1 black line"/>
    <line x1="0" x2="396" y1="312" y2="312" class="stroke-1 black line"/>
    <line x1="0" x2="396" y1="318" y2="318" class="stroke-1 black line"/>
    <line x1="0" x2="396" y1="324" y2="324" class="stroke-1 black line"/>
    <line x1="0" x2="396" y1="330" y2="330" class="stroke-1 black line"/>
    <line x1="0" x2="396" y1="336" y2="336" class="stroke-1 black line"/>
    <line x1="0" x2="396" y1="342" y2="342" class="stroke-1 black line"/>
    <line x1="0" x2="396" y1="348" y2="348" class="stroke-1 black line"/>
    <line x1="0" x2="396" y1="354" y2="354" class="stroke-1 black line"/>
    <line x1="0" x2="396" y1="360" y2="360" class="stroke-1 black line"/>
    <line x1="0" x2="396" y1="366" y2="366" class="stroke-1 black line"/>
    <line x1="0" x2="396" y1="372" y2="372" class="stroke-1 black line"/>
    <line x1="0" x2="396" y1="378" y2="378" class="stroke-1 black line"/>
    <line x1="0" x2="396" y1="384" y2="384" class="stroke-1 black line"/>
    <line x1="0" x2="396" y1="390" y2="390" class="stroke-1 black line"/>
    <line x1="0" x2="396" y1="396" y2="396" class="stroke-1 black line"/>
    <line x1="0" x2="396" y1="402" y2="402" class="stroke-1 black line"/>
    <line x1="0" x2="396" y1="408" y2="408" class="stroke-1 black line"/>
    <line x1="0" x2="396" y1="414" y2="414" class="stroke-1 black line"/>
    <line x1="0" x2="396" y1="420" y2="420" class="stroke-1 black line"/>
    <line x1="0" x2="396" y1="426" y2="426" class="stroke-1 black line"/>
    <line x1="0" x2="396" y1="432" y2="432" class="stroke-1 black line"/>
    <line x1="0" x2="396" y1="438" y2="438" class="stroke-1 black line"/>
    <line x1="0" x2="396" y1="444" y2="444" class="stroke-1 black line"/>
    <line x1="0" x2="396" y1="450" y2="450" class="stroke-1 black line"/>
    <line x1="0" x2="396" y1="456" y2="456" class="stroke-1 black line"/>
    <line x1="0" x2="396" y1="462" y2="462" class="stroke-1 black line"/>
    <line x1="0" x2="396" y1="468" y2="468" class="stroke-1 black line"/>
    <line x1="0" x2="396" y1="474" y2="474" class="stroke-1 black line"/>
    <line x1="0" x2="396" y1="480" y2="480" class="stroke-1 black line"/>
    <line x1="0" x2="396" y1="486" y2="486" class="stroke-1 black line"/>
    <line x1="0" x2="396" y1="492" y2="492" class="stroke-1 black line"/>
    <line x1="0" x2="396" y1="498" y2="498" class="stroke-1 black line"/>
    <line x1="0" x2="396" y1="504" y2="504" class="stroke-1 black line"/>
    <line x1="0" x2="396" y1="510" y2="510" class="stroke-1 black line"/>
    <line x1="0" x2="396" y1="516" y2="516" class="stroke-1 black line"/>
    <line x1="0" x2="396" y1="522" y2="522" class="stroke-1 black line"/>
    <line x1="0" x2="396" y1="528" y2="528" class="stroke-1 black line"/>
    <line x1="0" x2="396" y1="534" y2="534" class="stroke-1 black line"/>
    <line x1="0" x2="396" y1="540" y2="540" class="stroke-1 black line"/>
    <line x1="0" x2="396" y1="546" y2="546" class="stroke-1 black line"/>
    <line x1="0" x2="396" y1="552" y2="552" class="stroke-1 black line"/>
    <line x1="0" x2="396" y1="558" y2="558" class="stroke-1 black line"/>
    <line x1="0" x2="396" y1="564" y2="564" class="stroke-1 black line"/>
    <line x1="54" x2="54" y1="0" y2="612" class="stroke-1 black line"/>
    <line x1="72" x2="72" y1="0" y2="612" class="stroke-1 black line"/>
    <line x1="90" x2="90" y1="0" y2="612" class="stroke-1 black line"/>
    <line x1="108" x2="108" y1="0" y2="612" class="stroke-1 black line"/>
    <line x1="126" x2="126" y1="0" y2="612" class="stroke-1 black line"/>
    <line x1="144" x2="144" y1="0" y2="612" class="stroke-1 black line"/>
    <line x1="162" x2="162" y1="0" y2="612" class="stroke-1 black line"/>
    <line x1="180" x2="180" y1="0" y2="612" class="stroke-1 black line"/>
    <line x1="198" x2="198" y1="0" y2="612" class="stroke-1 black line"/>
    <line x1="216" x2="216" y1="0" y2="612" class="stroke-1 black line"/>
    <line x1="234" x2="234" y1="0" y2="612" class="stroke-1 black line"/>
    <line x1="252" x2="252" y1="0" y2="612" class="stroke-1 black line"/>
    <line x1="270" x2="270" y1="0" y2="612" class="stroke-1 black line"/>
    <line x1="288" x2="288" y1="0" y2="612" class="stroke-1 black line"/>
    <line x1="306" x2="306" y1="0" y2="612" class="stroke-1 black line"/>
    <line x1="324" x2="324" y1="0" y2="612" class="stroke-1 black line"/>
    <line x1="342" x2="342" y1="0" y2="612" class="stroke-1 black line"/>
    <line x1="360" x2="360" y1="0" y2="612" class="stroke-1 black line"/>
    <line x1="378" x2="378" y1="0" y2="612" class="stroke-1 black line"/>
    <line x1="396" x2="396" y1="0" y2="612" class="stroke-1 black line"/>
  </g>
  <g id="lines">
    <line x1="0" x2="396" y1="72" y2="72" class="stroke-3 black line"/>
    <line x1="0" x2="396" y1="90" y2="90" class="stroke-3 black line"/>
    <line x1="0" x2="396" y1="108" y2="108" class="stroke-3 black line"/>
    <line x1="0" x2="396" y1="126" y2="126" class="stroke-3 black line"/>
    <line x1="0" x2="396" y1="144" y2="144" class="stroke-3 black line"/>
    <line x1="0" x2="396" y1="162" y2="162" class="stroke-3 black line"/>
    <line x1="0" x2="396" y1="180" y2="180" class="stroke-3 black line"/>
    <line x1="0" x2="396" y1="198" y2="198" class="stroke-3 black line"/>
    <line x1="0" x2="396" y1="216" y2="216" class="stroke-3 black line"/>
    <line x1="0" x2="396" y1="234" y2="234" class="stroke-3 black line"/>
    <line x1="0" x2="396" y1="252" y2="252" class="stroke-3 black line"/>
    <line x1="0" x2="396" y1="270" y2="270" class="stroke-3 black line"/>
    <line x1="0" x2="396" y1="288" y2="288" class="stroke-3 black line"/>
    <line x1="0" x2="396" y1="306" y2="306" class="stroke-3 black line"/>
    <line x1="0" x2="396" y1="324" y2="324" class="stroke-3 black line"/>
    <line x1="0" x2="396" y1="342" y2="342" class="stroke-3 black line"/>
    <line x1="0" x2="396" y1="360" y2="360" class="stroke-3 black line"/>
    <line x1="0" x2="396" y1="378" y2="378" class="stroke-3 black line"/>
    <line x1="0" x2="396" y1="396" y2="396" class="stroke-3 black line"/>
    <line x1="0" x2="396" y1="414" y2="414" class="stroke-3 black line"/>
    <line x1="0" x2="396" y1="432" y2="432" class="stroke-3 black line"/>
    <line x1="0" x2="396" y1="450" y2="450" class="stroke-3 black line"/>
    <line x1="0" x2="396" y1="468" y2="468" class="stroke-3 black line"/>
    <line x1="0" x2="396" y1="486" y2="486" class="stroke-3 black line"/>
    <line x1="0" x2="396" y1="504" y2="504" class="stroke-3 black line"/>
    <line x1="0" x2="396" y1="522" y2="522" class="stroke-3 black line"/>
    <line x1="0" x2="396" y1="540" y2="540" class="stroke-3 black line"/>
    <line x1="0" x2="396" y1="558" y2="558" class="stroke-3 black line"/>
  </g>
  <g id="margin-line">
    <line x1="54" x2="54" y1="0" y2="612" class="stroke-3 black line"/>
  </g>
  <g id="head-line">
    <line x1="0" x2="396" y1="36" y2="36" class="stroke-3 black line"/>
  </g>
  <g id="page-number-line">
    <line x1="324" x2="378" y1="594" y2="594" class="stroke-3 black line"/>
  </g>
</svg>
