<?xml version="1.0" encoding="UTF-8"?>
<svg xmlns="http://www.w3.org/2000/svg" width="612pt" height="792pt" viewBox="0 0 612 792">
  <defs/>
  <style>        .line, .dot { stroke-linecap: round; }
        .stroke-linecap-butt { stroke-linecap: butt; }

        .rectangle { fill: #ffffff; }

        .line.xx-thin    { stroke-width: 0.32004px; }
        .line.x-thin     { stroke-width: 0.48px; }
        .line.thin       { stroke-width: 0.63996px; }
        .line.semi-thin  { stroke-width: 0.78384px; }
        .line            { stroke-width: 0.96px; }
        .line.semi-thick { stroke-width: 1.17576px; }
        .line.thick      { stroke-width: 1.44px; }

        .dot.xx-thin     { stroke-width: 0.64008px; }
        .dot.x-thin      { stroke-width: 0.96px; }
        .dot.thin        { stroke-width: 1.27992px; }
        .dot.semi-thin   { stroke-width: 1.56768px; }
        .dot             { stroke-width: 1.92px; }
        .dot.semi-thick  { stroke-width: 2.35152px; }
        .dot.thick       { stroke-width: 2.88px; }

        .stroke-1     { stroke-width: 0.12px; stroke-linecap: round; }
        .stroke-2     { stroke-width: 0.24px; stroke-linecap: round; }
        .stroke-3     { stroke-width: 0.36px; stroke-linecap: round; }
        .stroke-4     { stroke-width: 0.48px; stroke-linecap: round; }
        .stroke-5     { stroke-width: 0.6px; stroke-linecap: round; }
        .stroke-6     { stroke-width: 0.72px; stroke-linecap: round; }
        .stroke-7     { stroke-width: 0.84px; stroke-linecap: round; }
        .stroke-8     { stroke-width: 0.96px; stroke-linecap: round; }
        .stroke-9     { stroke-width: 1.08px; stroke-linecap: round; }
        .stroke-10    { stroke-width: 1.2px; stroke-linecap: round; }

        .blue  { stroke: #b3b3ff; }
        .red   { stroke: #ff9999; }
        .green { stroke: #b3ffb3; }
        .gray  { stroke: #b3b3b3; }

        .black         { stroke: #000000; }
        .half-black    { stroke: #808080; }
        .quarter-black { stroke: #c0c0c0; }

        .light.blue  { stroke: #d9d9ff; }
        .light.red   { stroke: #ffcccc; }
        .light.green { stroke: #d9ffd9; }
        .light.gray  { stroke: #d9d9d9; }

        .dark.blue  { stroke: #6767ff; }
        .dark.red   { stroke: #ff3333; }
        .dark.green { stroke: #67ff67; }
        .dark.gray  { stroke: #676767; }

        .alternate-blue  { stroke: #6767ff; opacity: 0.5; }
        .alternate-red   { stroke: #ff3333; opacity: 0.5; }
        .alternate-green { stroke: #67ff67; opacity: 0.5; }
        .alternate-gray  { stroke: #676767; opacity: 0.5; }
</style>
  <g id="grid">
    <line x1="0" x2="612" y1="96" y2="96" class="stroke-1 half-black line"/>
    <line x1="0" x2="612" y1="102" y2="102" class="stroke-1 half-black line"/>
    <line x1="0" x2="612" y1="108" y2="108" class="stroke-1 half-black line"/>
    <line x1="0" x2="612" y1="114" y2="114" class="stroke-1 half-black line"/>
    <line x1="0" x2="612" y1="120" y2="120" class="stroke-1 half-black line"/>
    <line x1="0" x2="612" y1="126" y2="126" class="stroke-1 half-black line"/>
    <line x1="0" x2="612" y1="132" y2="132" class="stroke-1 half-black line"/>
    <line x1="0" x2="612" y1="138" y2="138" class="stroke-1 half-black line"/>
    <line x1="0" x2="612" y1="144" y2="144" class="stroke-1 half-black line"/>
    <line x1="0" x2="612" y1="150" y2="150" class="stroke-1 half-black line"/>
    <line x1="0" x2="612" y1="156" y2="156" class="stroke-1 half-black line"/>
    <line x1="0" x2="612" y1="162" y2="162" class="stroke-1 half-black line"/>
    <line x1="0" x2="612" y1="168" y2="168" class="stroke-1 half-black line"/>
    <line x1="0" x2="612" y1="174" y2="174" class="stroke-1 half-black line"/>
    <line x1="0" x2="612" y1="180" y2="180" class="stroke-1 half-black line"/>
    <line x1="0" x2="612" y1="186" y2="186" class="stroke-1 half-black line"/>
    <line x1="0" x2="612" y1="192" y2="192" class="stroke-1 half-black line"/>
    <line x1="0" x2="612" y1="198" y2="198" class="stroke-1 half-black line"/>
    <line x1="0" x2="612" y1="204" y2="204" class="stroke-1 half-black line"/>
    <line x1="0" x2="612" y1="210" y2="210" class="stroke-1 half-black line"/>
    <line x1="0" x2="612" y1="216" y2="216" class="stroke-1 half-black line"/>
    <line x1="0" x2="612" y1="222" y2="222" class="stroke-1 half-black line"/>
    <line x1="0" x2="612" y1="228" y2="228" class="stroke-1 half-black line"/>
    <line x1="0" x2="612" y1="234" y2="234" class="stroke-1 half-black line"/>
    <line x1="0" x2="612" y1="240" y2="240" class="stroke-1 half-black line"/>
    <line x1="0" x2="612" y1="246" y2="246" class="stroke-1 half-black line"/>
    <line x1="0" x2="612" y1="252" y2="252" class="stroke-1 half-black line"/>
    <line x1="0" x2="612" y1="258" y2="258" class="stroke-1 half-black line"/>
    <line x1="0" x2="612" y1="264" y2="264" class="stroke-1 half-black line"/>
    <line x1="0" x2="612" y1="270" y2="270" class="stroke-1 half-black line"/>
    <line x1="0" x2="612" y1="276" y2="276" class="stroke-1 half-black line"/>
    <line x1="0" x2="612" y1="282" y2="282" class="stroke-1 half-black line"/>
    <line x1="0" x2="612" y1="288" y2="288" class="stroke-1 half-black line"/>
    <line x1="0" x2="612" y1="294" y2="294" class="stroke-1 half-black line"/>
    <line x1="0" x2="612" y1="300" y2="300" class="stroke-1 half-black line"/>
    <line x1="0" x2="612" y1="306" y2="306" class="stroke-1 half-black line"/>
    <line x1="0" x2="612" y1="312" y2="312" class="stroke-1 half-black line"/>
    <line x1="0" x2="612" y1="318" y2="318" class="stroke-1 half-black line"/>
    <line x1="0" x2="612" y1="324" y2="324" class="stroke-1 half-black line"/>
    <line x1="0" x2="612" y1="330" y2="330" class="stroke-1 half-black line"/>
    <line x1="0" x2="612" y1="336" y2="336" class="stroke-1 half-black line"/>
    <line x1="0" x2="612" y1="342" y2="342" class="stroke-1 half-black line"/>
    <line x1="0" x2="612" y1="348" y2="348" class="stroke-1 half-black line"/>
    <line x1="0" x2="612" y1="354" y2="354" class="stroke-1 half-black line"/>
    <line x1="0" x2="612" y1="360" y2="360" class="stroke-1 half-black line"/>
    <line x1="0" x2="612" y1="366" y2="366" class="stroke-1 half-black line"/>
    <line x1="0" x2="612" y1="372" y2="372" class="stroke-1 half-black line"/>
    <line x1="0" x2="612" y1="378" y2="378" class="stroke-1 half-black line"/>
    <line x1="0" x2="612" y1="384" y2="384" class="stroke-1 half-black line"/>
    <line x1="0" x2="612" y1="390" y2="390" class="stroke-1 half-black line"/>
    <line x1="0" x2="612" y1="396" y2="396" class="stroke-1 half-black line"/>
    <line x1="0" x2="612" y1="402" y2="402" class="stroke-1 half-black line"/>
    <line x1="0" x2="612" y1="408" y2="408" class="stroke-1 half-black line"/>
    <line x1="0" x2="612" y1="414" y2="414" class="stroke-1 half-black line"/>
    <line x1="0" x2="612" y1="420" y2="420" class="stroke-1 half-black line"/>
    <line x1="0" x2="612" y1="426" y2="426" class="stroke-1 half-black line"/>
    <line x1="0" x2="612" y1="432" y2="432" class="stroke-1 half-black line"/>
    <line x1="0" x2="612" y1="438" y2="438" class="stroke-1 half-black line"/>
    <line x1="0" x2="612" y1="444" y2="444" class="stroke-1 half-black line"/>
    <line x1="0" x2="612" y1="450" y2="450" class="stroke-1 half-black line"/>
    <line x1="0" x2="612" y1="456" y2="456" class="stroke-1 half-black line"/>
    <line x1="0" x2="612" y1="462" y2="462" class="stroke-1 half-black line"/>
    <line x1="0" x2="612" y1="468" y2="468" class="stroke-1 half-black line"/>
    <line x1="0" x2="612" y1="474" y2="474" class="stroke-1 half-black line"/>
    <line x1="0" x2="612" y1="480" y2="480" class="stroke-1 half-black line"/>
    <line x1="0" x2="612" y1="486" y2="486" class="stroke-1 half-black line"/>
    <line x1="0" x2="612" y1="492" y2="492" class="stroke-1 half-black line"/>
    <line x1="0" x2="612" y1="498" y2="498" class="stroke-1 half-black line"/>
    <line x1="0" x2="612" y1="504" y2="504" class="stroke-1 half-black line"/>
    <line x1="0" x2="612" y1="510" y2="510" class="stroke-1 half-black line"/>
    <line x1="0" x2="612" y1="516" y2="516" class="stroke-1 half-black line"/>
    <line x1="0" x2="612" y1="522" y2="522" class="stroke-1 half-black line"/>
    <line x1="0" x2="612" y1="528" y2="528" class="stroke-1 half-black line"/>
    <line x1="0" x2="612" y1="534" y2="534" class="stroke-1 half-black line"/>
    <line x1="0" x2="612" y1="540" y2="540" class="stroke-1 half-black line"/>
    <line x1="0" x2="612" y1="546" y2="546" class="stroke-1 half-black line"/>
    <line x1="0" x2="612" y1="552" y2="552" class="stroke-1 half-black line"/>
    <line x1="0" x2="612" y1="558" y2="558" class="stroke-1 half-black line"/>
    <line x1="0" x2="612" y1="564" y2="564" class="stroke-1 half-black line"/>
    <line x1="0" x2="612" y1="570" y2="570" class="stroke-1 half-black line"/>
    <line x1="0" x2="612" y1="576" y2="576" class="stroke-1 half-black line"/>
    <line x1="0" x2="612" y1="582" y2="582" class="stroke-1 half-black line"/>
    <line x1="0" x2="612" y1="588" y2="588" class="stroke-1 half-black line"/>
    <line x1="0" x2="612" y1="594" y2="594" class="stroke-1 half-black line"/>
    <line x1="0" x2="612" y1="600" y2="600" class="stroke-1 half-black line"/>
    <line x1="0" x2="612" y1="606" y2="606" class="stroke-1 half-black line"/>
    <line x1="0" x2="612" y1="612" y2="612" class="stroke-1 half-black line"/>
    <line x1="0" x2="612" y1="618" y2="618" class="stroke-1 half-black line"/>
    <line x1="0" x2="612" y1="624" y2="624" class="stroke-1 half-black line"/>
    <line x1="0" x2="612" y1="630" y2="630" class="stroke-1 half-black line"/>
    <line x1="0" x2="612" y1="636" y2="636" class="stroke-1 half-black line"/>
    <line x1="0" x2="612" y1="642" y2="642" class="stroke-1 half-black line"/>
    <line x1="0" x2="612" y1="648" y2="648" class="stroke-1 half-black line"/>
    <line x1="0" x2="612" y1="654" y2="654" class="stroke-1 half-black line"/>
    <line x1="0" x2="612" y1="660" y2="660" class="stroke-1 half-black line"/>
    <line x1="0" x2="612" y1="666" y2="666" class="stroke-1 half-black line"/>
    <line x1="0" x2="612" y1="672" y2="672" class="stroke-1 half-black line"/>
    <line x1="0" x2="612" y1="678" y2="678" class="stroke-1 half-black line"/>
    <line x1="0" x2="612" y1="684" y2="684" class="stroke-1 half-black line"/>
    <line x1="0" x2="612" y1="690" y2="690" class="stroke-1 half-black line"/>
    <line x1="0" x2="612" y1="696" y2="696" class="stroke-1 half-black line"/>
    <line x1="0" x2="612" y1="702" y2="702" class="stroke-1 half-black line"/>
    <line x1="0" x2="612" y1="708" y2="708" class="stroke-1 half-black line"/>
    <line x1="0" x2="612" y1="714" y2="714" class="stroke-1 half-black line"/>
    <line x1="0" x2="612" y1="720" y2="720" class="stroke-1 half-black line"/>
    <line x1="0" x2="612" y1="726" y2="726" class="stroke-1 half-black line"/>
    <line x1="90" x2="90" y1="0" y2="792" class="stroke-1 half-black line"/>
    <line x1="108" x2="108" y1="0" y2="792" class="stroke-1 half-black line"/>
    <line x1="126" x2="126" y1="0" y2="792" class="stroke-1 half-black line"/>
    <line x1="144" x2="144" y1="0" y2="792" class="stroke-1 half-black line"/>
    <line x1="162" x2="162" y1="0" y2="792" class="stroke-1 half-black line"/>
    <line x1="180" x2="180" y1="0" y2="792" class="stroke-1 half-black line"/>
    <line x1="198" x2="198" y1="0" y2="792" class="stroke-1 half-black line"/>
    <line x1="216" x2="216" y1="0" y2="792" class="stroke-1 half-black line"/>
    <line x1="234" x2="234" y1="0" y2="792" class="stroke-1 half-black line"/>
    <line x1="252" x2="252" y1="0" y2="792" class="stroke-1 half-black line"/>
    <line x1="270" x2="270" y1="0" y2="792" class="stroke-1 half-black line"/>
    <line x1="288" x2="288" y1="0" y2="792" class="stroke-1 half-black line"/>
    <line x1="306" x2="306" y1="0" y2="792" class="stroke-1 half-black line"/>
    <line x1="324" x2="324" y1="0" y2="792" class="stroke-1 half-black line"/>
    <line x1="342" x2="342" y1="0" y2="792" class="stroke-1 half-black line"/>
    <line x1="360" x2="360" y1="0" y2="792" class="stroke-1 half-black line"/>
    <line x1="378" x2="378" y1="0" y2="792" class="stroke-1 half-black line"/>
    <line x1="396" x2="396" y1="0" y2="792" class="stroke-1 half-black line"/>
    <line x1="414" x2="414" y1="0" y2="792" class="stroke-1 half-black line"/>
    <line x1="432" x2="432" y1="0" y2="792" class="stroke-1 half-black line"/>
    <line x1="450" x2="450" y1="0" y2="792" class="stroke-1 half-black line"/>
    <line x1="468" x2="468" y1="0" y2="792" class="stroke-1 half-black line"/>
    <line x1="486" x2="486" y1="0" y2="792" class="stroke-1 half-black line"/>
    <line x1="504" x2="504" y1="0" y2="792" class="stroke-1 half-black line"/>
    <line x1="522" x2="522" y1="0" y2="792" class="stroke-1 half-black line"/>
    <line x1="540" x2="540" y1="0" y2="792" class="stroke-1 half-black line"/>
    <line x1="558" x2="558" y1="0" y2="792" class="stroke-1 half-black line"/>
    <line x1="576" x2="576" y1="0" y2="792" class="stroke-1 half-black line"/>
    <line x1="594" x2="594" y1="0" y2="792" class="stroke-1 half-black line"/>
    <line x1="612" x2="612" y1="0" y2="792" class="stroke-1 half-black line"/>
  </g>
  <g id="lines">
    <line x1="0" x2="612" y1="108" y2="108" class="stroke-3 black line"/>
    <line x1="0" x2="612" y1="126" y2="126" class="stroke-3 black line"/>
    <line x1="0" x2="612" y1="144" y2="144" class="stroke-3 black line"/>
    <line x1="0" x2="612" y1="162" y2="162" class="stroke-3 black line"/>
    <line x1="0" x2="612" y1="180" y2="180" class="stroke-3 black line"/>
    <line x1="0" x2="612" y1="198" y2="198" class="stroke-3 black line"/>
    <line x1="0" x2="612" y1="216" y2="216" class="stroke-3 black line"/>
    <line x1="0" x2="612" y1="234" y2="234" class="stroke-3 black line"/>
    <line x1="0" x2="612" y1="252" y2="252" class="stroke-3 black line"/>
    <line x1="0" x2="612" y1="270" y2="270" class="stroke-3 black line"/>
    <line x1="0" x2="612" y1="288" y2="288" class="stroke-3 black line"/>
    <line x1="0" x2="612" y1="306" y2="306" class="stroke-3 black line"/>
    <line x1="0" x2="612" y1="324" y2="324" class="stroke-3 black line"/>
    <line x1="0" x2="612" y1="342" y2="342" class="stroke-3 black line"/>
    <line x1="0" x2="612" y1="360" y2="360" class="stroke-3 black line"/>
    <line x1="0" x2="612" y1="378" y2="378" class="stroke-3 black line"/>
    <line x1="0" x2="612" y1="396" y2="396" class="stroke-3 black line"/>
    <line x1="0" x2="612" y1="414" y2="414" class="stroke-3 black line"/>
    <line x1="0" x2="612" y1="432" y2="432" class="stroke-3 black line"/>
    <line x1="0" x2="612" y1="450" y2="450" class="stroke-3 black line"/>
    <line x1="0" x2="612" y1="468" y2="468" class="stroke-3 black line"/>
    <line x1="0" x2="612" y1="486" y2="486" class="stroke-3 black line"/>
    <line x1="0" x2="612" y1="504" y2="504" class="stroke-3 black line"/>
    <line x1="0" x2="612" y1="522" y2="522" class="stroke-3 black line"/>
    <line x1="0" x2="612" y1="540" y2="540" class="stroke-3 black line"/>
    <line x1="0" x2="612" y1="558" y2="558" class="stroke-3 black line"/>
    <line x1="0" x2="612" y1="576" y2="576" class="stroke-3 black line"/>
    <line x1="0" x2="612" y1="594" y2="594" class="stroke-3 black line"/>
    <line x1="0" x2="612" y1="612" y2="612" class="stroke-3 black line"/>
    <line x1="0" x2="612" y1="630" y2="630" class="stroke-3 black line"/>
    <line x1="0" x2="612" y1="648" y2="648" class="stroke-3 black line"/>
    <line x1="0" x2="612" y1="666" y2="666" class="stroke-3 black line"/>
    <line x1="0" x2="612" y1="684" y2="684" class="stroke-3 black line"/>
    <line x1="0" x2="612" y1="702" y2="702" class="stroke-3 black line"/>
    <line x1="0" x2="612" y1="720" y2="720" class="stroke-3 black line"/>
  </g>
  <g id="margin-line">
    <line x1="90" x2="90" y1="0" y2="792" class="stroke-3 black line"/>
  </g>
  <rect x="211.5" y="766" width="189" height="12" stroke="#808080" stroke-width="0.24" fill="#ffffff" rx="2pt" ry="2pt"/>
  <text x="306" y="774" text-anchor="middle" fill="#808080" stroke="none" stroke-width="0" style="font-family: &quot;Courier&quot;, &quot;Courier New&quot;, monospace; font-size: 6pt;">https://github.com/dse/printable-paper</text>
</svg>
