<?xml version="1.0" encoding="UTF-8"?>
<svg xmlns="http://www.w3.org/2000/svg" width="612.000pt" height="792.000pt" viewBox="0.000 0.000 612.000 792.000">
  <style>
        .line, .dot, .major-line, .feint-line, .margin-line { stroke-linecap: round; stroke-linejoin: round; }
        .stroke-linecap-butt    { stroke-linecap:  butt;   }
        .stroke-linecap-round   { stroke-linecap:  round;  }
        .stroke-linecap-square  { stroke-linecap:  square; }
        .stroke-linejoin-butt   { stroke-linejoin: butt;   }
        .stroke-linejoin-round  { stroke-linejoin: round;  }
        .stroke-linejoin-square { stroke-linejoin: square; }
        .rectangle { fill: #ffffff; }


        .line        { stroke-width: 0.24px; opacity:  1; }
        .major-line  { stroke-width: 0.339411254969543px; opacity: 1; }
        .feint-line  { stroke-width: 0.12px; opacity:  1; }

        .dot         { stroke-width: 0.96px; opacity:  1; }

        .margin-line { stroke-width: 0.24px; opacity:  1; }
        .line        { stroke: #000000; }
        .major-line  { stroke: #000000; }
        .feint-line  { stroke: #000000; }
        .dot         { stroke: #000000; }
        .margin-line { stroke: #000000; }
  </style>
  <defs/>
  <g id="grid">
    <line x1="0.000" x2="612.000" y1="91.125" y2="91.125" class="feint-line horizontal"/>
    <line x1="0.000" x2="612.000" y1="96.750" y2="96.750" class="feint-line horizontal"/>
    <line x1="0.000" x2="612.000" y1="102.375" y2="102.375" class="feint-line horizontal"/>
    <line x1="0.000" x2="612.000" y1="108.000" y2="108.000" class="feint-line horizontal"/>
    <line x1="0.000" x2="612.000" y1="113.625" y2="113.625" class="feint-line horizontal"/>
    <line x1="0.000" x2="612.000" y1="119.250" y2="119.250" class="feint-line horizontal"/>
    <line x1="0.000" x2="612.000" y1="124.875" y2="124.875" class="feint-line horizontal"/>
    <line x1="0.000" x2="612.000" y1="130.500" y2="130.500" class="feint-line horizontal"/>
    <line x1="0.000" x2="612.000" y1="136.125" y2="136.125" class="feint-line horizontal"/>
    <line x1="0.000" x2="612.000" y1="141.750" y2="141.750" class="feint-line horizontal"/>
    <line x1="0.000" x2="612.000" y1="147.375" y2="147.375" class="feint-line horizontal"/>
    <line x1="0.000" x2="612.000" y1="153.000" y2="153.000" class="feint-line horizontal"/>
    <line x1="0.000" x2="612.000" y1="158.625" y2="158.625" class="feint-line horizontal"/>
    <line x1="0.000" x2="612.000" y1="164.250" y2="164.250" class="feint-line horizontal"/>
    <line x1="0.000" x2="612.000" y1="169.875" y2="169.875" class="feint-line horizontal"/>
    <line x1="0.000" x2="612.000" y1="175.500" y2="175.500" class="feint-line horizontal"/>
    <line x1="0.000" x2="612.000" y1="181.125" y2="181.125" class="feint-line horizontal"/>
    <line x1="0.000" x2="612.000" y1="186.750" y2="186.750" class="feint-line horizontal"/>
    <line x1="0.000" x2="612.000" y1="192.375" y2="192.375" class="feint-line horizontal"/>
    <line x1="0.000" x2="612.000" y1="198.000" y2="198.000" class="feint-line horizontal"/>
    <line x1="0.000" x2="612.000" y1="203.625" y2="203.625" class="feint-line horizontal"/>
    <line x1="0.000" x2="612.000" y1="209.250" y2="209.250" class="feint-line horizontal"/>
    <line x1="0.000" x2="612.000" y1="214.875" y2="214.875" class="feint-line horizontal"/>
    <line x1="0.000" x2="612.000" y1="220.500" y2="220.500" class="feint-line horizontal"/>
    <line x1="0.000" x2="612.000" y1="226.125" y2="226.125" class="feint-line horizontal"/>
    <line x1="0.000" x2="612.000" y1="231.750" y2="231.750" class="feint-line horizontal"/>
    <line x1="0.000" x2="612.000" y1="237.375" y2="237.375" class="feint-line horizontal"/>
    <line x1="0.000" x2="612.000" y1="243.000" y2="243.000" class="feint-line horizontal"/>
    <line x1="0.000" x2="612.000" y1="248.625" y2="248.625" class="feint-line horizontal"/>
    <line x1="0.000" x2="612.000" y1="254.250" y2="254.250" class="feint-line horizontal"/>
    <line x1="0.000" x2="612.000" y1="259.875" y2="259.875" class="feint-line horizontal"/>
    <line x1="0.000" x2="612.000" y1="265.500" y2="265.500" class="feint-line horizontal"/>
    <line x1="0.000" x2="612.000" y1="271.125" y2="271.125" class="feint-line horizontal"/>
    <line x1="0.000" x2="612.000" y1="276.750" y2="276.750" class="feint-line horizontal"/>
    <line x1="0.000" x2="612.000" y1="282.375" y2="282.375" class="feint-line horizontal"/>
    <line x1="0.000" x2="612.000" y1="288.000" y2="288.000" class="feint-line horizontal"/>
    <line x1="0.000" x2="612.000" y1="293.625" y2="293.625" class="feint-line horizontal"/>
    <line x1="0.000" x2="612.000" y1="299.250" y2="299.250" class="feint-line horizontal"/>
    <line x1="0.000" x2="612.000" y1="304.875" y2="304.875" class="feint-line horizontal"/>
    <line x1="0.000" x2="612.000" y1="310.500" y2="310.500" class="feint-line horizontal"/>
    <line x1="0.000" x2="612.000" y1="316.125" y2="316.125" class="feint-line horizontal"/>
    <line x1="0.000" x2="612.000" y1="321.750" y2="321.750" class="feint-line horizontal"/>
    <line x1="0.000" x2="612.000" y1="327.375" y2="327.375" class="feint-line horizontal"/>
    <line x1="0.000" x2="612.000" y1="333.000" y2="333.000" class="feint-line horizontal"/>
    <line x1="0.000" x2="612.000" y1="338.625" y2="338.625" class="feint-line horizontal"/>
    <line x1="0.000" x2="612.000" y1="344.250" y2="344.250" class="feint-line horizontal"/>
    <line x1="0.000" x2="612.000" y1="349.875" y2="349.875" class="feint-line horizontal"/>
    <line x1="0.000" x2="612.000" y1="355.500" y2="355.500" class="feint-line horizontal"/>
    <line x1="0.000" x2="612.000" y1="361.125" y2="361.125" class="feint-line horizontal"/>
    <line x1="0.000" x2="612.000" y1="366.750" y2="366.750" class="feint-line horizontal"/>
    <line x1="0.000" x2="612.000" y1="372.375" y2="372.375" class="feint-line horizontal"/>
    <line x1="0.000" x2="612.000" y1="378.000" y2="378.000" class="feint-line horizontal"/>
    <line x1="0.000" x2="612.000" y1="383.625" y2="383.625" class="feint-line horizontal"/>
    <line x1="0.000" x2="612.000" y1="389.250" y2="389.250" class="feint-line horizontal"/>
    <line x1="0.000" x2="612.000" y1="394.875" y2="394.875" class="feint-line horizontal"/>
    <line x1="0.000" x2="612.000" y1="400.500" y2="400.500" class="feint-line horizontal"/>
    <line x1="0.000" x2="612.000" y1="406.125" y2="406.125" class="feint-line horizontal"/>
    <line x1="0.000" x2="612.000" y1="411.750" y2="411.750" class="feint-line horizontal"/>
    <line x1="0.000" x2="612.000" y1="417.375" y2="417.375" class="feint-line horizontal"/>
    <line x1="0.000" x2="612.000" y1="423.000" y2="423.000" class="feint-line horizontal"/>
    <line x1="0.000" x2="612.000" y1="428.625" y2="428.625" class="feint-line horizontal"/>
    <line x1="0.000" x2="612.000" y1="434.250" y2="434.250" class="feint-line horizontal"/>
    <line x1="0.000" x2="612.000" y1="439.875" y2="439.875" class="feint-line horizontal"/>
    <line x1="0.000" x2="612.000" y1="445.500" y2="445.500" class="feint-line horizontal"/>
    <line x1="0.000" x2="612.000" y1="451.125" y2="451.125" class="feint-line horizontal"/>
    <line x1="0.000" x2="612.000" y1="456.750" y2="456.750" class="feint-line horizontal"/>
    <line x1="0.000" x2="612.000" y1="462.375" y2="462.375" class="feint-line horizontal"/>
    <line x1="0.000" x2="612.000" y1="468.000" y2="468.000" class="feint-line horizontal"/>
    <line x1="0.000" x2="612.000" y1="473.625" y2="473.625" class="feint-line horizontal"/>
    <line x1="0.000" x2="612.000" y1="479.250" y2="479.250" class="feint-line horizontal"/>
    <line x1="0.000" x2="612.000" y1="484.875" y2="484.875" class="feint-line horizontal"/>
    <line x1="0.000" x2="612.000" y1="490.500" y2="490.500" class="feint-line horizontal"/>
    <line x1="0.000" x2="612.000" y1="496.125" y2="496.125" class="feint-line horizontal"/>
    <line x1="0.000" x2="612.000" y1="501.750" y2="501.750" class="feint-line horizontal"/>
    <line x1="0.000" x2="612.000" y1="507.375" y2="507.375" class="feint-line horizontal"/>
    <line x1="0.000" x2="612.000" y1="513.000" y2="513.000" class="feint-line horizontal"/>
    <line x1="0.000" x2="612.000" y1="518.625" y2="518.625" class="feint-line horizontal"/>
    <line x1="0.000" x2="612.000" y1="524.250" y2="524.250" class="feint-line horizontal"/>
    <line x1="0.000" x2="612.000" y1="529.875" y2="529.875" class="feint-line horizontal"/>
    <line x1="0.000" x2="612.000" y1="535.500" y2="535.500" class="feint-line horizontal"/>
    <line x1="0.000" x2="612.000" y1="541.125" y2="541.125" class="feint-line horizontal"/>
    <line x1="0.000" x2="612.000" y1="546.750" y2="546.750" class="feint-line horizontal"/>
    <line x1="0.000" x2="612.000" y1="552.375" y2="552.375" class="feint-line horizontal"/>
    <line x1="0.000" x2="612.000" y1="558.000" y2="558.000" class="feint-line horizontal"/>
    <line x1="0.000" x2="612.000" y1="563.625" y2="563.625" class="feint-line horizontal"/>
    <line x1="0.000" x2="612.000" y1="569.250" y2="569.250" class="feint-line horizontal"/>
    <line x1="0.000" x2="612.000" y1="574.875" y2="574.875" class="feint-line horizontal"/>
    <line x1="0.000" x2="612.000" y1="580.500" y2="580.500" class="feint-line horizontal"/>
    <line x1="0.000" x2="612.000" y1="586.125" y2="586.125" class="feint-line horizontal"/>
    <line x1="0.000" x2="612.000" y1="591.750" y2="591.750" class="feint-line horizontal"/>
    <line x1="0.000" x2="612.000" y1="597.375" y2="597.375" class="feint-line horizontal"/>
    <line x1="0.000" x2="612.000" y1="603.000" y2="603.000" class="feint-line horizontal"/>
    <line x1="0.000" x2="612.000" y1="608.625" y2="608.625" class="feint-line horizontal"/>
    <line x1="0.000" x2="612.000" y1="614.250" y2="614.250" class="feint-line horizontal"/>
    <line x1="0.000" x2="612.000" y1="619.875" y2="619.875" class="feint-line horizontal"/>
    <line x1="0.000" x2="612.000" y1="625.500" y2="625.500" class="feint-line horizontal"/>
    <line x1="0.000" x2="612.000" y1="631.125" y2="631.125" class="feint-line horizontal"/>
    <line x1="0.000" x2="612.000" y1="636.750" y2="636.750" class="feint-line horizontal"/>
    <line x1="0.000" x2="612.000" y1="642.375" y2="642.375" class="feint-line horizontal"/>
    <line x1="0.000" x2="612.000" y1="648.000" y2="648.000" class="feint-line horizontal"/>
    <line x1="0.000" x2="612.000" y1="653.625" y2="653.625" class="feint-line horizontal"/>
    <line x1="0.000" x2="612.000" y1="659.250" y2="659.250" class="feint-line horizontal"/>
    <line x1="0.000" x2="612.000" y1="664.875" y2="664.875" class="feint-line horizontal"/>
    <line x1="0.000" x2="612.000" y1="670.500" y2="670.500" class="feint-line horizontal"/>
    <line x1="0.000" x2="612.000" y1="676.125" y2="676.125" class="feint-line horizontal"/>
    <line x1="0.000" x2="612.000" y1="681.750" y2="681.750" class="feint-line horizontal"/>
    <line x1="0.000" x2="612.000" y1="687.375" y2="687.375" class="feint-line horizontal"/>
    <line x1="0.000" x2="612.000" y1="693.000" y2="693.000" class="feint-line horizontal"/>
    <line x1="0.000" x2="612.000" y1="698.625" y2="698.625" class="feint-line horizontal"/>
    <line x1="0.000" x2="612.000" y1="704.250" y2="704.250" class="feint-line horizontal"/>
    <line x1="0.000" x2="612.000" y1="709.875" y2="709.875" class="feint-line horizontal"/>
    <line x1="0.000" x2="612.000" y1="715.500" y2="715.500" class="feint-line horizontal"/>
    <line x1="0.000" x2="612.000" y1="721.125" y2="721.125" class="feint-line horizontal"/>
    <line x1="0.000" x2="612.000" y1="726.750" y2="726.750" class="feint-line horizontal"/>
    <line x1="90.000" x2="90.000" y1="0.000" y2="792.000" class="feint-line vertical"/>
    <line x1="112.500" x2="112.500" y1="0.000" y2="792.000" class="feint-line vertical"/>
    <line x1="135.000" x2="135.000" y1="0.000" y2="792.000" class="feint-line vertical"/>
    <line x1="157.500" x2="157.500" y1="0.000" y2="792.000" class="feint-line vertical"/>
    <line x1="180.000" x2="180.000" y1="0.000" y2="792.000" class="feint-line vertical"/>
    <line x1="202.500" x2="202.500" y1="0.000" y2="792.000" class="feint-line vertical"/>
    <line x1="225.000" x2="225.000" y1="0.000" y2="792.000" class="feint-line vertical"/>
    <line x1="247.500" x2="247.500" y1="0.000" y2="792.000" class="feint-line vertical"/>
    <line x1="270.000" x2="270.000" y1="0.000" y2="792.000" class="feint-line vertical"/>
    <line x1="292.500" x2="292.500" y1="0.000" y2="792.000" class="feint-line vertical"/>
    <line x1="315.000" x2="315.000" y1="0.000" y2="792.000" class="feint-line vertical"/>
    <line x1="337.500" x2="337.500" y1="0.000" y2="792.000" class="feint-line vertical"/>
    <line x1="360.000" x2="360.000" y1="0.000" y2="792.000" class="feint-line vertical"/>
    <line x1="382.500" x2="382.500" y1="0.000" y2="792.000" class="feint-line vertical"/>
    <line x1="405.000" x2="405.000" y1="0.000" y2="792.000" class="feint-line vertical"/>
    <line x1="427.500" x2="427.500" y1="0.000" y2="792.000" class="feint-line vertical"/>
    <line x1="450.000" x2="450.000" y1="0.000" y2="792.000" class="feint-line vertical"/>
    <line x1="472.500" x2="472.500" y1="0.000" y2="792.000" class="feint-line vertical"/>
    <line x1="495.000" x2="495.000" y1="0.000" y2="792.000" class="feint-line vertical"/>
    <line x1="517.500" x2="517.500" y1="0.000" y2="792.000" class="feint-line vertical"/>
    <line x1="540.000" x2="540.000" y1="0.000" y2="792.000" class="feint-line vertical"/>
    <line x1="562.500" x2="562.500" y1="0.000" y2="792.000" class="feint-line vertical"/>
    <line x1="585.000" x2="585.000" y1="0.000" y2="792.000" class="feint-line vertical"/>
    <line x1="607.500" x2="607.500" y1="0.000" y2="792.000" class="feint-line vertical"/>
  </g>
  <g id="lines">
    <line x1="0.000" x2="612.000" y1="108.000" y2="108.000" class="line"/>
    <line x1="0.000" x2="612.000" y1="130.500" y2="130.500" class="line"/>
    <line x1="0.000" x2="612.000" y1="153.000" y2="153.000" class="line"/>
    <line x1="0.000" x2="612.000" y1="175.500" y2="175.500" class="line"/>
    <line x1="0.000" x2="612.000" y1="198.000" y2="198.000" class="line"/>
    <line x1="0.000" x2="612.000" y1="220.500" y2="220.500" class="line"/>
    <line x1="0.000" x2="612.000" y1="243.000" y2="243.000" class="line"/>
    <line x1="0.000" x2="612.000" y1="265.500" y2="265.500" class="line"/>
    <line x1="0.000" x2="612.000" y1="288.000" y2="288.000" class="line"/>
    <line x1="0.000" x2="612.000" y1="310.500" y2="310.500" class="line"/>
    <line x1="0.000" x2="612.000" y1="333.000" y2="333.000" class="line"/>
    <line x1="0.000" x2="612.000" y1="355.500" y2="355.500" class="line"/>
    <line x1="0.000" x2="612.000" y1="378.000" y2="378.000" class="line"/>
    <line x1="0.000" x2="612.000" y1="400.500" y2="400.500" class="line"/>
    <line x1="0.000" x2="612.000" y1="423.000" y2="423.000" class="line"/>
    <line x1="0.000" x2="612.000" y1="445.500" y2="445.500" class="line"/>
    <line x1="0.000" x2="612.000" y1="468.000" y2="468.000" class="line"/>
    <line x1="0.000" x2="612.000" y1="490.500" y2="490.500" class="line"/>
    <line x1="0.000" x2="612.000" y1="513.000" y2="513.000" class="line"/>
    <line x1="0.000" x2="612.000" y1="535.500" y2="535.500" class="line"/>
    <line x1="0.000" x2="612.000" y1="558.000" y2="558.000" class="line"/>
    <line x1="0.000" x2="612.000" y1="580.500" y2="580.500" class="line"/>
    <line x1="0.000" x2="612.000" y1="603.000" y2="603.000" class="line"/>
    <line x1="0.000" x2="612.000" y1="625.500" y2="625.500" class="line"/>
    <line x1="0.000" x2="612.000" y1="648.000" y2="648.000" class="line"/>
    <line x1="0.000" x2="612.000" y1="670.500" y2="670.500" class="line"/>
    <line x1="0.000" x2="612.000" y1="693.000" y2="693.000" class="line"/>
    <line x1="0.000" x2="612.000" y1="715.500" y2="715.500" class="line"/>
  </g>
  <g id="margin-line">
    <line x1="90.000" x2="90.000" y1="0.000" y2="792.000" class="margin-line vertical"/>
  </g>
  <rect x="211.5" y="766" width="189" height="12" fill="#ffffff" stroke="none" stroke-width="0px"/>
  <text x="306" y="774" text-anchor="middle" fill="#000000" stroke="none" stroke-width="0" style="font-family: &quot;Courier&quot;, &quot;Courier New&quot;, monospace; font-size: 6pt;">https://github.com/dse/printable-paper</text>
</svg>
