<?xml version="1.0" encoding="UTF-8"?>
<svg xmlns="http://www.w3.org/2000/svg" width="396.000pt" height="612.000pt" viewBox="0.000 0.000 396.000 612.000">
  <style>
        .regular-line, .dot, .major-line, .feint-line, .margin-line { stroke-linecap: round; stroke-linejoin: round; }
        .stroke-linecap-butt    { stroke-linecap:  butt;   }
        .stroke-linecap-round   { stroke-linecap:  round;  }
        .stroke-linecap-square  { stroke-linecap:  square; }
        .stroke-linejoin-butt   { stroke-linejoin: butt;   }
        .stroke-linejoin-round  { stroke-linejoin: round;  }
        .stroke-linejoin-square { stroke-linejoin: square; }
        .rectangle { fill: #ffffff; }


        .regular-line { stroke-width: 0.169705627484771px; opacity: 1; }
        .major-line   { stroke-width: 0.24px; opacity: 1;   }
        .feint-line   { stroke-width: 0.12px; opacity: 1;   }
        .regular-dot  { stroke-width: 0.96px; opacity: 1;  }
        .margin-line  { stroke-width: 0.24px; opacity: 1;  }
        .regular-line { stroke: #000000; }
        .major-line   { stroke: #000000; }
        .feint-line   { stroke: #000000; }
        .regular-dot  { stroke: #000000; }
        .margin-line  { stroke: #000000; }
  </style>
  <defs/>
  <g id="grid">
    <line x1="0.000" x2="396.000" y1="55.125" y2="55.125" class="feint-line horizontal"/>
    <line x1="0.000" x2="396.000" y1="60.750" y2="60.750" class="feint-line horizontal"/>
    <line x1="0.000" x2="396.000" y1="66.375" y2="66.375" class="feint-line horizontal"/>
    <line x1="0.000" x2="396.000" y1="72.000" y2="72.000" class="feint-line horizontal"/>
    <line x1="0.000" x2="396.000" y1="77.625" y2="77.625" class="feint-line horizontal"/>
    <line x1="0.000" x2="396.000" y1="83.250" y2="83.250" class="feint-line horizontal"/>
    <line x1="0.000" x2="396.000" y1="88.875" y2="88.875" class="feint-line horizontal"/>
    <line x1="0.000" x2="396.000" y1="94.500" y2="94.500" class="feint-line horizontal"/>
    <line x1="0.000" x2="396.000" y1="100.125" y2="100.125" class="feint-line horizontal"/>
    <line x1="0.000" x2="396.000" y1="105.750" y2="105.750" class="feint-line horizontal"/>
    <line x1="0.000" x2="396.000" y1="111.375" y2="111.375" class="feint-line horizontal"/>
    <line x1="0.000" x2="396.000" y1="117.000" y2="117.000" class="feint-line horizontal"/>
    <line x1="0.000" x2="396.000" y1="122.625" y2="122.625" class="feint-line horizontal"/>
    <line x1="0.000" x2="396.000" y1="128.250" y2="128.250" class="feint-line horizontal"/>
    <line x1="0.000" x2="396.000" y1="133.875" y2="133.875" class="feint-line horizontal"/>
    <line x1="0.000" x2="396.000" y1="139.500" y2="139.500" class="feint-line horizontal"/>
    <line x1="0.000" x2="396.000" y1="145.125" y2="145.125" class="feint-line horizontal"/>
    <line x1="0.000" x2="396.000" y1="150.750" y2="150.750" class="feint-line horizontal"/>
    <line x1="0.000" x2="396.000" y1="156.375" y2="156.375" class="feint-line horizontal"/>
    <line x1="0.000" x2="396.000" y1="162.000" y2="162.000" class="feint-line horizontal"/>
    <line x1="0.000" x2="396.000" y1="167.625" y2="167.625" class="feint-line horizontal"/>
    <line x1="0.000" x2="396.000" y1="173.250" y2="173.250" class="feint-line horizontal"/>
    <line x1="0.000" x2="396.000" y1="178.875" y2="178.875" class="feint-line horizontal"/>
    <line x1="0.000" x2="396.000" y1="184.500" y2="184.500" class="feint-line horizontal"/>
    <line x1="0.000" x2="396.000" y1="190.125" y2="190.125" class="feint-line horizontal"/>
    <line x1="0.000" x2="396.000" y1="195.750" y2="195.750" class="feint-line horizontal"/>
    <line x1="0.000" x2="396.000" y1="201.375" y2="201.375" class="feint-line horizontal"/>
    <line x1="0.000" x2="396.000" y1="207.000" y2="207.000" class="feint-line horizontal"/>
    <line x1="0.000" x2="396.000" y1="212.625" y2="212.625" class="feint-line horizontal"/>
    <line x1="0.000" x2="396.000" y1="218.250" y2="218.250" class="feint-line horizontal"/>
    <line x1="0.000" x2="396.000" y1="223.875" y2="223.875" class="feint-line horizontal"/>
    <line x1="0.000" x2="396.000" y1="229.500" y2="229.500" class="feint-line horizontal"/>
    <line x1="0.000" x2="396.000" y1="235.125" y2="235.125" class="feint-line horizontal"/>
    <line x1="0.000" x2="396.000" y1="240.750" y2="240.750" class="feint-line horizontal"/>
    <line x1="0.000" x2="396.000" y1="246.375" y2="246.375" class="feint-line horizontal"/>
    <line x1="0.000" x2="396.000" y1="252.000" y2="252.000" class="feint-line horizontal"/>
    <line x1="0.000" x2="396.000" y1="257.625" y2="257.625" class="feint-line horizontal"/>
    <line x1="0.000" x2="396.000" y1="263.250" y2="263.250" class="feint-line horizontal"/>
    <line x1="0.000" x2="396.000" y1="268.875" y2="268.875" class="feint-line horizontal"/>
    <line x1="0.000" x2="396.000" y1="274.500" y2="274.500" class="feint-line horizontal"/>
    <line x1="0.000" x2="396.000" y1="280.125" y2="280.125" class="feint-line horizontal"/>
    <line x1="0.000" x2="396.000" y1="285.750" y2="285.750" class="feint-line horizontal"/>
    <line x1="0.000" x2="396.000" y1="291.375" y2="291.375" class="feint-line horizontal"/>
    <line x1="0.000" x2="396.000" y1="297.000" y2="297.000" class="feint-line horizontal"/>
    <line x1="0.000" x2="396.000" y1="302.625" y2="302.625" class="feint-line horizontal"/>
    <line x1="0.000" x2="396.000" y1="308.250" y2="308.250" class="feint-line horizontal"/>
    <line x1="0.000" x2="396.000" y1="313.875" y2="313.875" class="feint-line horizontal"/>
    <line x1="0.000" x2="396.000" y1="319.500" y2="319.500" class="feint-line horizontal"/>
    <line x1="0.000" x2="396.000" y1="325.125" y2="325.125" class="feint-line horizontal"/>
    <line x1="0.000" x2="396.000" y1="330.750" y2="330.750" class="feint-line horizontal"/>
    <line x1="0.000" x2="396.000" y1="336.375" y2="336.375" class="feint-line horizontal"/>
    <line x1="0.000" x2="396.000" y1="342.000" y2="342.000" class="feint-line horizontal"/>
    <line x1="0.000" x2="396.000" y1="347.625" y2="347.625" class="feint-line horizontal"/>
    <line x1="0.000" x2="396.000" y1="353.250" y2="353.250" class="feint-line horizontal"/>
    <line x1="0.000" x2="396.000" y1="358.875" y2="358.875" class="feint-line horizontal"/>
    <line x1="0.000" x2="396.000" y1="364.500" y2="364.500" class="feint-line horizontal"/>
    <line x1="0.000" x2="396.000" y1="370.125" y2="370.125" class="feint-line horizontal"/>
    <line x1="0.000" x2="396.000" y1="375.750" y2="375.750" class="feint-line horizontal"/>
    <line x1="0.000" x2="396.000" y1="381.375" y2="381.375" class="feint-line horizontal"/>
    <line x1="0.000" x2="396.000" y1="387.000" y2="387.000" class="feint-line horizontal"/>
    <line x1="0.000" x2="396.000" y1="392.625" y2="392.625" class="feint-line horizontal"/>
    <line x1="0.000" x2="396.000" y1="398.250" y2="398.250" class="feint-line horizontal"/>
    <line x1="0.000" x2="396.000" y1="403.875" y2="403.875" class="feint-line horizontal"/>
    <line x1="0.000" x2="396.000" y1="409.500" y2="409.500" class="feint-line horizontal"/>
    <line x1="0.000" x2="396.000" y1="415.125" y2="415.125" class="feint-line horizontal"/>
    <line x1="0.000" x2="396.000" y1="420.750" y2="420.750" class="feint-line horizontal"/>
    <line x1="0.000" x2="396.000" y1="426.375" y2="426.375" class="feint-line horizontal"/>
    <line x1="0.000" x2="396.000" y1="432.000" y2="432.000" class="feint-line horizontal"/>
    <line x1="0.000" x2="396.000" y1="437.625" y2="437.625" class="feint-line horizontal"/>
    <line x1="0.000" x2="396.000" y1="443.250" y2="443.250" class="feint-line horizontal"/>
    <line x1="0.000" x2="396.000" y1="448.875" y2="448.875" class="feint-line horizontal"/>
    <line x1="0.000" x2="396.000" y1="454.500" y2="454.500" class="feint-line horizontal"/>
    <line x1="0.000" x2="396.000" y1="460.125" y2="460.125" class="feint-line horizontal"/>
    <line x1="0.000" x2="396.000" y1="465.750" y2="465.750" class="feint-line horizontal"/>
    <line x1="0.000" x2="396.000" y1="471.375" y2="471.375" class="feint-line horizontal"/>
    <line x1="0.000" x2="396.000" y1="477.000" y2="477.000" class="feint-line horizontal"/>
    <line x1="0.000" x2="396.000" y1="482.625" y2="482.625" class="feint-line horizontal"/>
    <line x1="0.000" x2="396.000" y1="488.250" y2="488.250" class="feint-line horizontal"/>
    <line x1="0.000" x2="396.000" y1="493.875" y2="493.875" class="feint-line horizontal"/>
    <line x1="0.000" x2="396.000" y1="499.500" y2="499.500" class="feint-line horizontal"/>
    <line x1="0.000" x2="396.000" y1="505.125" y2="505.125" class="feint-line horizontal"/>
    <line x1="0.000" x2="396.000" y1="510.750" y2="510.750" class="feint-line horizontal"/>
    <line x1="0.000" x2="396.000" y1="516.375" y2="516.375" class="feint-line horizontal"/>
    <line x1="0.000" x2="396.000" y1="522.000" y2="522.000" class="feint-line horizontal"/>
    <line x1="0.000" x2="396.000" y1="527.625" y2="527.625" class="feint-line horizontal"/>
    <line x1="0.000" x2="396.000" y1="533.250" y2="533.250" class="feint-line horizontal"/>
    <line x1="0.000" x2="396.000" y1="538.875" y2="538.875" class="feint-line horizontal"/>
    <line x1="0.000" x2="396.000" y1="544.500" y2="544.500" class="feint-line horizontal"/>
    <line x1="0.000" x2="396.000" y1="550.125" y2="550.125" class="feint-line horizontal"/>
    <line x1="0.000" x2="396.000" y1="555.750" y2="555.750" class="feint-line horizontal"/>
    <line x1="0.000" x2="396.000" y1="561.375" y2="561.375" class="feint-line horizontal"/>
    <line x1="0.000" x2="396.000" y1="567.000" y2="567.000" class="feint-line horizontal"/>
    <line x1="54.000" x2="54.000" y1="0.000" y2="612.000" class="feint-line vertical"/>
    <line x1="76.500" x2="76.500" y1="0.000" y2="612.000" class="feint-line vertical"/>
    <line x1="99.000" x2="99.000" y1="0.000" y2="612.000" class="feint-line vertical"/>
    <line x1="121.500" x2="121.500" y1="0.000" y2="612.000" class="feint-line vertical"/>
    <line x1="144.000" x2="144.000" y1="0.000" y2="612.000" class="feint-line vertical"/>
    <line x1="166.500" x2="166.500" y1="0.000" y2="612.000" class="feint-line vertical"/>
    <line x1="189.000" x2="189.000" y1="0.000" y2="612.000" class="feint-line vertical"/>
    <line x1="211.500" x2="211.500" y1="0.000" y2="612.000" class="feint-line vertical"/>
    <line x1="234.000" x2="234.000" y1="0.000" y2="612.000" class="feint-line vertical"/>
    <line x1="256.500" x2="256.500" y1="0.000" y2="612.000" class="feint-line vertical"/>
    <line x1="279.000" x2="279.000" y1="0.000" y2="612.000" class="feint-line vertical"/>
    <line x1="301.500" x2="301.500" y1="0.000" y2="612.000" class="feint-line vertical"/>
    <line x1="324.000" x2="324.000" y1="0.000" y2="612.000" class="feint-line vertical"/>
    <line x1="346.500" x2="346.500" y1="0.000" y2="612.000" class="feint-line vertical"/>
    <line x1="369.000" x2="369.000" y1="0.000" y2="612.000" class="feint-line vertical"/>
    <line x1="391.500" x2="391.500" y1="0.000" y2="612.000" class="feint-line vertical"/>
  </g>
  <g id="lines">
    <line x1="0.000" x2="396.000" y1="72.000" y2="72.000" class="regular-line"/>
    <line x1="0.000" x2="396.000" y1="94.500" y2="94.500" class="regular-line"/>
    <line x1="0.000" x2="396.000" y1="117.000" y2="117.000" class="regular-line"/>
    <line x1="0.000" x2="396.000" y1="139.500" y2="139.500" class="regular-line"/>
    <line x1="0.000" x2="396.000" y1="162.000" y2="162.000" class="regular-line"/>
    <line x1="0.000" x2="396.000" y1="184.500" y2="184.500" class="regular-line"/>
    <line x1="0.000" x2="396.000" y1="207.000" y2="207.000" class="regular-line"/>
    <line x1="0.000" x2="396.000" y1="229.500" y2="229.500" class="regular-line"/>
    <line x1="0.000" x2="396.000" y1="252.000" y2="252.000" class="regular-line"/>
    <line x1="0.000" x2="396.000" y1="274.500" y2="274.500" class="regular-line"/>
    <line x1="0.000" x2="396.000" y1="297.000" y2="297.000" class="regular-line"/>
    <line x1="0.000" x2="396.000" y1="319.500" y2="319.500" class="regular-line"/>
    <line x1="0.000" x2="396.000" y1="342.000" y2="342.000" class="regular-line"/>
    <line x1="0.000" x2="396.000" y1="364.500" y2="364.500" class="regular-line"/>
    <line x1="0.000" x2="396.000" y1="387.000" y2="387.000" class="regular-line"/>
    <line x1="0.000" x2="396.000" y1="409.500" y2="409.500" class="regular-line"/>
    <line x1="0.000" x2="396.000" y1="432.000" y2="432.000" class="regular-line"/>
    <line x1="0.000" x2="396.000" y1="454.500" y2="454.500" class="regular-line"/>
    <line x1="0.000" x2="396.000" y1="477.000" y2="477.000" class="regular-line"/>
    <line x1="0.000" x2="396.000" y1="499.500" y2="499.500" class="regular-line"/>
    <line x1="0.000" x2="396.000" y1="522.000" y2="522.000" class="regular-line"/>
    <line x1="0.000" x2="396.000" y1="544.500" y2="544.500" class="regular-line"/>
  </g>
  <g id="margin-line">
    <line x1="54.000" x2="54.000" y1="0.000" y2="612.000" class="margin-line vertical"/>
  </g>
  <rect x="103.5" y="586" width="189" height="12" fill="#ffffff" stroke="none" stroke-width="0px"/>
  <text x="198" y="594" text-anchor="middle" fill="#000000" stroke="none" stroke-width="0" style="font-family: &quot;Courier&quot;, &quot;Courier New&quot;, monospace; font-size: 6pt;">https://github.com/dse/printable-paper</text>
</svg>
