<?xml version="1.0" encoding="UTF-8"?>
<svg xmlns="http://www.w3.org/2000/svg" width="396.000pt" height="612.000pt" viewBox="0.000 0.000 396.000 612.000">
  <style>
        .regular-line, .dot, .major-line, .feint-line, .margin-line { stroke-linecap: round; stroke-linejoin: round; }
        .stroke-linecap-butt    { stroke-linecap:  butt;   }
        .stroke-linecap-round   { stroke-linecap:  round;  }
        .stroke-linecap-square  { stroke-linecap:  square; }
        .stroke-linejoin-butt   { stroke-linejoin: butt;   }
        .stroke-linejoin-round  { stroke-linejoin: round;  }
        .stroke-linejoin-square { stroke-linejoin: square; }
        .rectangle { fill: #ffffff; }


        .regular-line { stroke-width: 0.24px; opacity: 1; }
        .major-line   { stroke-width: 0.339411254969543px; opacity: 1;   }
        .feint-line   { stroke-width: 0.169705627484771px; opacity: 1;   }
        .regular-dot  { stroke-width: 0.96px; opacity: 1;  }
        .margin-line  { stroke-width: 0.24px; opacity: 1;  }
        .regular-line { stroke: #000000; }
        .major-line   { stroke: #000000; }
        .feint-line   { stroke: #000000; }
        .regular-dot  { stroke: #000000; }
        .margin-line  { stroke: #000000; }
  </style>
  <defs/>
  <g id="grid">
    <line x1="0.000" x2="396.000" y1="60.000" y2="60.000" class="feint-line horizontal"/>
    <line x1="0.000" x2="396.000" y1="66.000" y2="66.000" class="feint-line horizontal"/>
    <line x1="0.000" x2="396.000" y1="72.000" y2="72.000" class="feint-line horizontal"/>
    <line x1="0.000" x2="396.000" y1="78.000" y2="78.000" class="feint-line horizontal"/>
    <line x1="0.000" x2="396.000" y1="84.000" y2="84.000" class="feint-line horizontal"/>
    <line x1="0.000" x2="396.000" y1="90.000" y2="90.000" class="feint-line horizontal"/>
    <line x1="0.000" x2="396.000" y1="96.000" y2="96.000" class="feint-line horizontal"/>
    <line x1="0.000" x2="396.000" y1="102.000" y2="102.000" class="feint-line horizontal"/>
    <line x1="0.000" x2="396.000" y1="108.000" y2="108.000" class="feint-line horizontal"/>
    <line x1="0.000" x2="396.000" y1="114.000" y2="114.000" class="feint-line horizontal"/>
    <line x1="0.000" x2="396.000" y1="120.000" y2="120.000" class="feint-line horizontal"/>
    <line x1="0.000" x2="396.000" y1="126.000" y2="126.000" class="feint-line horizontal"/>
    <line x1="0.000" x2="396.000" y1="132.000" y2="132.000" class="feint-line horizontal"/>
    <line x1="0.000" x2="396.000" y1="138.000" y2="138.000" class="feint-line horizontal"/>
    <line x1="0.000" x2="396.000" y1="144.000" y2="144.000" class="feint-line horizontal"/>
    <line x1="0.000" x2="396.000" y1="150.000" y2="150.000" class="feint-line horizontal"/>
    <line x1="0.000" x2="396.000" y1="156.000" y2="156.000" class="feint-line horizontal"/>
    <line x1="0.000" x2="396.000" y1="162.000" y2="162.000" class="feint-line horizontal"/>
    <line x1="0.000" x2="396.000" y1="168.000" y2="168.000" class="feint-line horizontal"/>
    <line x1="0.000" x2="396.000" y1="174.000" y2="174.000" class="feint-line horizontal"/>
    <line x1="0.000" x2="396.000" y1="180.000" y2="180.000" class="feint-line horizontal"/>
    <line x1="0.000" x2="396.000" y1="186.000" y2="186.000" class="feint-line horizontal"/>
    <line x1="0.000" x2="396.000" y1="192.000" y2="192.000" class="feint-line horizontal"/>
    <line x1="0.000" x2="396.000" y1="198.000" y2="198.000" class="feint-line horizontal"/>
    <line x1="0.000" x2="396.000" y1="204.000" y2="204.000" class="feint-line horizontal"/>
    <line x1="0.000" x2="396.000" y1="210.000" y2="210.000" class="feint-line horizontal"/>
    <line x1="0.000" x2="396.000" y1="216.000" y2="216.000" class="feint-line horizontal"/>
    <line x1="0.000" x2="396.000" y1="222.000" y2="222.000" class="feint-line horizontal"/>
    <line x1="0.000" x2="396.000" y1="228.000" y2="228.000" class="feint-line horizontal"/>
    <line x1="0.000" x2="396.000" y1="234.000" y2="234.000" class="feint-line horizontal"/>
    <line x1="0.000" x2="396.000" y1="240.000" y2="240.000" class="feint-line horizontal"/>
    <line x1="0.000" x2="396.000" y1="246.000" y2="246.000" class="feint-line horizontal"/>
    <line x1="0.000" x2="396.000" y1="252.000" y2="252.000" class="feint-line horizontal"/>
    <line x1="0.000" x2="396.000" y1="258.000" y2="258.000" class="feint-line horizontal"/>
    <line x1="0.000" x2="396.000" y1="264.000" y2="264.000" class="feint-line horizontal"/>
    <line x1="0.000" x2="396.000" y1="270.000" y2="270.000" class="feint-line horizontal"/>
    <line x1="0.000" x2="396.000" y1="276.000" y2="276.000" class="feint-line horizontal"/>
    <line x1="0.000" x2="396.000" y1="282.000" y2="282.000" class="feint-line horizontal"/>
    <line x1="0.000" x2="396.000" y1="288.000" y2="288.000" class="feint-line horizontal"/>
    <line x1="0.000" x2="396.000" y1="294.000" y2="294.000" class="feint-line horizontal"/>
    <line x1="0.000" x2="396.000" y1="300.000" y2="300.000" class="feint-line horizontal"/>
    <line x1="0.000" x2="396.000" y1="306.000" y2="306.000" class="feint-line horizontal"/>
    <line x1="0.000" x2="396.000" y1="312.000" y2="312.000" class="feint-line horizontal"/>
    <line x1="0.000" x2="396.000" y1="318.000" y2="318.000" class="feint-line horizontal"/>
    <line x1="0.000" x2="396.000" y1="324.000" y2="324.000" class="feint-line horizontal"/>
    <line x1="0.000" x2="396.000" y1="330.000" y2="330.000" class="feint-line horizontal"/>
    <line x1="0.000" x2="396.000" y1="336.000" y2="336.000" class="feint-line horizontal"/>
    <line x1="0.000" x2="396.000" y1="342.000" y2="342.000" class="feint-line horizontal"/>
    <line x1="0.000" x2="396.000" y1="348.000" y2="348.000" class="feint-line horizontal"/>
    <line x1="0.000" x2="396.000" y1="354.000" y2="354.000" class="feint-line horizontal"/>
    <line x1="0.000" x2="396.000" y1="360.000" y2="360.000" class="feint-line horizontal"/>
    <line x1="0.000" x2="396.000" y1="366.000" y2="366.000" class="feint-line horizontal"/>
    <line x1="0.000" x2="396.000" y1="372.000" y2="372.000" class="feint-line horizontal"/>
    <line x1="0.000" x2="396.000" y1="378.000" y2="378.000" class="feint-line horizontal"/>
    <line x1="0.000" x2="396.000" y1="384.000" y2="384.000" class="feint-line horizontal"/>
    <line x1="0.000" x2="396.000" y1="390.000" y2="390.000" class="feint-line horizontal"/>
    <line x1="0.000" x2="396.000" y1="396.000" y2="396.000" class="feint-line horizontal"/>
    <line x1="0.000" x2="396.000" y1="402.000" y2="402.000" class="feint-line horizontal"/>
    <line x1="0.000" x2="396.000" y1="408.000" y2="408.000" class="feint-line horizontal"/>
    <line x1="0.000" x2="396.000" y1="414.000" y2="414.000" class="feint-line horizontal"/>
    <line x1="0.000" x2="396.000" y1="420.000" y2="420.000" class="feint-line horizontal"/>
    <line x1="0.000" x2="396.000" y1="426.000" y2="426.000" class="feint-line horizontal"/>
    <line x1="0.000" x2="396.000" y1="432.000" y2="432.000" class="feint-line horizontal"/>
    <line x1="0.000" x2="396.000" y1="438.000" y2="438.000" class="feint-line horizontal"/>
    <line x1="0.000" x2="396.000" y1="444.000" y2="444.000" class="feint-line horizontal"/>
    <line x1="0.000" x2="396.000" y1="450.000" y2="450.000" class="feint-line horizontal"/>
    <line x1="0.000" x2="396.000" y1="456.000" y2="456.000" class="feint-line horizontal"/>
    <line x1="0.000" x2="396.000" y1="462.000" y2="462.000" class="feint-line horizontal"/>
    <line x1="0.000" x2="396.000" y1="468.000" y2="468.000" class="feint-line horizontal"/>
    <line x1="0.000" x2="396.000" y1="474.000" y2="474.000" class="feint-line horizontal"/>
    <line x1="0.000" x2="396.000" y1="480.000" y2="480.000" class="feint-line horizontal"/>
    <line x1="0.000" x2="396.000" y1="486.000" y2="486.000" class="feint-line horizontal"/>
    <line x1="0.000" x2="396.000" y1="492.000" y2="492.000" class="feint-line horizontal"/>
    <line x1="0.000" x2="396.000" y1="498.000" y2="498.000" class="feint-line horizontal"/>
    <line x1="0.000" x2="396.000" y1="504.000" y2="504.000" class="feint-line horizontal"/>
    <line x1="0.000" x2="396.000" y1="510.000" y2="510.000" class="feint-line horizontal"/>
    <line x1="0.000" x2="396.000" y1="516.000" y2="516.000" class="feint-line horizontal"/>
    <line x1="0.000" x2="396.000" y1="522.000" y2="522.000" class="feint-line horizontal"/>
    <line x1="0.000" x2="396.000" y1="528.000" y2="528.000" class="feint-line horizontal"/>
    <line x1="0.000" x2="396.000" y1="534.000" y2="534.000" class="feint-line horizontal"/>
    <line x1="0.000" x2="396.000" y1="540.000" y2="540.000" class="feint-line horizontal"/>
    <line x1="0.000" x2="396.000" y1="546.000" y2="546.000" class="feint-line horizontal"/>
    <line x1="0.000" x2="396.000" y1="552.000" y2="552.000" class="feint-line horizontal"/>
    <line x1="0.000" x2="396.000" y1="558.000" y2="558.000" class="feint-line horizontal"/>
    <line x1="0.000" x2="396.000" y1="564.000" y2="564.000" class="feint-line horizontal"/>
    <line x1="54.000" x2="54.000" y1="0.000" y2="612.000" class="feint-line vertical"/>
    <line x1="72.000" x2="72.000" y1="0.000" y2="612.000" class="feint-line vertical"/>
    <line x1="90.000" x2="90.000" y1="0.000" y2="612.000" class="feint-line vertical"/>
    <line x1="108.000" x2="108.000" y1="0.000" y2="612.000" class="feint-line vertical"/>
    <line x1="126.000" x2="126.000" y1="0.000" y2="612.000" class="feint-line vertical"/>
    <line x1="144.000" x2="144.000" y1="0.000" y2="612.000" class="feint-line vertical"/>
    <line x1="162.000" x2="162.000" y1="0.000" y2="612.000" class="feint-line vertical"/>
    <line x1="180.000" x2="180.000" y1="0.000" y2="612.000" class="feint-line vertical"/>
    <line x1="198.000" x2="198.000" y1="0.000" y2="612.000" class="feint-line vertical"/>
    <line x1="216.000" x2="216.000" y1="0.000" y2="612.000" class="feint-line vertical"/>
    <line x1="234.000" x2="234.000" y1="0.000" y2="612.000" class="feint-line vertical"/>
    <line x1="252.000" x2="252.000" y1="0.000" y2="612.000" class="feint-line vertical"/>
    <line x1="270.000" x2="270.000" y1="0.000" y2="612.000" class="feint-line vertical"/>
    <line x1="288.000" x2="288.000" y1="0.000" y2="612.000" class="feint-line vertical"/>
    <line x1="306.000" x2="306.000" y1="0.000" y2="612.000" class="feint-line vertical"/>
    <line x1="324.000" x2="324.000" y1="0.000" y2="612.000" class="feint-line vertical"/>
    <line x1="342.000" x2="342.000" y1="0.000" y2="612.000" class="feint-line vertical"/>
    <line x1="360.000" x2="360.000" y1="0.000" y2="612.000" class="feint-line vertical"/>
    <line x1="378.000" x2="378.000" y1="0.000" y2="612.000" class="feint-line vertical"/>
    <line x1="396.000" x2="396.000" y1="0.000" y2="612.000" class="feint-line vertical"/>
  </g>
  <g id="lines">
    <line x1="0.000" x2="396.000" y1="72.000" y2="72.000" class="regular-line"/>
    <line x1="0.000" x2="396.000" y1="90.000" y2="90.000" class="regular-line"/>
    <line x1="0.000" x2="396.000" y1="108.000" y2="108.000" class="regular-line"/>
    <line x1="0.000" x2="396.000" y1="126.000" y2="126.000" class="regular-line"/>
    <line x1="0.000" x2="396.000" y1="144.000" y2="144.000" class="regular-line"/>
    <line x1="0.000" x2="396.000" y1="162.000" y2="162.000" class="regular-line"/>
    <line x1="0.000" x2="396.000" y1="180.000" y2="180.000" class="regular-line"/>
    <line x1="0.000" x2="396.000" y1="198.000" y2="198.000" class="regular-line"/>
    <line x1="0.000" x2="396.000" y1="216.000" y2="216.000" class="regular-line"/>
    <line x1="0.000" x2="396.000" y1="234.000" y2="234.000" class="regular-line"/>
    <line x1="0.000" x2="396.000" y1="252.000" y2="252.000" class="regular-line"/>
    <line x1="0.000" x2="396.000" y1="270.000" y2="270.000" class="regular-line"/>
    <line x1="0.000" x2="396.000" y1="288.000" y2="288.000" class="regular-line"/>
    <line x1="0.000" x2="396.000" y1="306.000" y2="306.000" class="regular-line"/>
    <line x1="0.000" x2="396.000" y1="324.000" y2="324.000" class="regular-line"/>
    <line x1="0.000" x2="396.000" y1="342.000" y2="342.000" class="regular-line"/>
    <line x1="0.000" x2="396.000" y1="360.000" y2="360.000" class="regular-line"/>
    <line x1="0.000" x2="396.000" y1="378.000" y2="378.000" class="regular-line"/>
    <line x1="0.000" x2="396.000" y1="396.000" y2="396.000" class="regular-line"/>
    <line x1="0.000" x2="396.000" y1="414.000" y2="414.000" class="regular-line"/>
    <line x1="0.000" x2="396.000" y1="432.000" y2="432.000" class="regular-line"/>
    <line x1="0.000" x2="396.000" y1="450.000" y2="450.000" class="regular-line"/>
    <line x1="0.000" x2="396.000" y1="468.000" y2="468.000" class="regular-line"/>
    <line x1="0.000" x2="396.000" y1="486.000" y2="486.000" class="regular-line"/>
    <line x1="0.000" x2="396.000" y1="504.000" y2="504.000" class="regular-line"/>
    <line x1="0.000" x2="396.000" y1="522.000" y2="522.000" class="regular-line"/>
    <line x1="0.000" x2="396.000" y1="540.000" y2="540.000" class="regular-line"/>
    <line x1="0.000" x2="396.000" y1="558.000" y2="558.000" class="regular-line"/>
  </g>
  <g id="margin-line">
    <line x1="54.000" x2="54.000" y1="0.000" y2="612.000" class="margin-line vertical"/>
  </g>
  <rect x="103.5" y="586" width="189" height="12" fill="#ffffff" stroke="none" stroke-width="0px"/>
  <text x="198" y="594" text-anchor="middle" fill="#000000" stroke="none" stroke-width="0" style="font-family: &quot;Courier&quot;, &quot;Courier New&quot;, monospace; font-size: 6pt;">https://github.com/dse/printable-paper</text>
</svg>
