<?xml version="1.0" encoding="UTF-8"?>
<svg xmlns="http://www.w3.org/2000/svg" width="396.000pt" height="612.000pt" viewBox="0.000 0.000 396.000 612.000">
  <style>        .line, .dot { stroke-linecap: round; }
        .stroke-linecap-butt { stroke-linecap: butt; }

        .rectangle { fill: #ffffff; }

        .line.xx-thin    { stroke-width: 0.32px; }
        .line.x-thin     { stroke-width: 0.48px; }
        .line.thin       { stroke-width: 0.64px; }
        .line.semi-thin  { stroke-width: 0.783837px; }
        .line            { stroke-width: 0.96px; }
        .line.semi-thick { stroke-width: 1.17576px; }
        .line.thick      { stroke-width: 1.44px; }

        .dot.xx-thin     { stroke-width: 0.64px; }
        .dot.x-thin      { stroke-width: 0.96px; }
        .dot.thin        { stroke-width: 1.28px; }
        .dot.semi-thin   { stroke-width: 1.56767px; }
        .dot             { stroke-width: 1.92px; }
        .dot.semi-thick  { stroke-width: 2.35151px; }
        .dot.thick       { stroke-width: 2.88px; }

        .stroke-1  { stroke-width: 0.12px; stroke-linecap: round; }
        .stroke-2  { stroke-width: 0.24px; stroke-linecap: round; }
        .stroke-3  { stroke-width: 0.36px; stroke-linecap: round; }
        .stroke-4  { stroke-width: 0.48px; stroke-linecap: round; }
        .stroke-5  { stroke-width: 0.6px; stroke-linecap: round; }
        .stroke-6  { stroke-width: 0.72px; stroke-linecap: round; }
        .stroke-7  { stroke-width: 0.84px; stroke-linecap: round; }
        .stroke-8  { stroke-width: 0.96px; stroke-linecap: round; }
        .stroke-9  { stroke-width: 1.08px; stroke-linecap: round; }
        .stroke-10 { stroke-width: 1.2px; stroke-linecap: round; }
        .stroke-11 { stroke-width: 1.32px; stroke-linecap: round; }
        .stroke-12 { stroke-width: 1.44px; stroke-linecap: round; }
        .stroke-13 { stroke-width: 1.56px; stroke-linecap: round; }
        .stroke-14 { stroke-width: 1.68px; stroke-linecap: round; }
        .stroke-15 { stroke-width: 1.8px; stroke-linecap: round; }
        .stroke-16 { stroke-width: 1.92px; stroke-linecap: round; }
        .stroke-17 { stroke-width: 2.04px; stroke-linecap: round; }
        .stroke-18 { stroke-width: 2.16px; stroke-linecap: round; }
        .stroke-19 { stroke-width: 2.28px; stroke-linecap: round; }
        .stroke-20 { stroke-width: 2.4px; stroke-linecap: round; }
        .stroke-21 { stroke-width: 2.52px; stroke-linecap: round; }
        .stroke-22 { stroke-width: 2.64px; stroke-linecap: round; }
        .stroke-23 { stroke-width: 2.76px; stroke-linecap: round; }
        .stroke-24 { stroke-width: 2.88px; stroke-linecap: round; }

        .blue  { stroke: #b3b3ff; }
        .red   { stroke: #ff9999; }
        .green { stroke: #b3ffb3; }
        .gray  { stroke: #b3b3b3; }

        .thin-black               { stroke-width: 0.12px; stroke: #000000; }
        .thin-black.stroke-6      { stroke-width: 0.72px; }
        .thin-black.stroke-4      { stroke-width: 0.48px; }
        .thin-black.stroke-2      { stroke-width: 0.24px; }
        .thin-black.stroke-half   { stroke-width: 0.12px; stroke: #808080; }
        .thin-black.stroke-quater { stroke-width: 0.12px; stroke: #c0c0c0; }

        .thin-blue                { stroke-width: 0.24px; stroke: #8080ff; }
        .thin-blue.stroke-6       { stroke-width: 1.44px; }
        .thin-blue.stroke-4       { stroke-width: 0.96px; }
        .thin-blue.stroke-2       { stroke-width: 0.48px; }
        .thin-blue.stroke-half    { stroke-width: 0.12px; stroke: #8080ff; }
        .thin-blue.stroke-quarter { stroke-width: 0.12px; stroke: #c0c0ff; }

        .thin-gray                { stroke-width: 0.24px; stroke: #808080; }
        .thin-gray.stroke-6       { stroke-width: 1.44px; }
        .thin-gray.stroke-4       { stroke-width: 0.96px; }
        .thin-gray.stroke-2       { stroke-width: 0.48px; }
        .thin-gray.stroke-half    { stroke-width: 0.12px; stroke: #808080; }
        .thin-gray.stroke-quarter { stroke-width: 0.12px; stroke: #c0c0c0; }

        .light.blue  { stroke: #d9d9ff; }
        .light.red   { stroke: #ffcccc; }
        .light.green { stroke: #d9ffd9; }
        .light.gray  { stroke: #d9d9d9; }

        .dark.blue  { stroke: #6767ff; }
        .dark.red   { stroke: #ff3333; }
        .dark.green { stroke: #67ff67; }
        .dark.gray  { stroke: #676767; }

        .alternate.blue  { stroke: #6767ff; opacity: 0.5; }
        .alternate.red   { stroke: #ff3333; opacity: 0.5; }
        .alternate.green { stroke: #67ff67; opacity: 0.5; }
        .alternate.gray  { stroke: #676767; opacity: 0.5; }

        .gray20 { stroke: #333333; }
        .gray40 { stroke: #666666; }
        .gray60 { stroke: #999999; }
        .gray80 { stroke: #cccccc; }
</style>
  <defs/>
  <g id="grid">
    <line x1="0.000" x2="396.000" y1="55.125" y2="55.125" class="stroke-half thin-black line"/>
    <line x1="0.000" x2="396.000" y1="60.750" y2="60.750" class="stroke-half thin-black line"/>
    <line x1="0.000" x2="396.000" y1="66.375" y2="66.375" class="stroke-half thin-black line"/>
    <line x1="0.000" x2="396.000" y1="72.000" y2="72.000" class="stroke-half thin-black line"/>
    <line x1="0.000" x2="396.000" y1="77.625" y2="77.625" class="stroke-half thin-black line"/>
    <line x1="0.000" x2="396.000" y1="83.250" y2="83.250" class="stroke-half thin-black line"/>
    <line x1="0.000" x2="396.000" y1="88.875" y2="88.875" class="stroke-half thin-black line"/>
    <line x1="0.000" x2="396.000" y1="94.500" y2="94.500" class="stroke-half thin-black line"/>
    <line x1="0.000" x2="396.000" y1="100.125" y2="100.125" class="stroke-half thin-black line"/>
    <line x1="0.000" x2="396.000" y1="105.750" y2="105.750" class="stroke-half thin-black line"/>
    <line x1="0.000" x2="396.000" y1="111.375" y2="111.375" class="stroke-half thin-black line"/>
    <line x1="0.000" x2="396.000" y1="117.000" y2="117.000" class="stroke-half thin-black line"/>
    <line x1="0.000" x2="396.000" y1="122.625" y2="122.625" class="stroke-half thin-black line"/>
    <line x1="0.000" x2="396.000" y1="128.250" y2="128.250" class="stroke-half thin-black line"/>
    <line x1="0.000" x2="396.000" y1="133.875" y2="133.875" class="stroke-half thin-black line"/>
    <line x1="0.000" x2="396.000" y1="139.500" y2="139.500" class="stroke-half thin-black line"/>
    <line x1="0.000" x2="396.000" y1="145.125" y2="145.125" class="stroke-half thin-black line"/>
    <line x1="0.000" x2="396.000" y1="150.750" y2="150.750" class="stroke-half thin-black line"/>
    <line x1="0.000" x2="396.000" y1="156.375" y2="156.375" class="stroke-half thin-black line"/>
    <line x1="0.000" x2="396.000" y1="162.000" y2="162.000" class="stroke-half thin-black line"/>
    <line x1="0.000" x2="396.000" y1="167.625" y2="167.625" class="stroke-half thin-black line"/>
    <line x1="0.000" x2="396.000" y1="173.250" y2="173.250" class="stroke-half thin-black line"/>
    <line x1="0.000" x2="396.000" y1="178.875" y2="178.875" class="stroke-half thin-black line"/>
    <line x1="0.000" x2="396.000" y1="184.500" y2="184.500" class="stroke-half thin-black line"/>
    <line x1="0.000" x2="396.000" y1="190.125" y2="190.125" class="stroke-half thin-black line"/>
    <line x1="0.000" x2="396.000" y1="195.750" y2="195.750" class="stroke-half thin-black line"/>
    <line x1="0.000" x2="396.000" y1="201.375" y2="201.375" class="stroke-half thin-black line"/>
    <line x1="0.000" x2="396.000" y1="207.000" y2="207.000" class="stroke-half thin-black line"/>
    <line x1="0.000" x2="396.000" y1="212.625" y2="212.625" class="stroke-half thin-black line"/>
    <line x1="0.000" x2="396.000" y1="218.250" y2="218.250" class="stroke-half thin-black line"/>
    <line x1="0.000" x2="396.000" y1="223.875" y2="223.875" class="stroke-half thin-black line"/>
    <line x1="0.000" x2="396.000" y1="229.500" y2="229.500" class="stroke-half thin-black line"/>
    <line x1="0.000" x2="396.000" y1="235.125" y2="235.125" class="stroke-half thin-black line"/>
    <line x1="0.000" x2="396.000" y1="240.750" y2="240.750" class="stroke-half thin-black line"/>
    <line x1="0.000" x2="396.000" y1="246.375" y2="246.375" class="stroke-half thin-black line"/>
    <line x1="0.000" x2="396.000" y1="252.000" y2="252.000" class="stroke-half thin-black line"/>
    <line x1="0.000" x2="396.000" y1="257.625" y2="257.625" class="stroke-half thin-black line"/>
    <line x1="0.000" x2="396.000" y1="263.250" y2="263.250" class="stroke-half thin-black line"/>
    <line x1="0.000" x2="396.000" y1="268.875" y2="268.875" class="stroke-half thin-black line"/>
    <line x1="0.000" x2="396.000" y1="274.500" y2="274.500" class="stroke-half thin-black line"/>
    <line x1="0.000" x2="396.000" y1="280.125" y2="280.125" class="stroke-half thin-black line"/>
    <line x1="0.000" x2="396.000" y1="285.750" y2="285.750" class="stroke-half thin-black line"/>
    <line x1="0.000" x2="396.000" y1="291.375" y2="291.375" class="stroke-half thin-black line"/>
    <line x1="0.000" x2="396.000" y1="297.000" y2="297.000" class="stroke-half thin-black line"/>
    <line x1="0.000" x2="396.000" y1="302.625" y2="302.625" class="stroke-half thin-black line"/>
    <line x1="0.000" x2="396.000" y1="308.250" y2="308.250" class="stroke-half thin-black line"/>
    <line x1="0.000" x2="396.000" y1="313.875" y2="313.875" class="stroke-half thin-black line"/>
    <line x1="0.000" x2="396.000" y1="319.500" y2="319.500" class="stroke-half thin-black line"/>
    <line x1="0.000" x2="396.000" y1="325.125" y2="325.125" class="stroke-half thin-black line"/>
    <line x1="0.000" x2="396.000" y1="330.750" y2="330.750" class="stroke-half thin-black line"/>
    <line x1="0.000" x2="396.000" y1="336.375" y2="336.375" class="stroke-half thin-black line"/>
    <line x1="0.000" x2="396.000" y1="342.000" y2="342.000" class="stroke-half thin-black line"/>
    <line x1="0.000" x2="396.000" y1="347.625" y2="347.625" class="stroke-half thin-black line"/>
    <line x1="0.000" x2="396.000" y1="353.250" y2="353.250" class="stroke-half thin-black line"/>
    <line x1="0.000" x2="396.000" y1="358.875" y2="358.875" class="stroke-half thin-black line"/>
    <line x1="0.000" x2="396.000" y1="364.500" y2="364.500" class="stroke-half thin-black line"/>
    <line x1="0.000" x2="396.000" y1="370.125" y2="370.125" class="stroke-half thin-black line"/>
    <line x1="0.000" x2="396.000" y1="375.750" y2="375.750" class="stroke-half thin-black line"/>
    <line x1="0.000" x2="396.000" y1="381.375" y2="381.375" class="stroke-half thin-black line"/>
    <line x1="0.000" x2="396.000" y1="387.000" y2="387.000" class="stroke-half thin-black line"/>
    <line x1="0.000" x2="396.000" y1="392.625" y2="392.625" class="stroke-half thin-black line"/>
    <line x1="0.000" x2="396.000" y1="398.250" y2="398.250" class="stroke-half thin-black line"/>
    <line x1="0.000" x2="396.000" y1="403.875" y2="403.875" class="stroke-half thin-black line"/>
    <line x1="0.000" x2="396.000" y1="409.500" y2="409.500" class="stroke-half thin-black line"/>
    <line x1="0.000" x2="396.000" y1="415.125" y2="415.125" class="stroke-half thin-black line"/>
    <line x1="0.000" x2="396.000" y1="420.750" y2="420.750" class="stroke-half thin-black line"/>
    <line x1="0.000" x2="396.000" y1="426.375" y2="426.375" class="stroke-half thin-black line"/>
    <line x1="0.000" x2="396.000" y1="432.000" y2="432.000" class="stroke-half thin-black line"/>
    <line x1="0.000" x2="396.000" y1="437.625" y2="437.625" class="stroke-half thin-black line"/>
    <line x1="0.000" x2="396.000" y1="443.250" y2="443.250" class="stroke-half thin-black line"/>
    <line x1="0.000" x2="396.000" y1="448.875" y2="448.875" class="stroke-half thin-black line"/>
    <line x1="0.000" x2="396.000" y1="454.500" y2="454.500" class="stroke-half thin-black line"/>
    <line x1="0.000" x2="396.000" y1="460.125" y2="460.125" class="stroke-half thin-black line"/>
    <line x1="0.000" x2="396.000" y1="465.750" y2="465.750" class="stroke-half thin-black line"/>
    <line x1="0.000" x2="396.000" y1="471.375" y2="471.375" class="stroke-half thin-black line"/>
    <line x1="0.000" x2="396.000" y1="477.000" y2="477.000" class="stroke-half thin-black line"/>
    <line x1="0.000" x2="396.000" y1="482.625" y2="482.625" class="stroke-half thin-black line"/>
    <line x1="0.000" x2="396.000" y1="488.250" y2="488.250" class="stroke-half thin-black line"/>
    <line x1="0.000" x2="396.000" y1="493.875" y2="493.875" class="stroke-half thin-black line"/>
    <line x1="0.000" x2="396.000" y1="499.500" y2="499.500" class="stroke-half thin-black line"/>
    <line x1="0.000" x2="396.000" y1="505.125" y2="505.125" class="stroke-half thin-black line"/>
    <line x1="0.000" x2="396.000" y1="510.750" y2="510.750" class="stroke-half thin-black line"/>
    <line x1="0.000" x2="396.000" y1="516.375" y2="516.375" class="stroke-half thin-black line"/>
    <line x1="0.000" x2="396.000" y1="522.000" y2="522.000" class="stroke-half thin-black line"/>
    <line x1="0.000" x2="396.000" y1="527.625" y2="527.625" class="stroke-half thin-black line"/>
    <line x1="0.000" x2="396.000" y1="533.250" y2="533.250" class="stroke-half thin-black line"/>
    <line x1="0.000" x2="396.000" y1="538.875" y2="538.875" class="stroke-half thin-black line"/>
    <line x1="0.000" x2="396.000" y1="544.500" y2="544.500" class="stroke-half thin-black line"/>
    <line x1="0.000" x2="396.000" y1="550.125" y2="550.125" class="stroke-half thin-black line"/>
    <line x1="0.000" x2="396.000" y1="555.750" y2="555.750" class="stroke-half thin-black line"/>
    <line x1="0.000" x2="396.000" y1="561.375" y2="561.375" class="stroke-half thin-black line"/>
    <line x1="0.000" x2="396.000" y1="567.000" y2="567.000" class="stroke-half thin-black line"/>
    <line x1="54.000" x2="54.000" y1="0.000" y2="612.000" class="stroke-half thin-black line"/>
    <line x1="76.500" x2="76.500" y1="0.000" y2="612.000" class="stroke-half thin-black line"/>
    <line x1="99.000" x2="99.000" y1="0.000" y2="612.000" class="stroke-half thin-black line"/>
    <line x1="121.500" x2="121.500" y1="0.000" y2="612.000" class="stroke-half thin-black line"/>
    <line x1="144.000" x2="144.000" y1="0.000" y2="612.000" class="stroke-half thin-black line"/>
    <line x1="166.500" x2="166.500" y1="0.000" y2="612.000" class="stroke-half thin-black line"/>
    <line x1="189.000" x2="189.000" y1="0.000" y2="612.000" class="stroke-half thin-black line"/>
    <line x1="211.500" x2="211.500" y1="0.000" y2="612.000" class="stroke-half thin-black line"/>
    <line x1="234.000" x2="234.000" y1="0.000" y2="612.000" class="stroke-half thin-black line"/>
    <line x1="256.500" x2="256.500" y1="0.000" y2="612.000" class="stroke-half thin-black line"/>
    <line x1="279.000" x2="279.000" y1="0.000" y2="612.000" class="stroke-half thin-black line"/>
    <line x1="301.500" x2="301.500" y1="0.000" y2="612.000" class="stroke-half thin-black line"/>
    <line x1="324.000" x2="324.000" y1="0.000" y2="612.000" class="stroke-half thin-black line"/>
    <line x1="346.500" x2="346.500" y1="0.000" y2="612.000" class="stroke-half thin-black line"/>
    <line x1="369.000" x2="369.000" y1="0.000" y2="612.000" class="stroke-half thin-black line"/>
    <line x1="391.500" x2="391.500" y1="0.000" y2="612.000" class="stroke-half thin-black line"/>
  </g>
  <g id="lines">
    <line x1="0.000" x2="396.000" y1="72.000" y2="72.000" class="stroke-3 thin-black line"/>
    <line x1="0.000" x2="396.000" y1="94.500" y2="94.500" class="stroke-3 thin-black line"/>
    <line x1="0.000" x2="396.000" y1="117.000" y2="117.000" class="stroke-3 thin-black line"/>
    <line x1="0.000" x2="396.000" y1="139.500" y2="139.500" class="stroke-3 thin-black line"/>
    <line x1="0.000" x2="396.000" y1="162.000" y2="162.000" class="stroke-3 thin-black line"/>
    <line x1="0.000" x2="396.000" y1="184.500" y2="184.500" class="stroke-3 thin-black line"/>
    <line x1="0.000" x2="396.000" y1="207.000" y2="207.000" class="stroke-3 thin-black line"/>
    <line x1="0.000" x2="396.000" y1="229.500" y2="229.500" class="stroke-3 thin-black line"/>
    <line x1="0.000" x2="396.000" y1="252.000" y2="252.000" class="stroke-3 thin-black line"/>
    <line x1="0.000" x2="396.000" y1="274.500" y2="274.500" class="stroke-3 thin-black line"/>
    <line x1="0.000" x2="396.000" y1="297.000" y2="297.000" class="stroke-3 thin-black line"/>
    <line x1="0.000" x2="396.000" y1="319.500" y2="319.500" class="stroke-3 thin-black line"/>
    <line x1="0.000" x2="396.000" y1="342.000" y2="342.000" class="stroke-3 thin-black line"/>
    <line x1="0.000" x2="396.000" y1="364.500" y2="364.500" class="stroke-3 thin-black line"/>
    <line x1="0.000" x2="396.000" y1="387.000" y2="387.000" class="stroke-3 thin-black line"/>
    <line x1="0.000" x2="396.000" y1="409.500" y2="409.500" class="stroke-3 thin-black line"/>
    <line x1="0.000" x2="396.000" y1="432.000" y2="432.000" class="stroke-3 thin-black line"/>
    <line x1="0.000" x2="396.000" y1="454.500" y2="454.500" class="stroke-3 thin-black line"/>
    <line x1="0.000" x2="396.000" y1="477.000" y2="477.000" class="stroke-3 thin-black line"/>
    <line x1="0.000" x2="396.000" y1="499.500" y2="499.500" class="stroke-3 thin-black line"/>
    <line x1="0.000" x2="396.000" y1="522.000" y2="522.000" class="stroke-3 thin-black line"/>
    <line x1="0.000" x2="396.000" y1="544.500" y2="544.500" class="stroke-3 thin-black line"/>
  </g>
  <g id="margin-line">
    <line x1="54.000" x2="54.000" y1="0.000" y2="612.000" class="stroke-3 thin-black line"/>
  </g>
  <rect x="103.5" y="586" width="189" height="12" fill="#ffffff" stroke="none" stroke-width="0px"/>
  <text x="198" y="594" text-anchor="middle" fill="#808080" stroke="none" stroke-width="0" style="font-family: &quot;Courier&quot;, &quot;Courier New&quot;, monospace; font-size: 6pt;">https://github.com/dse/printable-paper</text>
</svg>
