<?xml version="1.0" encoding="UTF-8"?>
<svg xmlns="http://www.w3.org/2000/svg" width="612pt" height="792pt" viewBox="0 0 612 792">
  <defs/>
  <style>        .line, .dot { stroke-linecap: round; }
        .stroke-linecap-butt { stroke-linecap: butt; }

        .line            { stroke-width: 0.72pt; }
        .line.xx-thin    { stroke-width: 0.24pt; }
        .line.x-thin     { stroke-width: 0.36pt; }
        .line.thin       { stroke-width: 0.48pt; }
        .line.thick      { stroke-width: 1.08pt; }
        .line.semi-thin  { stroke-width: 0.588pt; }
        .line.semi-thick { stroke-width: 0.882pt; }

        .dot             { stroke-width: 1.44pt; }
        .dot.thin        { stroke-width: 0.96pt; }
        .dot.thick       { stroke-width: 2.16pt; }
        .dot.semi-thin   { stroke-width: 1.176pt; }
        .dot.semi-thick  { stroke-width: 1.764pt; }

        .stroke-1     { stroke-width: 0.12pt; stroke-linecap: round; } /* 1/600 in */
        .stroke-2     { stroke-width: 0.24pt; stroke-linecap: round; }
        .stroke-3     { stroke-width: 0.36pt; stroke-linecap: round; }
        .stroke-4     { stroke-width: 0.48pt; stroke-linecap: round; }
        .stroke-5     { stroke-width: 0.60pt; stroke-linecap: round; }
        .stroke-6     { stroke-width: 0.72pt; stroke-linecap: round; }
        .stroke-7     { stroke-width: 0.84pt; stroke-linecap: round; }
        .stroke-8     { stroke-width: 0.96pt; stroke-linecap: round; }
        .stroke-9     { stroke-width: 1.08pt; stroke-linecap: round; }
        .stroke-10    { stroke-width: 1.20pt; stroke-linecap: round; }

        .blue  { stroke: #b3b3ff; }
        .red   { stroke: #ff9999; }
        .green { stroke: #b3ffb3; }
        .gray  { stroke: #b3b3b3; }
        .light.blue  { stroke: #d9d9ff; }
        .light.red   { stroke: #ffcccc; }
        .light.green { stroke: #d9ffd9; }
        .light.gray  { stroke: #d9d9d9; }

        .dark.blue  { stroke: #6767ff; }
        .dark.red   { stroke: #ff3333; }
        .dark.green { stroke: #67ff67; }
        .dark.gray  { stroke: #676767; }

        .alternate-blue  { stroke: #6767ff; opacity: 0.5; }
        .alternate-red   { stroke: #ff3333; opacity: 0.5; }
        .alternate-green { stroke: #67ff67; opacity: 0.5; }
        .alternate-gray  { stroke: #676767; opacity: 0.5; }
</style>
  <defs>
    <pattern x="-18" y="93" width="648" height="6" id="grid-pattern-1-horizontal-lines" patternUnits="userSpaceOnUse" viewBox="0 0 648.000 6.000">
      <line x1="18" x2="630" y1="3" y2="3" class="thin blue line"/>
    </pattern>
    <pattern x="81" y="-18" width="18" height="828" id="grid-pattern-2-vertical-lines" patternUnits="userSpaceOnUse" viewBox="0 0 18.000 828.000">
      <line x1="9" x2="9" y1="18" y2="810" class="thin blue line"/>
    </pattern>
  </defs>
  <g id="grid">
    <rect x="-18" y="93" width="648" height="636" fill="url(#grid-pattern-1-horizontal-lines)"/>
    <rect x="81" y="-18" width="540" height="828" fill="url(#grid-pattern-2-vertical-lines)"/>
  </g>
  <g id="lines">
    <line x1="0" x2="612" y1="108" y2="108" class=" blue line"/>
    <line x1="0" x2="612" y1="126" y2="126" class=" blue line"/>
    <line x1="0" x2="612" y1="144" y2="144" class=" blue line"/>
    <line x1="0" x2="612" y1="162" y2="162" class=" blue line"/>
    <line x1="0" x2="612" y1="180" y2="180" class=" blue line"/>
    <line x1="0" x2="612" y1="198" y2="198" class=" blue line"/>
    <line x1="0" x2="612" y1="216" y2="216" class=" blue line"/>
    <line x1="0" x2="612" y1="234" y2="234" class=" blue line"/>
    <line x1="0" x2="612" y1="252" y2="252" class=" blue line"/>
    <line x1="0" x2="612" y1="270" y2="270" class=" blue line"/>
    <line x1="0" x2="612" y1="288" y2="288" class=" blue line"/>
    <line x1="0" x2="612" y1="306" y2="306" class=" blue line"/>
    <line x1="0" x2="612" y1="324" y2="324" class=" blue line"/>
    <line x1="0" x2="612" y1="342" y2="342" class=" blue line"/>
    <line x1="0" x2="612" y1="360" y2="360" class=" blue line"/>
    <line x1="0" x2="612" y1="378" y2="378" class=" blue line"/>
    <line x1="0" x2="612" y1="396" y2="396" class=" blue line"/>
    <line x1="0" x2="612" y1="414" y2="414" class=" blue line"/>
    <line x1="0" x2="612" y1="432" y2="432" class=" blue line"/>
    <line x1="0" x2="612" y1="450" y2="450" class=" blue line"/>
    <line x1="0" x2="612" y1="468" y2="468" class=" blue line"/>
    <line x1="0" x2="612" y1="486" y2="486" class=" blue line"/>
    <line x1="0" x2="612" y1="504" y2="504" class=" blue line"/>
    <line x1="0" x2="612" y1="522" y2="522" class=" blue line"/>
    <line x1="0" x2="612" y1="540" y2="540" class=" blue line"/>
    <line x1="0" x2="612" y1="558" y2="558" class=" blue line"/>
    <line x1="0" x2="612" y1="576" y2="576" class=" blue line"/>
    <line x1="0" x2="612" y1="594" y2="594" class=" blue line"/>
    <line x1="0" x2="612" y1="612" y2="612" class=" blue line"/>
    <line x1="0" x2="612" y1="630" y2="630" class=" blue line"/>
    <line x1="0" x2="612" y1="648" y2="648" class=" blue line"/>
    <line x1="0" x2="612" y1="666" y2="666" class=" blue line"/>
    <line x1="0" x2="612" y1="684" y2="684" class=" blue line"/>
    <line x1="0" x2="612" y1="702" y2="702" class=" blue line"/>
    <line x1="0" x2="612" y1="720" y2="720" class=" blue line"/>
  </g>
  <g id="margin-line">
    <line x1="90" x2="90" y1="0" y2="792" class="red margin line"/>
  </g>
  <g id="head-line">
    <line x1="0" x2="612" y1="36" y2="36" class=" blue line"/>
  </g>
  <g id="page-number-line">
    <line x1="540" x2="594" y1="774" y2="774" class=" blue line"/>
  </g>
</svg>
