<?xml version="1.0" encoding="UTF-8"?>
<svg xmlns="http://www.w3.org/2000/svg" width="595.276pt" height="841.89pt" viewBox="0 0 595.276 841.89">
  <defs/>
  <style>        .line, .dot { stroke-linecap: round; }
        .stroke-linecap-butt { stroke-linecap: butt; }

        .rectangle { fill: #ffffff; }

        .line.xx-thin    { stroke-width: 0.24pt; }
        .line.x-thin     { stroke-width: 0.36pt; }
        .line.thin       { stroke-width: 0.48pt; }
        .line.semi-thin  { stroke-width: 0.588pt; }
        .line            { stroke-width: 0.72pt; }
        .line.semi-thick { stroke-width: 0.882pt; }
        .line.thick      { stroke-width: 1.08pt; }

        .dot.xx-thin     { stroke-width: 0.48pt; }
        .dot.x-thin      { stroke-width: 0.72pt; }
        .dot.thin        { stroke-width: 0.96pt; }
        .dot.semi-thin   { stroke-width: 1.176pt; }
        .dot             { stroke-width: 1.44pt; }
        .dot.semi-thick  { stroke-width: 1.764pt; }
        .dot.thick       { stroke-width: 2.16pt; }

        .stroke-1     { stroke-width: 0.12pt; stroke-linecap: round; }
        .stroke-2     { stroke-width: 0.24pt; stroke-linecap: round; }
        .stroke-3     { stroke-width: 0.36pt; stroke-linecap: round; }
        .stroke-4     { stroke-width: 0.48pt; stroke-linecap: round; }
        .stroke-5     { stroke-width: 0.6pt; stroke-linecap: round; }
        .stroke-6     { stroke-width: 0.72pt; stroke-linecap: round; }
        .stroke-7     { stroke-width: 0.84pt; stroke-linecap: round; }
        .stroke-8     { stroke-width: 0.96pt; stroke-linecap: round; }
        .stroke-9     { stroke-width: 1.08pt; stroke-linecap: round; }
        .stroke-10    { stroke-width: 1.2pt; stroke-linecap: round; }

        .blue  { stroke: #b3b3ff; }
        .red   { stroke: #ff9999; }
        .green { stroke: #b3ffb3; }
        .gray  { stroke: #b3b3b3; }

        .black         { stroke: #000000; }
        .half-black    { stroke: #808080; }
        .quarter-black { stroke: #c0c0c0; }

        .light.blue  { stroke: #d9d9ff; }
        .light.red   { stroke: #ffcccc; }
        .light.green { stroke: #d9ffd9; }
        .light.gray  { stroke: #d9d9d9; }

        .dark.blue  { stroke: #6767ff; }
        .dark.red   { stroke: #ff3333; }
        .dark.green { stroke: #67ff67; }
        .dark.gray  { stroke: #676767; }

        .alternate-blue  { stroke: #6767ff; opacity: 0.5; }
        .alternate-red   { stroke: #ff3333; opacity: 0.5; }
        .alternate-green { stroke: #67ff67; opacity: 0.5; }
        .alternate-gray  { stroke: #676767; opacity: 0.5; }
</style>
  <g id="grid">
    <line x1="0" x2="595.276" y1="87.874" y2="87.874" class="thin blue line"/>
    <line x1="0" x2="595.276" y1="93.543" y2="93.543" class="thin blue line"/>
    <line x1="0" x2="595.276" y1="99.213" y2="99.213" class="thin blue line"/>
    <line x1="0" x2="595.276" y1="104.882" y2="104.882" class="thin blue line"/>
    <line x1="0" x2="595.276" y1="110.551" y2="110.551" class="thin blue line"/>
    <line x1="0" x2="595.276" y1="116.22" y2="116.22" class="thin blue line"/>
    <line x1="0" x2="595.276" y1="121.89" y2="121.89" class="thin blue line"/>
    <line x1="0" x2="595.276" y1="127.559" y2="127.559" class="thin blue line"/>
    <line x1="0" x2="595.276" y1="133.228" y2="133.228" class="thin blue line"/>
    <line x1="0" x2="595.276" y1="138.898" y2="138.898" class="thin blue line"/>
    <line x1="0" x2="595.276" y1="144.567" y2="144.567" class="thin blue line"/>
    <line x1="0" x2="595.276" y1="150.236" y2="150.236" class="thin blue line"/>
    <line x1="0" x2="595.276" y1="155.906" y2="155.906" class="thin blue line"/>
    <line x1="0" x2="595.276" y1="161.575" y2="161.575" class="thin blue line"/>
    <line x1="0" x2="595.276" y1="167.244" y2="167.244" class="thin blue line"/>
    <line x1="0" x2="595.276" y1="172.913" y2="172.913" class="thin blue line"/>
    <line x1="0" x2="595.276" y1="178.583" y2="178.583" class="thin blue line"/>
    <line x1="0" x2="595.276" y1="184.252" y2="184.252" class="thin blue line"/>
    <line x1="0" x2="595.276" y1="189.921" y2="189.921" class="thin blue line"/>
    <line x1="0" x2="595.276" y1="195.591" y2="195.591" class="thin blue line"/>
    <line x1="0" x2="595.276" y1="201.26" y2="201.26" class="thin blue line"/>
    <line x1="0" x2="595.276" y1="206.929" y2="206.929" class="thin blue line"/>
    <line x1="0" x2="595.276" y1="212.598" y2="212.598" class="thin blue line"/>
    <line x1="0" x2="595.276" y1="218.268" y2="218.268" class="thin blue line"/>
    <line x1="0" x2="595.276" y1="223.937" y2="223.937" class="thin blue line"/>
    <line x1="0" x2="595.276" y1="229.606" y2="229.606" class="thin blue line"/>
    <line x1="0" x2="595.276" y1="235.276" y2="235.276" class="thin blue line"/>
    <line x1="0" x2="595.276" y1="240.945" y2="240.945" class="thin blue line"/>
    <line x1="0" x2="595.276" y1="246.614" y2="246.614" class="thin blue line"/>
    <line x1="0" x2="595.276" y1="252.283" y2="252.283" class="thin blue line"/>
    <line x1="0" x2="595.276" y1="257.953" y2="257.953" class="thin blue line"/>
    <line x1="0" x2="595.276" y1="263.622" y2="263.622" class="thin blue line"/>
    <line x1="0" x2="595.276" y1="269.291" y2="269.291" class="thin blue line"/>
    <line x1="0" x2="595.276" y1="274.961" y2="274.961" class="thin blue line"/>
    <line x1="0" x2="595.276" y1="280.63" y2="280.63" class="thin blue line"/>
    <line x1="0" x2="595.276" y1="286.299" y2="286.299" class="thin blue line"/>
    <line x1="0" x2="595.276" y1="291.969" y2="291.969" class="thin blue line"/>
    <line x1="0" x2="595.276" y1="297.638" y2="297.638" class="thin blue line"/>
    <line x1="0" x2="595.276" y1="303.307" y2="303.307" class="thin blue line"/>
    <line x1="0" x2="595.276" y1="308.976" y2="308.976" class="thin blue line"/>
    <line x1="0" x2="595.276" y1="314.646" y2="314.646" class="thin blue line"/>
    <line x1="0" x2="595.276" y1="320.315" y2="320.315" class="thin blue line"/>
    <line x1="0" x2="595.276" y1="325.984" y2="325.984" class="thin blue line"/>
    <line x1="0" x2="595.276" y1="331.654" y2="331.654" class="thin blue line"/>
    <line x1="0" x2="595.276" y1="337.323" y2="337.323" class="thin blue line"/>
    <line x1="0" x2="595.276" y1="342.992" y2="342.992" class="thin blue line"/>
    <line x1="0" x2="595.276" y1="348.661" y2="348.661" class="thin blue line"/>
    <line x1="0" x2="595.276" y1="354.331" y2="354.331" class="thin blue line"/>
    <line x1="0" x2="595.276" y1="360" y2="360" class="thin blue line"/>
    <line x1="0" x2="595.276" y1="365.669" y2="365.669" class="thin blue line"/>
    <line x1="0" x2="595.276" y1="371.339" y2="371.339" class="thin blue line"/>
    <line x1="0" x2="595.276" y1="377.008" y2="377.008" class="thin blue line"/>
    <line x1="0" x2="595.276" y1="382.677" y2="382.677" class="thin blue line"/>
    <line x1="0" x2="595.276" y1="388.346" y2="388.346" class="thin blue line"/>
    <line x1="0" x2="595.276" y1="394.016" y2="394.016" class="thin blue line"/>
    <line x1="0" x2="595.276" y1="399.685" y2="399.685" class="thin blue line"/>
    <line x1="0" x2="595.276" y1="405.354" y2="405.354" class="thin blue line"/>
    <line x1="0" x2="595.276" y1="411.024" y2="411.024" class="thin blue line"/>
    <line x1="0" x2="595.276" y1="416.693" y2="416.693" class="thin blue line"/>
    <line x1="0" x2="595.276" y1="422.362" y2="422.362" class="thin blue line"/>
    <line x1="0" x2="595.276" y1="428.031" y2="428.031" class="thin blue line"/>
    <line x1="0" x2="595.276" y1="433.701" y2="433.701" class="thin blue line"/>
    <line x1="0" x2="595.276" y1="439.37" y2="439.37" class="thin blue line"/>
    <line x1="0" x2="595.276" y1="445.039" y2="445.039" class="thin blue line"/>
    <line x1="0" x2="595.276" y1="450.709" y2="450.709" class="thin blue line"/>
    <line x1="0" x2="595.276" y1="456.378" y2="456.378" class="thin blue line"/>
    <line x1="0" x2="595.276" y1="462.047" y2="462.047" class="thin blue line"/>
    <line x1="0" x2="595.276" y1="467.717" y2="467.717" class="thin blue line"/>
    <line x1="0" x2="595.276" y1="473.386" y2="473.386" class="thin blue line"/>
    <line x1="0" x2="595.276" y1="479.055" y2="479.055" class="thin blue line"/>
    <line x1="0" x2="595.276" y1="484.724" y2="484.724" class="thin blue line"/>
    <line x1="0" x2="595.276" y1="490.394" y2="490.394" class="thin blue line"/>
    <line x1="0" x2="595.276" y1="496.063" y2="496.063" class="thin blue line"/>
    <line x1="0" x2="595.276" y1="501.732" y2="501.732" class="thin blue line"/>
    <line x1="0" x2="595.276" y1="507.402" y2="507.402" class="thin blue line"/>
    <line x1="0" x2="595.276" y1="513.071" y2="513.071" class="thin blue line"/>
    <line x1="0" x2="595.276" y1="518.74" y2="518.74" class="thin blue line"/>
    <line x1="0" x2="595.276" y1="524.409" y2="524.409" class="thin blue line"/>
    <line x1="0" x2="595.276" y1="530.079" y2="530.079" class="thin blue line"/>
    <line x1="0" x2="595.276" y1="535.748" y2="535.748" class="thin blue line"/>
    <line x1="0" x2="595.276" y1="541.417" y2="541.417" class="thin blue line"/>
    <line x1="0" x2="595.276" y1="547.087" y2="547.087" class="thin blue line"/>
    <line x1="0" x2="595.276" y1="552.756" y2="552.756" class="thin blue line"/>
    <line x1="0" x2="595.276" y1="558.425" y2="558.425" class="thin blue line"/>
    <line x1="0" x2="595.276" y1="564.094" y2="564.094" class="thin blue line"/>
    <line x1="0" x2="595.276" y1="569.764" y2="569.764" class="thin blue line"/>
    <line x1="0" x2="595.276" y1="575.433" y2="575.433" class="thin blue line"/>
    <line x1="0" x2="595.276" y1="581.102" y2="581.102" class="thin blue line"/>
    <line x1="0" x2="595.276" y1="586.772" y2="586.772" class="thin blue line"/>
    <line x1="0" x2="595.276" y1="592.441" y2="592.441" class="thin blue line"/>
    <line x1="0" x2="595.276" y1="598.11" y2="598.11" class="thin blue line"/>
    <line x1="0" x2="595.276" y1="603.78" y2="603.78" class="thin blue line"/>
    <line x1="0" x2="595.276" y1="609.449" y2="609.449" class="thin blue line"/>
    <line x1="0" x2="595.276" y1="615.118" y2="615.118" class="thin blue line"/>
    <line x1="0" x2="595.276" y1="620.787" y2="620.787" class="thin blue line"/>
    <line x1="0" x2="595.276" y1="626.457" y2="626.457" class="thin blue line"/>
    <line x1="0" x2="595.276" y1="632.126" y2="632.126" class="thin blue line"/>
    <line x1="0" x2="595.276" y1="637.795" y2="637.795" class="thin blue line"/>
    <line x1="0" x2="595.276" y1="643.465" y2="643.465" class="thin blue line"/>
    <line x1="0" x2="595.276" y1="649.134" y2="649.134" class="thin blue line"/>
    <line x1="0" x2="595.276" y1="654.803" y2="654.803" class="thin blue line"/>
    <line x1="0" x2="595.276" y1="660.472" y2="660.472" class="thin blue line"/>
    <line x1="0" x2="595.276" y1="666.142" y2="666.142" class="thin blue line"/>
    <line x1="0" x2="595.276" y1="671.811" y2="671.811" class="thin blue line"/>
    <line x1="0" x2="595.276" y1="677.48" y2="677.48" class="thin blue line"/>
    <line x1="0" x2="595.276" y1="683.15" y2="683.15" class="thin blue line"/>
    <line x1="0" x2="595.276" y1="688.819" y2="688.819" class="thin blue line"/>
    <line x1="0" x2="595.276" y1="694.488" y2="694.488" class="thin blue line"/>
    <line x1="0" x2="595.276" y1="700.157" y2="700.157" class="thin blue line"/>
    <line x1="0" x2="595.276" y1="705.827" y2="705.827" class="thin blue line"/>
    <line x1="0" x2="595.276" y1="711.496" y2="711.496" class="thin blue line"/>
    <line x1="0" x2="595.276" y1="717.165" y2="717.165" class="thin blue line"/>
    <line x1="0" x2="595.276" y1="722.835" y2="722.835" class="thin blue line"/>
    <line x1="0" x2="595.276" y1="728.504" y2="728.504" class="thin blue line"/>
    <line x1="0" x2="595.276" y1="734.173" y2="734.173" class="thin blue line"/>
    <line x1="0" x2="595.276" y1="739.843" y2="739.843" class="thin blue line"/>
    <line x1="0" x2="595.276" y1="745.512" y2="745.512" class="thin blue line"/>
    <line x1="0" x2="595.276" y1="751.181" y2="751.181" class="thin blue line"/>
    <line x1="0" x2="595.276" y1="756.85" y2="756.85" class="thin blue line"/>
    <line x1="0" x2="595.276" y1="762.52" y2="762.52" class="thin blue line"/>
    <line x1="0" x2="595.276" y1="768.189" y2="768.189" class="thin blue line"/>
    <line x1="0" x2="595.276" y1="773.858" y2="773.858" class="thin blue line"/>
    <line x1="116.22" x2="116.22" y1="0" y2="841.89" class="thin blue line"/>
    <line x1="138.898" x2="138.898" y1="0" y2="841.89" class="thin blue line"/>
    <line x1="161.575" x2="161.575" y1="0" y2="841.89" class="thin blue line"/>
    <line x1="184.252" x2="184.252" y1="0" y2="841.89" class="thin blue line"/>
    <line x1="206.929" x2="206.929" y1="0" y2="841.89" class="thin blue line"/>
    <line x1="229.606" x2="229.606" y1="0" y2="841.89" class="thin blue line"/>
    <line x1="252.283" x2="252.283" y1="0" y2="841.89" class="thin blue line"/>
    <line x1="274.961" x2="274.961" y1="0" y2="841.89" class="thin blue line"/>
    <line x1="297.638" x2="297.638" y1="0" y2="841.89" class="thin blue line"/>
    <line x1="320.315" x2="320.315" y1="0" y2="841.89" class="thin blue line"/>
    <line x1="342.992" x2="342.992" y1="0" y2="841.89" class="thin blue line"/>
    <line x1="365.669" x2="365.669" y1="0" y2="841.89" class="thin blue line"/>
    <line x1="388.346" x2="388.346" y1="0" y2="841.89" class="thin blue line"/>
    <line x1="411.024" x2="411.024" y1="0" y2="841.89" class="thin blue line"/>
    <line x1="433.701" x2="433.701" y1="0" y2="841.89" class="thin blue line"/>
    <line x1="456.378" x2="456.378" y1="0" y2="841.89" class="thin blue line"/>
    <line x1="479.055" x2="479.055" y1="0" y2="841.89" class="thin blue line"/>
    <line x1="501.732" x2="501.732" y1="0" y2="841.89" class="thin blue line"/>
    <line x1="524.409" x2="524.409" y1="0" y2="841.89" class="thin blue line"/>
    <line x1="547.087" x2="547.087" y1="0" y2="841.89" class="thin blue line"/>
    <line x1="569.764" x2="569.764" y1="0" y2="841.89" class="thin blue line"/>
    <line x1="592.441" x2="592.441" y1="0" y2="841.89" class="thin blue line"/>
  </g>
  <g id="lines">
    <line x1="0" x2="595.276" y1="104.882" y2="104.882" class="blue line"/>
    <line x1="0" x2="595.276" y1="127.559" y2="127.559" class="blue line"/>
    <line x1="0" x2="595.276" y1="150.236" y2="150.236" class="blue line"/>
    <line x1="0" x2="595.276" y1="172.913" y2="172.913" class="blue line"/>
    <line x1="0" x2="595.276" y1="195.591" y2="195.591" class="blue line"/>
    <line x1="0" x2="595.276" y1="218.268" y2="218.268" class="blue line"/>
    <line x1="0" x2="595.276" y1="240.945" y2="240.945" class="blue line"/>
    <line x1="0" x2="595.276" y1="263.622" y2="263.622" class="blue line"/>
    <line x1="0" x2="595.276" y1="286.299" y2="286.299" class="blue line"/>
    <line x1="0" x2="595.276" y1="308.976" y2="308.976" class="blue line"/>
    <line x1="0" x2="595.276" y1="331.654" y2="331.654" class="blue line"/>
    <line x1="0" x2="595.276" y1="354.331" y2="354.331" class="blue line"/>
    <line x1="0" x2="595.276" y1="377.008" y2="377.008" class="blue line"/>
    <line x1="0" x2="595.276" y1="399.685" y2="399.685" class="blue line"/>
    <line x1="0" x2="595.276" y1="422.362" y2="422.362" class="blue line"/>
    <line x1="0" x2="595.276" y1="445.039" y2="445.039" class="blue line"/>
    <line x1="0" x2="595.276" y1="467.717" y2="467.717" class="blue line"/>
    <line x1="0" x2="595.276" y1="490.394" y2="490.394" class="blue line"/>
    <line x1="0" x2="595.276" y1="513.071" y2="513.071" class="blue line"/>
    <line x1="0" x2="595.276" y1="535.748" y2="535.748" class="blue line"/>
    <line x1="0" x2="595.276" y1="558.425" y2="558.425" class="blue line"/>
    <line x1="0" x2="595.276" y1="581.102" y2="581.102" class="blue line"/>
    <line x1="0" x2="595.276" y1="603.78" y2="603.78" class="blue line"/>
    <line x1="0" x2="595.276" y1="626.457" y2="626.457" class="blue line"/>
    <line x1="0" x2="595.276" y1="649.134" y2="649.134" class="blue line"/>
    <line x1="0" x2="595.276" y1="671.811" y2="671.811" class="blue line"/>
    <line x1="0" x2="595.276" y1="694.488" y2="694.488" class="blue line"/>
    <line x1="0" x2="595.276" y1="717.165" y2="717.165" class="blue line"/>
    <line x1="0" x2="595.276" y1="739.843" y2="739.843" class="blue line"/>
    <line x1="0" x2="595.276" y1="762.52" y2="762.52" class="blue line"/>
  </g>
  <g id="head-line">
    <line x1="0" x2="595.276" y1="34.016" y2="34.016" class="blue line"/>
  </g>
  <g id="page-number-line">
    <line x1="501.732" x2="569.764" y1="824.882" y2="824.882" class="blue line"/>
  </g>
  <g id="margin-line">
    <line x1="116.22" x2="116.22" y1="0" y2="841.89" class="red margin line"/>
  </g>
  <rect x="203.138" y="815.89" width="189" height="12" stroke="#b3b3ff" stroke-width="0.24" fill="#ffffff" rx="2pt" ry="2pt"/>
  <text x="297.638" y="823.89" text-anchor="middle" fill="#b3b3ff" stroke="none" stroke-width="0" style="font-family: &quot;Courier&quot;, &quot;Courier New&quot;, monospace; font-size: 6pt;">https://github.com/dse/printable-paper</text>
</svg>
