<?xml version="1.0" encoding="UTF-8"?>
<svg xmlns="http://www.w3.org/2000/svg" width="396pt" height="612pt" viewBox="0 0 396 612">
  <defs/>
  <style>        .line, .dot { stroke-linecap: round; }
        .stroke-linecap-butt { stroke-linecap: butt; }

        .rectangle { fill: #ffffff; }

        .line.xx-thin    { stroke-width: 0.32004px; }
        .line.x-thin     { stroke-width: 0.48px; }
        .line.thin       { stroke-width: 0.63996px; }
        .line.semi-thin  { stroke-width: 0.78384px; }
        .line            { stroke-width: 0.96px; }
        .line.semi-thick { stroke-width: 1.17576px; }
        .line.thick      { stroke-width: 1.44px; }

        .dot.xx-thin     { stroke-width: 0.64008px; }
        .dot.x-thin      { stroke-width: 0.96px; }
        .dot.thin        { stroke-width: 1.27992px; }
        .dot.semi-thin   { stroke-width: 1.56768px; }
        .dot             { stroke-width: 1.92px; }
        .dot.semi-thick  { stroke-width: 2.35152px; }
        .dot.thick       { stroke-width: 2.88px; }

        .stroke-1     { stroke-width: 0.12px; stroke-linecap: round; }
        .stroke-2     { stroke-width: 0.24px; stroke-linecap: round; }
        .stroke-3     { stroke-width: 0.36px; stroke-linecap: round; }
        .stroke-4     { stroke-width: 0.48px; stroke-linecap: round; }
        .stroke-5     { stroke-width: 0.6px; stroke-linecap: round; }
        .stroke-6     { stroke-width: 0.72px; stroke-linecap: round; }
        .stroke-7     { stroke-width: 0.84px; stroke-linecap: round; }
        .stroke-8     { stroke-width: 0.96px; stroke-linecap: round; }
        .stroke-9     { stroke-width: 1.08px; stroke-linecap: round; }
        .stroke-10    { stroke-width: 1.2px; stroke-linecap: round; }

        .blue  { stroke: #b3b3ff; }
        .red   { stroke: #ff9999; }
        .green { stroke: #b3ffb3; }
        .gray  { stroke: #b3b3b3; }

        .black         { stroke: #000000; }
        .half-black    { stroke: #808080; }
        .quarter-black { stroke: #c0c0c0; }

        .light.blue  { stroke: #d9d9ff; }
        .light.red   { stroke: #ffcccc; }
        .light.green { stroke: #d9ffd9; }
        .light.gray  { stroke: #d9d9d9; }

        .dark.blue  { stroke: #6767ff; }
        .dark.red   { stroke: #ff3333; }
        .dark.green { stroke: #67ff67; }
        .dark.gray  { stroke: #676767; }

        .alternate-blue  { stroke: #6767ff; opacity: 0.5; }
        .alternate-red   { stroke: #ff3333; opacity: 0.5; }
        .alternate-green { stroke: #67ff67; opacity: 0.5; }
        .alternate-gray  { stroke: #676767; opacity: 0.5; }

        .gray20 { stroke: #333333; }
        .gray40 { stroke: #666666; }
        .gray60 { stroke: #999999; }
        .gray80 { stroke: #cccccc; }
</style>
  <g id="grid">
    <line x1="0" x2="396" y1="55.125" y2="55.125" class="x-thin blue line"/>
    <line x1="0" x2="396" y1="60.75" y2="60.75" class="x-thin blue line"/>
    <line x1="0" x2="396" y1="66.375" y2="66.375" class="x-thin blue line"/>
    <line x1="0" x2="396" y1="72" y2="72" class="x-thin blue line"/>
    <line x1="0" x2="396" y1="77.625" y2="77.625" class="x-thin blue line"/>
    <line x1="0" x2="396" y1="83.25" y2="83.25" class="x-thin blue line"/>
    <line x1="0" x2="396" y1="88.875" y2="88.875" class="x-thin blue line"/>
    <line x1="0" x2="396" y1="94.5" y2="94.5" class="x-thin blue line"/>
    <line x1="0" x2="396" y1="100.125" y2="100.125" class="x-thin blue line"/>
    <line x1="0" x2="396" y1="105.75" y2="105.75" class="x-thin blue line"/>
    <line x1="0" x2="396" y1="111.375" y2="111.375" class="x-thin blue line"/>
    <line x1="0" x2="396" y1="117" y2="117" class="x-thin blue line"/>
    <line x1="0" x2="396" y1="122.625" y2="122.625" class="x-thin blue line"/>
    <line x1="0" x2="396" y1="128.25" y2="128.25" class="x-thin blue line"/>
    <line x1="0" x2="396" y1="133.875" y2="133.875" class="x-thin blue line"/>
    <line x1="0" x2="396" y1="139.5" y2="139.5" class="x-thin blue line"/>
    <line x1="0" x2="396" y1="145.125" y2="145.125" class="x-thin blue line"/>
    <line x1="0" x2="396" y1="150.75" y2="150.75" class="x-thin blue line"/>
    <line x1="0" x2="396" y1="156.375" y2="156.375" class="x-thin blue line"/>
    <line x1="0" x2="396" y1="162" y2="162" class="x-thin blue line"/>
    <line x1="0" x2="396" y1="167.625" y2="167.625" class="x-thin blue line"/>
    <line x1="0" x2="396" y1="173.25" y2="173.25" class="x-thin blue line"/>
    <line x1="0" x2="396" y1="178.875" y2="178.875" class="x-thin blue line"/>
    <line x1="0" x2="396" y1="184.5" y2="184.5" class="x-thin blue line"/>
    <line x1="0" x2="396" y1="190.125" y2="190.125" class="x-thin blue line"/>
    <line x1="0" x2="396" y1="195.75" y2="195.75" class="x-thin blue line"/>
    <line x1="0" x2="396" y1="201.375" y2="201.375" class="x-thin blue line"/>
    <line x1="0" x2="396" y1="207" y2="207" class="x-thin blue line"/>
    <line x1="0" x2="396" y1="212.625" y2="212.625" class="x-thin blue line"/>
    <line x1="0" x2="396" y1="218.25" y2="218.25" class="x-thin blue line"/>
    <line x1="0" x2="396" y1="223.875" y2="223.875" class="x-thin blue line"/>
    <line x1="0" x2="396" y1="229.5" y2="229.5" class="x-thin blue line"/>
    <line x1="0" x2="396" y1="235.125" y2="235.125" class="x-thin blue line"/>
    <line x1="0" x2="396" y1="240.75" y2="240.75" class="x-thin blue line"/>
    <line x1="0" x2="396" y1="246.375" y2="246.375" class="x-thin blue line"/>
    <line x1="0" x2="396" y1="252" y2="252" class="x-thin blue line"/>
    <line x1="0" x2="396" y1="257.625" y2="257.625" class="x-thin blue line"/>
    <line x1="0" x2="396" y1="263.25" y2="263.25" class="x-thin blue line"/>
    <line x1="0" x2="396" y1="268.875" y2="268.875" class="x-thin blue line"/>
    <line x1="0" x2="396" y1="274.5" y2="274.5" class="x-thin blue line"/>
    <line x1="0" x2="396" y1="280.125" y2="280.125" class="x-thin blue line"/>
    <line x1="0" x2="396" y1="285.75" y2="285.75" class="x-thin blue line"/>
    <line x1="0" x2="396" y1="291.375" y2="291.375" class="x-thin blue line"/>
    <line x1="0" x2="396" y1="297" y2="297" class="x-thin blue line"/>
    <line x1="0" x2="396" y1="302.625" y2="302.625" class="x-thin blue line"/>
    <line x1="0" x2="396" y1="308.25" y2="308.25" class="x-thin blue line"/>
    <line x1="0" x2="396" y1="313.875" y2="313.875" class="x-thin blue line"/>
    <line x1="0" x2="396" y1="319.5" y2="319.5" class="x-thin blue line"/>
    <line x1="0" x2="396" y1="325.125" y2="325.125" class="x-thin blue line"/>
    <line x1="0" x2="396" y1="330.75" y2="330.75" class="x-thin blue line"/>
    <line x1="0" x2="396" y1="336.375" y2="336.375" class="x-thin blue line"/>
    <line x1="0" x2="396" y1="342" y2="342" class="x-thin blue line"/>
    <line x1="0" x2="396" y1="347.625" y2="347.625" class="x-thin blue line"/>
    <line x1="0" x2="396" y1="353.25" y2="353.25" class="x-thin blue line"/>
    <line x1="0" x2="396" y1="358.875" y2="358.875" class="x-thin blue line"/>
    <line x1="0" x2="396" y1="364.5" y2="364.5" class="x-thin blue line"/>
    <line x1="0" x2="396" y1="370.125" y2="370.125" class="x-thin blue line"/>
    <line x1="0" x2="396" y1="375.75" y2="375.75" class="x-thin blue line"/>
    <line x1="0" x2="396" y1="381.375" y2="381.375" class="x-thin blue line"/>
    <line x1="0" x2="396" y1="387" y2="387" class="x-thin blue line"/>
    <line x1="0" x2="396" y1="392.625" y2="392.625" class="x-thin blue line"/>
    <line x1="0" x2="396" y1="398.25" y2="398.25" class="x-thin blue line"/>
    <line x1="0" x2="396" y1="403.875" y2="403.875" class="x-thin blue line"/>
    <line x1="0" x2="396" y1="409.5" y2="409.5" class="x-thin blue line"/>
    <line x1="0" x2="396" y1="415.125" y2="415.125" class="x-thin blue line"/>
    <line x1="0" x2="396" y1="420.75" y2="420.75" class="x-thin blue line"/>
    <line x1="0" x2="396" y1="426.375" y2="426.375" class="x-thin blue line"/>
    <line x1="0" x2="396" y1="432" y2="432" class="x-thin blue line"/>
    <line x1="0" x2="396" y1="437.625" y2="437.625" class="x-thin blue line"/>
    <line x1="0" x2="396" y1="443.25" y2="443.25" class="x-thin blue line"/>
    <line x1="0" x2="396" y1="448.875" y2="448.875" class="x-thin blue line"/>
    <line x1="0" x2="396" y1="454.5" y2="454.5" class="x-thin blue line"/>
    <line x1="0" x2="396" y1="460.125" y2="460.125" class="x-thin blue line"/>
    <line x1="0" x2="396" y1="465.75" y2="465.75" class="x-thin blue line"/>
    <line x1="0" x2="396" y1="471.375" y2="471.375" class="x-thin blue line"/>
    <line x1="0" x2="396" y1="477" y2="477" class="x-thin blue line"/>
    <line x1="0" x2="396" y1="482.625" y2="482.625" class="x-thin blue line"/>
    <line x1="0" x2="396" y1="488.25" y2="488.25" class="x-thin blue line"/>
    <line x1="0" x2="396" y1="493.875" y2="493.875" class="x-thin blue line"/>
    <line x1="0" x2="396" y1="499.5" y2="499.5" class="x-thin blue line"/>
    <line x1="0" x2="396" y1="505.125" y2="505.125" class="x-thin blue line"/>
    <line x1="0" x2="396" y1="510.75" y2="510.75" class="x-thin blue line"/>
    <line x1="0" x2="396" y1="516.375" y2="516.375" class="x-thin blue line"/>
    <line x1="0" x2="396" y1="522" y2="522" class="x-thin blue line"/>
    <line x1="0" x2="396" y1="527.625" y2="527.625" class="x-thin blue line"/>
    <line x1="0" x2="396" y1="533.25" y2="533.25" class="x-thin blue line"/>
    <line x1="0" x2="396" y1="538.875" y2="538.875" class="x-thin blue line"/>
    <line x1="0" x2="396" y1="544.5" y2="544.5" class="x-thin blue line"/>
    <line x1="0" x2="396" y1="550.125" y2="550.125" class="x-thin blue line"/>
    <line x1="0" x2="396" y1="555.75" y2="555.75" class="x-thin blue line"/>
    <line x1="0" x2="396" y1="561.375" y2="561.375" class="x-thin blue line"/>
    <line x1="0" x2="396" y1="567" y2="567" class="x-thin blue line"/>
    <line x1="54" x2="54" y1="0" y2="612" class="x-thin blue line"/>
    <line x1="76.5" x2="76.5" y1="0" y2="612" class="x-thin blue line"/>
    <line x1="99" x2="99" y1="0" y2="612" class="x-thin blue line"/>
    <line x1="121.5" x2="121.5" y1="0" y2="612" class="x-thin blue line"/>
    <line x1="144" x2="144" y1="0" y2="612" class="x-thin blue line"/>
    <line x1="166.5" x2="166.5" y1="0" y2="612" class="x-thin blue line"/>
    <line x1="189" x2="189" y1="0" y2="612" class="x-thin blue line"/>
    <line x1="211.5" x2="211.5" y1="0" y2="612" class="x-thin blue line"/>
    <line x1="234" x2="234" y1="0" y2="612" class="x-thin blue line"/>
    <line x1="256.5" x2="256.5" y1="0" y2="612" class="x-thin blue line"/>
    <line x1="279" x2="279" y1="0" y2="612" class="x-thin blue line"/>
    <line x1="301.5" x2="301.5" y1="0" y2="612" class="x-thin blue line"/>
    <line x1="324" x2="324" y1="0" y2="612" class="x-thin blue line"/>
    <line x1="346.5" x2="346.5" y1="0" y2="612" class="x-thin blue line"/>
    <line x1="369" x2="369" y1="0" y2="612" class="x-thin blue line"/>
    <line x1="391.5" x2="391.5" y1="0" y2="612" class="x-thin blue line"/>
  </g>
  <g id="lines">
    <line x1="0" x2="396" y1="72" y2="72" class="blue line"/>
    <line x1="0" x2="396" y1="94.5" y2="94.5" class="blue line"/>
    <line x1="0" x2="396" y1="117" y2="117" class="blue line"/>
    <line x1="0" x2="396" y1="139.5" y2="139.5" class="blue line"/>
    <line x1="0" x2="396" y1="162" y2="162" class="blue line"/>
    <line x1="0" x2="396" y1="184.5" y2="184.5" class="blue line"/>
    <line x1="0" x2="396" y1="207" y2="207" class="blue line"/>
    <line x1="0" x2="396" y1="229.5" y2="229.5" class="blue line"/>
    <line x1="0" x2="396" y1="252" y2="252" class="blue line"/>
    <line x1="0" x2="396" y1="274.5" y2="274.5" class="blue line"/>
    <line x1="0" x2="396" y1="297" y2="297" class="blue line"/>
    <line x1="0" x2="396" y1="319.5" y2="319.5" class="blue line"/>
    <line x1="0" x2="396" y1="342" y2="342" class="blue line"/>
    <line x1="0" x2="396" y1="364.5" y2="364.5" class="blue line"/>
    <line x1="0" x2="396" y1="387" y2="387" class="blue line"/>
    <line x1="0" x2="396" y1="409.5" y2="409.5" class="blue line"/>
    <line x1="0" x2="396" y1="432" y2="432" class="blue line"/>
    <line x1="0" x2="396" y1="454.5" y2="454.5" class="blue line"/>
    <line x1="0" x2="396" y1="477" y2="477" class="blue line"/>
    <line x1="0" x2="396" y1="499.5" y2="499.5" class="blue line"/>
    <line x1="0" x2="396" y1="522" y2="522" class="blue line"/>
    <line x1="0" x2="396" y1="544.5" y2="544.5" class="blue line"/>
  </g>
  <g id="margin-line">
    <line x1="54" x2="54" y1="0" y2="612" class="red margin line"/>
  </g>
  <rect x="103.5" y="586" width="189" height="12" fill="#ffffff" stroke="none" stroke-width="0px"/>
  <text x="198" y="594" text-anchor="middle" fill="#b3b3ff" stroke="none" stroke-width="0" style="font-family: &quot;Courier&quot;, &quot;Courier New&quot;, monospace; font-size: 6pt;">https://github.com/dse/printable-paper</text>
</svg>
