<?xml version="1.0" encoding="UTF-8"?>
<svg xmlns="http://www.w3.org/2000/svg" width="612pt" height="792pt" viewBox="0 0 612 792">
  <defs/>
  <style>        .line, .dot { stroke-linecap: round; }
        .stroke-linecap-butt { stroke-linecap: butt; }

        .rectangle { fill: #ffffff; }

        .line.xx-thin    { stroke-width: 0.32004px; }
        .line.x-thin     { stroke-width: 0.48px; }
        .line.thin       { stroke-width: 0.63996px; }
        .line.semi-thin  { stroke-width: 0.78384px; }
        .line            { stroke-width: 0.96px; }
        .line.semi-thick { stroke-width: 1.17576px; }
        .line.thick      { stroke-width: 1.44px; }

        .dot.xx-thin     { stroke-width: 0.64008px; }
        .dot.x-thin      { stroke-width: 0.96px; }
        .dot.thin        { stroke-width: 1.27992px; }
        .dot.semi-thin   { stroke-width: 1.56768px; }
        .dot             { stroke-width: 1.92px; }
        .dot.semi-thick  { stroke-width: 2.35152px; }
        .dot.thick       { stroke-width: 2.88px; }

        .stroke-1     { stroke-width: 0.12px; stroke-linecap: round; }
        .stroke-2     { stroke-width: 0.24px; stroke-linecap: round; }
        .stroke-3     { stroke-width: 0.36px; stroke-linecap: round; }
        .stroke-4     { stroke-width: 0.48px; stroke-linecap: round; }
        .stroke-5     { stroke-width: 0.6px; stroke-linecap: round; }
        .stroke-6     { stroke-width: 0.72px; stroke-linecap: round; }
        .stroke-7     { stroke-width: 0.84px; stroke-linecap: round; }
        .stroke-8     { stroke-width: 0.96px; stroke-linecap: round; }
        .stroke-9     { stroke-width: 1.08px; stroke-linecap: round; }
        .stroke-10    { stroke-width: 1.2px; stroke-linecap: round; }

        .blue  { stroke: #b3b3ff; }
        .red   { stroke: #ff9999; }
        .green { stroke: #b3ffb3; }
        .gray  { stroke: #b3b3b3; }

        .black         { stroke: #000000; }
        .half-black    { stroke: #808080; }
        .quarter-black { stroke: #c0c0c0; }

        .light.blue  { stroke: #d9d9ff; }
        .light.red   { stroke: #ffcccc; }
        .light.green { stroke: #d9ffd9; }
        .light.gray  { stroke: #d9d9d9; }

        .dark.blue  { stroke: #6767ff; }
        .dark.red   { stroke: #ff3333; }
        .dark.green { stroke: #67ff67; }
        .dark.gray  { stroke: #676767; }

        .alternate-blue  { stroke: #6767ff; opacity: 0.5; }
        .alternate-red   { stroke: #ff3333; opacity: 0.5; }
        .alternate-green { stroke: #67ff67; opacity: 0.5; }
        .alternate-gray  { stroke: #676767; opacity: 0.5; }
</style>
  <g id="grid">
    <line x1="0" x2="612" y1="91.125" y2="91.125" class="thin blue line"/>
    <line x1="0" x2="612" y1="96.75" y2="96.75" class="thin blue line"/>
    <line x1="0" x2="612" y1="102.375" y2="102.375" class="thin blue line"/>
    <line x1="0" x2="612" y1="108" y2="108" class="thin blue line"/>
    <line x1="0" x2="612" y1="113.625" y2="113.625" class="thin blue line"/>
    <line x1="0" x2="612" y1="119.25" y2="119.25" class="thin blue line"/>
    <line x1="0" x2="612" y1="124.875" y2="124.875" class="thin blue line"/>
    <line x1="0" x2="612" y1="130.5" y2="130.5" class="thin blue line"/>
    <line x1="0" x2="612" y1="136.125" y2="136.125" class="thin blue line"/>
    <line x1="0" x2="612" y1="141.75" y2="141.75" class="thin blue line"/>
    <line x1="0" x2="612" y1="147.375" y2="147.375" class="thin blue line"/>
    <line x1="0" x2="612" y1="153" y2="153" class="thin blue line"/>
    <line x1="0" x2="612" y1="158.625" y2="158.625" class="thin blue line"/>
    <line x1="0" x2="612" y1="164.25" y2="164.25" class="thin blue line"/>
    <line x1="0" x2="612" y1="169.875" y2="169.875" class="thin blue line"/>
    <line x1="0" x2="612" y1="175.5" y2="175.5" class="thin blue line"/>
    <line x1="0" x2="612" y1="181.125" y2="181.125" class="thin blue line"/>
    <line x1="0" x2="612" y1="186.75" y2="186.75" class="thin blue line"/>
    <line x1="0" x2="612" y1="192.375" y2="192.375" class="thin blue line"/>
    <line x1="0" x2="612" y1="198" y2="198" class="thin blue line"/>
    <line x1="0" x2="612" y1="203.625" y2="203.625" class="thin blue line"/>
    <line x1="0" x2="612" y1="209.25" y2="209.25" class="thin blue line"/>
    <line x1="0" x2="612" y1="214.875" y2="214.875" class="thin blue line"/>
    <line x1="0" x2="612" y1="220.5" y2="220.5" class="thin blue line"/>
    <line x1="0" x2="612" y1="226.125" y2="226.125" class="thin blue line"/>
    <line x1="0" x2="612" y1="231.75" y2="231.75" class="thin blue line"/>
    <line x1="0" x2="612" y1="237.375" y2="237.375" class="thin blue line"/>
    <line x1="0" x2="612" y1="243" y2="243" class="thin blue line"/>
    <line x1="0" x2="612" y1="248.625" y2="248.625" class="thin blue line"/>
    <line x1="0" x2="612" y1="254.25" y2="254.25" class="thin blue line"/>
    <line x1="0" x2="612" y1="259.875" y2="259.875" class="thin blue line"/>
    <line x1="0" x2="612" y1="265.5" y2="265.5" class="thin blue line"/>
    <line x1="0" x2="612" y1="271.125" y2="271.125" class="thin blue line"/>
    <line x1="0" x2="612" y1="276.75" y2="276.75" class="thin blue line"/>
    <line x1="0" x2="612" y1="282.375" y2="282.375" class="thin blue line"/>
    <line x1="0" x2="612" y1="288" y2="288" class="thin blue line"/>
    <line x1="0" x2="612" y1="293.625" y2="293.625" class="thin blue line"/>
    <line x1="0" x2="612" y1="299.25" y2="299.25" class="thin blue line"/>
    <line x1="0" x2="612" y1="304.875" y2="304.875" class="thin blue line"/>
    <line x1="0" x2="612" y1="310.5" y2="310.5" class="thin blue line"/>
    <line x1="0" x2="612" y1="316.125" y2="316.125" class="thin blue line"/>
    <line x1="0" x2="612" y1="321.75" y2="321.75" class="thin blue line"/>
    <line x1="0" x2="612" y1="327.375" y2="327.375" class="thin blue line"/>
    <line x1="0" x2="612" y1="333" y2="333" class="thin blue line"/>
    <line x1="0" x2="612" y1="338.625" y2="338.625" class="thin blue line"/>
    <line x1="0" x2="612" y1="344.25" y2="344.25" class="thin blue line"/>
    <line x1="0" x2="612" y1="349.875" y2="349.875" class="thin blue line"/>
    <line x1="0" x2="612" y1="355.5" y2="355.5" class="thin blue line"/>
    <line x1="0" x2="612" y1="361.125" y2="361.125" class="thin blue line"/>
    <line x1="0" x2="612" y1="366.75" y2="366.75" class="thin blue line"/>
    <line x1="0" x2="612" y1="372.375" y2="372.375" class="thin blue line"/>
    <line x1="0" x2="612" y1="378" y2="378" class="thin blue line"/>
    <line x1="0" x2="612" y1="383.625" y2="383.625" class="thin blue line"/>
    <line x1="0" x2="612" y1="389.25" y2="389.25" class="thin blue line"/>
    <line x1="0" x2="612" y1="394.875" y2="394.875" class="thin blue line"/>
    <line x1="0" x2="612" y1="400.5" y2="400.5" class="thin blue line"/>
    <line x1="0" x2="612" y1="406.125" y2="406.125" class="thin blue line"/>
    <line x1="0" x2="612" y1="411.75" y2="411.75" class="thin blue line"/>
    <line x1="0" x2="612" y1="417.375" y2="417.375" class="thin blue line"/>
    <line x1="0" x2="612" y1="423" y2="423" class="thin blue line"/>
    <line x1="0" x2="612" y1="428.625" y2="428.625" class="thin blue line"/>
    <line x1="0" x2="612" y1="434.25" y2="434.25" class="thin blue line"/>
    <line x1="0" x2="612" y1="439.875" y2="439.875" class="thin blue line"/>
    <line x1="0" x2="612" y1="445.5" y2="445.5" class="thin blue line"/>
    <line x1="0" x2="612" y1="451.125" y2="451.125" class="thin blue line"/>
    <line x1="0" x2="612" y1="456.75" y2="456.75" class="thin blue line"/>
    <line x1="0" x2="612" y1="462.375" y2="462.375" class="thin blue line"/>
    <line x1="0" x2="612" y1="468" y2="468" class="thin blue line"/>
    <line x1="0" x2="612" y1="473.625" y2="473.625" class="thin blue line"/>
    <line x1="0" x2="612" y1="479.25" y2="479.25" class="thin blue line"/>
    <line x1="0" x2="612" y1="484.875" y2="484.875" class="thin blue line"/>
    <line x1="0" x2="612" y1="490.5" y2="490.5" class="thin blue line"/>
    <line x1="0" x2="612" y1="496.125" y2="496.125" class="thin blue line"/>
    <line x1="0" x2="612" y1="501.75" y2="501.75" class="thin blue line"/>
    <line x1="0" x2="612" y1="507.375" y2="507.375" class="thin blue line"/>
    <line x1="0" x2="612" y1="513" y2="513" class="thin blue line"/>
    <line x1="0" x2="612" y1="518.625" y2="518.625" class="thin blue line"/>
    <line x1="0" x2="612" y1="524.25" y2="524.25" class="thin blue line"/>
    <line x1="0" x2="612" y1="529.875" y2="529.875" class="thin blue line"/>
    <line x1="0" x2="612" y1="535.5" y2="535.5" class="thin blue line"/>
    <line x1="0" x2="612" y1="541.125" y2="541.125" class="thin blue line"/>
    <line x1="0" x2="612" y1="546.75" y2="546.75" class="thin blue line"/>
    <line x1="0" x2="612" y1="552.375" y2="552.375" class="thin blue line"/>
    <line x1="0" x2="612" y1="558" y2="558" class="thin blue line"/>
    <line x1="0" x2="612" y1="563.625" y2="563.625" class="thin blue line"/>
    <line x1="0" x2="612" y1="569.25" y2="569.25" class="thin blue line"/>
    <line x1="0" x2="612" y1="574.875" y2="574.875" class="thin blue line"/>
    <line x1="0" x2="612" y1="580.5" y2="580.5" class="thin blue line"/>
    <line x1="0" x2="612" y1="586.125" y2="586.125" class="thin blue line"/>
    <line x1="0" x2="612" y1="591.75" y2="591.75" class="thin blue line"/>
    <line x1="0" x2="612" y1="597.375" y2="597.375" class="thin blue line"/>
    <line x1="0" x2="612" y1="603" y2="603" class="thin blue line"/>
    <line x1="0" x2="612" y1="608.625" y2="608.625" class="thin blue line"/>
    <line x1="0" x2="612" y1="614.25" y2="614.25" class="thin blue line"/>
    <line x1="0" x2="612" y1="619.875" y2="619.875" class="thin blue line"/>
    <line x1="0" x2="612" y1="625.5" y2="625.5" class="thin blue line"/>
    <line x1="0" x2="612" y1="631.125" y2="631.125" class="thin blue line"/>
    <line x1="0" x2="612" y1="636.75" y2="636.75" class="thin blue line"/>
    <line x1="0" x2="612" y1="642.375" y2="642.375" class="thin blue line"/>
    <line x1="0" x2="612" y1="648" y2="648" class="thin blue line"/>
    <line x1="0" x2="612" y1="653.625" y2="653.625" class="thin blue line"/>
    <line x1="0" x2="612" y1="659.25" y2="659.25" class="thin blue line"/>
    <line x1="0" x2="612" y1="664.875" y2="664.875" class="thin blue line"/>
    <line x1="0" x2="612" y1="670.5" y2="670.5" class="thin blue line"/>
    <line x1="0" x2="612" y1="676.125" y2="676.125" class="thin blue line"/>
    <line x1="0" x2="612" y1="681.75" y2="681.75" class="thin blue line"/>
    <line x1="0" x2="612" y1="687.375" y2="687.375" class="thin blue line"/>
    <line x1="0" x2="612" y1="693" y2="693" class="thin blue line"/>
    <line x1="0" x2="612" y1="698.625" y2="698.625" class="thin blue line"/>
    <line x1="0" x2="612" y1="704.25" y2="704.25" class="thin blue line"/>
    <line x1="0" x2="612" y1="709.875" y2="709.875" class="thin blue line"/>
    <line x1="0" x2="612" y1="715.5" y2="715.5" class="thin blue line"/>
    <line x1="0" x2="612" y1="721.125" y2="721.125" class="thin blue line"/>
    <line x1="0" x2="612" y1="726.75" y2="726.75" class="thin blue line"/>
    <line x1="90" x2="90" y1="0" y2="792" class="thin blue line"/>
    <line x1="112.5" x2="112.5" y1="0" y2="792" class="thin blue line"/>
    <line x1="135" x2="135" y1="0" y2="792" class="thin blue line"/>
    <line x1="157.5" x2="157.5" y1="0" y2="792" class="thin blue line"/>
    <line x1="180" x2="180" y1="0" y2="792" class="thin blue line"/>
    <line x1="202.5" x2="202.5" y1="0" y2="792" class="thin blue line"/>
    <line x1="225" x2="225" y1="0" y2="792" class="thin blue line"/>
    <line x1="247.5" x2="247.5" y1="0" y2="792" class="thin blue line"/>
    <line x1="270" x2="270" y1="0" y2="792" class="thin blue line"/>
    <line x1="292.5" x2="292.5" y1="0" y2="792" class="thin blue line"/>
    <line x1="315" x2="315" y1="0" y2="792" class="thin blue line"/>
    <line x1="337.5" x2="337.5" y1="0" y2="792" class="thin blue line"/>
    <line x1="360" x2="360" y1="0" y2="792" class="thin blue line"/>
    <line x1="382.5" x2="382.5" y1="0" y2="792" class="thin blue line"/>
    <line x1="405" x2="405" y1="0" y2="792" class="thin blue line"/>
    <line x1="427.5" x2="427.5" y1="0" y2="792" class="thin blue line"/>
    <line x1="450" x2="450" y1="0" y2="792" class="thin blue line"/>
    <line x1="472.5" x2="472.5" y1="0" y2="792" class="thin blue line"/>
    <line x1="495" x2="495" y1="0" y2="792" class="thin blue line"/>
    <line x1="517.5" x2="517.5" y1="0" y2="792" class="thin blue line"/>
    <line x1="540" x2="540" y1="0" y2="792" class="thin blue line"/>
    <line x1="562.5" x2="562.5" y1="0" y2="792" class="thin blue line"/>
    <line x1="585" x2="585" y1="0" y2="792" class="thin blue line"/>
    <line x1="607.5" x2="607.5" y1="0" y2="792" class="thin blue line"/>
  </g>
  <g id="lines">
    <line x1="0" x2="612" y1="108" y2="108" class="blue line"/>
    <line x1="0" x2="612" y1="130.5" y2="130.5" class="blue line"/>
    <line x1="0" x2="612" y1="153" y2="153" class="blue line"/>
    <line x1="0" x2="612" y1="175.5" y2="175.5" class="blue line"/>
    <line x1="0" x2="612" y1="198" y2="198" class="blue line"/>
    <line x1="0" x2="612" y1="220.5" y2="220.5" class="blue line"/>
    <line x1="0" x2="612" y1="243" y2="243" class="blue line"/>
    <line x1="0" x2="612" y1="265.5" y2="265.5" class="blue line"/>
    <line x1="0" x2="612" y1="288" y2="288" class="blue line"/>
    <line x1="0" x2="612" y1="310.5" y2="310.5" class="blue line"/>
    <line x1="0" x2="612" y1="333" y2="333" class="blue line"/>
    <line x1="0" x2="612" y1="355.5" y2="355.5" class="blue line"/>
    <line x1="0" x2="612" y1="378" y2="378" class="blue line"/>
    <line x1="0" x2="612" y1="400.5" y2="400.5" class="blue line"/>
    <line x1="0" x2="612" y1="423" y2="423" class="blue line"/>
    <line x1="0" x2="612" y1="445.5" y2="445.5" class="blue line"/>
    <line x1="0" x2="612" y1="468" y2="468" class="blue line"/>
    <line x1="0" x2="612" y1="490.5" y2="490.5" class="blue line"/>
    <line x1="0" x2="612" y1="513" y2="513" class="blue line"/>
    <line x1="0" x2="612" y1="535.5" y2="535.5" class="blue line"/>
    <line x1="0" x2="612" y1="558" y2="558" class="blue line"/>
    <line x1="0" x2="612" y1="580.5" y2="580.5" class="blue line"/>
    <line x1="0" x2="612" y1="603" y2="603" class="blue line"/>
    <line x1="0" x2="612" y1="625.5" y2="625.5" class="blue line"/>
    <line x1="0" x2="612" y1="648" y2="648" class="blue line"/>
    <line x1="0" x2="612" y1="670.5" y2="670.5" class="blue line"/>
    <line x1="0" x2="612" y1="693" y2="693" class="blue line"/>
    <line x1="0" x2="612" y1="715.5" y2="715.5" class="blue line"/>
  </g>
  <g id="margin-line">
    <line x1="90" x2="90" y1="0" y2="792" class="red margin line"/>
  </g>
  <rect x="211.5" y="766" width="189" height="12" fill="#ffffff" stroke="none" stroke-width="0px"/>
  <text x="306" y="774" text-anchor="middle" fill="#b3b3ff" stroke="none" stroke-width="0" style="font-family: &quot;Courier&quot;, &quot;Courier New&quot;, monospace; font-size: 6pt;">https://github.com/dse/printable-paper</text>
</svg>
