<?xml version="1.0" encoding="UTF-8"?>
<svg xmlns="http://www.w3.org/2000/svg" width="419.528pt" height="595.276pt" viewBox="0 0 419.528 595.276">
  <defs/>
  <style>        .line, .dot { stroke-linecap: round; }
        .stroke-linecap-butt { stroke-linecap: butt; }

        .line            { stroke-width: 0.72pt; }
        .line.xx-thin    { stroke-width: 0.24pt; }
        .line.x-thin     { stroke-width: 0.36pt; }
        .line.thin       { stroke-width: 0.48pt; }
        .line.thick      { stroke-width: 1.08pt; }
        .line.semi-thin  { stroke-width: 0.588pt; }
        .line.semi-thick { stroke-width: 0.882pt; }

        .dot             { stroke-width: 1.44pt; }
        .dot.thin        { stroke-width: 0.96pt; }
        .dot.thick       { stroke-width: 2.16pt; }
        .dot.semi-thin   { stroke-width: 1.176pt; }
        .dot.semi-thick  { stroke-width: 1.764pt; }

        .stroke-1     { stroke-width: 0.12pt; stroke-linecap: round; } /* 1/600 in */
        .stroke-2     { stroke-width: 0.24pt; stroke-linecap: round; }
        .stroke-3     { stroke-width: 0.36pt; stroke-linecap: round; }
        .stroke-4     { stroke-width: 0.48pt; stroke-linecap: round; }
        .stroke-5     { stroke-width: 0.60pt; stroke-linecap: round; }
        .stroke-6     { stroke-width: 0.72pt; stroke-linecap: round; }
        .stroke-7     { stroke-width: 0.84pt; stroke-linecap: round; }
        .stroke-8     { stroke-width: 0.96pt; stroke-linecap: round; }
        .stroke-9     { stroke-width: 1.08pt; stroke-linecap: round; }
        .stroke-10    { stroke-width: 1.20pt; stroke-linecap: round; }

        .blue  { stroke: #b3b3ff; }
        .red   { stroke: #ff9999; }
        .green { stroke: #b3ffb3; }
        .gray  { stroke: #b3b3b3; }
        .light.blue  { stroke: #d9d9ff; }
        .light.red   { stroke: #ffcccc; }
        .light.green { stroke: #d9ffd9; }
        .light.gray  { stroke: #d9d9d9; }

        .dark.blue  { stroke: #6767ff; }
        .dark.red   { stroke: #ff3333; }
        .dark.green { stroke: #67ff67; }
        .dark.gray  { stroke: #676767; }

        .alternate-blue  { stroke: #6767ff; opacity: 0.5; }
        .alternate-red   { stroke: #ff3333; opacity: 0.5; }
        .alternate-green { stroke: #67ff67; opacity: 0.5; }
        .alternate-gray  { stroke: #676767; opacity: 0.5; }
</style>
  <defs>
    <pattern x="-18" y="53.8582677165355" width="455.528" height="5.66929133858267" id="grid-pattern-1-horizontal-lines" patternUnits="userSpaceOnUse" viewBox="0 0 455.528 5.669">
      <line x1="18" x2="437.528" y1="2.835" y2="2.835" class="thin blue line"/>
    </pattern>
    <pattern x="36.8503937007874" y="-18" width="17.007874015748" height="631.276" id="grid-pattern-2-vertical-lines" patternUnits="userSpaceOnUse" viewBox="0 0 17.008 631.276">
      <line x1="8.504" x2="8.504" y1="18" y2="613.276" class="thin blue line"/>
    </pattern>
  </defs>
  <g id="grid">
    <rect x="-18" y="53.8582677165355" width="455.528" height="493.228346456691" fill="url(#grid-pattern-1-horizontal-lines)"/>
    <rect x="36.8503937007874" y="-18" width="391.181102362204" height="631.276" fill="url(#grid-pattern-2-vertical-lines)"/>
  </g>
  <g id="lines">
    <line x1="0" x2="419.528" y1="68.031" y2="68.031" class=" blue line"/>
    <line x1="0" x2="419.528" y1="85.039" y2="85.039" class=" blue line"/>
    <line x1="0" x2="419.528" y1="102.047" y2="102.047" class=" blue line"/>
    <line x1="0" x2="419.528" y1="119.055" y2="119.055" class=" blue line"/>
    <line x1="0" x2="419.528" y1="136.063" y2="136.063" class=" blue line"/>
    <line x1="0" x2="419.528" y1="153.071" y2="153.071" class=" blue line"/>
    <line x1="0" x2="419.528" y1="170.079" y2="170.079" class=" blue line"/>
    <line x1="0" x2="419.528" y1="187.087" y2="187.087" class=" blue line"/>
    <line x1="0" x2="419.528" y1="204.094" y2="204.094" class=" blue line"/>
    <line x1="0" x2="419.528" y1="221.102" y2="221.102" class=" blue line"/>
    <line x1="0" x2="419.528" y1="238.11" y2="238.11" class=" blue line"/>
    <line x1="0" x2="419.528" y1="255.118" y2="255.118" class=" blue line"/>
    <line x1="0" x2="419.528" y1="272.126" y2="272.126" class=" blue line"/>
    <line x1="0" x2="419.528" y1="289.134" y2="289.134" class=" blue line"/>
    <line x1="0" x2="419.528" y1="306.142" y2="306.142" class=" blue line"/>
    <line x1="0" x2="419.528" y1="323.15" y2="323.15" class=" blue line"/>
    <line x1="0" x2="419.528" y1="340.157" y2="340.157" class=" blue line"/>
    <line x1="0" x2="419.528" y1="357.165" y2="357.165" class=" blue line"/>
    <line x1="0" x2="419.528" y1="374.173" y2="374.173" class=" blue line"/>
    <line x1="0" x2="419.528" y1="391.181" y2="391.181" class=" blue line"/>
    <line x1="0" x2="419.528" y1="408.189" y2="408.189" class=" blue line"/>
    <line x1="0" x2="419.528" y1="425.197" y2="425.197" class=" blue line"/>
    <line x1="0" x2="419.528" y1="442.205" y2="442.205" class=" blue line"/>
    <line x1="0" x2="419.528" y1="459.213" y2="459.213" class=" blue line"/>
    <line x1="0" x2="419.528" y1="476.22" y2="476.22" class=" blue line"/>
    <line x1="0" x2="419.528" y1="493.228" y2="493.228" class=" blue line"/>
    <line x1="0" x2="419.528" y1="510.236" y2="510.236" class=" blue line"/>
    <line x1="0" x2="419.528" y1="527.244" y2="527.244" class=" blue line"/>
  </g>
  <g id="margin-line">
    <line x1="45.354" x2="45.354" y1="0" y2="595.276" class="red margin line"/>
  </g>
  <g id="head-line">
    <line x1="0" x2="419.528" y1="34.016" y2="34.016" class=" blue line"/>
  </g>
  <g id="page-number-line">
    <line x1="351.496" x2="402.52" y1="578.268" y2="578.268" class=" blue line"/>
  </g>
</svg>
