<?xml version="1.0" encoding="UTF-8"?>
<svg xmlns="http://www.w3.org/2000/svg" width="595.276pt" height="841.890pt" viewBox="0.000 0.000 595.276 841.890">
  <style>
        .line, .dot, .feint-line, .margin-line { stroke-linecap: round; }
        .stroke-linecap-butt { stroke-linecap: butt; }
        .rectangle { fill: rgb(255, 255, 255); }
        .blue  { stroke: rgb(179, 179, 255); }
        .red   { stroke: rgb(255, 158, 158); }
        .green { stroke: rgb( 90, 255,  90); }
        .gray  { stroke: rgb(187, 187, 187); }
        .thin-black { stroke: rgb(0, 0, 0); }
  </style>
  <style>
        .line        { stroke-width: 0.96px; opacity: 1; }
        .feint-line  { stroke-width: 0.48px; opacity: 1; }
        .dot         { stroke-width: 1.92px; opacity: 1; }
        .margin-line { stroke-width: 0.96px; opacity: 1; }
  </style>
  <defs/>
  <g id="grid">
    <line x1="0.000" x2="595.276" y1="93.543" y2="93.543" class="blue feint-line"/>
    <line x1="0.000" x2="595.276" y1="99.213" y2="99.213" class="blue feint-line"/>
    <line x1="0.000" x2="595.276" y1="104.882" y2="104.882" class="blue feint-line"/>
    <line x1="0.000" x2="595.276" y1="110.551" y2="110.551" class="blue feint-line"/>
    <line x1="0.000" x2="595.276" y1="116.220" y2="116.220" class="blue feint-line"/>
    <line x1="0.000" x2="595.276" y1="121.890" y2="121.890" class="blue feint-line"/>
    <line x1="0.000" x2="595.276" y1="127.559" y2="127.559" class="blue feint-line"/>
    <line x1="0.000" x2="595.276" y1="133.228" y2="133.228" class="blue feint-line"/>
    <line x1="0.000" x2="595.276" y1="138.898" y2="138.898" class="blue feint-line"/>
    <line x1="0.000" x2="595.276" y1="144.567" y2="144.567" class="blue feint-line"/>
    <line x1="0.000" x2="595.276" y1="150.236" y2="150.236" class="blue feint-line"/>
    <line x1="0.000" x2="595.276" y1="155.906" y2="155.906" class="blue feint-line"/>
    <line x1="0.000" x2="595.276" y1="161.575" y2="161.575" class="blue feint-line"/>
    <line x1="0.000" x2="595.276" y1="167.244" y2="167.244" class="blue feint-line"/>
    <line x1="0.000" x2="595.276" y1="172.913" y2="172.913" class="blue feint-line"/>
    <line x1="0.000" x2="595.276" y1="178.583" y2="178.583" class="blue feint-line"/>
    <line x1="0.000" x2="595.276" y1="184.252" y2="184.252" class="blue feint-line"/>
    <line x1="0.000" x2="595.276" y1="189.921" y2="189.921" class="blue feint-line"/>
    <line x1="0.000" x2="595.276" y1="195.591" y2="195.591" class="blue feint-line"/>
    <line x1="0.000" x2="595.276" y1="201.260" y2="201.260" class="blue feint-line"/>
    <line x1="0.000" x2="595.276" y1="206.929" y2="206.929" class="blue feint-line"/>
    <line x1="0.000" x2="595.276" y1="212.598" y2="212.598" class="blue feint-line"/>
    <line x1="0.000" x2="595.276" y1="218.268" y2="218.268" class="blue feint-line"/>
    <line x1="0.000" x2="595.276" y1="223.937" y2="223.937" class="blue feint-line"/>
    <line x1="0.000" x2="595.276" y1="229.606" y2="229.606" class="blue feint-line"/>
    <line x1="0.000" x2="595.276" y1="235.276" y2="235.276" class="blue feint-line"/>
    <line x1="0.000" x2="595.276" y1="240.945" y2="240.945" class="blue feint-line"/>
    <line x1="0.000" x2="595.276" y1="246.614" y2="246.614" class="blue feint-line"/>
    <line x1="0.000" x2="595.276" y1="252.283" y2="252.283" class="blue feint-line"/>
    <line x1="0.000" x2="595.276" y1="257.953" y2="257.953" class="blue feint-line"/>
    <line x1="0.000" x2="595.276" y1="263.622" y2="263.622" class="blue feint-line"/>
    <line x1="0.000" x2="595.276" y1="269.291" y2="269.291" class="blue feint-line"/>
    <line x1="0.000" x2="595.276" y1="274.961" y2="274.961" class="blue feint-line"/>
    <line x1="0.000" x2="595.276" y1="280.630" y2="280.630" class="blue feint-line"/>
    <line x1="0.000" x2="595.276" y1="286.299" y2="286.299" class="blue feint-line"/>
    <line x1="0.000" x2="595.276" y1="291.969" y2="291.969" class="blue feint-line"/>
    <line x1="0.000" x2="595.276" y1="297.638" y2="297.638" class="blue feint-line"/>
    <line x1="0.000" x2="595.276" y1="303.307" y2="303.307" class="blue feint-line"/>
    <line x1="0.000" x2="595.276" y1="308.976" y2="308.976" class="blue feint-line"/>
    <line x1="0.000" x2="595.276" y1="314.646" y2="314.646" class="blue feint-line"/>
    <line x1="0.000" x2="595.276" y1="320.315" y2="320.315" class="blue feint-line"/>
    <line x1="0.000" x2="595.276" y1="325.984" y2="325.984" class="blue feint-line"/>
    <line x1="0.000" x2="595.276" y1="331.654" y2="331.654" class="blue feint-line"/>
    <line x1="0.000" x2="595.276" y1="337.323" y2="337.323" class="blue feint-line"/>
    <line x1="0.000" x2="595.276" y1="342.992" y2="342.992" class="blue feint-line"/>
    <line x1="0.000" x2="595.276" y1="348.661" y2="348.661" class="blue feint-line"/>
    <line x1="0.000" x2="595.276" y1="354.331" y2="354.331" class="blue feint-line"/>
    <line x1="0.000" x2="595.276" y1="360.000" y2="360.000" class="blue feint-line"/>
    <line x1="0.000" x2="595.276" y1="365.669" y2="365.669" class="blue feint-line"/>
    <line x1="0.000" x2="595.276" y1="371.339" y2="371.339" class="blue feint-line"/>
    <line x1="0.000" x2="595.276" y1="377.008" y2="377.008" class="blue feint-line"/>
    <line x1="0.000" x2="595.276" y1="382.677" y2="382.677" class="blue feint-line"/>
    <line x1="0.000" x2="595.276" y1="388.346" y2="388.346" class="blue feint-line"/>
    <line x1="0.000" x2="595.276" y1="394.016" y2="394.016" class="blue feint-line"/>
    <line x1="0.000" x2="595.276" y1="399.685" y2="399.685" class="blue feint-line"/>
    <line x1="0.000" x2="595.276" y1="405.354" y2="405.354" class="blue feint-line"/>
    <line x1="0.000" x2="595.276" y1="411.024" y2="411.024" class="blue feint-line"/>
    <line x1="0.000" x2="595.276" y1="416.693" y2="416.693" class="blue feint-line"/>
    <line x1="0.000" x2="595.276" y1="422.362" y2="422.362" class="blue feint-line"/>
    <line x1="0.000" x2="595.276" y1="428.031" y2="428.031" class="blue feint-line"/>
    <line x1="0.000" x2="595.276" y1="433.701" y2="433.701" class="blue feint-line"/>
    <line x1="0.000" x2="595.276" y1="439.370" y2="439.370" class="blue feint-line"/>
    <line x1="0.000" x2="595.276" y1="445.039" y2="445.039" class="blue feint-line"/>
    <line x1="0.000" x2="595.276" y1="450.709" y2="450.709" class="blue feint-line"/>
    <line x1="0.000" x2="595.276" y1="456.378" y2="456.378" class="blue feint-line"/>
    <line x1="0.000" x2="595.276" y1="462.047" y2="462.047" class="blue feint-line"/>
    <line x1="0.000" x2="595.276" y1="467.717" y2="467.717" class="blue feint-line"/>
    <line x1="0.000" x2="595.276" y1="473.386" y2="473.386" class="blue feint-line"/>
    <line x1="0.000" x2="595.276" y1="479.055" y2="479.055" class="blue feint-line"/>
    <line x1="0.000" x2="595.276" y1="484.724" y2="484.724" class="blue feint-line"/>
    <line x1="0.000" x2="595.276" y1="490.394" y2="490.394" class="blue feint-line"/>
    <line x1="0.000" x2="595.276" y1="496.063" y2="496.063" class="blue feint-line"/>
    <line x1="0.000" x2="595.276" y1="501.732" y2="501.732" class="blue feint-line"/>
    <line x1="0.000" x2="595.276" y1="507.402" y2="507.402" class="blue feint-line"/>
    <line x1="0.000" x2="595.276" y1="513.071" y2="513.071" class="blue feint-line"/>
    <line x1="0.000" x2="595.276" y1="518.740" y2="518.740" class="blue feint-line"/>
    <line x1="0.000" x2="595.276" y1="524.409" y2="524.409" class="blue feint-line"/>
    <line x1="0.000" x2="595.276" y1="530.079" y2="530.079" class="blue feint-line"/>
    <line x1="0.000" x2="595.276" y1="535.748" y2="535.748" class="blue feint-line"/>
    <line x1="0.000" x2="595.276" y1="541.417" y2="541.417" class="blue feint-line"/>
    <line x1="0.000" x2="595.276" y1="547.087" y2="547.087" class="blue feint-line"/>
    <line x1="0.000" x2="595.276" y1="552.756" y2="552.756" class="blue feint-line"/>
    <line x1="0.000" x2="595.276" y1="558.425" y2="558.425" class="blue feint-line"/>
    <line x1="0.000" x2="595.276" y1="564.094" y2="564.094" class="blue feint-line"/>
    <line x1="0.000" x2="595.276" y1="569.764" y2="569.764" class="blue feint-line"/>
    <line x1="0.000" x2="595.276" y1="575.433" y2="575.433" class="blue feint-line"/>
    <line x1="0.000" x2="595.276" y1="581.102" y2="581.102" class="blue feint-line"/>
    <line x1="0.000" x2="595.276" y1="586.772" y2="586.772" class="blue feint-line"/>
    <line x1="0.000" x2="595.276" y1="592.441" y2="592.441" class="blue feint-line"/>
    <line x1="0.000" x2="595.276" y1="598.110" y2="598.110" class="blue feint-line"/>
    <line x1="0.000" x2="595.276" y1="603.780" y2="603.780" class="blue feint-line"/>
    <line x1="0.000" x2="595.276" y1="609.449" y2="609.449" class="blue feint-line"/>
    <line x1="0.000" x2="595.276" y1="615.118" y2="615.118" class="blue feint-line"/>
    <line x1="0.000" x2="595.276" y1="620.787" y2="620.787" class="blue feint-line"/>
    <line x1="0.000" x2="595.276" y1="626.457" y2="626.457" class="blue feint-line"/>
    <line x1="0.000" x2="595.276" y1="632.126" y2="632.126" class="blue feint-line"/>
    <line x1="0.000" x2="595.276" y1="637.795" y2="637.795" class="blue feint-line"/>
    <line x1="0.000" x2="595.276" y1="643.465" y2="643.465" class="blue feint-line"/>
    <line x1="0.000" x2="595.276" y1="649.134" y2="649.134" class="blue feint-line"/>
    <line x1="0.000" x2="595.276" y1="654.803" y2="654.803" class="blue feint-line"/>
    <line x1="0.000" x2="595.276" y1="660.472" y2="660.472" class="blue feint-line"/>
    <line x1="0.000" x2="595.276" y1="666.142" y2="666.142" class="blue feint-line"/>
    <line x1="0.000" x2="595.276" y1="671.811" y2="671.811" class="blue feint-line"/>
    <line x1="0.000" x2="595.276" y1="677.480" y2="677.480" class="blue feint-line"/>
    <line x1="0.000" x2="595.276" y1="683.150" y2="683.150" class="blue feint-line"/>
    <line x1="0.000" x2="595.276" y1="688.819" y2="688.819" class="blue feint-line"/>
    <line x1="0.000" x2="595.276" y1="694.488" y2="694.488" class="blue feint-line"/>
    <line x1="0.000" x2="595.276" y1="700.157" y2="700.157" class="blue feint-line"/>
    <line x1="0.000" x2="595.276" y1="705.827" y2="705.827" class="blue feint-line"/>
    <line x1="0.000" x2="595.276" y1="711.496" y2="711.496" class="blue feint-line"/>
    <line x1="0.000" x2="595.276" y1="717.165" y2="717.165" class="blue feint-line"/>
    <line x1="0.000" x2="595.276" y1="722.835" y2="722.835" class="blue feint-line"/>
    <line x1="0.000" x2="595.276" y1="728.504" y2="728.504" class="blue feint-line"/>
    <line x1="0.000" x2="595.276" y1="734.173" y2="734.173" class="blue feint-line"/>
    <line x1="0.000" x2="595.276" y1="739.843" y2="739.843" class="blue feint-line"/>
    <line x1="0.000" x2="595.276" y1="745.512" y2="745.512" class="blue feint-line"/>
    <line x1="0.000" x2="595.276" y1="751.181" y2="751.181" class="blue feint-line"/>
    <line x1="0.000" x2="595.276" y1="756.850" y2="756.850" class="blue feint-line"/>
    <line x1="0.000" x2="595.276" y1="762.520" y2="762.520" class="blue feint-line"/>
    <line x1="0.000" x2="595.276" y1="768.189" y2="768.189" class="blue feint-line"/>
    <line x1="116.220" x2="116.220" y1="0.000" y2="841.890" class="blue feint-line"/>
    <line x1="133.228" x2="133.228" y1="0.000" y2="841.890" class="blue feint-line"/>
    <line x1="150.236" x2="150.236" y1="0.000" y2="841.890" class="blue feint-line"/>
    <line x1="167.244" x2="167.244" y1="0.000" y2="841.890" class="blue feint-line"/>
    <line x1="184.252" x2="184.252" y1="0.000" y2="841.890" class="blue feint-line"/>
    <line x1="201.260" x2="201.260" y1="0.000" y2="841.890" class="blue feint-line"/>
    <line x1="218.268" x2="218.268" y1="0.000" y2="841.890" class="blue feint-line"/>
    <line x1="235.276" x2="235.276" y1="0.000" y2="841.890" class="blue feint-line"/>
    <line x1="252.283" x2="252.283" y1="0.000" y2="841.890" class="blue feint-line"/>
    <line x1="269.291" x2="269.291" y1="0.000" y2="841.890" class="blue feint-line"/>
    <line x1="286.299" x2="286.299" y1="0.000" y2="841.890" class="blue feint-line"/>
    <line x1="303.307" x2="303.307" y1="0.000" y2="841.890" class="blue feint-line"/>
    <line x1="320.315" x2="320.315" y1="0.000" y2="841.890" class="blue feint-line"/>
    <line x1="337.323" x2="337.323" y1="0.000" y2="841.890" class="blue feint-line"/>
    <line x1="354.331" x2="354.331" y1="0.000" y2="841.890" class="blue feint-line"/>
    <line x1="371.339" x2="371.339" y1="0.000" y2="841.890" class="blue feint-line"/>
    <line x1="388.346" x2="388.346" y1="0.000" y2="841.890" class="blue feint-line"/>
    <line x1="405.354" x2="405.354" y1="0.000" y2="841.890" class="blue feint-line"/>
    <line x1="422.362" x2="422.362" y1="0.000" y2="841.890" class="blue feint-line"/>
    <line x1="439.370" x2="439.370" y1="0.000" y2="841.890" class="blue feint-line"/>
    <line x1="456.378" x2="456.378" y1="0.000" y2="841.890" class="blue feint-line"/>
    <line x1="473.386" x2="473.386" y1="0.000" y2="841.890" class="blue feint-line"/>
    <line x1="490.394" x2="490.394" y1="0.000" y2="841.890" class="blue feint-line"/>
    <line x1="507.402" x2="507.402" y1="0.000" y2="841.890" class="blue feint-line"/>
    <line x1="524.409" x2="524.409" y1="0.000" y2="841.890" class="blue feint-line"/>
    <line x1="541.417" x2="541.417" y1="0.000" y2="841.890" class="blue feint-line"/>
    <line x1="558.425" x2="558.425" y1="0.000" y2="841.890" class="blue feint-line"/>
    <line x1="575.433" x2="575.433" y1="0.000" y2="841.890" class="blue feint-line"/>
    <line x1="592.441" x2="592.441" y1="0.000" y2="841.890" class="blue feint-line"/>
  </g>
  <g id="lines">
    <line x1="0.000" x2="595.276" y1="104.882" y2="104.882" class="blue line"/>
    <line x1="0.000" x2="595.276" y1="121.890" y2="121.890" class="blue line"/>
    <line x1="0.000" x2="595.276" y1="138.898" y2="138.898" class="blue line"/>
    <line x1="0.000" x2="595.276" y1="155.906" y2="155.906" class="blue line"/>
    <line x1="0.000" x2="595.276" y1="172.913" y2="172.913" class="blue line"/>
    <line x1="0.000" x2="595.276" y1="189.921" y2="189.921" class="blue line"/>
    <line x1="0.000" x2="595.276" y1="206.929" y2="206.929" class="blue line"/>
    <line x1="0.000" x2="595.276" y1="223.937" y2="223.937" class="blue line"/>
    <line x1="0.000" x2="595.276" y1="240.945" y2="240.945" class="blue line"/>
    <line x1="0.000" x2="595.276" y1="257.953" y2="257.953" class="blue line"/>
    <line x1="0.000" x2="595.276" y1="274.961" y2="274.961" class="blue line"/>
    <line x1="0.000" x2="595.276" y1="291.969" y2="291.969" class="blue line"/>
    <line x1="0.000" x2="595.276" y1="308.976" y2="308.976" class="blue line"/>
    <line x1="0.000" x2="595.276" y1="325.984" y2="325.984" class="blue line"/>
    <line x1="0.000" x2="595.276" y1="342.992" y2="342.992" class="blue line"/>
    <line x1="0.000" x2="595.276" y1="360.000" y2="360.000" class="blue line"/>
    <line x1="0.000" x2="595.276" y1="377.008" y2="377.008" class="blue line"/>
    <line x1="0.000" x2="595.276" y1="394.016" y2="394.016" class="blue line"/>
    <line x1="0.000" x2="595.276" y1="411.024" y2="411.024" class="blue line"/>
    <line x1="0.000" x2="595.276" y1="428.031" y2="428.031" class="blue line"/>
    <line x1="0.000" x2="595.276" y1="445.039" y2="445.039" class="blue line"/>
    <line x1="0.000" x2="595.276" y1="462.047" y2="462.047" class="blue line"/>
    <line x1="0.000" x2="595.276" y1="479.055" y2="479.055" class="blue line"/>
    <line x1="0.000" x2="595.276" y1="496.063" y2="496.063" class="blue line"/>
    <line x1="0.000" x2="595.276" y1="513.071" y2="513.071" class="blue line"/>
    <line x1="0.000" x2="595.276" y1="530.079" y2="530.079" class="blue line"/>
    <line x1="0.000" x2="595.276" y1="547.087" y2="547.087" class="blue line"/>
    <line x1="0.000" x2="595.276" y1="564.094" y2="564.094" class="blue line"/>
    <line x1="0.000" x2="595.276" y1="581.102" y2="581.102" class="blue line"/>
    <line x1="0.000" x2="595.276" y1="598.110" y2="598.110" class="blue line"/>
    <line x1="0.000" x2="595.276" y1="615.118" y2="615.118" class="blue line"/>
    <line x1="0.000" x2="595.276" y1="632.126" y2="632.126" class="blue line"/>
    <line x1="0.000" x2="595.276" y1="649.134" y2="649.134" class="blue line"/>
    <line x1="0.000" x2="595.276" y1="666.142" y2="666.142" class="blue line"/>
    <line x1="0.000" x2="595.276" y1="683.150" y2="683.150" class="blue line"/>
    <line x1="0.000" x2="595.276" y1="700.157" y2="700.157" class="blue line"/>
    <line x1="0.000" x2="595.276" y1="717.165" y2="717.165" class="blue line"/>
    <line x1="0.000" x2="595.276" y1="734.173" y2="734.173" class="blue line"/>
    <line x1="0.000" x2="595.276" y1="751.181" y2="751.181" class="blue line"/>
  </g>
  <g id="margin-line">
    <line x1="116.220" x2="116.220" y1="0.000" y2="841.890" class="red margin-line"/>
  </g>
  <rect x="203.138" y="815.89" width="189" height="12" fill="#ffffff" stroke="none" stroke-width="0px"/>
  <text x="297.638" y="823.89" text-anchor="middle" fill="#b3b3ff" stroke="none" stroke-width="0" style="font-family: &quot;Courier&quot;, &quot;Courier New&quot;, monospace; font-size: 6pt;">https://github.com/dse/printable-paper</text>
</svg>
