<?xml version="1.0" encoding="UTF-8"?>
<svg xmlns="http://www.w3.org/2000/svg" width="419.528pt" height="595.276pt" viewBox="0.000 0.000 419.528 595.276">
  <style>
        .line, .dot, .feint-line, .margin-line { stroke-linecap: round; }
        .stroke-linecap-butt { stroke-linecap: butt; }
        .rectangle { fill: rgb(255, 255, 255); }
        .blue  { stroke: rgb(179, 179, 255); }
        .red   { stroke: rgb(255, 158, 158); }
        .green { stroke: rgb( 90, 255,  90); }
        .gray  { stroke: rgb(187, 187, 187); }
        .thin-black { stroke: rgb(0, 0, 0); }
  </style>
  <style>
        .line        { stroke-width: 0.48px; opacity: 1; }
        .feint-line  { stroke-width: 0.678822509939086px; opacity: 1; }
        .dot         { stroke-width: 0.48px; opacity: 1; }
        .margin-line { stroke-width: 0.96px; opacity: 1; }
        line.dot {
            stroke-linecap: butt;
        }
  </style>
  <defs/>
  <g id="lines">
    <line x1="0.000" x2="419.528" y1="15.118" y2="15.118" class="blue line"/>
    <line x1="0.000" x2="419.528" y1="36.851" y2="36.851" class="blue line"/>
    <line x1="0.000" x2="419.528" y1="58.583" y2="58.583" class="blue line"/>
    <line x1="0.000" x2="419.528" y1="80.315" y2="80.315" class="blue line"/>
    <line x1="0.000" x2="419.528" y1="102.047" y2="102.047" class="blue line"/>
    <line x1="0.000" x2="419.528" y1="123.780" y2="123.780" class="blue line"/>
    <line x1="0.000" x2="419.528" y1="145.512" y2="145.512" class="blue line"/>
    <line x1="0.000" x2="419.528" y1="167.244" y2="167.244" class="blue line"/>
    <line x1="0.000" x2="419.528" y1="188.977" y2="188.977" class="blue line"/>
    <line x1="0.000" x2="419.528" y1="210.709" y2="210.709" class="blue line"/>
    <line x1="0.000" x2="419.528" y1="232.441" y2="232.441" class="blue line"/>
    <line x1="0.000" x2="419.528" y1="254.173" y2="254.173" class="blue line"/>
    <line x1="0.000" x2="419.528" y1="275.906" y2="275.906" class="blue line"/>
    <line x1="0.000" x2="419.528" y1="297.638" y2="297.638" class="blue line"/>
    <line x1="0.000" x2="419.528" y1="319.370" y2="319.370" class="blue line"/>
    <line x1="0.000" x2="419.528" y1="341.103" y2="341.103" class="blue line"/>
    <line x1="0.000" x2="419.528" y1="362.835" y2="362.835" class="blue line"/>
    <line x1="0.000" x2="419.528" y1="384.567" y2="384.567" class="blue line"/>
    <line x1="0.000" x2="419.528" y1="406.299" y2="406.299" class="blue line"/>
    <line x1="0.000" x2="419.528" y1="428.032" y2="428.032" class="blue line"/>
    <line x1="0.000" x2="419.528" y1="449.764" y2="449.764" class="blue line"/>
    <line x1="0.000" x2="419.528" y1="471.496" y2="471.496" class="blue line"/>
    <line x1="0.000" x2="419.528" y1="493.229" y2="493.229" class="blue line"/>
    <line x1="0.000" x2="419.528" y1="514.961" y2="514.961" class="blue line"/>
    <line x1="0.000" x2="419.528" y1="536.693" y2="536.693" class="blue line"/>
    <line x1="0.000" x2="419.528" y1="558.425" y2="558.425" class="blue line"/>
    <line x1="0.000" x2="419.528" y1="580.158" y2="580.158" class="blue line"/>
  </g>
  <g id="grid-1">
    <line x1="14.173" x2="14.173" y1="0.390" y2="594.886" class="blue dot" stroke-dasharray="0.490 3.132" stroke-dashoffset="0.005"/>
    <line x1="35.906" x2="35.906" y1="0.390" y2="594.886" class="blue dot" stroke-dasharray="0.490 3.132" stroke-dashoffset="0.005"/>
    <line x1="57.638" x2="57.638" y1="0.390" y2="594.886" class="blue dot" stroke-dasharray="0.490 3.132" stroke-dashoffset="0.005"/>
    <line x1="79.370" x2="79.370" y1="0.390" y2="594.886" class="blue dot" stroke-dasharray="0.490 3.132" stroke-dashoffset="0.005"/>
    <line x1="101.103" x2="101.103" y1="0.390" y2="594.886" class="blue dot" stroke-dasharray="0.490 3.132" stroke-dashoffset="0.005"/>
    <line x1="122.835" x2="122.835" y1="0.390" y2="594.886" class="blue dot" stroke-dasharray="0.490 3.132" stroke-dashoffset="0.005"/>
    <line x1="144.567" x2="144.567" y1="0.390" y2="594.886" class="blue dot" stroke-dasharray="0.490 3.132" stroke-dashoffset="0.005"/>
    <line x1="166.299" x2="166.299" y1="0.390" y2="594.886" class="blue dot" stroke-dasharray="0.490 3.132" stroke-dashoffset="0.005"/>
    <line x1="188.032" x2="188.032" y1="0.390" y2="594.886" class="blue dot" stroke-dasharray="0.490 3.132" stroke-dashoffset="0.005"/>
    <line x1="209.764" x2="209.764" y1="0.390" y2="594.886" class="blue dot" stroke-dasharray="0.490 3.132" stroke-dashoffset="0.005"/>
    <line x1="231.496" x2="231.496" y1="0.390" y2="594.886" class="blue dot" stroke-dasharray="0.490 3.132" stroke-dashoffset="0.005"/>
    <line x1="253.229" x2="253.229" y1="0.390" y2="594.886" class="blue dot" stroke-dasharray="0.490 3.132" stroke-dashoffset="0.005"/>
    <line x1="274.961" x2="274.961" y1="0.390" y2="594.886" class="blue dot" stroke-dasharray="0.490 3.132" stroke-dashoffset="0.005"/>
    <line x1="296.693" x2="296.693" y1="0.390" y2="594.886" class="blue dot" stroke-dasharray="0.490 3.132" stroke-dashoffset="0.005"/>
    <line x1="318.425" x2="318.425" y1="0.390" y2="594.886" class="blue dot" stroke-dasharray="0.490 3.132" stroke-dashoffset="0.005"/>
    <line x1="340.158" x2="340.158" y1="0.390" y2="594.886" class="blue dot" stroke-dasharray="0.490 3.132" stroke-dashoffset="0.005"/>
    <line x1="361.890" x2="361.890" y1="0.390" y2="594.886" class="blue dot" stroke-dasharray="0.490 3.132" stroke-dashoffset="0.005"/>
    <line x1="383.622" x2="383.622" y1="0.390" y2="594.886" class="blue dot" stroke-dasharray="0.490 3.132" stroke-dashoffset="0.005"/>
    <line x1="405.355" x2="405.355" y1="0.390" y2="594.886" class="blue dot" stroke-dasharray="0.490 3.132" stroke-dashoffset="0.005"/>
  </g>
  <g id="grid-2">
    <line x1="1.515" x2="418.013" y1="0.630" y2="0.630" class="blue dot" stroke-dasharray="0.490 2.615" stroke-dashoffset="0.005"/>
    <line x1="1.515" x2="418.013" y1="22.362" y2="22.362" class="blue dot" stroke-dasharray="0.490 2.615" stroke-dashoffset="0.005"/>
    <line x1="1.515" x2="418.013" y1="44.095" y2="44.095" class="blue dot" stroke-dasharray="0.490 2.615" stroke-dashoffset="0.005"/>
    <line x1="1.515" x2="418.013" y1="65.827" y2="65.827" class="blue dot" stroke-dasharray="0.490 2.615" stroke-dashoffset="0.005"/>
    <line x1="1.515" x2="418.013" y1="87.559" y2="87.559" class="blue dot" stroke-dasharray="0.490 2.615" stroke-dashoffset="0.005"/>
    <line x1="1.515" x2="418.013" y1="109.292" y2="109.292" class="blue dot" stroke-dasharray="0.490 2.615" stroke-dashoffset="0.005"/>
    <line x1="1.515" x2="418.013" y1="131.024" y2="131.024" class="blue dot" stroke-dasharray="0.490 2.615" stroke-dashoffset="0.005"/>
    <line x1="1.515" x2="418.013" y1="152.756" y2="152.756" class="blue dot" stroke-dasharray="0.490 2.615" stroke-dashoffset="0.005"/>
    <line x1="1.515" x2="418.013" y1="174.488" y2="174.488" class="blue dot" stroke-dasharray="0.490 2.615" stroke-dashoffset="0.005"/>
    <line x1="1.515" x2="418.013" y1="196.221" y2="196.221" class="blue dot" stroke-dasharray="0.490 2.615" stroke-dashoffset="0.005"/>
    <line x1="1.515" x2="418.013" y1="217.953" y2="217.953" class="blue dot" stroke-dasharray="0.490 2.615" stroke-dashoffset="0.005"/>
    <line x1="1.515" x2="418.013" y1="239.685" y2="239.685" class="blue dot" stroke-dasharray="0.490 2.615" stroke-dashoffset="0.005"/>
    <line x1="1.515" x2="418.013" y1="261.418" y2="261.418" class="blue dot" stroke-dasharray="0.490 2.615" stroke-dashoffset="0.005"/>
    <line x1="1.515" x2="418.013" y1="283.150" y2="283.150" class="blue dot" stroke-dasharray="0.490 2.615" stroke-dashoffset="0.005"/>
    <line x1="1.515" x2="418.013" y1="304.882" y2="304.882" class="blue dot" stroke-dasharray="0.490 2.615" stroke-dashoffset="0.005"/>
    <line x1="1.515" x2="418.013" y1="326.614" y2="326.614" class="blue dot" stroke-dasharray="0.490 2.615" stroke-dashoffset="0.005"/>
    <line x1="1.515" x2="418.013" y1="348.347" y2="348.347" class="blue dot" stroke-dasharray="0.490 2.615" stroke-dashoffset="0.005"/>
    <line x1="1.515" x2="418.013" y1="370.079" y2="370.079" class="blue dot" stroke-dasharray="0.490 2.615" stroke-dashoffset="0.005"/>
    <line x1="1.515" x2="418.013" y1="391.811" y2="391.811" class="blue dot" stroke-dasharray="0.490 2.615" stroke-dashoffset="0.005"/>
    <line x1="1.515" x2="418.013" y1="413.544" y2="413.544" class="blue dot" stroke-dasharray="0.490 2.615" stroke-dashoffset="0.005"/>
    <line x1="1.515" x2="418.013" y1="435.276" y2="435.276" class="blue dot" stroke-dasharray="0.490 2.615" stroke-dashoffset="0.005"/>
    <line x1="1.515" x2="418.013" y1="457.008" y2="457.008" class="blue dot" stroke-dasharray="0.490 2.615" stroke-dashoffset="0.005"/>
    <line x1="1.515" x2="418.013" y1="478.740" y2="478.740" class="blue dot" stroke-dasharray="0.490 2.615" stroke-dashoffset="0.005"/>
    <line x1="1.515" x2="418.013" y1="500.473" y2="500.473" class="blue dot" stroke-dasharray="0.490 2.615" stroke-dashoffset="0.005"/>
    <line x1="1.515" x2="418.013" y1="522.205" y2="522.205" class="blue dot" stroke-dasharray="0.490 2.615" stroke-dashoffset="0.005"/>
    <line x1="1.515" x2="418.013" y1="543.937" y2="543.937" class="blue dot" stroke-dasharray="0.490 2.615" stroke-dashoffset="0.005"/>
    <line x1="1.515" x2="418.013" y1="565.669" y2="565.669" class="blue dot" stroke-dasharray="0.490 2.615" stroke-dashoffset="0.005"/>
    <line x1="1.515" x2="418.013" y1="587.402" y2="587.402" class="blue dot" stroke-dasharray="0.490 2.615" stroke-dashoffset="0.005"/>
  </g>
  <g id="grid-3">
    <line x1="1.515" x2="418.013" y1="7.874" y2="7.874" class="blue dot" stroke-dasharray="0.490 2.615" stroke-dashoffset="0.005"/>
    <line x1="1.515" x2="418.013" y1="29.607" y2="29.607" class="blue dot" stroke-dasharray="0.490 2.615" stroke-dashoffset="0.005"/>
    <line x1="1.515" x2="418.013" y1="51.339" y2="51.339" class="blue dot" stroke-dasharray="0.490 2.615" stroke-dashoffset="0.005"/>
    <line x1="1.515" x2="418.013" y1="73.071" y2="73.071" class="blue dot" stroke-dasharray="0.490 2.615" stroke-dashoffset="0.005"/>
    <line x1="1.515" x2="418.013" y1="94.803" y2="94.803" class="blue dot" stroke-dasharray="0.490 2.615" stroke-dashoffset="0.005"/>
    <line x1="1.515" x2="418.013" y1="116.536" y2="116.536" class="blue dot" stroke-dasharray="0.490 2.615" stroke-dashoffset="0.005"/>
    <line x1="1.515" x2="418.013" y1="138.268" y2="138.268" class="blue dot" stroke-dasharray="0.490 2.615" stroke-dashoffset="0.005"/>
    <line x1="1.515" x2="418.013" y1="160.000" y2="160.000" class="blue dot" stroke-dasharray="0.490 2.615" stroke-dashoffset="0.005"/>
    <line x1="1.515" x2="418.013" y1="181.732" y2="181.732" class="blue dot" stroke-dasharray="0.490 2.615" stroke-dashoffset="0.005"/>
    <line x1="1.515" x2="418.013" y1="203.465" y2="203.465" class="blue dot" stroke-dasharray="0.490 2.615" stroke-dashoffset="0.005"/>
    <line x1="1.515" x2="418.013" y1="225.197" y2="225.197" class="blue dot" stroke-dasharray="0.490 2.615" stroke-dashoffset="0.005"/>
    <line x1="1.515" x2="418.013" y1="246.929" y2="246.929" class="blue dot" stroke-dasharray="0.490 2.615" stroke-dashoffset="0.005"/>
    <line x1="1.515" x2="418.013" y1="268.662" y2="268.662" class="blue dot" stroke-dasharray="0.490 2.615" stroke-dashoffset="0.005"/>
    <line x1="1.515" x2="418.013" y1="290.394" y2="290.394" class="blue dot" stroke-dasharray="0.490 2.615" stroke-dashoffset="0.005"/>
    <line x1="1.515" x2="418.013" y1="312.126" y2="312.126" class="blue dot" stroke-dasharray="0.490 2.615" stroke-dashoffset="0.005"/>
    <line x1="1.515" x2="418.013" y1="333.858" y2="333.858" class="blue dot" stroke-dasharray="0.490 2.615" stroke-dashoffset="0.005"/>
    <line x1="1.515" x2="418.013" y1="355.591" y2="355.591" class="blue dot" stroke-dasharray="0.490 2.615" stroke-dashoffset="0.005"/>
    <line x1="1.515" x2="418.013" y1="377.323" y2="377.323" class="blue dot" stroke-dasharray="0.490 2.615" stroke-dashoffset="0.005"/>
    <line x1="1.515" x2="418.013" y1="399.055" y2="399.055" class="blue dot" stroke-dasharray="0.490 2.615" stroke-dashoffset="0.005"/>
    <line x1="1.515" x2="418.013" y1="420.788" y2="420.788" class="blue dot" stroke-dasharray="0.490 2.615" stroke-dashoffset="0.005"/>
    <line x1="1.515" x2="418.013" y1="442.520" y2="442.520" class="blue dot" stroke-dasharray="0.490 2.615" stroke-dashoffset="0.005"/>
    <line x1="1.515" x2="418.013" y1="464.252" y2="464.252" class="blue dot" stroke-dasharray="0.490 2.615" stroke-dashoffset="0.005"/>
    <line x1="1.515" x2="418.013" y1="485.984" y2="485.984" class="blue dot" stroke-dasharray="0.490 2.615" stroke-dashoffset="0.005"/>
    <line x1="1.515" x2="418.013" y1="507.717" y2="507.717" class="blue dot" stroke-dasharray="0.490 2.615" stroke-dashoffset="0.005"/>
    <line x1="1.515" x2="418.013" y1="529.449" y2="529.449" class="blue dot" stroke-dasharray="0.490 2.615" stroke-dashoffset="0.005"/>
    <line x1="1.515" x2="418.013" y1="551.181" y2="551.181" class="blue dot" stroke-dasharray="0.490 2.615" stroke-dashoffset="0.005"/>
    <line x1="1.515" x2="418.013" y1="572.914" y2="572.914" class="blue dot" stroke-dasharray="0.490 2.615" stroke-dashoffset="0.005"/>
    <line x1="1.515" x2="418.013" y1="594.646" y2="594.646" class="blue dot" stroke-dasharray="0.490 2.615" stroke-dashoffset="0.005"/>
  </g>
  <g id="grid-4">
    <line x1="14.173" x2="14.173" y1="14.638" y2="580.638" class="blue dot" stroke-dasharray="0.970 20.762" stroke-dashoffset="0.005"/>
    <line x1="35.906" x2="35.906" y1="14.638" y2="580.638" class="blue dot" stroke-dasharray="0.970 20.762" stroke-dashoffset="0.005"/>
    <line x1="57.638" x2="57.638" y1="14.638" y2="580.638" class="blue dot" stroke-dasharray="0.970 20.762" stroke-dashoffset="0.005"/>
    <line x1="79.370" x2="79.370" y1="14.638" y2="580.638" class="blue dot" stroke-dasharray="0.970 20.762" stroke-dashoffset="0.005"/>
    <line x1="101.103" x2="101.103" y1="14.638" y2="580.638" class="blue dot" stroke-dasharray="0.970 20.762" stroke-dashoffset="0.005"/>
    <line x1="122.835" x2="122.835" y1="14.638" y2="580.638" class="blue dot" stroke-dasharray="0.970 20.762" stroke-dashoffset="0.005"/>
    <line x1="144.567" x2="144.567" y1="14.638" y2="580.638" class="blue dot" stroke-dasharray="0.970 20.762" stroke-dashoffset="0.005"/>
    <line x1="166.299" x2="166.299" y1="14.638" y2="580.638" class="blue dot" stroke-dasharray="0.970 20.762" stroke-dashoffset="0.005"/>
    <line x1="188.032" x2="188.032" y1="14.638" y2="580.638" class="blue dot" stroke-dasharray="0.970 20.762" stroke-dashoffset="0.005"/>
    <line x1="209.764" x2="209.764" y1="14.638" y2="580.638" class="blue dot" stroke-dasharray="0.970 20.762" stroke-dashoffset="0.005"/>
    <line x1="231.496" x2="231.496" y1="14.638" y2="580.638" class="blue dot" stroke-dasharray="0.970 20.762" stroke-dashoffset="0.005"/>
    <line x1="253.229" x2="253.229" y1="14.638" y2="580.638" class="blue dot" stroke-dasharray="0.970 20.762" stroke-dashoffset="0.005"/>
    <line x1="274.961" x2="274.961" y1="14.638" y2="580.638" class="blue dot" stroke-dasharray="0.970 20.762" stroke-dashoffset="0.005"/>
    <line x1="296.693" x2="296.693" y1="14.638" y2="580.638" class="blue dot" stroke-dasharray="0.970 20.762" stroke-dashoffset="0.005"/>
    <line x1="318.425" x2="318.425" y1="14.638" y2="580.638" class="blue dot" stroke-dasharray="0.970 20.762" stroke-dashoffset="0.005"/>
    <line x1="340.158" x2="340.158" y1="14.638" y2="580.638" class="blue dot" stroke-dasharray="0.970 20.762" stroke-dashoffset="0.005"/>
    <line x1="361.890" x2="361.890" y1="14.638" y2="580.638" class="blue dot" stroke-dasharray="0.970 20.762" stroke-dashoffset="0.005"/>
    <line x1="383.622" x2="383.622" y1="14.638" y2="580.638" class="blue dot" stroke-dasharray="0.970 20.762" stroke-dashoffset="0.005"/>
    <line x1="405.355" x2="405.355" y1="14.638" y2="580.638" class="blue dot" stroke-dasharray="0.970 20.762" stroke-dashoffset="0.005"/>
  </g>
  <rect x="115.264" y="569.276" width="189" height="12" fill="#ffffff" stroke="none" stroke-width="0px"/>
  <text x="209.764" y="577.276" text-anchor="middle" fill="#b3b3ff" stroke="none" stroke-width="0" style="font-family: &quot;Courier&quot;, &quot;Courier New&quot;, monospace; font-size: 6pt;">https://github.com/dse/printable-paper</text>
</svg>
