<?xml version="1.0" encoding="UTF-8"?>
<svg xmlns="http://www.w3.org/2000/svg" width="595.276pt" height="841.890pt" viewBox="0.000 0.000 595.276 841.890">
  <style>
        .line, .dot, .feint-line, .margin-line { stroke-linecap: round; }
        .stroke-linecap-butt { stroke-linecap: butt; }
        .rectangle { fill: rgb(255, 255, 255); }
        .blue  { stroke: rgb(179, 179, 255); }
        .red   { stroke: rgb(255, 158, 158); }
        .green { stroke: rgb( 90, 255,  90); }
        .gray  { stroke: rgb(187, 187, 187); }
        .thin-black { stroke: rgb(0, 0, 0); }
  </style>
  <style>
        .line        { stroke-width: 0.48px; opacity: 1; }
        .feint-line  { stroke-width: 0.678822509939086px; opacity: 1; }
        .dot         { stroke-width: 0.48px; opacity: 1; }
        .margin-line { stroke-width: 0.96px; opacity: 1; }
        line.dot {
            stroke-linecap: butt;
        }
  </style>
  <defs/>
  <g id="lines">
    <line x1="0.000" x2="595.276" y1="8.032" y2="8.032" class="blue line"/>
    <line x1="0.000" x2="595.276" y1="29.764" y2="29.764" class="blue line"/>
    <line x1="0.000" x2="595.276" y1="51.496" y2="51.496" class="blue line"/>
    <line x1="0.000" x2="595.276" y1="73.228" y2="73.228" class="blue line"/>
    <line x1="0.000" x2="595.276" y1="94.961" y2="94.961" class="blue line"/>
    <line x1="0.000" x2="595.276" y1="116.693" y2="116.693" class="blue line"/>
    <line x1="0.000" x2="595.276" y1="138.425" y2="138.425" class="blue line"/>
    <line x1="0.000" x2="595.276" y1="160.158" y2="160.158" class="blue line"/>
    <line x1="0.000" x2="595.276" y1="181.890" y2="181.890" class="blue line"/>
    <line x1="0.000" x2="595.276" y1="203.622" y2="203.622" class="blue line"/>
    <line x1="0.000" x2="595.276" y1="225.354" y2="225.354" class="blue line"/>
    <line x1="0.000" x2="595.276" y1="247.087" y2="247.087" class="blue line"/>
    <line x1="0.000" x2="595.276" y1="268.819" y2="268.819" class="blue line"/>
    <line x1="0.000" x2="595.276" y1="290.551" y2="290.551" class="blue line"/>
    <line x1="0.000" x2="595.276" y1="312.284" y2="312.284" class="blue line"/>
    <line x1="0.000" x2="595.276" y1="334.016" y2="334.016" class="blue line"/>
    <line x1="0.000" x2="595.276" y1="355.748" y2="355.748" class="blue line"/>
    <line x1="0.000" x2="595.276" y1="377.480" y2="377.480" class="blue line"/>
    <line x1="0.000" x2="595.276" y1="399.213" y2="399.213" class="blue line"/>
    <line x1="0.000" x2="595.276" y1="420.945" y2="420.945" class="blue line"/>
    <line x1="0.000" x2="595.276" y1="442.677" y2="442.677" class="blue line"/>
    <line x1="0.000" x2="595.276" y1="464.410" y2="464.410" class="blue line"/>
    <line x1="0.000" x2="595.276" y1="486.142" y2="486.142" class="blue line"/>
    <line x1="0.000" x2="595.276" y1="507.874" y2="507.874" class="blue line"/>
    <line x1="0.000" x2="595.276" y1="529.606" y2="529.606" class="blue line"/>
    <line x1="0.000" x2="595.276" y1="551.339" y2="551.339" class="blue line"/>
    <line x1="0.000" x2="595.276" y1="573.071" y2="573.071" class="blue line"/>
    <line x1="0.000" x2="595.276" y1="594.803" y2="594.803" class="blue line"/>
    <line x1="0.000" x2="595.276" y1="616.536" y2="616.536" class="blue line"/>
    <line x1="0.000" x2="595.276" y1="638.268" y2="638.268" class="blue line"/>
    <line x1="0.000" x2="595.276" y1="660.000" y2="660.000" class="blue line"/>
    <line x1="0.000" x2="595.276" y1="681.732" y2="681.732" class="blue line"/>
    <line x1="0.000" x2="595.276" y1="703.465" y2="703.465" class="blue line"/>
    <line x1="0.000" x2="595.276" y1="725.197" y2="725.197" class="blue line"/>
    <line x1="0.000" x2="595.276" y1="746.929" y2="746.929" class="blue line"/>
    <line x1="0.000" x2="595.276" y1="768.662" y2="768.662" class="blue line"/>
    <line x1="0.000" x2="595.276" y1="790.394" y2="790.394" class="blue line"/>
    <line x1="0.000" x2="595.276" y1="812.126" y2="812.126" class="blue line"/>
    <line x1="0.000" x2="595.276" y1="833.858" y2="833.858" class="blue line"/>
  </g>
  <g id="grid-1">
    <line x1="15.118" x2="15.118" y1="0.548" y2="841.342" class="blue dot" stroke-dasharray="0.490 3.132" stroke-dashoffset="0.005"/>
    <line x1="36.851" x2="36.851" y1="0.548" y2="841.342" class="blue dot" stroke-dasharray="0.490 3.132" stroke-dashoffset="0.005"/>
    <line x1="58.583" x2="58.583" y1="0.548" y2="841.342" class="blue dot" stroke-dasharray="0.490 3.132" stroke-dashoffset="0.005"/>
    <line x1="80.315" x2="80.315" y1="0.548" y2="841.342" class="blue dot" stroke-dasharray="0.490 3.132" stroke-dashoffset="0.005"/>
    <line x1="102.047" x2="102.047" y1="0.548" y2="841.342" class="blue dot" stroke-dasharray="0.490 3.132" stroke-dashoffset="0.005"/>
    <line x1="123.780" x2="123.780" y1="0.548" y2="841.342" class="blue dot" stroke-dasharray="0.490 3.132" stroke-dashoffset="0.005"/>
    <line x1="145.512" x2="145.512" y1="0.548" y2="841.342" class="blue dot" stroke-dasharray="0.490 3.132" stroke-dashoffset="0.005"/>
    <line x1="167.244" x2="167.244" y1="0.548" y2="841.342" class="blue dot" stroke-dasharray="0.490 3.132" stroke-dashoffset="0.005"/>
    <line x1="188.977" x2="188.977" y1="0.548" y2="841.342" class="blue dot" stroke-dasharray="0.490 3.132" stroke-dashoffset="0.005"/>
    <line x1="210.709" x2="210.709" y1="0.548" y2="841.342" class="blue dot" stroke-dasharray="0.490 3.132" stroke-dashoffset="0.005"/>
    <line x1="232.441" x2="232.441" y1="0.548" y2="841.342" class="blue dot" stroke-dasharray="0.490 3.132" stroke-dashoffset="0.005"/>
    <line x1="254.173" x2="254.173" y1="0.548" y2="841.342" class="blue dot" stroke-dasharray="0.490 3.132" stroke-dashoffset="0.005"/>
    <line x1="275.906" x2="275.906" y1="0.548" y2="841.342" class="blue dot" stroke-dasharray="0.490 3.132" stroke-dashoffset="0.005"/>
    <line x1="297.638" x2="297.638" y1="0.548" y2="841.342" class="blue dot" stroke-dasharray="0.490 3.132" stroke-dashoffset="0.005"/>
    <line x1="319.370" x2="319.370" y1="0.548" y2="841.342" class="blue dot" stroke-dasharray="0.490 3.132" stroke-dashoffset="0.005"/>
    <line x1="341.103" x2="341.103" y1="0.548" y2="841.342" class="blue dot" stroke-dasharray="0.490 3.132" stroke-dashoffset="0.005"/>
    <line x1="362.835" x2="362.835" y1="0.548" y2="841.342" class="blue dot" stroke-dasharray="0.490 3.132" stroke-dashoffset="0.005"/>
    <line x1="384.567" x2="384.567" y1="0.548" y2="841.342" class="blue dot" stroke-dasharray="0.490 3.132" stroke-dashoffset="0.005"/>
    <line x1="406.299" x2="406.299" y1="0.548" y2="841.342" class="blue dot" stroke-dasharray="0.490 3.132" stroke-dashoffset="0.005"/>
    <line x1="428.032" x2="428.032" y1="0.548" y2="841.342" class="blue dot" stroke-dasharray="0.490 3.132" stroke-dashoffset="0.005"/>
    <line x1="449.764" x2="449.764" y1="0.548" y2="841.342" class="blue dot" stroke-dasharray="0.490 3.132" stroke-dashoffset="0.005"/>
    <line x1="471.496" x2="471.496" y1="0.548" y2="841.342" class="blue dot" stroke-dasharray="0.490 3.132" stroke-dashoffset="0.005"/>
    <line x1="493.229" x2="493.229" y1="0.548" y2="841.342" class="blue dot" stroke-dasharray="0.490 3.132" stroke-dashoffset="0.005"/>
    <line x1="514.961" x2="514.961" y1="0.548" y2="841.342" class="blue dot" stroke-dasharray="0.490 3.132" stroke-dashoffset="0.005"/>
    <line x1="536.693" x2="536.693" y1="0.548" y2="841.342" class="blue dot" stroke-dasharray="0.490 3.132" stroke-dashoffset="0.005"/>
    <line x1="558.425" x2="558.425" y1="0.548" y2="841.342" class="blue dot" stroke-dasharray="0.490 3.132" stroke-dashoffset="0.005"/>
    <line x1="580.158" x2="580.158" y1="0.548" y2="841.342" class="blue dot" stroke-dasharray="0.490 3.132" stroke-dashoffset="0.005"/>
  </g>
  <g id="grid-2">
    <line x1="2.460" x2="592.816" y1="15.276" y2="15.276" class="blue dot" stroke-dasharray="0.490 2.615" stroke-dashoffset="0.005"/>
    <line x1="2.460" x2="592.816" y1="37.008" y2="37.008" class="blue dot" stroke-dasharray="0.490 2.615" stroke-dashoffset="0.005"/>
    <line x1="2.460" x2="592.816" y1="58.740" y2="58.740" class="blue dot" stroke-dasharray="0.490 2.615" stroke-dashoffset="0.005"/>
    <line x1="2.460" x2="592.816" y1="80.473" y2="80.473" class="blue dot" stroke-dasharray="0.490 2.615" stroke-dashoffset="0.005"/>
    <line x1="2.460" x2="592.816" y1="102.205" y2="102.205" class="blue dot" stroke-dasharray="0.490 2.615" stroke-dashoffset="0.005"/>
    <line x1="2.460" x2="592.816" y1="123.937" y2="123.937" class="blue dot" stroke-dasharray="0.490 2.615" stroke-dashoffset="0.005"/>
    <line x1="2.460" x2="592.816" y1="145.669" y2="145.669" class="blue dot" stroke-dasharray="0.490 2.615" stroke-dashoffset="0.005"/>
    <line x1="2.460" x2="592.816" y1="167.402" y2="167.402" class="blue dot" stroke-dasharray="0.490 2.615" stroke-dashoffset="0.005"/>
    <line x1="2.460" x2="592.816" y1="189.134" y2="189.134" class="blue dot" stroke-dasharray="0.490 2.615" stroke-dashoffset="0.005"/>
    <line x1="2.460" x2="592.816" y1="210.866" y2="210.866" class="blue dot" stroke-dasharray="0.490 2.615" stroke-dashoffset="0.005"/>
    <line x1="2.460" x2="592.816" y1="232.599" y2="232.599" class="blue dot" stroke-dasharray="0.490 2.615" stroke-dashoffset="0.005"/>
    <line x1="2.460" x2="592.816" y1="254.331" y2="254.331" class="blue dot" stroke-dasharray="0.490 2.615" stroke-dashoffset="0.005"/>
    <line x1="2.460" x2="592.816" y1="276.063" y2="276.063" class="blue dot" stroke-dasharray="0.490 2.615" stroke-dashoffset="0.005"/>
    <line x1="2.460" x2="592.816" y1="297.795" y2="297.795" class="blue dot" stroke-dasharray="0.490 2.615" stroke-dashoffset="0.005"/>
    <line x1="2.460" x2="592.816" y1="319.528" y2="319.528" class="blue dot" stroke-dasharray="0.490 2.615" stroke-dashoffset="0.005"/>
    <line x1="2.460" x2="592.816" y1="341.260" y2="341.260" class="blue dot" stroke-dasharray="0.490 2.615" stroke-dashoffset="0.005"/>
    <line x1="2.460" x2="592.816" y1="362.992" y2="362.992" class="blue dot" stroke-dasharray="0.490 2.615" stroke-dashoffset="0.005"/>
    <line x1="2.460" x2="592.816" y1="384.725" y2="384.725" class="blue dot" stroke-dasharray="0.490 2.615" stroke-dashoffset="0.005"/>
    <line x1="2.460" x2="592.816" y1="406.457" y2="406.457" class="blue dot" stroke-dasharray="0.490 2.615" stroke-dashoffset="0.005"/>
    <line x1="2.460" x2="592.816" y1="428.189" y2="428.189" class="blue dot" stroke-dasharray="0.490 2.615" stroke-dashoffset="0.005"/>
    <line x1="2.460" x2="592.816" y1="449.921" y2="449.921" class="blue dot" stroke-dasharray="0.490 2.615" stroke-dashoffset="0.005"/>
    <line x1="2.460" x2="592.816" y1="471.654" y2="471.654" class="blue dot" stroke-dasharray="0.490 2.615" stroke-dashoffset="0.005"/>
    <line x1="2.460" x2="592.816" y1="493.386" y2="493.386" class="blue dot" stroke-dasharray="0.490 2.615" stroke-dashoffset="0.005"/>
    <line x1="2.460" x2="592.816" y1="515.118" y2="515.118" class="blue dot" stroke-dasharray="0.490 2.615" stroke-dashoffset="0.005"/>
    <line x1="2.460" x2="592.816" y1="536.851" y2="536.851" class="blue dot" stroke-dasharray="0.490 2.615" stroke-dashoffset="0.005"/>
    <line x1="2.460" x2="592.816" y1="558.583" y2="558.583" class="blue dot" stroke-dasharray="0.490 2.615" stroke-dashoffset="0.005"/>
    <line x1="2.460" x2="592.816" y1="580.315" y2="580.315" class="blue dot" stroke-dasharray="0.490 2.615" stroke-dashoffset="0.005"/>
    <line x1="2.460" x2="592.816" y1="602.047" y2="602.047" class="blue dot" stroke-dasharray="0.490 2.615" stroke-dashoffset="0.005"/>
    <line x1="2.460" x2="592.816" y1="623.780" y2="623.780" class="blue dot" stroke-dasharray="0.490 2.615" stroke-dashoffset="0.005"/>
    <line x1="2.460" x2="592.816" y1="645.512" y2="645.512" class="blue dot" stroke-dasharray="0.490 2.615" stroke-dashoffset="0.005"/>
    <line x1="2.460" x2="592.816" y1="667.244" y2="667.244" class="blue dot" stroke-dasharray="0.490 2.615" stroke-dashoffset="0.005"/>
    <line x1="2.460" x2="592.816" y1="688.976" y2="688.976" class="blue dot" stroke-dasharray="0.490 2.615" stroke-dashoffset="0.005"/>
    <line x1="2.460" x2="592.816" y1="710.709" y2="710.709" class="blue dot" stroke-dasharray="0.490 2.615" stroke-dashoffset="0.005"/>
    <line x1="2.460" x2="592.816" y1="732.441" y2="732.441" class="blue dot" stroke-dasharray="0.490 2.615" stroke-dashoffset="0.005"/>
    <line x1="2.460" x2="592.816" y1="754.173" y2="754.173" class="blue dot" stroke-dasharray="0.490 2.615" stroke-dashoffset="0.005"/>
    <line x1="2.460" x2="592.816" y1="775.906" y2="775.906" class="blue dot" stroke-dasharray="0.490 2.615" stroke-dashoffset="0.005"/>
    <line x1="2.460" x2="592.816" y1="797.638" y2="797.638" class="blue dot" stroke-dasharray="0.490 2.615" stroke-dashoffset="0.005"/>
    <line x1="2.460" x2="592.816" y1="819.370" y2="819.370" class="blue dot" stroke-dasharray="0.490 2.615" stroke-dashoffset="0.005"/>
    <line x1="2.460" x2="592.816" y1="841.102" y2="841.102" class="blue dot" stroke-dasharray="0.490 2.615" stroke-dashoffset="0.005"/>
  </g>
  <g id="grid-3">
    <line x1="2.460" x2="592.816" y1="0.788" y2="0.788" class="blue dot" stroke-dasharray="0.490 2.615" stroke-dashoffset="0.005"/>
    <line x1="2.460" x2="592.816" y1="22.520" y2="22.520" class="blue dot" stroke-dasharray="0.490 2.615" stroke-dashoffset="0.005"/>
    <line x1="2.460" x2="592.816" y1="44.252" y2="44.252" class="blue dot" stroke-dasharray="0.490 2.615" stroke-dashoffset="0.005"/>
    <line x1="2.460" x2="592.816" y1="65.984" y2="65.984" class="blue dot" stroke-dasharray="0.490 2.615" stroke-dashoffset="0.005"/>
    <line x1="2.460" x2="592.816" y1="87.717" y2="87.717" class="blue dot" stroke-dasharray="0.490 2.615" stroke-dashoffset="0.005"/>
    <line x1="2.460" x2="592.816" y1="109.449" y2="109.449" class="blue dot" stroke-dasharray="0.490 2.615" stroke-dashoffset="0.005"/>
    <line x1="2.460" x2="592.816" y1="131.181" y2="131.181" class="blue dot" stroke-dasharray="0.490 2.615" stroke-dashoffset="0.005"/>
    <line x1="2.460" x2="592.816" y1="152.914" y2="152.914" class="blue dot" stroke-dasharray="0.490 2.615" stroke-dashoffset="0.005"/>
    <line x1="2.460" x2="592.816" y1="174.646" y2="174.646" class="blue dot" stroke-dasharray="0.490 2.615" stroke-dashoffset="0.005"/>
    <line x1="2.460" x2="592.816" y1="196.378" y2="196.378" class="blue dot" stroke-dasharray="0.490 2.615" stroke-dashoffset="0.005"/>
    <line x1="2.460" x2="592.816" y1="218.110" y2="218.110" class="blue dot" stroke-dasharray="0.490 2.615" stroke-dashoffset="0.005"/>
    <line x1="2.460" x2="592.816" y1="239.843" y2="239.843" class="blue dot" stroke-dasharray="0.490 2.615" stroke-dashoffset="0.005"/>
    <line x1="2.460" x2="592.816" y1="261.575" y2="261.575" class="blue dot" stroke-dasharray="0.490 2.615" stroke-dashoffset="0.005"/>
    <line x1="2.460" x2="592.816" y1="283.307" y2="283.307" class="blue dot" stroke-dasharray="0.490 2.615" stroke-dashoffset="0.005"/>
    <line x1="2.460" x2="592.816" y1="305.039" y2="305.039" class="blue dot" stroke-dasharray="0.490 2.615" stroke-dashoffset="0.005"/>
    <line x1="2.460" x2="592.816" y1="326.772" y2="326.772" class="blue dot" stroke-dasharray="0.490 2.615" stroke-dashoffset="0.005"/>
    <line x1="2.460" x2="592.816" y1="348.504" y2="348.504" class="blue dot" stroke-dasharray="0.490 2.615" stroke-dashoffset="0.005"/>
    <line x1="2.460" x2="592.816" y1="370.236" y2="370.236" class="blue dot" stroke-dasharray="0.490 2.615" stroke-dashoffset="0.005"/>
    <line x1="2.460" x2="592.816" y1="391.969" y2="391.969" class="blue dot" stroke-dasharray="0.490 2.615" stroke-dashoffset="0.005"/>
    <line x1="2.460" x2="592.816" y1="413.701" y2="413.701" class="blue dot" stroke-dasharray="0.490 2.615" stroke-dashoffset="0.005"/>
    <line x1="2.460" x2="592.816" y1="435.433" y2="435.433" class="blue dot" stroke-dasharray="0.490 2.615" stroke-dashoffset="0.005"/>
    <line x1="2.460" x2="592.816" y1="457.165" y2="457.165" class="blue dot" stroke-dasharray="0.490 2.615" stroke-dashoffset="0.005"/>
    <line x1="2.460" x2="592.816" y1="478.898" y2="478.898" class="blue dot" stroke-dasharray="0.490 2.615" stroke-dashoffset="0.005"/>
    <line x1="2.460" x2="592.816" y1="500.630" y2="500.630" class="blue dot" stroke-dasharray="0.490 2.615" stroke-dashoffset="0.005"/>
    <line x1="2.460" x2="592.816" y1="522.362" y2="522.362" class="blue dot" stroke-dasharray="0.490 2.615" stroke-dashoffset="0.005"/>
    <line x1="2.460" x2="592.816" y1="544.095" y2="544.095" class="blue dot" stroke-dasharray="0.490 2.615" stroke-dashoffset="0.005"/>
    <line x1="2.460" x2="592.816" y1="565.827" y2="565.827" class="blue dot" stroke-dasharray="0.490 2.615" stroke-dashoffset="0.005"/>
    <line x1="2.460" x2="592.816" y1="587.559" y2="587.559" class="blue dot" stroke-dasharray="0.490 2.615" stroke-dashoffset="0.005"/>
    <line x1="2.460" x2="592.816" y1="609.291" y2="609.291" class="blue dot" stroke-dasharray="0.490 2.615" stroke-dashoffset="0.005"/>
    <line x1="2.460" x2="592.816" y1="631.024" y2="631.024" class="blue dot" stroke-dasharray="0.490 2.615" stroke-dashoffset="0.005"/>
    <line x1="2.460" x2="592.816" y1="652.756" y2="652.756" class="blue dot" stroke-dasharray="0.490 2.615" stroke-dashoffset="0.005"/>
    <line x1="2.460" x2="592.816" y1="674.488" y2="674.488" class="blue dot" stroke-dasharray="0.490 2.615" stroke-dashoffset="0.005"/>
    <line x1="2.460" x2="592.816" y1="696.221" y2="696.221" class="blue dot" stroke-dasharray="0.490 2.615" stroke-dashoffset="0.005"/>
    <line x1="2.460" x2="592.816" y1="717.953" y2="717.953" class="blue dot" stroke-dasharray="0.490 2.615" stroke-dashoffset="0.005"/>
    <line x1="2.460" x2="592.816" y1="739.685" y2="739.685" class="blue dot" stroke-dasharray="0.490 2.615" stroke-dashoffset="0.005"/>
    <line x1="2.460" x2="592.816" y1="761.417" y2="761.417" class="blue dot" stroke-dasharray="0.490 2.615" stroke-dashoffset="0.005"/>
    <line x1="2.460" x2="592.816" y1="783.150" y2="783.150" class="blue dot" stroke-dasharray="0.490 2.615" stroke-dashoffset="0.005"/>
    <line x1="2.460" x2="592.816" y1="804.882" y2="804.882" class="blue dot" stroke-dasharray="0.490 2.615" stroke-dashoffset="0.005"/>
    <line x1="2.460" x2="592.816" y1="826.614" y2="826.614" class="blue dot" stroke-dasharray="0.490 2.615" stroke-dashoffset="0.005"/>
  </g>
  <g id="grid-4">
    <line x1="15.118" x2="15.118" y1="7.552" y2="834.338" class="blue dot" stroke-dasharray="0.970 20.762" stroke-dashoffset="0.005"/>
    <line x1="36.851" x2="36.851" y1="7.552" y2="834.338" class="blue dot" stroke-dasharray="0.970 20.762" stroke-dashoffset="0.005"/>
    <line x1="58.583" x2="58.583" y1="7.552" y2="834.338" class="blue dot" stroke-dasharray="0.970 20.762" stroke-dashoffset="0.005"/>
    <line x1="80.315" x2="80.315" y1="7.552" y2="834.338" class="blue dot" stroke-dasharray="0.970 20.762" stroke-dashoffset="0.005"/>
    <line x1="102.047" x2="102.047" y1="7.552" y2="834.338" class="blue dot" stroke-dasharray="0.970 20.762" stroke-dashoffset="0.005"/>
    <line x1="123.780" x2="123.780" y1="7.552" y2="834.338" class="blue dot" stroke-dasharray="0.970 20.762" stroke-dashoffset="0.005"/>
    <line x1="145.512" x2="145.512" y1="7.552" y2="834.338" class="blue dot" stroke-dasharray="0.970 20.762" stroke-dashoffset="0.005"/>
    <line x1="167.244" x2="167.244" y1="7.552" y2="834.338" class="blue dot" stroke-dasharray="0.970 20.762" stroke-dashoffset="0.005"/>
    <line x1="188.977" x2="188.977" y1="7.552" y2="834.338" class="blue dot" stroke-dasharray="0.970 20.762" stroke-dashoffset="0.005"/>
    <line x1="210.709" x2="210.709" y1="7.552" y2="834.338" class="blue dot" stroke-dasharray="0.970 20.762" stroke-dashoffset="0.005"/>
    <line x1="232.441" x2="232.441" y1="7.552" y2="834.338" class="blue dot" stroke-dasharray="0.970 20.762" stroke-dashoffset="0.005"/>
    <line x1="254.173" x2="254.173" y1="7.552" y2="834.338" class="blue dot" stroke-dasharray="0.970 20.762" stroke-dashoffset="0.005"/>
    <line x1="275.906" x2="275.906" y1="7.552" y2="834.338" class="blue dot" stroke-dasharray="0.970 20.762" stroke-dashoffset="0.005"/>
    <line x1="297.638" x2="297.638" y1="7.552" y2="834.338" class="blue dot" stroke-dasharray="0.970 20.762" stroke-dashoffset="0.005"/>
    <line x1="319.370" x2="319.370" y1="7.552" y2="834.338" class="blue dot" stroke-dasharray="0.970 20.762" stroke-dashoffset="0.005"/>
    <line x1="341.103" x2="341.103" y1="7.552" y2="834.338" class="blue dot" stroke-dasharray="0.970 20.762" stroke-dashoffset="0.005"/>
    <line x1="362.835" x2="362.835" y1="7.552" y2="834.338" class="blue dot" stroke-dasharray="0.970 20.762" stroke-dashoffset="0.005"/>
    <line x1="384.567" x2="384.567" y1="7.552" y2="834.338" class="blue dot" stroke-dasharray="0.970 20.762" stroke-dashoffset="0.005"/>
    <line x1="406.299" x2="406.299" y1="7.552" y2="834.338" class="blue dot" stroke-dasharray="0.970 20.762" stroke-dashoffset="0.005"/>
    <line x1="428.032" x2="428.032" y1="7.552" y2="834.338" class="blue dot" stroke-dasharray="0.970 20.762" stroke-dashoffset="0.005"/>
    <line x1="449.764" x2="449.764" y1="7.552" y2="834.338" class="blue dot" stroke-dasharray="0.970 20.762" stroke-dashoffset="0.005"/>
    <line x1="471.496" x2="471.496" y1="7.552" y2="834.338" class="blue dot" stroke-dasharray="0.970 20.762" stroke-dashoffset="0.005"/>
    <line x1="493.229" x2="493.229" y1="7.552" y2="834.338" class="blue dot" stroke-dasharray="0.970 20.762" stroke-dashoffset="0.005"/>
    <line x1="514.961" x2="514.961" y1="7.552" y2="834.338" class="blue dot" stroke-dasharray="0.970 20.762" stroke-dashoffset="0.005"/>
    <line x1="536.693" x2="536.693" y1="7.552" y2="834.338" class="blue dot" stroke-dasharray="0.970 20.762" stroke-dashoffset="0.005"/>
    <line x1="558.425" x2="558.425" y1="7.552" y2="834.338" class="blue dot" stroke-dasharray="0.970 20.762" stroke-dashoffset="0.005"/>
    <line x1="580.158" x2="580.158" y1="7.552" y2="834.338" class="blue dot" stroke-dasharray="0.970 20.762" stroke-dashoffset="0.005"/>
  </g>
  <rect x="203.138" y="815.89" width="189" height="12" fill="#ffffff" stroke="none" stroke-width="0px"/>
  <text x="297.638" y="823.89" text-anchor="middle" fill="#b3b3ff" stroke="none" stroke-width="0" style="font-family: &quot;Courier&quot;, &quot;Courier New&quot;, monospace; font-size: 6pt;">https://github.com/dse/printable-paper</text>
</svg>
