<?xml version="1.0" encoding="UTF-8"?>
<svg xmlns="http://www.w3.org/2000/svg" width="297.955pt" height="421.373pt" viewBox="0.000 0.000 297.955 421.373">
  <style>
        .line, .dot, .major-line, .feint-line, .margin-line { stroke-linecap: round; }
        .stroke-linecap-butt { stroke-linecap: butt; }
        .rectangle { fill: #ffffff; }


        .line        { stroke-width: 0.48px; opacity:  1; }
        .major-line  { stroke-width: 0.96px; opacity: 1; }
        .feint-line  { stroke-width: 0.48px; opacity:  1; }
        .dot         { stroke-width: 0.48px; opacity:  1; }
        .margin-line { stroke-width: 0.96px; opacity:  1; }
        .line        { stroke: #b3b3ff; }
        .major-line  { stroke: #b3b3ff; }
        .feint-line  { stroke: #b3b3ff; }
        .dot         { stroke: #b3b3ff; }
        .margin-line { stroke: #ff9e9e; }
        line.dot {
            stroke-linecap: butt;
        }
  </style>
  <defs/>
  <g id="lines">
    <line x1="0.000" x2="297.955" y1="6.592" y2="6.592" class="line"/>
    <line x1="0.000" x2="297.955" y1="23.600" y2="23.600" class="line"/>
    <line x1="0.000" x2="297.955" y1="40.608" y2="40.608" class="line"/>
    <line x1="0.000" x2="297.955" y1="57.615" y2="57.615" class="line"/>
    <line x1="0.000" x2="297.955" y1="74.623" y2="74.623" class="line"/>
    <line x1="0.000" x2="297.955" y1="91.631" y2="91.631" class="line"/>
    <line x1="0.000" x2="297.955" y1="108.639" y2="108.639" class="line"/>
    <line x1="0.000" x2="297.955" y1="125.647" y2="125.647" class="line"/>
    <line x1="0.000" x2="297.955" y1="142.655" y2="142.655" class="line"/>
    <line x1="0.000" x2="297.955" y1="159.663" y2="159.663" class="line"/>
    <line x1="0.000" x2="297.955" y1="176.671" y2="176.671" class="line"/>
    <line x1="0.000" x2="297.955" y1="193.678" y2="193.678" class="line"/>
    <line x1="0.000" x2="297.955" y1="210.686" y2="210.686" class="line"/>
    <line x1="0.000" x2="297.955" y1="227.694" y2="227.694" class="line"/>
    <line x1="0.000" x2="297.955" y1="244.702" y2="244.702" class="line"/>
    <line x1="0.000" x2="297.955" y1="261.710" y2="261.710" class="line"/>
    <line x1="0.000" x2="297.955" y1="278.718" y2="278.718" class="line"/>
    <line x1="0.000" x2="297.955" y1="295.726" y2="295.726" class="line"/>
    <line x1="0.000" x2="297.955" y1="312.734" y2="312.734" class="line"/>
    <line x1="0.000" x2="297.955" y1="329.741" y2="329.741" class="line"/>
    <line x1="0.000" x2="297.955" y1="346.749" y2="346.749" class="line"/>
    <line x1="0.000" x2="297.955" y1="363.757" y2="363.757" class="line"/>
    <line x1="0.000" x2="297.955" y1="380.765" y2="380.765" class="line"/>
    <line x1="0.000" x2="297.955" y1="397.773" y2="397.773" class="line"/>
    <line x1="0.000" x2="297.955" y1="414.781" y2="414.781" class="line"/>
  </g>
  <g id="grid-1">
    <line x1="12.915" x2="12.915" y1="0.683" y2="420.690" class="dot" stroke-dasharray="0.490 2.345" stroke-dashoffset="0.005"/>
    <line x1="29.923" x2="29.923" y1="0.683" y2="420.690" class="dot" stroke-dasharray="0.490 2.345" stroke-dashoffset="0.005"/>
    <line x1="46.930" x2="46.930" y1="0.683" y2="420.690" class="dot" stroke-dasharray="0.490 2.345" stroke-dashoffset="0.005"/>
    <line x1="63.938" x2="63.938" y1="0.683" y2="420.690" class="dot" stroke-dasharray="0.490 2.345" stroke-dashoffset="0.005"/>
    <line x1="80.946" x2="80.946" y1="0.683" y2="420.690" class="dot" stroke-dasharray="0.490 2.345" stroke-dashoffset="0.005"/>
    <line x1="97.954" x2="97.954" y1="0.683" y2="420.690" class="dot" stroke-dasharray="0.490 2.345" stroke-dashoffset="0.005"/>
    <line x1="114.962" x2="114.962" y1="0.683" y2="420.690" class="dot" stroke-dasharray="0.490 2.345" stroke-dashoffset="0.005"/>
    <line x1="131.970" x2="131.970" y1="0.683" y2="420.690" class="dot" stroke-dasharray="0.490 2.345" stroke-dashoffset="0.005"/>
    <line x1="148.978" x2="148.978" y1="0.683" y2="420.690" class="dot" stroke-dasharray="0.490 2.345" stroke-dashoffset="0.005"/>
    <line x1="165.986" x2="165.986" y1="0.683" y2="420.690" class="dot" stroke-dasharray="0.490 2.345" stroke-dashoffset="0.005"/>
    <line x1="182.993" x2="182.993" y1="0.683" y2="420.690" class="dot" stroke-dasharray="0.490 2.345" stroke-dashoffset="0.005"/>
    <line x1="200.001" x2="200.001" y1="0.683" y2="420.690" class="dot" stroke-dasharray="0.490 2.345" stroke-dashoffset="0.005"/>
    <line x1="217.009" x2="217.009" y1="0.683" y2="420.690" class="dot" stroke-dasharray="0.490 2.345" stroke-dashoffset="0.005"/>
    <line x1="234.017" x2="234.017" y1="0.683" y2="420.690" class="dot" stroke-dasharray="0.490 2.345" stroke-dashoffset="0.005"/>
    <line x1="251.025" x2="251.025" y1="0.683" y2="420.690" class="dot" stroke-dasharray="0.490 2.345" stroke-dashoffset="0.005"/>
    <line x1="268.033" x2="268.033" y1="0.683" y2="420.690" class="dot" stroke-dasharray="0.490 2.345" stroke-dashoffset="0.005"/>
    <line x1="285.041" x2="285.041" y1="0.683" y2="420.690" class="dot" stroke-dasharray="0.490 2.345" stroke-dashoffset="0.005"/>
  </g>
  <g id="grid-2">
    <line x1="0.526" x2="297.429" y1="12.261" y2="12.261" class="dot" stroke-dasharray="0.490 1.940" stroke-dashoffset="0.005"/>
    <line x1="0.526" x2="297.429" y1="29.269" y2="29.269" class="dot" stroke-dasharray="0.490 1.940" stroke-dashoffset="0.005"/>
    <line x1="0.526" x2="297.429" y1="46.277" y2="46.277" class="dot" stroke-dasharray="0.490 1.940" stroke-dashoffset="0.005"/>
    <line x1="0.526" x2="297.429" y1="63.285" y2="63.285" class="dot" stroke-dasharray="0.490 1.940" stroke-dashoffset="0.005"/>
    <line x1="0.526" x2="297.429" y1="80.293" y2="80.293" class="dot" stroke-dasharray="0.490 1.940" stroke-dashoffset="0.005"/>
    <line x1="0.526" x2="297.429" y1="97.300" y2="97.300" class="dot" stroke-dasharray="0.490 1.940" stroke-dashoffset="0.005"/>
    <line x1="0.526" x2="297.429" y1="114.308" y2="114.308" class="dot" stroke-dasharray="0.490 1.940" stroke-dashoffset="0.005"/>
    <line x1="0.526" x2="297.429" y1="131.316" y2="131.316" class="dot" stroke-dasharray="0.490 1.940" stroke-dashoffset="0.005"/>
    <line x1="0.526" x2="297.429" y1="148.324" y2="148.324" class="dot" stroke-dasharray="0.490 1.940" stroke-dashoffset="0.005"/>
    <line x1="0.526" x2="297.429" y1="165.332" y2="165.332" class="dot" stroke-dasharray="0.490 1.940" stroke-dashoffset="0.005"/>
    <line x1="0.526" x2="297.429" y1="182.340" y2="182.340" class="dot" stroke-dasharray="0.490 1.940" stroke-dashoffset="0.005"/>
    <line x1="0.526" x2="297.429" y1="199.348" y2="199.348" class="dot" stroke-dasharray="0.490 1.940" stroke-dashoffset="0.005"/>
    <line x1="0.526" x2="297.429" y1="216.356" y2="216.356" class="dot" stroke-dasharray="0.490 1.940" stroke-dashoffset="0.005"/>
    <line x1="0.526" x2="297.429" y1="233.363" y2="233.363" class="dot" stroke-dasharray="0.490 1.940" stroke-dashoffset="0.005"/>
    <line x1="0.526" x2="297.429" y1="250.371" y2="250.371" class="dot" stroke-dasharray="0.490 1.940" stroke-dashoffset="0.005"/>
    <line x1="0.526" x2="297.429" y1="267.379" y2="267.379" class="dot" stroke-dasharray="0.490 1.940" stroke-dashoffset="0.005"/>
    <line x1="0.526" x2="297.429" y1="284.387" y2="284.387" class="dot" stroke-dasharray="0.490 1.940" stroke-dashoffset="0.005"/>
    <line x1="0.526" x2="297.429" y1="301.395" y2="301.395" class="dot" stroke-dasharray="0.490 1.940" stroke-dashoffset="0.005"/>
    <line x1="0.526" x2="297.429" y1="318.403" y2="318.403" class="dot" stroke-dasharray="0.490 1.940" stroke-dashoffset="0.005"/>
    <line x1="0.526" x2="297.429" y1="335.411" y2="335.411" class="dot" stroke-dasharray="0.490 1.940" stroke-dashoffset="0.005"/>
    <line x1="0.526" x2="297.429" y1="352.419" y2="352.419" class="dot" stroke-dasharray="0.490 1.940" stroke-dashoffset="0.005"/>
    <line x1="0.526" x2="297.429" y1="369.426" y2="369.426" class="dot" stroke-dasharray="0.490 1.940" stroke-dashoffset="0.005"/>
    <line x1="0.526" x2="297.429" y1="386.434" y2="386.434" class="dot" stroke-dasharray="0.490 1.940" stroke-dashoffset="0.005"/>
    <line x1="0.526" x2="297.429" y1="403.442" y2="403.442" class="dot" stroke-dasharray="0.490 1.940" stroke-dashoffset="0.005"/>
    <line x1="0.526" x2="297.429" y1="420.450" y2="420.450" class="dot" stroke-dasharray="0.490 1.940" stroke-dashoffset="0.005"/>
  </g>
  <g id="grid-3">
    <line x1="0.526" x2="297.429" y1="0.923" y2="0.923" class="dot" stroke-dasharray="0.490 1.940" stroke-dashoffset="0.005"/>
    <line x1="0.526" x2="297.429" y1="17.930" y2="17.930" class="dot" stroke-dasharray="0.490 1.940" stroke-dashoffset="0.005"/>
    <line x1="0.526" x2="297.429" y1="34.938" y2="34.938" class="dot" stroke-dasharray="0.490 1.940" stroke-dashoffset="0.005"/>
    <line x1="0.526" x2="297.429" y1="51.946" y2="51.946" class="dot" stroke-dasharray="0.490 1.940" stroke-dashoffset="0.005"/>
    <line x1="0.526" x2="297.429" y1="68.954" y2="68.954" class="dot" stroke-dasharray="0.490 1.940" stroke-dashoffset="0.005"/>
    <line x1="0.526" x2="297.429" y1="85.962" y2="85.962" class="dot" stroke-dasharray="0.490 1.940" stroke-dashoffset="0.005"/>
    <line x1="0.526" x2="297.429" y1="102.970" y2="102.970" class="dot" stroke-dasharray="0.490 1.940" stroke-dashoffset="0.005"/>
    <line x1="0.526" x2="297.429" y1="119.978" y2="119.978" class="dot" stroke-dasharray="0.490 1.940" stroke-dashoffset="0.005"/>
    <line x1="0.526" x2="297.429" y1="136.986" y2="136.986" class="dot" stroke-dasharray="0.490 1.940" stroke-dashoffset="0.005"/>
    <line x1="0.526" x2="297.429" y1="153.993" y2="153.993" class="dot" stroke-dasharray="0.490 1.940" stroke-dashoffset="0.005"/>
    <line x1="0.526" x2="297.429" y1="171.001" y2="171.001" class="dot" stroke-dasharray="0.490 1.940" stroke-dashoffset="0.005"/>
    <line x1="0.526" x2="297.429" y1="188.009" y2="188.009" class="dot" stroke-dasharray="0.490 1.940" stroke-dashoffset="0.005"/>
    <line x1="0.526" x2="297.429" y1="205.017" y2="205.017" class="dot" stroke-dasharray="0.490 1.940" stroke-dashoffset="0.005"/>
    <line x1="0.526" x2="297.429" y1="222.025" y2="222.025" class="dot" stroke-dasharray="0.490 1.940" stroke-dashoffset="0.005"/>
    <line x1="0.526" x2="297.429" y1="239.033" y2="239.033" class="dot" stroke-dasharray="0.490 1.940" stroke-dashoffset="0.005"/>
    <line x1="0.526" x2="297.429" y1="256.041" y2="256.041" class="dot" stroke-dasharray="0.490 1.940" stroke-dashoffset="0.005"/>
    <line x1="0.526" x2="297.429" y1="273.049" y2="273.049" class="dot" stroke-dasharray="0.490 1.940" stroke-dashoffset="0.005"/>
    <line x1="0.526" x2="297.429" y1="290.056" y2="290.056" class="dot" stroke-dasharray="0.490 1.940" stroke-dashoffset="0.005"/>
    <line x1="0.526" x2="297.429" y1="307.064" y2="307.064" class="dot" stroke-dasharray="0.490 1.940" stroke-dashoffset="0.005"/>
    <line x1="0.526" x2="297.429" y1="324.072" y2="324.072" class="dot" stroke-dasharray="0.490 1.940" stroke-dashoffset="0.005"/>
    <line x1="0.526" x2="297.429" y1="341.080" y2="341.080" class="dot" stroke-dasharray="0.490 1.940" stroke-dashoffset="0.005"/>
    <line x1="0.526" x2="297.429" y1="358.088" y2="358.088" class="dot" stroke-dasharray="0.490 1.940" stroke-dashoffset="0.005"/>
    <line x1="0.526" x2="297.429" y1="375.096" y2="375.096" class="dot" stroke-dasharray="0.490 1.940" stroke-dashoffset="0.005"/>
    <line x1="0.526" x2="297.429" y1="392.104" y2="392.104" class="dot" stroke-dasharray="0.490 1.940" stroke-dashoffset="0.005"/>
    <line x1="0.526" x2="297.429" y1="409.111" y2="409.111" class="dot" stroke-dasharray="0.490 1.940" stroke-dashoffset="0.005"/>
  </g>
  <g id="grid-4">
    <line x1="12.915" x2="12.915" y1="6.112" y2="415.261" class="dot" stroke-dasharray="0.970 16.038" stroke-dashoffset="0.005"/>
    <line x1="29.923" x2="29.923" y1="6.112" y2="415.261" class="dot" stroke-dasharray="0.970 16.038" stroke-dashoffset="0.005"/>
    <line x1="46.930" x2="46.930" y1="6.112" y2="415.261" class="dot" stroke-dasharray="0.970 16.038" stroke-dashoffset="0.005"/>
    <line x1="63.938" x2="63.938" y1="6.112" y2="415.261" class="dot" stroke-dasharray="0.970 16.038" stroke-dashoffset="0.005"/>
    <line x1="80.946" x2="80.946" y1="6.112" y2="415.261" class="dot" stroke-dasharray="0.970 16.038" stroke-dashoffset="0.005"/>
    <line x1="97.954" x2="97.954" y1="6.112" y2="415.261" class="dot" stroke-dasharray="0.970 16.038" stroke-dashoffset="0.005"/>
    <line x1="114.962" x2="114.962" y1="6.112" y2="415.261" class="dot" stroke-dasharray="0.970 16.038" stroke-dashoffset="0.005"/>
    <line x1="131.970" x2="131.970" y1="6.112" y2="415.261" class="dot" stroke-dasharray="0.970 16.038" stroke-dashoffset="0.005"/>
    <line x1="148.978" x2="148.978" y1="6.112" y2="415.261" class="dot" stroke-dasharray="0.970 16.038" stroke-dashoffset="0.005"/>
    <line x1="165.986" x2="165.986" y1="6.112" y2="415.261" class="dot" stroke-dasharray="0.970 16.038" stroke-dashoffset="0.005"/>
    <line x1="182.993" x2="182.993" y1="6.112" y2="415.261" class="dot" stroke-dasharray="0.970 16.038" stroke-dashoffset="0.005"/>
    <line x1="200.001" x2="200.001" y1="6.112" y2="415.261" class="dot" stroke-dasharray="0.970 16.038" stroke-dashoffset="0.005"/>
    <line x1="217.009" x2="217.009" y1="6.112" y2="415.261" class="dot" stroke-dasharray="0.970 16.038" stroke-dashoffset="0.005"/>
    <line x1="234.017" x2="234.017" y1="6.112" y2="415.261" class="dot" stroke-dasharray="0.970 16.038" stroke-dashoffset="0.005"/>
    <line x1="251.025" x2="251.025" y1="6.112" y2="415.261" class="dot" stroke-dasharray="0.970 16.038" stroke-dashoffset="0.005"/>
    <line x1="268.033" x2="268.033" y1="6.112" y2="415.261" class="dot" stroke-dasharray="0.970 16.038" stroke-dashoffset="0.005"/>
    <line x1="285.041" x2="285.041" y1="6.112" y2="415.261" class="dot" stroke-dasharray="0.970 16.038" stroke-dashoffset="0.005"/>
  </g>
  <rect x="54.4777113638465" y="395.372599804113" width="189" height="12" fill="#ffffff" stroke="none" stroke-width="0px"/>
  <text x="148.977711363847" y="403.372599804113" text-anchor="middle" fill="#b3b3ff" stroke="none" stroke-width="0" style="font-family: &quot;Courier&quot;, &quot;Courier New&quot;, monospace; font-size: 6pt;">https://github.com/dse/printable-paper</text>
</svg>
