<?xml version="1.0" encoding="UTF-8"?>
<svg xmlns="http://www.w3.org/2000/svg" width="421.373pt" height="595.911pt" viewBox="0.000 0.000 421.373 595.911">
  <style>
        .line, .dot, .major-line, .feint-line, .margin-line { stroke-linecap: round; }
        .stroke-linecap-butt   { stroke-linecap: butt; }
        .stroke-linecap-round  { stroke-linecap: round; }
        .stroke-linecap-square { stroke-linecap: square; }
        .rectangle { fill: #ffffff; }


        .line        { stroke-width: 0.48px; opacity:  1; }
        .major-line  { stroke-width: 1.35764501987817px; opacity: 1; }
        .feint-line  { stroke-width: 0.678822509939086px; opacity:  1; }
        .dot         { stroke-width: 0.48px; opacity:  1; }
        .margin-line { stroke-width: 0.96px; opacity:  1; }
        .line        { stroke: #b3b3ff; }
        .major-line  { stroke: #b3b3ff; }
        .feint-line  { stroke: #b3b3ff; }
        .dot         { stroke: #b3b3ff; }
        .margin-line { stroke: #ff9e9e; }
        line.dot {
            stroke-linecap: butt;
        }
  </style>
  <defs/>
  <g id="lines">
    <line x1="0.000" x2="421.373" y1="15.436" y2="15.436" class="line"/>
    <line x1="0.000" x2="421.373" y1="37.168" y2="37.168" class="line"/>
    <line x1="0.000" x2="421.373" y1="58.900" y2="58.900" class="line"/>
    <line x1="0.000" x2="421.373" y1="80.633" y2="80.633" class="line"/>
    <line x1="0.000" x2="421.373" y1="102.365" y2="102.365" class="line"/>
    <line x1="0.000" x2="421.373" y1="124.097" y2="124.097" class="line"/>
    <line x1="0.000" x2="421.373" y1="145.829" y2="145.829" class="line"/>
    <line x1="0.000" x2="421.373" y1="167.562" y2="167.562" class="line"/>
    <line x1="0.000" x2="421.373" y1="189.294" y2="189.294" class="line"/>
    <line x1="0.000" x2="421.373" y1="211.026" y2="211.026" class="line"/>
    <line x1="0.000" x2="421.373" y1="232.759" y2="232.759" class="line"/>
    <line x1="0.000" x2="421.373" y1="254.491" y2="254.491" class="line"/>
    <line x1="0.000" x2="421.373" y1="276.223" y2="276.223" class="line"/>
    <line x1="0.000" x2="421.373" y1="297.955" y2="297.955" class="line"/>
    <line x1="0.000" x2="421.373" y1="319.688" y2="319.688" class="line"/>
    <line x1="0.000" x2="421.373" y1="341.420" y2="341.420" class="line"/>
    <line x1="0.000" x2="421.373" y1="363.152" y2="363.152" class="line"/>
    <line x1="0.000" x2="421.373" y1="384.885" y2="384.885" class="line"/>
    <line x1="0.000" x2="421.373" y1="406.617" y2="406.617" class="line"/>
    <line x1="0.000" x2="421.373" y1="428.349" y2="428.349" class="line"/>
    <line x1="0.000" x2="421.373" y1="450.081" y2="450.081" class="line"/>
    <line x1="0.000" x2="421.373" y1="471.814" y2="471.814" class="line"/>
    <line x1="0.000" x2="421.373" y1="493.546" y2="493.546" class="line"/>
    <line x1="0.000" x2="421.373" y1="515.278" y2="515.278" class="line"/>
    <line x1="0.000" x2="421.373" y1="537.011" y2="537.011" class="line"/>
    <line x1="0.000" x2="421.373" y1="558.743" y2="558.743" class="line"/>
    <line x1="0.000" x2="421.373" y1="580.475" y2="580.475" class="line"/>
  </g>
  <g id="grid-1">
    <line x1="15.096" x2="15.096" y1="0.708" y2="595.203" class="dot" stroke-dasharray="0.480 3.142" stroke-dashoffset="0.000"/>
    <line x1="36.828" x2="36.828" y1="0.708" y2="595.203" class="dot" stroke-dasharray="0.480 3.142" stroke-dashoffset="0.000"/>
    <line x1="58.560" x2="58.560" y1="0.708" y2="595.203" class="dot" stroke-dasharray="0.480 3.142" stroke-dashoffset="0.000"/>
    <line x1="80.293" x2="80.293" y1="0.708" y2="595.203" class="dot" stroke-dasharray="0.480 3.142" stroke-dashoffset="0.000"/>
    <line x1="102.025" x2="102.025" y1="0.708" y2="595.203" class="dot" stroke-dasharray="0.480 3.142" stroke-dashoffset="0.000"/>
    <line x1="123.757" x2="123.757" y1="0.708" y2="595.203" class="dot" stroke-dasharray="0.480 3.142" stroke-dashoffset="0.000"/>
    <line x1="145.489" x2="145.489" y1="0.708" y2="595.203" class="dot" stroke-dasharray="0.480 3.142" stroke-dashoffset="0.000"/>
    <line x1="167.222" x2="167.222" y1="0.708" y2="595.203" class="dot" stroke-dasharray="0.480 3.142" stroke-dashoffset="0.000"/>
    <line x1="188.954" x2="188.954" y1="0.708" y2="595.203" class="dot" stroke-dasharray="0.480 3.142" stroke-dashoffset="0.000"/>
    <line x1="210.686" x2="210.686" y1="0.708" y2="595.203" class="dot" stroke-dasharray="0.480 3.142" stroke-dashoffset="0.000"/>
    <line x1="232.419" x2="232.419" y1="0.708" y2="595.203" class="dot" stroke-dasharray="0.480 3.142" stroke-dashoffset="0.000"/>
    <line x1="254.151" x2="254.151" y1="0.708" y2="595.203" class="dot" stroke-dasharray="0.480 3.142" stroke-dashoffset="0.000"/>
    <line x1="275.883" x2="275.883" y1="0.708" y2="595.203" class="dot" stroke-dasharray="0.480 3.142" stroke-dashoffset="0.000"/>
    <line x1="297.615" x2="297.615" y1="0.708" y2="595.203" class="dot" stroke-dasharray="0.480 3.142" stroke-dashoffset="0.000"/>
    <line x1="319.348" x2="319.348" y1="0.708" y2="595.203" class="dot" stroke-dasharray="0.480 3.142" stroke-dashoffset="0.000"/>
    <line x1="341.080" x2="341.080" y1="0.708" y2="595.203" class="dot" stroke-dasharray="0.480 3.142" stroke-dashoffset="0.000"/>
    <line x1="362.812" x2="362.812" y1="0.708" y2="595.203" class="dot" stroke-dasharray="0.480 3.142" stroke-dashoffset="0.000"/>
    <line x1="384.545" x2="384.545" y1="0.708" y2="595.203" class="dot" stroke-dasharray="0.480 3.142" stroke-dashoffset="0.000"/>
    <line x1="406.277" x2="406.277" y1="0.708" y2="595.203" class="dot" stroke-dasharray="0.480 3.142" stroke-dashoffset="0.000"/>
  </g>
  <g id="grid-2">
    <line x1="2.437" x2="418.935" y1="0.948" y2="0.948" class="dot" stroke-dasharray="0.480 2.625" stroke-dashoffset="0.000"/>
    <line x1="2.437" x2="418.935" y1="22.680" y2="22.680" class="dot" stroke-dasharray="0.480 2.625" stroke-dashoffset="0.000"/>
    <line x1="2.437" x2="418.935" y1="44.412" y2="44.412" class="dot" stroke-dasharray="0.480 2.625" stroke-dashoffset="0.000"/>
    <line x1="2.437" x2="418.935" y1="66.144" y2="66.144" class="dot" stroke-dasharray="0.480 2.625" stroke-dashoffset="0.000"/>
    <line x1="2.437" x2="418.935" y1="87.877" y2="87.877" class="dot" stroke-dasharray="0.480 2.625" stroke-dashoffset="0.000"/>
    <line x1="2.437" x2="418.935" y1="109.609" y2="109.609" class="dot" stroke-dasharray="0.480 2.625" stroke-dashoffset="0.000"/>
    <line x1="2.437" x2="418.935" y1="131.341" y2="131.341" class="dot" stroke-dasharray="0.480 2.625" stroke-dashoffset="0.000"/>
    <line x1="2.437" x2="418.935" y1="153.074" y2="153.074" class="dot" stroke-dasharray="0.480 2.625" stroke-dashoffset="0.000"/>
    <line x1="2.437" x2="418.935" y1="174.806" y2="174.806" class="dot" stroke-dasharray="0.480 2.625" stroke-dashoffset="0.000"/>
    <line x1="2.437" x2="418.935" y1="196.538" y2="196.538" class="dot" stroke-dasharray="0.480 2.625" stroke-dashoffset="0.000"/>
    <line x1="2.437" x2="418.935" y1="218.270" y2="218.270" class="dot" stroke-dasharray="0.480 2.625" stroke-dashoffset="0.000"/>
    <line x1="2.437" x2="418.935" y1="240.003" y2="240.003" class="dot" stroke-dasharray="0.480 2.625" stroke-dashoffset="0.000"/>
    <line x1="2.437" x2="418.935" y1="261.735" y2="261.735" class="dot" stroke-dasharray="0.480 2.625" stroke-dashoffset="0.000"/>
    <line x1="2.437" x2="418.935" y1="283.467" y2="283.467" class="dot" stroke-dasharray="0.480 2.625" stroke-dashoffset="0.000"/>
    <line x1="2.437" x2="418.935" y1="305.200" y2="305.200" class="dot" stroke-dasharray="0.480 2.625" stroke-dashoffset="0.000"/>
    <line x1="2.437" x2="418.935" y1="326.932" y2="326.932" class="dot" stroke-dasharray="0.480 2.625" stroke-dashoffset="0.000"/>
    <line x1="2.437" x2="418.935" y1="348.664" y2="348.664" class="dot" stroke-dasharray="0.480 2.625" stroke-dashoffset="0.000"/>
    <line x1="2.437" x2="418.935" y1="370.396" y2="370.396" class="dot" stroke-dasharray="0.480 2.625" stroke-dashoffset="0.000"/>
    <line x1="2.437" x2="418.935" y1="392.129" y2="392.129" class="dot" stroke-dasharray="0.480 2.625" stroke-dashoffset="0.000"/>
    <line x1="2.437" x2="418.935" y1="413.861" y2="413.861" class="dot" stroke-dasharray="0.480 2.625" stroke-dashoffset="0.000"/>
    <line x1="2.437" x2="418.935" y1="435.593" y2="435.593" class="dot" stroke-dasharray="0.480 2.625" stroke-dashoffset="0.000"/>
    <line x1="2.437" x2="418.935" y1="457.326" y2="457.326" class="dot" stroke-dasharray="0.480 2.625" stroke-dashoffset="0.000"/>
    <line x1="2.437" x2="418.935" y1="479.058" y2="479.058" class="dot" stroke-dasharray="0.480 2.625" stroke-dashoffset="0.000"/>
    <line x1="2.437" x2="418.935" y1="500.790" y2="500.790" class="dot" stroke-dasharray="0.480 2.625" stroke-dashoffset="0.000"/>
    <line x1="2.437" x2="418.935" y1="522.522" y2="522.522" class="dot" stroke-dasharray="0.480 2.625" stroke-dashoffset="0.000"/>
    <line x1="2.437" x2="418.935" y1="544.255" y2="544.255" class="dot" stroke-dasharray="0.480 2.625" stroke-dashoffset="0.000"/>
    <line x1="2.437" x2="418.935" y1="565.987" y2="565.987" class="dot" stroke-dasharray="0.480 2.625" stroke-dashoffset="0.000"/>
    <line x1="2.437" x2="418.935" y1="587.719" y2="587.719" class="dot" stroke-dasharray="0.480 2.625" stroke-dashoffset="0.000"/>
  </g>
  <g id="grid-3">
    <line x1="2.437" x2="418.935" y1="8.192" y2="8.192" class="dot" stroke-dasharray="0.480 2.625" stroke-dashoffset="0.000"/>
    <line x1="2.437" x2="418.935" y1="29.924" y2="29.924" class="dot" stroke-dasharray="0.480 2.625" stroke-dashoffset="0.000"/>
    <line x1="2.437" x2="418.935" y1="51.656" y2="51.656" class="dot" stroke-dasharray="0.480 2.625" stroke-dashoffset="0.000"/>
    <line x1="2.437" x2="418.935" y1="73.388" y2="73.388" class="dot" stroke-dasharray="0.480 2.625" stroke-dashoffset="0.000"/>
    <line x1="2.437" x2="418.935" y1="95.121" y2="95.121" class="dot" stroke-dasharray="0.480 2.625" stroke-dashoffset="0.000"/>
    <line x1="2.437" x2="418.935" y1="116.853" y2="116.853" class="dot" stroke-dasharray="0.480 2.625" stroke-dashoffset="0.000"/>
    <line x1="2.437" x2="418.935" y1="138.585" y2="138.585" class="dot" stroke-dasharray="0.480 2.625" stroke-dashoffset="0.000"/>
    <line x1="2.437" x2="418.935" y1="160.318" y2="160.318" class="dot" stroke-dasharray="0.480 2.625" stroke-dashoffset="0.000"/>
    <line x1="2.437" x2="418.935" y1="182.050" y2="182.050" class="dot" stroke-dasharray="0.480 2.625" stroke-dashoffset="0.000"/>
    <line x1="2.437" x2="418.935" y1="203.782" y2="203.782" class="dot" stroke-dasharray="0.480 2.625" stroke-dashoffset="0.000"/>
    <line x1="2.437" x2="418.935" y1="225.514" y2="225.514" class="dot" stroke-dasharray="0.480 2.625" stroke-dashoffset="0.000"/>
    <line x1="2.437" x2="418.935" y1="247.247" y2="247.247" class="dot" stroke-dasharray="0.480 2.625" stroke-dashoffset="0.000"/>
    <line x1="2.437" x2="418.935" y1="268.979" y2="268.979" class="dot" stroke-dasharray="0.480 2.625" stroke-dashoffset="0.000"/>
    <line x1="2.437" x2="418.935" y1="290.711" y2="290.711" class="dot" stroke-dasharray="0.480 2.625" stroke-dashoffset="0.000"/>
    <line x1="2.437" x2="418.935" y1="312.444" y2="312.444" class="dot" stroke-dasharray="0.480 2.625" stroke-dashoffset="0.000"/>
    <line x1="2.437" x2="418.935" y1="334.176" y2="334.176" class="dot" stroke-dasharray="0.480 2.625" stroke-dashoffset="0.000"/>
    <line x1="2.437" x2="418.935" y1="355.908" y2="355.908" class="dot" stroke-dasharray="0.480 2.625" stroke-dashoffset="0.000"/>
    <line x1="2.437" x2="418.935" y1="377.640" y2="377.640" class="dot" stroke-dasharray="0.480 2.625" stroke-dashoffset="0.000"/>
    <line x1="2.437" x2="418.935" y1="399.373" y2="399.373" class="dot" stroke-dasharray="0.480 2.625" stroke-dashoffset="0.000"/>
    <line x1="2.437" x2="418.935" y1="421.105" y2="421.105" class="dot" stroke-dasharray="0.480 2.625" stroke-dashoffset="0.000"/>
    <line x1="2.437" x2="418.935" y1="442.837" y2="442.837" class="dot" stroke-dasharray="0.480 2.625" stroke-dashoffset="0.000"/>
    <line x1="2.437" x2="418.935" y1="464.570" y2="464.570" class="dot" stroke-dasharray="0.480 2.625" stroke-dashoffset="0.000"/>
    <line x1="2.437" x2="418.935" y1="486.302" y2="486.302" class="dot" stroke-dasharray="0.480 2.625" stroke-dashoffset="0.000"/>
    <line x1="2.437" x2="418.935" y1="508.034" y2="508.034" class="dot" stroke-dasharray="0.480 2.625" stroke-dashoffset="0.000"/>
    <line x1="2.437" x2="418.935" y1="529.766" y2="529.766" class="dot" stroke-dasharray="0.480 2.625" stroke-dashoffset="0.000"/>
    <line x1="2.437" x2="418.935" y1="551.499" y2="551.499" class="dot" stroke-dasharray="0.480 2.625" stroke-dashoffset="0.000"/>
    <line x1="2.437" x2="418.935" y1="573.231" y2="573.231" class="dot" stroke-dasharray="0.480 2.625" stroke-dashoffset="0.000"/>
    <line x1="2.437" x2="418.935" y1="594.963" y2="594.963" class="dot" stroke-dasharray="0.480 2.625" stroke-dashoffset="0.000"/>
  </g>
  <g id="grid-4">
    <line x1="15.096" x2="15.096" y1="14.956" y2="580.955" class="dot" stroke-dasharray="0.960 20.772" stroke-dashoffset="0.000"/>
    <line x1="36.828" x2="36.828" y1="14.956" y2="580.955" class="dot" stroke-dasharray="0.960 20.772" stroke-dashoffset="0.000"/>
    <line x1="58.560" x2="58.560" y1="14.956" y2="580.955" class="dot" stroke-dasharray="0.960 20.772" stroke-dashoffset="0.000"/>
    <line x1="80.293" x2="80.293" y1="14.956" y2="580.955" class="dot" stroke-dasharray="0.960 20.772" stroke-dashoffset="0.000"/>
    <line x1="102.025" x2="102.025" y1="14.956" y2="580.955" class="dot" stroke-dasharray="0.960 20.772" stroke-dashoffset="0.000"/>
    <line x1="123.757" x2="123.757" y1="14.956" y2="580.955" class="dot" stroke-dasharray="0.960 20.772" stroke-dashoffset="0.000"/>
    <line x1="145.489" x2="145.489" y1="14.956" y2="580.955" class="dot" stroke-dasharray="0.960 20.772" stroke-dashoffset="0.000"/>
    <line x1="167.222" x2="167.222" y1="14.956" y2="580.955" class="dot" stroke-dasharray="0.960 20.772" stroke-dashoffset="0.000"/>
    <line x1="188.954" x2="188.954" y1="14.956" y2="580.955" class="dot" stroke-dasharray="0.960 20.772" stroke-dashoffset="0.000"/>
    <line x1="210.686" x2="210.686" y1="14.956" y2="580.955" class="dot" stroke-dasharray="0.960 20.772" stroke-dashoffset="0.000"/>
    <line x1="232.419" x2="232.419" y1="14.956" y2="580.955" class="dot" stroke-dasharray="0.960 20.772" stroke-dashoffset="0.000"/>
    <line x1="254.151" x2="254.151" y1="14.956" y2="580.955" class="dot" stroke-dasharray="0.960 20.772" stroke-dashoffset="0.000"/>
    <line x1="275.883" x2="275.883" y1="14.956" y2="580.955" class="dot" stroke-dasharray="0.960 20.772" stroke-dashoffset="0.000"/>
    <line x1="297.615" x2="297.615" y1="14.956" y2="580.955" class="dot" stroke-dasharray="0.960 20.772" stroke-dashoffset="0.000"/>
    <line x1="319.348" x2="319.348" y1="14.956" y2="580.955" class="dot" stroke-dasharray="0.960 20.772" stroke-dashoffset="0.000"/>
    <line x1="341.080" x2="341.080" y1="14.956" y2="580.955" class="dot" stroke-dasharray="0.960 20.772" stroke-dashoffset="0.000"/>
    <line x1="362.812" x2="362.812" y1="14.956" y2="580.955" class="dot" stroke-dasharray="0.960 20.772" stroke-dashoffset="0.000"/>
    <line x1="384.545" x2="384.545" y1="14.956" y2="580.955" class="dot" stroke-dasharray="0.960 20.772" stroke-dashoffset="0.000"/>
    <line x1="406.277" x2="406.277" y1="14.956" y2="580.955" class="dot" stroke-dasharray="0.960 20.772" stroke-dashoffset="0.000"/>
  </g>
  <rect x="116.186299902057" y="569.910845455389" width="189" height="12" fill="#ffffff" stroke="none" stroke-width="0px"/>
  <text x="210.686299902057" y="577.910845455389" text-anchor="middle" fill="#b3b3ff" stroke="none" stroke-width="0" style="font-family: &quot;Courier&quot;, &quot;Courier New&quot;, monospace; font-size: 6pt;">https://github.com/dse/printable-paper</text>
</svg>
