<?xml version="1.0" encoding="UTF-8"?>
<svg xmlns="http://www.w3.org/2000/svg" width="306.000pt" height="396.000pt" viewBox="0.000 0.000 306.000 396.000">
  <style>
        .line, .dot, .major-line, .feint-line, .margin-line { stroke-linecap: round; }
        .stroke-linecap-butt { stroke-linecap: butt; }
        .rectangle { fill: #ffffff; }


        .line        { stroke-width: 0.24px; opacity:  1; }
        .major-line  { stroke-width: 0.339411254969543px; opacity: 1; }
        .feint-line  { stroke-width: 0.169705627484771px; opacity:  1; }
        .dot         { stroke-width: 0.678822509939086px; opacity:  1; }
        .margin-line { stroke-width: 0.24px; opacity:  1; }
        .line        { stroke: #000000; }
        .major-line  { stroke: #000000; }
        .feint-line  { stroke: #000000; }
        .dot         { stroke: #000000; }
        .margin-line { stroke: #000000; }
  </style>
  <defs/>
  <g id="grid">
    <line x1="0.000" x2="306.000" y1="54.000" y2="54.000" class="line"/>
    <line x1="0.000" x2="306.000" y1="76.500" y2="76.500" class="line"/>
    <line x1="0.000" x2="306.000" y1="99.000" y2="99.000" class="line"/>
    <line x1="0.000" x2="306.000" y1="121.500" y2="121.500" class="line"/>
    <line x1="0.000" x2="306.000" y1="144.000" y2="144.000" class="line"/>
    <line x1="0.000" x2="306.000" y1="166.500" y2="166.500" class="line"/>
    <line x1="0.000" x2="306.000" y1="189.000" y2="189.000" class="line"/>
    <line x1="0.000" x2="306.000" y1="211.500" y2="211.500" class="line"/>
    <line x1="0.000" x2="306.000" y1="234.000" y2="234.000" class="line"/>
    <line x1="0.000" x2="306.000" y1="256.500" y2="256.500" class="line"/>
    <line x1="0.000" x2="306.000" y1="279.000" y2="279.000" class="line"/>
    <line x1="0.000" x2="306.000" y1="301.500" y2="301.500" class="line"/>
    <line x1="0.000" x2="306.000" y1="324.000" y2="324.000" class="line"/>
    <line x1="0.000" x2="306.000" y1="346.500" y2="346.500" class="line"/>
    <line x1="36.000" x2="36.000" y1="3.375" y2="391.500" class="dot" stroke-dasharray="0.010 5.615" stroke-dashoffset="0.005"/>
    <line x1="58.500" x2="58.500" y1="3.375" y2="391.500" class="dot" stroke-dasharray="0.010 5.615" stroke-dashoffset="0.005"/>
    <line x1="81.000" x2="81.000" y1="3.375" y2="391.500" class="dot" stroke-dasharray="0.010 5.615" stroke-dashoffset="0.005"/>
    <line x1="103.500" x2="103.500" y1="3.375" y2="391.500" class="dot" stroke-dasharray="0.010 5.615" stroke-dashoffset="0.005"/>
    <line x1="126.000" x2="126.000" y1="3.375" y2="391.500" class="dot" stroke-dasharray="0.010 5.615" stroke-dashoffset="0.005"/>
    <line x1="148.500" x2="148.500" y1="3.375" y2="391.500" class="dot" stroke-dasharray="0.010 5.615" stroke-dashoffset="0.005"/>
    <line x1="171.000" x2="171.000" y1="3.375" y2="391.500" class="dot" stroke-dasharray="0.010 5.615" stroke-dashoffset="0.005"/>
    <line x1="193.500" x2="193.500" y1="3.375" y2="391.500" class="dot" stroke-dasharray="0.010 5.615" stroke-dashoffset="0.005"/>
    <line x1="216.000" x2="216.000" y1="3.375" y2="391.500" class="dot" stroke-dasharray="0.010 5.615" stroke-dashoffset="0.005"/>
    <line x1="238.500" x2="238.500" y1="3.375" y2="391.500" class="dot" stroke-dasharray="0.010 5.615" stroke-dashoffset="0.005"/>
    <line x1="261.000" x2="261.000" y1="3.375" y2="391.500" class="dot" stroke-dasharray="0.010 5.615" stroke-dashoffset="0.005"/>
    <line x1="283.500" x2="283.500" y1="3.375" y2="391.500" class="dot" stroke-dasharray="0.010 5.615" stroke-dashoffset="0.005"/>
    <line x1="306.000" x2="306.000" y1="3.375" y2="391.500" class="dot" stroke-dasharray="0.010 5.615" stroke-dashoffset="0.005"/>
  </g>
  <g id="margin-line">
    <line x1="36.000" x2="36.000" y1="0.000" y2="396.000" class="margin-line"/>
  </g>
  <rect x="58.5" y="370" width="189" height="12" fill="#ffffff" stroke="none" stroke-width="0px"/>
  <text x="153" y="378" text-anchor="middle" fill="#000000" stroke="none" stroke-width="0" style="font-family: &quot;Courier&quot;, &quot;Courier New&quot;, monospace; font-size: 6pt;">https://github.com/dse/printable-paper</text>
</svg>
