<?xml version="1.0" encoding="UTF-8"?>
<svg xmlns="http://www.w3.org/2000/svg" width="612.000pt" height="792.000pt" viewBox="0.000 0.000 612.000 792.000">
  <style>        .line, .dot { stroke-linecap: round; }
        .stroke-linecap-butt { stroke-linecap: butt; }

        .rectangle { fill: #ffffff; }

        .line.xx-thin    { stroke-width: 0.32004px; }
        .line.x-thin     { stroke-width: 0.48px; }
        .line.thin       { stroke-width: 0.63996px; }
        .line.semi-thin  { stroke-width: 0.78384px; }
        .line            { stroke-width: 0.96px; }
        .line.semi-thick { stroke-width: 1.17576px; }
        .line.thick      { stroke-width: 1.44px; }

        .dot.xx-thin     { stroke-width: 0.64008px; }
        .dot.x-thin      { stroke-width: 0.96px; }
        .dot.thin        { stroke-width: 1.27992px; }
        .dot.semi-thin   { stroke-width: 1.56768px; }
        .dot             { stroke-width: 1.92px; }
        .dot.semi-thick  { stroke-width: 2.35152px; }
        .dot.thick       { stroke-width: 2.88px; }

        .stroke-1     { stroke-width: 0.12px; stroke-linecap: round; }
        .stroke-2     { stroke-width: 0.24px; stroke-linecap: round; }
        .stroke-3     { stroke-width: 0.36px; stroke-linecap: round; }
        .stroke-4     { stroke-width: 0.48px; stroke-linecap: round; }
        .stroke-5     { stroke-width: 0.6px; stroke-linecap: round; }
        .stroke-6     { stroke-width: 0.72px; stroke-linecap: round; }
        .stroke-7     { stroke-width: 0.84px; stroke-linecap: round; }
        .stroke-8     { stroke-width: 0.96px; stroke-linecap: round; }
        .stroke-9     { stroke-width: 1.08px; stroke-linecap: round; }
        .stroke-10    { stroke-width: 1.2px; stroke-linecap: round; }

        .blue  { stroke: #b3b3ff; }
        .red   { stroke: #ff9999; }
        .green { stroke: #b3ffb3; }
        .gray  { stroke: #b3b3b3; }

        .black         { stroke: #000000; }
        .half-black    { stroke: #808080; }
        .quarter-black { stroke: #c0c0c0; }

        .light.blue  { stroke: #d9d9ff; }
        .light.red   { stroke: #ffcccc; }
        .light.green { stroke: #d9ffd9; }
        .light.gray  { stroke: #d9d9d9; }

        .dark.blue  { stroke: #6767ff; }
        .dark.red   { stroke: #ff3333; }
        .dark.green { stroke: #67ff67; }
        .dark.gray  { stroke: #676767; }

        .alternate-blue  { stroke: #6767ff; opacity: 0.5; }
        .alternate-red   { stroke: #ff3333; opacity: 0.5; }
        .alternate-green { stroke: #67ff67; opacity: 0.5; }
        .alternate-gray  { stroke: #676767; opacity: 0.5; }

        .gray20 { stroke: #333333; }
        .gray40 { stroke: #666666; }
        .gray60 { stroke: #999999; }
        .gray80 { stroke: #cccccc; }
</style>
  <defs/>
  <g id="grid">
    <line x1="0.000" x2="612.000" y1="108.000" y2="108.000" class="stroke-3 black line"/>
    <line x1="0.000" x2="612.000" y1="130.500" y2="130.500" class="stroke-3 black line"/>
    <line x1="0.000" x2="612.000" y1="153.000" y2="153.000" class="stroke-3 black line"/>
    <line x1="0.000" x2="612.000" y1="175.500" y2="175.500" class="stroke-3 black line"/>
    <line x1="0.000" x2="612.000" y1="198.000" y2="198.000" class="stroke-3 black line"/>
    <line x1="0.000" x2="612.000" y1="220.500" y2="220.500" class="stroke-3 black line"/>
    <line x1="0.000" x2="612.000" y1="243.000" y2="243.000" class="stroke-3 black line"/>
    <line x1="0.000" x2="612.000" y1="265.500" y2="265.500" class="stroke-3 black line"/>
    <line x1="0.000" x2="612.000" y1="288.000" y2="288.000" class="stroke-3 black line"/>
    <line x1="0.000" x2="612.000" y1="310.500" y2="310.500" class="stroke-3 black line"/>
    <line x1="0.000" x2="612.000" y1="333.000" y2="333.000" class="stroke-3 black line"/>
    <line x1="0.000" x2="612.000" y1="355.500" y2="355.500" class="stroke-3 black line"/>
    <line x1="0.000" x2="612.000" y1="378.000" y2="378.000" class="stroke-3 black line"/>
    <line x1="0.000" x2="612.000" y1="400.500" y2="400.500" class="stroke-3 black line"/>
    <line x1="0.000" x2="612.000" y1="423.000" y2="423.000" class="stroke-3 black line"/>
    <line x1="0.000" x2="612.000" y1="445.500" y2="445.500" class="stroke-3 black line"/>
    <line x1="0.000" x2="612.000" y1="468.000" y2="468.000" class="stroke-3 black line"/>
    <line x1="0.000" x2="612.000" y1="490.500" y2="490.500" class="stroke-3 black line"/>
    <line x1="0.000" x2="612.000" y1="513.000" y2="513.000" class="stroke-3 black line"/>
    <line x1="0.000" x2="612.000" y1="535.500" y2="535.500" class="stroke-3 black line"/>
    <line x1="0.000" x2="612.000" y1="558.000" y2="558.000" class="stroke-3 black line"/>
    <line x1="0.000" x2="612.000" y1="580.500" y2="580.500" class="stroke-3 black line"/>
    <line x1="0.000" x2="612.000" y1="603.000" y2="603.000" class="stroke-3 black line"/>
    <line x1="0.000" x2="612.000" y1="625.500" y2="625.500" class="stroke-3 black line"/>
    <line x1="0.000" x2="612.000" y1="648.000" y2="648.000" class="stroke-3 black line"/>
    <line x1="0.000" x2="612.000" y1="670.500" y2="670.500" class="stroke-3 black line"/>
    <line x1="0.000" x2="612.000" y1="693.000" y2="693.000" class="stroke-3 black line"/>
    <line x1="0.000" x2="612.000" y1="715.500" y2="715.500" class="stroke-3 black line"/>
    <line x1="90.000" x2="90.000" y1="108.000" y2="715.500" stroke-dasharray="0.010 22.490" stroke-dashoffset="0.005"/>
    <line x1="112.500" x2="112.500" y1="108.000" y2="715.500" stroke-dasharray="0.010 22.490" stroke-dashoffset="0.005"/>
    <line x1="135.000" x2="135.000" y1="108.000" y2="715.500" stroke-dasharray="0.010 22.490" stroke-dashoffset="0.005"/>
    <line x1="157.500" x2="157.500" y1="108.000" y2="715.500" stroke-dasharray="0.010 22.490" stroke-dashoffset="0.005"/>
    <line x1="180.000" x2="180.000" y1="108.000" y2="715.500" stroke-dasharray="0.010 22.490" stroke-dashoffset="0.005"/>
    <line x1="202.500" x2="202.500" y1="108.000" y2="715.500" stroke-dasharray="0.010 22.490" stroke-dashoffset="0.005"/>
    <line x1="225.000" x2="225.000" y1="108.000" y2="715.500" stroke-dasharray="0.010 22.490" stroke-dashoffset="0.005"/>
    <line x1="247.500" x2="247.500" y1="108.000" y2="715.500" stroke-dasharray="0.010 22.490" stroke-dashoffset="0.005"/>
    <line x1="270.000" x2="270.000" y1="108.000" y2="715.500" stroke-dasharray="0.010 22.490" stroke-dashoffset="0.005"/>
    <line x1="292.500" x2="292.500" y1="108.000" y2="715.500" stroke-dasharray="0.010 22.490" stroke-dashoffset="0.005"/>
    <line x1="315.000" x2="315.000" y1="108.000" y2="715.500" stroke-dasharray="0.010 22.490" stroke-dashoffset="0.005"/>
    <line x1="337.500" x2="337.500" y1="108.000" y2="715.500" stroke-dasharray="0.010 22.490" stroke-dashoffset="0.005"/>
    <line x1="360.000" x2="360.000" y1="108.000" y2="715.500" stroke-dasharray="0.010 22.490" stroke-dashoffset="0.005"/>
    <line x1="382.500" x2="382.500" y1="108.000" y2="715.500" stroke-dasharray="0.010 22.490" stroke-dashoffset="0.005"/>
    <line x1="405.000" x2="405.000" y1="108.000" y2="715.500" stroke-dasharray="0.010 22.490" stroke-dashoffset="0.005"/>
    <line x1="427.500" x2="427.500" y1="108.000" y2="715.500" stroke-dasharray="0.010 22.490" stroke-dashoffset="0.005"/>
    <line x1="450.000" x2="450.000" y1="108.000" y2="715.500" stroke-dasharray="0.010 22.490" stroke-dashoffset="0.005"/>
    <line x1="472.500" x2="472.500" y1="108.000" y2="715.500" stroke-dasharray="0.010 22.490" stroke-dashoffset="0.005"/>
    <line x1="495.000" x2="495.000" y1="108.000" y2="715.500" stroke-dasharray="0.010 22.490" stroke-dashoffset="0.005"/>
    <line x1="517.500" x2="517.500" y1="108.000" y2="715.500" stroke-dasharray="0.010 22.490" stroke-dashoffset="0.005"/>
    <line x1="540.000" x2="540.000" y1="108.000" y2="715.500" stroke-dasharray="0.010 22.490" stroke-dashoffset="0.005"/>
    <line x1="562.500" x2="562.500" y1="108.000" y2="715.500" stroke-dasharray="0.010 22.490" stroke-dashoffset="0.005"/>
    <line x1="585.000" x2="585.000" y1="108.000" y2="715.500" stroke-dasharray="0.010 22.490" stroke-dashoffset="0.005"/>
    <line x1="607.500" x2="607.500" y1="108.000" y2="715.500" stroke-dasharray="0.010 22.490" stroke-dashoffset="0.005"/>
  </g>
  <g id="margin-line">
    <line x1="90.000" x2="90.000" y1="0.000" y2="792.000" class="stroke-3 black line"/>
  </g>
  <rect x="211.5" y="766" width="189" height="12" fill="#ffffff" stroke="none" stroke-width="0px"/>
  <text x="306" y="774" text-anchor="middle" fill="#808080" stroke="none" stroke-width="0" style="font-family: &quot;Courier&quot;, &quot;Courier New&quot;, monospace; font-size: 6pt;">https://github.com/dse/printable-paper</text>
</svg>
