<?xml version="1.0" encoding="UTF-8"?>
<svg xmlns="http://www.w3.org/2000/svg" width="419.528pt" height="595.276pt" viewBox="0.000 0.000 419.528 595.276">
  <style>
        .line, .dot, .feint-line, .margin-line { stroke-linecap: round; }
        .stroke-linecap-butt { stroke-linecap: butt; }
        .rectangle { fill: #ffffff; }
        .blue  { stroke: #b3b3ff; }
        .red   { stroke: #ff9e9e; }
        .green { stroke: #5aff5a; }
        .gray  { stroke: #bbbbbb; }
        .thin-black { stroke: #000000; }


        .line        { stroke-width: 0.24px; opacity: 1; }
        .feint-line  { stroke-width: 0.169705627484771px; opacity: 1; }
        .dot         { stroke-width: 0.678822509939086px; opacity: 1; }
        .margin-line { stroke-width: 0.24px; opacity: 1; }
  </style>
  <defs/>
  <g id="grid">
    <line x1="0.000" x2="419.528" y1="68.031" y2="68.031" class="thin-black line"/>
    <line x1="0.000" x2="419.528" y1="90.709" y2="90.709" class="thin-black line"/>
    <line x1="0.000" x2="419.528" y1="113.386" y2="113.386" class="thin-black line"/>
    <line x1="0.000" x2="419.528" y1="136.063" y2="136.063" class="thin-black line"/>
    <line x1="0.000" x2="419.528" y1="158.740" y2="158.740" class="thin-black line"/>
    <line x1="0.000" x2="419.528" y1="181.417" y2="181.417" class="thin-black line"/>
    <line x1="0.000" x2="419.528" y1="204.094" y2="204.094" class="thin-black line"/>
    <line x1="0.000" x2="419.528" y1="226.772" y2="226.772" class="thin-black line"/>
    <line x1="0.000" x2="419.528" y1="249.449" y2="249.449" class="thin-black line"/>
    <line x1="0.000" x2="419.528" y1="272.126" y2="272.126" class="thin-black line"/>
    <line x1="0.000" x2="419.528" y1="294.803" y2="294.803" class="thin-black line"/>
    <line x1="0.000" x2="419.528" y1="317.480" y2="317.480" class="thin-black line"/>
    <line x1="0.000" x2="419.528" y1="340.157" y2="340.157" class="thin-black line"/>
    <line x1="0.000" x2="419.528" y1="362.835" y2="362.835" class="thin-black line"/>
    <line x1="0.000" x2="419.528" y1="385.512" y2="385.512" class="thin-black line"/>
    <line x1="0.000" x2="419.528" y1="408.189" y2="408.189" class="thin-black line"/>
    <line x1="0.000" x2="419.528" y1="430.866" y2="430.866" class="thin-black line"/>
    <line x1="0.000" x2="419.528" y1="453.543" y2="453.543" class="thin-black line"/>
    <line x1="0.000" x2="419.528" y1="476.220" y2="476.220" class="thin-black line"/>
    <line x1="0.000" x2="419.528" y1="498.898" y2="498.898" class="thin-black line"/>
    <line x1="0.000" x2="419.528" y1="521.575" y2="521.575" class="thin-black line"/>
    <line x1="45.354" x2="45.354" y1="-0.000" y2="595.276" class="thin-black dot" stroke-dasharray="0.010 5.659" stroke-dashoffset="0.005"/>
    <line x1="68.031" x2="68.031" y1="-0.000" y2="595.276" class="thin-black dot" stroke-dasharray="0.010 5.659" stroke-dashoffset="0.005"/>
    <line x1="90.709" x2="90.709" y1="-0.000" y2="595.276" class="thin-black dot" stroke-dasharray="0.010 5.659" stroke-dashoffset="0.005"/>
    <line x1="113.386" x2="113.386" y1="-0.000" y2="595.276" class="thin-black dot" stroke-dasharray="0.010 5.659" stroke-dashoffset="0.005"/>
    <line x1="136.063" x2="136.063" y1="-0.000" y2="595.276" class="thin-black dot" stroke-dasharray="0.010 5.659" stroke-dashoffset="0.005"/>
    <line x1="158.740" x2="158.740" y1="-0.000" y2="595.276" class="thin-black dot" stroke-dasharray="0.010 5.659" stroke-dashoffset="0.005"/>
    <line x1="181.417" x2="181.417" y1="-0.000" y2="595.276" class="thin-black dot" stroke-dasharray="0.010 5.659" stroke-dashoffset="0.005"/>
    <line x1="204.094" x2="204.094" y1="-0.000" y2="595.276" class="thin-black dot" stroke-dasharray="0.010 5.659" stroke-dashoffset="0.005"/>
    <line x1="226.772" x2="226.772" y1="-0.000" y2="595.276" class="thin-black dot" stroke-dasharray="0.010 5.659" stroke-dashoffset="0.005"/>
    <line x1="249.449" x2="249.449" y1="-0.000" y2="595.276" class="thin-black dot" stroke-dasharray="0.010 5.659" stroke-dashoffset="0.005"/>
    <line x1="272.126" x2="272.126" y1="-0.000" y2="595.276" class="thin-black dot" stroke-dasharray="0.010 5.659" stroke-dashoffset="0.005"/>
    <line x1="294.803" x2="294.803" y1="-0.000" y2="595.276" class="thin-black dot" stroke-dasharray="0.010 5.659" stroke-dashoffset="0.005"/>
    <line x1="317.480" x2="317.480" y1="-0.000" y2="595.276" class="thin-black dot" stroke-dasharray="0.010 5.659" stroke-dashoffset="0.005"/>
    <line x1="340.157" x2="340.157" y1="-0.000" y2="595.276" class="thin-black dot" stroke-dasharray="0.010 5.659" stroke-dashoffset="0.005"/>
    <line x1="362.835" x2="362.835" y1="-0.000" y2="595.276" class="thin-black dot" stroke-dasharray="0.010 5.659" stroke-dashoffset="0.005"/>
    <line x1="385.512" x2="385.512" y1="-0.000" y2="595.276" class="thin-black dot" stroke-dasharray="0.010 5.659" stroke-dashoffset="0.005"/>
    <line x1="408.189" x2="408.189" y1="-0.000" y2="595.276" class="thin-black dot" stroke-dasharray="0.010 5.659" stroke-dashoffset="0.005"/>
  </g>
  <g id="margin-line">
    <line x1="45.354" x2="45.354" y1="0.000" y2="595.276" class="thin-black margin-line"/>
  </g>
  <rect x="115.264" y="569.276" width="189" height="12" fill="#ffffff" stroke="none" stroke-width="0px"/>
  <text x="209.764" y="577.276" text-anchor="middle" fill="#808080" stroke="none" stroke-width="0" style="font-family: &quot;Courier&quot;, &quot;Courier New&quot;, monospace; font-size: 6pt;">https://github.com/dse/printable-paper</text>
</svg>
