<?xml version="1.0" encoding="UTF-8"?>
<svg xmlns="http://www.w3.org/2000/svg" width="396.000pt" height="612.000pt" viewBox="0.000 0.000 396.000 612.000">
  <style>        .line, .dot { stroke-linecap: round; }
        .stroke-linecap-butt { stroke-linecap: butt; }

        .rectangle { fill: #ffffff; }

        .line.xx-thin    { stroke-width: 0.32004px; }
        .line.x-thin     { stroke-width: 0.48px; }
        .line.thin       { stroke-width: 0.63996px; }
        .line.semi-thin  { stroke-width: 0.78384px; }
        .line            { stroke-width: 0.96px; }
        .line.semi-thick { stroke-width: 1.17576px; }
        .line.thick      { stroke-width: 1.44px; }

        .dot.xx-thin     { stroke-width: 0.64008px; }
        .dot.x-thin      { stroke-width: 0.96px; }
        .dot.thin        { stroke-width: 1.27992px; }
        .dot.semi-thin   { stroke-width: 1.56768px; }
        .dot             { stroke-width: 1.92px; }
        .dot.semi-thick  { stroke-width: 2.35152px; }
        .dot.thick       { stroke-width: 2.88px; }

        .stroke-1     { stroke-width: 0.12px; stroke-linecap: round; }
        .stroke-2     { stroke-width: 0.24px; stroke-linecap: round; }
        .stroke-3     { stroke-width: 0.36px; stroke-linecap: round; }
        .stroke-4     { stroke-width: 0.48px; stroke-linecap: round; }
        .stroke-5     { stroke-width: 0.6px; stroke-linecap: round; }
        .stroke-6     { stroke-width: 0.72px; stroke-linecap: round; }
        .stroke-7     { stroke-width: 0.84px; stroke-linecap: round; }
        .stroke-8     { stroke-width: 0.96px; stroke-linecap: round; }
        .stroke-9     { stroke-width: 1.08px; stroke-linecap: round; }
        .stroke-10    { stroke-width: 1.2px; stroke-linecap: round; }

        .blue  { stroke: #b3b3ff; }
        .red   { stroke: #ff9999; }
        .green { stroke: #b3ffb3; }
        .gray  { stroke: #b3b3b3; }

        .black         { stroke: #000000; }
        .half-black    { stroke: #808080; }
        .quarter-black { stroke: #c0c0c0; }

        .light.blue  { stroke: #d9d9ff; }
        .light.red   { stroke: #ffcccc; }
        .light.green { stroke: #d9ffd9; }
        .light.gray  { stroke: #d9d9d9; }

        .dark.blue  { stroke: #6767ff; }
        .dark.red   { stroke: #ff3333; }
        .dark.green { stroke: #67ff67; }
        .dark.gray  { stroke: #676767; }

        .alternate-blue  { stroke: #6767ff; opacity: 0.5; }
        .alternate-red   { stroke: #ff3333; opacity: 0.5; }
        .alternate-green { stroke: #67ff67; opacity: 0.5; }
        .alternate-gray  { stroke: #676767; opacity: 0.5; }

        .gray20 { stroke: #333333; }
        .gray40 { stroke: #666666; }
        .gray60 { stroke: #999999; }
        .gray80 { stroke: #cccccc; }
</style>
  <defs/>
  <g id="grid">
    <line x1="0.000" x2="396.000" y1="72.000" y2="72.000" class="stroke-3 black line"/>
    <line x1="0.000" x2="396.000" y1="94.500" y2="94.500" class="stroke-3 black line"/>
    <line x1="0.000" x2="396.000" y1="117.000" y2="117.000" class="stroke-3 black line"/>
    <line x1="0.000" x2="396.000" y1="139.500" y2="139.500" class="stroke-3 black line"/>
    <line x1="0.000" x2="396.000" y1="162.000" y2="162.000" class="stroke-3 black line"/>
    <line x1="0.000" x2="396.000" y1="184.500" y2="184.500" class="stroke-3 black line"/>
    <line x1="0.000" x2="396.000" y1="207.000" y2="207.000" class="stroke-3 black line"/>
    <line x1="0.000" x2="396.000" y1="229.500" y2="229.500" class="stroke-3 black line"/>
    <line x1="0.000" x2="396.000" y1="252.000" y2="252.000" class="stroke-3 black line"/>
    <line x1="0.000" x2="396.000" y1="274.500" y2="274.500" class="stroke-3 black line"/>
    <line x1="0.000" x2="396.000" y1="297.000" y2="297.000" class="stroke-3 black line"/>
    <line x1="0.000" x2="396.000" y1="319.500" y2="319.500" class="stroke-3 black line"/>
    <line x1="0.000" x2="396.000" y1="342.000" y2="342.000" class="stroke-3 black line"/>
    <line x1="0.000" x2="396.000" y1="364.500" y2="364.500" class="stroke-3 black line"/>
    <line x1="0.000" x2="396.000" y1="387.000" y2="387.000" class="stroke-3 black line"/>
    <line x1="0.000" x2="396.000" y1="409.500" y2="409.500" class="stroke-3 black line"/>
    <line x1="0.000" x2="396.000" y1="432.000" y2="432.000" class="stroke-3 black line"/>
    <line x1="0.000" x2="396.000" y1="454.500" y2="454.500" class="stroke-3 black line"/>
    <line x1="0.000" x2="396.000" y1="477.000" y2="477.000" class="stroke-3 black line"/>
    <line x1="0.000" x2="396.000" y1="499.500" y2="499.500" class="stroke-3 black line"/>
    <line x1="0.000" x2="396.000" y1="522.000" y2="522.000" class="stroke-3 black line"/>
    <line x1="0.000" x2="396.000" y1="544.500" y2="544.500" class="stroke-3 black line"/>
    <line x1="54.000" x2="54.000" y1="72.000" y2="72.000"/>
    <line x1="54.000" x2="54.000" y1="94.500" y2="94.500"/>
    <line x1="54.000" x2="54.000" y1="117.000" y2="117.000"/>
    <line x1="54.000" x2="54.000" y1="139.500" y2="139.500"/>
    <line x1="54.000" x2="54.000" y1="162.000" y2="162.000"/>
    <line x1="54.000" x2="54.000" y1="184.500" y2="184.500"/>
    <line x1="54.000" x2="54.000" y1="207.000" y2="207.000"/>
    <line x1="54.000" x2="54.000" y1="229.500" y2="229.500"/>
    <line x1="54.000" x2="54.000" y1="252.000" y2="252.000"/>
    <line x1="54.000" x2="54.000" y1="274.500" y2="274.500"/>
    <line x1="54.000" x2="54.000" y1="297.000" y2="297.000"/>
    <line x1="54.000" x2="54.000" y1="319.500" y2="319.500"/>
    <line x1="54.000" x2="54.000" y1="342.000" y2="342.000"/>
    <line x1="54.000" x2="54.000" y1="364.500" y2="364.500"/>
    <line x1="54.000" x2="54.000" y1="387.000" y2="387.000"/>
    <line x1="54.000" x2="54.000" y1="409.500" y2="409.500"/>
    <line x1="54.000" x2="54.000" y1="432.000" y2="432.000"/>
    <line x1="54.000" x2="54.000" y1="454.500" y2="454.500"/>
    <line x1="54.000" x2="54.000" y1="477.000" y2="477.000"/>
    <line x1="54.000" x2="54.000" y1="499.500" y2="499.500"/>
    <line x1="54.000" x2="54.000" y1="522.000" y2="522.000"/>
    <line x1="54.000" x2="54.000" y1="544.500" y2="544.500"/>
    <line x1="76.500" x2="76.500" y1="72.000" y2="72.000"/>
    <line x1="76.500" x2="76.500" y1="94.500" y2="94.500"/>
    <line x1="76.500" x2="76.500" y1="117.000" y2="117.000"/>
    <line x1="76.500" x2="76.500" y1="139.500" y2="139.500"/>
    <line x1="76.500" x2="76.500" y1="162.000" y2="162.000"/>
    <line x1="76.500" x2="76.500" y1="184.500" y2="184.500"/>
    <line x1="76.500" x2="76.500" y1="207.000" y2="207.000"/>
    <line x1="76.500" x2="76.500" y1="229.500" y2="229.500"/>
    <line x1="76.500" x2="76.500" y1="252.000" y2="252.000"/>
    <line x1="76.500" x2="76.500" y1="274.500" y2="274.500"/>
    <line x1="76.500" x2="76.500" y1="297.000" y2="297.000"/>
    <line x1="76.500" x2="76.500" y1="319.500" y2="319.500"/>
    <line x1="76.500" x2="76.500" y1="342.000" y2="342.000"/>
    <line x1="76.500" x2="76.500" y1="364.500" y2="364.500"/>
    <line x1="76.500" x2="76.500" y1="387.000" y2="387.000"/>
    <line x1="76.500" x2="76.500" y1="409.500" y2="409.500"/>
    <line x1="76.500" x2="76.500" y1="432.000" y2="432.000"/>
    <line x1="76.500" x2="76.500" y1="454.500" y2="454.500"/>
    <line x1="76.500" x2="76.500" y1="477.000" y2="477.000"/>
    <line x1="76.500" x2="76.500" y1="499.500" y2="499.500"/>
    <line x1="76.500" x2="76.500" y1="522.000" y2="522.000"/>
    <line x1="76.500" x2="76.500" y1="544.500" y2="544.500"/>
    <line x1="99.000" x2="99.000" y1="72.000" y2="72.000"/>
    <line x1="99.000" x2="99.000" y1="94.500" y2="94.500"/>
    <line x1="99.000" x2="99.000" y1="117.000" y2="117.000"/>
    <line x1="99.000" x2="99.000" y1="139.500" y2="139.500"/>
    <line x1="99.000" x2="99.000" y1="162.000" y2="162.000"/>
    <line x1="99.000" x2="99.000" y1="184.500" y2="184.500"/>
    <line x1="99.000" x2="99.000" y1="207.000" y2="207.000"/>
    <line x1="99.000" x2="99.000" y1="229.500" y2="229.500"/>
    <line x1="99.000" x2="99.000" y1="252.000" y2="252.000"/>
    <line x1="99.000" x2="99.000" y1="274.500" y2="274.500"/>
    <line x1="99.000" x2="99.000" y1="297.000" y2="297.000"/>
    <line x1="99.000" x2="99.000" y1="319.500" y2="319.500"/>
    <line x1="99.000" x2="99.000" y1="342.000" y2="342.000"/>
    <line x1="99.000" x2="99.000" y1="364.500" y2="364.500"/>
    <line x1="99.000" x2="99.000" y1="387.000" y2="387.000"/>
    <line x1="99.000" x2="99.000" y1="409.500" y2="409.500"/>
    <line x1="99.000" x2="99.000" y1="432.000" y2="432.000"/>
    <line x1="99.000" x2="99.000" y1="454.500" y2="454.500"/>
    <line x1="99.000" x2="99.000" y1="477.000" y2="477.000"/>
    <line x1="99.000" x2="99.000" y1="499.500" y2="499.500"/>
    <line x1="99.000" x2="99.000" y1="522.000" y2="522.000"/>
    <line x1="99.000" x2="99.000" y1="544.500" y2="544.500"/>
    <line x1="121.500" x2="121.500" y1="72.000" y2="72.000"/>
    <line x1="121.500" x2="121.500" y1="94.500" y2="94.500"/>
    <line x1="121.500" x2="121.500" y1="117.000" y2="117.000"/>
    <line x1="121.500" x2="121.500" y1="139.500" y2="139.500"/>
    <line x1="121.500" x2="121.500" y1="162.000" y2="162.000"/>
    <line x1="121.500" x2="121.500" y1="184.500" y2="184.500"/>
    <line x1="121.500" x2="121.500" y1="207.000" y2="207.000"/>
    <line x1="121.500" x2="121.500" y1="229.500" y2="229.500"/>
    <line x1="121.500" x2="121.500" y1="252.000" y2="252.000"/>
    <line x1="121.500" x2="121.500" y1="274.500" y2="274.500"/>
    <line x1="121.500" x2="121.500" y1="297.000" y2="297.000"/>
    <line x1="121.500" x2="121.500" y1="319.500" y2="319.500"/>
    <line x1="121.500" x2="121.500" y1="342.000" y2="342.000"/>
    <line x1="121.500" x2="121.500" y1="364.500" y2="364.500"/>
    <line x1="121.500" x2="121.500" y1="387.000" y2="387.000"/>
    <line x1="121.500" x2="121.500" y1="409.500" y2="409.500"/>
    <line x1="121.500" x2="121.500" y1="432.000" y2="432.000"/>
    <line x1="121.500" x2="121.500" y1="454.500" y2="454.500"/>
    <line x1="121.500" x2="121.500" y1="477.000" y2="477.000"/>
    <line x1="121.500" x2="121.500" y1="499.500" y2="499.500"/>
    <line x1="121.500" x2="121.500" y1="522.000" y2="522.000"/>
    <line x1="121.500" x2="121.500" y1="544.500" y2="544.500"/>
    <line x1="144.000" x2="144.000" y1="72.000" y2="72.000"/>
    <line x1="144.000" x2="144.000" y1="94.500" y2="94.500"/>
    <line x1="144.000" x2="144.000" y1="117.000" y2="117.000"/>
    <line x1="144.000" x2="144.000" y1="139.500" y2="139.500"/>
    <line x1="144.000" x2="144.000" y1="162.000" y2="162.000"/>
    <line x1="144.000" x2="144.000" y1="184.500" y2="184.500"/>
    <line x1="144.000" x2="144.000" y1="207.000" y2="207.000"/>
    <line x1="144.000" x2="144.000" y1="229.500" y2="229.500"/>
    <line x1="144.000" x2="144.000" y1="252.000" y2="252.000"/>
    <line x1="144.000" x2="144.000" y1="274.500" y2="274.500"/>
    <line x1="144.000" x2="144.000" y1="297.000" y2="297.000"/>
    <line x1="144.000" x2="144.000" y1="319.500" y2="319.500"/>
    <line x1="144.000" x2="144.000" y1="342.000" y2="342.000"/>
    <line x1="144.000" x2="144.000" y1="364.500" y2="364.500"/>
    <line x1="144.000" x2="144.000" y1="387.000" y2="387.000"/>
    <line x1="144.000" x2="144.000" y1="409.500" y2="409.500"/>
    <line x1="144.000" x2="144.000" y1="432.000" y2="432.000"/>
    <line x1="144.000" x2="144.000" y1="454.500" y2="454.500"/>
    <line x1="144.000" x2="144.000" y1="477.000" y2="477.000"/>
    <line x1="144.000" x2="144.000" y1="499.500" y2="499.500"/>
    <line x1="144.000" x2="144.000" y1="522.000" y2="522.000"/>
    <line x1="144.000" x2="144.000" y1="544.500" y2="544.500"/>
    <line x1="166.500" x2="166.500" y1="72.000" y2="72.000"/>
    <line x1="166.500" x2="166.500" y1="94.500" y2="94.500"/>
    <line x1="166.500" x2="166.500" y1="117.000" y2="117.000"/>
    <line x1="166.500" x2="166.500" y1="139.500" y2="139.500"/>
    <line x1="166.500" x2="166.500" y1="162.000" y2="162.000"/>
    <line x1="166.500" x2="166.500" y1="184.500" y2="184.500"/>
    <line x1="166.500" x2="166.500" y1="207.000" y2="207.000"/>
    <line x1="166.500" x2="166.500" y1="229.500" y2="229.500"/>
    <line x1="166.500" x2="166.500" y1="252.000" y2="252.000"/>
    <line x1="166.500" x2="166.500" y1="274.500" y2="274.500"/>
    <line x1="166.500" x2="166.500" y1="297.000" y2="297.000"/>
    <line x1="166.500" x2="166.500" y1="319.500" y2="319.500"/>
    <line x1="166.500" x2="166.500" y1="342.000" y2="342.000"/>
    <line x1="166.500" x2="166.500" y1="364.500" y2="364.500"/>
    <line x1="166.500" x2="166.500" y1="387.000" y2="387.000"/>
    <line x1="166.500" x2="166.500" y1="409.500" y2="409.500"/>
    <line x1="166.500" x2="166.500" y1="432.000" y2="432.000"/>
    <line x1="166.500" x2="166.500" y1="454.500" y2="454.500"/>
    <line x1="166.500" x2="166.500" y1="477.000" y2="477.000"/>
    <line x1="166.500" x2="166.500" y1="499.500" y2="499.500"/>
    <line x1="166.500" x2="166.500" y1="522.000" y2="522.000"/>
    <line x1="166.500" x2="166.500" y1="544.500" y2="544.500"/>
    <line x1="189.000" x2="189.000" y1="72.000" y2="72.000"/>
    <line x1="189.000" x2="189.000" y1="94.500" y2="94.500"/>
    <line x1="189.000" x2="189.000" y1="117.000" y2="117.000"/>
    <line x1="189.000" x2="189.000" y1="139.500" y2="139.500"/>
    <line x1="189.000" x2="189.000" y1="162.000" y2="162.000"/>
    <line x1="189.000" x2="189.000" y1="184.500" y2="184.500"/>
    <line x1="189.000" x2="189.000" y1="207.000" y2="207.000"/>
    <line x1="189.000" x2="189.000" y1="229.500" y2="229.500"/>
    <line x1="189.000" x2="189.000" y1="252.000" y2="252.000"/>
    <line x1="189.000" x2="189.000" y1="274.500" y2="274.500"/>
    <line x1="189.000" x2="189.000" y1="297.000" y2="297.000"/>
    <line x1="189.000" x2="189.000" y1="319.500" y2="319.500"/>
    <line x1="189.000" x2="189.000" y1="342.000" y2="342.000"/>
    <line x1="189.000" x2="189.000" y1="364.500" y2="364.500"/>
    <line x1="189.000" x2="189.000" y1="387.000" y2="387.000"/>
    <line x1="189.000" x2="189.000" y1="409.500" y2="409.500"/>
    <line x1="189.000" x2="189.000" y1="432.000" y2="432.000"/>
    <line x1="189.000" x2="189.000" y1="454.500" y2="454.500"/>
    <line x1="189.000" x2="189.000" y1="477.000" y2="477.000"/>
    <line x1="189.000" x2="189.000" y1="499.500" y2="499.500"/>
    <line x1="189.000" x2="189.000" y1="522.000" y2="522.000"/>
    <line x1="189.000" x2="189.000" y1="544.500" y2="544.500"/>
    <line x1="211.500" x2="211.500" y1="72.000" y2="72.000"/>
    <line x1="211.500" x2="211.500" y1="94.500" y2="94.500"/>
    <line x1="211.500" x2="211.500" y1="117.000" y2="117.000"/>
    <line x1="211.500" x2="211.500" y1="139.500" y2="139.500"/>
    <line x1="211.500" x2="211.500" y1="162.000" y2="162.000"/>
    <line x1="211.500" x2="211.500" y1="184.500" y2="184.500"/>
    <line x1="211.500" x2="211.500" y1="207.000" y2="207.000"/>
    <line x1="211.500" x2="211.500" y1="229.500" y2="229.500"/>
    <line x1="211.500" x2="211.500" y1="252.000" y2="252.000"/>
    <line x1="211.500" x2="211.500" y1="274.500" y2="274.500"/>
    <line x1="211.500" x2="211.500" y1="297.000" y2="297.000"/>
    <line x1="211.500" x2="211.500" y1="319.500" y2="319.500"/>
    <line x1="211.500" x2="211.500" y1="342.000" y2="342.000"/>
    <line x1="211.500" x2="211.500" y1="364.500" y2="364.500"/>
    <line x1="211.500" x2="211.500" y1="387.000" y2="387.000"/>
    <line x1="211.500" x2="211.500" y1="409.500" y2="409.500"/>
    <line x1="211.500" x2="211.500" y1="432.000" y2="432.000"/>
    <line x1="211.500" x2="211.500" y1="454.500" y2="454.500"/>
    <line x1="211.500" x2="211.500" y1="477.000" y2="477.000"/>
    <line x1="211.500" x2="211.500" y1="499.500" y2="499.500"/>
    <line x1="211.500" x2="211.500" y1="522.000" y2="522.000"/>
    <line x1="211.500" x2="211.500" y1="544.500" y2="544.500"/>
    <line x1="234.000" x2="234.000" y1="72.000" y2="72.000"/>
    <line x1="234.000" x2="234.000" y1="94.500" y2="94.500"/>
    <line x1="234.000" x2="234.000" y1="117.000" y2="117.000"/>
    <line x1="234.000" x2="234.000" y1="139.500" y2="139.500"/>
    <line x1="234.000" x2="234.000" y1="162.000" y2="162.000"/>
    <line x1="234.000" x2="234.000" y1="184.500" y2="184.500"/>
    <line x1="234.000" x2="234.000" y1="207.000" y2="207.000"/>
    <line x1="234.000" x2="234.000" y1="229.500" y2="229.500"/>
    <line x1="234.000" x2="234.000" y1="252.000" y2="252.000"/>
    <line x1="234.000" x2="234.000" y1="274.500" y2="274.500"/>
    <line x1="234.000" x2="234.000" y1="297.000" y2="297.000"/>
    <line x1="234.000" x2="234.000" y1="319.500" y2="319.500"/>
    <line x1="234.000" x2="234.000" y1="342.000" y2="342.000"/>
    <line x1="234.000" x2="234.000" y1="364.500" y2="364.500"/>
    <line x1="234.000" x2="234.000" y1="387.000" y2="387.000"/>
    <line x1="234.000" x2="234.000" y1="409.500" y2="409.500"/>
    <line x1="234.000" x2="234.000" y1="432.000" y2="432.000"/>
    <line x1="234.000" x2="234.000" y1="454.500" y2="454.500"/>
    <line x1="234.000" x2="234.000" y1="477.000" y2="477.000"/>
    <line x1="234.000" x2="234.000" y1="499.500" y2="499.500"/>
    <line x1="234.000" x2="234.000" y1="522.000" y2="522.000"/>
    <line x1="234.000" x2="234.000" y1="544.500" y2="544.500"/>
    <line x1="256.500" x2="256.500" y1="72.000" y2="72.000"/>
    <line x1="256.500" x2="256.500" y1="94.500" y2="94.500"/>
    <line x1="256.500" x2="256.500" y1="117.000" y2="117.000"/>
    <line x1="256.500" x2="256.500" y1="139.500" y2="139.500"/>
    <line x1="256.500" x2="256.500" y1="162.000" y2="162.000"/>
    <line x1="256.500" x2="256.500" y1="184.500" y2="184.500"/>
    <line x1="256.500" x2="256.500" y1="207.000" y2="207.000"/>
    <line x1="256.500" x2="256.500" y1="229.500" y2="229.500"/>
    <line x1="256.500" x2="256.500" y1="252.000" y2="252.000"/>
    <line x1="256.500" x2="256.500" y1="274.500" y2="274.500"/>
    <line x1="256.500" x2="256.500" y1="297.000" y2="297.000"/>
    <line x1="256.500" x2="256.500" y1="319.500" y2="319.500"/>
    <line x1="256.500" x2="256.500" y1="342.000" y2="342.000"/>
    <line x1="256.500" x2="256.500" y1="364.500" y2="364.500"/>
    <line x1="256.500" x2="256.500" y1="387.000" y2="387.000"/>
    <line x1="256.500" x2="256.500" y1="409.500" y2="409.500"/>
    <line x1="256.500" x2="256.500" y1="432.000" y2="432.000"/>
    <line x1="256.500" x2="256.500" y1="454.500" y2="454.500"/>
    <line x1="256.500" x2="256.500" y1="477.000" y2="477.000"/>
    <line x1="256.500" x2="256.500" y1="499.500" y2="499.500"/>
    <line x1="256.500" x2="256.500" y1="522.000" y2="522.000"/>
    <line x1="256.500" x2="256.500" y1="544.500" y2="544.500"/>
    <line x1="279.000" x2="279.000" y1="72.000" y2="72.000"/>
    <line x1="279.000" x2="279.000" y1="94.500" y2="94.500"/>
    <line x1="279.000" x2="279.000" y1="117.000" y2="117.000"/>
    <line x1="279.000" x2="279.000" y1="139.500" y2="139.500"/>
    <line x1="279.000" x2="279.000" y1="162.000" y2="162.000"/>
    <line x1="279.000" x2="279.000" y1="184.500" y2="184.500"/>
    <line x1="279.000" x2="279.000" y1="207.000" y2="207.000"/>
    <line x1="279.000" x2="279.000" y1="229.500" y2="229.500"/>
    <line x1="279.000" x2="279.000" y1="252.000" y2="252.000"/>
    <line x1="279.000" x2="279.000" y1="274.500" y2="274.500"/>
    <line x1="279.000" x2="279.000" y1="297.000" y2="297.000"/>
    <line x1="279.000" x2="279.000" y1="319.500" y2="319.500"/>
    <line x1="279.000" x2="279.000" y1="342.000" y2="342.000"/>
    <line x1="279.000" x2="279.000" y1="364.500" y2="364.500"/>
    <line x1="279.000" x2="279.000" y1="387.000" y2="387.000"/>
    <line x1="279.000" x2="279.000" y1="409.500" y2="409.500"/>
    <line x1="279.000" x2="279.000" y1="432.000" y2="432.000"/>
    <line x1="279.000" x2="279.000" y1="454.500" y2="454.500"/>
    <line x1="279.000" x2="279.000" y1="477.000" y2="477.000"/>
    <line x1="279.000" x2="279.000" y1="499.500" y2="499.500"/>
    <line x1="279.000" x2="279.000" y1="522.000" y2="522.000"/>
    <line x1="279.000" x2="279.000" y1="544.500" y2="544.500"/>
    <line x1="301.500" x2="301.500" y1="72.000" y2="72.000"/>
    <line x1="301.500" x2="301.500" y1="94.500" y2="94.500"/>
    <line x1="301.500" x2="301.500" y1="117.000" y2="117.000"/>
    <line x1="301.500" x2="301.500" y1="139.500" y2="139.500"/>
    <line x1="301.500" x2="301.500" y1="162.000" y2="162.000"/>
    <line x1="301.500" x2="301.500" y1="184.500" y2="184.500"/>
    <line x1="301.500" x2="301.500" y1="207.000" y2="207.000"/>
    <line x1="301.500" x2="301.500" y1="229.500" y2="229.500"/>
    <line x1="301.500" x2="301.500" y1="252.000" y2="252.000"/>
    <line x1="301.500" x2="301.500" y1="274.500" y2="274.500"/>
    <line x1="301.500" x2="301.500" y1="297.000" y2="297.000"/>
    <line x1="301.500" x2="301.500" y1="319.500" y2="319.500"/>
    <line x1="301.500" x2="301.500" y1="342.000" y2="342.000"/>
    <line x1="301.500" x2="301.500" y1="364.500" y2="364.500"/>
    <line x1="301.500" x2="301.500" y1="387.000" y2="387.000"/>
    <line x1="301.500" x2="301.500" y1="409.500" y2="409.500"/>
    <line x1="301.500" x2="301.500" y1="432.000" y2="432.000"/>
    <line x1="301.500" x2="301.500" y1="454.500" y2="454.500"/>
    <line x1="301.500" x2="301.500" y1="477.000" y2="477.000"/>
    <line x1="301.500" x2="301.500" y1="499.500" y2="499.500"/>
    <line x1="301.500" x2="301.500" y1="522.000" y2="522.000"/>
    <line x1="301.500" x2="301.500" y1="544.500" y2="544.500"/>
    <line x1="324.000" x2="324.000" y1="72.000" y2="72.000"/>
    <line x1="324.000" x2="324.000" y1="94.500" y2="94.500"/>
    <line x1="324.000" x2="324.000" y1="117.000" y2="117.000"/>
    <line x1="324.000" x2="324.000" y1="139.500" y2="139.500"/>
    <line x1="324.000" x2="324.000" y1="162.000" y2="162.000"/>
    <line x1="324.000" x2="324.000" y1="184.500" y2="184.500"/>
    <line x1="324.000" x2="324.000" y1="207.000" y2="207.000"/>
    <line x1="324.000" x2="324.000" y1="229.500" y2="229.500"/>
    <line x1="324.000" x2="324.000" y1="252.000" y2="252.000"/>
    <line x1="324.000" x2="324.000" y1="274.500" y2="274.500"/>
    <line x1="324.000" x2="324.000" y1="297.000" y2="297.000"/>
    <line x1="324.000" x2="324.000" y1="319.500" y2="319.500"/>
    <line x1="324.000" x2="324.000" y1="342.000" y2="342.000"/>
    <line x1="324.000" x2="324.000" y1="364.500" y2="364.500"/>
    <line x1="324.000" x2="324.000" y1="387.000" y2="387.000"/>
    <line x1="324.000" x2="324.000" y1="409.500" y2="409.500"/>
    <line x1="324.000" x2="324.000" y1="432.000" y2="432.000"/>
    <line x1="324.000" x2="324.000" y1="454.500" y2="454.500"/>
    <line x1="324.000" x2="324.000" y1="477.000" y2="477.000"/>
    <line x1="324.000" x2="324.000" y1="499.500" y2="499.500"/>
    <line x1="324.000" x2="324.000" y1="522.000" y2="522.000"/>
    <line x1="324.000" x2="324.000" y1="544.500" y2="544.500"/>
    <line x1="346.500" x2="346.500" y1="72.000" y2="72.000"/>
    <line x1="346.500" x2="346.500" y1="94.500" y2="94.500"/>
    <line x1="346.500" x2="346.500" y1="117.000" y2="117.000"/>
    <line x1="346.500" x2="346.500" y1="139.500" y2="139.500"/>
    <line x1="346.500" x2="346.500" y1="162.000" y2="162.000"/>
    <line x1="346.500" x2="346.500" y1="184.500" y2="184.500"/>
    <line x1="346.500" x2="346.500" y1="207.000" y2="207.000"/>
    <line x1="346.500" x2="346.500" y1="229.500" y2="229.500"/>
    <line x1="346.500" x2="346.500" y1="252.000" y2="252.000"/>
    <line x1="346.500" x2="346.500" y1="274.500" y2="274.500"/>
    <line x1="346.500" x2="346.500" y1="297.000" y2="297.000"/>
    <line x1="346.500" x2="346.500" y1="319.500" y2="319.500"/>
    <line x1="346.500" x2="346.500" y1="342.000" y2="342.000"/>
    <line x1="346.500" x2="346.500" y1="364.500" y2="364.500"/>
    <line x1="346.500" x2="346.500" y1="387.000" y2="387.000"/>
    <line x1="346.500" x2="346.500" y1="409.500" y2="409.500"/>
    <line x1="346.500" x2="346.500" y1="432.000" y2="432.000"/>
    <line x1="346.500" x2="346.500" y1="454.500" y2="454.500"/>
    <line x1="346.500" x2="346.500" y1="477.000" y2="477.000"/>
    <line x1="346.500" x2="346.500" y1="499.500" y2="499.500"/>
    <line x1="346.500" x2="346.500" y1="522.000" y2="522.000"/>
    <line x1="346.500" x2="346.500" y1="544.500" y2="544.500"/>
    <line x1="369.000" x2="369.000" y1="72.000" y2="72.000"/>
    <line x1="369.000" x2="369.000" y1="94.500" y2="94.500"/>
    <line x1="369.000" x2="369.000" y1="117.000" y2="117.000"/>
    <line x1="369.000" x2="369.000" y1="139.500" y2="139.500"/>
    <line x1="369.000" x2="369.000" y1="162.000" y2="162.000"/>
    <line x1="369.000" x2="369.000" y1="184.500" y2="184.500"/>
    <line x1="369.000" x2="369.000" y1="207.000" y2="207.000"/>
    <line x1="369.000" x2="369.000" y1="229.500" y2="229.500"/>
    <line x1="369.000" x2="369.000" y1="252.000" y2="252.000"/>
    <line x1="369.000" x2="369.000" y1="274.500" y2="274.500"/>
    <line x1="369.000" x2="369.000" y1="297.000" y2="297.000"/>
    <line x1="369.000" x2="369.000" y1="319.500" y2="319.500"/>
    <line x1="369.000" x2="369.000" y1="342.000" y2="342.000"/>
    <line x1="369.000" x2="369.000" y1="364.500" y2="364.500"/>
    <line x1="369.000" x2="369.000" y1="387.000" y2="387.000"/>
    <line x1="369.000" x2="369.000" y1="409.500" y2="409.500"/>
    <line x1="369.000" x2="369.000" y1="432.000" y2="432.000"/>
    <line x1="369.000" x2="369.000" y1="454.500" y2="454.500"/>
    <line x1="369.000" x2="369.000" y1="477.000" y2="477.000"/>
    <line x1="369.000" x2="369.000" y1="499.500" y2="499.500"/>
    <line x1="369.000" x2="369.000" y1="522.000" y2="522.000"/>
    <line x1="369.000" x2="369.000" y1="544.500" y2="544.500"/>
    <line x1="391.500" x2="391.500" y1="72.000" y2="72.000"/>
    <line x1="391.500" x2="391.500" y1="94.500" y2="94.500"/>
    <line x1="391.500" x2="391.500" y1="117.000" y2="117.000"/>
    <line x1="391.500" x2="391.500" y1="139.500" y2="139.500"/>
    <line x1="391.500" x2="391.500" y1="162.000" y2="162.000"/>
    <line x1="391.500" x2="391.500" y1="184.500" y2="184.500"/>
    <line x1="391.500" x2="391.500" y1="207.000" y2="207.000"/>
    <line x1="391.500" x2="391.500" y1="229.500" y2="229.500"/>
    <line x1="391.500" x2="391.500" y1="252.000" y2="252.000"/>
    <line x1="391.500" x2="391.500" y1="274.500" y2="274.500"/>
    <line x1="391.500" x2="391.500" y1="297.000" y2="297.000"/>
    <line x1="391.500" x2="391.500" y1="319.500" y2="319.500"/>
    <line x1="391.500" x2="391.500" y1="342.000" y2="342.000"/>
    <line x1="391.500" x2="391.500" y1="364.500" y2="364.500"/>
    <line x1="391.500" x2="391.500" y1="387.000" y2="387.000"/>
    <line x1="391.500" x2="391.500" y1="409.500" y2="409.500"/>
    <line x1="391.500" x2="391.500" y1="432.000" y2="432.000"/>
    <line x1="391.500" x2="391.500" y1="454.500" y2="454.500"/>
    <line x1="391.500" x2="391.500" y1="477.000" y2="477.000"/>
    <line x1="391.500" x2="391.500" y1="499.500" y2="499.500"/>
    <line x1="391.500" x2="391.500" y1="522.000" y2="522.000"/>
    <line x1="391.500" x2="391.500" y1="544.500" y2="544.500"/>
  </g>
  <g id="margin-line">
    <line x1="54.000" x2="54.000" y1="0.000" y2="612.000" class="stroke-3 black line"/>
  </g>
  <rect x="103.5" y="586" width="189" height="12" fill="#ffffff" stroke="none" stroke-width="0px"/>
  <text x="198" y="594" text-anchor="middle" fill="#808080" stroke="none" stroke-width="0" style="font-family: &quot;Courier&quot;, &quot;Courier New&quot;, monospace; font-size: 6pt;">https://github.com/dse/printable-paper</text>
</svg>
