<?xml version="1.0" encoding="UTF-8"?>
<svg xmlns="http://www.w3.org/2000/svg" width="595.911pt" height="842.745pt" viewBox="0.000 0.000 595.911 842.745">
  <style>
        .regular-line, .dot, .major-line, .feint-line, .margin-line { stroke-linecap: round; stroke-linejoin: round; }
        .stroke-linecap-butt    { stroke-linecap:  butt;   }
        .stroke-linecap-round   { stroke-linecap:  round;  }
        .stroke-linecap-square  { stroke-linecap:  square; }
        .stroke-linejoin-butt   { stroke-linejoin: butt;   }
        .stroke-linejoin-round  { stroke-linejoin: round;  }
        .stroke-linejoin-square { stroke-linejoin: square; }
        .rectangle { fill: #ffffff; }


        .regular-line { stroke-width: 0.96px; opacity: 1; }
        .major-line   { stroke-width: 1.35764501987817px; opacity: 1;   }
        .feint-line   { stroke-width: 0.678822509939086px; opacity: 1;   }
        .regular-dot  { stroke-width: 1.92px; opacity: 1;  }
        .major-dot    { stroke-width: 3.84px; opacity: 1;    }
        .feint-dot    { stroke-width: 0.96px; opacity: 1;    }
        .margin-line  { stroke-width: 0.96px; opacity: 1;  }
        .regular-line { stroke: #b3b3ff; }
        .major-line   { stroke: #b3b3ff;   }
        .feint-line   { stroke: #b3b3ff;   }
        .regular-dot  { stroke: #b3b3ff; }
        .major-dot    { stroke: #b3b3ff;   }
        .feint-dot    { stroke: #b3b3ff;   }
        .margin-line  { stroke: #ff9e9e;  }
  </style>
  <defs/>
  <g id="grid">
    <line x1="0.000" x2="595.911" y1="4.680" y2="4.680" class="regular-line horizontal"/>
    <line x1="0.000" x2="595.911" y1="21.688" y2="21.688" class="regular-line horizontal"/>
    <line x1="0.000" x2="595.911" y1="38.695" y2="38.695" class="regular-line horizontal"/>
    <line x1="0.000" x2="595.911" y1="55.703" y2="55.703" class="regular-line horizontal"/>
    <line x1="0.000" x2="595.911" y1="72.711" y2="72.711" class="regular-line horizontal"/>
    <line x1="0.000" x2="595.911" y1="89.719" y2="89.719" class="regular-line horizontal"/>
    <line x1="0.000" x2="595.911" y1="106.727" y2="106.727" class="regular-line horizontal"/>
    <line x1="0.000" x2="595.911" y1="123.735" y2="123.735" class="regular-line horizontal"/>
    <line x1="0.000" x2="595.911" y1="140.743" y2="140.743" class="regular-line horizontal"/>
    <line x1="0.000" x2="595.911" y1="157.751" y2="157.751" class="regular-line horizontal"/>
    <line x1="0.000" x2="595.911" y1="174.758" y2="174.758" class="regular-line horizontal"/>
    <line x1="0.000" x2="595.911" y1="191.766" y2="191.766" class="regular-line horizontal"/>
    <line x1="0.000" x2="595.911" y1="208.774" y2="208.774" class="regular-line horizontal"/>
    <line x1="0.000" x2="595.911" y1="225.782" y2="225.782" class="regular-line horizontal"/>
    <line x1="0.000" x2="595.911" y1="242.790" y2="242.790" class="regular-line horizontal"/>
    <line x1="0.000" x2="595.911" y1="259.798" y2="259.798" class="regular-line horizontal"/>
    <line x1="0.000" x2="595.911" y1="276.806" y2="276.806" class="regular-line horizontal"/>
    <line x1="0.000" x2="595.911" y1="293.814" y2="293.814" class="regular-line horizontal"/>
    <line x1="0.000" x2="595.911" y1="310.821" y2="310.821" class="regular-line horizontal"/>
    <line x1="0.000" x2="595.911" y1="327.829" y2="327.829" class="regular-line horizontal"/>
    <line x1="0.000" x2="595.911" y1="344.837" y2="344.837" class="regular-line horizontal"/>
    <line x1="0.000" x2="595.911" y1="361.845" y2="361.845" class="regular-line horizontal"/>
    <line x1="0.000" x2="595.911" y1="378.853" y2="378.853" class="regular-line horizontal"/>
    <line x1="0.000" x2="595.911" y1="395.861" y2="395.861" class="regular-line horizontal"/>
    <line x1="0.000" x2="595.911" y1="412.869" y2="412.869" class="regular-line horizontal"/>
    <line x1="0.000" x2="595.911" y1="429.877" y2="429.877" class="regular-line horizontal"/>
    <line x1="0.000" x2="595.911" y1="446.884" y2="446.884" class="regular-line horizontal"/>
    <line x1="0.000" x2="595.911" y1="463.892" y2="463.892" class="regular-line horizontal"/>
    <line x1="0.000" x2="595.911" y1="480.900" y2="480.900" class="regular-line horizontal"/>
    <line x1="0.000" x2="595.911" y1="497.908" y2="497.908" class="regular-line horizontal"/>
    <line x1="0.000" x2="595.911" y1="514.916" y2="514.916" class="regular-line horizontal"/>
    <line x1="0.000" x2="595.911" y1="531.924" y2="531.924" class="regular-line horizontal"/>
    <line x1="0.000" x2="595.911" y1="548.932" y2="548.932" class="regular-line horizontal"/>
    <line x1="0.000" x2="595.911" y1="565.940" y2="565.940" class="regular-line horizontal"/>
    <line x1="0.000" x2="595.911" y1="582.947" y2="582.947" class="regular-line horizontal"/>
    <line x1="0.000" x2="595.911" y1="599.955" y2="599.955" class="regular-line horizontal"/>
    <line x1="0.000" x2="595.911" y1="616.963" y2="616.963" class="regular-line horizontal"/>
    <line x1="0.000" x2="595.911" y1="633.971" y2="633.971" class="regular-line horizontal"/>
    <line x1="0.000" x2="595.911" y1="650.979" y2="650.979" class="regular-line horizontal"/>
    <line x1="0.000" x2="595.911" y1="667.987" y2="667.987" class="regular-line horizontal"/>
    <line x1="0.000" x2="595.911" y1="684.995" y2="684.995" class="regular-line horizontal"/>
    <line x1="0.000" x2="595.911" y1="702.003" y2="702.003" class="regular-line horizontal"/>
    <line x1="0.000" x2="595.911" y1="719.010" y2="719.010" class="regular-line horizontal"/>
    <line x1="0.000" x2="595.911" y1="736.018" y2="736.018" class="regular-line horizontal"/>
    <line x1="0.000" x2="595.911" y1="753.026" y2="753.026" class="regular-line horizontal"/>
    <line x1="0.000" x2="595.911" y1="770.034" y2="770.034" class="regular-line horizontal"/>
    <line x1="0.000" x2="595.911" y1="787.042" y2="787.042" class="regular-line horizontal"/>
    <line x1="0.000" x2="595.911" y1="804.050" y2="804.050" class="regular-line horizontal"/>
    <line x1="0.000" x2="595.911" y1="821.058" y2="821.058" class="regular-line horizontal"/>
    <line x1="0.000" x2="595.911" y1="838.066" y2="838.066" class="regular-line horizontal"/>
    <line x1="8.822" x2="8.822" y1="0.000" y2="842.745" class="regular-line vertical"/>
    <line x1="25.829" x2="25.829" y1="0.000" y2="842.745" class="regular-line vertical"/>
    <line x1="42.837" x2="42.837" y1="0.000" y2="842.745" class="regular-line vertical"/>
    <line x1="59.845" x2="59.845" y1="0.000" y2="842.745" class="regular-line vertical"/>
    <line x1="76.853" x2="76.853" y1="0.000" y2="842.745" class="regular-line vertical"/>
    <line x1="93.861" x2="93.861" y1="0.000" y2="842.745" class="regular-line vertical"/>
    <line x1="110.869" x2="110.869" y1="0.000" y2="842.745" class="regular-line vertical"/>
    <line x1="127.877" x2="127.877" y1="0.000" y2="842.745" class="regular-line vertical"/>
    <line x1="144.885" x2="144.885" y1="0.000" y2="842.745" class="regular-line vertical"/>
    <line x1="161.892" x2="161.892" y1="0.000" y2="842.745" class="regular-line vertical"/>
    <line x1="178.900" x2="178.900" y1="0.000" y2="842.745" class="regular-line vertical"/>
    <line x1="195.908" x2="195.908" y1="0.000" y2="842.745" class="regular-line vertical"/>
    <line x1="212.916" x2="212.916" y1="0.000" y2="842.745" class="regular-line vertical"/>
    <line x1="229.924" x2="229.924" y1="0.000" y2="842.745" class="regular-line vertical"/>
    <line x1="246.932" x2="246.932" y1="0.000" y2="842.745" class="regular-line vertical"/>
    <line x1="263.940" x2="263.940" y1="0.000" y2="842.745" class="regular-line vertical"/>
    <line x1="280.948" x2="280.948" y1="0.000" y2="842.745" class="regular-line vertical"/>
    <line x1="297.955" x2="297.955" y1="0.000" y2="842.745" class="regular-line vertical"/>
    <line x1="314.963" x2="314.963" y1="0.000" y2="842.745" class="regular-line vertical"/>
    <line x1="331.971" x2="331.971" y1="0.000" y2="842.745" class="regular-line vertical"/>
    <line x1="348.979" x2="348.979" y1="0.000" y2="842.745" class="regular-line vertical"/>
    <line x1="365.987" x2="365.987" y1="0.000" y2="842.745" class="regular-line vertical"/>
    <line x1="382.995" x2="382.995" y1="0.000" y2="842.745" class="regular-line vertical"/>
    <line x1="400.003" x2="400.003" y1="0.000" y2="842.745" class="regular-line vertical"/>
    <line x1="417.011" x2="417.011" y1="0.000" y2="842.745" class="regular-line vertical"/>
    <line x1="434.018" x2="434.018" y1="0.000" y2="842.745" class="regular-line vertical"/>
    <line x1="451.026" x2="451.026" y1="0.000" y2="842.745" class="regular-line vertical"/>
    <line x1="468.034" x2="468.034" y1="0.000" y2="842.745" class="regular-line vertical"/>
    <line x1="485.042" x2="485.042" y1="0.000" y2="842.745" class="regular-line vertical"/>
    <line x1="502.050" x2="502.050" y1="0.000" y2="842.745" class="regular-line vertical"/>
    <line x1="519.058" x2="519.058" y1="0.000" y2="842.745" class="regular-line vertical"/>
    <line x1="536.066" x2="536.066" y1="0.000" y2="842.745" class="regular-line vertical"/>
    <line x1="553.074" x2="553.074" y1="0.000" y2="842.745" class="regular-line vertical"/>
    <line x1="570.081" x2="570.081" y1="0.000" y2="842.745" class="regular-line vertical"/>
    <line x1="587.089" x2="587.089" y1="0.000" y2="842.745" class="regular-line vertical"/>
  </g>
  <rect x="203.455422727694" y="816.745199608227" width="189" height="12" fill="#ffffff" stroke="none" stroke-width="0px"/>
  <text x="297.955422727694" y="824.745199608227" text-anchor="middle" fill="#b3b3ff" stroke="none" stroke-width="0" style="font-family: &quot;Courier&quot;, &quot;Courier New&quot;, monospace; font-size: 6pt;">https://github.com/dse/printable-paper</text>
</svg>
