<?xml version="1.0" encoding="UTF-8"?>
<svg xmlns="http://www.w3.org/2000/svg" width="421.373pt" height="595.911pt" viewBox="0.000 0.000 421.373 595.911">
  <style>
        .line, .dot, .major-line, .feint-line, .margin-line { stroke-linecap: round; }
        .stroke-linecap-butt { stroke-linecap: butt; }
        .rectangle { fill: #ffffff; }


        .line        { stroke-width: 0.96px; opacity:  1; }
        .major-line  { stroke-width: 1.35764501987817px; opacity: 1; }
        .feint-line  { stroke-width: 0.678822509939086px; opacity:  1; }
        .dot         { stroke-width: 1.92px; opacity:  1; }
        .margin-line { stroke-width: 0.96px; opacity:  1; }
        .line        { stroke: #b3b3ff; }
        .major-line  { stroke: #b3b3ff; }
        .feint-line  { stroke: #b3b3ff; }
        .dot         { stroke: #b3b3ff; }
        .margin-line { stroke: #ff9e9e; }
  </style>
  <defs/>
  <g id="grid">
    <line x1="0.000" x2="421.373" y1="0.318" y2="0.318" class="line"/>
    <line x1="0.000" x2="421.373" y1="14.491" y2="14.491" class="line"/>
    <line x1="0.000" x2="421.373" y1="28.664" y2="28.664" class="line"/>
    <line x1="0.000" x2="421.373" y1="42.837" y2="42.837" class="line"/>
    <line x1="0.000" x2="421.373" y1="57.011" y2="57.011" class="line"/>
    <line x1="0.000" x2="421.373" y1="71.184" y2="71.184" class="line"/>
    <line x1="0.000" x2="421.373" y1="85.357" y2="85.357" class="line"/>
    <line x1="0.000" x2="421.373" y1="99.530" y2="99.530" class="line"/>
    <line x1="0.000" x2="421.373" y1="113.703" y2="113.703" class="line"/>
    <line x1="0.000" x2="421.373" y1="127.877" y2="127.877" class="line"/>
    <line x1="0.000" x2="421.373" y1="142.050" y2="142.050" class="line"/>
    <line x1="0.000" x2="421.373" y1="156.223" y2="156.223" class="line"/>
    <line x1="0.000" x2="421.373" y1="170.396" y2="170.396" class="line"/>
    <line x1="0.000" x2="421.373" y1="184.570" y2="184.570" class="line"/>
    <line x1="0.000" x2="421.373" y1="198.743" y2="198.743" class="line"/>
    <line x1="0.000" x2="421.373" y1="212.916" y2="212.916" class="line"/>
    <line x1="0.000" x2="421.373" y1="227.089" y2="227.089" class="line"/>
    <line x1="0.000" x2="421.373" y1="241.263" y2="241.263" class="line"/>
    <line x1="0.000" x2="421.373" y1="255.436" y2="255.436" class="line"/>
    <line x1="0.000" x2="421.373" y1="269.609" y2="269.609" class="line"/>
    <line x1="0.000" x2="421.373" y1="283.782" y2="283.782" class="line"/>
    <line x1="0.000" x2="421.373" y1="297.955" y2="297.955" class="line"/>
    <line x1="0.000" x2="421.373" y1="312.129" y2="312.129" class="line"/>
    <line x1="0.000" x2="421.373" y1="326.302" y2="326.302" class="line"/>
    <line x1="0.000" x2="421.373" y1="340.475" y2="340.475" class="line"/>
    <line x1="0.000" x2="421.373" y1="354.648" y2="354.648" class="line"/>
    <line x1="0.000" x2="421.373" y1="368.822" y2="368.822" class="line"/>
    <line x1="0.000" x2="421.373" y1="382.995" y2="382.995" class="line"/>
    <line x1="0.000" x2="421.373" y1="397.168" y2="397.168" class="line"/>
    <line x1="0.000" x2="421.373" y1="411.341" y2="411.341" class="line"/>
    <line x1="0.000" x2="421.373" y1="425.514" y2="425.514" class="line"/>
    <line x1="0.000" x2="421.373" y1="439.688" y2="439.688" class="line"/>
    <line x1="0.000" x2="421.373" y1="453.861" y2="453.861" class="line"/>
    <line x1="0.000" x2="421.373" y1="468.034" y2="468.034" class="line"/>
    <line x1="0.000" x2="421.373" y1="482.207" y2="482.207" class="line"/>
    <line x1="0.000" x2="421.373" y1="496.381" y2="496.381" class="line"/>
    <line x1="0.000" x2="421.373" y1="510.554" y2="510.554" class="line"/>
    <line x1="0.000" x2="421.373" y1="524.727" y2="524.727" class="line"/>
    <line x1="0.000" x2="421.373" y1="538.900" y2="538.900" class="line"/>
    <line x1="0.000" x2="421.373" y1="553.074" y2="553.074" class="line"/>
    <line x1="0.000" x2="421.373" y1="567.247" y2="567.247" class="line"/>
    <line x1="0.000" x2="421.373" y1="581.420" y2="581.420" class="line"/>
    <line x1="0.000" x2="421.373" y1="595.593" y2="595.593" class="line"/>
    <line x1="5.174" x2="5.174" y1="0.000" y2="595.911" class="line"/>
    <line x1="19.348" x2="19.348" y1="0.000" y2="595.911" class="line"/>
    <line x1="33.521" x2="33.521" y1="0.000" y2="595.911" class="line"/>
    <line x1="47.694" x2="47.694" y1="0.000" y2="595.911" class="line"/>
    <line x1="61.867" x2="61.867" y1="0.000" y2="595.911" class="line"/>
    <line x1="76.041" x2="76.041" y1="0.000" y2="595.911" class="line"/>
    <line x1="90.214" x2="90.214" y1="0.000" y2="595.911" class="line"/>
    <line x1="104.387" x2="104.387" y1="0.000" y2="595.911" class="line"/>
    <line x1="118.560" x2="118.560" y1="0.000" y2="595.911" class="line"/>
    <line x1="132.734" x2="132.734" y1="0.000" y2="595.911" class="line"/>
    <line x1="146.907" x2="146.907" y1="0.000" y2="595.911" class="line"/>
    <line x1="161.080" x2="161.080" y1="0.000" y2="595.911" class="line"/>
    <line x1="175.253" x2="175.253" y1="0.000" y2="595.911" class="line"/>
    <line x1="189.426" x2="189.426" y1="0.000" y2="595.911" class="line"/>
    <line x1="203.600" x2="203.600" y1="0.000" y2="595.911" class="line"/>
    <line x1="217.773" x2="217.773" y1="0.000" y2="595.911" class="line"/>
    <line x1="231.946" x2="231.946" y1="0.000" y2="595.911" class="line"/>
    <line x1="246.119" x2="246.119" y1="0.000" y2="595.911" class="line"/>
    <line x1="260.293" x2="260.293" y1="0.000" y2="595.911" class="line"/>
    <line x1="274.466" x2="274.466" y1="0.000" y2="595.911" class="line"/>
    <line x1="288.639" x2="288.639" y1="0.000" y2="595.911" class="line"/>
    <line x1="302.812" x2="302.812" y1="0.000" y2="595.911" class="line"/>
    <line x1="316.986" x2="316.986" y1="0.000" y2="595.911" class="line"/>
    <line x1="331.159" x2="331.159" y1="0.000" y2="595.911" class="line"/>
    <line x1="345.332" x2="345.332" y1="0.000" y2="595.911" class="line"/>
    <line x1="359.505" x2="359.505" y1="0.000" y2="595.911" class="line"/>
    <line x1="373.678" x2="373.678" y1="0.000" y2="595.911" class="line"/>
    <line x1="387.852" x2="387.852" y1="0.000" y2="595.911" class="line"/>
    <line x1="402.025" x2="402.025" y1="0.000" y2="595.911" class="line"/>
    <line x1="416.198" x2="416.198" y1="0.000" y2="595.911" class="line"/>
  </g>
  <rect x="116.186299902057" y="569.910845455389" width="189" height="12" fill="#ffffff" stroke="none" stroke-width="0px"/>
  <text x="210.686299902057" y="577.910845455389" text-anchor="middle" fill="#b3b3ff" stroke="none" stroke-width="0" style="font-family: &quot;Courier&quot;, &quot;Courier New&quot;, monospace; font-size: 6pt;">https://github.com/dse/printable-paper</text>
</svg>
