<?xml version="1.0" encoding="UTF-8"?>
<svg xmlns="http://www.w3.org/2000/svg" width="419.528pt" height="595.276pt" viewBox="0.000 0.000 419.528 595.276">
  <style>        .line, .dot { stroke-linecap: round; }
        .stroke-linecap-butt { stroke-linecap: butt; }

        .rectangle { fill: #ffffff; }

        .line.xx-thin    { stroke-width: 0.32px; }
        .line.x-thin     { stroke-width: 0.48px; }
        .line.thin       { stroke-width: 0.64px; }
        .line.semi-thin  { stroke-width: 0.783837px; }
        .line            { stroke-width: 0.96px; }
        .line.semi-thick { stroke-width: 1.17576px; }
        .line.thick      { stroke-width: 1.44px; }

        .dot.xx-thin     { stroke-width: 0.64px; }
        .dot.x-thin      { stroke-width: 0.96px; }
        .dot.thin        { stroke-width: 1.28px; }
        .dot.semi-thin   { stroke-width: 1.56767px; }
        .dot             { stroke-width: 1.92px; }
        .dot.semi-thick  { stroke-width: 2.35151px; }
        .dot.thick       { stroke-width: 2.88px; }

        .stroke-1  { stroke-width: 0.12px; stroke-linecap: round; }
        .stroke-2  { stroke-width: 0.24px; stroke-linecap: round; }
        .stroke-3  { stroke-width: 0.36px; stroke-linecap: round; }
        .stroke-4  { stroke-width: 0.48px; stroke-linecap: round; }
        .stroke-5  { stroke-width: 0.6px; stroke-linecap: round; }
        .stroke-6  { stroke-width: 0.72px; stroke-linecap: round; }
        .stroke-7  { stroke-width: 0.84px; stroke-linecap: round; }
        .stroke-8  { stroke-width: 0.96px; stroke-linecap: round; }
        .stroke-9  { stroke-width: 1.08px; stroke-linecap: round; }
        .stroke-10 { stroke-width: 1.2px; stroke-linecap: round; }
        .stroke-11 { stroke-width: 1.32px; stroke-linecap: round; }
        .stroke-12 { stroke-width: 1.44px; stroke-linecap: round; }
        .stroke-13 { stroke-width: 1.56px; stroke-linecap: round; }
        .stroke-14 { stroke-width: 1.68px; stroke-linecap: round; }
        .stroke-15 { stroke-width: 1.8px; stroke-linecap: round; }
        .stroke-16 { stroke-width: 1.92px; stroke-linecap: round; }
        .stroke-17 { stroke-width: 2.04px; stroke-linecap: round; }
        .stroke-18 { stroke-width: 2.16px; stroke-linecap: round; }
        .stroke-19 { stroke-width: 2.28px; stroke-linecap: round; }
        .stroke-20 { stroke-width: 2.4px; stroke-linecap: round; }
        .stroke-21 { stroke-width: 2.52px; stroke-linecap: round; }
        .stroke-22 { stroke-width: 2.64px; stroke-linecap: round; }
        .stroke-23 { stroke-width: 2.76px; stroke-linecap: round; }
        .stroke-24 { stroke-width: 2.88px; stroke-linecap: round; }

        .blue  { stroke: #b3b3ff; }
        .red   { stroke: #ff9999; }
        .green { stroke: #b3ffb3; }
        .gray  { stroke: #b3b3b3; }

        .thin-black               { stroke-width: 0.12px; stroke: #000000; }
        .thin-black.stroke-6      { stroke-width: 0.72px; }
        .thin-black.stroke-4      { stroke-width: 0.48px; }
        .thin-black.stroke-2      { stroke-width: 0.24px; }
        .thin-black.stroke-half   { stroke-width: 0.12px; stroke: #808080; }
        .thin-black.stroke-quater { stroke-width: 0.12px; stroke: #c0c0c0; }

        .thin-blue                { stroke-width: 0.24px; stroke: #8080ff; }
        .thin-blue.stroke-6       { stroke-width: 1.44px; }
        .thin-blue.stroke-4       { stroke-width: 0.96px; }
        .thin-blue.stroke-2       { stroke-width: 0.48px; }
        .thin-blue.stroke-half    { stroke-width: 0.12px; stroke: #8080ff; }
        .thin-blue.stroke-quarter { stroke-width: 0.12px; stroke: #c0c0ff; }

        .thin-gray                { stroke-width: 0.24px; stroke: #808080; }
        .thin-gray.stroke-6       { stroke-width: 1.44px; }
        .thin-gray.stroke-4       { stroke-width: 0.96px; }
        .thin-gray.stroke-2       { stroke-width: 0.48px; }
        .thin-gray.stroke-half    { stroke-width: 0.12px; stroke: #808080; }
        .thin-gray.stroke-quarter { stroke-width: 0.12px; stroke: #c0c0c0; }

        .light.blue  { stroke: #d9d9ff; }
        .light.red   { stroke: #ffcccc; }
        .light.green { stroke: #d9ffd9; }
        .light.gray  { stroke: #d9d9d9; }

        .dark.blue  { stroke: #6767ff; }
        .dark.red   { stroke: #ff3333; }
        .dark.green { stroke: #67ff67; }
        .dark.gray  { stroke: #676767; }

        .alternate.blue  { stroke: #6767ff; opacity: 0.5; }
        .alternate.red   { stroke: #ff3333; opacity: 0.5; }
        .alternate.green { stroke: #67ff67; opacity: 0.5; }
        .alternate.gray  { stroke: #676767; opacity: 0.5; }

        .gray20 { stroke: #333333; }
        .gray40 { stroke: #666666; }
        .gray60 { stroke: #999999; }
        .gray80 { stroke: #cccccc; }
</style>
  <defs/>
  <g id="grid">
    <line x1="0.000" x2="419.528" y1="0.000" y2="0.000" class="thin blue line"/>
    <line x1="0.000" x2="419.528" y1="14.173" y2="14.173" class="thin blue line"/>
    <line x1="0.000" x2="419.528" y1="28.347" y2="28.347" class="thin blue line"/>
    <line x1="0.000" x2="419.528" y1="42.520" y2="42.520" class="thin blue line"/>
    <line x1="0.000" x2="419.528" y1="56.693" y2="56.693" class="thin blue line"/>
    <line x1="0.000" x2="419.528" y1="70.866" y2="70.866" class="thin blue line"/>
    <line x1="0.000" x2="419.528" y1="85.040" y2="85.040" class="thin blue line"/>
    <line x1="0.000" x2="419.528" y1="99.213" y2="99.213" class="thin blue line"/>
    <line x1="0.000" x2="419.528" y1="113.386" y2="113.386" class="thin blue line"/>
    <line x1="0.000" x2="419.528" y1="127.559" y2="127.559" class="thin blue line"/>
    <line x1="0.000" x2="419.528" y1="141.732" y2="141.732" class="thin blue line"/>
    <line x1="0.000" x2="419.528" y1="155.906" y2="155.906" class="thin blue line"/>
    <line x1="0.000" x2="419.528" y1="170.079" y2="170.079" class="thin blue line"/>
    <line x1="0.000" x2="419.528" y1="184.252" y2="184.252" class="thin blue line"/>
    <line x1="0.000" x2="419.528" y1="198.425" y2="198.425" class="thin blue line"/>
    <line x1="0.000" x2="419.528" y1="212.599" y2="212.599" class="thin blue line"/>
    <line x1="0.000" x2="419.528" y1="226.772" y2="226.772" class="thin blue line"/>
    <line x1="0.000" x2="419.528" y1="240.945" y2="240.945" class="thin blue line"/>
    <line x1="0.000" x2="419.528" y1="255.118" y2="255.118" class="thin blue line"/>
    <line x1="0.000" x2="419.528" y1="269.292" y2="269.292" class="thin blue line"/>
    <line x1="0.000" x2="419.528" y1="283.465" y2="283.465" class="thin blue line"/>
    <line x1="0.000" x2="419.528" y1="297.638" y2="297.638" class="thin blue line"/>
    <line x1="0.000" x2="419.528" y1="311.811" y2="311.811" class="thin blue line"/>
    <line x1="0.000" x2="419.528" y1="325.984" y2="325.984" class="thin blue line"/>
    <line x1="0.000" x2="419.528" y1="340.158" y2="340.158" class="thin blue line"/>
    <line x1="0.000" x2="419.528" y1="354.331" y2="354.331" class="thin blue line"/>
    <line x1="0.000" x2="419.528" y1="368.504" y2="368.504" class="thin blue line"/>
    <line x1="0.000" x2="419.528" y1="382.677" y2="382.677" class="thin blue line"/>
    <line x1="0.000" x2="419.528" y1="396.851" y2="396.851" class="thin blue line"/>
    <line x1="0.000" x2="419.528" y1="411.024" y2="411.024" class="thin blue line"/>
    <line x1="0.000" x2="419.528" y1="425.197" y2="425.197" class="thin blue line"/>
    <line x1="0.000" x2="419.528" y1="439.370" y2="439.370" class="thin blue line"/>
    <line x1="0.000" x2="419.528" y1="453.544" y2="453.544" class="thin blue line"/>
    <line x1="0.000" x2="419.528" y1="467.717" y2="467.717" class="thin blue line"/>
    <line x1="0.000" x2="419.528" y1="481.890" y2="481.890" class="thin blue line"/>
    <line x1="0.000" x2="419.528" y1="496.063" y2="496.063" class="thin blue line"/>
    <line x1="0.000" x2="419.528" y1="510.236" y2="510.236" class="thin blue line"/>
    <line x1="0.000" x2="419.528" y1="524.410" y2="524.410" class="thin blue line"/>
    <line x1="0.000" x2="419.528" y1="538.583" y2="538.583" class="thin blue line"/>
    <line x1="0.000" x2="419.528" y1="552.756" y2="552.756" class="thin blue line"/>
    <line x1="0.000" x2="419.528" y1="566.929" y2="566.929" class="thin blue line"/>
    <line x1="0.000" x2="419.528" y1="581.103" y2="581.103" class="thin blue line"/>
    <line x1="0.000" x2="419.528" y1="595.276" y2="595.276" class="thin blue line"/>
    <line x1="11.339" x2="11.339" y1="0.000" y2="595.276" class="thin blue line"/>
    <line x1="25.512" x2="25.512" y1="0.000" y2="595.276" class="thin blue line"/>
    <line x1="39.685" x2="39.685" y1="0.000" y2="595.276" class="thin blue line"/>
    <line x1="53.858" x2="53.858" y1="0.000" y2="595.276" class="thin blue line"/>
    <line x1="68.032" x2="68.032" y1="0.000" y2="595.276" class="thin blue line"/>
    <line x1="82.205" x2="82.205" y1="0.000" y2="595.276" class="thin blue line"/>
    <line x1="96.378" x2="96.378" y1="0.000" y2="595.276" class="thin blue line"/>
    <line x1="110.551" x2="110.551" y1="0.000" y2="595.276" class="thin blue line"/>
    <line x1="124.725" x2="124.725" y1="0.000" y2="595.276" class="thin blue line"/>
    <line x1="138.898" x2="138.898" y1="0.000" y2="595.276" class="thin blue line"/>
    <line x1="153.071" x2="153.071" y1="0.000" y2="595.276" class="thin blue line"/>
    <line x1="167.244" x2="167.244" y1="0.000" y2="595.276" class="thin blue line"/>
    <line x1="181.418" x2="181.418" y1="0.000" y2="595.276" class="thin blue line"/>
    <line x1="195.591" x2="195.591" y1="0.000" y2="595.276" class="thin blue line"/>
    <line x1="209.764" x2="209.764" y1="0.000" y2="595.276" class="thin blue line"/>
    <line x1="223.937" x2="223.937" y1="0.000" y2="595.276" class="thin blue line"/>
    <line x1="238.110" x2="238.110" y1="0.000" y2="595.276" class="thin blue line"/>
    <line x1="252.284" x2="252.284" y1="0.000" y2="595.276" class="thin blue line"/>
    <line x1="266.457" x2="266.457" y1="0.000" y2="595.276" class="thin blue line"/>
    <line x1="280.630" x2="280.630" y1="0.000" y2="595.276" class="thin blue line"/>
    <line x1="294.803" x2="294.803" y1="0.000" y2="595.276" class="thin blue line"/>
    <line x1="308.977" x2="308.977" y1="0.000" y2="595.276" class="thin blue line"/>
    <line x1="323.150" x2="323.150" y1="0.000" y2="595.276" class="thin blue line"/>
    <line x1="337.323" x2="337.323" y1="0.000" y2="595.276" class="thin blue line"/>
    <line x1="351.496" x2="351.496" y1="0.000" y2="595.276" class="thin blue line"/>
    <line x1="365.670" x2="365.670" y1="0.000" y2="595.276" class="thin blue line"/>
    <line x1="379.843" x2="379.843" y1="0.000" y2="595.276" class="thin blue line"/>
    <line x1="394.016" x2="394.016" y1="0.000" y2="595.276" class="thin blue line"/>
    <line x1="408.189" x2="408.189" y1="0.000" y2="595.276" class="thin blue line"/>
  </g>
  <rect x="115.264" y="569.276" width="189" height="12" fill="#ffffff" stroke="none" stroke-width="0px"/>
  <text x="209.764" y="577.276" text-anchor="middle" fill="#b3b3ff" stroke="none" stroke-width="0" style="font-family: &quot;Courier&quot;, &quot;Courier New&quot;, monospace; font-size: 6pt;">https://github.com/dse/printable-paper</text>
</svg>
