<?xml version="1.0" encoding="UTF-8"?>
<svg xmlns="http://www.w3.org/2000/svg" width="595.911pt" height="842.745pt" viewBox="0.000 0.000 595.911 842.745">
  <style>
        .line, .dot, .major-line, .feint-line, .margin-line { stroke-linecap: round; }
        .stroke-linecap-butt { stroke-linecap: butt; }
        .rectangle { fill: #ffffff; }


        .line        { stroke-width: 0.96px; opacity:  1; }
        .major-line  { stroke-width: 1.35764501987817px; opacity: 1; }
        .feint-line  { stroke-width: 0.678822509939086px; opacity:  1; }
        .dot         { stroke-width: 1.92px; opacity:  1; }
        .margin-line { stroke-width: 0.96px; opacity:  1; }
        .line        { stroke: #b3b3ff; }
        .major-line  { stroke: #b3b3ff; }
        .feint-line  { stroke: #b3b3ff; }
        .dot         { stroke: #b3b3ff; }
        .margin-line { stroke: #ff9e9e; }
  </style>
  <defs/>
  <g id="grid">
    <line x1="0.000" x2="595.911" y1="4.680" y2="4.680" class="line"/>
    <line x1="0.000" x2="595.911" y1="21.688" y2="21.688" class="line"/>
    <line x1="0.000" x2="595.911" y1="38.695" y2="38.695" class="line"/>
    <line x1="0.000" x2="595.911" y1="55.703" y2="55.703" class="line"/>
    <line x1="0.000" x2="595.911" y1="72.711" y2="72.711" class="line"/>
    <line x1="0.000" x2="595.911" y1="89.719" y2="89.719" class="line"/>
    <line x1="0.000" x2="595.911" y1="106.727" y2="106.727" class="line"/>
    <line x1="0.000" x2="595.911" y1="123.735" y2="123.735" class="line"/>
    <line x1="0.000" x2="595.911" y1="140.743" y2="140.743" class="line"/>
    <line x1="0.000" x2="595.911" y1="157.751" y2="157.751" class="line"/>
    <line x1="0.000" x2="595.911" y1="174.758" y2="174.758" class="line"/>
    <line x1="0.000" x2="595.911" y1="191.766" y2="191.766" class="line"/>
    <line x1="0.000" x2="595.911" y1="208.774" y2="208.774" class="line"/>
    <line x1="0.000" x2="595.911" y1="225.782" y2="225.782" class="line"/>
    <line x1="0.000" x2="595.911" y1="242.790" y2="242.790" class="line"/>
    <line x1="0.000" x2="595.911" y1="259.798" y2="259.798" class="line"/>
    <line x1="0.000" x2="595.911" y1="276.806" y2="276.806" class="line"/>
    <line x1="0.000" x2="595.911" y1="293.814" y2="293.814" class="line"/>
    <line x1="0.000" x2="595.911" y1="310.821" y2="310.821" class="line"/>
    <line x1="0.000" x2="595.911" y1="327.829" y2="327.829" class="line"/>
    <line x1="0.000" x2="595.911" y1="344.837" y2="344.837" class="line"/>
    <line x1="0.000" x2="595.911" y1="361.845" y2="361.845" class="line"/>
    <line x1="0.000" x2="595.911" y1="378.853" y2="378.853" class="line"/>
    <line x1="0.000" x2="595.911" y1="395.861" y2="395.861" class="line"/>
    <line x1="0.000" x2="595.911" y1="412.869" y2="412.869" class="line"/>
    <line x1="0.000" x2="595.911" y1="429.877" y2="429.877" class="line"/>
    <line x1="0.000" x2="595.911" y1="446.884" y2="446.884" class="line"/>
    <line x1="0.000" x2="595.911" y1="463.892" y2="463.892" class="line"/>
    <line x1="0.000" x2="595.911" y1="480.900" y2="480.900" class="line"/>
    <line x1="0.000" x2="595.911" y1="497.908" y2="497.908" class="line"/>
    <line x1="0.000" x2="595.911" y1="514.916" y2="514.916" class="line"/>
    <line x1="0.000" x2="595.911" y1="531.924" y2="531.924" class="line"/>
    <line x1="0.000" x2="595.911" y1="548.932" y2="548.932" class="line"/>
    <line x1="0.000" x2="595.911" y1="565.940" y2="565.940" class="line"/>
    <line x1="0.000" x2="595.911" y1="582.947" y2="582.947" class="line"/>
    <line x1="0.000" x2="595.911" y1="599.955" y2="599.955" class="line"/>
    <line x1="0.000" x2="595.911" y1="616.963" y2="616.963" class="line"/>
    <line x1="0.000" x2="595.911" y1="633.971" y2="633.971" class="line"/>
    <line x1="0.000" x2="595.911" y1="650.979" y2="650.979" class="line"/>
    <line x1="0.000" x2="595.911" y1="667.987" y2="667.987" class="line"/>
    <line x1="0.000" x2="595.911" y1="684.995" y2="684.995" class="line"/>
    <line x1="0.000" x2="595.911" y1="702.003" y2="702.003" class="line"/>
    <line x1="0.000" x2="595.911" y1="719.010" y2="719.010" class="line"/>
    <line x1="0.000" x2="595.911" y1="736.018" y2="736.018" class="line"/>
    <line x1="0.000" x2="595.911" y1="753.026" y2="753.026" class="line"/>
    <line x1="0.000" x2="595.911" y1="770.034" y2="770.034" class="line"/>
    <line x1="0.000" x2="595.911" y1="787.042" y2="787.042" class="line"/>
    <line x1="0.000" x2="595.911" y1="804.050" y2="804.050" class="line"/>
    <line x1="0.000" x2="595.911" y1="821.058" y2="821.058" class="line"/>
    <line x1="0.000" x2="595.911" y1="838.066" y2="838.066" class="line"/>
    <line x1="0.318" x2="0.318" y1="0.000" y2="842.745" class="line"/>
    <line x1="17.326" x2="17.326" y1="0.000" y2="842.745" class="line"/>
    <line x1="34.333" x2="34.333" y1="0.000" y2="842.745" class="line"/>
    <line x1="51.341" x2="51.341" y1="0.000" y2="842.745" class="line"/>
    <line x1="68.349" x2="68.349" y1="0.000" y2="842.745" class="line"/>
    <line x1="85.357" x2="85.357" y1="0.000" y2="842.745" class="line"/>
    <line x1="102.365" x2="102.365" y1="0.000" y2="842.745" class="line"/>
    <line x1="119.373" x2="119.373" y1="0.000" y2="842.745" class="line"/>
    <line x1="136.381" x2="136.381" y1="0.000" y2="842.745" class="line"/>
    <line x1="153.388" x2="153.388" y1="0.000" y2="842.745" class="line"/>
    <line x1="170.396" x2="170.396" y1="0.000" y2="842.745" class="line"/>
    <line x1="187.404" x2="187.404" y1="0.000" y2="842.745" class="line"/>
    <line x1="204.412" x2="204.412" y1="0.000" y2="842.745" class="line"/>
    <line x1="221.420" x2="221.420" y1="0.000" y2="842.745" class="line"/>
    <line x1="238.428" x2="238.428" y1="0.000" y2="842.745" class="line"/>
    <line x1="255.436" x2="255.436" y1="0.000" y2="842.745" class="line"/>
    <line x1="272.444" x2="272.444" y1="0.000" y2="842.745" class="line"/>
    <line x1="289.451" x2="289.451" y1="0.000" y2="842.745" class="line"/>
    <line x1="306.459" x2="306.459" y1="0.000" y2="842.745" class="line"/>
    <line x1="323.467" x2="323.467" y1="0.000" y2="842.745" class="line"/>
    <line x1="340.475" x2="340.475" y1="0.000" y2="842.745" class="line"/>
    <line x1="357.483" x2="357.483" y1="0.000" y2="842.745" class="line"/>
    <line x1="374.491" x2="374.491" y1="0.000" y2="842.745" class="line"/>
    <line x1="391.499" x2="391.499" y1="0.000" y2="842.745" class="line"/>
    <line x1="408.507" x2="408.507" y1="0.000" y2="842.745" class="line"/>
    <line x1="425.514" x2="425.514" y1="0.000" y2="842.745" class="line"/>
    <line x1="442.522" x2="442.522" y1="0.000" y2="842.745" class="line"/>
    <line x1="459.530" x2="459.530" y1="0.000" y2="842.745" class="line"/>
    <line x1="476.538" x2="476.538" y1="0.000" y2="842.745" class="line"/>
    <line x1="493.546" x2="493.546" y1="0.000" y2="842.745" class="line"/>
    <line x1="510.554" x2="510.554" y1="0.000" y2="842.745" class="line"/>
    <line x1="527.562" x2="527.562" y1="0.000" y2="842.745" class="line"/>
    <line x1="544.570" x2="544.570" y1="0.000" y2="842.745" class="line"/>
    <line x1="561.577" x2="561.577" y1="0.000" y2="842.745" class="line"/>
    <line x1="578.585" x2="578.585" y1="0.000" y2="842.745" class="line"/>
    <line x1="595.593" x2="595.593" y1="0.000" y2="842.745" class="line"/>
  </g>
  <rect x="203.455422727694" y="816.745199608227" width="189" height="12" fill="#ffffff" stroke="none" stroke-width="0px"/>
  <text x="297.955422727694" y="824.745199608227" text-anchor="middle" fill="#b3b3ff" stroke="none" stroke-width="0" style="font-family: &quot;Courier&quot;, &quot;Courier New&quot;, monospace; font-size: 6pt;">https://github.com/dse/printable-paper</text>
</svg>
