<?xml version="1.0" encoding="UTF-8"?>
<svg xmlns="http://www.w3.org/2000/svg" width="612pt" height="792pt" viewBox="0 0 612 792">
  <defs/>
  <style>        .line, .dot { stroke-linecap: round; }
        .stroke-linecap-butt { stroke-linecap: butt; }

        .line            { stroke-width: 0.72pt; }
        .line.xx-thin    { stroke-width: 0.24pt; }
        .line.x-thin     { stroke-width: 0.36pt; }
        .line.thin       { stroke-width: 0.48pt; }
        .line.thick      { stroke-width: 1.08pt; }
        .line.semi-thin  { stroke-width: 0.588pt; }
        .line.semi-thick { stroke-width: 0.882pt; }

        .dot             { stroke-width: 1.44pt; }
        .dot.thin        { stroke-width: 0.96pt; }
        .dot.thick       { stroke-width: 2.16pt; }
        .dot.semi-thin   { stroke-width: 1.176pt; }
        .dot.semi-thick  { stroke-width: 1.764pt; }

        .stroke-1     { stroke-width: 0.12pt; stroke-linecap: round; } /* 1/600 in */
        .stroke-2     { stroke-width: 0.24pt; stroke-linecap: round; }
        .stroke-3     { stroke-width: 0.36pt; stroke-linecap: round; }
        .stroke-4     { stroke-width: 0.48pt; stroke-linecap: round; }
        .stroke-5     { stroke-width: 0.60pt; stroke-linecap: round; }
        .stroke-6     { stroke-width: 0.72pt; stroke-linecap: round; }
        .stroke-7     { stroke-width: 0.84pt; stroke-linecap: round; }
        .stroke-8     { stroke-width: 0.96pt; stroke-linecap: round; }
        .stroke-9     { stroke-width: 1.08pt; stroke-linecap: round; }
        .stroke-10    { stroke-width: 1.20pt; stroke-linecap: round; }

        .blue  { stroke: #b3b3ff; }
        .red   { stroke: #ff9999; }
        .green { stroke: #b3ffb3; }
        .gray  { stroke: #b3b3b3; }
        .light.blue  { stroke: #d9d9ff; }
        .light.red   { stroke: #ffcccc; }
        .light.green { stroke: #d9ffd9; }
        .light.gray  { stroke: #d9d9d9; }

        .dark.blue  { stroke: #6767ff; }
        .dark.red   { stroke: #ff3333; }
        .dark.green { stroke: #67ff67; }
        .dark.gray  { stroke: #676767; }

        .alternate-blue  { stroke: #6767ff; opacity: 0.5; }
        .alternate-red   { stroke: #ff3333; opacity: 0.5; }
        .alternate-green { stroke: #67ff67; opacity: 0.5; }
        .alternate-gray  { stroke: #676767; opacity: 0.5; }
</style>
  <g id="grid">
    <line x1="0" x2="612" y1="7.2" y2="7.2" class="x-thin blue line"/>
    <line x1="0" x2="612" y1="21.6" y2="21.6" class="x-thin blue line"/>
    <line x1="0" x2="612" y1="36" y2="36" class="x-thin blue line"/>
    <line x1="0" x2="612" y1="50.4" y2="50.4" class="x-thin blue line"/>
    <line x1="0" x2="612" y1="64.8" y2="64.8" class="x-thin blue line"/>
    <line x1="0" x2="612" y1="79.2" y2="79.2" class="x-thin blue line"/>
    <line x1="0" x2="612" y1="93.6" y2="93.6" class="x-thin blue line"/>
    <line x1="0" x2="612" y1="108" y2="108" class="x-thin blue line"/>
    <line x1="0" x2="612" y1="122.4" y2="122.4" class="x-thin blue line"/>
    <line x1="0" x2="612" y1="136.8" y2="136.8" class="x-thin blue line"/>
    <line x1="0" x2="612" y1="151.2" y2="151.2" class="x-thin blue line"/>
    <line x1="0" x2="612" y1="165.6" y2="165.6" class="x-thin blue line"/>
    <line x1="0" x2="612" y1="180" y2="180" class="x-thin blue line"/>
    <line x1="0" x2="612" y1="194.4" y2="194.4" class="x-thin blue line"/>
    <line x1="0" x2="612" y1="208.8" y2="208.8" class="x-thin blue line"/>
    <line x1="0" x2="612" y1="223.2" y2="223.2" class="x-thin blue line"/>
    <line x1="0" x2="612" y1="237.6" y2="237.6" class="x-thin blue line"/>
    <line x1="0" x2="612" y1="252" y2="252" class="x-thin blue line"/>
    <line x1="0" x2="612" y1="266.4" y2="266.4" class="x-thin blue line"/>
    <line x1="0" x2="612" y1="280.8" y2="280.8" class="x-thin blue line"/>
    <line x1="0" x2="612" y1="295.2" y2="295.2" class="x-thin blue line"/>
    <line x1="0" x2="612" y1="309.6" y2="309.6" class="x-thin blue line"/>
    <line x1="0" x2="612" y1="324" y2="324" class="x-thin blue line"/>
    <line x1="0" x2="612" y1="338.4" y2="338.4" class="x-thin blue line"/>
    <line x1="0" x2="612" y1="352.8" y2="352.8" class="x-thin blue line"/>
    <line x1="0" x2="612" y1="367.2" y2="367.2" class="x-thin blue line"/>
    <line x1="0" x2="612" y1="381.6" y2="381.6" class="x-thin blue line"/>
    <line x1="0" x2="612" y1="396" y2="396" class="x-thin blue line"/>
    <line x1="0" x2="612" y1="410.4" y2="410.4" class="x-thin blue line"/>
    <line x1="0" x2="612" y1="424.8" y2="424.8" class="x-thin blue line"/>
    <line x1="0" x2="612" y1="439.2" y2="439.2" class="x-thin blue line"/>
    <line x1="0" x2="612" y1="453.6" y2="453.6" class="x-thin blue line"/>
    <line x1="0" x2="612" y1="468" y2="468" class="x-thin blue line"/>
    <line x1="0" x2="612" y1="482.4" y2="482.4" class="x-thin blue line"/>
    <line x1="0" x2="612" y1="496.8" y2="496.8" class="x-thin blue line"/>
    <line x1="0" x2="612" y1="511.2" y2="511.2" class="x-thin blue line"/>
    <line x1="0" x2="612" y1="525.6" y2="525.6" class="x-thin blue line"/>
    <line x1="0" x2="612" y1="540" y2="540" class="x-thin blue line"/>
    <line x1="0" x2="612" y1="554.4" y2="554.4" class="x-thin blue line"/>
    <line x1="0" x2="612" y1="568.8" y2="568.8" class="x-thin blue line"/>
    <line x1="0" x2="612" y1="583.2" y2="583.2" class="x-thin blue line"/>
    <line x1="0" x2="612" y1="597.6" y2="597.6" class="x-thin blue line"/>
    <line x1="0" x2="612" y1="612" y2="612" class="x-thin blue line"/>
    <line x1="0" x2="612" y1="626.4" y2="626.4" class="x-thin blue line"/>
    <line x1="0" x2="612" y1="640.8" y2="640.8" class="x-thin blue line"/>
    <line x1="0" x2="612" y1="655.2" y2="655.2" class="x-thin blue line"/>
    <line x1="0" x2="612" y1="669.6" y2="669.6" class="x-thin blue line"/>
    <line x1="0" x2="612" y1="684" y2="684" class="x-thin blue line"/>
    <line x1="0" x2="612" y1="698.4" y2="698.4" class="x-thin blue line"/>
    <line x1="0" x2="612" y1="712.8" y2="712.8" class="x-thin blue line"/>
    <line x1="0" x2="612" y1="727.2" y2="727.2" class="x-thin blue line"/>
    <line x1="0" x2="612" y1="741.6" y2="741.6" class="x-thin blue line"/>
    <line x1="0" x2="612" y1="756" y2="756" class="x-thin blue line"/>
    <line x1="0" x2="612" y1="770.4" y2="770.4" class="x-thin blue line"/>
    <line x1="0" x2="612" y1="784.8" y2="784.8" class="x-thin blue line"/>
    <line x1="3.6" x2="3.6" y1="0" y2="792" class="x-thin blue line"/>
    <line x1="18" x2="18" y1="0" y2="792" class="x-thin blue line"/>
    <line x1="32.4" x2="32.4" y1="0" y2="792" class="x-thin blue line"/>
    <line x1="46.8" x2="46.8" y1="0" y2="792" class="x-thin blue line"/>
    <line x1="61.2" x2="61.2" y1="0" y2="792" class="x-thin blue line"/>
    <line x1="75.6" x2="75.6" y1="0" y2="792" class="x-thin blue line"/>
    <line x1="90" x2="90" y1="0" y2="792" class="x-thin blue line"/>
    <line x1="104.4" x2="104.4" y1="0" y2="792" class="x-thin blue line"/>
    <line x1="118.8" x2="118.8" y1="0" y2="792" class="x-thin blue line"/>
    <line x1="133.2" x2="133.2" y1="0" y2="792" class="x-thin blue line"/>
    <line x1="147.6" x2="147.6" y1="0" y2="792" class="x-thin blue line"/>
    <line x1="162" x2="162" y1="0" y2="792" class="x-thin blue line"/>
    <line x1="176.4" x2="176.4" y1="0" y2="792" class="x-thin blue line"/>
    <line x1="190.8" x2="190.8" y1="0" y2="792" class="x-thin blue line"/>
    <line x1="205.2" x2="205.2" y1="0" y2="792" class="x-thin blue line"/>
    <line x1="219.6" x2="219.6" y1="0" y2="792" class="x-thin blue line"/>
    <line x1="234" x2="234" y1="0" y2="792" class="x-thin blue line"/>
    <line x1="248.4" x2="248.4" y1="0" y2="792" class="x-thin blue line"/>
    <line x1="262.8" x2="262.8" y1="0" y2="792" class="x-thin blue line"/>
    <line x1="277.2" x2="277.2" y1="0" y2="792" class="x-thin blue line"/>
    <line x1="291.6" x2="291.6" y1="0" y2="792" class="x-thin blue line"/>
    <line x1="306" x2="306" y1="0" y2="792" class="x-thin blue line"/>
    <line x1="320.4" x2="320.4" y1="0" y2="792" class="x-thin blue line"/>
    <line x1="334.8" x2="334.8" y1="0" y2="792" class="x-thin blue line"/>
    <line x1="349.2" x2="349.2" y1="0" y2="792" class="x-thin blue line"/>
    <line x1="363.6" x2="363.6" y1="0" y2="792" class="x-thin blue line"/>
    <line x1="378" x2="378" y1="0" y2="792" class="x-thin blue line"/>
    <line x1="392.4" x2="392.4" y1="0" y2="792" class="x-thin blue line"/>
    <line x1="406.8" x2="406.8" y1="0" y2="792" class="x-thin blue line"/>
    <line x1="421.2" x2="421.2" y1="0" y2="792" class="x-thin blue line"/>
    <line x1="435.6" x2="435.6" y1="0" y2="792" class="x-thin blue line"/>
    <line x1="450" x2="450" y1="0" y2="792" class="x-thin blue line"/>
    <line x1="464.4" x2="464.4" y1="0" y2="792" class="x-thin blue line"/>
    <line x1="478.8" x2="478.8" y1="0" y2="792" class="x-thin blue line"/>
    <line x1="493.2" x2="493.2" y1="0" y2="792" class="x-thin blue line"/>
    <line x1="507.6" x2="507.6" y1="0" y2="792" class="x-thin blue line"/>
    <line x1="522" x2="522" y1="0" y2="792" class="x-thin blue line"/>
    <line x1="536.4" x2="536.4" y1="0" y2="792" class="x-thin blue line"/>
    <line x1="550.8" x2="550.8" y1="0" y2="792" class="x-thin blue line"/>
    <line x1="565.2" x2="565.2" y1="0" y2="792" class="x-thin blue line"/>
    <line x1="579.6" x2="579.6" y1="0" y2="792" class="x-thin blue line"/>
    <line x1="594" x2="594" y1="0" y2="792" class="x-thin blue line"/>
    <line x1="608.4" x2="608.4" y1="0" y2="792" class="x-thin blue line"/>
  </g>
  <rect x="211.5" y="766" width="189" height="12" stroke="#b3b3ff" stroke-width="0.24" fill="#ffffff" rx="2pt" ry="2pt"/>
  <text x="306" y="774" text-anchor="middle" fill="#b3b3ff" stroke="none" stroke-width="0" style="font-family: &quot;Courier&quot;, &quot;Courier New&quot;, monospace; font-size: 6pt;">https://github.com/dse/printable-paper</text>
</svg>
