<?xml version="1.0" encoding="UTF-8"?>
<svg xmlns="http://www.w3.org/2000/svg" width="421.373pt" height="595.911pt" viewBox="0.000 0.000 421.373 595.911">
  <style>
        .line, .dot, .major-line, .feint-line, .margin-line { stroke-linecap: round; }
        .stroke-linecap-butt   { stroke-linecap: butt; }
        .stroke-linecap-round  { stroke-linecap: round; }
        .stroke-linecap-square { stroke-linecap: square; }
        .rectangle { fill: #ffffff; }


        .line        { stroke-width: 0.96px; opacity:  1; }
        .major-line  { stroke-width: 1.35764501987817px; opacity: 1; }
        .feint-line  { stroke-width: 0.678822509939086px; opacity:  1; }
        .dot         { stroke-width: 1.92px; opacity:  1; }
        .margin-line { stroke-width: 0.96px; opacity:  1; }
        .line        { stroke: #b3b3ff; }
        .major-line  { stroke: #b3b3ff; }
        .feint-line  { stroke: #b3b3ff; }
        .dot         { stroke: #b3b3ff; }
        .margin-line { stroke: #ff9e9e; }
  </style>
  <defs/>
  <g id="grid">
    <line x1="0.000" x2="421.373" y1="7.404" y2="7.404" class="line horizontal"/>
    <line x1="0.000" x2="421.373" y1="21.577" y2="21.577" class="line horizontal"/>
    <line x1="0.000" x2="421.373" y1="35.751" y2="35.751" class="line horizontal"/>
    <line x1="0.000" x2="421.373" y1="49.924" y2="49.924" class="line horizontal"/>
    <line x1="0.000" x2="421.373" y1="64.097" y2="64.097" class="line horizontal"/>
    <line x1="0.000" x2="421.373" y1="78.270" y2="78.270" class="line horizontal"/>
    <line x1="0.000" x2="421.373" y1="92.444" y2="92.444" class="line horizontal"/>
    <line x1="0.000" x2="421.373" y1="106.617" y2="106.617" class="line horizontal"/>
    <line x1="0.000" x2="421.373" y1="120.790" y2="120.790" class="line horizontal"/>
    <line x1="0.000" x2="421.373" y1="134.963" y2="134.963" class="line horizontal"/>
    <line x1="0.000" x2="421.373" y1="149.137" y2="149.137" class="line horizontal"/>
    <line x1="0.000" x2="421.373" y1="163.310" y2="163.310" class="line horizontal"/>
    <line x1="0.000" x2="421.373" y1="177.483" y2="177.483" class="line horizontal"/>
    <line x1="0.000" x2="421.373" y1="191.656" y2="191.656" class="line horizontal"/>
    <line x1="0.000" x2="421.373" y1="205.829" y2="205.829" class="line horizontal"/>
    <line x1="0.000" x2="421.373" y1="220.003" y2="220.003" class="line horizontal"/>
    <line x1="0.000" x2="421.373" y1="234.176" y2="234.176" class="line horizontal"/>
    <line x1="0.000" x2="421.373" y1="248.349" y2="248.349" class="line horizontal"/>
    <line x1="0.000" x2="421.373" y1="262.522" y2="262.522" class="line horizontal"/>
    <line x1="0.000" x2="421.373" y1="276.696" y2="276.696" class="line horizontal"/>
    <line x1="0.000" x2="421.373" y1="290.869" y2="290.869" class="line horizontal"/>
    <line x1="0.000" x2="421.373" y1="305.042" y2="305.042" class="line horizontal"/>
    <line x1="0.000" x2="421.373" y1="319.215" y2="319.215" class="line horizontal"/>
    <line x1="0.000" x2="421.373" y1="333.388" y2="333.388" class="line horizontal"/>
    <line x1="0.000" x2="421.373" y1="347.562" y2="347.562" class="line horizontal"/>
    <line x1="0.000" x2="421.373" y1="361.735" y2="361.735" class="line horizontal"/>
    <line x1="0.000" x2="421.373" y1="375.908" y2="375.908" class="line horizontal"/>
    <line x1="0.000" x2="421.373" y1="390.081" y2="390.081" class="line horizontal"/>
    <line x1="0.000" x2="421.373" y1="404.255" y2="404.255" class="line horizontal"/>
    <line x1="0.000" x2="421.373" y1="418.428" y2="418.428" class="line horizontal"/>
    <line x1="0.000" x2="421.373" y1="432.601" y2="432.601" class="line horizontal"/>
    <line x1="0.000" x2="421.373" y1="446.774" y2="446.774" class="line horizontal"/>
    <line x1="0.000" x2="421.373" y1="460.948" y2="460.948" class="line horizontal"/>
    <line x1="0.000" x2="421.373" y1="475.121" y2="475.121" class="line horizontal"/>
    <line x1="0.000" x2="421.373" y1="489.294" y2="489.294" class="line horizontal"/>
    <line x1="0.000" x2="421.373" y1="503.467" y2="503.467" class="line horizontal"/>
    <line x1="0.000" x2="421.373" y1="517.640" y2="517.640" class="line horizontal"/>
    <line x1="0.000" x2="421.373" y1="531.814" y2="531.814" class="line horizontal"/>
    <line x1="0.000" x2="421.373" y1="545.987" y2="545.987" class="line horizontal"/>
    <line x1="0.000" x2="421.373" y1="560.160" y2="560.160" class="line horizontal"/>
    <line x1="0.000" x2="421.373" y1="574.333" y2="574.333" class="line horizontal"/>
    <line x1="0.000" x2="421.373" y1="588.507" y2="588.507" class="line horizontal"/>
    <line x1="5.174" x2="5.174" y1="0.000" y2="595.911" class="line vertical"/>
    <line x1="19.348" x2="19.348" y1="0.000" y2="595.911" class="line vertical"/>
    <line x1="33.521" x2="33.521" y1="0.000" y2="595.911" class="line vertical"/>
    <line x1="47.694" x2="47.694" y1="0.000" y2="595.911" class="line vertical"/>
    <line x1="61.867" x2="61.867" y1="0.000" y2="595.911" class="line vertical"/>
    <line x1="76.041" x2="76.041" y1="0.000" y2="595.911" class="line vertical"/>
    <line x1="90.214" x2="90.214" y1="0.000" y2="595.911" class="line vertical"/>
    <line x1="104.387" x2="104.387" y1="0.000" y2="595.911" class="line vertical"/>
    <line x1="118.560" x2="118.560" y1="0.000" y2="595.911" class="line vertical"/>
    <line x1="132.734" x2="132.734" y1="0.000" y2="595.911" class="line vertical"/>
    <line x1="146.907" x2="146.907" y1="0.000" y2="595.911" class="line vertical"/>
    <line x1="161.080" x2="161.080" y1="0.000" y2="595.911" class="line vertical"/>
    <line x1="175.253" x2="175.253" y1="0.000" y2="595.911" class="line vertical"/>
    <line x1="189.426" x2="189.426" y1="0.000" y2="595.911" class="line vertical"/>
    <line x1="203.600" x2="203.600" y1="0.000" y2="595.911" class="line vertical"/>
    <line x1="217.773" x2="217.773" y1="0.000" y2="595.911" class="line vertical"/>
    <line x1="231.946" x2="231.946" y1="0.000" y2="595.911" class="line vertical"/>
    <line x1="246.119" x2="246.119" y1="0.000" y2="595.911" class="line vertical"/>
    <line x1="260.293" x2="260.293" y1="0.000" y2="595.911" class="line vertical"/>
    <line x1="274.466" x2="274.466" y1="0.000" y2="595.911" class="line vertical"/>
    <line x1="288.639" x2="288.639" y1="0.000" y2="595.911" class="line vertical"/>
    <line x1="302.812" x2="302.812" y1="0.000" y2="595.911" class="line vertical"/>
    <line x1="316.986" x2="316.986" y1="0.000" y2="595.911" class="line vertical"/>
    <line x1="331.159" x2="331.159" y1="0.000" y2="595.911" class="line vertical"/>
    <line x1="345.332" x2="345.332" y1="0.000" y2="595.911" class="line vertical"/>
    <line x1="359.505" x2="359.505" y1="0.000" y2="595.911" class="line vertical"/>
    <line x1="373.678" x2="373.678" y1="0.000" y2="595.911" class="line vertical"/>
    <line x1="387.852" x2="387.852" y1="0.000" y2="595.911" class="line vertical"/>
    <line x1="402.025" x2="402.025" y1="0.000" y2="595.911" class="line vertical"/>
    <line x1="416.198" x2="416.198" y1="0.000" y2="595.911" class="line vertical"/>
  </g>
  <rect x="116.186299902057" y="569.910845455389" width="189" height="12" fill="#ffffff" stroke="none" stroke-width="0px"/>
  <text x="210.686299902057" y="577.910845455389" text-anchor="middle" fill="#b3b3ff" stroke="none" stroke-width="0" style="font-family: &quot;Courier&quot;, &quot;Courier New&quot;, monospace; font-size: 6pt;">https://github.com/dse/printable-paper</text>
</svg>
