<?xml version="1.0" encoding="UTF-8"?>
<svg xmlns="http://www.w3.org/2000/svg" width="612.000pt" height="792.000pt" viewBox="0.000 0.000 612.000 792.000">
  <style>
        .line, .regular-line, .major-line, .feint-line,
        .dot,  .regular-dot,  .major-dot,  .feint-dot,
        .margin-line {
            stroke-linecap: round; stroke-linejoin: round;
        }
        .stroke-linecap-butt    { stroke-linecap:  butt;   }
        .stroke-linecap-round   { stroke-linecap:  round;  }
        .stroke-linecap-square  { stroke-linecap:  square; }
        .stroke-linejoin-butt   { stroke-linejoin: butt;   }
        .stroke-linejoin-round  { stroke-linejoin: round;  }
        .stroke-linejoin-square { stroke-linejoin: square; }
        .rectangle { fill: #ffffff; }


        .regular-line { stroke-width: 0.96px; opacity: 1; }
        .major-line   { stroke-width: 1.35764501987817px; opacity: 1;   }
        .feint-line   { stroke-width: 0.678822509939086px; opacity: 1;   }
        .regular-dot  { stroke-width: 1.92px; opacity: 1;  }
        .major-dot    { stroke-width: 3.84px; opacity: 1;    }
        .feint-dot    { stroke-width: 0.96px; opacity: 1;    }
        .margin-line  { stroke-width: 0.96px; opacity: 1;  }
        .regular-line { stroke: #b3b3ff; }
        .major-line   { stroke: #b3b3ff;   }
        .feint-line   { stroke: #b3b3ff;   }
        .regular-dot  { stroke: #b3b3ff; }
        .major-dot    { stroke: #b3b3ff;   }
        .feint-dot    { stroke: #b3b3ff;   }
        .margin-line  { stroke: #ff9e9e;  }
  </style>
  <defs/>
  <g id="grid">
    <line x1="0.000" x2="612.000" y1="0.000" y2="0.000" class="regular-line horizontal"/>
    <line x1="0.000" x2="612.000" y1="14.400" y2="14.400" class="regular-line horizontal"/>
    <line x1="0.000" x2="612.000" y1="28.800" y2="28.800" class="regular-line horizontal"/>
    <line x1="0.000" x2="612.000" y1="43.200" y2="43.200" class="regular-line horizontal"/>
    <line x1="0.000" x2="612.000" y1="57.600" y2="57.600" class="regular-line horizontal"/>
    <line x1="0.000" x2="612.000" y1="72.000" y2="72.000" class="regular-line horizontal"/>
    <line x1="0.000" x2="612.000" y1="86.400" y2="86.400" class="regular-line horizontal"/>
    <line x1="0.000" x2="612.000" y1="100.800" y2="100.800" class="regular-line horizontal"/>
    <line x1="0.000" x2="612.000" y1="115.200" y2="115.200" class="regular-line horizontal"/>
    <line x1="0.000" x2="612.000" y1="129.600" y2="129.600" class="regular-line horizontal"/>
    <line x1="0.000" x2="612.000" y1="144.000" y2="144.000" class="regular-line horizontal"/>
    <line x1="0.000" x2="612.000" y1="158.400" y2="158.400" class="regular-line horizontal"/>
    <line x1="0.000" x2="612.000" y1="172.800" y2="172.800" class="regular-line horizontal"/>
    <line x1="0.000" x2="612.000" y1="187.200" y2="187.200" class="regular-line horizontal"/>
    <line x1="0.000" x2="612.000" y1="201.600" y2="201.600" class="regular-line horizontal"/>
    <line x1="0.000" x2="612.000" y1="216.000" y2="216.000" class="regular-line horizontal"/>
    <line x1="0.000" x2="612.000" y1="230.400" y2="230.400" class="regular-line horizontal"/>
    <line x1="0.000" x2="612.000" y1="244.800" y2="244.800" class="regular-line horizontal"/>
    <line x1="0.000" x2="612.000" y1="259.200" y2="259.200" class="regular-line horizontal"/>
    <line x1="0.000" x2="612.000" y1="273.600" y2="273.600" class="regular-line horizontal"/>
    <line x1="0.000" x2="612.000" y1="288.000" y2="288.000" class="regular-line horizontal"/>
    <line x1="0.000" x2="612.000" y1="302.400" y2="302.400" class="regular-line horizontal"/>
    <line x1="0.000" x2="612.000" y1="316.800" y2="316.800" class="regular-line horizontal"/>
    <line x1="0.000" x2="612.000" y1="331.200" y2="331.200" class="regular-line horizontal"/>
    <line x1="0.000" x2="612.000" y1="345.600" y2="345.600" class="regular-line horizontal"/>
    <line x1="0.000" x2="612.000" y1="360.000" y2="360.000" class="regular-line horizontal"/>
    <line x1="0.000" x2="612.000" y1="374.400" y2="374.400" class="regular-line horizontal"/>
    <line x1="0.000" x2="612.000" y1="388.800" y2="388.800" class="regular-line horizontal"/>
    <line x1="0.000" x2="612.000" y1="403.200" y2="403.200" class="regular-line horizontal"/>
    <line x1="0.000" x2="612.000" y1="417.600" y2="417.600" class="regular-line horizontal"/>
    <line x1="0.000" x2="612.000" y1="432.000" y2="432.000" class="regular-line horizontal"/>
    <line x1="0.000" x2="612.000" y1="446.400" y2="446.400" class="regular-line horizontal"/>
    <line x1="0.000" x2="612.000" y1="460.800" y2="460.800" class="regular-line horizontal"/>
    <line x1="0.000" x2="612.000" y1="475.200" y2="475.200" class="regular-line horizontal"/>
    <line x1="0.000" x2="612.000" y1="489.600" y2="489.600" class="regular-line horizontal"/>
    <line x1="0.000" x2="612.000" y1="504.000" y2="504.000" class="regular-line horizontal"/>
    <line x1="0.000" x2="612.000" y1="518.400" y2="518.400" class="regular-line horizontal"/>
    <line x1="0.000" x2="612.000" y1="532.800" y2="532.800" class="regular-line horizontal"/>
    <line x1="0.000" x2="612.000" y1="547.200" y2="547.200" class="regular-line horizontal"/>
    <line x1="0.000" x2="612.000" y1="561.600" y2="561.600" class="regular-line horizontal"/>
    <line x1="0.000" x2="612.000" y1="576.000" y2="576.000" class="regular-line horizontal"/>
    <line x1="0.000" x2="612.000" y1="590.400" y2="590.400" class="regular-line horizontal"/>
    <line x1="0.000" x2="612.000" y1="604.800" y2="604.800" class="regular-line horizontal"/>
    <line x1="0.000" x2="612.000" y1="619.200" y2="619.200" class="regular-line horizontal"/>
    <line x1="0.000" x2="612.000" y1="633.600" y2="633.600" class="regular-line horizontal"/>
    <line x1="0.000" x2="612.000" y1="648.000" y2="648.000" class="regular-line horizontal"/>
    <line x1="0.000" x2="612.000" y1="662.400" y2="662.400" class="regular-line horizontal"/>
    <line x1="0.000" x2="612.000" y1="676.800" y2="676.800" class="regular-line horizontal"/>
    <line x1="0.000" x2="612.000" y1="691.200" y2="691.200" class="regular-line horizontal"/>
    <line x1="0.000" x2="612.000" y1="705.600" y2="705.600" class="regular-line horizontal"/>
    <line x1="0.000" x2="612.000" y1="720.000" y2="720.000" class="regular-line horizontal"/>
    <line x1="0.000" x2="612.000" y1="734.400" y2="734.400" class="regular-line horizontal"/>
    <line x1="0.000" x2="612.000" y1="748.800" y2="748.800" class="regular-line horizontal"/>
    <line x1="0.000" x2="612.000" y1="763.200" y2="763.200" class="regular-line horizontal"/>
    <line x1="0.000" x2="612.000" y1="777.600" y2="777.600" class="regular-line horizontal"/>
    <line x1="0.000" x2="612.000" y1="792.000" y2="792.000" class="regular-line horizontal"/>
    <line x1="3.600" x2="3.600" y1="0.000" y2="792.000" class="regular-line vertical"/>
    <line x1="18.000" x2="18.000" y1="0.000" y2="792.000" class="regular-line vertical"/>
    <line x1="32.400" x2="32.400" y1="0.000" y2="792.000" class="regular-line vertical"/>
    <line x1="46.800" x2="46.800" y1="0.000" y2="792.000" class="regular-line vertical"/>
    <line x1="61.200" x2="61.200" y1="0.000" y2="792.000" class="regular-line vertical"/>
    <line x1="75.600" x2="75.600" y1="0.000" y2="792.000" class="regular-line vertical"/>
    <line x1="90.000" x2="90.000" y1="0.000" y2="792.000" class="regular-line vertical"/>
    <line x1="104.400" x2="104.400" y1="0.000" y2="792.000" class="regular-line vertical"/>
    <line x1="118.800" x2="118.800" y1="0.000" y2="792.000" class="regular-line vertical"/>
    <line x1="133.200" x2="133.200" y1="0.000" y2="792.000" class="regular-line vertical"/>
    <line x1="147.600" x2="147.600" y1="0.000" y2="792.000" class="regular-line vertical"/>
    <line x1="162.000" x2="162.000" y1="0.000" y2="792.000" class="regular-line vertical"/>
    <line x1="176.400" x2="176.400" y1="0.000" y2="792.000" class="regular-line vertical"/>
    <line x1="190.800" x2="190.800" y1="0.000" y2="792.000" class="regular-line vertical"/>
    <line x1="205.200" x2="205.200" y1="0.000" y2="792.000" class="regular-line vertical"/>
    <line x1="219.600" x2="219.600" y1="0.000" y2="792.000" class="regular-line vertical"/>
    <line x1="234.000" x2="234.000" y1="0.000" y2="792.000" class="regular-line vertical"/>
    <line x1="248.400" x2="248.400" y1="0.000" y2="792.000" class="regular-line vertical"/>
    <line x1="262.800" x2="262.800" y1="0.000" y2="792.000" class="regular-line vertical"/>
    <line x1="277.200" x2="277.200" y1="0.000" y2="792.000" class="regular-line vertical"/>
    <line x1="291.600" x2="291.600" y1="0.000" y2="792.000" class="regular-line vertical"/>
    <line x1="306.000" x2="306.000" y1="0.000" y2="792.000" class="regular-line vertical"/>
    <line x1="320.400" x2="320.400" y1="0.000" y2="792.000" class="regular-line vertical"/>
    <line x1="334.800" x2="334.800" y1="0.000" y2="792.000" class="regular-line vertical"/>
    <line x1="349.200" x2="349.200" y1="0.000" y2="792.000" class="regular-line vertical"/>
    <line x1="363.600" x2="363.600" y1="0.000" y2="792.000" class="regular-line vertical"/>
    <line x1="378.000" x2="378.000" y1="0.000" y2="792.000" class="regular-line vertical"/>
    <line x1="392.400" x2="392.400" y1="0.000" y2="792.000" class="regular-line vertical"/>
    <line x1="406.800" x2="406.800" y1="0.000" y2="792.000" class="regular-line vertical"/>
    <line x1="421.200" x2="421.200" y1="0.000" y2="792.000" class="regular-line vertical"/>
    <line x1="435.600" x2="435.600" y1="0.000" y2="792.000" class="regular-line vertical"/>
    <line x1="450.000" x2="450.000" y1="0.000" y2="792.000" class="regular-line vertical"/>
    <line x1="464.400" x2="464.400" y1="0.000" y2="792.000" class="regular-line vertical"/>
    <line x1="478.800" x2="478.800" y1="0.000" y2="792.000" class="regular-line vertical"/>
    <line x1="493.200" x2="493.200" y1="0.000" y2="792.000" class="regular-line vertical"/>
    <line x1="507.600" x2="507.600" y1="0.000" y2="792.000" class="regular-line vertical"/>
    <line x1="522.000" x2="522.000" y1="0.000" y2="792.000" class="regular-line vertical"/>
    <line x1="536.400" x2="536.400" y1="0.000" y2="792.000" class="regular-line vertical"/>
    <line x1="550.800" x2="550.800" y1="0.000" y2="792.000" class="regular-line vertical"/>
    <line x1="565.200" x2="565.200" y1="0.000" y2="792.000" class="regular-line vertical"/>
    <line x1="579.600" x2="579.600" y1="0.000" y2="792.000" class="regular-line vertical"/>
    <line x1="594.000" x2="594.000" y1="0.000" y2="792.000" class="regular-line vertical"/>
    <line x1="608.400" x2="608.400" y1="0.000" y2="792.000" class="regular-line vertical"/>
  </g>
  <rect x="211.5" y="766" width="189" height="12" fill="#ffffff" stroke="none" stroke-width="0px"/>
  <text x="306" y="774" text-anchor="middle" fill="#b3b3ff" stroke="none" stroke-width="0" style="font-family: &quot;Courier&quot;, &quot;Courier New&quot;, monospace; font-size: 6pt;">https://github.com/dse/printable-paper</text>
</svg>
