<?xml version="1.0" encoding="UTF-8"?>
<svg xmlns="http://www.w3.org/2000/svg" width="421.373pt" height="595.911pt" viewBox="0.000 0.000 421.373 595.911">
  <style>
        .line, .dot, .major-line, .feint-line, .margin-line { stroke-linecap: round; }
        .stroke-linecap-butt   { stroke-linecap: butt; }
        .stroke-linecap-round  { stroke-linecap: round; }
        .stroke-linecap-square { stroke-linecap: square; }
        .rectangle { fill: #ffffff; }


        .line        { stroke-width: 0.96px; opacity:  1; }
        .major-line  { stroke-width: 1.35764501987817px; opacity: 1; }
        .feint-line  { stroke-width: 0.678822509939086px; opacity:  1; }
        .dot         { stroke-width: 1.92px; opacity:  1; }
        .margin-line { stroke-width: 0.96px; opacity:  1; }
        .line        { stroke: #b3b3ff; }
        .major-line  { stroke: #b3b3ff; }
        .feint-line  { stroke: #b3b3ff; }
        .dot         { stroke: #b3b3ff; }
        .margin-line { stroke: #ff9e9e; }
  </style>
  <defs/>
  <g id="grid">
    <line x1="0.000" x2="421.373" y1="0.318" y2="0.318" class="line horizontal"/>
    <line x1="0.000" x2="421.373" y1="14.491" y2="14.491" class="line horizontal"/>
    <line x1="0.000" x2="421.373" y1="28.664" y2="28.664" class="line horizontal"/>
    <line x1="0.000" x2="421.373" y1="42.837" y2="42.837" class="line horizontal"/>
    <line x1="0.000" x2="421.373" y1="57.011" y2="57.011" class="line horizontal"/>
    <line x1="0.000" x2="421.373" y1="71.184" y2="71.184" class="line horizontal"/>
    <line x1="0.000" x2="421.373" y1="85.357" y2="85.357" class="line horizontal"/>
    <line x1="0.000" x2="421.373" y1="99.530" y2="99.530" class="line horizontal"/>
    <line x1="0.000" x2="421.373" y1="113.703" y2="113.703" class="line horizontal"/>
    <line x1="0.000" x2="421.373" y1="127.877" y2="127.877" class="line horizontal"/>
    <line x1="0.000" x2="421.373" y1="142.050" y2="142.050" class="line horizontal"/>
    <line x1="0.000" x2="421.373" y1="156.223" y2="156.223" class="line horizontal"/>
    <line x1="0.000" x2="421.373" y1="170.396" y2="170.396" class="line horizontal"/>
    <line x1="0.000" x2="421.373" y1="184.570" y2="184.570" class="line horizontal"/>
    <line x1="0.000" x2="421.373" y1="198.743" y2="198.743" class="line horizontal"/>
    <line x1="0.000" x2="421.373" y1="212.916" y2="212.916" class="line horizontal"/>
    <line x1="0.000" x2="421.373" y1="227.089" y2="227.089" class="line horizontal"/>
    <line x1="0.000" x2="421.373" y1="241.263" y2="241.263" class="line horizontal"/>
    <line x1="0.000" x2="421.373" y1="255.436" y2="255.436" class="line horizontal"/>
    <line x1="0.000" x2="421.373" y1="269.609" y2="269.609" class="line horizontal"/>
    <line x1="0.000" x2="421.373" y1="283.782" y2="283.782" class="line horizontal"/>
    <line x1="0.000" x2="421.373" y1="297.955" y2="297.955" class="line horizontal"/>
    <line x1="0.000" x2="421.373" y1="312.129" y2="312.129" class="line horizontal"/>
    <line x1="0.000" x2="421.373" y1="326.302" y2="326.302" class="line horizontal"/>
    <line x1="0.000" x2="421.373" y1="340.475" y2="340.475" class="line horizontal"/>
    <line x1="0.000" x2="421.373" y1="354.648" y2="354.648" class="line horizontal"/>
    <line x1="0.000" x2="421.373" y1="368.822" y2="368.822" class="line horizontal"/>
    <line x1="0.000" x2="421.373" y1="382.995" y2="382.995" class="line horizontal"/>
    <line x1="0.000" x2="421.373" y1="397.168" y2="397.168" class="line horizontal"/>
    <line x1="0.000" x2="421.373" y1="411.341" y2="411.341" class="line horizontal"/>
    <line x1="0.000" x2="421.373" y1="425.514" y2="425.514" class="line horizontal"/>
    <line x1="0.000" x2="421.373" y1="439.688" y2="439.688" class="line horizontal"/>
    <line x1="0.000" x2="421.373" y1="453.861" y2="453.861" class="line horizontal"/>
    <line x1="0.000" x2="421.373" y1="468.034" y2="468.034" class="line horizontal"/>
    <line x1="0.000" x2="421.373" y1="482.207" y2="482.207" class="line horizontal"/>
    <line x1="0.000" x2="421.373" y1="496.381" y2="496.381" class="line horizontal"/>
    <line x1="0.000" x2="421.373" y1="510.554" y2="510.554" class="line horizontal"/>
    <line x1="0.000" x2="421.373" y1="524.727" y2="524.727" class="line horizontal"/>
    <line x1="0.000" x2="421.373" y1="538.900" y2="538.900" class="line horizontal"/>
    <line x1="0.000" x2="421.373" y1="553.074" y2="553.074" class="line horizontal"/>
    <line x1="0.000" x2="421.373" y1="567.247" y2="567.247" class="line horizontal"/>
    <line x1="0.000" x2="421.373" y1="581.420" y2="581.420" class="line horizontal"/>
    <line x1="0.000" x2="421.373" y1="595.593" y2="595.593" class="line horizontal"/>
    <line x1="12.261" x2="12.261" y1="0.000" y2="595.911" class="line vertical"/>
    <line x1="26.434" x2="26.434" y1="0.000" y2="595.911" class="line vertical"/>
    <line x1="40.608" x2="40.608" y1="0.000" y2="595.911" class="line vertical"/>
    <line x1="54.781" x2="54.781" y1="0.000" y2="595.911" class="line vertical"/>
    <line x1="68.954" x2="68.954" y1="0.000" y2="595.911" class="line vertical"/>
    <line x1="83.127" x2="83.127" y1="0.000" y2="595.911" class="line vertical"/>
    <line x1="97.300" x2="97.300" y1="0.000" y2="595.911" class="line vertical"/>
    <line x1="111.474" x2="111.474" y1="0.000" y2="595.911" class="line vertical"/>
    <line x1="125.647" x2="125.647" y1="0.000" y2="595.911" class="line vertical"/>
    <line x1="139.820" x2="139.820" y1="0.000" y2="595.911" class="line vertical"/>
    <line x1="153.993" x2="153.993" y1="0.000" y2="595.911" class="line vertical"/>
    <line x1="168.167" x2="168.167" y1="0.000" y2="595.911" class="line vertical"/>
    <line x1="182.340" x2="182.340" y1="0.000" y2="595.911" class="line vertical"/>
    <line x1="196.513" x2="196.513" y1="0.000" y2="595.911" class="line vertical"/>
    <line x1="210.686" x2="210.686" y1="0.000" y2="595.911" class="line vertical"/>
    <line x1="224.860" x2="224.860" y1="0.000" y2="595.911" class="line vertical"/>
    <line x1="239.033" x2="239.033" y1="0.000" y2="595.911" class="line vertical"/>
    <line x1="253.206" x2="253.206" y1="0.000" y2="595.911" class="line vertical"/>
    <line x1="267.379" x2="267.379" y1="0.000" y2="595.911" class="line vertical"/>
    <line x1="281.552" x2="281.552" y1="0.000" y2="595.911" class="line vertical"/>
    <line x1="295.726" x2="295.726" y1="0.000" y2="595.911" class="line vertical"/>
    <line x1="309.899" x2="309.899" y1="0.000" y2="595.911" class="line vertical"/>
    <line x1="324.072" x2="324.072" y1="0.000" y2="595.911" class="line vertical"/>
    <line x1="338.245" x2="338.245" y1="0.000" y2="595.911" class="line vertical"/>
    <line x1="352.419" x2="352.419" y1="0.000" y2="595.911" class="line vertical"/>
    <line x1="366.592" x2="366.592" y1="0.000" y2="595.911" class="line vertical"/>
    <line x1="380.765" x2="380.765" y1="0.000" y2="595.911" class="line vertical"/>
    <line x1="394.938" x2="394.938" y1="0.000" y2="595.911" class="line vertical"/>
    <line x1="409.111" x2="409.111" y1="0.000" y2="595.911" class="line vertical"/>
  </g>
  <rect x="116.186299902057" y="569.910845455389" width="189" height="12" fill="#ffffff" stroke="none" stroke-width="0px"/>
  <text x="210.686299902057" y="577.910845455389" text-anchor="middle" fill="#b3b3ff" stroke="none" stroke-width="0" style="font-family: &quot;Courier&quot;, &quot;Courier New&quot;, monospace; font-size: 6pt;">https://github.com/dse/printable-paper</text>
</svg>
