<?xml version="1.0" encoding="UTF-8"?>
<svg xmlns="http://www.w3.org/2000/svg" width="595.911pt" height="842.745pt" viewBox="0.000 0.000 595.911 842.745">
  <style>
        .line, .dot, .major-line, .feint-line, .margin-line { stroke-linecap: round; }
        .stroke-linecap-butt   { stroke-linecap: butt; }
        .stroke-linecap-round  { stroke-linecap: round; }
        .stroke-linecap-square { stroke-linecap: square; }
        .rectangle { fill: #ffffff; }


        .line        { stroke-width: 0.96px; opacity:  1; }
        .major-line  { stroke-width: 1.35764501987817px; opacity: 1; }
        .feint-line  { stroke-width: 0.678822509939086px; opacity:  1; }
        .dot         { stroke-width: 1.92px; opacity:  1; }
        .margin-line { stroke-width: 0.96px; opacity:  1; }
        .line        { stroke: #b3b3ff; }
        .major-line  { stroke: #b3b3ff; }
        .feint-line  { stroke: #b3b3ff; }
        .dot         { stroke: #b3b3ff; }
        .margin-line { stroke: #ff9e9e; }
  </style>
  <defs/>
  <g id="grid">
    <line x1="0.000" x2="595.911" y1="10.349" y2="10.349" class="line horizontal"/>
    <line x1="0.000" x2="595.911" y1="24.522" y2="24.522" class="line horizontal"/>
    <line x1="0.000" x2="595.911" y1="38.695" y2="38.695" class="line horizontal"/>
    <line x1="0.000" x2="595.911" y1="52.869" y2="52.869" class="line horizontal"/>
    <line x1="0.000" x2="595.911" y1="67.042" y2="67.042" class="line horizontal"/>
    <line x1="0.000" x2="595.911" y1="81.215" y2="81.215" class="line horizontal"/>
    <line x1="0.000" x2="595.911" y1="95.388" y2="95.388" class="line horizontal"/>
    <line x1="0.000" x2="595.911" y1="109.562" y2="109.562" class="line horizontal"/>
    <line x1="0.000" x2="595.911" y1="123.735" y2="123.735" class="line horizontal"/>
    <line x1="0.000" x2="595.911" y1="137.908" y2="137.908" class="line horizontal"/>
    <line x1="0.000" x2="595.911" y1="152.081" y2="152.081" class="line horizontal"/>
    <line x1="0.000" x2="595.911" y1="166.254" y2="166.254" class="line horizontal"/>
    <line x1="0.000" x2="595.911" y1="180.428" y2="180.428" class="line horizontal"/>
    <line x1="0.000" x2="595.911" y1="194.601" y2="194.601" class="line horizontal"/>
    <line x1="0.000" x2="595.911" y1="208.774" y2="208.774" class="line horizontal"/>
    <line x1="0.000" x2="595.911" y1="222.947" y2="222.947" class="line horizontal"/>
    <line x1="0.000" x2="595.911" y1="237.121" y2="237.121" class="line horizontal"/>
    <line x1="0.000" x2="595.911" y1="251.294" y2="251.294" class="line horizontal"/>
    <line x1="0.000" x2="595.911" y1="265.467" y2="265.467" class="line horizontal"/>
    <line x1="0.000" x2="595.911" y1="279.640" y2="279.640" class="line horizontal"/>
    <line x1="0.000" x2="595.911" y1="293.814" y2="293.814" class="line horizontal"/>
    <line x1="0.000" x2="595.911" y1="307.987" y2="307.987" class="line horizontal"/>
    <line x1="0.000" x2="595.911" y1="322.160" y2="322.160" class="line horizontal"/>
    <line x1="0.000" x2="595.911" y1="336.333" y2="336.333" class="line horizontal"/>
    <line x1="0.000" x2="595.911" y1="350.506" y2="350.506" class="line horizontal"/>
    <line x1="0.000" x2="595.911" y1="364.680" y2="364.680" class="line horizontal"/>
    <line x1="0.000" x2="595.911" y1="378.853" y2="378.853" class="line horizontal"/>
    <line x1="0.000" x2="595.911" y1="393.026" y2="393.026" class="line horizontal"/>
    <line x1="0.000" x2="595.911" y1="407.199" y2="407.199" class="line horizontal"/>
    <line x1="0.000" x2="595.911" y1="421.373" y2="421.373" class="line horizontal"/>
    <line x1="0.000" x2="595.911" y1="435.546" y2="435.546" class="line horizontal"/>
    <line x1="0.000" x2="595.911" y1="449.719" y2="449.719" class="line horizontal"/>
    <line x1="0.000" x2="595.911" y1="463.892" y2="463.892" class="line horizontal"/>
    <line x1="0.000" x2="595.911" y1="478.066" y2="478.066" class="line horizontal"/>
    <line x1="0.000" x2="595.911" y1="492.239" y2="492.239" class="line horizontal"/>
    <line x1="0.000" x2="595.911" y1="506.412" y2="506.412" class="line horizontal"/>
    <line x1="0.000" x2="595.911" y1="520.585" y2="520.585" class="line horizontal"/>
    <line x1="0.000" x2="595.911" y1="534.758" y2="534.758" class="line horizontal"/>
    <line x1="0.000" x2="595.911" y1="548.932" y2="548.932" class="line horizontal"/>
    <line x1="0.000" x2="595.911" y1="563.105" y2="563.105" class="line horizontal"/>
    <line x1="0.000" x2="595.911" y1="577.278" y2="577.278" class="line horizontal"/>
    <line x1="0.000" x2="595.911" y1="591.451" y2="591.451" class="line horizontal"/>
    <line x1="0.000" x2="595.911" y1="605.625" y2="605.625" class="line horizontal"/>
    <line x1="0.000" x2="595.911" y1="619.798" y2="619.798" class="line horizontal"/>
    <line x1="0.000" x2="595.911" y1="633.971" y2="633.971" class="line horizontal"/>
    <line x1="0.000" x2="595.911" y1="648.144" y2="648.144" class="line horizontal"/>
    <line x1="0.000" x2="595.911" y1="662.317" y2="662.317" class="line horizontal"/>
    <line x1="0.000" x2="595.911" y1="676.491" y2="676.491" class="line horizontal"/>
    <line x1="0.000" x2="595.911" y1="690.664" y2="690.664" class="line horizontal"/>
    <line x1="0.000" x2="595.911" y1="704.837" y2="704.837" class="line horizontal"/>
    <line x1="0.000" x2="595.911" y1="719.010" y2="719.010" class="line horizontal"/>
    <line x1="0.000" x2="595.911" y1="733.184" y2="733.184" class="line horizontal"/>
    <line x1="0.000" x2="595.911" y1="747.357" y2="747.357" class="line horizontal"/>
    <line x1="0.000" x2="595.911" y1="761.530" y2="761.530" class="line horizontal"/>
    <line x1="0.000" x2="595.911" y1="775.703" y2="775.703" class="line horizontal"/>
    <line x1="0.000" x2="595.911" y1="789.877" y2="789.877" class="line horizontal"/>
    <line x1="0.000" x2="595.911" y1="804.050" y2="804.050" class="line horizontal"/>
    <line x1="0.000" x2="595.911" y1="818.223" y2="818.223" class="line horizontal"/>
    <line x1="0.000" x2="595.911" y1="832.396" y2="832.396" class="line horizontal"/>
    <line x1="0.318" x2="0.318" y1="0.000" y2="842.745" class="line vertical"/>
    <line x1="14.491" x2="14.491" y1="0.000" y2="842.745" class="line vertical"/>
    <line x1="28.664" x2="28.664" y1="0.000" y2="842.745" class="line vertical"/>
    <line x1="42.837" x2="42.837" y1="0.000" y2="842.745" class="line vertical"/>
    <line x1="57.011" x2="57.011" y1="0.000" y2="842.745" class="line vertical"/>
    <line x1="71.184" x2="71.184" y1="0.000" y2="842.745" class="line vertical"/>
    <line x1="85.357" x2="85.357" y1="0.000" y2="842.745" class="line vertical"/>
    <line x1="99.530" x2="99.530" y1="0.000" y2="842.745" class="line vertical"/>
    <line x1="113.703" x2="113.703" y1="0.000" y2="842.745" class="line vertical"/>
    <line x1="127.877" x2="127.877" y1="0.000" y2="842.745" class="line vertical"/>
    <line x1="142.050" x2="142.050" y1="0.000" y2="842.745" class="line vertical"/>
    <line x1="156.223" x2="156.223" y1="0.000" y2="842.745" class="line vertical"/>
    <line x1="170.396" x2="170.396" y1="0.000" y2="842.745" class="line vertical"/>
    <line x1="184.570" x2="184.570" y1="0.000" y2="842.745" class="line vertical"/>
    <line x1="198.743" x2="198.743" y1="0.000" y2="842.745" class="line vertical"/>
    <line x1="212.916" x2="212.916" y1="0.000" y2="842.745" class="line vertical"/>
    <line x1="227.089" x2="227.089" y1="0.000" y2="842.745" class="line vertical"/>
    <line x1="241.263" x2="241.263" y1="0.000" y2="842.745" class="line vertical"/>
    <line x1="255.436" x2="255.436" y1="0.000" y2="842.745" class="line vertical"/>
    <line x1="269.609" x2="269.609" y1="0.000" y2="842.745" class="line vertical"/>
    <line x1="283.782" x2="283.782" y1="0.000" y2="842.745" class="line vertical"/>
    <line x1="297.955" x2="297.955" y1="0.000" y2="842.745" class="line vertical"/>
    <line x1="312.129" x2="312.129" y1="0.000" y2="842.745" class="line vertical"/>
    <line x1="326.302" x2="326.302" y1="0.000" y2="842.745" class="line vertical"/>
    <line x1="340.475" x2="340.475" y1="0.000" y2="842.745" class="line vertical"/>
    <line x1="354.648" x2="354.648" y1="0.000" y2="842.745" class="line vertical"/>
    <line x1="368.822" x2="368.822" y1="0.000" y2="842.745" class="line vertical"/>
    <line x1="382.995" x2="382.995" y1="0.000" y2="842.745" class="line vertical"/>
    <line x1="397.168" x2="397.168" y1="0.000" y2="842.745" class="line vertical"/>
    <line x1="411.341" x2="411.341" y1="0.000" y2="842.745" class="line vertical"/>
    <line x1="425.514" x2="425.514" y1="0.000" y2="842.745" class="line vertical"/>
    <line x1="439.688" x2="439.688" y1="0.000" y2="842.745" class="line vertical"/>
    <line x1="453.861" x2="453.861" y1="0.000" y2="842.745" class="line vertical"/>
    <line x1="468.034" x2="468.034" y1="0.000" y2="842.745" class="line vertical"/>
    <line x1="482.207" x2="482.207" y1="0.000" y2="842.745" class="line vertical"/>
    <line x1="496.381" x2="496.381" y1="0.000" y2="842.745" class="line vertical"/>
    <line x1="510.554" x2="510.554" y1="0.000" y2="842.745" class="line vertical"/>
    <line x1="524.727" x2="524.727" y1="0.000" y2="842.745" class="line vertical"/>
    <line x1="538.900" x2="538.900" y1="0.000" y2="842.745" class="line vertical"/>
    <line x1="553.074" x2="553.074" y1="0.000" y2="842.745" class="line vertical"/>
    <line x1="567.247" x2="567.247" y1="0.000" y2="842.745" class="line vertical"/>
    <line x1="581.420" x2="581.420" y1="0.000" y2="842.745" class="line vertical"/>
    <line x1="595.593" x2="595.593" y1="0.000" y2="842.745" class="line vertical"/>
  </g>
  <rect x="203.455422727694" y="816.745199608227" width="189" height="12" fill="#ffffff" stroke="none" stroke-width="0px"/>
  <text x="297.955422727694" y="824.745199608227" text-anchor="middle" fill="#b3b3ff" stroke="none" stroke-width="0" style="font-family: &quot;Courier&quot;, &quot;Courier New&quot;, monospace; font-size: 6pt;">https://github.com/dse/printable-paper</text>
</svg>
