<?xml version="1.0" encoding="UTF-8"?>
<svg xmlns="http://www.w3.org/2000/svg" width="595.911pt" height="842.745pt" viewBox="0.000 0.000 595.911 842.745">
  <style>
        .line, .dot, .major-line, .feint-line, .margin-line { stroke-linecap: round; }
        .stroke-linecap-butt   { stroke-linecap: butt; }
        .stroke-linecap-round  { stroke-linecap: round; }
        .stroke-linecap-square { stroke-linecap: square; }
        .rectangle { fill: #ffffff; }


        .line        { stroke-width: 0.96px; opacity:  1; }
        .major-line  { stroke-width: 1.35764501987817px; opacity: 1; }
        .feint-line  { stroke-width: 0.678822509939086px; opacity:  1; }
        .dot         { stroke-width: 1.92px; opacity:  1; }
        .margin-line { stroke-width: 0.96px; opacity:  1; }
        .line        { stroke: #b3b3ff; }
        .major-line  { stroke: #b3b3ff; }
        .feint-line  { stroke: #b3b3ff; }
        .dot         { stroke: #b3b3ff; }
        .margin-line { stroke: #ff9e9e; }
  </style>
  <defs/>
  <g id="grid">
    <line x1="0.000" x2="595.911" y1="13.184" y2="13.184" class="line horizontal"/>
    <line x1="0.000" x2="595.911" y1="30.191" y2="30.191" class="line horizontal"/>
    <line x1="0.000" x2="595.911" y1="47.199" y2="47.199" class="line horizontal"/>
    <line x1="0.000" x2="595.911" y1="64.207" y2="64.207" class="line horizontal"/>
    <line x1="0.000" x2="595.911" y1="81.215" y2="81.215" class="line horizontal"/>
    <line x1="0.000" x2="595.911" y1="98.223" y2="98.223" class="line horizontal"/>
    <line x1="0.000" x2="595.911" y1="115.231" y2="115.231" class="line horizontal"/>
    <line x1="0.000" x2="595.911" y1="132.239" y2="132.239" class="line horizontal"/>
    <line x1="0.000" x2="595.911" y1="149.247" y2="149.247" class="line horizontal"/>
    <line x1="0.000" x2="595.911" y1="166.254" y2="166.254" class="line horizontal"/>
    <line x1="0.000" x2="595.911" y1="183.262" y2="183.262" class="line horizontal"/>
    <line x1="0.000" x2="595.911" y1="200.270" y2="200.270" class="line horizontal"/>
    <line x1="0.000" x2="595.911" y1="217.278" y2="217.278" class="line horizontal"/>
    <line x1="0.000" x2="595.911" y1="234.286" y2="234.286" class="line horizontal"/>
    <line x1="0.000" x2="595.911" y1="251.294" y2="251.294" class="line horizontal"/>
    <line x1="0.000" x2="595.911" y1="268.302" y2="268.302" class="line horizontal"/>
    <line x1="0.000" x2="595.911" y1="285.310" y2="285.310" class="line horizontal"/>
    <line x1="0.000" x2="595.911" y1="302.317" y2="302.317" class="line horizontal"/>
    <line x1="0.000" x2="595.911" y1="319.325" y2="319.325" class="line horizontal"/>
    <line x1="0.000" x2="595.911" y1="336.333" y2="336.333" class="line horizontal"/>
    <line x1="0.000" x2="595.911" y1="353.341" y2="353.341" class="line horizontal"/>
    <line x1="0.000" x2="595.911" y1="370.349" y2="370.349" class="line horizontal"/>
    <line x1="0.000" x2="595.911" y1="387.357" y2="387.357" class="line horizontal"/>
    <line x1="0.000" x2="595.911" y1="404.365" y2="404.365" class="line horizontal"/>
    <line x1="0.000" x2="595.911" y1="421.373" y2="421.373" class="line horizontal"/>
    <line x1="0.000" x2="595.911" y1="438.380" y2="438.380" class="line horizontal"/>
    <line x1="0.000" x2="595.911" y1="455.388" y2="455.388" class="line horizontal"/>
    <line x1="0.000" x2="595.911" y1="472.396" y2="472.396" class="line horizontal"/>
    <line x1="0.000" x2="595.911" y1="489.404" y2="489.404" class="line horizontal"/>
    <line x1="0.000" x2="595.911" y1="506.412" y2="506.412" class="line horizontal"/>
    <line x1="0.000" x2="595.911" y1="523.420" y2="523.420" class="line horizontal"/>
    <line x1="0.000" x2="595.911" y1="540.428" y2="540.428" class="line horizontal"/>
    <line x1="0.000" x2="595.911" y1="557.436" y2="557.436" class="line horizontal"/>
    <line x1="0.000" x2="595.911" y1="574.443" y2="574.443" class="line horizontal"/>
    <line x1="0.000" x2="595.911" y1="591.451" y2="591.451" class="line horizontal"/>
    <line x1="0.000" x2="595.911" y1="608.459" y2="608.459" class="line horizontal"/>
    <line x1="0.000" x2="595.911" y1="625.467" y2="625.467" class="line horizontal"/>
    <line x1="0.000" x2="595.911" y1="642.475" y2="642.475" class="line horizontal"/>
    <line x1="0.000" x2="595.911" y1="659.483" y2="659.483" class="line horizontal"/>
    <line x1="0.000" x2="595.911" y1="676.491" y2="676.491" class="line horizontal"/>
    <line x1="0.000" x2="595.911" y1="693.499" y2="693.499" class="line horizontal"/>
    <line x1="0.000" x2="595.911" y1="710.506" y2="710.506" class="line horizontal"/>
    <line x1="0.000" x2="595.911" y1="727.514" y2="727.514" class="line horizontal"/>
    <line x1="0.000" x2="595.911" y1="744.522" y2="744.522" class="line horizontal"/>
    <line x1="0.000" x2="595.911" y1="761.530" y2="761.530" class="line horizontal"/>
    <line x1="0.000" x2="595.911" y1="778.538" y2="778.538" class="line horizontal"/>
    <line x1="0.000" x2="595.911" y1="795.546" y2="795.546" class="line horizontal"/>
    <line x1="0.000" x2="595.911" y1="812.554" y2="812.554" class="line horizontal"/>
    <line x1="0.000" x2="595.911" y1="829.562" y2="829.562" class="line horizontal"/>
    <line x1="8.822" x2="8.822" y1="0.000" y2="842.745" class="line vertical"/>
    <line x1="25.829" x2="25.829" y1="0.000" y2="842.745" class="line vertical"/>
    <line x1="42.837" x2="42.837" y1="0.000" y2="842.745" class="line vertical"/>
    <line x1="59.845" x2="59.845" y1="0.000" y2="842.745" class="line vertical"/>
    <line x1="76.853" x2="76.853" y1="0.000" y2="842.745" class="line vertical"/>
    <line x1="93.861" x2="93.861" y1="0.000" y2="842.745" class="line vertical"/>
    <line x1="110.869" x2="110.869" y1="0.000" y2="842.745" class="line vertical"/>
    <line x1="127.877" x2="127.877" y1="0.000" y2="842.745" class="line vertical"/>
    <line x1="144.885" x2="144.885" y1="0.000" y2="842.745" class="line vertical"/>
    <line x1="161.892" x2="161.892" y1="0.000" y2="842.745" class="line vertical"/>
    <line x1="178.900" x2="178.900" y1="0.000" y2="842.745" class="line vertical"/>
    <line x1="195.908" x2="195.908" y1="0.000" y2="842.745" class="line vertical"/>
    <line x1="212.916" x2="212.916" y1="0.000" y2="842.745" class="line vertical"/>
    <line x1="229.924" x2="229.924" y1="0.000" y2="842.745" class="line vertical"/>
    <line x1="246.932" x2="246.932" y1="0.000" y2="842.745" class="line vertical"/>
    <line x1="263.940" x2="263.940" y1="0.000" y2="842.745" class="line vertical"/>
    <line x1="280.948" x2="280.948" y1="0.000" y2="842.745" class="line vertical"/>
    <line x1="297.955" x2="297.955" y1="0.000" y2="842.745" class="line vertical"/>
    <line x1="314.963" x2="314.963" y1="0.000" y2="842.745" class="line vertical"/>
    <line x1="331.971" x2="331.971" y1="0.000" y2="842.745" class="line vertical"/>
    <line x1="348.979" x2="348.979" y1="0.000" y2="842.745" class="line vertical"/>
    <line x1="365.987" x2="365.987" y1="0.000" y2="842.745" class="line vertical"/>
    <line x1="382.995" x2="382.995" y1="0.000" y2="842.745" class="line vertical"/>
    <line x1="400.003" x2="400.003" y1="0.000" y2="842.745" class="line vertical"/>
    <line x1="417.011" x2="417.011" y1="0.000" y2="842.745" class="line vertical"/>
    <line x1="434.018" x2="434.018" y1="0.000" y2="842.745" class="line vertical"/>
    <line x1="451.026" x2="451.026" y1="0.000" y2="842.745" class="line vertical"/>
    <line x1="468.034" x2="468.034" y1="0.000" y2="842.745" class="line vertical"/>
    <line x1="485.042" x2="485.042" y1="0.000" y2="842.745" class="line vertical"/>
    <line x1="502.050" x2="502.050" y1="0.000" y2="842.745" class="line vertical"/>
    <line x1="519.058" x2="519.058" y1="0.000" y2="842.745" class="line vertical"/>
    <line x1="536.066" x2="536.066" y1="0.000" y2="842.745" class="line vertical"/>
    <line x1="553.074" x2="553.074" y1="0.000" y2="842.745" class="line vertical"/>
    <line x1="570.081" x2="570.081" y1="0.000" y2="842.745" class="line vertical"/>
    <line x1="587.089" x2="587.089" y1="0.000" y2="842.745" class="line vertical"/>
  </g>
  <rect x="203.455422727694" y="816.745199608227" width="189" height="12" fill="#ffffff" stroke="none" stroke-width="0px"/>
  <text x="297.955422727694" y="824.745199608227" text-anchor="middle" fill="#b3b3ff" stroke="none" stroke-width="0" style="font-family: &quot;Courier&quot;, &quot;Courier New&quot;, monospace; font-size: 6pt;">https://github.com/dse/printable-paper</text>
</svg>
