<?xml version="1.0" encoding="UTF-8"?>
<svg xmlns="http://www.w3.org/2000/svg" version="1.1" width="528.000px" height="816.000px" viewBox="0.000 0.000 528.000 816.000">
  <style>line, rect {
    fill: none;
    stroke-width: 0.16px;
    stroke: #95c9d7;
    stroke-linecap: round;
    stroke-linejoin: round;
}
line.minor, rect.minor {
    stroke-width: 0.32px;
}
line.major, rect.major {
    stroke-width: 0.64px;
}
text {
    text-anchor: middle;
    font-family: 'Times New Roman', 'Times Roman', serif;
    font-size: 8px;
    fill: #95c9d7;
}
circle {
    fill: #95c9d7;
}
</style>
  <g id="document">
    <circle cx="18.331" cy="11.150" r="0.960"/>
    <circle cx="18.331" cy="30.047" r="0.960"/>
    <circle cx="18.331" cy="48.945" r="0.960"/>
    <circle cx="18.331" cy="67.843" r="0.960"/>
    <circle cx="18.331" cy="86.740" r="0.960"/>
    <circle cx="18.331" cy="105.638" r="0.960"/>
    <circle cx="18.331" cy="124.535" r="0.960"/>
    <circle cx="18.331" cy="143.433" r="0.960"/>
    <circle cx="18.331" cy="162.331" r="0.960"/>
    <circle cx="18.331" cy="181.228" r="0.960"/>
    <circle cx="18.331" cy="200.126" r="0.960"/>
    <circle cx="18.331" cy="219.024" r="0.960"/>
    <circle cx="18.331" cy="237.921" r="0.960"/>
    <circle cx="18.331" cy="256.819" r="0.960"/>
    <circle cx="18.331" cy="275.717" r="0.960"/>
    <circle cx="18.331" cy="294.614" r="0.960"/>
    <circle cx="18.331" cy="313.512" r="0.960"/>
    <circle cx="18.331" cy="332.409" r="0.960"/>
    <circle cx="18.331" cy="351.307" r="0.960"/>
    <circle cx="18.331" cy="370.205" r="0.960"/>
    <circle cx="18.331" cy="389.102" r="0.960"/>
    <circle cx="18.331" cy="408.000" r="0.960"/>
    <circle cx="18.331" cy="426.898" r="0.960"/>
    <circle cx="18.331" cy="445.795" r="0.960"/>
    <circle cx="18.331" cy="464.693" r="0.960"/>
    <circle cx="18.331" cy="483.591" r="0.960"/>
    <circle cx="18.331" cy="502.488" r="0.960"/>
    <circle cx="18.331" cy="521.386" r="0.960"/>
    <circle cx="18.331" cy="540.283" r="0.960"/>
    <circle cx="18.331" cy="559.181" r="0.960"/>
    <circle cx="18.331" cy="578.079" r="0.960"/>
    <circle cx="18.331" cy="596.976" r="0.960"/>
    <circle cx="18.331" cy="615.874" r="0.960"/>
    <circle cx="18.331" cy="634.772" r="0.960"/>
    <circle cx="18.331" cy="653.669" r="0.960"/>
    <circle cx="18.331" cy="672.567" r="0.960"/>
    <circle cx="18.331" cy="691.465" r="0.960"/>
    <circle cx="18.331" cy="710.362" r="0.960"/>
    <circle cx="18.331" cy="729.260" r="0.960"/>
    <circle cx="18.331" cy="748.157" r="0.960"/>
    <circle cx="18.331" cy="767.055" r="0.960"/>
    <circle cx="18.331" cy="785.953" r="0.960"/>
    <circle cx="18.331" cy="804.850" r="0.960"/>
    <circle cx="37.228" cy="11.150" r="0.960"/>
    <circle cx="37.228" cy="30.047" r="0.960"/>
    <circle cx="37.228" cy="48.945" r="0.960"/>
    <circle cx="37.228" cy="67.843" r="0.960"/>
    <circle cx="37.228" cy="86.740" r="0.960"/>
    <circle cx="37.228" cy="105.638" r="0.960"/>
    <circle cx="37.228" cy="124.535" r="0.960"/>
    <circle cx="37.228" cy="143.433" r="0.960"/>
    <circle cx="37.228" cy="162.331" r="0.960"/>
    <circle cx="37.228" cy="181.228" r="0.960"/>
    <circle cx="37.228" cy="200.126" r="0.960"/>
    <circle cx="37.228" cy="219.024" r="0.960"/>
    <circle cx="37.228" cy="237.921" r="0.960"/>
    <circle cx="37.228" cy="256.819" r="0.960"/>
    <circle cx="37.228" cy="275.717" r="0.960"/>
    <circle cx="37.228" cy="294.614" r="0.960"/>
    <circle cx="37.228" cy="313.512" r="0.960"/>
    <circle cx="37.228" cy="332.409" r="0.960"/>
    <circle cx="37.228" cy="351.307" r="0.960"/>
    <circle cx="37.228" cy="370.205" r="0.960"/>
    <circle cx="37.228" cy="389.102" r="0.960"/>
    <circle cx="37.228" cy="408.000" r="0.960"/>
    <circle cx="37.228" cy="426.898" r="0.960"/>
    <circle cx="37.228" cy="445.795" r="0.960"/>
    <circle cx="37.228" cy="464.693" r="0.960"/>
    <circle cx="37.228" cy="483.591" r="0.960"/>
    <circle cx="37.228" cy="502.488" r="0.960"/>
    <circle cx="37.228" cy="521.386" r="0.960"/>
    <circle cx="37.228" cy="540.283" r="0.960"/>
    <circle cx="37.228" cy="559.181" r="0.960"/>
    <circle cx="37.228" cy="578.079" r="0.960"/>
    <circle cx="37.228" cy="596.976" r="0.960"/>
    <circle cx="37.228" cy="615.874" r="0.960"/>
    <circle cx="37.228" cy="634.772" r="0.960"/>
    <circle cx="37.228" cy="653.669" r="0.960"/>
    <circle cx="37.228" cy="672.567" r="0.960"/>
    <circle cx="37.228" cy="691.465" r="0.960"/>
    <circle cx="37.228" cy="710.362" r="0.960"/>
    <circle cx="37.228" cy="729.260" r="0.960"/>
    <circle cx="37.228" cy="748.157" r="0.960"/>
    <circle cx="37.228" cy="767.055" r="0.960"/>
    <circle cx="37.228" cy="785.953" r="0.960"/>
    <circle cx="37.228" cy="804.850" r="0.960"/>
    <circle cx="56.126" cy="11.150" r="0.960"/>
    <circle cx="56.126" cy="30.047" r="0.960"/>
    <circle cx="56.126" cy="48.945" r="0.960"/>
    <circle cx="56.126" cy="67.843" r="0.960"/>
    <circle cx="56.126" cy="86.740" r="0.960"/>
    <circle cx="56.126" cy="105.638" r="0.960"/>
    <circle cx="56.126" cy="124.535" r="0.960"/>
    <circle cx="56.126" cy="143.433" r="0.960"/>
    <circle cx="56.126" cy="162.331" r="0.960"/>
    <circle cx="56.126" cy="181.228" r="0.960"/>
    <circle cx="56.126" cy="200.126" r="0.960"/>
    <circle cx="56.126" cy="219.024" r="0.960"/>
    <circle cx="56.126" cy="237.921" r="0.960"/>
    <circle cx="56.126" cy="256.819" r="0.960"/>
    <circle cx="56.126" cy="275.717" r="0.960"/>
    <circle cx="56.126" cy="294.614" r="0.960"/>
    <circle cx="56.126" cy="313.512" r="0.960"/>
    <circle cx="56.126" cy="332.409" r="0.960"/>
    <circle cx="56.126" cy="351.307" r="0.960"/>
    <circle cx="56.126" cy="370.205" r="0.960"/>
    <circle cx="56.126" cy="389.102" r="0.960"/>
    <circle cx="56.126" cy="408.000" r="0.960"/>
    <circle cx="56.126" cy="426.898" r="0.960"/>
    <circle cx="56.126" cy="445.795" r="0.960"/>
    <circle cx="56.126" cy="464.693" r="0.960"/>
    <circle cx="56.126" cy="483.591" r="0.960"/>
    <circle cx="56.126" cy="502.488" r="0.960"/>
    <circle cx="56.126" cy="521.386" r="0.960"/>
    <circle cx="56.126" cy="540.283" r="0.960"/>
    <circle cx="56.126" cy="559.181" r="0.960"/>
    <circle cx="56.126" cy="578.079" r="0.960"/>
    <circle cx="56.126" cy="596.976" r="0.960"/>
    <circle cx="56.126" cy="615.874" r="0.960"/>
    <circle cx="56.126" cy="634.772" r="0.960"/>
    <circle cx="56.126" cy="653.669" r="0.960"/>
    <circle cx="56.126" cy="672.567" r="0.960"/>
    <circle cx="56.126" cy="691.465" r="0.960"/>
    <circle cx="56.126" cy="710.362" r="0.960"/>
    <circle cx="56.126" cy="729.260" r="0.960"/>
    <circle cx="56.126" cy="748.157" r="0.960"/>
    <circle cx="56.126" cy="767.055" r="0.960"/>
    <circle cx="56.126" cy="785.953" r="0.960"/>
    <circle cx="56.126" cy="804.850" r="0.960"/>
    <circle cx="75.024" cy="11.150" r="0.960"/>
    <circle cx="75.024" cy="30.047" r="0.960"/>
    <circle cx="75.024" cy="48.945" r="0.960"/>
    <circle cx="75.024" cy="67.843" r="0.960"/>
    <circle cx="75.024" cy="86.740" r="0.960"/>
    <circle cx="75.024" cy="105.638" r="0.960"/>
    <circle cx="75.024" cy="124.535" r="0.960"/>
    <circle cx="75.024" cy="143.433" r="0.960"/>
    <circle cx="75.024" cy="162.331" r="0.960"/>
    <circle cx="75.024" cy="181.228" r="0.960"/>
    <circle cx="75.024" cy="200.126" r="0.960"/>
    <circle cx="75.024" cy="219.024" r="0.960"/>
    <circle cx="75.024" cy="237.921" r="0.960"/>
    <circle cx="75.024" cy="256.819" r="0.960"/>
    <circle cx="75.024" cy="275.717" r="0.960"/>
    <circle cx="75.024" cy="294.614" r="0.960"/>
    <circle cx="75.024" cy="313.512" r="0.960"/>
    <circle cx="75.024" cy="332.409" r="0.960"/>
    <circle cx="75.024" cy="351.307" r="0.960"/>
    <circle cx="75.024" cy="370.205" r="0.960"/>
    <circle cx="75.024" cy="389.102" r="0.960"/>
    <circle cx="75.024" cy="408.000" r="0.960"/>
    <circle cx="75.024" cy="426.898" r="0.960"/>
    <circle cx="75.024" cy="445.795" r="0.960"/>
    <circle cx="75.024" cy="464.693" r="0.960"/>
    <circle cx="75.024" cy="483.591" r="0.960"/>
    <circle cx="75.024" cy="502.488" r="0.960"/>
    <circle cx="75.024" cy="521.386" r="0.960"/>
    <circle cx="75.024" cy="540.283" r="0.960"/>
    <circle cx="75.024" cy="559.181" r="0.960"/>
    <circle cx="75.024" cy="578.079" r="0.960"/>
    <circle cx="75.024" cy="596.976" r="0.960"/>
    <circle cx="75.024" cy="615.874" r="0.960"/>
    <circle cx="75.024" cy="634.772" r="0.960"/>
    <circle cx="75.024" cy="653.669" r="0.960"/>
    <circle cx="75.024" cy="672.567" r="0.960"/>
    <circle cx="75.024" cy="691.465" r="0.960"/>
    <circle cx="75.024" cy="710.362" r="0.960"/>
    <circle cx="75.024" cy="729.260" r="0.960"/>
    <circle cx="75.024" cy="748.157" r="0.960"/>
    <circle cx="75.024" cy="767.055" r="0.960"/>
    <circle cx="75.024" cy="785.953" r="0.960"/>
    <circle cx="75.024" cy="804.850" r="0.960"/>
    <circle cx="93.921" cy="11.150" r="0.960"/>
    <circle cx="93.921" cy="30.047" r="0.960"/>
    <circle cx="93.921" cy="48.945" r="0.960"/>
    <circle cx="93.921" cy="67.843" r="0.960"/>
    <circle cx="93.921" cy="86.740" r="0.960"/>
    <circle cx="93.921" cy="105.638" r="0.960"/>
    <circle cx="93.921" cy="124.535" r="0.960"/>
    <circle cx="93.921" cy="143.433" r="0.960"/>
    <circle cx="93.921" cy="162.331" r="0.960"/>
    <circle cx="93.921" cy="181.228" r="0.960"/>
    <circle cx="93.921" cy="200.126" r="0.960"/>
    <circle cx="93.921" cy="219.024" r="0.960"/>
    <circle cx="93.921" cy="237.921" r="0.960"/>
    <circle cx="93.921" cy="256.819" r="0.960"/>
    <circle cx="93.921" cy="275.717" r="0.960"/>
    <circle cx="93.921" cy="294.614" r="0.960"/>
    <circle cx="93.921" cy="313.512" r="0.960"/>
    <circle cx="93.921" cy="332.409" r="0.960"/>
    <circle cx="93.921" cy="351.307" r="0.960"/>
    <circle cx="93.921" cy="370.205" r="0.960"/>
    <circle cx="93.921" cy="389.102" r="0.960"/>
    <circle cx="93.921" cy="408.000" r="0.960"/>
    <circle cx="93.921" cy="426.898" r="0.960"/>
    <circle cx="93.921" cy="445.795" r="0.960"/>
    <circle cx="93.921" cy="464.693" r="0.960"/>
    <circle cx="93.921" cy="483.591" r="0.960"/>
    <circle cx="93.921" cy="502.488" r="0.960"/>
    <circle cx="93.921" cy="521.386" r="0.960"/>
    <circle cx="93.921" cy="540.283" r="0.960"/>
    <circle cx="93.921" cy="559.181" r="0.960"/>
    <circle cx="93.921" cy="578.079" r="0.960"/>
    <circle cx="93.921" cy="596.976" r="0.960"/>
    <circle cx="93.921" cy="615.874" r="0.960"/>
    <circle cx="93.921" cy="634.772" r="0.960"/>
    <circle cx="93.921" cy="653.669" r="0.960"/>
    <circle cx="93.921" cy="672.567" r="0.960"/>
    <circle cx="93.921" cy="691.465" r="0.960"/>
    <circle cx="93.921" cy="710.362" r="0.960"/>
    <circle cx="93.921" cy="729.260" r="0.960"/>
    <circle cx="93.921" cy="748.157" r="0.960"/>
    <circle cx="93.921" cy="767.055" r="0.960"/>
    <circle cx="93.921" cy="785.953" r="0.960"/>
    <circle cx="93.921" cy="804.850" r="0.960"/>
    <circle cx="112.819" cy="11.150" r="0.960"/>
    <circle cx="112.819" cy="30.047" r="0.960"/>
    <circle cx="112.819" cy="48.945" r="0.960"/>
    <circle cx="112.819" cy="67.843" r="0.960"/>
    <circle cx="112.819" cy="86.740" r="0.960"/>
    <circle cx="112.819" cy="105.638" r="0.960"/>
    <circle cx="112.819" cy="124.535" r="0.960"/>
    <circle cx="112.819" cy="143.433" r="0.960"/>
    <circle cx="112.819" cy="162.331" r="0.960"/>
    <circle cx="112.819" cy="181.228" r="0.960"/>
    <circle cx="112.819" cy="200.126" r="0.960"/>
    <circle cx="112.819" cy="219.024" r="0.960"/>
    <circle cx="112.819" cy="237.921" r="0.960"/>
    <circle cx="112.819" cy="256.819" r="0.960"/>
    <circle cx="112.819" cy="275.717" r="0.960"/>
    <circle cx="112.819" cy="294.614" r="0.960"/>
    <circle cx="112.819" cy="313.512" r="0.960"/>
    <circle cx="112.819" cy="332.409" r="0.960"/>
    <circle cx="112.819" cy="351.307" r="0.960"/>
    <circle cx="112.819" cy="370.205" r="0.960"/>
    <circle cx="112.819" cy="389.102" r="0.960"/>
    <circle cx="112.819" cy="408.000" r="0.960"/>
    <circle cx="112.819" cy="426.898" r="0.960"/>
    <circle cx="112.819" cy="445.795" r="0.960"/>
    <circle cx="112.819" cy="464.693" r="0.960"/>
    <circle cx="112.819" cy="483.591" r="0.960"/>
    <circle cx="112.819" cy="502.488" r="0.960"/>
    <circle cx="112.819" cy="521.386" r="0.960"/>
    <circle cx="112.819" cy="540.283" r="0.960"/>
    <circle cx="112.819" cy="559.181" r="0.960"/>
    <circle cx="112.819" cy="578.079" r="0.960"/>
    <circle cx="112.819" cy="596.976" r="0.960"/>
    <circle cx="112.819" cy="615.874" r="0.960"/>
    <circle cx="112.819" cy="634.772" r="0.960"/>
    <circle cx="112.819" cy="653.669" r="0.960"/>
    <circle cx="112.819" cy="672.567" r="0.960"/>
    <circle cx="112.819" cy="691.465" r="0.960"/>
    <circle cx="112.819" cy="710.362" r="0.960"/>
    <circle cx="112.819" cy="729.260" r="0.960"/>
    <circle cx="112.819" cy="748.157" r="0.960"/>
    <circle cx="112.819" cy="767.055" r="0.960"/>
    <circle cx="112.819" cy="785.953" r="0.960"/>
    <circle cx="112.819" cy="804.850" r="0.960"/>
    <circle cx="131.717" cy="11.150" r="0.960"/>
    <circle cx="131.717" cy="30.047" r="0.960"/>
    <circle cx="131.717" cy="48.945" r="0.960"/>
    <circle cx="131.717" cy="67.843" r="0.960"/>
    <circle cx="131.717" cy="86.740" r="0.960"/>
    <circle cx="131.717" cy="105.638" r="0.960"/>
    <circle cx="131.717" cy="124.535" r="0.960"/>
    <circle cx="131.717" cy="143.433" r="0.960"/>
    <circle cx="131.717" cy="162.331" r="0.960"/>
    <circle cx="131.717" cy="181.228" r="0.960"/>
    <circle cx="131.717" cy="200.126" r="0.960"/>
    <circle cx="131.717" cy="219.024" r="0.960"/>
    <circle cx="131.717" cy="237.921" r="0.960"/>
    <circle cx="131.717" cy="256.819" r="0.960"/>
    <circle cx="131.717" cy="275.717" r="0.960"/>
    <circle cx="131.717" cy="294.614" r="0.960"/>
    <circle cx="131.717" cy="313.512" r="0.960"/>
    <circle cx="131.717" cy="332.409" r="0.960"/>
    <circle cx="131.717" cy="351.307" r="0.960"/>
    <circle cx="131.717" cy="370.205" r="0.960"/>
    <circle cx="131.717" cy="389.102" r="0.960"/>
    <circle cx="131.717" cy="408.000" r="0.960"/>
    <circle cx="131.717" cy="426.898" r="0.960"/>
    <circle cx="131.717" cy="445.795" r="0.960"/>
    <circle cx="131.717" cy="464.693" r="0.960"/>
    <circle cx="131.717" cy="483.591" r="0.960"/>
    <circle cx="131.717" cy="502.488" r="0.960"/>
    <circle cx="131.717" cy="521.386" r="0.960"/>
    <circle cx="131.717" cy="540.283" r="0.960"/>
    <circle cx="131.717" cy="559.181" r="0.960"/>
    <circle cx="131.717" cy="578.079" r="0.960"/>
    <circle cx="131.717" cy="596.976" r="0.960"/>
    <circle cx="131.717" cy="615.874" r="0.960"/>
    <circle cx="131.717" cy="634.772" r="0.960"/>
    <circle cx="131.717" cy="653.669" r="0.960"/>
    <circle cx="131.717" cy="672.567" r="0.960"/>
    <circle cx="131.717" cy="691.465" r="0.960"/>
    <circle cx="131.717" cy="710.362" r="0.960"/>
    <circle cx="131.717" cy="729.260" r="0.960"/>
    <circle cx="131.717" cy="748.157" r="0.960"/>
    <circle cx="131.717" cy="767.055" r="0.960"/>
    <circle cx="131.717" cy="785.953" r="0.960"/>
    <circle cx="131.717" cy="804.850" r="0.960"/>
    <circle cx="150.614" cy="11.150" r="0.960"/>
    <circle cx="150.614" cy="30.047" r="0.960"/>
    <circle cx="150.614" cy="48.945" r="0.960"/>
    <circle cx="150.614" cy="67.843" r="0.960"/>
    <circle cx="150.614" cy="86.740" r="0.960"/>
    <circle cx="150.614" cy="105.638" r="0.960"/>
    <circle cx="150.614" cy="124.535" r="0.960"/>
    <circle cx="150.614" cy="143.433" r="0.960"/>
    <circle cx="150.614" cy="162.331" r="0.960"/>
    <circle cx="150.614" cy="181.228" r="0.960"/>
    <circle cx="150.614" cy="200.126" r="0.960"/>
    <circle cx="150.614" cy="219.024" r="0.960"/>
    <circle cx="150.614" cy="237.921" r="0.960"/>
    <circle cx="150.614" cy="256.819" r="0.960"/>
    <circle cx="150.614" cy="275.717" r="0.960"/>
    <circle cx="150.614" cy="294.614" r="0.960"/>
    <circle cx="150.614" cy="313.512" r="0.960"/>
    <circle cx="150.614" cy="332.409" r="0.960"/>
    <circle cx="150.614" cy="351.307" r="0.960"/>
    <circle cx="150.614" cy="370.205" r="0.960"/>
    <circle cx="150.614" cy="389.102" r="0.960"/>
    <circle cx="150.614" cy="408.000" r="0.960"/>
    <circle cx="150.614" cy="426.898" r="0.960"/>
    <circle cx="150.614" cy="445.795" r="0.960"/>
    <circle cx="150.614" cy="464.693" r="0.960"/>
    <circle cx="150.614" cy="483.591" r="0.960"/>
    <circle cx="150.614" cy="502.488" r="0.960"/>
    <circle cx="150.614" cy="521.386" r="0.960"/>
    <circle cx="150.614" cy="540.283" r="0.960"/>
    <circle cx="150.614" cy="559.181" r="0.960"/>
    <circle cx="150.614" cy="578.079" r="0.960"/>
    <circle cx="150.614" cy="596.976" r="0.960"/>
    <circle cx="150.614" cy="615.874" r="0.960"/>
    <circle cx="150.614" cy="634.772" r="0.960"/>
    <circle cx="150.614" cy="653.669" r="0.960"/>
    <circle cx="150.614" cy="672.567" r="0.960"/>
    <circle cx="150.614" cy="691.465" r="0.960"/>
    <circle cx="150.614" cy="710.362" r="0.960"/>
    <circle cx="150.614" cy="729.260" r="0.960"/>
    <circle cx="150.614" cy="748.157" r="0.960"/>
    <circle cx="150.614" cy="767.055" r="0.960"/>
    <circle cx="150.614" cy="785.953" r="0.960"/>
    <circle cx="150.614" cy="804.850" r="0.960"/>
    <circle cx="169.512" cy="11.150" r="0.960"/>
    <circle cx="169.512" cy="30.047" r="0.960"/>
    <circle cx="169.512" cy="48.945" r="0.960"/>
    <circle cx="169.512" cy="67.843" r="0.960"/>
    <circle cx="169.512" cy="86.740" r="0.960"/>
    <circle cx="169.512" cy="105.638" r="0.960"/>
    <circle cx="169.512" cy="124.535" r="0.960"/>
    <circle cx="169.512" cy="143.433" r="0.960"/>
    <circle cx="169.512" cy="162.331" r="0.960"/>
    <circle cx="169.512" cy="181.228" r="0.960"/>
    <circle cx="169.512" cy="200.126" r="0.960"/>
    <circle cx="169.512" cy="219.024" r="0.960"/>
    <circle cx="169.512" cy="237.921" r="0.960"/>
    <circle cx="169.512" cy="256.819" r="0.960"/>
    <circle cx="169.512" cy="275.717" r="0.960"/>
    <circle cx="169.512" cy="294.614" r="0.960"/>
    <circle cx="169.512" cy="313.512" r="0.960"/>
    <circle cx="169.512" cy="332.409" r="0.960"/>
    <circle cx="169.512" cy="351.307" r="0.960"/>
    <circle cx="169.512" cy="370.205" r="0.960"/>
    <circle cx="169.512" cy="389.102" r="0.960"/>
    <circle cx="169.512" cy="408.000" r="0.960"/>
    <circle cx="169.512" cy="426.898" r="0.960"/>
    <circle cx="169.512" cy="445.795" r="0.960"/>
    <circle cx="169.512" cy="464.693" r="0.960"/>
    <circle cx="169.512" cy="483.591" r="0.960"/>
    <circle cx="169.512" cy="502.488" r="0.960"/>
    <circle cx="169.512" cy="521.386" r="0.960"/>
    <circle cx="169.512" cy="540.283" r="0.960"/>
    <circle cx="169.512" cy="559.181" r="0.960"/>
    <circle cx="169.512" cy="578.079" r="0.960"/>
    <circle cx="169.512" cy="596.976" r="0.960"/>
    <circle cx="169.512" cy="615.874" r="0.960"/>
    <circle cx="169.512" cy="634.772" r="0.960"/>
    <circle cx="169.512" cy="653.669" r="0.960"/>
    <circle cx="169.512" cy="672.567" r="0.960"/>
    <circle cx="169.512" cy="691.465" r="0.960"/>
    <circle cx="169.512" cy="710.362" r="0.960"/>
    <circle cx="169.512" cy="729.260" r="0.960"/>
    <circle cx="169.512" cy="748.157" r="0.960"/>
    <circle cx="169.512" cy="767.055" r="0.960"/>
    <circle cx="169.512" cy="785.953" r="0.960"/>
    <circle cx="169.512" cy="804.850" r="0.960"/>
    <circle cx="188.409" cy="11.150" r="0.960"/>
    <circle cx="188.409" cy="30.047" r="0.960"/>
    <circle cx="188.409" cy="48.945" r="0.960"/>
    <circle cx="188.409" cy="67.843" r="0.960"/>
    <circle cx="188.409" cy="86.740" r="0.960"/>
    <circle cx="188.409" cy="105.638" r="0.960"/>
    <circle cx="188.409" cy="124.535" r="0.960"/>
    <circle cx="188.409" cy="143.433" r="0.960"/>
    <circle cx="188.409" cy="162.331" r="0.960"/>
    <circle cx="188.409" cy="181.228" r="0.960"/>
    <circle cx="188.409" cy="200.126" r="0.960"/>
    <circle cx="188.409" cy="219.024" r="0.960"/>
    <circle cx="188.409" cy="237.921" r="0.960"/>
    <circle cx="188.409" cy="256.819" r="0.960"/>
    <circle cx="188.409" cy="275.717" r="0.960"/>
    <circle cx="188.409" cy="294.614" r="0.960"/>
    <circle cx="188.409" cy="313.512" r="0.960"/>
    <circle cx="188.409" cy="332.409" r="0.960"/>
    <circle cx="188.409" cy="351.307" r="0.960"/>
    <circle cx="188.409" cy="370.205" r="0.960"/>
    <circle cx="188.409" cy="389.102" r="0.960"/>
    <circle cx="188.409" cy="408.000" r="0.960"/>
    <circle cx="188.409" cy="426.898" r="0.960"/>
    <circle cx="188.409" cy="445.795" r="0.960"/>
    <circle cx="188.409" cy="464.693" r="0.960"/>
    <circle cx="188.409" cy="483.591" r="0.960"/>
    <circle cx="188.409" cy="502.488" r="0.960"/>
    <circle cx="188.409" cy="521.386" r="0.960"/>
    <circle cx="188.409" cy="540.283" r="0.960"/>
    <circle cx="188.409" cy="559.181" r="0.960"/>
    <circle cx="188.409" cy="578.079" r="0.960"/>
    <circle cx="188.409" cy="596.976" r="0.960"/>
    <circle cx="188.409" cy="615.874" r="0.960"/>
    <circle cx="188.409" cy="634.772" r="0.960"/>
    <circle cx="188.409" cy="653.669" r="0.960"/>
    <circle cx="188.409" cy="672.567" r="0.960"/>
    <circle cx="188.409" cy="691.465" r="0.960"/>
    <circle cx="188.409" cy="710.362" r="0.960"/>
    <circle cx="188.409" cy="729.260" r="0.960"/>
    <circle cx="188.409" cy="748.157" r="0.960"/>
    <circle cx="188.409" cy="767.055" r="0.960"/>
    <circle cx="188.409" cy="785.953" r="0.960"/>
    <circle cx="188.409" cy="804.850" r="0.960"/>
    <circle cx="207.307" cy="11.150" r="0.960"/>
    <circle cx="207.307" cy="30.047" r="0.960"/>
    <circle cx="207.307" cy="48.945" r="0.960"/>
    <circle cx="207.307" cy="67.843" r="0.960"/>
    <circle cx="207.307" cy="86.740" r="0.960"/>
    <circle cx="207.307" cy="105.638" r="0.960"/>
    <circle cx="207.307" cy="124.535" r="0.960"/>
    <circle cx="207.307" cy="143.433" r="0.960"/>
    <circle cx="207.307" cy="162.331" r="0.960"/>
    <circle cx="207.307" cy="181.228" r="0.960"/>
    <circle cx="207.307" cy="200.126" r="0.960"/>
    <circle cx="207.307" cy="219.024" r="0.960"/>
    <circle cx="207.307" cy="237.921" r="0.960"/>
    <circle cx="207.307" cy="256.819" r="0.960"/>
    <circle cx="207.307" cy="275.717" r="0.960"/>
    <circle cx="207.307" cy="294.614" r="0.960"/>
    <circle cx="207.307" cy="313.512" r="0.960"/>
    <circle cx="207.307" cy="332.409" r="0.960"/>
    <circle cx="207.307" cy="351.307" r="0.960"/>
    <circle cx="207.307" cy="370.205" r="0.960"/>
    <circle cx="207.307" cy="389.102" r="0.960"/>
    <circle cx="207.307" cy="408.000" r="0.960"/>
    <circle cx="207.307" cy="426.898" r="0.960"/>
    <circle cx="207.307" cy="445.795" r="0.960"/>
    <circle cx="207.307" cy="464.693" r="0.960"/>
    <circle cx="207.307" cy="483.591" r="0.960"/>
    <circle cx="207.307" cy="502.488" r="0.960"/>
    <circle cx="207.307" cy="521.386" r="0.960"/>
    <circle cx="207.307" cy="540.283" r="0.960"/>
    <circle cx="207.307" cy="559.181" r="0.960"/>
    <circle cx="207.307" cy="578.079" r="0.960"/>
    <circle cx="207.307" cy="596.976" r="0.960"/>
    <circle cx="207.307" cy="615.874" r="0.960"/>
    <circle cx="207.307" cy="634.772" r="0.960"/>
    <circle cx="207.307" cy="653.669" r="0.960"/>
    <circle cx="207.307" cy="672.567" r="0.960"/>
    <circle cx="207.307" cy="691.465" r="0.960"/>
    <circle cx="207.307" cy="710.362" r="0.960"/>
    <circle cx="207.307" cy="729.260" r="0.960"/>
    <circle cx="207.307" cy="748.157" r="0.960"/>
    <circle cx="207.307" cy="767.055" r="0.960"/>
    <circle cx="207.307" cy="785.953" r="0.960"/>
    <circle cx="207.307" cy="804.850" r="0.960"/>
    <circle cx="226.205" cy="11.150" r="0.960"/>
    <circle cx="226.205" cy="30.047" r="0.960"/>
    <circle cx="226.205" cy="48.945" r="0.960"/>
    <circle cx="226.205" cy="67.843" r="0.960"/>
    <circle cx="226.205" cy="86.740" r="0.960"/>
    <circle cx="226.205" cy="105.638" r="0.960"/>
    <circle cx="226.205" cy="124.535" r="0.960"/>
    <circle cx="226.205" cy="143.433" r="0.960"/>
    <circle cx="226.205" cy="162.331" r="0.960"/>
    <circle cx="226.205" cy="181.228" r="0.960"/>
    <circle cx="226.205" cy="200.126" r="0.960"/>
    <circle cx="226.205" cy="219.024" r="0.960"/>
    <circle cx="226.205" cy="237.921" r="0.960"/>
    <circle cx="226.205" cy="256.819" r="0.960"/>
    <circle cx="226.205" cy="275.717" r="0.960"/>
    <circle cx="226.205" cy="294.614" r="0.960"/>
    <circle cx="226.205" cy="313.512" r="0.960"/>
    <circle cx="226.205" cy="332.409" r="0.960"/>
    <circle cx="226.205" cy="351.307" r="0.960"/>
    <circle cx="226.205" cy="370.205" r="0.960"/>
    <circle cx="226.205" cy="389.102" r="0.960"/>
    <circle cx="226.205" cy="408.000" r="0.960"/>
    <circle cx="226.205" cy="426.898" r="0.960"/>
    <circle cx="226.205" cy="445.795" r="0.960"/>
    <circle cx="226.205" cy="464.693" r="0.960"/>
    <circle cx="226.205" cy="483.591" r="0.960"/>
    <circle cx="226.205" cy="502.488" r="0.960"/>
    <circle cx="226.205" cy="521.386" r="0.960"/>
    <circle cx="226.205" cy="540.283" r="0.960"/>
    <circle cx="226.205" cy="559.181" r="0.960"/>
    <circle cx="226.205" cy="578.079" r="0.960"/>
    <circle cx="226.205" cy="596.976" r="0.960"/>
    <circle cx="226.205" cy="615.874" r="0.960"/>
    <circle cx="226.205" cy="634.772" r="0.960"/>
    <circle cx="226.205" cy="653.669" r="0.960"/>
    <circle cx="226.205" cy="672.567" r="0.960"/>
    <circle cx="226.205" cy="691.465" r="0.960"/>
    <circle cx="226.205" cy="710.362" r="0.960"/>
    <circle cx="226.205" cy="729.260" r="0.960"/>
    <circle cx="226.205" cy="748.157" r="0.960"/>
    <circle cx="226.205" cy="767.055" r="0.960"/>
    <circle cx="226.205" cy="785.953" r="0.960"/>
    <circle cx="226.205" cy="804.850" r="0.960"/>
    <circle cx="245.102" cy="11.150" r="0.960"/>
    <circle cx="245.102" cy="30.047" r="0.960"/>
    <circle cx="245.102" cy="48.945" r="0.960"/>
    <circle cx="245.102" cy="67.843" r="0.960"/>
    <circle cx="245.102" cy="86.740" r="0.960"/>
    <circle cx="245.102" cy="105.638" r="0.960"/>
    <circle cx="245.102" cy="124.535" r="0.960"/>
    <circle cx="245.102" cy="143.433" r="0.960"/>
    <circle cx="245.102" cy="162.331" r="0.960"/>
    <circle cx="245.102" cy="181.228" r="0.960"/>
    <circle cx="245.102" cy="200.126" r="0.960"/>
    <circle cx="245.102" cy="219.024" r="0.960"/>
    <circle cx="245.102" cy="237.921" r="0.960"/>
    <circle cx="245.102" cy="256.819" r="0.960"/>
    <circle cx="245.102" cy="275.717" r="0.960"/>
    <circle cx="245.102" cy="294.614" r="0.960"/>
    <circle cx="245.102" cy="313.512" r="0.960"/>
    <circle cx="245.102" cy="332.409" r="0.960"/>
    <circle cx="245.102" cy="351.307" r="0.960"/>
    <circle cx="245.102" cy="370.205" r="0.960"/>
    <circle cx="245.102" cy="389.102" r="0.960"/>
    <circle cx="245.102" cy="408.000" r="0.960"/>
    <circle cx="245.102" cy="426.898" r="0.960"/>
    <circle cx="245.102" cy="445.795" r="0.960"/>
    <circle cx="245.102" cy="464.693" r="0.960"/>
    <circle cx="245.102" cy="483.591" r="0.960"/>
    <circle cx="245.102" cy="502.488" r="0.960"/>
    <circle cx="245.102" cy="521.386" r="0.960"/>
    <circle cx="245.102" cy="540.283" r="0.960"/>
    <circle cx="245.102" cy="559.181" r="0.960"/>
    <circle cx="245.102" cy="578.079" r="0.960"/>
    <circle cx="245.102" cy="596.976" r="0.960"/>
    <circle cx="245.102" cy="615.874" r="0.960"/>
    <circle cx="245.102" cy="634.772" r="0.960"/>
    <circle cx="245.102" cy="653.669" r="0.960"/>
    <circle cx="245.102" cy="672.567" r="0.960"/>
    <circle cx="245.102" cy="691.465" r="0.960"/>
    <circle cx="245.102" cy="710.362" r="0.960"/>
    <circle cx="245.102" cy="729.260" r="0.960"/>
    <circle cx="245.102" cy="748.157" r="0.960"/>
    <circle cx="245.102" cy="767.055" r="0.960"/>
    <circle cx="245.102" cy="785.953" r="0.960"/>
    <circle cx="245.102" cy="804.850" r="0.960"/>
    <circle cx="264.000" cy="11.150" r="0.960"/>
    <circle cx="264.000" cy="30.047" r="0.960"/>
    <circle cx="264.000" cy="48.945" r="0.960"/>
    <circle cx="264.000" cy="67.843" r="0.960"/>
    <circle cx="264.000" cy="86.740" r="0.960"/>
    <circle cx="264.000" cy="105.638" r="0.960"/>
    <circle cx="264.000" cy="124.535" r="0.960"/>
    <circle cx="264.000" cy="143.433" r="0.960"/>
    <circle cx="264.000" cy="162.331" r="0.960"/>
    <circle cx="264.000" cy="181.228" r="0.960"/>
    <circle cx="264.000" cy="200.126" r="0.960"/>
    <circle cx="264.000" cy="219.024" r="0.960"/>
    <circle cx="264.000" cy="237.921" r="0.960"/>
    <circle cx="264.000" cy="256.819" r="0.960"/>
    <circle cx="264.000" cy="275.717" r="0.960"/>
    <circle cx="264.000" cy="294.614" r="0.960"/>
    <circle cx="264.000" cy="313.512" r="0.960"/>
    <circle cx="264.000" cy="332.409" r="0.960"/>
    <circle cx="264.000" cy="351.307" r="0.960"/>
    <circle cx="264.000" cy="370.205" r="0.960"/>
    <circle cx="264.000" cy="389.102" r="0.960"/>
    <circle cx="264.000" cy="408.000" r="0.960"/>
    <circle cx="264.000" cy="426.898" r="0.960"/>
    <circle cx="264.000" cy="445.795" r="0.960"/>
    <circle cx="264.000" cy="464.693" r="0.960"/>
    <circle cx="264.000" cy="483.591" r="0.960"/>
    <circle cx="264.000" cy="502.488" r="0.960"/>
    <circle cx="264.000" cy="521.386" r="0.960"/>
    <circle cx="264.000" cy="540.283" r="0.960"/>
    <circle cx="264.000" cy="559.181" r="0.960"/>
    <circle cx="264.000" cy="578.079" r="0.960"/>
    <circle cx="264.000" cy="596.976" r="0.960"/>
    <circle cx="264.000" cy="615.874" r="0.960"/>
    <circle cx="264.000" cy="634.772" r="0.960"/>
    <circle cx="264.000" cy="653.669" r="0.960"/>
    <circle cx="264.000" cy="672.567" r="0.960"/>
    <circle cx="264.000" cy="691.465" r="0.960"/>
    <circle cx="264.000" cy="710.362" r="0.960"/>
    <circle cx="264.000" cy="729.260" r="0.960"/>
    <circle cx="264.000" cy="748.157" r="0.960"/>
    <circle cx="264.000" cy="767.055" r="0.960"/>
    <circle cx="264.000" cy="785.953" r="0.960"/>
    <circle cx="264.000" cy="804.850" r="0.960"/>
    <circle cx="282.898" cy="11.150" r="0.960"/>
    <circle cx="282.898" cy="30.047" r="0.960"/>
    <circle cx="282.898" cy="48.945" r="0.960"/>
    <circle cx="282.898" cy="67.843" r="0.960"/>
    <circle cx="282.898" cy="86.740" r="0.960"/>
    <circle cx="282.898" cy="105.638" r="0.960"/>
    <circle cx="282.898" cy="124.535" r="0.960"/>
    <circle cx="282.898" cy="143.433" r="0.960"/>
    <circle cx="282.898" cy="162.331" r="0.960"/>
    <circle cx="282.898" cy="181.228" r="0.960"/>
    <circle cx="282.898" cy="200.126" r="0.960"/>
    <circle cx="282.898" cy="219.024" r="0.960"/>
    <circle cx="282.898" cy="237.921" r="0.960"/>
    <circle cx="282.898" cy="256.819" r="0.960"/>
    <circle cx="282.898" cy="275.717" r="0.960"/>
    <circle cx="282.898" cy="294.614" r="0.960"/>
    <circle cx="282.898" cy="313.512" r="0.960"/>
    <circle cx="282.898" cy="332.409" r="0.960"/>
    <circle cx="282.898" cy="351.307" r="0.960"/>
    <circle cx="282.898" cy="370.205" r="0.960"/>
    <circle cx="282.898" cy="389.102" r="0.960"/>
    <circle cx="282.898" cy="408.000" r="0.960"/>
    <circle cx="282.898" cy="426.898" r="0.960"/>
    <circle cx="282.898" cy="445.795" r="0.960"/>
    <circle cx="282.898" cy="464.693" r="0.960"/>
    <circle cx="282.898" cy="483.591" r="0.960"/>
    <circle cx="282.898" cy="502.488" r="0.960"/>
    <circle cx="282.898" cy="521.386" r="0.960"/>
    <circle cx="282.898" cy="540.283" r="0.960"/>
    <circle cx="282.898" cy="559.181" r="0.960"/>
    <circle cx="282.898" cy="578.079" r="0.960"/>
    <circle cx="282.898" cy="596.976" r="0.960"/>
    <circle cx="282.898" cy="615.874" r="0.960"/>
    <circle cx="282.898" cy="634.772" r="0.960"/>
    <circle cx="282.898" cy="653.669" r="0.960"/>
    <circle cx="282.898" cy="672.567" r="0.960"/>
    <circle cx="282.898" cy="691.465" r="0.960"/>
    <circle cx="282.898" cy="710.362" r="0.960"/>
    <circle cx="282.898" cy="729.260" r="0.960"/>
    <circle cx="282.898" cy="748.157" r="0.960"/>
    <circle cx="282.898" cy="767.055" r="0.960"/>
    <circle cx="282.898" cy="785.953" r="0.960"/>
    <circle cx="282.898" cy="804.850" r="0.960"/>
    <circle cx="301.795" cy="11.150" r="0.960"/>
    <circle cx="301.795" cy="30.047" r="0.960"/>
    <circle cx="301.795" cy="48.945" r="0.960"/>
    <circle cx="301.795" cy="67.843" r="0.960"/>
    <circle cx="301.795" cy="86.740" r="0.960"/>
    <circle cx="301.795" cy="105.638" r="0.960"/>
    <circle cx="301.795" cy="124.535" r="0.960"/>
    <circle cx="301.795" cy="143.433" r="0.960"/>
    <circle cx="301.795" cy="162.331" r="0.960"/>
    <circle cx="301.795" cy="181.228" r="0.960"/>
    <circle cx="301.795" cy="200.126" r="0.960"/>
    <circle cx="301.795" cy="219.024" r="0.960"/>
    <circle cx="301.795" cy="237.921" r="0.960"/>
    <circle cx="301.795" cy="256.819" r="0.960"/>
    <circle cx="301.795" cy="275.717" r="0.960"/>
    <circle cx="301.795" cy="294.614" r="0.960"/>
    <circle cx="301.795" cy="313.512" r="0.960"/>
    <circle cx="301.795" cy="332.409" r="0.960"/>
    <circle cx="301.795" cy="351.307" r="0.960"/>
    <circle cx="301.795" cy="370.205" r="0.960"/>
    <circle cx="301.795" cy="389.102" r="0.960"/>
    <circle cx="301.795" cy="408.000" r="0.960"/>
    <circle cx="301.795" cy="426.898" r="0.960"/>
    <circle cx="301.795" cy="445.795" r="0.960"/>
    <circle cx="301.795" cy="464.693" r="0.960"/>
    <circle cx="301.795" cy="483.591" r="0.960"/>
    <circle cx="301.795" cy="502.488" r="0.960"/>
    <circle cx="301.795" cy="521.386" r="0.960"/>
    <circle cx="301.795" cy="540.283" r="0.960"/>
    <circle cx="301.795" cy="559.181" r="0.960"/>
    <circle cx="301.795" cy="578.079" r="0.960"/>
    <circle cx="301.795" cy="596.976" r="0.960"/>
    <circle cx="301.795" cy="615.874" r="0.960"/>
    <circle cx="301.795" cy="634.772" r="0.960"/>
    <circle cx="301.795" cy="653.669" r="0.960"/>
    <circle cx="301.795" cy="672.567" r="0.960"/>
    <circle cx="301.795" cy="691.465" r="0.960"/>
    <circle cx="301.795" cy="710.362" r="0.960"/>
    <circle cx="301.795" cy="729.260" r="0.960"/>
    <circle cx="301.795" cy="748.157" r="0.960"/>
    <circle cx="301.795" cy="767.055" r="0.960"/>
    <circle cx="301.795" cy="785.953" r="0.960"/>
    <circle cx="301.795" cy="804.850" r="0.960"/>
    <circle cx="320.693" cy="11.150" r="0.960"/>
    <circle cx="320.693" cy="30.047" r="0.960"/>
    <circle cx="320.693" cy="48.945" r="0.960"/>
    <circle cx="320.693" cy="67.843" r="0.960"/>
    <circle cx="320.693" cy="86.740" r="0.960"/>
    <circle cx="320.693" cy="105.638" r="0.960"/>
    <circle cx="320.693" cy="124.535" r="0.960"/>
    <circle cx="320.693" cy="143.433" r="0.960"/>
    <circle cx="320.693" cy="162.331" r="0.960"/>
    <circle cx="320.693" cy="181.228" r="0.960"/>
    <circle cx="320.693" cy="200.126" r="0.960"/>
    <circle cx="320.693" cy="219.024" r="0.960"/>
    <circle cx="320.693" cy="237.921" r="0.960"/>
    <circle cx="320.693" cy="256.819" r="0.960"/>
    <circle cx="320.693" cy="275.717" r="0.960"/>
    <circle cx="320.693" cy="294.614" r="0.960"/>
    <circle cx="320.693" cy="313.512" r="0.960"/>
    <circle cx="320.693" cy="332.409" r="0.960"/>
    <circle cx="320.693" cy="351.307" r="0.960"/>
    <circle cx="320.693" cy="370.205" r="0.960"/>
    <circle cx="320.693" cy="389.102" r="0.960"/>
    <circle cx="320.693" cy="408.000" r="0.960"/>
    <circle cx="320.693" cy="426.898" r="0.960"/>
    <circle cx="320.693" cy="445.795" r="0.960"/>
    <circle cx="320.693" cy="464.693" r="0.960"/>
    <circle cx="320.693" cy="483.591" r="0.960"/>
    <circle cx="320.693" cy="502.488" r="0.960"/>
    <circle cx="320.693" cy="521.386" r="0.960"/>
    <circle cx="320.693" cy="540.283" r="0.960"/>
    <circle cx="320.693" cy="559.181" r="0.960"/>
    <circle cx="320.693" cy="578.079" r="0.960"/>
    <circle cx="320.693" cy="596.976" r="0.960"/>
    <circle cx="320.693" cy="615.874" r="0.960"/>
    <circle cx="320.693" cy="634.772" r="0.960"/>
    <circle cx="320.693" cy="653.669" r="0.960"/>
    <circle cx="320.693" cy="672.567" r="0.960"/>
    <circle cx="320.693" cy="691.465" r="0.960"/>
    <circle cx="320.693" cy="710.362" r="0.960"/>
    <circle cx="320.693" cy="729.260" r="0.960"/>
    <circle cx="320.693" cy="748.157" r="0.960"/>
    <circle cx="320.693" cy="767.055" r="0.960"/>
    <circle cx="320.693" cy="785.953" r="0.960"/>
    <circle cx="320.693" cy="804.850" r="0.960"/>
    <circle cx="339.591" cy="11.150" r="0.960"/>
    <circle cx="339.591" cy="30.047" r="0.960"/>
    <circle cx="339.591" cy="48.945" r="0.960"/>
    <circle cx="339.591" cy="67.843" r="0.960"/>
    <circle cx="339.591" cy="86.740" r="0.960"/>
    <circle cx="339.591" cy="105.638" r="0.960"/>
    <circle cx="339.591" cy="124.535" r="0.960"/>
    <circle cx="339.591" cy="143.433" r="0.960"/>
    <circle cx="339.591" cy="162.331" r="0.960"/>
    <circle cx="339.591" cy="181.228" r="0.960"/>
    <circle cx="339.591" cy="200.126" r="0.960"/>
    <circle cx="339.591" cy="219.024" r="0.960"/>
    <circle cx="339.591" cy="237.921" r="0.960"/>
    <circle cx="339.591" cy="256.819" r="0.960"/>
    <circle cx="339.591" cy="275.717" r="0.960"/>
    <circle cx="339.591" cy="294.614" r="0.960"/>
    <circle cx="339.591" cy="313.512" r="0.960"/>
    <circle cx="339.591" cy="332.409" r="0.960"/>
    <circle cx="339.591" cy="351.307" r="0.960"/>
    <circle cx="339.591" cy="370.205" r="0.960"/>
    <circle cx="339.591" cy="389.102" r="0.960"/>
    <circle cx="339.591" cy="408.000" r="0.960"/>
    <circle cx="339.591" cy="426.898" r="0.960"/>
    <circle cx="339.591" cy="445.795" r="0.960"/>
    <circle cx="339.591" cy="464.693" r="0.960"/>
    <circle cx="339.591" cy="483.591" r="0.960"/>
    <circle cx="339.591" cy="502.488" r="0.960"/>
    <circle cx="339.591" cy="521.386" r="0.960"/>
    <circle cx="339.591" cy="540.283" r="0.960"/>
    <circle cx="339.591" cy="559.181" r="0.960"/>
    <circle cx="339.591" cy="578.079" r="0.960"/>
    <circle cx="339.591" cy="596.976" r="0.960"/>
    <circle cx="339.591" cy="615.874" r="0.960"/>
    <circle cx="339.591" cy="634.772" r="0.960"/>
    <circle cx="339.591" cy="653.669" r="0.960"/>
    <circle cx="339.591" cy="672.567" r="0.960"/>
    <circle cx="339.591" cy="691.465" r="0.960"/>
    <circle cx="339.591" cy="710.362" r="0.960"/>
    <circle cx="339.591" cy="729.260" r="0.960"/>
    <circle cx="339.591" cy="748.157" r="0.960"/>
    <circle cx="339.591" cy="767.055" r="0.960"/>
    <circle cx="339.591" cy="785.953" r="0.960"/>
    <circle cx="339.591" cy="804.850" r="0.960"/>
    <circle cx="358.488" cy="11.150" r="0.960"/>
    <circle cx="358.488" cy="30.047" r="0.960"/>
    <circle cx="358.488" cy="48.945" r="0.960"/>
    <circle cx="358.488" cy="67.843" r="0.960"/>
    <circle cx="358.488" cy="86.740" r="0.960"/>
    <circle cx="358.488" cy="105.638" r="0.960"/>
    <circle cx="358.488" cy="124.535" r="0.960"/>
    <circle cx="358.488" cy="143.433" r="0.960"/>
    <circle cx="358.488" cy="162.331" r="0.960"/>
    <circle cx="358.488" cy="181.228" r="0.960"/>
    <circle cx="358.488" cy="200.126" r="0.960"/>
    <circle cx="358.488" cy="219.024" r="0.960"/>
    <circle cx="358.488" cy="237.921" r="0.960"/>
    <circle cx="358.488" cy="256.819" r="0.960"/>
    <circle cx="358.488" cy="275.717" r="0.960"/>
    <circle cx="358.488" cy="294.614" r="0.960"/>
    <circle cx="358.488" cy="313.512" r="0.960"/>
    <circle cx="358.488" cy="332.409" r="0.960"/>
    <circle cx="358.488" cy="351.307" r="0.960"/>
    <circle cx="358.488" cy="370.205" r="0.960"/>
    <circle cx="358.488" cy="389.102" r="0.960"/>
    <circle cx="358.488" cy="408.000" r="0.960"/>
    <circle cx="358.488" cy="426.898" r="0.960"/>
    <circle cx="358.488" cy="445.795" r="0.960"/>
    <circle cx="358.488" cy="464.693" r="0.960"/>
    <circle cx="358.488" cy="483.591" r="0.960"/>
    <circle cx="358.488" cy="502.488" r="0.960"/>
    <circle cx="358.488" cy="521.386" r="0.960"/>
    <circle cx="358.488" cy="540.283" r="0.960"/>
    <circle cx="358.488" cy="559.181" r="0.960"/>
    <circle cx="358.488" cy="578.079" r="0.960"/>
    <circle cx="358.488" cy="596.976" r="0.960"/>
    <circle cx="358.488" cy="615.874" r="0.960"/>
    <circle cx="358.488" cy="634.772" r="0.960"/>
    <circle cx="358.488" cy="653.669" r="0.960"/>
    <circle cx="358.488" cy="672.567" r="0.960"/>
    <circle cx="358.488" cy="691.465" r="0.960"/>
    <circle cx="358.488" cy="710.362" r="0.960"/>
    <circle cx="358.488" cy="729.260" r="0.960"/>
    <circle cx="358.488" cy="748.157" r="0.960"/>
    <circle cx="358.488" cy="767.055" r="0.960"/>
    <circle cx="358.488" cy="785.953" r="0.960"/>
    <circle cx="358.488" cy="804.850" r="0.960"/>
    <circle cx="377.386" cy="11.150" r="0.960"/>
    <circle cx="377.386" cy="30.047" r="0.960"/>
    <circle cx="377.386" cy="48.945" r="0.960"/>
    <circle cx="377.386" cy="67.843" r="0.960"/>
    <circle cx="377.386" cy="86.740" r="0.960"/>
    <circle cx="377.386" cy="105.638" r="0.960"/>
    <circle cx="377.386" cy="124.535" r="0.960"/>
    <circle cx="377.386" cy="143.433" r="0.960"/>
    <circle cx="377.386" cy="162.331" r="0.960"/>
    <circle cx="377.386" cy="181.228" r="0.960"/>
    <circle cx="377.386" cy="200.126" r="0.960"/>
    <circle cx="377.386" cy="219.024" r="0.960"/>
    <circle cx="377.386" cy="237.921" r="0.960"/>
    <circle cx="377.386" cy="256.819" r="0.960"/>
    <circle cx="377.386" cy="275.717" r="0.960"/>
    <circle cx="377.386" cy="294.614" r="0.960"/>
    <circle cx="377.386" cy="313.512" r="0.960"/>
    <circle cx="377.386" cy="332.409" r="0.960"/>
    <circle cx="377.386" cy="351.307" r="0.960"/>
    <circle cx="377.386" cy="370.205" r="0.960"/>
    <circle cx="377.386" cy="389.102" r="0.960"/>
    <circle cx="377.386" cy="408.000" r="0.960"/>
    <circle cx="377.386" cy="426.898" r="0.960"/>
    <circle cx="377.386" cy="445.795" r="0.960"/>
    <circle cx="377.386" cy="464.693" r="0.960"/>
    <circle cx="377.386" cy="483.591" r="0.960"/>
    <circle cx="377.386" cy="502.488" r="0.960"/>
    <circle cx="377.386" cy="521.386" r="0.960"/>
    <circle cx="377.386" cy="540.283" r="0.960"/>
    <circle cx="377.386" cy="559.181" r="0.960"/>
    <circle cx="377.386" cy="578.079" r="0.960"/>
    <circle cx="377.386" cy="596.976" r="0.960"/>
    <circle cx="377.386" cy="615.874" r="0.960"/>
    <circle cx="377.386" cy="634.772" r="0.960"/>
    <circle cx="377.386" cy="653.669" r="0.960"/>
    <circle cx="377.386" cy="672.567" r="0.960"/>
    <circle cx="377.386" cy="691.465" r="0.960"/>
    <circle cx="377.386" cy="710.362" r="0.960"/>
    <circle cx="377.386" cy="729.260" r="0.960"/>
    <circle cx="377.386" cy="748.157" r="0.960"/>
    <circle cx="377.386" cy="767.055" r="0.960"/>
    <circle cx="377.386" cy="785.953" r="0.960"/>
    <circle cx="377.386" cy="804.850" r="0.960"/>
    <circle cx="396.283" cy="11.150" r="0.960"/>
    <circle cx="396.283" cy="30.047" r="0.960"/>
    <circle cx="396.283" cy="48.945" r="0.960"/>
    <circle cx="396.283" cy="67.843" r="0.960"/>
    <circle cx="396.283" cy="86.740" r="0.960"/>
    <circle cx="396.283" cy="105.638" r="0.960"/>
    <circle cx="396.283" cy="124.535" r="0.960"/>
    <circle cx="396.283" cy="143.433" r="0.960"/>
    <circle cx="396.283" cy="162.331" r="0.960"/>
    <circle cx="396.283" cy="181.228" r="0.960"/>
    <circle cx="396.283" cy="200.126" r="0.960"/>
    <circle cx="396.283" cy="219.024" r="0.960"/>
    <circle cx="396.283" cy="237.921" r="0.960"/>
    <circle cx="396.283" cy="256.819" r="0.960"/>
    <circle cx="396.283" cy="275.717" r="0.960"/>
    <circle cx="396.283" cy="294.614" r="0.960"/>
    <circle cx="396.283" cy="313.512" r="0.960"/>
    <circle cx="396.283" cy="332.409" r="0.960"/>
    <circle cx="396.283" cy="351.307" r="0.960"/>
    <circle cx="396.283" cy="370.205" r="0.960"/>
    <circle cx="396.283" cy="389.102" r="0.960"/>
    <circle cx="396.283" cy="408.000" r="0.960"/>
    <circle cx="396.283" cy="426.898" r="0.960"/>
    <circle cx="396.283" cy="445.795" r="0.960"/>
    <circle cx="396.283" cy="464.693" r="0.960"/>
    <circle cx="396.283" cy="483.591" r="0.960"/>
    <circle cx="396.283" cy="502.488" r="0.960"/>
    <circle cx="396.283" cy="521.386" r="0.960"/>
    <circle cx="396.283" cy="540.283" r="0.960"/>
    <circle cx="396.283" cy="559.181" r="0.960"/>
    <circle cx="396.283" cy="578.079" r="0.960"/>
    <circle cx="396.283" cy="596.976" r="0.960"/>
    <circle cx="396.283" cy="615.874" r="0.960"/>
    <circle cx="396.283" cy="634.772" r="0.960"/>
    <circle cx="396.283" cy="653.669" r="0.960"/>
    <circle cx="396.283" cy="672.567" r="0.960"/>
    <circle cx="396.283" cy="691.465" r="0.960"/>
    <circle cx="396.283" cy="710.362" r="0.960"/>
    <circle cx="396.283" cy="729.260" r="0.960"/>
    <circle cx="396.283" cy="748.157" r="0.960"/>
    <circle cx="396.283" cy="767.055" r="0.960"/>
    <circle cx="396.283" cy="785.953" r="0.960"/>
    <circle cx="396.283" cy="804.850" r="0.960"/>
    <circle cx="415.181" cy="11.150" r="0.960"/>
    <circle cx="415.181" cy="30.047" r="0.960"/>
    <circle cx="415.181" cy="48.945" r="0.960"/>
    <circle cx="415.181" cy="67.843" r="0.960"/>
    <circle cx="415.181" cy="86.740" r="0.960"/>
    <circle cx="415.181" cy="105.638" r="0.960"/>
    <circle cx="415.181" cy="124.535" r="0.960"/>
    <circle cx="415.181" cy="143.433" r="0.960"/>
    <circle cx="415.181" cy="162.331" r="0.960"/>
    <circle cx="415.181" cy="181.228" r="0.960"/>
    <circle cx="415.181" cy="200.126" r="0.960"/>
    <circle cx="415.181" cy="219.024" r="0.960"/>
    <circle cx="415.181" cy="237.921" r="0.960"/>
    <circle cx="415.181" cy="256.819" r="0.960"/>
    <circle cx="415.181" cy="275.717" r="0.960"/>
    <circle cx="415.181" cy="294.614" r="0.960"/>
    <circle cx="415.181" cy="313.512" r="0.960"/>
    <circle cx="415.181" cy="332.409" r="0.960"/>
    <circle cx="415.181" cy="351.307" r="0.960"/>
    <circle cx="415.181" cy="370.205" r="0.960"/>
    <circle cx="415.181" cy="389.102" r="0.960"/>
    <circle cx="415.181" cy="408.000" r="0.960"/>
    <circle cx="415.181" cy="426.898" r="0.960"/>
    <circle cx="415.181" cy="445.795" r="0.960"/>
    <circle cx="415.181" cy="464.693" r="0.960"/>
    <circle cx="415.181" cy="483.591" r="0.960"/>
    <circle cx="415.181" cy="502.488" r="0.960"/>
    <circle cx="415.181" cy="521.386" r="0.960"/>
    <circle cx="415.181" cy="540.283" r="0.960"/>
    <circle cx="415.181" cy="559.181" r="0.960"/>
    <circle cx="415.181" cy="578.079" r="0.960"/>
    <circle cx="415.181" cy="596.976" r="0.960"/>
    <circle cx="415.181" cy="615.874" r="0.960"/>
    <circle cx="415.181" cy="634.772" r="0.960"/>
    <circle cx="415.181" cy="653.669" r="0.960"/>
    <circle cx="415.181" cy="672.567" r="0.960"/>
    <circle cx="415.181" cy="691.465" r="0.960"/>
    <circle cx="415.181" cy="710.362" r="0.960"/>
    <circle cx="415.181" cy="729.260" r="0.960"/>
    <circle cx="415.181" cy="748.157" r="0.960"/>
    <circle cx="415.181" cy="767.055" r="0.960"/>
    <circle cx="415.181" cy="785.953" r="0.960"/>
    <circle cx="415.181" cy="804.850" r="0.960"/>
    <circle cx="434.079" cy="11.150" r="0.960"/>
    <circle cx="434.079" cy="30.047" r="0.960"/>
    <circle cx="434.079" cy="48.945" r="0.960"/>
    <circle cx="434.079" cy="67.843" r="0.960"/>
    <circle cx="434.079" cy="86.740" r="0.960"/>
    <circle cx="434.079" cy="105.638" r="0.960"/>
    <circle cx="434.079" cy="124.535" r="0.960"/>
    <circle cx="434.079" cy="143.433" r="0.960"/>
    <circle cx="434.079" cy="162.331" r="0.960"/>
    <circle cx="434.079" cy="181.228" r="0.960"/>
    <circle cx="434.079" cy="200.126" r="0.960"/>
    <circle cx="434.079" cy="219.024" r="0.960"/>
    <circle cx="434.079" cy="237.921" r="0.960"/>
    <circle cx="434.079" cy="256.819" r="0.960"/>
    <circle cx="434.079" cy="275.717" r="0.960"/>
    <circle cx="434.079" cy="294.614" r="0.960"/>
    <circle cx="434.079" cy="313.512" r="0.960"/>
    <circle cx="434.079" cy="332.409" r="0.960"/>
    <circle cx="434.079" cy="351.307" r="0.960"/>
    <circle cx="434.079" cy="370.205" r="0.960"/>
    <circle cx="434.079" cy="389.102" r="0.960"/>
    <circle cx="434.079" cy="408.000" r="0.960"/>
    <circle cx="434.079" cy="426.898" r="0.960"/>
    <circle cx="434.079" cy="445.795" r="0.960"/>
    <circle cx="434.079" cy="464.693" r="0.960"/>
    <circle cx="434.079" cy="483.591" r="0.960"/>
    <circle cx="434.079" cy="502.488" r="0.960"/>
    <circle cx="434.079" cy="521.386" r="0.960"/>
    <circle cx="434.079" cy="540.283" r="0.960"/>
    <circle cx="434.079" cy="559.181" r="0.960"/>
    <circle cx="434.079" cy="578.079" r="0.960"/>
    <circle cx="434.079" cy="596.976" r="0.960"/>
    <circle cx="434.079" cy="615.874" r="0.960"/>
    <circle cx="434.079" cy="634.772" r="0.960"/>
    <circle cx="434.079" cy="653.669" r="0.960"/>
    <circle cx="434.079" cy="672.567" r="0.960"/>
    <circle cx="434.079" cy="691.465" r="0.960"/>
    <circle cx="434.079" cy="710.362" r="0.960"/>
    <circle cx="434.079" cy="729.260" r="0.960"/>
    <circle cx="434.079" cy="748.157" r="0.960"/>
    <circle cx="434.079" cy="767.055" r="0.960"/>
    <circle cx="434.079" cy="785.953" r="0.960"/>
    <circle cx="434.079" cy="804.850" r="0.960"/>
    <circle cx="452.976" cy="11.150" r="0.960"/>
    <circle cx="452.976" cy="30.047" r="0.960"/>
    <circle cx="452.976" cy="48.945" r="0.960"/>
    <circle cx="452.976" cy="67.843" r="0.960"/>
    <circle cx="452.976" cy="86.740" r="0.960"/>
    <circle cx="452.976" cy="105.638" r="0.960"/>
    <circle cx="452.976" cy="124.535" r="0.960"/>
    <circle cx="452.976" cy="143.433" r="0.960"/>
    <circle cx="452.976" cy="162.331" r="0.960"/>
    <circle cx="452.976" cy="181.228" r="0.960"/>
    <circle cx="452.976" cy="200.126" r="0.960"/>
    <circle cx="452.976" cy="219.024" r="0.960"/>
    <circle cx="452.976" cy="237.921" r="0.960"/>
    <circle cx="452.976" cy="256.819" r="0.960"/>
    <circle cx="452.976" cy="275.717" r="0.960"/>
    <circle cx="452.976" cy="294.614" r="0.960"/>
    <circle cx="452.976" cy="313.512" r="0.960"/>
    <circle cx="452.976" cy="332.409" r="0.960"/>
    <circle cx="452.976" cy="351.307" r="0.960"/>
    <circle cx="452.976" cy="370.205" r="0.960"/>
    <circle cx="452.976" cy="389.102" r="0.960"/>
    <circle cx="452.976" cy="408.000" r="0.960"/>
    <circle cx="452.976" cy="426.898" r="0.960"/>
    <circle cx="452.976" cy="445.795" r="0.960"/>
    <circle cx="452.976" cy="464.693" r="0.960"/>
    <circle cx="452.976" cy="483.591" r="0.960"/>
    <circle cx="452.976" cy="502.488" r="0.960"/>
    <circle cx="452.976" cy="521.386" r="0.960"/>
    <circle cx="452.976" cy="540.283" r="0.960"/>
    <circle cx="452.976" cy="559.181" r="0.960"/>
    <circle cx="452.976" cy="578.079" r="0.960"/>
    <circle cx="452.976" cy="596.976" r="0.960"/>
    <circle cx="452.976" cy="615.874" r="0.960"/>
    <circle cx="452.976" cy="634.772" r="0.960"/>
    <circle cx="452.976" cy="653.669" r="0.960"/>
    <circle cx="452.976" cy="672.567" r="0.960"/>
    <circle cx="452.976" cy="691.465" r="0.960"/>
    <circle cx="452.976" cy="710.362" r="0.960"/>
    <circle cx="452.976" cy="729.260" r="0.960"/>
    <circle cx="452.976" cy="748.157" r="0.960"/>
    <circle cx="452.976" cy="767.055" r="0.960"/>
    <circle cx="452.976" cy="785.953" r="0.960"/>
    <circle cx="452.976" cy="804.850" r="0.960"/>
    <circle cx="471.874" cy="11.150" r="0.960"/>
    <circle cx="471.874" cy="30.047" r="0.960"/>
    <circle cx="471.874" cy="48.945" r="0.960"/>
    <circle cx="471.874" cy="67.843" r="0.960"/>
    <circle cx="471.874" cy="86.740" r="0.960"/>
    <circle cx="471.874" cy="105.638" r="0.960"/>
    <circle cx="471.874" cy="124.535" r="0.960"/>
    <circle cx="471.874" cy="143.433" r="0.960"/>
    <circle cx="471.874" cy="162.331" r="0.960"/>
    <circle cx="471.874" cy="181.228" r="0.960"/>
    <circle cx="471.874" cy="200.126" r="0.960"/>
    <circle cx="471.874" cy="219.024" r="0.960"/>
    <circle cx="471.874" cy="237.921" r="0.960"/>
    <circle cx="471.874" cy="256.819" r="0.960"/>
    <circle cx="471.874" cy="275.717" r="0.960"/>
    <circle cx="471.874" cy="294.614" r="0.960"/>
    <circle cx="471.874" cy="313.512" r="0.960"/>
    <circle cx="471.874" cy="332.409" r="0.960"/>
    <circle cx="471.874" cy="351.307" r="0.960"/>
    <circle cx="471.874" cy="370.205" r="0.960"/>
    <circle cx="471.874" cy="389.102" r="0.960"/>
    <circle cx="471.874" cy="408.000" r="0.960"/>
    <circle cx="471.874" cy="426.898" r="0.960"/>
    <circle cx="471.874" cy="445.795" r="0.960"/>
    <circle cx="471.874" cy="464.693" r="0.960"/>
    <circle cx="471.874" cy="483.591" r="0.960"/>
    <circle cx="471.874" cy="502.488" r="0.960"/>
    <circle cx="471.874" cy="521.386" r="0.960"/>
    <circle cx="471.874" cy="540.283" r="0.960"/>
    <circle cx="471.874" cy="559.181" r="0.960"/>
    <circle cx="471.874" cy="578.079" r="0.960"/>
    <circle cx="471.874" cy="596.976" r="0.960"/>
    <circle cx="471.874" cy="615.874" r="0.960"/>
    <circle cx="471.874" cy="634.772" r="0.960"/>
    <circle cx="471.874" cy="653.669" r="0.960"/>
    <circle cx="471.874" cy="672.567" r="0.960"/>
    <circle cx="471.874" cy="691.465" r="0.960"/>
    <circle cx="471.874" cy="710.362" r="0.960"/>
    <circle cx="471.874" cy="729.260" r="0.960"/>
    <circle cx="471.874" cy="748.157" r="0.960"/>
    <circle cx="471.874" cy="767.055" r="0.960"/>
    <circle cx="471.874" cy="785.953" r="0.960"/>
    <circle cx="471.874" cy="804.850" r="0.960"/>
    <circle cx="490.772" cy="11.150" r="0.960"/>
    <circle cx="490.772" cy="30.047" r="0.960"/>
    <circle cx="490.772" cy="48.945" r="0.960"/>
    <circle cx="490.772" cy="67.843" r="0.960"/>
    <circle cx="490.772" cy="86.740" r="0.960"/>
    <circle cx="490.772" cy="105.638" r="0.960"/>
    <circle cx="490.772" cy="124.535" r="0.960"/>
    <circle cx="490.772" cy="143.433" r="0.960"/>
    <circle cx="490.772" cy="162.331" r="0.960"/>
    <circle cx="490.772" cy="181.228" r="0.960"/>
    <circle cx="490.772" cy="200.126" r="0.960"/>
    <circle cx="490.772" cy="219.024" r="0.960"/>
    <circle cx="490.772" cy="237.921" r="0.960"/>
    <circle cx="490.772" cy="256.819" r="0.960"/>
    <circle cx="490.772" cy="275.717" r="0.960"/>
    <circle cx="490.772" cy="294.614" r="0.960"/>
    <circle cx="490.772" cy="313.512" r="0.960"/>
    <circle cx="490.772" cy="332.409" r="0.960"/>
    <circle cx="490.772" cy="351.307" r="0.960"/>
    <circle cx="490.772" cy="370.205" r="0.960"/>
    <circle cx="490.772" cy="389.102" r="0.960"/>
    <circle cx="490.772" cy="408.000" r="0.960"/>
    <circle cx="490.772" cy="426.898" r="0.960"/>
    <circle cx="490.772" cy="445.795" r="0.960"/>
    <circle cx="490.772" cy="464.693" r="0.960"/>
    <circle cx="490.772" cy="483.591" r="0.960"/>
    <circle cx="490.772" cy="502.488" r="0.960"/>
    <circle cx="490.772" cy="521.386" r="0.960"/>
    <circle cx="490.772" cy="540.283" r="0.960"/>
    <circle cx="490.772" cy="559.181" r="0.960"/>
    <circle cx="490.772" cy="578.079" r="0.960"/>
    <circle cx="490.772" cy="596.976" r="0.960"/>
    <circle cx="490.772" cy="615.874" r="0.960"/>
    <circle cx="490.772" cy="634.772" r="0.960"/>
    <circle cx="490.772" cy="653.669" r="0.960"/>
    <circle cx="490.772" cy="672.567" r="0.960"/>
    <circle cx="490.772" cy="691.465" r="0.960"/>
    <circle cx="490.772" cy="710.362" r="0.960"/>
    <circle cx="490.772" cy="729.260" r="0.960"/>
    <circle cx="490.772" cy="748.157" r="0.960"/>
    <circle cx="490.772" cy="767.055" r="0.960"/>
    <circle cx="490.772" cy="785.953" r="0.960"/>
    <circle cx="490.772" cy="804.850" r="0.960"/>
    <circle cx="509.669" cy="11.150" r="0.960"/>
    <circle cx="509.669" cy="30.047" r="0.960"/>
    <circle cx="509.669" cy="48.945" r="0.960"/>
    <circle cx="509.669" cy="67.843" r="0.960"/>
    <circle cx="509.669" cy="86.740" r="0.960"/>
    <circle cx="509.669" cy="105.638" r="0.960"/>
    <circle cx="509.669" cy="124.535" r="0.960"/>
    <circle cx="509.669" cy="143.433" r="0.960"/>
    <circle cx="509.669" cy="162.331" r="0.960"/>
    <circle cx="509.669" cy="181.228" r="0.960"/>
    <circle cx="509.669" cy="200.126" r="0.960"/>
    <circle cx="509.669" cy="219.024" r="0.960"/>
    <circle cx="509.669" cy="237.921" r="0.960"/>
    <circle cx="509.669" cy="256.819" r="0.960"/>
    <circle cx="509.669" cy="275.717" r="0.960"/>
    <circle cx="509.669" cy="294.614" r="0.960"/>
    <circle cx="509.669" cy="313.512" r="0.960"/>
    <circle cx="509.669" cy="332.409" r="0.960"/>
    <circle cx="509.669" cy="351.307" r="0.960"/>
    <circle cx="509.669" cy="370.205" r="0.960"/>
    <circle cx="509.669" cy="389.102" r="0.960"/>
    <circle cx="509.669" cy="408.000" r="0.960"/>
    <circle cx="509.669" cy="426.898" r="0.960"/>
    <circle cx="509.669" cy="445.795" r="0.960"/>
    <circle cx="509.669" cy="464.693" r="0.960"/>
    <circle cx="509.669" cy="483.591" r="0.960"/>
    <circle cx="509.669" cy="502.488" r="0.960"/>
    <circle cx="509.669" cy="521.386" r="0.960"/>
    <circle cx="509.669" cy="540.283" r="0.960"/>
    <circle cx="509.669" cy="559.181" r="0.960"/>
    <circle cx="509.669" cy="578.079" r="0.960"/>
    <circle cx="509.669" cy="596.976" r="0.960"/>
    <circle cx="509.669" cy="615.874" r="0.960"/>
    <circle cx="509.669" cy="634.772" r="0.960"/>
    <circle cx="509.669" cy="653.669" r="0.960"/>
    <circle cx="509.669" cy="672.567" r="0.960"/>
    <circle cx="509.669" cy="691.465" r="0.960"/>
    <circle cx="509.669" cy="710.362" r="0.960"/>
    <circle cx="509.669" cy="729.260" r="0.960"/>
    <circle cx="509.669" cy="748.157" r="0.960"/>
    <circle cx="509.669" cy="767.055" r="0.960"/>
    <circle cx="509.669" cy="785.953" r="0.960"/>
    <circle cx="509.669" cy="804.850" r="0.960"/>
  </g>
</svg>
