<?xml version="1.0" encoding="UTF-8"?>
<svg xmlns="http://www.w3.org/2000/svg" version="1.1" width="816.000px" height="1056.000px" viewBox="0.000 0.000 816.000 1056.000">
  <style>line, rect {
    fill: none;
    stroke-width: 0.16px;
    stroke: #95c9d7;
    stroke-linecap: round;
    stroke-linejoin: round;
}
line.minor, rect.minor {
    stroke-width: 0.32px;
}
line.major, rect.major {
    stroke-width: 0.64px;
}
text {
    text-anchor: middle;
    font-family: 'Times New Roman', 'Times Roman', serif;
    font-size: 8px;
    fill: #95c9d7;
}
circle {
    fill: #95c9d7;
}
</style>
  <g id="document">
    <line class="feint" x1="7.370" x2="7.370" y1="6.425" y2="1049.575"/>
    <line class="feint" x1="14.929" x2="14.929" y1="6.425" y2="1049.575"/>
    <line class="major" x1="22.488" x2="22.488" y1="6.425" y2="1049.575"/>
    <line class="feint" x1="30.047" x2="30.047" y1="6.425" y2="1049.575"/>
    <line class="feint" x1="37.606" x2="37.606" y1="6.425" y2="1049.575"/>
    <line class="major" x1="45.165" x2="45.165" y1="6.425" y2="1049.575"/>
    <line class="feint" x1="52.724" x2="52.724" y1="6.425" y2="1049.575"/>
    <line class="feint" x1="60.283" x2="60.283" y1="6.425" y2="1049.575"/>
    <line class="major" x1="67.843" x2="67.843" y1="6.425" y2="1049.575"/>
    <line class="feint" x1="75.402" x2="75.402" y1="6.425" y2="1049.575"/>
    <line class="feint" x1="82.961" x2="82.961" y1="6.425" y2="1049.575"/>
    <line class="major" x1="90.520" x2="90.520" y1="6.425" y2="1049.575"/>
    <line class="feint" x1="98.079" x2="98.079" y1="6.425" y2="1049.575"/>
    <line class="feint" x1="105.638" x2="105.638" y1="6.425" y2="1049.575"/>
    <line class="major" x1="113.197" x2="113.197" y1="6.425" y2="1049.575"/>
    <line class="feint" x1="120.756" x2="120.756" y1="6.425" y2="1049.575"/>
    <line class="feint" x1="128.315" x2="128.315" y1="6.425" y2="1049.575"/>
    <line class="major" x1="135.874" x2="135.874" y1="6.425" y2="1049.575"/>
    <line class="feint" x1="143.433" x2="143.433" y1="6.425" y2="1049.575"/>
    <line class="feint" x1="150.992" x2="150.992" y1="6.425" y2="1049.575"/>
    <line class="major" x1="158.551" x2="158.551" y1="6.425" y2="1049.575"/>
    <line class="feint" x1="166.110" x2="166.110" y1="6.425" y2="1049.575"/>
    <line class="feint" x1="173.669" x2="173.669" y1="6.425" y2="1049.575"/>
    <line class="major" x1="181.228" x2="181.228" y1="6.425" y2="1049.575"/>
    <line class="feint" x1="188.787" x2="188.787" y1="6.425" y2="1049.575"/>
    <line class="feint" x1="196.346" x2="196.346" y1="6.425" y2="1049.575"/>
    <line class="major" x1="203.906" x2="203.906" y1="6.425" y2="1049.575"/>
    <line class="feint" x1="211.465" x2="211.465" y1="6.425" y2="1049.575"/>
    <line class="feint" x1="219.024" x2="219.024" y1="6.425" y2="1049.575"/>
    <line class="major" x1="226.583" x2="226.583" y1="6.425" y2="1049.575"/>
    <line class="feint" x1="234.142" x2="234.142" y1="6.425" y2="1049.575"/>
    <line class="feint" x1="241.701" x2="241.701" y1="6.425" y2="1049.575"/>
    <line class="major" x1="249.260" x2="249.260" y1="6.425" y2="1049.575"/>
    <line class="feint" x1="256.819" x2="256.819" y1="6.425" y2="1049.575"/>
    <line class="feint" x1="264.378" x2="264.378" y1="6.425" y2="1049.575"/>
    <line class="major" x1="271.937" x2="271.937" y1="6.425" y2="1049.575"/>
    <line class="feint" x1="279.496" x2="279.496" y1="6.425" y2="1049.575"/>
    <line class="feint" x1="287.055" x2="287.055" y1="6.425" y2="1049.575"/>
    <line class="major" x1="294.614" x2="294.614" y1="6.425" y2="1049.575"/>
    <line class="feint" x1="302.173" x2="302.173" y1="6.425" y2="1049.575"/>
    <line class="feint" x1="309.732" x2="309.732" y1="6.425" y2="1049.575"/>
    <line class="major" x1="317.291" x2="317.291" y1="6.425" y2="1049.575"/>
    <line class="feint" x1="324.850" x2="324.850" y1="6.425" y2="1049.575"/>
    <line class="feint" x1="332.409" x2="332.409" y1="6.425" y2="1049.575"/>
    <line class="major" x1="339.969" x2="339.969" y1="6.425" y2="1049.575"/>
    <line class="feint" x1="347.528" x2="347.528" y1="6.425" y2="1049.575"/>
    <line class="feint" x1="355.087" x2="355.087" y1="6.425" y2="1049.575"/>
    <line class="major" x1="362.646" x2="362.646" y1="6.425" y2="1049.575"/>
    <line class="feint" x1="370.205" x2="370.205" y1="6.425" y2="1049.575"/>
    <line class="feint" x1="377.764" x2="377.764" y1="6.425" y2="1049.575"/>
    <line class="major" x1="385.323" x2="385.323" y1="6.425" y2="1049.575"/>
    <line class="feint" x1="392.882" x2="392.882" y1="6.425" y2="1049.575"/>
    <line class="feint" x1="400.441" x2="400.441" y1="6.425" y2="1049.575"/>
    <line class="major" x1="408.000" x2="408.000" y1="6.425" y2="1049.575"/>
    <line class="feint" x1="415.559" x2="415.559" y1="6.425" y2="1049.575"/>
    <line class="feint" x1="423.118" x2="423.118" y1="6.425" y2="1049.575"/>
    <line class="major" x1="430.677" x2="430.677" y1="6.425" y2="1049.575"/>
    <line class="feint" x1="438.236" x2="438.236" y1="6.425" y2="1049.575"/>
    <line class="feint" x1="445.795" x2="445.795" y1="6.425" y2="1049.575"/>
    <line class="major" x1="453.354" x2="453.354" y1="6.425" y2="1049.575"/>
    <line class="feint" x1="460.913" x2="460.913" y1="6.425" y2="1049.575"/>
    <line class="feint" x1="468.472" x2="468.472" y1="6.425" y2="1049.575"/>
    <line class="major" x1="476.031" x2="476.031" y1="6.425" y2="1049.575"/>
    <line class="feint" x1="483.591" x2="483.591" y1="6.425" y2="1049.575"/>
    <line class="feint" x1="491.150" x2="491.150" y1="6.425" y2="1049.575"/>
    <line class="major" x1="498.709" x2="498.709" y1="6.425" y2="1049.575"/>
    <line class="feint" x1="506.268" x2="506.268" y1="6.425" y2="1049.575"/>
    <line class="feint" x1="513.827" x2="513.827" y1="6.425" y2="1049.575"/>
    <line class="major" x1="521.386" x2="521.386" y1="6.425" y2="1049.575"/>
    <line class="feint" x1="528.945" x2="528.945" y1="6.425" y2="1049.575"/>
    <line class="feint" x1="536.504" x2="536.504" y1="6.425" y2="1049.575"/>
    <line class="major" x1="544.063" x2="544.063" y1="6.425" y2="1049.575"/>
    <line class="feint" x1="551.622" x2="551.622" y1="6.425" y2="1049.575"/>
    <line class="feint" x1="559.181" x2="559.181" y1="6.425" y2="1049.575"/>
    <line class="major" x1="566.740" x2="566.740" y1="6.425" y2="1049.575"/>
    <line class="feint" x1="574.299" x2="574.299" y1="6.425" y2="1049.575"/>
    <line class="feint" x1="581.858" x2="581.858" y1="6.425" y2="1049.575"/>
    <line class="major" x1="589.417" x2="589.417" y1="6.425" y2="1049.575"/>
    <line class="feint" x1="596.976" x2="596.976" y1="6.425" y2="1049.575"/>
    <line class="feint" x1="604.535" x2="604.535" y1="6.425" y2="1049.575"/>
    <line class="major" x1="612.094" x2="612.094" y1="6.425" y2="1049.575"/>
    <line class="feint" x1="619.654" x2="619.654" y1="6.425" y2="1049.575"/>
    <line class="feint" x1="627.213" x2="627.213" y1="6.425" y2="1049.575"/>
    <line class="major" x1="634.772" x2="634.772" y1="6.425" y2="1049.575"/>
    <line class="feint" x1="642.331" x2="642.331" y1="6.425" y2="1049.575"/>
    <line class="feint" x1="649.890" x2="649.890" y1="6.425" y2="1049.575"/>
    <line class="major" x1="657.449" x2="657.449" y1="6.425" y2="1049.575"/>
    <line class="feint" x1="665.008" x2="665.008" y1="6.425" y2="1049.575"/>
    <line class="feint" x1="672.567" x2="672.567" y1="6.425" y2="1049.575"/>
    <line class="major" x1="680.126" x2="680.126" y1="6.425" y2="1049.575"/>
    <line class="feint" x1="687.685" x2="687.685" y1="6.425" y2="1049.575"/>
    <line class="feint" x1="695.244" x2="695.244" y1="6.425" y2="1049.575"/>
    <line class="major" x1="702.803" x2="702.803" y1="6.425" y2="1049.575"/>
    <line class="feint" x1="710.362" x2="710.362" y1="6.425" y2="1049.575"/>
    <line class="feint" x1="717.921" x2="717.921" y1="6.425" y2="1049.575"/>
    <line class="major" x1="725.480" x2="725.480" y1="6.425" y2="1049.575"/>
    <line class="feint" x1="733.039" x2="733.039" y1="6.425" y2="1049.575"/>
    <line class="feint" x1="740.598" x2="740.598" y1="6.425" y2="1049.575"/>
    <line class="major" x1="748.157" x2="748.157" y1="6.425" y2="1049.575"/>
    <line class="feint" x1="755.717" x2="755.717" y1="6.425" y2="1049.575"/>
    <line class="feint" x1="763.276" x2="763.276" y1="6.425" y2="1049.575"/>
    <line class="major" x1="770.835" x2="770.835" y1="6.425" y2="1049.575"/>
    <line class="feint" x1="778.394" x2="778.394" y1="6.425" y2="1049.575"/>
    <line class="feint" x1="785.953" x2="785.953" y1="6.425" y2="1049.575"/>
    <line class="major" x1="793.512" x2="793.512" y1="6.425" y2="1049.575"/>
    <line class="feint" x1="801.071" x2="801.071" y1="6.425" y2="1049.575"/>
    <line class="feint" x1="808.630" x2="808.630" y1="6.425" y2="1049.575"/>
    <line class="major" x1="7.370" x2="808.630" y1="6.425" y2="6.425"/>
    <line class="feint" x1="7.370" x2="808.630" y1="13.984" y2="13.984"/>
    <line class="feint" x1="7.370" x2="808.630" y1="21.543" y2="21.543"/>
    <line class="major" x1="7.370" x2="808.630" y1="29.102" y2="29.102"/>
    <line class="feint" x1="7.370" x2="808.630" y1="36.661" y2="36.661"/>
    <line class="feint" x1="7.370" x2="808.630" y1="44.220" y2="44.220"/>
    <line class="major" x1="7.370" x2="808.630" y1="51.780" y2="51.780"/>
    <line class="feint" x1="7.370" x2="808.630" y1="59.339" y2="59.339"/>
    <line class="feint" x1="7.370" x2="808.630" y1="66.898" y2="66.898"/>
    <line class="major" x1="7.370" x2="808.630" y1="74.457" y2="74.457"/>
    <line class="feint" x1="7.370" x2="808.630" y1="82.016" y2="82.016"/>
    <line class="feint" x1="7.370" x2="808.630" y1="89.575" y2="89.575"/>
    <line class="major" x1="7.370" x2="808.630" y1="97.134" y2="97.134"/>
    <line class="feint" x1="7.370" x2="808.630" y1="104.693" y2="104.693"/>
    <line class="feint" x1="7.370" x2="808.630" y1="112.252" y2="112.252"/>
    <line class="major" x1="7.370" x2="808.630" y1="119.811" y2="119.811"/>
    <line class="feint" x1="7.370" x2="808.630" y1="127.370" y2="127.370"/>
    <line class="feint" x1="7.370" x2="808.630" y1="134.929" y2="134.929"/>
    <line class="major" x1="7.370" x2="808.630" y1="142.488" y2="142.488"/>
    <line class="feint" x1="7.370" x2="808.630" y1="150.047" y2="150.047"/>
    <line class="feint" x1="7.370" x2="808.630" y1="157.606" y2="157.606"/>
    <line class="major" x1="7.370" x2="808.630" y1="165.165" y2="165.165"/>
    <line class="feint" x1="7.370" x2="808.630" y1="172.724" y2="172.724"/>
    <line class="feint" x1="7.370" x2="808.630" y1="180.283" y2="180.283"/>
    <line class="major" x1="7.370" x2="808.630" y1="187.843" y2="187.843"/>
    <line class="feint" x1="7.370" x2="808.630" y1="195.402" y2="195.402"/>
    <line class="feint" x1="7.370" x2="808.630" y1="202.961" y2="202.961"/>
    <line class="major" x1="7.370" x2="808.630" y1="210.520" y2="210.520"/>
    <line class="feint" x1="7.370" x2="808.630" y1="218.079" y2="218.079"/>
    <line class="feint" x1="7.370" x2="808.630" y1="225.638" y2="225.638"/>
    <line class="major" x1="7.370" x2="808.630" y1="233.197" y2="233.197"/>
    <line class="feint" x1="7.370" x2="808.630" y1="240.756" y2="240.756"/>
    <line class="feint" x1="7.370" x2="808.630" y1="248.315" y2="248.315"/>
    <line class="major" x1="7.370" x2="808.630" y1="255.874" y2="255.874"/>
    <line class="feint" x1="7.370" x2="808.630" y1="263.433" y2="263.433"/>
    <line class="feint" x1="7.370" x2="808.630" y1="270.992" y2="270.992"/>
    <line class="major" x1="7.370" x2="808.630" y1="278.551" y2="278.551"/>
    <line class="feint" x1="7.370" x2="808.630" y1="286.110" y2="286.110"/>
    <line class="feint" x1="7.370" x2="808.630" y1="293.669" y2="293.669"/>
    <line class="major" x1="7.370" x2="808.630" y1="301.228" y2="301.228"/>
    <line class="feint" x1="7.370" x2="808.630" y1="308.787" y2="308.787"/>
    <line class="feint" x1="7.370" x2="808.630" y1="316.346" y2="316.346"/>
    <line class="major" x1="7.370" x2="808.630" y1="323.906" y2="323.906"/>
    <line class="feint" x1="7.370" x2="808.630" y1="331.465" y2="331.465"/>
    <line class="feint" x1="7.370" x2="808.630" y1="339.024" y2="339.024"/>
    <line class="major" x1="7.370" x2="808.630" y1="346.583" y2="346.583"/>
    <line class="feint" x1="7.370" x2="808.630" y1="354.142" y2="354.142"/>
    <line class="feint" x1="7.370" x2="808.630" y1="361.701" y2="361.701"/>
    <line class="major" x1="7.370" x2="808.630" y1="369.260" y2="369.260"/>
    <line class="feint" x1="7.370" x2="808.630" y1="376.819" y2="376.819"/>
    <line class="feint" x1="7.370" x2="808.630" y1="384.378" y2="384.378"/>
    <line class="major" x1="7.370" x2="808.630" y1="391.937" y2="391.937"/>
    <line class="feint" x1="7.370" x2="808.630" y1="399.496" y2="399.496"/>
    <line class="feint" x1="7.370" x2="808.630" y1="407.055" y2="407.055"/>
    <line class="major" x1="7.370" x2="808.630" y1="414.614" y2="414.614"/>
    <line class="feint" x1="7.370" x2="808.630" y1="422.173" y2="422.173"/>
    <line class="feint" x1="7.370" x2="808.630" y1="429.732" y2="429.732"/>
    <line class="major" x1="7.370" x2="808.630" y1="437.291" y2="437.291"/>
    <line class="feint" x1="7.370" x2="808.630" y1="444.850" y2="444.850"/>
    <line class="feint" x1="7.370" x2="808.630" y1="452.409" y2="452.409"/>
    <line class="major" x1="7.370" x2="808.630" y1="459.969" y2="459.969"/>
    <line class="feint" x1="7.370" x2="808.630" y1="467.528" y2="467.528"/>
    <line class="feint" x1="7.370" x2="808.630" y1="475.087" y2="475.087"/>
    <line class="major" x1="7.370" x2="808.630" y1="482.646" y2="482.646"/>
    <line class="feint" x1="7.370" x2="808.630" y1="490.205" y2="490.205"/>
    <line class="feint" x1="7.370" x2="808.630" y1="497.764" y2="497.764"/>
    <line class="major" x1="7.370" x2="808.630" y1="505.323" y2="505.323"/>
    <line class="feint" x1="7.370" x2="808.630" y1="512.882" y2="512.882"/>
    <line class="feint" x1="7.370" x2="808.630" y1="520.441" y2="520.441"/>
    <line class="major" x1="7.370" x2="808.630" y1="528.000" y2="528.000"/>
    <line class="feint" x1="7.370" x2="808.630" y1="535.559" y2="535.559"/>
    <line class="feint" x1="7.370" x2="808.630" y1="543.118" y2="543.118"/>
    <line class="major" x1="7.370" x2="808.630" y1="550.677" y2="550.677"/>
    <line class="feint" x1="7.370" x2="808.630" y1="558.236" y2="558.236"/>
    <line class="feint" x1="7.370" x2="808.630" y1="565.795" y2="565.795"/>
    <line class="major" x1="7.370" x2="808.630" y1="573.354" y2="573.354"/>
    <line class="feint" x1="7.370" x2="808.630" y1="580.913" y2="580.913"/>
    <line class="feint" x1="7.370" x2="808.630" y1="588.472" y2="588.472"/>
    <line class="major" x1="7.370" x2="808.630" y1="596.031" y2="596.031"/>
    <line class="feint" x1="7.370" x2="808.630" y1="603.591" y2="603.591"/>
    <line class="feint" x1="7.370" x2="808.630" y1="611.150" y2="611.150"/>
    <line class="major" x1="7.370" x2="808.630" y1="618.709" y2="618.709"/>
    <line class="feint" x1="7.370" x2="808.630" y1="626.268" y2="626.268"/>
    <line class="feint" x1="7.370" x2="808.630" y1="633.827" y2="633.827"/>
    <line class="major" x1="7.370" x2="808.630" y1="641.386" y2="641.386"/>
    <line class="feint" x1="7.370" x2="808.630" y1="648.945" y2="648.945"/>
    <line class="feint" x1="7.370" x2="808.630" y1="656.504" y2="656.504"/>
    <line class="major" x1="7.370" x2="808.630" y1="664.063" y2="664.063"/>
    <line class="feint" x1="7.370" x2="808.630" y1="671.622" y2="671.622"/>
    <line class="feint" x1="7.370" x2="808.630" y1="679.181" y2="679.181"/>
    <line class="major" x1="7.370" x2="808.630" y1="686.740" y2="686.740"/>
    <line class="feint" x1="7.370" x2="808.630" y1="694.299" y2="694.299"/>
    <line class="feint" x1="7.370" x2="808.630" y1="701.858" y2="701.858"/>
    <line class="major" x1="7.370" x2="808.630" y1="709.417" y2="709.417"/>
    <line class="feint" x1="7.370" x2="808.630" y1="716.976" y2="716.976"/>
    <line class="feint" x1="7.370" x2="808.630" y1="724.535" y2="724.535"/>
    <line class="major" x1="7.370" x2="808.630" y1="732.094" y2="732.094"/>
    <line class="feint" x1="7.370" x2="808.630" y1="739.654" y2="739.654"/>
    <line class="feint" x1="7.370" x2="808.630" y1="747.213" y2="747.213"/>
    <line class="major" x1="7.370" x2="808.630" y1="754.772" y2="754.772"/>
    <line class="feint" x1="7.370" x2="808.630" y1="762.331" y2="762.331"/>
    <line class="feint" x1="7.370" x2="808.630" y1="769.890" y2="769.890"/>
    <line class="major" x1="7.370" x2="808.630" y1="777.449" y2="777.449"/>
    <line class="feint" x1="7.370" x2="808.630" y1="785.008" y2="785.008"/>
    <line class="feint" x1="7.370" x2="808.630" y1="792.567" y2="792.567"/>
    <line class="major" x1="7.370" x2="808.630" y1="800.126" y2="800.126"/>
    <line class="feint" x1="7.370" x2="808.630" y1="807.685" y2="807.685"/>
    <line class="feint" x1="7.370" x2="808.630" y1="815.244" y2="815.244"/>
    <line class="major" x1="7.370" x2="808.630" y1="822.803" y2="822.803"/>
    <line class="feint" x1="7.370" x2="808.630" y1="830.362" y2="830.362"/>
    <line class="feint" x1="7.370" x2="808.630" y1="837.921" y2="837.921"/>
    <line class="major" x1="7.370" x2="808.630" y1="845.480" y2="845.480"/>
    <line class="feint" x1="7.370" x2="808.630" y1="853.039" y2="853.039"/>
    <line class="feint" x1="7.370" x2="808.630" y1="860.598" y2="860.598"/>
    <line class="major" x1="7.370" x2="808.630" y1="868.157" y2="868.157"/>
    <line class="feint" x1="7.370" x2="808.630" y1="875.717" y2="875.717"/>
    <line class="feint" x1="7.370" x2="808.630" y1="883.276" y2="883.276"/>
    <line class="major" x1="7.370" x2="808.630" y1="890.835" y2="890.835"/>
    <line class="feint" x1="7.370" x2="808.630" y1="898.394" y2="898.394"/>
    <line class="feint" x1="7.370" x2="808.630" y1="905.953" y2="905.953"/>
    <line class="major" x1="7.370" x2="808.630" y1="913.512" y2="913.512"/>
    <line class="feint" x1="7.370" x2="808.630" y1="921.071" y2="921.071"/>
    <line class="feint" x1="7.370" x2="808.630" y1="928.630" y2="928.630"/>
    <line class="major" x1="7.370" x2="808.630" y1="936.189" y2="936.189"/>
    <line class="feint" x1="7.370" x2="808.630" y1="943.748" y2="943.748"/>
    <line class="feint" x1="7.370" x2="808.630" y1="951.307" y2="951.307"/>
    <line class="major" x1="7.370" x2="808.630" y1="958.866" y2="958.866"/>
    <line class="feint" x1="7.370" x2="808.630" y1="966.425" y2="966.425"/>
    <line class="feint" x1="7.370" x2="808.630" y1="973.984" y2="973.984"/>
    <line class="major" x1="7.370" x2="808.630" y1="981.543" y2="981.543"/>
    <line class="feint" x1="7.370" x2="808.630" y1="989.102" y2="989.102"/>
    <line class="feint" x1="7.370" x2="808.630" y1="996.661" y2="996.661"/>
    <line class="major" x1="7.370" x2="808.630" y1="1004.220" y2="1004.220"/>
    <line class="feint" x1="7.370" x2="808.630" y1="1011.780" y2="1011.780"/>
    <line class="feint" x1="7.370" x2="808.630" y1="1019.339" y2="1019.339"/>
    <line class="major" x1="7.370" x2="808.630" y1="1026.898" y2="1026.898"/>
    <line class="feint" x1="7.370" x2="808.630" y1="1034.457" y2="1034.457"/>
    <line class="feint" x1="7.370" x2="808.630" y1="1042.016" y2="1042.016"/>
    <line class="major" x1="7.370" x2="808.630" y1="1049.575" y2="1049.575"/>
  </g>
</svg>
