<?xml version="1.0" encoding="UTF-8"?>
<svg xmlns="http://www.w3.org/2000/svg" version="1.1" width="528.000px" height="816.000px" viewBox="0.000 0.000 528.000 816.000">
  <style>line, rect {
    fill: none;
    stroke: #a4dded;
    stroke-linecap: butt;
    stroke-linejoin: miter;
    stroke-dasharray: none;
}
.strokeA {
    stroke-width: 0.32px;
}
.strokeB {
    stroke-width: 0.64px;
}
.strokeC {
    stroke-width: 1.28px;
}
</style>
  <g id="document">
    <line class="strokeB" x1="0.000" x2="0.000" y1="0.000" y2="816.000"/>
    <line class="strokeA" x1="8.000" x2="8.000" y1="0.000" y2="816.000"/>
    <line class="strokeA" x1="16.000" x2="16.000" y1="0.000" y2="816.000"/>
    <line class="strokeC" x1="24.000" x2="24.000" y1="0.000" y2="816.000"/>
    <line class="strokeA" x1="32.000" x2="32.000" y1="0.000" y2="816.000"/>
    <line class="strokeA" x1="40.000" x2="40.000" y1="0.000" y2="816.000"/>
    <line class="strokeB" x1="48.000" x2="48.000" y1="0.000" y2="816.000"/>
    <line class="strokeA" x1="56.000" x2="56.000" y1="0.000" y2="816.000"/>
    <line class="strokeA" x1="64.000" x2="64.000" y1="0.000" y2="816.000"/>
    <line class="strokeB" x1="72.000" x2="72.000" y1="0.000" y2="816.000"/>
    <line class="strokeA" x1="80.000" x2="80.000" y1="0.000" y2="816.000"/>
    <line class="strokeA" x1="88.000" x2="88.000" y1="0.000" y2="816.000"/>
    <line class="strokeB" x1="96.000" x2="96.000" y1="0.000" y2="816.000"/>
    <line class="strokeA" x1="104.000" x2="104.000" y1="0.000" y2="816.000"/>
    <line class="strokeA" x1="112.000" x2="112.000" y1="0.000" y2="816.000"/>
    <line class="strokeC" x1="120.000" x2="120.000" y1="0.000" y2="816.000"/>
    <line class="strokeA" x1="128.000" x2="128.000" y1="0.000" y2="816.000"/>
    <line class="strokeA" x1="136.000" x2="136.000" y1="0.000" y2="816.000"/>
    <line class="strokeB" x1="144.000" x2="144.000" y1="0.000" y2="816.000"/>
    <line class="strokeA" x1="152.000" x2="152.000" y1="0.000" y2="816.000"/>
    <line class="strokeA" x1="160.000" x2="160.000" y1="0.000" y2="816.000"/>
    <line class="strokeB" x1="168.000" x2="168.000" y1="0.000" y2="816.000"/>
    <line class="strokeA" x1="176.000" x2="176.000" y1="0.000" y2="816.000"/>
    <line class="strokeA" x1="184.000" x2="184.000" y1="0.000" y2="816.000"/>
    <line class="strokeB" x1="192.000" x2="192.000" y1="0.000" y2="816.000"/>
    <line class="strokeA" x1="200.000" x2="200.000" y1="0.000" y2="816.000"/>
    <line class="strokeA" x1="208.000" x2="208.000" y1="0.000" y2="816.000"/>
    <line class="strokeC" x1="216.000" x2="216.000" y1="0.000" y2="816.000"/>
    <line class="strokeA" x1="224.000" x2="224.000" y1="0.000" y2="816.000"/>
    <line class="strokeA" x1="232.000" x2="232.000" y1="0.000" y2="816.000"/>
    <line class="strokeB" x1="240.000" x2="240.000" y1="0.000" y2="816.000"/>
    <line class="strokeA" x1="248.000" x2="248.000" y1="0.000" y2="816.000"/>
    <line class="strokeA" x1="256.000" x2="256.000" y1="0.000" y2="816.000"/>
    <line class="strokeB" x1="264.000" x2="264.000" y1="0.000" y2="816.000"/>
    <line class="strokeA" x1="272.000" x2="272.000" y1="0.000" y2="816.000"/>
    <line class="strokeA" x1="280.000" x2="280.000" y1="0.000" y2="816.000"/>
    <line class="strokeB" x1="288.000" x2="288.000" y1="0.000" y2="816.000"/>
    <line class="strokeA" x1="296.000" x2="296.000" y1="0.000" y2="816.000"/>
    <line class="strokeA" x1="304.000" x2="304.000" y1="0.000" y2="816.000"/>
    <line class="strokeC" x1="312.000" x2="312.000" y1="0.000" y2="816.000"/>
    <line class="strokeA" x1="320.000" x2="320.000" y1="0.000" y2="816.000"/>
    <line class="strokeA" x1="328.000" x2="328.000" y1="0.000" y2="816.000"/>
    <line class="strokeB" x1="336.000" x2="336.000" y1="0.000" y2="816.000"/>
    <line class="strokeA" x1="344.000" x2="344.000" y1="0.000" y2="816.000"/>
    <line class="strokeA" x1="352.000" x2="352.000" y1="0.000" y2="816.000"/>
    <line class="strokeB" x1="360.000" x2="360.000" y1="0.000" y2="816.000"/>
    <line class="strokeA" x1="368.000" x2="368.000" y1="0.000" y2="816.000"/>
    <line class="strokeA" x1="376.000" x2="376.000" y1="0.000" y2="816.000"/>
    <line class="strokeB" x1="384.000" x2="384.000" y1="0.000" y2="816.000"/>
    <line class="strokeA" x1="392.000" x2="392.000" y1="0.000" y2="816.000"/>
    <line class="strokeA" x1="400.000" x2="400.000" y1="0.000" y2="816.000"/>
    <line class="strokeC" x1="408.000" x2="408.000" y1="0.000" y2="816.000"/>
    <line class="strokeA" x1="416.000" x2="416.000" y1="0.000" y2="816.000"/>
    <line class="strokeA" x1="424.000" x2="424.000" y1="0.000" y2="816.000"/>
    <line class="strokeB" x1="432.000" x2="432.000" y1="0.000" y2="816.000"/>
    <line class="strokeA" x1="440.000" x2="440.000" y1="0.000" y2="816.000"/>
    <line class="strokeA" x1="448.000" x2="448.000" y1="0.000" y2="816.000"/>
    <line class="strokeB" x1="456.000" x2="456.000" y1="0.000" y2="816.000"/>
    <line class="strokeA" x1="464.000" x2="464.000" y1="0.000" y2="816.000"/>
    <line class="strokeA" x1="472.000" x2="472.000" y1="0.000" y2="816.000"/>
    <line class="strokeB" x1="480.000" x2="480.000" y1="0.000" y2="816.000"/>
    <line class="strokeA" x1="488.000" x2="488.000" y1="0.000" y2="816.000"/>
    <line class="strokeA" x1="496.000" x2="496.000" y1="0.000" y2="816.000"/>
    <line class="strokeC" x1="504.000" x2="504.000" y1="0.000" y2="816.000"/>
    <line class="strokeA" x1="512.000" x2="512.000" y1="0.000" y2="816.000"/>
    <line class="strokeA" x1="520.000" x2="520.000" y1="0.000" y2="816.000"/>
    <line class="strokeB" x1="528.000" x2="528.000" y1="0.000" y2="816.000"/>
    <line class="strokeB" x1="0.000" x2="528.000" y1="12.000" y2="12.000"/>
    <line class="strokeA" x1="0.000" x2="528.000" y1="20.000" y2="20.000"/>
    <line class="strokeA" x1="0.000" x2="528.000" y1="28.000" y2="28.000"/>
    <line class="strokeC" x1="0.000" x2="528.000" y1="36.000" y2="36.000"/>
    <line class="strokeA" x1="0.000" x2="528.000" y1="44.000" y2="44.000"/>
    <line class="strokeA" x1="0.000" x2="528.000" y1="52.000" y2="52.000"/>
    <line class="strokeB" x1="0.000" x2="528.000" y1="60.000" y2="60.000"/>
    <line class="strokeA" x1="0.000" x2="528.000" y1="68.000" y2="68.000"/>
    <line class="strokeA" x1="0.000" x2="528.000" y1="76.000" y2="76.000"/>
    <line class="strokeB" x1="0.000" x2="528.000" y1="84.000" y2="84.000"/>
    <line class="strokeA" x1="0.000" x2="528.000" y1="92.000" y2="92.000"/>
    <line class="strokeA" x1="0.000" x2="528.000" y1="100.000" y2="100.000"/>
    <line class="strokeB" x1="0.000" x2="528.000" y1="108.000" y2="108.000"/>
    <line class="strokeA" x1="0.000" x2="528.000" y1="116.000" y2="116.000"/>
    <line class="strokeA" x1="0.000" x2="528.000" y1="124.000" y2="124.000"/>
    <line class="strokeC" x1="0.000" x2="528.000" y1="132.000" y2="132.000"/>
    <line class="strokeA" x1="0.000" x2="528.000" y1="140.000" y2="140.000"/>
    <line class="strokeA" x1="0.000" x2="528.000" y1="148.000" y2="148.000"/>
    <line class="strokeB" x1="0.000" x2="528.000" y1="156.000" y2="156.000"/>
    <line class="strokeA" x1="0.000" x2="528.000" y1="164.000" y2="164.000"/>
    <line class="strokeA" x1="0.000" x2="528.000" y1="172.000" y2="172.000"/>
    <line class="strokeB" x1="0.000" x2="528.000" y1="180.000" y2="180.000"/>
    <line class="strokeA" x1="0.000" x2="528.000" y1="188.000" y2="188.000"/>
    <line class="strokeA" x1="0.000" x2="528.000" y1="196.000" y2="196.000"/>
    <line class="strokeB" x1="0.000" x2="528.000" y1="204.000" y2="204.000"/>
    <line class="strokeA" x1="0.000" x2="528.000" y1="212.000" y2="212.000"/>
    <line class="strokeA" x1="0.000" x2="528.000" y1="220.000" y2="220.000"/>
    <line class="strokeC" x1="0.000" x2="528.000" y1="228.000" y2="228.000"/>
    <line class="strokeA" x1="0.000" x2="528.000" y1="236.000" y2="236.000"/>
    <line class="strokeA" x1="0.000" x2="528.000" y1="244.000" y2="244.000"/>
    <line class="strokeB" x1="0.000" x2="528.000" y1="252.000" y2="252.000"/>
    <line class="strokeA" x1="0.000" x2="528.000" y1="260.000" y2="260.000"/>
    <line class="strokeA" x1="0.000" x2="528.000" y1="268.000" y2="268.000"/>
    <line class="strokeB" x1="0.000" x2="528.000" y1="276.000" y2="276.000"/>
    <line class="strokeA" x1="0.000" x2="528.000" y1="284.000" y2="284.000"/>
    <line class="strokeA" x1="0.000" x2="528.000" y1="292.000" y2="292.000"/>
    <line class="strokeB" x1="0.000" x2="528.000" y1="300.000" y2="300.000"/>
    <line class="strokeA" x1="0.000" x2="528.000" y1="308.000" y2="308.000"/>
    <line class="strokeA" x1="0.000" x2="528.000" y1="316.000" y2="316.000"/>
    <line class="strokeC" x1="0.000" x2="528.000" y1="324.000" y2="324.000"/>
    <line class="strokeA" x1="0.000" x2="528.000" y1="332.000" y2="332.000"/>
    <line class="strokeA" x1="0.000" x2="528.000" y1="340.000" y2="340.000"/>
    <line class="strokeB" x1="0.000" x2="528.000" y1="348.000" y2="348.000"/>
    <line class="strokeA" x1="0.000" x2="528.000" y1="356.000" y2="356.000"/>
    <line class="strokeA" x1="0.000" x2="528.000" y1="364.000" y2="364.000"/>
    <line class="strokeB" x1="0.000" x2="528.000" y1="372.000" y2="372.000"/>
    <line class="strokeA" x1="0.000" x2="528.000" y1="380.000" y2="380.000"/>
    <line class="strokeA" x1="0.000" x2="528.000" y1="388.000" y2="388.000"/>
    <line class="strokeB" x1="0.000" x2="528.000" y1="396.000" y2="396.000"/>
    <line class="strokeA" x1="0.000" x2="528.000" y1="404.000" y2="404.000"/>
    <line class="strokeA" x1="0.000" x2="528.000" y1="412.000" y2="412.000"/>
    <line class="strokeC" x1="0.000" x2="528.000" y1="420.000" y2="420.000"/>
    <line class="strokeA" x1="0.000" x2="528.000" y1="428.000" y2="428.000"/>
    <line class="strokeA" x1="0.000" x2="528.000" y1="436.000" y2="436.000"/>
    <line class="strokeB" x1="0.000" x2="528.000" y1="444.000" y2="444.000"/>
    <line class="strokeA" x1="0.000" x2="528.000" y1="452.000" y2="452.000"/>
    <line class="strokeA" x1="0.000" x2="528.000" y1="460.000" y2="460.000"/>
    <line class="strokeB" x1="0.000" x2="528.000" y1="468.000" y2="468.000"/>
    <line class="strokeA" x1="0.000" x2="528.000" y1="476.000" y2="476.000"/>
    <line class="strokeA" x1="0.000" x2="528.000" y1="484.000" y2="484.000"/>
    <line class="strokeB" x1="0.000" x2="528.000" y1="492.000" y2="492.000"/>
    <line class="strokeA" x1="0.000" x2="528.000" y1="500.000" y2="500.000"/>
    <line class="strokeA" x1="0.000" x2="528.000" y1="508.000" y2="508.000"/>
    <line class="strokeC" x1="0.000" x2="528.000" y1="516.000" y2="516.000"/>
    <line class="strokeA" x1="0.000" x2="528.000" y1="524.000" y2="524.000"/>
    <line class="strokeA" x1="0.000" x2="528.000" y1="532.000" y2="532.000"/>
    <line class="strokeB" x1="0.000" x2="528.000" y1="540.000" y2="540.000"/>
    <line class="strokeA" x1="0.000" x2="528.000" y1="548.000" y2="548.000"/>
    <line class="strokeA" x1="0.000" x2="528.000" y1="556.000" y2="556.000"/>
    <line class="strokeB" x1="0.000" x2="528.000" y1="564.000" y2="564.000"/>
    <line class="strokeA" x1="0.000" x2="528.000" y1="572.000" y2="572.000"/>
    <line class="strokeA" x1="0.000" x2="528.000" y1="580.000" y2="580.000"/>
    <line class="strokeB" x1="0.000" x2="528.000" y1="588.000" y2="588.000"/>
    <line class="strokeA" x1="0.000" x2="528.000" y1="596.000" y2="596.000"/>
    <line class="strokeA" x1="0.000" x2="528.000" y1="604.000" y2="604.000"/>
    <line class="strokeC" x1="0.000" x2="528.000" y1="612.000" y2="612.000"/>
    <line class="strokeA" x1="0.000" x2="528.000" y1="620.000" y2="620.000"/>
    <line class="strokeA" x1="0.000" x2="528.000" y1="628.000" y2="628.000"/>
    <line class="strokeB" x1="0.000" x2="528.000" y1="636.000" y2="636.000"/>
    <line class="strokeA" x1="0.000" x2="528.000" y1="644.000" y2="644.000"/>
    <line class="strokeA" x1="0.000" x2="528.000" y1="652.000" y2="652.000"/>
    <line class="strokeB" x1="0.000" x2="528.000" y1="660.000" y2="660.000"/>
    <line class="strokeA" x1="0.000" x2="528.000" y1="668.000" y2="668.000"/>
    <line class="strokeA" x1="0.000" x2="528.000" y1="676.000" y2="676.000"/>
    <line class="strokeB" x1="0.000" x2="528.000" y1="684.000" y2="684.000"/>
    <line class="strokeA" x1="0.000" x2="528.000" y1="692.000" y2="692.000"/>
    <line class="strokeA" x1="0.000" x2="528.000" y1="700.000" y2="700.000"/>
    <line class="strokeC" x1="0.000" x2="528.000" y1="708.000" y2="708.000"/>
    <line class="strokeA" x1="0.000" x2="528.000" y1="716.000" y2="716.000"/>
    <line class="strokeA" x1="0.000" x2="528.000" y1="724.000" y2="724.000"/>
    <line class="strokeB" x1="0.000" x2="528.000" y1="732.000" y2="732.000"/>
    <line class="strokeA" x1="0.000" x2="528.000" y1="740.000" y2="740.000"/>
    <line class="strokeA" x1="0.000" x2="528.000" y1="748.000" y2="748.000"/>
    <line class="strokeB" x1="0.000" x2="528.000" y1="756.000" y2="756.000"/>
    <line class="strokeA" x1="0.000" x2="528.000" y1="764.000" y2="764.000"/>
    <line class="strokeA" x1="0.000" x2="528.000" y1="772.000" y2="772.000"/>
    <line class="strokeB" x1="0.000" x2="528.000" y1="780.000" y2="780.000"/>
    <line class="strokeA" x1="0.000" x2="528.000" y1="788.000" y2="788.000"/>
    <line class="strokeA" x1="0.000" x2="528.000" y1="796.000" y2="796.000"/>
    <line class="strokeC" x1="0.000" x2="528.000" y1="804.000" y2="804.000"/>
    <line class="strokeA" x1="0.000" x2="528.000" y1="812.000" y2="812.000"/>
    <line class="strokeA" x1="0.000" x2="528.000" y1="820.000" y2="820.000"/>
    <line class="strokeB" x1="0.000" x2="528.000" y1="828.000" y2="828.000"/>
  </g>
</svg>
