<?xml version="1.0" encoding="UTF-8"?>
<svg xmlns="http://www.w3.org/2000/svg" version="1.1" width="528.000px" height="816.000px" viewBox="0.000 0.000 528.000 816.000">
  <style>line, rect {
    fill: none;
    stroke-width: 0.16px;
    stroke: #95c9d7;
    stroke-linecap: round;
    stroke-linejoin: round;
}
line.minor, rect.minor {
    stroke-width: 0.32px;
}
line.major, rect.major {
    stroke-width: 0.64px;
}
text {
    text-anchor: middle;
    font-family: 'Times New Roman', 'Times Roman', serif;
    font-size: 8px;
    fill: #95c9d7;
}
circle {
    fill: #95c9d7;
}
</style>
  <g id="document">
    <line class="feint" x1="6.992" x2="6.992" y1="7.370" y2="808.630"/>
    <line class="major" x1="14.551" x2="14.551" y1="7.370" y2="808.630"/>
    <line class="feint" x1="22.110" x2="22.110" y1="7.370" y2="808.630"/>
    <line class="feint" x1="29.669" x2="29.669" y1="7.370" y2="808.630"/>
    <line class="major" x1="37.228" x2="37.228" y1="7.370" y2="808.630"/>
    <line class="feint" x1="44.787" x2="44.787" y1="7.370" y2="808.630"/>
    <line class="feint" x1="52.346" x2="52.346" y1="7.370" y2="808.630"/>
    <line class="major" x1="59.906" x2="59.906" y1="7.370" y2="808.630"/>
    <line class="feint" x1="67.465" x2="67.465" y1="7.370" y2="808.630"/>
    <line class="feint" x1="75.024" x2="75.024" y1="7.370" y2="808.630"/>
    <line class="major" x1="82.583" x2="82.583" y1="7.370" y2="808.630"/>
    <line class="feint" x1="90.142" x2="90.142" y1="7.370" y2="808.630"/>
    <line class="feint" x1="97.701" x2="97.701" y1="7.370" y2="808.630"/>
    <line class="major" x1="105.260" x2="105.260" y1="7.370" y2="808.630"/>
    <line class="feint" x1="112.819" x2="112.819" y1="7.370" y2="808.630"/>
    <line class="feint" x1="120.378" x2="120.378" y1="7.370" y2="808.630"/>
    <line class="major" x1="127.937" x2="127.937" y1="7.370" y2="808.630"/>
    <line class="feint" x1="135.496" x2="135.496" y1="7.370" y2="808.630"/>
    <line class="feint" x1="143.055" x2="143.055" y1="7.370" y2="808.630"/>
    <line class="major" x1="150.614" x2="150.614" y1="7.370" y2="808.630"/>
    <line class="feint" x1="158.173" x2="158.173" y1="7.370" y2="808.630"/>
    <line class="feint" x1="165.732" x2="165.732" y1="7.370" y2="808.630"/>
    <line class="major" x1="173.291" x2="173.291" y1="7.370" y2="808.630"/>
    <line class="feint" x1="180.850" x2="180.850" y1="7.370" y2="808.630"/>
    <line class="feint" x1="188.409" x2="188.409" y1="7.370" y2="808.630"/>
    <line class="major" x1="195.969" x2="195.969" y1="7.370" y2="808.630"/>
    <line class="feint" x1="203.528" x2="203.528" y1="7.370" y2="808.630"/>
    <line class="feint" x1="211.087" x2="211.087" y1="7.370" y2="808.630"/>
    <line class="major" x1="218.646" x2="218.646" y1="7.370" y2="808.630"/>
    <line class="feint" x1="226.205" x2="226.205" y1="7.370" y2="808.630"/>
    <line class="feint" x1="233.764" x2="233.764" y1="7.370" y2="808.630"/>
    <line class="major" x1="241.323" x2="241.323" y1="7.370" y2="808.630"/>
    <line class="feint" x1="248.882" x2="248.882" y1="7.370" y2="808.630"/>
    <line class="feint" x1="256.441" x2="256.441" y1="7.370" y2="808.630"/>
    <line class="major" x1="264.000" x2="264.000" y1="7.370" y2="808.630"/>
    <line class="feint" x1="271.559" x2="271.559" y1="7.370" y2="808.630"/>
    <line class="feint" x1="279.118" x2="279.118" y1="7.370" y2="808.630"/>
    <line class="major" x1="286.677" x2="286.677" y1="7.370" y2="808.630"/>
    <line class="feint" x1="294.236" x2="294.236" y1="7.370" y2="808.630"/>
    <line class="feint" x1="301.795" x2="301.795" y1="7.370" y2="808.630"/>
    <line class="major" x1="309.354" x2="309.354" y1="7.370" y2="808.630"/>
    <line class="feint" x1="316.913" x2="316.913" y1="7.370" y2="808.630"/>
    <line class="feint" x1="324.472" x2="324.472" y1="7.370" y2="808.630"/>
    <line class="major" x1="332.031" x2="332.031" y1="7.370" y2="808.630"/>
    <line class="feint" x1="339.591" x2="339.591" y1="7.370" y2="808.630"/>
    <line class="feint" x1="347.150" x2="347.150" y1="7.370" y2="808.630"/>
    <line class="major" x1="354.709" x2="354.709" y1="7.370" y2="808.630"/>
    <line class="feint" x1="362.268" x2="362.268" y1="7.370" y2="808.630"/>
    <line class="feint" x1="369.827" x2="369.827" y1="7.370" y2="808.630"/>
    <line class="major" x1="377.386" x2="377.386" y1="7.370" y2="808.630"/>
    <line class="feint" x1="384.945" x2="384.945" y1="7.370" y2="808.630"/>
    <line class="feint" x1="392.504" x2="392.504" y1="7.370" y2="808.630"/>
    <line class="major" x1="400.063" x2="400.063" y1="7.370" y2="808.630"/>
    <line class="feint" x1="407.622" x2="407.622" y1="7.370" y2="808.630"/>
    <line class="feint" x1="415.181" x2="415.181" y1="7.370" y2="808.630"/>
    <line class="major" x1="422.740" x2="422.740" y1="7.370" y2="808.630"/>
    <line class="feint" x1="430.299" x2="430.299" y1="7.370" y2="808.630"/>
    <line class="feint" x1="437.858" x2="437.858" y1="7.370" y2="808.630"/>
    <line class="major" x1="445.417" x2="445.417" y1="7.370" y2="808.630"/>
    <line class="feint" x1="452.976" x2="452.976" y1="7.370" y2="808.630"/>
    <line class="feint" x1="460.535" x2="460.535" y1="7.370" y2="808.630"/>
    <line class="major" x1="468.094" x2="468.094" y1="7.370" y2="808.630"/>
    <line class="feint" x1="475.654" x2="475.654" y1="7.370" y2="808.630"/>
    <line class="feint" x1="483.213" x2="483.213" y1="7.370" y2="808.630"/>
    <line class="major" x1="490.772" x2="490.772" y1="7.370" y2="808.630"/>
    <line class="feint" x1="498.331" x2="498.331" y1="7.370" y2="808.630"/>
    <line class="feint" x1="505.890" x2="505.890" y1="7.370" y2="808.630"/>
    <line class="major" x1="513.449" x2="513.449" y1="7.370" y2="808.630"/>
    <line class="feint" x1="521.008" x2="521.008" y1="7.370" y2="808.630"/>
    <line class="feint" x1="6.992" x2="521.008" y1="7.370" y2="7.370"/>
    <line class="feint" x1="6.992" x2="521.008" y1="14.929" y2="14.929"/>
    <line class="major" x1="6.992" x2="521.008" y1="22.488" y2="22.488"/>
    <line class="feint" x1="6.992" x2="521.008" y1="30.047" y2="30.047"/>
    <line class="feint" x1="6.992" x2="521.008" y1="37.606" y2="37.606"/>
    <line class="major" x1="6.992" x2="521.008" y1="45.165" y2="45.165"/>
    <line class="feint" x1="6.992" x2="521.008" y1="52.724" y2="52.724"/>
    <line class="feint" x1="6.992" x2="521.008" y1="60.283" y2="60.283"/>
    <line class="major" x1="6.992" x2="521.008" y1="67.843" y2="67.843"/>
    <line class="feint" x1="6.992" x2="521.008" y1="75.402" y2="75.402"/>
    <line class="feint" x1="6.992" x2="521.008" y1="82.961" y2="82.961"/>
    <line class="major" x1="6.992" x2="521.008" y1="90.520" y2="90.520"/>
    <line class="feint" x1="6.992" x2="521.008" y1="98.079" y2="98.079"/>
    <line class="feint" x1="6.992" x2="521.008" y1="105.638" y2="105.638"/>
    <line class="major" x1="6.992" x2="521.008" y1="113.197" y2="113.197"/>
    <line class="feint" x1="6.992" x2="521.008" y1="120.756" y2="120.756"/>
    <line class="feint" x1="6.992" x2="521.008" y1="128.315" y2="128.315"/>
    <line class="major" x1="6.992" x2="521.008" y1="135.874" y2="135.874"/>
    <line class="feint" x1="6.992" x2="521.008" y1="143.433" y2="143.433"/>
    <line class="feint" x1="6.992" x2="521.008" y1="150.992" y2="150.992"/>
    <line class="major" x1="6.992" x2="521.008" y1="158.551" y2="158.551"/>
    <line class="feint" x1="6.992" x2="521.008" y1="166.110" y2="166.110"/>
    <line class="feint" x1="6.992" x2="521.008" y1="173.669" y2="173.669"/>
    <line class="major" x1="6.992" x2="521.008" y1="181.228" y2="181.228"/>
    <line class="feint" x1="6.992" x2="521.008" y1="188.787" y2="188.787"/>
    <line class="feint" x1="6.992" x2="521.008" y1="196.346" y2="196.346"/>
    <line class="major" x1="6.992" x2="521.008" y1="203.906" y2="203.906"/>
    <line class="feint" x1="6.992" x2="521.008" y1="211.465" y2="211.465"/>
    <line class="feint" x1="6.992" x2="521.008" y1="219.024" y2="219.024"/>
    <line class="major" x1="6.992" x2="521.008" y1="226.583" y2="226.583"/>
    <line class="feint" x1="6.992" x2="521.008" y1="234.142" y2="234.142"/>
    <line class="feint" x1="6.992" x2="521.008" y1="241.701" y2="241.701"/>
    <line class="major" x1="6.992" x2="521.008" y1="249.260" y2="249.260"/>
    <line class="feint" x1="6.992" x2="521.008" y1="256.819" y2="256.819"/>
    <line class="feint" x1="6.992" x2="521.008" y1="264.378" y2="264.378"/>
    <line class="major" x1="6.992" x2="521.008" y1="271.937" y2="271.937"/>
    <line class="feint" x1="6.992" x2="521.008" y1="279.496" y2="279.496"/>
    <line class="feint" x1="6.992" x2="521.008" y1="287.055" y2="287.055"/>
    <line class="major" x1="6.992" x2="521.008" y1="294.614" y2="294.614"/>
    <line class="feint" x1="6.992" x2="521.008" y1="302.173" y2="302.173"/>
    <line class="feint" x1="6.992" x2="521.008" y1="309.732" y2="309.732"/>
    <line class="major" x1="6.992" x2="521.008" y1="317.291" y2="317.291"/>
    <line class="feint" x1="6.992" x2="521.008" y1="324.850" y2="324.850"/>
    <line class="feint" x1="6.992" x2="521.008" y1="332.409" y2="332.409"/>
    <line class="major" x1="6.992" x2="521.008" y1="339.969" y2="339.969"/>
    <line class="feint" x1="6.992" x2="521.008" y1="347.528" y2="347.528"/>
    <line class="feint" x1="6.992" x2="521.008" y1="355.087" y2="355.087"/>
    <line class="major" x1="6.992" x2="521.008" y1="362.646" y2="362.646"/>
    <line class="feint" x1="6.992" x2="521.008" y1="370.205" y2="370.205"/>
    <line class="feint" x1="6.992" x2="521.008" y1="377.764" y2="377.764"/>
    <line class="major" x1="6.992" x2="521.008" y1="385.323" y2="385.323"/>
    <line class="feint" x1="6.992" x2="521.008" y1="392.882" y2="392.882"/>
    <line class="feint" x1="6.992" x2="521.008" y1="400.441" y2="400.441"/>
    <line class="major" x1="6.992" x2="521.008" y1="408.000" y2="408.000"/>
    <line class="feint" x1="6.992" x2="521.008" y1="415.559" y2="415.559"/>
    <line class="feint" x1="6.992" x2="521.008" y1="423.118" y2="423.118"/>
    <line class="major" x1="6.992" x2="521.008" y1="430.677" y2="430.677"/>
    <line class="feint" x1="6.992" x2="521.008" y1="438.236" y2="438.236"/>
    <line class="feint" x1="6.992" x2="521.008" y1="445.795" y2="445.795"/>
    <line class="major" x1="6.992" x2="521.008" y1="453.354" y2="453.354"/>
    <line class="feint" x1="6.992" x2="521.008" y1="460.913" y2="460.913"/>
    <line class="feint" x1="6.992" x2="521.008" y1="468.472" y2="468.472"/>
    <line class="major" x1="6.992" x2="521.008" y1="476.031" y2="476.031"/>
    <line class="feint" x1="6.992" x2="521.008" y1="483.591" y2="483.591"/>
    <line class="feint" x1="6.992" x2="521.008" y1="491.150" y2="491.150"/>
    <line class="major" x1="6.992" x2="521.008" y1="498.709" y2="498.709"/>
    <line class="feint" x1="6.992" x2="521.008" y1="506.268" y2="506.268"/>
    <line class="feint" x1="6.992" x2="521.008" y1="513.827" y2="513.827"/>
    <line class="major" x1="6.992" x2="521.008" y1="521.386" y2="521.386"/>
    <line class="feint" x1="6.992" x2="521.008" y1="528.945" y2="528.945"/>
    <line class="feint" x1="6.992" x2="521.008" y1="536.504" y2="536.504"/>
    <line class="major" x1="6.992" x2="521.008" y1="544.063" y2="544.063"/>
    <line class="feint" x1="6.992" x2="521.008" y1="551.622" y2="551.622"/>
    <line class="feint" x1="6.992" x2="521.008" y1="559.181" y2="559.181"/>
    <line class="major" x1="6.992" x2="521.008" y1="566.740" y2="566.740"/>
    <line class="feint" x1="6.992" x2="521.008" y1="574.299" y2="574.299"/>
    <line class="feint" x1="6.992" x2="521.008" y1="581.858" y2="581.858"/>
    <line class="major" x1="6.992" x2="521.008" y1="589.417" y2="589.417"/>
    <line class="feint" x1="6.992" x2="521.008" y1="596.976" y2="596.976"/>
    <line class="feint" x1="6.992" x2="521.008" y1="604.535" y2="604.535"/>
    <line class="major" x1="6.992" x2="521.008" y1="612.094" y2="612.094"/>
    <line class="feint" x1="6.992" x2="521.008" y1="619.654" y2="619.654"/>
    <line class="feint" x1="6.992" x2="521.008" y1="627.213" y2="627.213"/>
    <line class="major" x1="6.992" x2="521.008" y1="634.772" y2="634.772"/>
    <line class="feint" x1="6.992" x2="521.008" y1="642.331" y2="642.331"/>
    <line class="feint" x1="6.992" x2="521.008" y1="649.890" y2="649.890"/>
    <line class="major" x1="6.992" x2="521.008" y1="657.449" y2="657.449"/>
    <line class="feint" x1="6.992" x2="521.008" y1="665.008" y2="665.008"/>
    <line class="feint" x1="6.992" x2="521.008" y1="672.567" y2="672.567"/>
    <line class="major" x1="6.992" x2="521.008" y1="680.126" y2="680.126"/>
    <line class="feint" x1="6.992" x2="521.008" y1="687.685" y2="687.685"/>
    <line class="feint" x1="6.992" x2="521.008" y1="695.244" y2="695.244"/>
    <line class="major" x1="6.992" x2="521.008" y1="702.803" y2="702.803"/>
    <line class="feint" x1="6.992" x2="521.008" y1="710.362" y2="710.362"/>
    <line class="feint" x1="6.992" x2="521.008" y1="717.921" y2="717.921"/>
    <line class="major" x1="6.992" x2="521.008" y1="725.480" y2="725.480"/>
    <line class="feint" x1="6.992" x2="521.008" y1="733.039" y2="733.039"/>
    <line class="feint" x1="6.992" x2="521.008" y1="740.598" y2="740.598"/>
    <line class="major" x1="6.992" x2="521.008" y1="748.157" y2="748.157"/>
    <line class="feint" x1="6.992" x2="521.008" y1="755.717" y2="755.717"/>
    <line class="feint" x1="6.992" x2="521.008" y1="763.276" y2="763.276"/>
    <line class="major" x1="6.992" x2="521.008" y1="770.835" y2="770.835"/>
    <line class="feint" x1="6.992" x2="521.008" y1="778.394" y2="778.394"/>
    <line class="feint" x1="6.992" x2="521.008" y1="785.953" y2="785.953"/>
    <line class="major" x1="6.992" x2="521.008" y1="793.512" y2="793.512"/>
    <line class="feint" x1="6.992" x2="521.008" y1="801.071" y2="801.071"/>
    <line class="feint" x1="6.992" x2="521.008" y1="808.630" y2="808.630"/>
  </g>
</svg>
